G04 #@! TF.GenerationSoftware,KiCad,Pcbnew,(7.0.0)*
G04 #@! TF.CreationDate,2023-03-04T18:09:34-06:00*
G04 #@! TF.ProjectId,417 Schematic,34313720-5363-4686-956d-617469632e6b,rev?*
G04 #@! TF.SameCoordinates,Original*
G04 #@! TF.FileFunction,Legend,Top*
G04 #@! TF.FilePolarity,Positive*
%FSLAX46Y46*%
G04 Gerber Fmt 4.6, Leading zero omitted, Abs format (unit mm)*
G04 Created by KiCad (PCBNEW (7.0.0)) date 2023-03-04 18:09:34*
%MOMM*%
%LPD*%
G01*
G04 APERTURE LIST*
%ADD10C,0.150000*%
%ADD11C,0.120000*%
%ADD12R,1.600000X1.600000*%
%ADD13O,1.600000X1.600000*%
%ADD14C,3.200000*%
%ADD15C,1.600000*%
%ADD16O,1.400000X1.400000*%
%ADD17C,1.400000*%
%ADD18C,2.400000*%
%ADD19R,2.400000X2.400000*%
%ADD20C,2.000000*%
%ADD21R,2.000000X2.000000*%
G04 APERTURE END LIST*
D10*
X157583333Y-99972619D02*
X157630952Y-99925000D01*
X157630952Y-99925000D02*
X157726190Y-99877380D01*
X157726190Y-99877380D02*
X157964285Y-99877380D01*
X157964285Y-99877380D02*
X158059523Y-99925000D01*
X158059523Y-99925000D02*
X158107142Y-99972619D01*
X158107142Y-99972619D02*
X158154761Y-100067857D01*
X158154761Y-100067857D02*
X158154761Y-100163095D01*
X158154761Y-100163095D02*
X158107142Y-100305952D01*
X158107142Y-100305952D02*
X157535714Y-100877380D01*
X157535714Y-100877380D02*
X158154761Y-100877380D01*
X158535714Y-99972619D02*
X158583333Y-99925000D01*
X158583333Y-99925000D02*
X158678571Y-99877380D01*
X158678571Y-99877380D02*
X158916666Y-99877380D01*
X158916666Y-99877380D02*
X159011904Y-99925000D01*
X159011904Y-99925000D02*
X159059523Y-99972619D01*
X159059523Y-99972619D02*
X159107142Y-100067857D01*
X159107142Y-100067857D02*
X159107142Y-100163095D01*
X159107142Y-100163095D02*
X159059523Y-100305952D01*
X159059523Y-100305952D02*
X158488095Y-100877380D01*
X158488095Y-100877380D02*
X159107142Y-100877380D01*
X159535714Y-100877380D02*
X159535714Y-99877380D01*
X159630952Y-100496428D02*
X159916666Y-100877380D01*
X159916666Y-100210714D02*
X159535714Y-100591666D01*
X158154761Y-90357380D02*
X157583333Y-90357380D01*
X157869047Y-90357380D02*
X157869047Y-89357380D01*
X157869047Y-89357380D02*
X157773809Y-89500238D01*
X157773809Y-89500238D02*
X157678571Y-89595476D01*
X157678571Y-89595476D02*
X157583333Y-89643095D01*
X158535714Y-89452619D02*
X158583333Y-89405000D01*
X158583333Y-89405000D02*
X158678571Y-89357380D01*
X158678571Y-89357380D02*
X158916666Y-89357380D01*
X158916666Y-89357380D02*
X159011904Y-89405000D01*
X159011904Y-89405000D02*
X159059523Y-89452619D01*
X159059523Y-89452619D02*
X159107142Y-89547857D01*
X159107142Y-89547857D02*
X159107142Y-89643095D01*
X159107142Y-89643095D02*
X159059523Y-89785952D01*
X159059523Y-89785952D02*
X158488095Y-90357380D01*
X158488095Y-90357380D02*
X159107142Y-90357380D01*
X159535714Y-90357380D02*
X159535714Y-89357380D01*
X159630952Y-89976428D02*
X159916666Y-90357380D01*
X159916666Y-89690714D02*
X159535714Y-90071666D01*
X173737380Y-95845238D02*
X173737380Y-96416666D01*
X173737380Y-96130952D02*
X172737380Y-96130952D01*
X172737380Y-96130952D02*
X172880238Y-96226190D01*
X172880238Y-96226190D02*
X172975476Y-96321428D01*
X172975476Y-96321428D02*
X173023095Y-96416666D01*
X172737380Y-95226190D02*
X172737380Y-95130952D01*
X172737380Y-95130952D02*
X172785000Y-95035714D01*
X172785000Y-95035714D02*
X172832619Y-94988095D01*
X172832619Y-94988095D02*
X172927857Y-94940476D01*
X172927857Y-94940476D02*
X173118333Y-94892857D01*
X173118333Y-94892857D02*
X173356428Y-94892857D01*
X173356428Y-94892857D02*
X173546904Y-94940476D01*
X173546904Y-94940476D02*
X173642142Y-94988095D01*
X173642142Y-94988095D02*
X173689761Y-95035714D01*
X173689761Y-95035714D02*
X173737380Y-95130952D01*
X173737380Y-95130952D02*
X173737380Y-95226190D01*
X173737380Y-95226190D02*
X173689761Y-95321428D01*
X173689761Y-95321428D02*
X173642142Y-95369047D01*
X173642142Y-95369047D02*
X173546904Y-95416666D01*
X173546904Y-95416666D02*
X173356428Y-95464285D01*
X173356428Y-95464285D02*
X173118333Y-95464285D01*
X173118333Y-95464285D02*
X172927857Y-95416666D01*
X172927857Y-95416666D02*
X172832619Y-95369047D01*
X172832619Y-95369047D02*
X172785000Y-95321428D01*
X172785000Y-95321428D02*
X172737380Y-95226190D01*
X173737380Y-94464285D02*
X172737380Y-94464285D01*
X173356428Y-94369047D02*
X173737380Y-94083333D01*
X173070714Y-94083333D02*
X173451666Y-94464285D01*
X150469999Y-74027380D02*
X150469999Y-73027380D01*
X150469999Y-73027380D02*
X150803332Y-73741666D01*
X150803332Y-73741666D02*
X151136665Y-73027380D01*
X151136665Y-73027380D02*
X151136665Y-74027380D01*
X152041427Y-74027380D02*
X152041427Y-73503571D01*
X152041427Y-73503571D02*
X151993808Y-73408333D01*
X151993808Y-73408333D02*
X151898570Y-73360714D01*
X151898570Y-73360714D02*
X151708094Y-73360714D01*
X151708094Y-73360714D02*
X151612856Y-73408333D01*
X152041427Y-73979761D02*
X151946189Y-74027380D01*
X151946189Y-74027380D02*
X151708094Y-74027380D01*
X151708094Y-74027380D02*
X151612856Y-73979761D01*
X151612856Y-73979761D02*
X151565237Y-73884523D01*
X151565237Y-73884523D02*
X151565237Y-73789285D01*
X151565237Y-73789285D02*
X151612856Y-73694047D01*
X151612856Y-73694047D02*
X151708094Y-73646428D01*
X151708094Y-73646428D02*
X151946189Y-73646428D01*
X151946189Y-73646428D02*
X152041427Y-73598809D01*
X152517618Y-74027380D02*
X152517618Y-73027380D01*
X152612856Y-73646428D02*
X152898570Y-74027380D01*
X152898570Y-73360714D02*
X152517618Y-73741666D01*
X153708094Y-73979761D02*
X153612856Y-74027380D01*
X153612856Y-74027380D02*
X153422380Y-74027380D01*
X153422380Y-74027380D02*
X153327142Y-73979761D01*
X153327142Y-73979761D02*
X153279523Y-73884523D01*
X153279523Y-73884523D02*
X153279523Y-73503571D01*
X153279523Y-73503571D02*
X153327142Y-73408333D01*
X153327142Y-73408333D02*
X153422380Y-73360714D01*
X153422380Y-73360714D02*
X153612856Y-73360714D01*
X153612856Y-73360714D02*
X153708094Y-73408333D01*
X153708094Y-73408333D02*
X153755713Y-73503571D01*
X153755713Y-73503571D02*
X153755713Y-73598809D01*
X153755713Y-73598809D02*
X153279523Y-73694047D01*
X154184285Y-74027380D02*
X154184285Y-73360714D01*
X154184285Y-73551190D02*
X154231904Y-73455952D01*
X154231904Y-73455952D02*
X154279523Y-73408333D01*
X154279523Y-73408333D02*
X154374761Y-73360714D01*
X154374761Y-73360714D02*
X154469999Y-73360714D01*
X155136666Y-73503571D02*
X155279523Y-73551190D01*
X155279523Y-73551190D02*
X155327142Y-73598809D01*
X155327142Y-73598809D02*
X155374761Y-73694047D01*
X155374761Y-73694047D02*
X155374761Y-73836904D01*
X155374761Y-73836904D02*
X155327142Y-73932142D01*
X155327142Y-73932142D02*
X155279523Y-73979761D01*
X155279523Y-73979761D02*
X155184285Y-74027380D01*
X155184285Y-74027380D02*
X154803333Y-74027380D01*
X154803333Y-74027380D02*
X154803333Y-73027380D01*
X154803333Y-73027380D02*
X155136666Y-73027380D01*
X155136666Y-73027380D02*
X155231904Y-73075000D01*
X155231904Y-73075000D02*
X155279523Y-73122619D01*
X155279523Y-73122619D02*
X155327142Y-73217857D01*
X155327142Y-73217857D02*
X155327142Y-73313095D01*
X155327142Y-73313095D02*
X155279523Y-73408333D01*
X155279523Y-73408333D02*
X155231904Y-73455952D01*
X155231904Y-73455952D02*
X155136666Y-73503571D01*
X155136666Y-73503571D02*
X154803333Y-73503571D01*
X155946190Y-74027380D02*
X155850952Y-73979761D01*
X155850952Y-73979761D02*
X155803333Y-73932142D01*
X155803333Y-73932142D02*
X155755714Y-73836904D01*
X155755714Y-73836904D02*
X155755714Y-73551190D01*
X155755714Y-73551190D02*
X155803333Y-73455952D01*
X155803333Y-73455952D02*
X155850952Y-73408333D01*
X155850952Y-73408333D02*
X155946190Y-73360714D01*
X155946190Y-73360714D02*
X156089047Y-73360714D01*
X156089047Y-73360714D02*
X156184285Y-73408333D01*
X156184285Y-73408333D02*
X156231904Y-73455952D01*
X156231904Y-73455952D02*
X156279523Y-73551190D01*
X156279523Y-73551190D02*
X156279523Y-73836904D01*
X156279523Y-73836904D02*
X156231904Y-73932142D01*
X156231904Y-73932142D02*
X156184285Y-73979761D01*
X156184285Y-73979761D02*
X156089047Y-74027380D01*
X156089047Y-74027380D02*
X155946190Y-74027380D01*
X156565238Y-73360714D02*
X156946190Y-73360714D01*
X156708095Y-73027380D02*
X156708095Y-73884523D01*
X156708095Y-73884523D02*
X156755714Y-73979761D01*
X156755714Y-73979761D02*
X156850952Y-74027380D01*
X156850952Y-74027380D02*
X156946190Y-74027380D01*
X157612857Y-73503571D02*
X157755714Y-73551190D01*
X157755714Y-73551190D02*
X157803333Y-73598809D01*
X157803333Y-73598809D02*
X157850952Y-73694047D01*
X157850952Y-73694047D02*
X157850952Y-73836904D01*
X157850952Y-73836904D02*
X157803333Y-73932142D01*
X157803333Y-73932142D02*
X157755714Y-73979761D01*
X157755714Y-73979761D02*
X157660476Y-74027380D01*
X157660476Y-74027380D02*
X157279524Y-74027380D01*
X157279524Y-74027380D02*
X157279524Y-73027380D01*
X157279524Y-73027380D02*
X157612857Y-73027380D01*
X157612857Y-73027380D02*
X157708095Y-73075000D01*
X157708095Y-73075000D02*
X157755714Y-73122619D01*
X157755714Y-73122619D02*
X157803333Y-73217857D01*
X157803333Y-73217857D02*
X157803333Y-73313095D01*
X157803333Y-73313095D02*
X157755714Y-73408333D01*
X157755714Y-73408333D02*
X157708095Y-73455952D01*
X157708095Y-73455952D02*
X157612857Y-73503571D01*
X157612857Y-73503571D02*
X157279524Y-73503571D01*
X158422381Y-74027380D02*
X158327143Y-73979761D01*
X158327143Y-73979761D02*
X158279524Y-73932142D01*
X158279524Y-73932142D02*
X158231905Y-73836904D01*
X158231905Y-73836904D02*
X158231905Y-73551190D01*
X158231905Y-73551190D02*
X158279524Y-73455952D01*
X158279524Y-73455952D02*
X158327143Y-73408333D01*
X158327143Y-73408333D02*
X158422381Y-73360714D01*
X158422381Y-73360714D02*
X158565238Y-73360714D01*
X158565238Y-73360714D02*
X158660476Y-73408333D01*
X158660476Y-73408333D02*
X158708095Y-73455952D01*
X158708095Y-73455952D02*
X158755714Y-73551190D01*
X158755714Y-73551190D02*
X158755714Y-73836904D01*
X158755714Y-73836904D02*
X158708095Y-73932142D01*
X158708095Y-73932142D02*
X158660476Y-73979761D01*
X158660476Y-73979761D02*
X158565238Y-74027380D01*
X158565238Y-74027380D02*
X158422381Y-74027380D01*
X159041429Y-73360714D02*
X159422381Y-73360714D01*
X159184286Y-73027380D02*
X159184286Y-73884523D01*
X159184286Y-73884523D02*
X159231905Y-73979761D01*
X159231905Y-73979761D02*
X159327143Y-74027380D01*
X159327143Y-74027380D02*
X159422381Y-74027380D01*
X159708096Y-73979761D02*
X159850953Y-74027380D01*
X159850953Y-74027380D02*
X160089048Y-74027380D01*
X160089048Y-74027380D02*
X160184286Y-73979761D01*
X160184286Y-73979761D02*
X160231905Y-73932142D01*
X160231905Y-73932142D02*
X160279524Y-73836904D01*
X160279524Y-73836904D02*
X160279524Y-73741666D01*
X160279524Y-73741666D02*
X160231905Y-73646428D01*
X160231905Y-73646428D02*
X160184286Y-73598809D01*
X160184286Y-73598809D02*
X160089048Y-73551190D01*
X160089048Y-73551190D02*
X159898572Y-73503571D01*
X159898572Y-73503571D02*
X159803334Y-73455952D01*
X159803334Y-73455952D02*
X159755715Y-73408333D01*
X159755715Y-73408333D02*
X159708096Y-73313095D01*
X159708096Y-73313095D02*
X159708096Y-73217857D01*
X159708096Y-73217857D02*
X159755715Y-73122619D01*
X159755715Y-73122619D02*
X159803334Y-73075000D01*
X159803334Y-73075000D02*
X159898572Y-73027380D01*
X159898572Y-73027380D02*
X160136667Y-73027380D01*
X160136667Y-73027380D02*
X160279524Y-73075000D01*
X160565239Y-73360714D02*
X160946191Y-73360714D01*
X160708096Y-73027380D02*
X160708096Y-73884523D01*
X160708096Y-73884523D02*
X160755715Y-73979761D01*
X160755715Y-73979761D02*
X160850953Y-74027380D01*
X160850953Y-74027380D02*
X160946191Y-74027380D01*
X161660477Y-73979761D02*
X161565239Y-74027380D01*
X161565239Y-74027380D02*
X161374763Y-74027380D01*
X161374763Y-74027380D02*
X161279525Y-73979761D01*
X161279525Y-73979761D02*
X161231906Y-73884523D01*
X161231906Y-73884523D02*
X161231906Y-73503571D01*
X161231906Y-73503571D02*
X161279525Y-73408333D01*
X161279525Y-73408333D02*
X161374763Y-73360714D01*
X161374763Y-73360714D02*
X161565239Y-73360714D01*
X161565239Y-73360714D02*
X161660477Y-73408333D01*
X161660477Y-73408333D02*
X161708096Y-73503571D01*
X161708096Y-73503571D02*
X161708096Y-73598809D01*
X161708096Y-73598809D02*
X161231906Y-73694047D01*
X162136668Y-73360714D02*
X162136668Y-74360714D01*
X162136668Y-73408333D02*
X162231906Y-73360714D01*
X162231906Y-73360714D02*
X162422382Y-73360714D01*
X162422382Y-73360714D02*
X162517620Y-73408333D01*
X162517620Y-73408333D02*
X162565239Y-73455952D01*
X162565239Y-73455952D02*
X162612858Y-73551190D01*
X162612858Y-73551190D02*
X162612858Y-73836904D01*
X162612858Y-73836904D02*
X162565239Y-73932142D01*
X162565239Y-73932142D02*
X162517620Y-73979761D01*
X162517620Y-73979761D02*
X162422382Y-74027380D01*
X162422382Y-74027380D02*
X162231906Y-74027380D01*
X162231906Y-74027380D02*
X162136668Y-73979761D01*
X163565239Y-74027380D02*
X162993811Y-74027380D01*
X163279525Y-74027380D02*
X163279525Y-73027380D01*
X163279525Y-73027380D02*
X163184287Y-73170238D01*
X163184287Y-73170238D02*
X163089049Y-73265476D01*
X163089049Y-73265476D02*
X162993811Y-73313095D01*
X163898573Y-73027380D02*
X164565239Y-73027380D01*
X164565239Y-73027380D02*
X164136668Y-74027380D01*
X183006666Y-51437380D02*
X183006666Y-52151666D01*
X183006666Y-52151666D02*
X182959047Y-52294523D01*
X182959047Y-52294523D02*
X182863809Y-52389761D01*
X182863809Y-52389761D02*
X182720952Y-52437380D01*
X182720952Y-52437380D02*
X182625714Y-52437380D01*
X184006666Y-52437380D02*
X183435238Y-52437380D01*
X183720952Y-52437380D02*
X183720952Y-51437380D01*
X183720952Y-51437380D02*
X183625714Y-51580238D01*
X183625714Y-51580238D02*
X183530476Y-51675476D01*
X183530476Y-51675476D02*
X183435238Y-51723095D01*
X169902380Y-58787357D02*
X169330952Y-58787357D01*
X169616666Y-58787357D02*
X169616666Y-57787357D01*
X169616666Y-57787357D02*
X169521428Y-57930215D01*
X169521428Y-57930215D02*
X169426190Y-58025453D01*
X169426190Y-58025453D02*
X169330952Y-58073072D01*
X170521428Y-57787357D02*
X170616666Y-57787357D01*
X170616666Y-57787357D02*
X170711904Y-57834977D01*
X170711904Y-57834977D02*
X170759523Y-57882596D01*
X170759523Y-57882596D02*
X170807142Y-57977834D01*
X170807142Y-57977834D02*
X170854761Y-58168310D01*
X170854761Y-58168310D02*
X170854761Y-58406405D01*
X170854761Y-58406405D02*
X170807142Y-58596881D01*
X170807142Y-58596881D02*
X170759523Y-58692119D01*
X170759523Y-58692119D02*
X170711904Y-58739738D01*
X170711904Y-58739738D02*
X170616666Y-58787357D01*
X170616666Y-58787357D02*
X170521428Y-58787357D01*
X170521428Y-58787357D02*
X170426190Y-58739738D01*
X170426190Y-58739738D02*
X170378571Y-58692119D01*
X170378571Y-58692119D02*
X170330952Y-58596881D01*
X170330952Y-58596881D02*
X170283333Y-58406405D01*
X170283333Y-58406405D02*
X170283333Y-58168310D01*
X170283333Y-58168310D02*
X170330952Y-57977834D01*
X170330952Y-57977834D02*
X170378571Y-57882596D01*
X170378571Y-57882596D02*
X170426190Y-57834977D01*
X170426190Y-57834977D02*
X170521428Y-57787357D01*
X171473809Y-57787357D02*
X171569047Y-57787357D01*
X171569047Y-57787357D02*
X171664285Y-57834977D01*
X171664285Y-57834977D02*
X171711904Y-57882596D01*
X171711904Y-57882596D02*
X171759523Y-57977834D01*
X171759523Y-57977834D02*
X171807142Y-58168310D01*
X171807142Y-58168310D02*
X171807142Y-58406405D01*
X171807142Y-58406405D02*
X171759523Y-58596881D01*
X171759523Y-58596881D02*
X171711904Y-58692119D01*
X171711904Y-58692119D02*
X171664285Y-58739738D01*
X171664285Y-58739738D02*
X171569047Y-58787357D01*
X171569047Y-58787357D02*
X171473809Y-58787357D01*
X171473809Y-58787357D02*
X171378571Y-58739738D01*
X171378571Y-58739738D02*
X171330952Y-58692119D01*
X171330952Y-58692119D02*
X171283333Y-58596881D01*
X171283333Y-58596881D02*
X171235714Y-58406405D01*
X171235714Y-58406405D02*
X171235714Y-58168310D01*
X171235714Y-58168310D02*
X171283333Y-57977834D01*
X171283333Y-57977834D02*
X171330952Y-57882596D01*
X171330952Y-57882596D02*
X171378571Y-57834977D01*
X171378571Y-57834977D02*
X171473809Y-57787357D01*
X172664285Y-58120691D02*
X172664285Y-58787357D01*
X172235714Y-58120691D02*
X172235714Y-58644500D01*
X172235714Y-58644500D02*
X172283333Y-58739738D01*
X172283333Y-58739738D02*
X172378571Y-58787357D01*
X172378571Y-58787357D02*
X172521428Y-58787357D01*
X172521428Y-58787357D02*
X172616666Y-58739738D01*
X172616666Y-58739738D02*
X172664285Y-58692119D01*
X173473809Y-58263548D02*
X173140476Y-58263548D01*
X173140476Y-58787357D02*
X173140476Y-57787357D01*
X173140476Y-57787357D02*
X173616666Y-57787357D01*
X169902380Y-80377380D02*
X169330952Y-80377380D01*
X169616666Y-80377380D02*
X169616666Y-79377380D01*
X169616666Y-79377380D02*
X169521428Y-79520238D01*
X169521428Y-79520238D02*
X169426190Y-79615476D01*
X169426190Y-79615476D02*
X169330952Y-79663095D01*
X170521428Y-79377380D02*
X170616666Y-79377380D01*
X170616666Y-79377380D02*
X170711904Y-79425000D01*
X170711904Y-79425000D02*
X170759523Y-79472619D01*
X170759523Y-79472619D02*
X170807142Y-79567857D01*
X170807142Y-79567857D02*
X170854761Y-79758333D01*
X170854761Y-79758333D02*
X170854761Y-79996428D01*
X170854761Y-79996428D02*
X170807142Y-80186904D01*
X170807142Y-80186904D02*
X170759523Y-80282142D01*
X170759523Y-80282142D02*
X170711904Y-80329761D01*
X170711904Y-80329761D02*
X170616666Y-80377380D01*
X170616666Y-80377380D02*
X170521428Y-80377380D01*
X170521428Y-80377380D02*
X170426190Y-80329761D01*
X170426190Y-80329761D02*
X170378571Y-80282142D01*
X170378571Y-80282142D02*
X170330952Y-80186904D01*
X170330952Y-80186904D02*
X170283333Y-79996428D01*
X170283333Y-79996428D02*
X170283333Y-79758333D01*
X170283333Y-79758333D02*
X170330952Y-79567857D01*
X170330952Y-79567857D02*
X170378571Y-79472619D01*
X170378571Y-79472619D02*
X170426190Y-79425000D01*
X170426190Y-79425000D02*
X170521428Y-79377380D01*
X171473809Y-79377380D02*
X171569047Y-79377380D01*
X171569047Y-79377380D02*
X171664285Y-79425000D01*
X171664285Y-79425000D02*
X171711904Y-79472619D01*
X171711904Y-79472619D02*
X171759523Y-79567857D01*
X171759523Y-79567857D02*
X171807142Y-79758333D01*
X171807142Y-79758333D02*
X171807142Y-79996428D01*
X171807142Y-79996428D02*
X171759523Y-80186904D01*
X171759523Y-80186904D02*
X171711904Y-80282142D01*
X171711904Y-80282142D02*
X171664285Y-80329761D01*
X171664285Y-80329761D02*
X171569047Y-80377380D01*
X171569047Y-80377380D02*
X171473809Y-80377380D01*
X171473809Y-80377380D02*
X171378571Y-80329761D01*
X171378571Y-80329761D02*
X171330952Y-80282142D01*
X171330952Y-80282142D02*
X171283333Y-80186904D01*
X171283333Y-80186904D02*
X171235714Y-79996428D01*
X171235714Y-79996428D02*
X171235714Y-79758333D01*
X171235714Y-79758333D02*
X171283333Y-79567857D01*
X171283333Y-79567857D02*
X171330952Y-79472619D01*
X171330952Y-79472619D02*
X171378571Y-79425000D01*
X171378571Y-79425000D02*
X171473809Y-79377380D01*
X172235714Y-79710714D02*
X172235714Y-80377380D01*
X172235714Y-79805952D02*
X172283333Y-79758333D01*
X172283333Y-79758333D02*
X172378571Y-79710714D01*
X172378571Y-79710714D02*
X172521428Y-79710714D01*
X172521428Y-79710714D02*
X172616666Y-79758333D01*
X172616666Y-79758333D02*
X172664285Y-79853571D01*
X172664285Y-79853571D02*
X172664285Y-80377380D01*
X173473809Y-79853571D02*
X173140476Y-79853571D01*
X173140476Y-80377380D02*
X173140476Y-79377380D01*
X173140476Y-79377380D02*
X173616666Y-79377380D01*
D11*
X110740000Y-101730000D02*
X143510000Y-101730000D01*
X148720000Y-99190000D02*
X148720000Y-46990000D01*
X96770000Y-99190000D02*
X108200000Y-99190000D01*
X95120000Y-46990000D02*
X95120000Y-97540000D01*
X143510000Y-101730000D02*
X146050000Y-99190000D01*
X95120000Y-97540000D02*
X96770000Y-99190000D01*
X146050000Y-99190000D02*
X148720000Y-99190000D01*
X108200000Y-99190000D02*
X110740000Y-101730000D01*
X163370000Y-96070000D02*
X154130000Y-96070000D01*
X163370000Y-99510000D02*
X163370000Y-96070000D01*
X154130000Y-99510000D02*
X163370000Y-99510000D01*
X165330000Y-97790000D02*
X163370000Y-97790000D01*
X154130000Y-96070000D02*
X154130000Y-99510000D01*
X152170000Y-97790000D02*
X154130000Y-97790000D01*
X154130000Y-94430000D02*
X163370000Y-94430000D01*
X154130000Y-90990000D02*
X154130000Y-94430000D01*
X163370000Y-90990000D02*
X154130000Y-90990000D01*
X152170000Y-92710000D02*
X154130000Y-92710000D01*
X163370000Y-94430000D02*
X163370000Y-90990000D01*
X165330000Y-92710000D02*
X163370000Y-92710000D01*
X171450000Y-92380000D02*
X171450000Y-93330000D01*
X172370000Y-93330000D02*
X170530000Y-93330000D01*
X171450000Y-98120000D02*
X171450000Y-97170000D01*
X170530000Y-93330000D02*
X170530000Y-97170000D01*
X172370000Y-97170000D02*
X172370000Y-93330000D01*
X170530000Y-97170000D02*
X172370000Y-97170000D01*
X149720000Y-51940000D02*
X149720000Y-72520000D01*
X165220000Y-51940000D02*
X149720000Y-51940000D01*
X152390000Y-72520000D02*
X152390000Y-51940000D01*
X149720000Y-72520000D02*
X162550000Y-72520000D01*
X162550000Y-69850000D02*
X165220000Y-69850000D01*
X162550000Y-72520000D02*
X162550000Y-69850000D01*
X162550000Y-69850000D02*
X162550000Y-51940000D01*
X163820000Y-72520000D02*
X165220000Y-72520000D01*
X165220000Y-72520000D02*
X165220000Y-71120000D01*
X165220000Y-69850000D02*
X165220000Y-51940000D01*
X182020000Y-55230000D02*
G75*
G03*
X182020000Y-55230000I-1680000J0D01*
G01*
X182020000Y-65730000D02*
G75*
G03*
X182020000Y-65730000I-1680000J0D01*
G01*
X182020000Y-79730000D02*
G75*
G03*
X182020000Y-79730000I-1680000J0D01*
G01*
X182020000Y-58730000D02*
G75*
G03*
X182020000Y-58730000I-1680000J0D01*
G01*
X182020000Y-72730000D02*
G75*
G03*
X182020000Y-72730000I-1680000J0D01*
G01*
X182020000Y-76230000D02*
G75*
G03*
X182020000Y-76230000I-1680000J0D01*
G01*
X182020000Y-69230000D02*
G75*
G03*
X182020000Y-69230000I-1680000J0D01*
G01*
X182020000Y-62230000D02*
G75*
G03*
X182020000Y-62230000I-1680000J0D01*
G01*
X179474000Y-84670000D02*
G75*
G03*
X181229894Y-84655358I866000J1439998D01*
G01*
X178900000Y-82364000D02*
G75*
G03*
X178914642Y-84119894I1439998J-866000D01*
G01*
X181230999Y-81805001D02*
G75*
G03*
X179449808Y-81804497I-890999J-1425002D01*
G01*
X181780000Y-84096000D02*
G75*
G03*
X182020098Y-83201326I-1440014J866003D01*
G01*
X182019999Y-83230000D02*
G75*
G03*
X181764720Y-82339736I-1679989J3D01*
G01*
X179065000Y-61160000D02*
X179159000Y-61254000D01*
X181281000Y-73875000D02*
X181409000Y-74004000D01*
X184900000Y-85040000D02*
X184900000Y-53420000D01*
X181281000Y-66875000D02*
X181409000Y-67004000D01*
X181521000Y-56205000D02*
X181614000Y-56299000D01*
X179065000Y-57660000D02*
X179159000Y-57754000D01*
X181521000Y-73705000D02*
X181614000Y-73799000D01*
X181281000Y-70375000D02*
X181409000Y-70504000D01*
X181281000Y-63375000D02*
X181409000Y-63504000D01*
X179065000Y-64660000D02*
X179159000Y-64754000D01*
X181521000Y-63205000D02*
X181614000Y-63299000D01*
X181521000Y-66705000D02*
X181614000Y-66799000D01*
X179271000Y-53955000D02*
X179399000Y-54084000D01*
X179065000Y-71660000D02*
X179159000Y-71754000D01*
X184440000Y-85040000D02*
X184440000Y-53420000D01*
X179271000Y-74955000D02*
X179399000Y-75084000D01*
X181521000Y-70205000D02*
X181614000Y-70299000D01*
X179271000Y-60955000D02*
X179399000Y-61084000D01*
X181521000Y-77205000D02*
X181614000Y-77299000D01*
X177180000Y-85040000D02*
X184900000Y-85040000D01*
X185140000Y-85280000D02*
X185140000Y-84880000D01*
X183340000Y-85040000D02*
X183340000Y-53420000D01*
X179065000Y-75160000D02*
X179159000Y-75254000D01*
X181281000Y-80875000D02*
X181409000Y-81004000D01*
X184500000Y-85280000D02*
X185140000Y-85280000D01*
X179065000Y-78660000D02*
X179159000Y-78754000D01*
X179271000Y-71455000D02*
X179399000Y-71584000D01*
X179271000Y-78455000D02*
X179399000Y-78584000D01*
X177180000Y-85040000D02*
X177180000Y-53420000D01*
X181281000Y-56375000D02*
X181409000Y-56504000D01*
X181281000Y-77375000D02*
X181409000Y-77504000D01*
X179065000Y-54160000D02*
X179159000Y-54254000D01*
X181521000Y-80705000D02*
X181614000Y-80799000D01*
X179271000Y-67955000D02*
X179399000Y-68084000D01*
X177180000Y-53420000D02*
X184900000Y-53420000D01*
X181281000Y-59875000D02*
X181409000Y-60004000D01*
X181521000Y-59705000D02*
X181614000Y-59799000D01*
X179271000Y-57455000D02*
X179399000Y-57584000D01*
X179271000Y-64455000D02*
X179399000Y-64584000D01*
X179065000Y-68160000D02*
X179159000Y-68254000D01*
X176570000Y-52202300D02*
G75*
G03*
X176570000Y-52202300I-5120000J0D01*
G01*
X176495000Y-52802300D02*
X166405000Y-52802300D01*
X176530000Y-52202300D02*
X166370000Y-52202300D01*
X170209000Y-54803300D02*
X167079000Y-54803300D01*
X170209000Y-55123300D02*
X167284000Y-55123300D01*
X170209000Y-54923300D02*
X167152000Y-54923300D01*
X175912000Y-54643300D02*
X172691000Y-54643300D01*
X170209000Y-54843300D02*
X167103000Y-54843300D01*
X170209000Y-54243300D02*
X166793000Y-54243300D01*
X174280000Y-56443300D02*
X168620000Y-56443300D01*
X175530000Y-55243300D02*
X172691000Y-55243300D01*
X176140000Y-54163300D02*
X172691000Y-54163300D01*
X176335000Y-53603300D02*
X172691000Y-53603300D01*
X172312000Y-57243300D02*
X170588000Y-57243300D01*
X176347000Y-53563300D02*
X172691000Y-53563300D01*
X175051000Y-55803300D02*
X172691000Y-55803300D01*
X176247000Y-53883300D02*
X172691000Y-53883300D01*
X173394000Y-56923300D02*
X169506000Y-56923300D01*
X176518000Y-52562300D02*
X166382000Y-52562300D01*
X176500000Y-52762300D02*
X166400000Y-52762300D01*
X174606000Y-56203300D02*
X168294000Y-56203300D01*
X170209000Y-54523300D02*
X166925000Y-54523300D01*
X176089000Y-54283300D02*
X172691000Y-54283300D01*
X170209000Y-55843300D02*
X167889000Y-55843300D01*
X170209000Y-55363300D02*
X167461000Y-55363300D01*
X175748000Y-54923300D02*
X172691000Y-54923300D01*
X175166000Y-55683300D02*
X172691000Y-55683300D01*
X176485000Y-52882300D02*
X166415000Y-52882300D01*
X170209000Y-53563300D02*
X166553000Y-53563300D01*
X175954000Y-54563300D02*
X172691000Y-54563300D01*
X176261000Y-53843300D02*
X172691000Y-53843300D01*
X170209000Y-55003300D02*
X167203000Y-55003300D01*
X170209000Y-55483300D02*
X167558000Y-55483300D01*
X173659000Y-56803300D02*
X169241000Y-56803300D01*
X176454000Y-53083300D02*
X166446000Y-53083300D01*
X176324000Y-53643300D02*
X172691000Y-53643300D01*
X176527000Y-52402300D02*
X166373000Y-52402300D01*
X170209000Y-55683300D02*
X167734000Y-55683300D01*
X176406000Y-53323300D02*
X166494000Y-53323300D01*
X176504000Y-52722300D02*
X166396000Y-52722300D01*
X170209000Y-54723300D02*
X167033000Y-54723300D01*
X176233000Y-53923300D02*
X172691000Y-53923300D01*
X170209000Y-53763300D02*
X166613000Y-53763300D01*
X176107000Y-54243300D02*
X172691000Y-54243300D01*
X170209000Y-55723300D02*
X167771000Y-55723300D01*
X175308000Y-55523300D02*
X172691000Y-55523300D01*
X170209000Y-54683300D02*
X167010000Y-54683300D01*
X176188000Y-54043300D02*
X172691000Y-54043300D01*
X170209000Y-53603300D02*
X166565000Y-53603300D01*
X174797000Y-56043300D02*
X168103000Y-56043300D01*
X176274000Y-53803300D02*
X172691000Y-53803300D01*
X175375000Y-55443300D02*
X172691000Y-55443300D01*
X176424000Y-53243300D02*
X166476000Y-53243300D01*
X170209000Y-55283300D02*
X167400000Y-55283300D01*
X175995000Y-54483300D02*
X172691000Y-54483300D01*
X170209000Y-55563300D02*
X167626000Y-55563300D01*
X170209000Y-54963300D02*
X167177000Y-54963300D01*
X174704000Y-56123300D02*
X168196000Y-56123300D01*
X174751000Y-56083300D02*
X168149000Y-56083300D01*
X175274000Y-55563300D02*
X172691000Y-55563300D01*
X176523000Y-52482300D02*
X166377000Y-52482300D01*
X170209000Y-54763300D02*
X167055000Y-54763300D01*
X173960000Y-56643300D02*
X168940000Y-56643300D01*
X175797000Y-54843300D02*
X172691000Y-54843300D01*
X170209000Y-53843300D02*
X166639000Y-53843300D01*
X176515000Y-52602300D02*
X166385000Y-52602300D01*
X174556000Y-56243300D02*
X168344000Y-56243300D01*
X170209000Y-55403300D02*
X167493000Y-55403300D01*
X170209000Y-54163300D02*
X166760000Y-54163300D01*
X170209000Y-54643300D02*
X166988000Y-54643300D01*
X176525000Y-52442300D02*
X166375000Y-52442300D01*
X176368000Y-53483300D02*
X172691000Y-53483300D01*
X174029000Y-56603300D02*
X168871000Y-56603300D01*
X170209000Y-55603300D02*
X167661000Y-55603300D01*
X174825000Y-47222654D02*
X173825000Y-47222654D01*
X176528000Y-52362300D02*
X166372000Y-52362300D01*
X176034000Y-54403300D02*
X172691000Y-54403300D01*
X176378000Y-53443300D02*
X166522000Y-53443300D01*
X170209000Y-54483300D02*
X166905000Y-54483300D01*
X170209000Y-55763300D02*
X167810000Y-55763300D01*
X175821000Y-54803300D02*
X172691000Y-54803300D01*
X175090000Y-55763300D02*
X172691000Y-55763300D01*
X175203000Y-55643300D02*
X172691000Y-55643300D01*
X170209000Y-54003300D02*
X166696000Y-54003300D01*
X170209000Y-54043300D02*
X166712000Y-54043300D01*
X170209000Y-54323300D02*
X166829000Y-54323300D01*
X174395000Y-56363300D02*
X168505000Y-56363300D01*
X173815000Y-56723300D02*
X169085000Y-56723300D01*
X175845000Y-54763300D02*
X172691000Y-54763300D01*
X175933000Y-54603300D02*
X172691000Y-54603300D01*
X174504000Y-56283300D02*
X168396000Y-56283300D01*
X175560000Y-55203300D02*
X172691000Y-55203300D01*
X170209000Y-55883300D02*
X167930000Y-55883300D01*
X176014000Y-54443300D02*
X172691000Y-54443300D01*
X170209000Y-54883300D02*
X167127000Y-54883300D01*
X175697000Y-55003300D02*
X172691000Y-55003300D01*
X176157000Y-54123300D02*
X172691000Y-54123300D01*
X175890000Y-54683300D02*
X172691000Y-54683300D01*
X172049000Y-57283300D02*
X170851000Y-57283300D01*
X170209000Y-53523300D02*
X166543000Y-53523300D01*
X176468000Y-53003300D02*
X166432000Y-53003300D01*
X170209000Y-55923300D02*
X167972000Y-55923300D01*
X170209000Y-53643300D02*
X166576000Y-53643300D01*
X170209000Y-54443300D02*
X166886000Y-54443300D01*
X170209000Y-55243300D02*
X167370000Y-55243300D01*
X175500000Y-55283300D02*
X172691000Y-55283300D01*
X170209000Y-55203300D02*
X167340000Y-55203300D01*
X176474000Y-52963300D02*
X166426000Y-52963300D01*
X172512000Y-57203300D02*
X170388000Y-57203300D01*
X176529000Y-52322300D02*
X166371000Y-52322300D01*
X175342000Y-55483300D02*
X172691000Y-55483300D01*
X175011000Y-55843300D02*
X172691000Y-55843300D01*
X175867000Y-54723300D02*
X172691000Y-54723300D01*
X174339000Y-56403300D02*
X168561000Y-56403300D01*
X170209000Y-55083300D02*
X167256000Y-55083300D01*
X176461000Y-53043300D02*
X166439000Y-53043300D01*
X170209000Y-55043300D02*
X167229000Y-55043300D01*
X176432000Y-53203300D02*
X166468000Y-53203300D01*
X170209000Y-53923300D02*
X166667000Y-53923300D01*
X174886000Y-55963300D02*
X168014000Y-55963300D01*
X170209000Y-54083300D02*
X166727000Y-54083300D01*
X176530000Y-52282300D02*
X166370000Y-52282300D01*
X175588000Y-55163300D02*
X172691000Y-55163300D01*
X170209000Y-54123300D02*
X166743000Y-54123300D01*
X176388000Y-53403300D02*
X166512000Y-53403300D01*
X175773000Y-54883300D02*
X172691000Y-54883300D01*
X174095000Y-56563300D02*
X168805000Y-56563300D01*
X175407000Y-55403300D02*
X172691000Y-55403300D01*
X176287000Y-53763300D02*
X172691000Y-53763300D01*
X174450000Y-56323300D02*
X168450000Y-56323300D01*
X176508000Y-52682300D02*
X166392000Y-52682300D01*
X173080000Y-57043300D02*
X169820000Y-57043300D01*
X175723000Y-54963300D02*
X172691000Y-54963300D01*
X174159000Y-56523300D02*
X168741000Y-56523300D01*
X176490000Y-52842300D02*
X166410000Y-52842300D01*
X175129000Y-55723300D02*
X172691000Y-55723300D01*
X170209000Y-54403300D02*
X166866000Y-54403300D01*
X170209000Y-54603300D02*
X166967000Y-54603300D01*
X170209000Y-53963300D02*
X166682000Y-53963300D01*
X176204000Y-54003300D02*
X172691000Y-54003300D01*
X175470000Y-55323300D02*
X172691000Y-55323300D01*
X173575000Y-56843300D02*
X169325000Y-56843300D01*
X176440000Y-53163300D02*
X166460000Y-53163300D01*
X170209000Y-53483300D02*
X166532000Y-53483300D01*
X174220000Y-56483300D02*
X168680000Y-56483300D01*
X173192000Y-57003300D02*
X169708000Y-57003300D01*
X170209000Y-55643300D02*
X167697000Y-55643300D01*
X175239000Y-55603300D02*
X172691000Y-55603300D01*
X170209000Y-54363300D02*
X166847000Y-54363300D01*
X176397000Y-53363300D02*
X166503000Y-53363300D01*
X170209000Y-55523300D02*
X167592000Y-55523300D01*
X170209000Y-53883300D02*
X166653000Y-53883300D01*
X176480000Y-52923300D02*
X166420000Y-52923300D01*
X175975000Y-54523300D02*
X172691000Y-54523300D01*
X174970000Y-55883300D02*
X172691000Y-55883300D01*
X172828000Y-57123300D02*
X170072000Y-57123300D01*
X176415000Y-53283300D02*
X166485000Y-53283300D01*
X176447000Y-53123300D02*
X166453000Y-53123300D01*
X176173000Y-54083300D02*
X172691000Y-54083300D01*
X170209000Y-53723300D02*
X166600000Y-53723300D01*
X174842000Y-56003300D02*
X168058000Y-56003300D01*
X175644000Y-55083300D02*
X172691000Y-55083300D01*
X172680000Y-57163300D02*
X170220000Y-57163300D01*
X176124000Y-54203300D02*
X172691000Y-54203300D01*
X174325000Y-46722654D02*
X174325000Y-47722654D01*
X176071000Y-54323300D02*
X172691000Y-54323300D01*
X176530000Y-52242300D02*
X166370000Y-52242300D01*
X176053000Y-54363300D02*
X172691000Y-54363300D01*
X176300000Y-53723300D02*
X172691000Y-53723300D01*
X173889000Y-56683300D02*
X169011000Y-56683300D01*
X170209000Y-55163300D02*
X167312000Y-55163300D01*
X170209000Y-54283300D02*
X166811000Y-54283300D01*
X175671000Y-55043300D02*
X172691000Y-55043300D01*
X174656000Y-56163300D02*
X168244000Y-56163300D01*
X170209000Y-55323300D02*
X167430000Y-55323300D01*
X170209000Y-53803300D02*
X166626000Y-53803300D01*
X176520000Y-52522300D02*
X166380000Y-52522300D01*
X175616000Y-55123300D02*
X172691000Y-55123300D01*
X170209000Y-55803300D02*
X167849000Y-55803300D01*
X173296000Y-56963300D02*
X169604000Y-56963300D01*
X173487000Y-56883300D02*
X169413000Y-56883300D01*
X176357000Y-53523300D02*
X172691000Y-53523300D01*
X176312000Y-53683300D02*
X172691000Y-53683300D01*
X170209000Y-53683300D02*
X166588000Y-53683300D01*
X176512000Y-52642300D02*
X166388000Y-52642300D01*
X172960000Y-57083300D02*
X169940000Y-57083300D01*
X170209000Y-55443300D02*
X167525000Y-55443300D01*
X173739000Y-56763300D02*
X169161000Y-56763300D01*
X176218000Y-53963300D02*
X172691000Y-53963300D01*
X175439000Y-55363300D02*
X172691000Y-55363300D01*
X170209000Y-54203300D02*
X166776000Y-54203300D01*
X174928000Y-55923300D02*
X172691000Y-55923300D01*
X170209000Y-54563300D02*
X166946000Y-54563300D01*
X176570000Y-73660000D02*
G75*
G03*
X176570000Y-73660000I-5120000J0D01*
G01*
%LPC*%
D12*
X146049999Y-60959999D03*
D13*
X146049999Y-63499999D03*
X146049999Y-66039999D03*
X146049999Y-68579999D03*
X146049999Y-71119999D03*
X146049999Y-73659999D03*
X146049999Y-76199999D03*
X146049999Y-78739999D03*
X146049999Y-83819999D03*
X146049999Y-86359999D03*
X146049999Y-88899999D03*
X146049999Y-91439999D03*
X146049999Y-93979999D03*
X146049999Y-96519999D03*
X97789999Y-96519999D03*
X97789999Y-93979999D03*
X97789999Y-91439999D03*
X97789999Y-88899999D03*
X97789999Y-86359999D03*
X97789999Y-83819999D03*
X97789999Y-81279999D03*
X97789999Y-78739999D03*
X97789999Y-74679999D03*
X97789999Y-72139999D03*
X97789999Y-69599999D03*
X97789999Y-67059999D03*
X97789999Y-64519999D03*
X97789999Y-61979999D03*
X97789999Y-59439999D03*
X97789999Y-56899999D03*
X97789999Y-54359999D03*
X97789999Y-51819999D03*
D14*
X91440000Y-100330000D03*
X182880000Y-100330000D03*
X182880000Y-48260000D03*
X91440000Y-48260000D03*
D13*
X151129999Y-97789999D03*
D15*
X166370000Y-97790000D03*
D13*
X166369999Y-92709999D03*
D15*
X151130000Y-92710000D03*
D16*
X171449999Y-99059999D03*
D17*
X171450000Y-91440000D03*
D12*
X163819999Y-71119999D03*
D13*
X163819999Y-68579999D03*
X163819999Y-66039999D03*
X163819999Y-63499999D03*
X163819999Y-60959999D03*
X163819999Y-58419999D03*
X163819999Y-55879999D03*
X163819999Y-53339999D03*
X151119999Y-53339999D03*
X151119999Y-55879999D03*
X151119999Y-58419999D03*
X151119999Y-60959999D03*
X151119999Y-63499999D03*
X151119999Y-66039999D03*
X151119999Y-68579999D03*
X151119999Y-71119999D03*
D18*
X180340000Y-55230000D03*
X180340000Y-58730000D03*
X180340000Y-62230000D03*
X180340000Y-65730000D03*
X180340000Y-69230000D03*
X180340000Y-72730000D03*
X180340000Y-76230000D03*
X180340000Y-79730000D03*
D19*
X180339999Y-83229999D03*
D20*
X171450000Y-54702300D03*
D21*
X171449999Y-49702299D03*
D15*
X171450000Y-76160000D03*
X171450000Y-71160000D03*
M02*
