G04 #@! TF.GenerationSoftware,KiCad,Pcbnew,(7.0.0)*
G04 #@! TF.CreationDate,2023-03-04T18:09:34-06:00*
G04 #@! TF.ProjectId,417 Schematic,34313720-5363-4686-956d-617469632e6b,rev?*
G04 #@! TF.SameCoordinates,Original*
G04 #@! TF.FileFunction,Copper,L1,Top*
G04 #@! TF.FilePolarity,Positive*
%FSLAX46Y46*%
G04 Gerber Fmt 4.6, Leading zero omitted, Abs format (unit mm)*
G04 Created by KiCad (PCBNEW (7.0.0)) date 2023-03-04 18:09:34*
%MOMM*%
%LPD*%
G01*
G04 APERTURE LIST*
G04 #@! TA.AperFunction,ComponentPad*
%ADD10R,1.600000X1.600000*%
G04 #@! TD*
G04 #@! TA.AperFunction,ComponentPad*
%ADD11O,1.600000X1.600000*%
G04 #@! TD*
G04 #@! TA.AperFunction,ComponentPad*
%ADD12C,1.600000*%
G04 #@! TD*
G04 #@! TA.AperFunction,ComponentPad*
%ADD13O,1.400000X1.400000*%
G04 #@! TD*
G04 #@! TA.AperFunction,ComponentPad*
%ADD14C,1.400000*%
G04 #@! TD*
G04 #@! TA.AperFunction,ComponentPad*
%ADD15C,2.400000*%
G04 #@! TD*
G04 #@! TA.AperFunction,ComponentPad*
%ADD16R,2.400000X2.400000*%
G04 #@! TD*
G04 #@! TA.AperFunction,ComponentPad*
%ADD17C,2.000000*%
G04 #@! TD*
G04 #@! TA.AperFunction,ComponentPad*
%ADD18R,2.000000X2.000000*%
G04 #@! TD*
G04 #@! TA.AperFunction,Conductor*
%ADD19C,0.250000*%
G04 #@! TD*
G04 #@! TA.AperFunction,Conductor*
%ADD20C,1.750000*%
G04 #@! TD*
G04 APERTURE END LIST*
D10*
X146049999Y-60959999D03*
D11*
X146049999Y-63499999D03*
X146049999Y-66039999D03*
X146049999Y-68579999D03*
X146049999Y-71119999D03*
X146049999Y-73659999D03*
X146049999Y-76199999D03*
X146049999Y-78739999D03*
X146049999Y-83819999D03*
X146049999Y-86359999D03*
X146049999Y-88899999D03*
X146049999Y-91439999D03*
X146049999Y-93979999D03*
X146049999Y-96519999D03*
X97789999Y-96519999D03*
X97789999Y-93979999D03*
X97789999Y-91439999D03*
X97789999Y-88899999D03*
X97789999Y-86359999D03*
X97789999Y-83819999D03*
X97789999Y-81279999D03*
X97789999Y-78739999D03*
X97789999Y-74679999D03*
X97789999Y-72139999D03*
X97789999Y-69599999D03*
X97789999Y-67059999D03*
X97789999Y-64519999D03*
X97789999Y-61979999D03*
X97789999Y-59439999D03*
X97789999Y-56899999D03*
X97789999Y-54359999D03*
X97789999Y-51819999D03*
X151129999Y-97789999D03*
D12*
X166370000Y-97790000D03*
D11*
X166369999Y-92709999D03*
D12*
X151130000Y-92710000D03*
D13*
X171449999Y-99059999D03*
D14*
X171450000Y-91440000D03*
D10*
X163819999Y-71119999D03*
D11*
X163819999Y-68579999D03*
X163819999Y-66039999D03*
X163819999Y-63499999D03*
X163819999Y-60959999D03*
X163819999Y-58419999D03*
X163819999Y-55879999D03*
X163819999Y-53339999D03*
X151119999Y-53339999D03*
X151119999Y-55879999D03*
X151119999Y-58419999D03*
X151119999Y-60959999D03*
X151119999Y-63499999D03*
X151119999Y-66039999D03*
X151119999Y-68579999D03*
X151119999Y-71119999D03*
D15*
X180340000Y-55230000D03*
X180340000Y-58730000D03*
X180340000Y-62230000D03*
X180340000Y-65730000D03*
X180340000Y-69230000D03*
X180340000Y-72730000D03*
X180340000Y-76230000D03*
X180340000Y-79730000D03*
D16*
X180339999Y-83229999D03*
D17*
X171450000Y-54702300D03*
D18*
X171449999Y-49702299D03*
D12*
X171450000Y-76160000D03*
X171450000Y-71160000D03*
D19*
X175880000Y-69230000D02*
X180340000Y-69230000D01*
X161290000Y-83820000D02*
X175880000Y-69230000D01*
X146050000Y-83820000D02*
X161290000Y-83820000D01*
D20*
X167457700Y-49702300D02*
X163820000Y-53340000D01*
X171450000Y-49702300D02*
X167457700Y-49702300D01*
X178029636Y-49702300D02*
X171450000Y-49702300D01*
X182615000Y-54287664D02*
X178029636Y-49702300D01*
X182615000Y-80955000D02*
X182615000Y-54287664D01*
X180340000Y-83230000D02*
X182615000Y-80955000D01*
D19*
X148590000Y-66040000D02*
X146050000Y-63500000D01*
X148590000Y-68590000D02*
X148590000Y-66040000D01*
X151120000Y-71120000D02*
X148590000Y-68590000D01*
X166370000Y-92710000D02*
X166370000Y-97790000D01*
D20*
X177150000Y-58420000D02*
X180340000Y-55230000D01*
X163820000Y-58420000D02*
X177150000Y-58420000D01*
X178110000Y-60960000D02*
X180340000Y-58730000D01*
X163820000Y-60960000D02*
X178110000Y-60960000D01*
X179070000Y-63500000D02*
X180340000Y-62230000D01*
X163820000Y-63500000D02*
X179070000Y-63500000D01*
X180030000Y-66040000D02*
X180340000Y-65730000D01*
X163820000Y-66040000D02*
X180030000Y-66040000D01*
X170272000Y-55880000D02*
X171450000Y-54702300D01*
X163820000Y-55880000D02*
X170272000Y-55880000D01*
G04 #@! TA.AperFunction,Conductor*
G36*
X185357500Y-45737113D02*
G01*
X185402887Y-45782500D01*
X185419500Y-45844500D01*
X185419500Y-102745500D01*
X185402887Y-102807500D01*
X185357500Y-102852887D01*
X185295500Y-102869500D01*
X89024500Y-102869500D01*
X88962500Y-102852887D01*
X88917113Y-102807500D01*
X88900500Y-102745500D01*
X88900500Y-100397765D01*
X89585788Y-100397765D01*
X89586282Y-100402262D01*
X89586283Y-100402267D01*
X89614917Y-100662506D01*
X89614918Y-100662513D01*
X89615414Y-100667018D01*
X89616559Y-100671398D01*
X89616561Y-100671408D01*
X89648830Y-100794838D01*
X89683928Y-100929088D01*
X89685693Y-100933242D01*
X89685696Y-100933250D01*
X89788099Y-101174223D01*
X89789870Y-101178390D01*
X89792226Y-101182251D01*
X89792229Y-101182256D01*
X89928618Y-101405737D01*
X89930982Y-101409610D01*
X90104255Y-101617820D01*
X90107630Y-101620844D01*
X90107631Y-101620845D01*
X90212330Y-101714656D01*
X90305998Y-101798582D01*
X90531910Y-101948044D01*
X90777176Y-102063020D01*
X91036569Y-102141060D01*
X91304561Y-102180500D01*
X91505369Y-102180500D01*
X91507631Y-102180500D01*
X91710156Y-102165677D01*
X91974553Y-102106780D01*
X92227558Y-102010014D01*
X92463777Y-101877441D01*
X92678177Y-101711888D01*
X92866186Y-101516881D01*
X93023799Y-101296579D01*
X93147656Y-101055675D01*
X93235118Y-100799305D01*
X93284319Y-100532933D01*
X93289259Y-100397765D01*
X181025788Y-100397765D01*
X181026282Y-100402262D01*
X181026283Y-100402267D01*
X181054917Y-100662506D01*
X181054918Y-100662513D01*
X181055414Y-100667018D01*
X181056559Y-100671398D01*
X181056561Y-100671408D01*
X181088830Y-100794838D01*
X181123928Y-100929088D01*
X181125693Y-100933242D01*
X181125696Y-100933250D01*
X181228099Y-101174223D01*
X181229870Y-101178390D01*
X181232226Y-101182251D01*
X181232229Y-101182256D01*
X181368618Y-101405737D01*
X181370982Y-101409610D01*
X181544255Y-101617820D01*
X181547630Y-101620844D01*
X181547631Y-101620845D01*
X181652330Y-101714656D01*
X181745998Y-101798582D01*
X181971910Y-101948044D01*
X182217176Y-102063020D01*
X182476569Y-102141060D01*
X182744561Y-102180500D01*
X182945369Y-102180500D01*
X182947631Y-102180500D01*
X183150156Y-102165677D01*
X183414553Y-102106780D01*
X183667558Y-102010014D01*
X183903777Y-101877441D01*
X184118177Y-101711888D01*
X184306186Y-101516881D01*
X184463799Y-101296579D01*
X184587656Y-101055675D01*
X184675118Y-100799305D01*
X184724319Y-100532933D01*
X184734212Y-100262235D01*
X184704586Y-99992982D01*
X184636072Y-99730912D01*
X184530130Y-99481610D01*
X184389018Y-99250390D01*
X184215745Y-99042180D01*
X184187351Y-99016739D01*
X184017382Y-98864446D01*
X184017378Y-98864442D01*
X184014002Y-98861418D01*
X183788090Y-98711956D01*
X183783996Y-98710036D01*
X183783991Y-98710034D01*
X183546929Y-98598904D01*
X183546925Y-98598902D01*
X183542824Y-98596980D01*
X183538477Y-98595672D01*
X183538474Y-98595671D01*
X183287772Y-98520246D01*
X183287771Y-98520245D01*
X183283431Y-98518940D01*
X183278957Y-98518281D01*
X183278950Y-98518280D01*
X183019913Y-98480158D01*
X183019907Y-98480157D01*
X183015439Y-98479500D01*
X182812369Y-98479500D01*
X182810120Y-98479664D01*
X182810109Y-98479665D01*
X182614363Y-98493992D01*
X182614359Y-98493992D01*
X182609844Y-98494323D01*
X182605426Y-98495307D01*
X182605420Y-98495308D01*
X182349877Y-98552232D01*
X182349861Y-98552236D01*
X182345447Y-98553220D01*
X182341216Y-98554838D01*
X182341210Y-98554840D01*
X182096673Y-98648367D01*
X182096663Y-98648371D01*
X182092442Y-98649986D01*
X182088494Y-98652201D01*
X182088489Y-98652204D01*
X181860176Y-98780340D01*
X181860171Y-98780343D01*
X181856223Y-98782559D01*
X181852639Y-98785325D01*
X181852635Y-98785329D01*
X181645407Y-98945343D01*
X181645394Y-98945354D01*
X181641823Y-98948112D01*
X181638685Y-98951366D01*
X181638678Y-98951373D01*
X181456958Y-99139857D01*
X181456952Y-99139864D01*
X181453814Y-99143119D01*
X181451189Y-99146787D01*
X181451179Y-99146800D01*
X181298834Y-99359740D01*
X181298830Y-99359745D01*
X181296201Y-99363421D01*
X181294132Y-99367444D01*
X181294129Y-99367450D01*
X181174416Y-99600293D01*
X181174411Y-99600304D01*
X181172344Y-99604325D01*
X181170884Y-99608602D01*
X181170879Y-99608616D01*
X181086348Y-99856395D01*
X181086344Y-99856407D01*
X181084882Y-99860695D01*
X181084057Y-99865159D01*
X181084057Y-99865161D01*
X181036504Y-100122606D01*
X181036502Y-100122619D01*
X181035681Y-100127067D01*
X181035515Y-100131593D01*
X181035515Y-100131599D01*
X181030576Y-100266762D01*
X181025788Y-100397765D01*
X93289259Y-100397765D01*
X93294212Y-100262235D01*
X93264586Y-99992982D01*
X93196072Y-99730912D01*
X93090130Y-99481610D01*
X92949018Y-99250390D01*
X92775745Y-99042180D01*
X92747351Y-99016739D01*
X92577382Y-98864446D01*
X92577378Y-98864442D01*
X92574002Y-98861418D01*
X92348090Y-98711956D01*
X92343996Y-98710036D01*
X92343991Y-98710034D01*
X92106929Y-98598904D01*
X92106925Y-98598902D01*
X92102824Y-98596980D01*
X92098477Y-98595672D01*
X92098474Y-98595671D01*
X91847772Y-98520246D01*
X91847771Y-98520245D01*
X91843431Y-98518940D01*
X91838957Y-98518281D01*
X91838950Y-98518280D01*
X91579913Y-98480158D01*
X91579907Y-98480157D01*
X91575439Y-98479500D01*
X91372369Y-98479500D01*
X91370120Y-98479664D01*
X91370109Y-98479665D01*
X91174363Y-98493992D01*
X91174359Y-98493992D01*
X91169844Y-98494323D01*
X91165426Y-98495307D01*
X91165420Y-98495308D01*
X90909877Y-98552232D01*
X90909861Y-98552236D01*
X90905447Y-98553220D01*
X90901216Y-98554838D01*
X90901210Y-98554840D01*
X90656673Y-98648367D01*
X90656663Y-98648371D01*
X90652442Y-98649986D01*
X90648494Y-98652201D01*
X90648489Y-98652204D01*
X90420176Y-98780340D01*
X90420171Y-98780343D01*
X90416223Y-98782559D01*
X90412639Y-98785325D01*
X90412635Y-98785329D01*
X90205407Y-98945343D01*
X90205394Y-98945354D01*
X90201823Y-98948112D01*
X90198685Y-98951366D01*
X90198678Y-98951373D01*
X90016958Y-99139857D01*
X90016952Y-99139864D01*
X90013814Y-99143119D01*
X90011189Y-99146787D01*
X90011179Y-99146800D01*
X89858834Y-99359740D01*
X89858830Y-99359745D01*
X89856201Y-99363421D01*
X89854132Y-99367444D01*
X89854129Y-99367450D01*
X89734416Y-99600293D01*
X89734411Y-99600304D01*
X89732344Y-99604325D01*
X89730884Y-99608602D01*
X89730879Y-99608616D01*
X89646348Y-99856395D01*
X89646344Y-99856407D01*
X89644882Y-99860695D01*
X89644057Y-99865159D01*
X89644057Y-99865161D01*
X89596504Y-100122606D01*
X89596502Y-100122619D01*
X89595681Y-100127067D01*
X89595515Y-100131593D01*
X89595515Y-100131599D01*
X89590576Y-100266762D01*
X89585788Y-100397765D01*
X88900500Y-100397765D01*
X88900500Y-96520000D01*
X96484532Y-96520000D01*
X96485004Y-96525395D01*
X96498301Y-96677387D01*
X96504365Y-96746692D01*
X96505762Y-96751907D01*
X96505764Y-96751916D01*
X96561858Y-96961263D01*
X96561861Y-96961271D01*
X96563261Y-96966496D01*
X96659432Y-97172734D01*
X96789953Y-97359139D01*
X96950861Y-97520047D01*
X97137266Y-97650568D01*
X97343504Y-97746739D01*
X97348734Y-97748140D01*
X97348736Y-97748141D01*
X97558083Y-97804235D01*
X97563308Y-97805635D01*
X97790000Y-97825468D01*
X98016692Y-97805635D01*
X98236496Y-97746739D01*
X98442734Y-97650568D01*
X98629139Y-97520047D01*
X98790047Y-97359139D01*
X98920568Y-97172734D01*
X99016739Y-96966496D01*
X99075635Y-96746692D01*
X99095468Y-96520000D01*
X144744532Y-96520000D01*
X144745004Y-96525395D01*
X144758301Y-96677387D01*
X144764365Y-96746692D01*
X144765762Y-96751907D01*
X144765764Y-96751916D01*
X144821858Y-96961263D01*
X144821861Y-96961271D01*
X144823261Y-96966496D01*
X144919432Y-97172734D01*
X145049953Y-97359139D01*
X145210861Y-97520047D01*
X145397266Y-97650568D01*
X145603504Y-97746739D01*
X145608734Y-97748140D01*
X145608736Y-97748141D01*
X145818083Y-97804235D01*
X145823308Y-97805635D01*
X146050000Y-97825468D01*
X146276692Y-97805635D01*
X146335043Y-97790000D01*
X149824532Y-97790000D01*
X149825004Y-97795395D01*
X149841484Y-97983771D01*
X149844365Y-98016692D01*
X149845762Y-98021907D01*
X149845764Y-98021916D01*
X149901858Y-98231263D01*
X149901861Y-98231271D01*
X149903261Y-98236496D01*
X149999432Y-98442734D01*
X150002539Y-98447171D01*
X150002540Y-98447173D01*
X150053706Y-98520246D01*
X150129953Y-98629139D01*
X150290861Y-98790047D01*
X150477266Y-98920568D01*
X150683504Y-99016739D01*
X150688734Y-99018140D01*
X150688736Y-99018141D01*
X150823651Y-99054291D01*
X150903308Y-99075635D01*
X151130000Y-99095468D01*
X151356692Y-99075635D01*
X151576496Y-99016739D01*
X151782734Y-98920568D01*
X151969139Y-98790047D01*
X152130047Y-98629139D01*
X152260568Y-98442734D01*
X152356739Y-98236496D01*
X152415635Y-98016692D01*
X152435468Y-97790000D01*
X165064532Y-97790000D01*
X165065004Y-97795395D01*
X165081484Y-97983771D01*
X165084365Y-98016692D01*
X165085762Y-98021907D01*
X165085764Y-98021916D01*
X165141858Y-98231263D01*
X165141861Y-98231271D01*
X165143261Y-98236496D01*
X165239432Y-98442734D01*
X165242539Y-98447171D01*
X165242540Y-98447173D01*
X165293706Y-98520246D01*
X165369953Y-98629139D01*
X165530861Y-98790047D01*
X165717266Y-98920568D01*
X165923504Y-99016739D01*
X165928734Y-99018140D01*
X165928736Y-99018141D01*
X166063651Y-99054291D01*
X166143308Y-99075635D01*
X166370000Y-99095468D01*
X166596692Y-99075635D01*
X166655043Y-99060000D01*
X170244357Y-99060000D01*
X170264885Y-99281536D01*
X170266454Y-99287050D01*
X170324201Y-99490013D01*
X170324204Y-99490021D01*
X170325771Y-99495528D01*
X170328323Y-99500653D01*
X170328325Y-99500658D01*
X170422387Y-99689559D01*
X170422389Y-99689563D01*
X170424942Y-99694689D01*
X170428391Y-99699256D01*
X170428394Y-99699261D01*
X170555561Y-99867658D01*
X170555566Y-99867663D01*
X170559019Y-99872236D01*
X170563255Y-99876097D01*
X170563259Y-99876102D01*
X170675603Y-99978517D01*
X170723438Y-100022124D01*
X170912599Y-100139247D01*
X171120060Y-100219618D01*
X171338757Y-100260500D01*
X171555514Y-100260500D01*
X171561243Y-100260500D01*
X171779940Y-100219618D01*
X171987401Y-100139247D01*
X172176562Y-100022124D01*
X172340981Y-99872236D01*
X172475058Y-99694689D01*
X172574229Y-99495528D01*
X172635115Y-99281536D01*
X172655643Y-99060000D01*
X172635115Y-98838464D01*
X172574229Y-98624472D01*
X172475058Y-98425311D01*
X172471605Y-98420738D01*
X172344438Y-98252341D01*
X172344434Y-98252337D01*
X172340981Y-98247764D01*
X172336744Y-98243901D01*
X172336740Y-98243897D01*
X172180796Y-98101736D01*
X172180797Y-98101736D01*
X172176562Y-98097876D01*
X172171692Y-98094861D01*
X172171690Y-98094859D01*
X171992275Y-97983771D01*
X171992276Y-97983771D01*
X171987401Y-97980753D01*
X171779940Y-97900382D01*
X171774302Y-97899328D01*
X171566872Y-97860552D01*
X171566869Y-97860551D01*
X171561243Y-97859500D01*
X171338757Y-97859500D01*
X171333131Y-97860551D01*
X171333127Y-97860552D01*
X171125697Y-97899328D01*
X171125694Y-97899328D01*
X171120060Y-97900382D01*
X171114717Y-97902451D01*
X171114713Y-97902453D01*
X170917941Y-97978683D01*
X170917936Y-97978685D01*
X170912599Y-97980753D01*
X170907727Y-97983769D01*
X170907724Y-97983771D01*
X170728309Y-98094859D01*
X170728301Y-98094864D01*
X170723438Y-98097876D01*
X170719207Y-98101732D01*
X170719203Y-98101736D01*
X170563259Y-98243897D01*
X170563249Y-98243907D01*
X170559019Y-98247764D01*
X170555570Y-98252330D01*
X170555561Y-98252341D01*
X170428394Y-98420738D01*
X170428387Y-98420748D01*
X170424942Y-98425311D01*
X170422392Y-98430431D01*
X170422387Y-98430440D01*
X170328325Y-98619341D01*
X170328321Y-98619349D01*
X170325771Y-98624472D01*
X170324205Y-98629975D01*
X170324201Y-98629986D01*
X170277777Y-98793152D01*
X170264885Y-98838464D01*
X170244357Y-99060000D01*
X166655043Y-99060000D01*
X166816496Y-99016739D01*
X167022734Y-98920568D01*
X167209139Y-98790047D01*
X167370047Y-98629139D01*
X167500568Y-98442734D01*
X167596739Y-98236496D01*
X167655635Y-98016692D01*
X167675468Y-97790000D01*
X167655635Y-97563308D01*
X167596739Y-97343504D01*
X167500568Y-97137266D01*
X167370047Y-96950861D01*
X167209139Y-96789953D01*
X167048377Y-96677387D01*
X167009511Y-96633069D01*
X166995500Y-96575812D01*
X166995500Y-93924188D01*
X167009511Y-93866931D01*
X167048377Y-93822613D01*
X167085222Y-93796814D01*
X167209139Y-93710047D01*
X167370047Y-93549139D01*
X167500568Y-93362734D01*
X167596739Y-93156496D01*
X167655635Y-92936692D01*
X167675468Y-92710000D01*
X167655635Y-92483308D01*
X167645750Y-92446417D01*
X170800658Y-92446417D01*
X170808595Y-92454263D01*
X170907951Y-92515782D01*
X170918163Y-92520867D01*
X171114851Y-92597064D01*
X171125834Y-92600189D01*
X171333173Y-92638947D01*
X171344533Y-92640000D01*
X171555467Y-92640000D01*
X171566826Y-92638947D01*
X171774165Y-92600189D01*
X171785148Y-92597064D01*
X171981830Y-92520869D01*
X171992055Y-92515777D01*
X172091402Y-92454263D01*
X172099340Y-92446417D01*
X172093410Y-92436963D01*
X171461542Y-91805095D01*
X171450000Y-91798431D01*
X171438457Y-91805095D01*
X170806588Y-92436963D01*
X170800658Y-92446417D01*
X167645750Y-92446417D01*
X167596739Y-92263504D01*
X167500568Y-92057266D01*
X167370047Y-91870861D01*
X167209139Y-91709953D01*
X167085219Y-91623184D01*
X167027173Y-91582540D01*
X167027171Y-91582539D01*
X167022734Y-91579432D01*
X166816496Y-91483261D01*
X166811271Y-91481861D01*
X166811263Y-91481858D01*
X166676352Y-91445709D01*
X170245388Y-91445709D01*
X170264850Y-91655736D01*
X170266948Y-91666958D01*
X170324670Y-91869832D01*
X170328793Y-91880477D01*
X170422813Y-92069295D01*
X170428822Y-92079000D01*
X170430419Y-92081113D01*
X170441549Y-92089385D01*
X170453713Y-92082732D01*
X171084904Y-91451542D01*
X171091568Y-91440000D01*
X171808431Y-91440000D01*
X171815095Y-91451542D01*
X172446285Y-92082732D01*
X172458450Y-92089386D01*
X172469578Y-92081116D01*
X172471177Y-92078999D01*
X172477186Y-92069295D01*
X172571206Y-91880477D01*
X172575329Y-91869832D01*
X172633051Y-91666958D01*
X172635149Y-91655736D01*
X172654612Y-91445709D01*
X172654612Y-91434291D01*
X172635149Y-91224263D01*
X172633051Y-91213041D01*
X172575329Y-91010167D01*
X172571206Y-90999522D01*
X172477186Y-90810704D01*
X172471179Y-90801002D01*
X172469579Y-90798884D01*
X172458449Y-90790613D01*
X172446285Y-90797266D01*
X171815095Y-91428457D01*
X171808431Y-91440000D01*
X171091568Y-91440000D01*
X171084904Y-91428457D01*
X170453715Y-90797268D01*
X170441548Y-90790613D01*
X170430420Y-90798884D01*
X170428821Y-90801001D01*
X170422814Y-90810703D01*
X170328793Y-90999522D01*
X170324670Y-91010167D01*
X170266948Y-91213041D01*
X170264850Y-91224263D01*
X170245388Y-91434291D01*
X170245388Y-91445709D01*
X166676352Y-91445709D01*
X166601916Y-91425764D01*
X166601907Y-91425762D01*
X166596692Y-91424365D01*
X166591304Y-91423893D01*
X166591301Y-91423893D01*
X166375395Y-91405004D01*
X166370000Y-91404532D01*
X166364605Y-91405004D01*
X166148698Y-91423893D01*
X166148693Y-91423893D01*
X166143308Y-91424365D01*
X166138094Y-91425762D01*
X166138083Y-91425764D01*
X165928736Y-91481858D01*
X165928724Y-91481862D01*
X165923504Y-91483261D01*
X165918599Y-91485547D01*
X165918594Y-91485550D01*
X165722176Y-91577142D01*
X165722172Y-91577144D01*
X165717266Y-91579432D01*
X165712833Y-91582535D01*
X165712826Y-91582540D01*
X165535296Y-91706847D01*
X165535291Y-91706850D01*
X165530861Y-91709953D01*
X165527037Y-91713776D01*
X165527031Y-91713782D01*
X165373782Y-91867031D01*
X165373776Y-91867037D01*
X165369953Y-91870861D01*
X165366850Y-91875291D01*
X165366847Y-91875296D01*
X165242540Y-92052826D01*
X165242535Y-92052833D01*
X165239432Y-92057266D01*
X165237144Y-92062172D01*
X165237142Y-92062176D01*
X165145550Y-92258594D01*
X165145547Y-92258599D01*
X165143261Y-92263504D01*
X165141862Y-92268724D01*
X165141858Y-92268736D01*
X165085764Y-92478083D01*
X165085762Y-92478094D01*
X165084365Y-92483308D01*
X165083893Y-92488693D01*
X165083893Y-92488698D01*
X165074364Y-92597618D01*
X165064532Y-92710000D01*
X165065004Y-92715395D01*
X165077002Y-92852540D01*
X165084365Y-92936692D01*
X165085762Y-92941907D01*
X165085764Y-92941916D01*
X165141858Y-93151263D01*
X165141861Y-93151271D01*
X165143261Y-93156496D01*
X165239432Y-93362734D01*
X165369953Y-93549139D01*
X165530861Y-93710047D01*
X165629487Y-93779105D01*
X165691623Y-93822613D01*
X165730489Y-93866931D01*
X165744500Y-93924188D01*
X165744500Y-96575812D01*
X165730489Y-96633069D01*
X165691623Y-96677387D01*
X165535296Y-96786847D01*
X165535291Y-96786850D01*
X165530861Y-96789953D01*
X165527037Y-96793776D01*
X165527031Y-96793782D01*
X165373782Y-96947031D01*
X165373776Y-96947037D01*
X165369953Y-96950861D01*
X165366850Y-96955291D01*
X165366847Y-96955296D01*
X165242540Y-97132826D01*
X165242535Y-97132833D01*
X165239432Y-97137266D01*
X165237144Y-97142172D01*
X165237142Y-97142176D01*
X165145550Y-97338594D01*
X165145547Y-97338599D01*
X165143261Y-97343504D01*
X165141862Y-97348724D01*
X165141858Y-97348736D01*
X165085764Y-97558083D01*
X165085762Y-97558094D01*
X165084365Y-97563308D01*
X165083893Y-97568693D01*
X165083893Y-97568698D01*
X165076530Y-97652857D01*
X165064532Y-97790000D01*
X152435468Y-97790000D01*
X152415635Y-97563308D01*
X152356739Y-97343504D01*
X152260568Y-97137266D01*
X152130047Y-96950861D01*
X151969139Y-96789953D01*
X151782734Y-96659432D01*
X151576496Y-96563261D01*
X151571271Y-96561861D01*
X151571263Y-96561858D01*
X151361916Y-96505764D01*
X151361907Y-96505762D01*
X151356692Y-96504365D01*
X151351304Y-96503893D01*
X151351301Y-96503893D01*
X151135395Y-96485004D01*
X151130000Y-96484532D01*
X151124605Y-96485004D01*
X150908698Y-96503893D01*
X150908693Y-96503893D01*
X150903308Y-96504365D01*
X150898094Y-96505762D01*
X150898083Y-96505764D01*
X150688736Y-96561858D01*
X150688724Y-96561862D01*
X150683504Y-96563261D01*
X150678599Y-96565547D01*
X150678594Y-96565550D01*
X150482176Y-96657142D01*
X150482172Y-96657144D01*
X150477266Y-96659432D01*
X150472833Y-96662535D01*
X150472826Y-96662540D01*
X150295296Y-96786847D01*
X150295291Y-96786850D01*
X150290861Y-96789953D01*
X150287037Y-96793776D01*
X150287031Y-96793782D01*
X150133782Y-96947031D01*
X150133776Y-96947037D01*
X150129953Y-96950861D01*
X150126850Y-96955291D01*
X150126847Y-96955296D01*
X150002540Y-97132826D01*
X150002535Y-97132833D01*
X149999432Y-97137266D01*
X149997144Y-97142172D01*
X149997142Y-97142176D01*
X149905550Y-97338594D01*
X149905547Y-97338599D01*
X149903261Y-97343504D01*
X149901862Y-97348724D01*
X149901858Y-97348736D01*
X149845764Y-97558083D01*
X149845762Y-97558094D01*
X149844365Y-97563308D01*
X149843893Y-97568693D01*
X149843893Y-97568698D01*
X149836530Y-97652857D01*
X149824532Y-97790000D01*
X146335043Y-97790000D01*
X146496496Y-97746739D01*
X146702734Y-97650568D01*
X146889139Y-97520047D01*
X147050047Y-97359139D01*
X147180568Y-97172734D01*
X147276739Y-96966496D01*
X147335635Y-96746692D01*
X147355468Y-96520000D01*
X147335635Y-96293308D01*
X147276739Y-96073504D01*
X147180568Y-95867266D01*
X147050047Y-95680861D01*
X146889139Y-95519953D01*
X146702734Y-95389432D01*
X146644724Y-95362381D01*
X146592549Y-95316625D01*
X146573130Y-95250000D01*
X146592549Y-95183375D01*
X146644725Y-95137618D01*
X146702734Y-95110568D01*
X146889139Y-94980047D01*
X147050047Y-94819139D01*
X147180568Y-94632734D01*
X147276739Y-94426496D01*
X147335635Y-94206692D01*
X147355468Y-93980000D01*
X147338732Y-93788703D01*
X150408217Y-93788703D01*
X150415650Y-93796814D01*
X150473077Y-93837025D01*
X150482427Y-93842423D01*
X150678768Y-93933979D01*
X150688902Y-93937667D01*
X150898162Y-93993739D01*
X150908793Y-93995613D01*
X151124605Y-94014494D01*
X151135395Y-94014494D01*
X151351206Y-93995613D01*
X151361837Y-93993739D01*
X151571097Y-93937667D01*
X151581231Y-93933979D01*
X151777575Y-93842422D01*
X151786920Y-93837026D01*
X151844348Y-93796814D01*
X151851780Y-93788703D01*
X151845867Y-93779421D01*
X151141542Y-93075095D01*
X151130000Y-93068431D01*
X151118457Y-93075095D01*
X150414128Y-93779424D01*
X150408217Y-93788703D01*
X147338732Y-93788703D01*
X147335635Y-93753308D01*
X147276739Y-93533504D01*
X147180568Y-93327266D01*
X147050047Y-93140861D01*
X146889139Y-92979953D01*
X146702734Y-92849432D01*
X146644724Y-92822381D01*
X146592549Y-92776625D01*
X146574702Y-92715395D01*
X149825506Y-92715395D01*
X149844386Y-92931206D01*
X149846260Y-92941837D01*
X149902332Y-93151097D01*
X149906020Y-93161231D01*
X149997576Y-93357572D01*
X150002974Y-93366922D01*
X150043184Y-93424348D01*
X150051295Y-93431781D01*
X150060574Y-93425870D01*
X150764903Y-92721542D01*
X150771567Y-92710000D01*
X151488431Y-92710000D01*
X151495095Y-92721542D01*
X152199421Y-93425867D01*
X152208703Y-93431780D01*
X152216814Y-93424348D01*
X152257026Y-93366920D01*
X152262422Y-93357575D01*
X152353979Y-93161231D01*
X152357667Y-93151097D01*
X152413739Y-92941837D01*
X152415613Y-92931206D01*
X152434494Y-92715395D01*
X152434494Y-92704605D01*
X152415613Y-92488793D01*
X152413739Y-92478162D01*
X152357667Y-92268902D01*
X152353979Y-92258768D01*
X152262423Y-92062427D01*
X152257025Y-92053077D01*
X152216814Y-91995650D01*
X152208703Y-91988217D01*
X152199424Y-91994128D01*
X151495095Y-92698457D01*
X151488431Y-92710000D01*
X150771567Y-92710000D01*
X150764903Y-92698457D01*
X150060574Y-91994128D01*
X150051296Y-91988217D01*
X150043183Y-91995651D01*
X150002971Y-92053081D01*
X149997577Y-92062425D01*
X149906020Y-92258768D01*
X149902332Y-92268902D01*
X149846260Y-92478162D01*
X149844386Y-92488793D01*
X149825506Y-92704605D01*
X149825506Y-92715395D01*
X146574702Y-92715395D01*
X146573130Y-92710000D01*
X146592549Y-92643375D01*
X146644725Y-92597618D01*
X146702734Y-92570568D01*
X146889139Y-92440047D01*
X147050047Y-92279139D01*
X147180568Y-92092734D01*
X147276739Y-91886496D01*
X147335635Y-91666692D01*
X147338732Y-91631296D01*
X150408217Y-91631296D01*
X150414128Y-91640574D01*
X151118457Y-92344903D01*
X151129999Y-92351567D01*
X151141542Y-92344903D01*
X151845870Y-91640574D01*
X151851781Y-91631295D01*
X151844348Y-91623184D01*
X151786922Y-91582974D01*
X151777572Y-91577576D01*
X151581231Y-91486020D01*
X151571097Y-91482332D01*
X151361837Y-91426260D01*
X151351206Y-91424386D01*
X151135395Y-91405506D01*
X151124605Y-91405506D01*
X150908793Y-91424386D01*
X150898162Y-91426260D01*
X150688902Y-91482332D01*
X150678768Y-91486020D01*
X150482425Y-91577577D01*
X150473081Y-91582971D01*
X150415651Y-91623183D01*
X150408217Y-91631296D01*
X147338732Y-91631296D01*
X147355468Y-91440000D01*
X147335635Y-91213308D01*
X147276739Y-90993504D01*
X147180568Y-90787266D01*
X147050047Y-90600861D01*
X146889139Y-90439953D01*
X146880039Y-90433581D01*
X170800659Y-90433581D01*
X170806589Y-90443036D01*
X171438457Y-91074904D01*
X171450000Y-91081568D01*
X171461542Y-91074904D01*
X172093409Y-90443036D01*
X172099339Y-90433581D01*
X172091403Y-90425736D01*
X171992049Y-90364218D01*
X171981836Y-90359132D01*
X171785148Y-90282935D01*
X171774165Y-90279810D01*
X171566826Y-90241052D01*
X171555467Y-90240000D01*
X171344533Y-90240000D01*
X171333173Y-90241052D01*
X171125834Y-90279810D01*
X171114851Y-90282935D01*
X170918163Y-90359132D01*
X170907950Y-90364218D01*
X170808594Y-90425736D01*
X170800659Y-90433581D01*
X146880039Y-90433581D01*
X146702734Y-90309432D01*
X146644724Y-90282381D01*
X146592549Y-90236625D01*
X146573130Y-90170000D01*
X146592549Y-90103375D01*
X146644725Y-90057618D01*
X146702734Y-90030568D01*
X146889139Y-89900047D01*
X147050047Y-89739139D01*
X147180568Y-89552734D01*
X147276739Y-89346496D01*
X147335635Y-89126692D01*
X147355468Y-88900000D01*
X147335635Y-88673308D01*
X147276739Y-88453504D01*
X147180568Y-88247266D01*
X147050047Y-88060861D01*
X146889139Y-87899953D01*
X146702734Y-87769432D01*
X146644724Y-87742381D01*
X146592549Y-87696625D01*
X146573130Y-87630000D01*
X146592549Y-87563375D01*
X146644725Y-87517618D01*
X146702734Y-87490568D01*
X146889139Y-87360047D01*
X147050047Y-87199139D01*
X147180568Y-87012734D01*
X147276739Y-86806496D01*
X147335635Y-86586692D01*
X147355468Y-86360000D01*
X147335635Y-86133308D01*
X147276739Y-85913504D01*
X147180568Y-85707266D01*
X147050047Y-85520861D01*
X146889139Y-85359953D01*
X146702734Y-85229432D01*
X146644724Y-85202381D01*
X146592549Y-85156625D01*
X146573130Y-85090000D01*
X146592549Y-85023375D01*
X146644725Y-84977618D01*
X146702734Y-84950568D01*
X146889139Y-84820047D01*
X147050047Y-84659139D01*
X147162612Y-84498377D01*
X147206931Y-84459511D01*
X147264188Y-84445500D01*
X161212225Y-84445500D01*
X161223280Y-84446021D01*
X161230667Y-84447673D01*
X161297872Y-84445561D01*
X161301768Y-84445500D01*
X161325448Y-84445500D01*
X161329350Y-84445500D01*
X161333313Y-84444999D01*
X161344963Y-84444080D01*
X161388627Y-84442709D01*
X161407861Y-84437119D01*
X161426917Y-84433174D01*
X161446792Y-84430664D01*
X161487395Y-84414587D01*
X161498450Y-84410802D01*
X161540390Y-84398618D01*
X161557629Y-84388422D01*
X161575103Y-84379862D01*
X161586474Y-84375360D01*
X161586476Y-84375358D01*
X161593732Y-84372486D01*
X161629069Y-84346811D01*
X161638824Y-84340403D01*
X161676420Y-84318170D01*
X161690584Y-84304005D01*
X161705379Y-84291368D01*
X161721587Y-84279594D01*
X161749428Y-84245938D01*
X161757279Y-84237309D01*
X169933348Y-76061241D01*
X169984726Y-76030357D01*
X170044591Y-76027184D01*
X170098949Y-76052466D01*
X170135093Y-76100293D01*
X170142927Y-76149193D01*
X170145004Y-76149193D01*
X170145004Y-76154605D01*
X170144532Y-76160000D01*
X170145004Y-76165395D01*
X170148503Y-76205395D01*
X170164365Y-76386692D01*
X170165762Y-76391907D01*
X170165764Y-76391916D01*
X170221858Y-76601263D01*
X170221861Y-76601271D01*
X170223261Y-76606496D01*
X170225549Y-76611403D01*
X170225550Y-76611405D01*
X170279900Y-76727957D01*
X170319432Y-76812734D01*
X170449953Y-76999139D01*
X170610861Y-77160047D01*
X170797266Y-77290568D01*
X171003504Y-77386739D01*
X171008734Y-77388140D01*
X171008736Y-77388141D01*
X171152787Y-77426739D01*
X171223308Y-77445635D01*
X171450000Y-77465468D01*
X171676692Y-77445635D01*
X171896496Y-77386739D01*
X172102734Y-77290568D01*
X172289139Y-77160047D01*
X172450047Y-76999139D01*
X172580568Y-76812734D01*
X172676739Y-76606496D01*
X172735635Y-76386692D01*
X172748939Y-76234630D01*
X178635580Y-76234630D01*
X178653927Y-76479453D01*
X178655306Y-76488606D01*
X178709936Y-76727957D01*
X178712669Y-76736817D01*
X178802360Y-76965346D01*
X178806379Y-76973692D01*
X178929135Y-77186310D01*
X178934347Y-77193955D01*
X178962537Y-77229305D01*
X178973773Y-77237278D01*
X178985832Y-77230613D01*
X179974904Y-76241542D01*
X179981568Y-76230000D01*
X179974904Y-76218457D01*
X178985832Y-75229385D01*
X178973773Y-75222721D01*
X178962538Y-75230693D01*
X178934343Y-75266048D01*
X178929137Y-75273685D01*
X178806379Y-75486307D01*
X178802360Y-75494653D01*
X178712669Y-75723182D01*
X178709936Y-75732042D01*
X178655306Y-75971393D01*
X178653927Y-75980546D01*
X178635580Y-76225370D01*
X178635580Y-76234630D01*
X172748939Y-76234630D01*
X172755468Y-76160000D01*
X172735635Y-75933308D01*
X172701914Y-75807459D01*
X172678141Y-75718736D01*
X172678140Y-75718734D01*
X172676739Y-75713504D01*
X172580568Y-75507266D01*
X172450047Y-75320861D01*
X172289139Y-75159953D01*
X172164299Y-75072540D01*
X172107173Y-75032540D01*
X172107171Y-75032539D01*
X172102734Y-75029432D01*
X171896496Y-74933261D01*
X171891271Y-74931861D01*
X171891263Y-74931858D01*
X171681916Y-74875764D01*
X171681907Y-74875762D01*
X171676692Y-74874365D01*
X171671304Y-74873893D01*
X171671301Y-74873893D01*
X171455395Y-74855004D01*
X171450000Y-74854532D01*
X171444605Y-74855004D01*
X171439193Y-74855004D01*
X171439193Y-74852927D01*
X171390293Y-74845093D01*
X171342466Y-74808949D01*
X171317184Y-74754591D01*
X171320357Y-74694726D01*
X171351241Y-74643348D01*
X176102771Y-69891819D01*
X176143000Y-69864939D01*
X176190453Y-69855500D01*
X178674172Y-69855500D01*
X178722338Y-69865237D01*
X178762940Y-69892919D01*
X178789598Y-69934195D01*
X178803607Y-69969888D01*
X178805925Y-69973903D01*
X178805928Y-69973909D01*
X178878399Y-70099434D01*
X178931041Y-70190612D01*
X179089950Y-70389877D01*
X179276783Y-70563232D01*
X179487366Y-70706805D01*
X179716996Y-70817389D01*
X179721424Y-70818754D01*
X179721427Y-70818756D01*
X179860029Y-70861509D01*
X179913106Y-70894308D01*
X179943491Y-70948803D01*
X179943491Y-71011197D01*
X179913106Y-71065692D01*
X179860029Y-71098491D01*
X179721427Y-71141243D01*
X179721412Y-71141248D01*
X179716996Y-71142611D01*
X179712827Y-71144618D01*
X179712816Y-71144623D01*
X179491551Y-71251179D01*
X179491544Y-71251182D01*
X179487366Y-71253195D01*
X179483533Y-71255808D01*
X179483530Y-71255810D01*
X179358138Y-71341301D01*
X179276783Y-71396768D01*
X179273391Y-71399914D01*
X179273385Y-71399920D01*
X179093859Y-71566496D01*
X179089950Y-71570123D01*
X179087060Y-71573745D01*
X179087057Y-71573750D01*
X178987384Y-71698736D01*
X178931041Y-71769388D01*
X178928722Y-71773403D01*
X178928721Y-71773406D01*
X178805928Y-71986091D01*
X178805925Y-71986096D01*
X178803607Y-71990112D01*
X178801913Y-71994426D01*
X178801911Y-71994432D01*
X178712189Y-72223038D01*
X178710492Y-72227363D01*
X178709459Y-72231884D01*
X178709458Y-72231891D01*
X178654809Y-72471323D01*
X178654807Y-72471331D01*
X178653778Y-72475843D01*
X178653431Y-72480462D01*
X178653431Y-72480468D01*
X178649762Y-72529432D01*
X178634732Y-72730000D01*
X178635079Y-72734630D01*
X178653069Y-72974703D01*
X178653778Y-72984157D01*
X178654808Y-72988670D01*
X178654809Y-72988676D01*
X178705004Y-73208594D01*
X178710492Y-73232637D01*
X178712188Y-73236960D01*
X178712189Y-73236961D01*
X178787199Y-73428083D01*
X178803607Y-73469888D01*
X178931041Y-73690612D01*
X179089950Y-73889877D01*
X179276783Y-74063232D01*
X179487366Y-74206805D01*
X179716996Y-74317389D01*
X179721424Y-74318754D01*
X179721427Y-74318756D01*
X179860876Y-74361770D01*
X179913952Y-74394569D01*
X179944337Y-74449064D01*
X179944338Y-74511458D01*
X179913953Y-74565953D01*
X179860876Y-74598752D01*
X179721609Y-74641710D01*
X179712999Y-74645089D01*
X179491808Y-74751609D01*
X179483775Y-74756247D01*
X179338116Y-74855555D01*
X179330568Y-74863613D01*
X179336484Y-74872931D01*
X180605871Y-76142318D01*
X180637965Y-76197905D01*
X180637965Y-76262093D01*
X180605871Y-76317680D01*
X179336486Y-77587065D01*
X179330569Y-77596385D01*
X179338116Y-77604444D01*
X179483780Y-77703756D01*
X179491800Y-77708386D01*
X179712999Y-77814910D01*
X179721612Y-77818290D01*
X179860875Y-77861247D01*
X179913952Y-77894046D01*
X179944337Y-77948541D01*
X179944338Y-78010934D01*
X179913953Y-78065429D01*
X179860876Y-78098229D01*
X179721428Y-78141243D01*
X179721417Y-78141247D01*
X179716996Y-78142611D01*
X179712827Y-78144618D01*
X179712816Y-78144623D01*
X179491551Y-78251179D01*
X179491544Y-78251182D01*
X179487366Y-78253195D01*
X179483533Y-78255808D01*
X179483530Y-78255810D01*
X179280611Y-78394158D01*
X179276783Y-78396768D01*
X179273391Y-78399914D01*
X179273385Y-78399920D01*
X179156813Y-78508083D01*
X179089950Y-78570123D01*
X179087060Y-78573745D01*
X179087057Y-78573750D01*
X178933933Y-78765761D01*
X178931041Y-78769388D01*
X178928722Y-78773403D01*
X178928721Y-78773406D01*
X178805928Y-78986091D01*
X178805925Y-78986096D01*
X178803607Y-78990112D01*
X178801913Y-78994426D01*
X178801911Y-78994432D01*
X178712189Y-79223038D01*
X178710492Y-79227363D01*
X178709459Y-79231884D01*
X178709458Y-79231891D01*
X178654809Y-79471323D01*
X178654807Y-79471331D01*
X178653778Y-79475843D01*
X178653431Y-79480462D01*
X178653431Y-79480468D01*
X178646037Y-79579139D01*
X178634732Y-79730000D01*
X178635079Y-79734630D01*
X178652577Y-79968141D01*
X178653778Y-79984157D01*
X178654808Y-79988670D01*
X178654809Y-79988676D01*
X178690977Y-80147138D01*
X178710492Y-80232637D01*
X178803607Y-80469888D01*
X178931041Y-80690612D01*
X179089950Y-80889877D01*
X179276783Y-81063232D01*
X179487366Y-81206805D01*
X179491553Y-81208821D01*
X179491556Y-81208823D01*
X179667971Y-81293780D01*
X179717657Y-81337189D01*
X179738045Y-81399937D01*
X179723364Y-81464260D01*
X179677770Y-81511948D01*
X179614170Y-81529500D01*
X179095439Y-81529500D01*
X179095420Y-81529500D01*
X179092128Y-81529501D01*
X179088850Y-81529853D01*
X179088838Y-81529854D01*
X179040231Y-81535079D01*
X179040225Y-81535080D01*
X179032517Y-81535909D01*
X179025252Y-81538618D01*
X179025246Y-81538620D01*
X178905980Y-81583104D01*
X178905978Y-81583104D01*
X178897669Y-81586204D01*
X178890572Y-81591516D01*
X178890568Y-81591519D01*
X178789550Y-81667141D01*
X178789546Y-81667144D01*
X178782454Y-81672454D01*
X178777144Y-81679546D01*
X178777141Y-81679550D01*
X178701519Y-81780568D01*
X178701516Y-81780572D01*
X178696204Y-81787669D01*
X178693104Y-81795978D01*
X178693104Y-81795980D01*
X178648620Y-81915247D01*
X178648619Y-81915250D01*
X178645909Y-81922517D01*
X178645079Y-81930227D01*
X178645079Y-81930232D01*
X178639855Y-81978819D01*
X178639854Y-81978831D01*
X178639500Y-81982127D01*
X178639500Y-81985448D01*
X178639500Y-81985449D01*
X178639500Y-84474560D01*
X178639500Y-84474578D01*
X178639501Y-84477872D01*
X178639853Y-84481150D01*
X178639854Y-84481161D01*
X178645079Y-84529768D01*
X178645080Y-84529773D01*
X178645909Y-84537483D01*
X178648619Y-84544749D01*
X178648620Y-84544753D01*
X178682217Y-84634831D01*
X178696204Y-84672331D01*
X178782454Y-84787546D01*
X178897669Y-84873796D01*
X179032517Y-84924091D01*
X179092127Y-84930500D01*
X181587872Y-84930499D01*
X181647483Y-84924091D01*
X181782331Y-84873796D01*
X181897546Y-84787546D01*
X181983796Y-84672331D01*
X182034091Y-84537483D01*
X182040500Y-84477873D01*
X182040499Y-83526111D01*
X182049938Y-83478659D01*
X182076816Y-83438433D01*
X183553859Y-81961389D01*
X183559583Y-81956017D01*
X183611641Y-81910203D01*
X183675277Y-81831389D01*
X183676809Y-81829533D01*
X183742070Y-81752132D01*
X183744834Y-81747420D01*
X183755310Y-81732271D01*
X183758735Y-81728030D01*
X183808089Y-81639679D01*
X183809321Y-81637527D01*
X183860574Y-81550191D01*
X183862504Y-81545074D01*
X183870265Y-81528381D01*
X183872926Y-81523619D01*
X183906630Y-81428225D01*
X183907518Y-81425795D01*
X183943245Y-81331126D01*
X183944279Y-81325772D01*
X183949116Y-81307979D01*
X183950929Y-81302849D01*
X183968046Y-81203015D01*
X183968471Y-81200684D01*
X183987705Y-81101241D01*
X183987820Y-81095795D01*
X183989579Y-81077439D01*
X183990500Y-81072072D01*
X183990500Y-80970907D01*
X183990528Y-80968275D01*
X183992192Y-80889877D01*
X183992675Y-80867150D01*
X183991891Y-80861915D01*
X183991867Y-80861748D01*
X183990500Y-80843389D01*
X183990500Y-54335425D01*
X183990751Y-54327534D01*
X183990764Y-54327328D01*
X183995162Y-54258363D01*
X183984439Y-54157719D01*
X183984192Y-54155134D01*
X183975616Y-54054363D01*
X183974240Y-54049082D01*
X183970936Y-54030962D01*
X183970916Y-54030779D01*
X183970358Y-54025536D01*
X183968921Y-54020462D01*
X183968920Y-54020456D01*
X183942793Y-53928194D01*
X183942102Y-53925652D01*
X183916617Y-53827774D01*
X183914371Y-53822806D01*
X183908044Y-53805485D01*
X183907994Y-53805309D01*
X183906562Y-53800250D01*
X183904294Y-53795504D01*
X183904290Y-53795493D01*
X183862947Y-53708975D01*
X183861836Y-53706587D01*
X183822338Y-53619206D01*
X183820172Y-53614414D01*
X183817225Y-53610055D01*
X183817223Y-53610050D01*
X183817115Y-53609890D01*
X183807965Y-53593913D01*
X183805611Y-53588986D01*
X183747176Y-53506363D01*
X183745712Y-53504246D01*
X183689057Y-53420423D01*
X183685413Y-53416621D01*
X183685285Y-53416487D01*
X183673552Y-53402266D01*
X183670408Y-53397821D01*
X183598886Y-53326299D01*
X183597044Y-53324418D01*
X183530689Y-53255184D01*
X183530688Y-53255183D01*
X183527044Y-53251381D01*
X183522646Y-53248128D01*
X183508704Y-53236117D01*
X179036033Y-48763446D01*
X179030630Y-48757688D01*
X178988315Y-48709608D01*
X178988312Y-48709605D01*
X178984839Y-48705659D01*
X178906139Y-48642113D01*
X178904110Y-48640439D01*
X178889645Y-48628243D01*
X178826768Y-48575230D01*
X178822228Y-48572565D01*
X178822223Y-48572562D01*
X178822040Y-48572455D01*
X178806915Y-48561996D01*
X178802666Y-48558565D01*
X178791911Y-48552557D01*
X178714392Y-48509252D01*
X178712108Y-48507944D01*
X178629369Y-48459391D01*
X178629365Y-48459389D01*
X178624827Y-48456726D01*
X178619904Y-48454868D01*
X178619902Y-48454867D01*
X178619700Y-48454791D01*
X178603027Y-48447039D01*
X178602860Y-48446945D01*
X178602847Y-48446939D01*
X178598255Y-48444374D01*
X178593297Y-48442622D01*
X178593290Y-48442619D01*
X178502874Y-48410673D01*
X178500403Y-48409770D01*
X178410686Y-48375913D01*
X178410683Y-48375912D01*
X178405762Y-48374055D01*
X178400599Y-48373056D01*
X178400594Y-48373055D01*
X178400445Y-48373026D01*
X178400391Y-48373016D01*
X178382637Y-48368191D01*
X178377485Y-48366371D01*
X178372300Y-48365482D01*
X178372293Y-48365480D01*
X178277783Y-48349274D01*
X178275197Y-48348802D01*
X178181050Y-48330595D01*
X178181044Y-48330594D01*
X178175877Y-48329595D01*
X178170618Y-48329483D01*
X178170606Y-48329482D01*
X178170391Y-48329478D01*
X178152515Y-48327765D01*
X181025788Y-48327765D01*
X181026282Y-48332262D01*
X181026283Y-48332267D01*
X181054917Y-48592506D01*
X181054918Y-48592513D01*
X181055414Y-48597018D01*
X181056559Y-48601398D01*
X181056561Y-48601408D01*
X181098924Y-48763446D01*
X181123928Y-48859088D01*
X181125693Y-48863242D01*
X181125696Y-48863250D01*
X181228099Y-49104223D01*
X181229870Y-49108390D01*
X181232226Y-49112251D01*
X181232229Y-49112256D01*
X181368618Y-49335737D01*
X181370982Y-49339610D01*
X181544255Y-49547820D01*
X181547630Y-49550844D01*
X181547631Y-49550845D01*
X181652330Y-49644656D01*
X181745998Y-49728582D01*
X181971910Y-49878044D01*
X182217176Y-49993020D01*
X182476569Y-50071060D01*
X182744561Y-50110500D01*
X182945369Y-50110500D01*
X182947631Y-50110500D01*
X183150156Y-50095677D01*
X183414553Y-50036780D01*
X183667558Y-49940014D01*
X183903777Y-49807441D01*
X184118177Y-49641888D01*
X184306186Y-49446881D01*
X184463799Y-49226579D01*
X184587656Y-48985675D01*
X184675118Y-48729305D01*
X184724319Y-48462933D01*
X184734212Y-48192235D01*
X184704586Y-47922982D01*
X184636072Y-47660912D01*
X184530130Y-47411610D01*
X184389018Y-47180390D01*
X184215745Y-46972180D01*
X184110759Y-46878112D01*
X184017382Y-46794446D01*
X184017378Y-46794442D01*
X184014002Y-46791418D01*
X183788090Y-46641956D01*
X183783996Y-46640036D01*
X183783991Y-46640034D01*
X183546929Y-46528904D01*
X183546925Y-46528902D01*
X183542824Y-46526980D01*
X183538477Y-46525672D01*
X183538474Y-46525671D01*
X183287772Y-46450246D01*
X183287771Y-46450245D01*
X183283431Y-46448940D01*
X183278957Y-46448281D01*
X183278950Y-46448280D01*
X183019913Y-46410158D01*
X183019907Y-46410157D01*
X183015439Y-46409500D01*
X182812369Y-46409500D01*
X182810120Y-46409664D01*
X182810109Y-46409665D01*
X182614363Y-46423992D01*
X182614359Y-46423992D01*
X182609844Y-46424323D01*
X182605426Y-46425307D01*
X182605420Y-46425308D01*
X182349877Y-46482232D01*
X182349861Y-46482236D01*
X182345447Y-46483220D01*
X182341216Y-46484838D01*
X182341210Y-46484840D01*
X182096673Y-46578367D01*
X182096663Y-46578371D01*
X182092442Y-46579986D01*
X182088494Y-46582201D01*
X182088489Y-46582204D01*
X181860176Y-46710340D01*
X181860171Y-46710343D01*
X181856223Y-46712559D01*
X181852639Y-46715325D01*
X181852635Y-46715329D01*
X181645407Y-46875343D01*
X181645394Y-46875354D01*
X181641823Y-46878112D01*
X181638685Y-46881366D01*
X181638678Y-46881373D01*
X181456958Y-47069857D01*
X181456952Y-47069864D01*
X181453814Y-47073119D01*
X181451189Y-47076787D01*
X181451179Y-47076800D01*
X181298834Y-47289740D01*
X181298830Y-47289745D01*
X181296201Y-47293421D01*
X181294132Y-47297444D01*
X181294129Y-47297450D01*
X181174416Y-47530293D01*
X181174411Y-47530304D01*
X181172344Y-47534325D01*
X181170884Y-47538602D01*
X181170879Y-47538616D01*
X181086348Y-47786395D01*
X181086344Y-47786407D01*
X181084882Y-47790695D01*
X181084057Y-47795159D01*
X181084057Y-47795161D01*
X181036504Y-48052606D01*
X181036502Y-48052619D01*
X181035681Y-48057067D01*
X181035515Y-48061593D01*
X181035515Y-48061599D01*
X181025994Y-48322138D01*
X181025788Y-48327765D01*
X178152515Y-48327765D01*
X178152108Y-48327726D01*
X178151900Y-48327690D01*
X178151897Y-48327689D01*
X178146708Y-48326800D01*
X178141441Y-48326800D01*
X178045543Y-48326800D01*
X178042911Y-48326772D01*
X177947054Y-48324736D01*
X177947044Y-48324736D01*
X177941786Y-48324625D01*
X177936579Y-48325404D01*
X177936569Y-48325405D01*
X177936384Y-48325433D01*
X177918025Y-48326800D01*
X172824835Y-48326800D01*
X172785676Y-48320454D01*
X172750524Y-48302067D01*
X172699431Y-48263819D01*
X172699430Y-48263818D01*
X172692331Y-48258504D01*
X172557483Y-48208209D01*
X172549770Y-48207379D01*
X172549767Y-48207379D01*
X172501180Y-48202155D01*
X172501169Y-48202154D01*
X172497873Y-48201800D01*
X172494550Y-48201800D01*
X170405439Y-48201800D01*
X170405420Y-48201800D01*
X170402128Y-48201801D01*
X170398850Y-48202153D01*
X170398838Y-48202154D01*
X170350231Y-48207379D01*
X170350225Y-48207380D01*
X170342517Y-48208209D01*
X170335252Y-48210918D01*
X170335246Y-48210920D01*
X170215980Y-48255404D01*
X170215978Y-48255404D01*
X170207669Y-48258504D01*
X170200571Y-48263816D01*
X170200568Y-48263819D01*
X170149476Y-48302067D01*
X170114324Y-48320454D01*
X170075165Y-48326800D01*
X167505461Y-48326800D01*
X167497570Y-48326549D01*
X167433652Y-48322473D01*
X167428399Y-48322138D01*
X167423162Y-48322695D01*
X167423157Y-48322696D01*
X167327807Y-48332853D01*
X167325191Y-48333104D01*
X167229648Y-48341237D01*
X167229645Y-48341237D01*
X167224399Y-48341684D01*
X167219305Y-48343009D01*
X167219294Y-48343012D01*
X167219096Y-48343064D01*
X167201023Y-48346360D01*
X167200824Y-48346381D01*
X167200808Y-48346383D01*
X167195572Y-48346942D01*
X167190506Y-48348376D01*
X167190498Y-48348378D01*
X167098237Y-48374503D01*
X167095701Y-48375192D01*
X167002908Y-48399354D01*
X167002891Y-48399359D01*
X166997810Y-48400683D01*
X166993024Y-48402845D01*
X166993010Y-48402851D01*
X166992815Y-48402940D01*
X166975563Y-48409242D01*
X166975363Y-48409298D01*
X166975348Y-48409303D01*
X166970287Y-48410737D01*
X166965544Y-48413003D01*
X166965537Y-48413006D01*
X166879012Y-48454351D01*
X166876629Y-48455458D01*
X166789250Y-48494957D01*
X166789238Y-48494963D01*
X166784450Y-48497128D01*
X166780090Y-48500074D01*
X166780082Y-48500079D01*
X166779902Y-48500201D01*
X166763973Y-48509323D01*
X166763775Y-48509417D01*
X166763769Y-48509419D01*
X166759022Y-48511689D01*
X166754729Y-48514724D01*
X166754719Y-48514731D01*
X166676400Y-48570121D01*
X166674240Y-48571615D01*
X166594824Y-48625292D01*
X166594818Y-48625296D01*
X166590459Y-48628243D01*
X166586659Y-48631884D01*
X166586649Y-48631893D01*
X166586504Y-48632033D01*
X166572332Y-48643726D01*
X166572161Y-48643846D01*
X166572146Y-48643858D01*
X166567857Y-48646892D01*
X166564142Y-48650606D01*
X166564130Y-48650617D01*
X166496309Y-48718437D01*
X166494431Y-48720277D01*
X166480526Y-48733604D01*
X166421417Y-48790256D01*
X166418292Y-48794480D01*
X166418276Y-48794499D01*
X166418156Y-48794663D01*
X166406155Y-48808592D01*
X162807927Y-52406821D01*
X162807915Y-52406833D01*
X162806060Y-52408689D01*
X162804372Y-52410690D01*
X162804361Y-52410703D01*
X162696324Y-52538842D01*
X162692930Y-52542868D01*
X162690271Y-52547398D01*
X162690264Y-52547409D01*
X162605312Y-52692176D01*
X162574426Y-52744809D01*
X162572569Y-52749729D01*
X162572566Y-52749736D01*
X162493613Y-52958949D01*
X162493611Y-52958955D01*
X162491755Y-52963874D01*
X162490755Y-52969039D01*
X162490755Y-52969043D01*
X162448294Y-53188589D01*
X162448292Y-53188599D01*
X162447295Y-53193759D01*
X162447183Y-53199020D01*
X162447183Y-53199023D01*
X162442436Y-53422582D01*
X162442436Y-53422591D01*
X162442325Y-53427850D01*
X162443103Y-53433051D01*
X162443104Y-53433057D01*
X162476209Y-53654207D01*
X162476989Y-53659415D01*
X162478636Y-53664411D01*
X162478638Y-53664420D01*
X162548638Y-53876787D01*
X162548640Y-53876793D01*
X162550288Y-53881791D01*
X162552754Y-53886435D01*
X162552757Y-53886441D01*
X162657643Y-54083928D01*
X162660114Y-54088580D01*
X162803309Y-54273833D01*
X162975752Y-54432223D01*
X163038714Y-54472858D01*
X163089107Y-54505381D01*
X163130440Y-54549668D01*
X163145860Y-54608251D01*
X163131687Y-54667147D01*
X163091304Y-54712302D01*
X162957126Y-54802991D01*
X162957122Y-54802993D01*
X162952759Y-54805943D01*
X162948959Y-54809584D01*
X162948954Y-54809589D01*
X162787520Y-54964310D01*
X162787513Y-54964317D01*
X162783717Y-54967956D01*
X162780589Y-54972185D01*
X162780584Y-54972191D01*
X162647620Y-55151970D01*
X162647613Y-55151981D01*
X162644487Y-55156208D01*
X162642115Y-55160911D01*
X162642114Y-55160914D01*
X162543644Y-55356217D01*
X162539074Y-55365282D01*
X162537533Y-55370312D01*
X162537532Y-55370316D01*
X162472052Y-55584128D01*
X162472049Y-55584138D01*
X162470511Y-55589163D01*
X162469842Y-55594381D01*
X162469842Y-55594385D01*
X162462966Y-55648083D01*
X162440771Y-55821411D01*
X162440994Y-55826665D01*
X162440994Y-55826670D01*
X162446775Y-55962774D01*
X162450708Y-56055345D01*
X162451816Y-56060490D01*
X162451817Y-56060491D01*
X162492070Y-56247266D01*
X162500038Y-56284234D01*
X162502002Y-56289122D01*
X162502004Y-56289128D01*
X162566083Y-56448594D01*
X162587340Y-56501494D01*
X162590098Y-56505973D01*
X162707346Y-56696397D01*
X162707350Y-56696403D01*
X162710104Y-56700875D01*
X162864797Y-56876641D01*
X163046970Y-57023735D01*
X163070456Y-57036855D01*
X163080573Y-57042507D01*
X163125689Y-57085746D01*
X163143988Y-57145497D01*
X163130823Y-57206586D01*
X163089537Y-57253496D01*
X162957126Y-57342991D01*
X162957122Y-57342993D01*
X162952759Y-57345943D01*
X162948959Y-57349584D01*
X162948954Y-57349589D01*
X162787520Y-57504310D01*
X162787513Y-57504317D01*
X162783717Y-57507956D01*
X162780589Y-57512185D01*
X162780584Y-57512191D01*
X162647620Y-57691970D01*
X162647613Y-57691981D01*
X162644487Y-57696208D01*
X162642115Y-57700911D01*
X162642114Y-57700914D01*
X162543644Y-57896217D01*
X162539074Y-57905282D01*
X162537533Y-57910312D01*
X162537532Y-57910316D01*
X162472052Y-58124128D01*
X162472049Y-58124138D01*
X162470511Y-58129163D01*
X162469842Y-58134381D01*
X162469842Y-58134385D01*
X162462966Y-58188083D01*
X162440771Y-58361411D01*
X162440994Y-58366665D01*
X162440994Y-58366670D01*
X162443259Y-58420000D01*
X162450708Y-58595345D01*
X162451816Y-58600490D01*
X162451817Y-58600491D01*
X162492070Y-58787266D01*
X162500038Y-58824234D01*
X162502002Y-58829122D01*
X162502004Y-58829128D01*
X162566083Y-58988594D01*
X162587340Y-59041494D01*
X162590098Y-59045973D01*
X162707346Y-59236397D01*
X162707350Y-59236403D01*
X162710104Y-59240875D01*
X162864797Y-59416641D01*
X163046970Y-59563735D01*
X163070456Y-59576855D01*
X163080573Y-59582507D01*
X163125689Y-59625746D01*
X163143988Y-59685497D01*
X163130823Y-59746586D01*
X163089537Y-59793496D01*
X162957126Y-59882991D01*
X162957122Y-59882993D01*
X162952759Y-59885943D01*
X162948959Y-59889584D01*
X162948954Y-59889589D01*
X162787520Y-60044310D01*
X162787513Y-60044317D01*
X162783717Y-60047956D01*
X162780589Y-60052185D01*
X162780584Y-60052191D01*
X162647620Y-60231970D01*
X162647613Y-60231981D01*
X162644487Y-60236208D01*
X162642115Y-60240911D01*
X162642114Y-60240914D01*
X162557025Y-60409678D01*
X162539074Y-60445282D01*
X162537533Y-60450312D01*
X162537532Y-60450316D01*
X162472052Y-60664128D01*
X162472049Y-60664138D01*
X162470511Y-60669163D01*
X162469842Y-60674381D01*
X162469842Y-60674385D01*
X162462966Y-60728083D01*
X162440771Y-60901411D01*
X162440994Y-60906665D01*
X162440994Y-60906670D01*
X162443259Y-60960000D01*
X162450708Y-61135345D01*
X162451816Y-61140490D01*
X162451817Y-61140491D01*
X162492070Y-61327266D01*
X162500038Y-61364234D01*
X162502002Y-61369122D01*
X162502004Y-61369128D01*
X162566083Y-61528594D01*
X162587340Y-61581494D01*
X162590098Y-61585973D01*
X162707346Y-61776397D01*
X162707350Y-61776403D01*
X162710104Y-61780875D01*
X162864797Y-61956641D01*
X163046970Y-62103735D01*
X163058989Y-62110449D01*
X163080573Y-62122507D01*
X163125689Y-62165746D01*
X163143988Y-62225497D01*
X163130823Y-62286586D01*
X163089537Y-62333496D01*
X162957126Y-62422991D01*
X162957122Y-62422993D01*
X162952759Y-62425943D01*
X162948959Y-62429584D01*
X162948954Y-62429589D01*
X162787520Y-62584310D01*
X162787513Y-62584317D01*
X162783717Y-62587956D01*
X162780589Y-62592185D01*
X162780584Y-62592191D01*
X162647620Y-62771970D01*
X162647613Y-62771981D01*
X162644487Y-62776208D01*
X162642115Y-62780911D01*
X162642114Y-62780914D01*
X162543644Y-62976217D01*
X162539074Y-62985282D01*
X162537533Y-62990312D01*
X162537532Y-62990316D01*
X162472052Y-63204128D01*
X162472049Y-63204138D01*
X162470511Y-63209163D01*
X162469842Y-63214381D01*
X162469842Y-63214385D01*
X162456750Y-63316623D01*
X162440771Y-63441411D01*
X162440994Y-63446665D01*
X162440994Y-63446670D01*
X162443259Y-63500000D01*
X162450708Y-63675345D01*
X162451816Y-63680490D01*
X162451817Y-63680491D01*
X162497898Y-63894307D01*
X162500038Y-63904234D01*
X162502002Y-63909122D01*
X162502004Y-63909128D01*
X162543018Y-64011195D01*
X162587340Y-64121494D01*
X162590098Y-64125973D01*
X162707346Y-64316397D01*
X162707350Y-64316403D01*
X162710104Y-64320875D01*
X162864797Y-64496641D01*
X163046970Y-64643735D01*
X163070456Y-64656855D01*
X163080573Y-64662507D01*
X163125689Y-64705746D01*
X163143988Y-64765497D01*
X163130823Y-64826586D01*
X163089537Y-64873496D01*
X162957126Y-64962991D01*
X162957122Y-64962993D01*
X162952759Y-64965943D01*
X162948959Y-64969584D01*
X162948954Y-64969589D01*
X162787520Y-65124310D01*
X162787513Y-65124317D01*
X162783717Y-65127956D01*
X162780589Y-65132185D01*
X162780584Y-65132191D01*
X162647620Y-65311970D01*
X162647613Y-65311981D01*
X162644487Y-65316208D01*
X162642115Y-65320911D01*
X162642114Y-65320914D01*
X162543644Y-65516217D01*
X162539074Y-65525282D01*
X162537533Y-65530312D01*
X162537532Y-65530316D01*
X162472052Y-65744128D01*
X162472049Y-65744138D01*
X162470511Y-65749163D01*
X162469842Y-65754381D01*
X162469842Y-65754385D01*
X162450891Y-65902382D01*
X162440771Y-65981411D01*
X162440994Y-65986665D01*
X162440994Y-65986670D01*
X162446192Y-66109049D01*
X162450708Y-66215345D01*
X162451816Y-66220490D01*
X162451817Y-66220491D01*
X162492070Y-66407266D01*
X162500038Y-66444234D01*
X162502002Y-66449122D01*
X162502004Y-66449128D01*
X162566083Y-66608594D01*
X162587340Y-66661494D01*
X162590098Y-66665973D01*
X162707346Y-66856397D01*
X162707350Y-66856403D01*
X162710104Y-66860875D01*
X162864797Y-67036641D01*
X163046970Y-67183735D01*
X163152823Y-67242868D01*
X163197669Y-67285673D01*
X163216190Y-67344837D01*
X163203755Y-67405572D01*
X163163473Y-67452697D01*
X162985618Y-67577232D01*
X162977352Y-67584169D01*
X162824169Y-67737352D01*
X162817232Y-67745618D01*
X162692967Y-67923087D01*
X162687579Y-67932419D01*
X162596022Y-68128765D01*
X162592330Y-68138907D01*
X162544820Y-68316219D01*
X162544452Y-68327448D01*
X162555395Y-68330000D01*
X165084605Y-68330000D01*
X165095547Y-68327448D01*
X165095179Y-68316219D01*
X165047669Y-68138907D01*
X165043977Y-68128765D01*
X164952420Y-67932419D01*
X164947032Y-67923087D01*
X164822767Y-67745618D01*
X164815830Y-67737352D01*
X164705659Y-67627181D01*
X164675409Y-67577818D01*
X164670867Y-67520102D01*
X164693022Y-67466615D01*
X164737045Y-67429015D01*
X164793340Y-67415500D01*
X179645317Y-67415500D01*
X179708916Y-67433052D01*
X179754511Y-67480740D01*
X179769192Y-67545063D01*
X179748804Y-67607811D01*
X179699119Y-67651220D01*
X179491551Y-67751179D01*
X179491544Y-67751182D01*
X179487366Y-67753195D01*
X179483533Y-67755808D01*
X179483530Y-67755810D01*
X179280611Y-67894158D01*
X179276783Y-67896768D01*
X179273391Y-67899914D01*
X179273385Y-67899920D01*
X179104937Y-68056217D01*
X179089950Y-68070123D01*
X179087060Y-68073745D01*
X179087057Y-68073750D01*
X178972326Y-68217618D01*
X178931041Y-68269388D01*
X178928722Y-68273403D01*
X178928721Y-68273406D01*
X178805928Y-68486090D01*
X178805922Y-68486101D01*
X178803607Y-68490112D01*
X178789598Y-68525804D01*
X178762940Y-68567081D01*
X178722338Y-68594763D01*
X178674172Y-68604500D01*
X175957775Y-68604500D01*
X175946719Y-68603978D01*
X175939333Y-68602327D01*
X175931545Y-68602571D01*
X175931538Y-68602571D01*
X175872127Y-68604439D01*
X175868232Y-68604500D01*
X175840650Y-68604500D01*
X175836805Y-68604985D01*
X175836780Y-68604987D01*
X175836653Y-68605004D01*
X175825034Y-68605918D01*
X175789172Y-68607045D01*
X175789165Y-68607046D01*
X175781373Y-68607291D01*
X175773888Y-68609465D01*
X175773872Y-68609468D01*
X175762126Y-68612881D01*
X175743083Y-68616825D01*
X175730949Y-68618358D01*
X175730948Y-68618358D01*
X175723208Y-68619336D01*
X175715958Y-68622205D01*
X175715951Y-68622208D01*
X175682598Y-68635413D01*
X175671554Y-68639194D01*
X175637101Y-68649204D01*
X175637090Y-68649208D01*
X175629610Y-68651382D01*
X175622898Y-68655351D01*
X175622896Y-68655352D01*
X175612364Y-68661580D01*
X175594904Y-68670134D01*
X175583519Y-68674642D01*
X175583513Y-68674644D01*
X175576268Y-68677514D01*
X175569963Y-68682094D01*
X175569955Y-68682099D01*
X175540932Y-68703185D01*
X175531174Y-68709595D01*
X175500296Y-68727857D01*
X175500290Y-68727861D01*
X175493580Y-68731830D01*
X175488067Y-68737341D01*
X175488060Y-68737348D01*
X175479410Y-68745998D01*
X175464627Y-68758624D01*
X175454726Y-68765817D01*
X175454716Y-68765826D01*
X175448413Y-68770406D01*
X175443444Y-68776411D01*
X175443441Y-68776415D01*
X175420572Y-68804059D01*
X175412711Y-68812697D01*
X172966103Y-71259304D01*
X172914658Y-71290210D01*
X172854726Y-71293338D01*
X172800343Y-71267954D01*
X172764251Y-71220006D01*
X172756492Y-71170807D01*
X172754494Y-71170807D01*
X172754494Y-71154605D01*
X172735613Y-70938793D01*
X172733739Y-70928162D01*
X172677667Y-70718902D01*
X172673979Y-70708768D01*
X172582423Y-70512427D01*
X172577025Y-70503077D01*
X172536814Y-70445650D01*
X172528703Y-70438217D01*
X172519424Y-70444128D01*
X170734128Y-72229424D01*
X170728217Y-72238703D01*
X170735650Y-72246814D01*
X170793077Y-72287025D01*
X170802427Y-72292423D01*
X170998768Y-72383979D01*
X171008902Y-72387667D01*
X171218162Y-72443739D01*
X171228793Y-72445613D01*
X171444605Y-72464494D01*
X171460807Y-72464494D01*
X171460807Y-72466492D01*
X171510006Y-72474251D01*
X171557954Y-72510343D01*
X171583338Y-72564726D01*
X171580210Y-72624659D01*
X171549304Y-72676103D01*
X161067228Y-83158181D01*
X161027000Y-83185061D01*
X160979547Y-83194500D01*
X147264188Y-83194500D01*
X147206931Y-83180489D01*
X147162613Y-83141623D01*
X147053152Y-82985296D01*
X147050047Y-82980861D01*
X146889139Y-82819953D01*
X146702734Y-82689432D01*
X146496496Y-82593261D01*
X146491271Y-82591861D01*
X146491263Y-82591858D01*
X146281916Y-82535764D01*
X146281907Y-82535762D01*
X146276692Y-82534365D01*
X146271304Y-82533893D01*
X146271301Y-82533893D01*
X146055395Y-82515004D01*
X146050000Y-82514532D01*
X146044605Y-82515004D01*
X145828698Y-82533893D01*
X145828693Y-82533893D01*
X145823308Y-82534365D01*
X145818094Y-82535762D01*
X145818083Y-82535764D01*
X145608736Y-82591858D01*
X145608724Y-82591862D01*
X145603504Y-82593261D01*
X145598599Y-82595547D01*
X145598594Y-82595550D01*
X145402176Y-82687142D01*
X145402172Y-82687144D01*
X145397266Y-82689432D01*
X145392833Y-82692535D01*
X145392826Y-82692540D01*
X145215296Y-82816847D01*
X145215291Y-82816850D01*
X145210861Y-82819953D01*
X145207037Y-82823776D01*
X145207031Y-82823782D01*
X145053782Y-82977031D01*
X145053776Y-82977037D01*
X145049953Y-82980861D01*
X145046850Y-82985291D01*
X145046847Y-82985296D01*
X144922540Y-83162826D01*
X144922535Y-83162833D01*
X144919432Y-83167266D01*
X144917144Y-83172172D01*
X144917142Y-83172176D01*
X144825550Y-83368594D01*
X144825547Y-83368599D01*
X144823261Y-83373504D01*
X144821862Y-83378724D01*
X144821858Y-83378736D01*
X144765764Y-83588083D01*
X144765762Y-83588094D01*
X144764365Y-83593308D01*
X144744532Y-83820000D01*
X144764365Y-84046692D01*
X144765762Y-84051907D01*
X144765764Y-84051916D01*
X144821858Y-84261263D01*
X144821861Y-84261271D01*
X144823261Y-84266496D01*
X144825549Y-84271403D01*
X144825550Y-84271405D01*
X144844785Y-84312654D01*
X144919432Y-84472734D01*
X144922539Y-84477171D01*
X144922540Y-84477173D01*
X144959367Y-84529768D01*
X145049953Y-84659139D01*
X145210861Y-84820047D01*
X145397266Y-84950568D01*
X145402172Y-84952855D01*
X145402176Y-84952858D01*
X145455274Y-84977618D01*
X145507450Y-85023375D01*
X145526869Y-85090000D01*
X145507450Y-85156625D01*
X145455274Y-85202382D01*
X145402176Y-85227141D01*
X145402163Y-85227148D01*
X145397266Y-85229432D01*
X145392833Y-85232535D01*
X145392826Y-85232540D01*
X145215296Y-85356847D01*
X145215291Y-85356850D01*
X145210861Y-85359953D01*
X145207037Y-85363776D01*
X145207031Y-85363782D01*
X145053782Y-85517031D01*
X145053776Y-85517037D01*
X145049953Y-85520861D01*
X145046850Y-85525291D01*
X145046847Y-85525296D01*
X144922540Y-85702826D01*
X144922535Y-85702833D01*
X144919432Y-85707266D01*
X144917144Y-85712172D01*
X144917142Y-85712176D01*
X144825550Y-85908594D01*
X144825547Y-85908599D01*
X144823261Y-85913504D01*
X144821862Y-85918724D01*
X144821858Y-85918736D01*
X144765764Y-86128083D01*
X144765762Y-86128094D01*
X144764365Y-86133308D01*
X144744532Y-86360000D01*
X144764365Y-86586692D01*
X144765762Y-86591907D01*
X144765764Y-86591916D01*
X144821858Y-86801263D01*
X144821861Y-86801271D01*
X144823261Y-86806496D01*
X144919432Y-87012734D01*
X145049953Y-87199139D01*
X145210861Y-87360047D01*
X145397266Y-87490568D01*
X145402172Y-87492855D01*
X145402176Y-87492858D01*
X145455274Y-87517618D01*
X145507450Y-87563375D01*
X145526869Y-87630000D01*
X145507450Y-87696625D01*
X145455274Y-87742382D01*
X145402176Y-87767141D01*
X145402163Y-87767148D01*
X145397266Y-87769432D01*
X145392833Y-87772535D01*
X145392826Y-87772540D01*
X145215296Y-87896847D01*
X145215291Y-87896850D01*
X145210861Y-87899953D01*
X145207037Y-87903776D01*
X145207031Y-87903782D01*
X145053782Y-88057031D01*
X145053776Y-88057037D01*
X145049953Y-88060861D01*
X145046850Y-88065291D01*
X145046847Y-88065296D01*
X144922540Y-88242826D01*
X144922535Y-88242833D01*
X144919432Y-88247266D01*
X144917144Y-88252172D01*
X144917142Y-88252176D01*
X144825550Y-88448594D01*
X144825547Y-88448599D01*
X144823261Y-88453504D01*
X144821862Y-88458724D01*
X144821858Y-88458736D01*
X144765764Y-88668083D01*
X144765762Y-88668094D01*
X144764365Y-88673308D01*
X144744532Y-88900000D01*
X144764365Y-89126692D01*
X144765762Y-89131907D01*
X144765764Y-89131916D01*
X144821858Y-89341263D01*
X144821861Y-89341271D01*
X144823261Y-89346496D01*
X144919432Y-89552734D01*
X145049953Y-89739139D01*
X145210861Y-89900047D01*
X145397266Y-90030568D01*
X145402172Y-90032855D01*
X145402176Y-90032858D01*
X145455274Y-90057618D01*
X145507450Y-90103375D01*
X145526869Y-90170000D01*
X145507450Y-90236625D01*
X145455274Y-90282382D01*
X145402176Y-90307141D01*
X145402163Y-90307148D01*
X145397266Y-90309432D01*
X145392833Y-90312535D01*
X145392826Y-90312540D01*
X145215296Y-90436847D01*
X145215291Y-90436850D01*
X145210861Y-90439953D01*
X145207037Y-90443776D01*
X145207031Y-90443782D01*
X145053782Y-90597031D01*
X145053776Y-90597037D01*
X145049953Y-90600861D01*
X145046850Y-90605291D01*
X145046847Y-90605296D01*
X144922540Y-90782826D01*
X144922535Y-90782833D01*
X144919432Y-90787266D01*
X144917144Y-90792172D01*
X144917142Y-90792176D01*
X144825550Y-90988594D01*
X144825547Y-90988599D01*
X144823261Y-90993504D01*
X144821862Y-90998724D01*
X144821858Y-90998736D01*
X144765764Y-91208083D01*
X144765762Y-91208094D01*
X144764365Y-91213308D01*
X144763893Y-91218693D01*
X144763893Y-91218698D01*
X144747635Y-91404532D01*
X144744532Y-91440000D01*
X144745004Y-91445395D01*
X144760558Y-91623184D01*
X144764365Y-91666692D01*
X144765762Y-91671907D01*
X144765764Y-91671916D01*
X144821858Y-91881263D01*
X144821861Y-91881271D01*
X144823261Y-91886496D01*
X144919432Y-92092734D01*
X145049953Y-92279139D01*
X145210861Y-92440047D01*
X145397266Y-92570568D01*
X145402172Y-92572855D01*
X145402176Y-92572858D01*
X145455274Y-92597618D01*
X145507450Y-92643375D01*
X145526869Y-92710000D01*
X145507450Y-92776625D01*
X145455274Y-92822382D01*
X145402176Y-92847141D01*
X145402163Y-92847148D01*
X145397266Y-92849432D01*
X145392833Y-92852535D01*
X145392826Y-92852540D01*
X145215296Y-92976847D01*
X145215291Y-92976850D01*
X145210861Y-92979953D01*
X145207037Y-92983776D01*
X145207031Y-92983782D01*
X145053782Y-93137031D01*
X145053776Y-93137037D01*
X145049953Y-93140861D01*
X145046850Y-93145291D01*
X145046847Y-93145296D01*
X144922540Y-93322826D01*
X144922535Y-93322833D01*
X144919432Y-93327266D01*
X144917144Y-93332172D01*
X144917142Y-93332176D01*
X144825550Y-93528594D01*
X144825547Y-93528599D01*
X144823261Y-93533504D01*
X144821862Y-93538724D01*
X144821858Y-93538736D01*
X144765764Y-93748083D01*
X144765762Y-93748094D01*
X144764365Y-93753308D01*
X144763893Y-93758693D01*
X144763893Y-93758698D01*
X144754424Y-93866931D01*
X144744532Y-93980000D01*
X144764365Y-94206692D01*
X144765762Y-94211907D01*
X144765764Y-94211916D01*
X144821858Y-94421263D01*
X144821861Y-94421271D01*
X144823261Y-94426496D01*
X144919432Y-94632734D01*
X145049953Y-94819139D01*
X145210861Y-94980047D01*
X145397266Y-95110568D01*
X145402172Y-95112855D01*
X145402176Y-95112858D01*
X145455274Y-95137618D01*
X145507450Y-95183375D01*
X145526869Y-95250000D01*
X145507450Y-95316625D01*
X145455274Y-95362382D01*
X145402176Y-95387141D01*
X145402163Y-95387148D01*
X145397266Y-95389432D01*
X145392833Y-95392535D01*
X145392826Y-95392540D01*
X145215296Y-95516847D01*
X145215291Y-95516850D01*
X145210861Y-95519953D01*
X145207037Y-95523776D01*
X145207031Y-95523782D01*
X145053782Y-95677031D01*
X145053776Y-95677037D01*
X145049953Y-95680861D01*
X145046850Y-95685291D01*
X145046847Y-95685296D01*
X144922540Y-95862826D01*
X144922535Y-95862833D01*
X144919432Y-95867266D01*
X144917144Y-95872172D01*
X144917142Y-95872176D01*
X144825550Y-96068594D01*
X144825547Y-96068599D01*
X144823261Y-96073504D01*
X144821862Y-96078724D01*
X144821858Y-96078736D01*
X144765764Y-96288083D01*
X144765762Y-96288094D01*
X144764365Y-96293308D01*
X144744532Y-96520000D01*
X99095468Y-96520000D01*
X99075635Y-96293308D01*
X99016739Y-96073504D01*
X98920568Y-95867266D01*
X98790047Y-95680861D01*
X98629139Y-95519953D01*
X98442734Y-95389432D01*
X98384724Y-95362381D01*
X98332549Y-95316625D01*
X98313130Y-95250000D01*
X98332549Y-95183375D01*
X98384725Y-95137618D01*
X98442734Y-95110568D01*
X98629139Y-94980047D01*
X98790047Y-94819139D01*
X98920568Y-94632734D01*
X99016739Y-94426496D01*
X99075635Y-94206692D01*
X99095468Y-93980000D01*
X99075635Y-93753308D01*
X99016739Y-93533504D01*
X98920568Y-93327266D01*
X98790047Y-93140861D01*
X98629139Y-92979953D01*
X98442734Y-92849432D01*
X98384724Y-92822381D01*
X98332549Y-92776625D01*
X98313130Y-92710000D01*
X98332549Y-92643375D01*
X98384725Y-92597618D01*
X98442734Y-92570568D01*
X98629139Y-92440047D01*
X98790047Y-92279139D01*
X98920568Y-92092734D01*
X99016739Y-91886496D01*
X99075635Y-91666692D01*
X99095468Y-91440000D01*
X99075635Y-91213308D01*
X99016739Y-90993504D01*
X98920568Y-90787266D01*
X98790047Y-90600861D01*
X98629139Y-90439953D01*
X98442734Y-90309432D01*
X98384724Y-90282381D01*
X98332549Y-90236625D01*
X98313130Y-90170000D01*
X98332549Y-90103375D01*
X98384725Y-90057618D01*
X98442734Y-90030568D01*
X98629139Y-89900047D01*
X98790047Y-89739139D01*
X98920568Y-89552734D01*
X99016739Y-89346496D01*
X99075635Y-89126692D01*
X99095468Y-88900000D01*
X99075635Y-88673308D01*
X99016739Y-88453504D01*
X98920568Y-88247266D01*
X98790047Y-88060861D01*
X98629139Y-87899953D01*
X98442734Y-87769432D01*
X98384724Y-87742381D01*
X98332549Y-87696625D01*
X98313130Y-87630000D01*
X98332549Y-87563375D01*
X98384725Y-87517618D01*
X98442734Y-87490568D01*
X98629139Y-87360047D01*
X98790047Y-87199139D01*
X98920568Y-87012734D01*
X99016739Y-86806496D01*
X99075635Y-86586692D01*
X99095468Y-86360000D01*
X99075635Y-86133308D01*
X99016739Y-85913504D01*
X98920568Y-85707266D01*
X98790047Y-85520861D01*
X98629139Y-85359953D01*
X98442734Y-85229432D01*
X98384724Y-85202381D01*
X98332549Y-85156625D01*
X98313130Y-85090000D01*
X98332549Y-85023375D01*
X98384725Y-84977618D01*
X98442734Y-84950568D01*
X98629139Y-84820047D01*
X98790047Y-84659139D01*
X98920568Y-84472734D01*
X99016739Y-84266496D01*
X99075635Y-84046692D01*
X99095468Y-83820000D01*
X99075635Y-83593308D01*
X99016739Y-83373504D01*
X98920568Y-83167266D01*
X98790047Y-82980861D01*
X98629139Y-82819953D01*
X98442734Y-82689432D01*
X98384724Y-82662381D01*
X98332549Y-82616625D01*
X98313130Y-82550000D01*
X98332549Y-82483375D01*
X98384725Y-82437618D01*
X98442734Y-82410568D01*
X98629139Y-82280047D01*
X98790047Y-82119139D01*
X98920568Y-81932734D01*
X99016739Y-81726496D01*
X99075635Y-81506692D01*
X99095468Y-81280000D01*
X99075635Y-81053308D01*
X99025754Y-80867150D01*
X99018141Y-80838736D01*
X99018140Y-80838734D01*
X99016739Y-80833504D01*
X98920568Y-80627266D01*
X98790047Y-80440861D01*
X98629139Y-80279953D01*
X98442734Y-80149432D01*
X98437827Y-80147143D01*
X98437817Y-80147138D01*
X98384724Y-80122380D01*
X98332549Y-80076623D01*
X98313130Y-80009997D01*
X98332550Y-79943372D01*
X98384723Y-79897618D01*
X98442734Y-79870568D01*
X98629139Y-79740047D01*
X98790047Y-79579139D01*
X98920568Y-79392734D01*
X99016739Y-79186496D01*
X99075635Y-78966692D01*
X99095468Y-78740000D01*
X144744532Y-78740000D01*
X144764365Y-78966692D01*
X144765762Y-78971907D01*
X144765764Y-78971916D01*
X144821858Y-79181263D01*
X144821861Y-79181271D01*
X144823261Y-79186496D01*
X144919432Y-79392734D01*
X145049953Y-79579139D01*
X145210861Y-79740047D01*
X145397266Y-79870568D01*
X145603504Y-79966739D01*
X145608734Y-79968140D01*
X145608736Y-79968141D01*
X145668509Y-79984157D01*
X145823308Y-80025635D01*
X146050000Y-80045468D01*
X146276692Y-80025635D01*
X146496496Y-79966739D01*
X146702734Y-79870568D01*
X146889139Y-79740047D01*
X147050047Y-79579139D01*
X147180568Y-79392734D01*
X147276739Y-79186496D01*
X147335635Y-78966692D01*
X147355468Y-78740000D01*
X147335635Y-78513308D01*
X147276739Y-78293504D01*
X147180568Y-78087266D01*
X147050047Y-77900861D01*
X146889139Y-77739953D01*
X146702734Y-77609432D01*
X146644724Y-77582381D01*
X146592549Y-77536625D01*
X146573130Y-77470000D01*
X146592549Y-77403375D01*
X146644725Y-77357618D01*
X146702734Y-77330568D01*
X146889139Y-77200047D01*
X147050047Y-77039139D01*
X147180568Y-76852734D01*
X147276739Y-76646496D01*
X147335635Y-76426692D01*
X147355468Y-76200000D01*
X147335635Y-75973308D01*
X147276739Y-75753504D01*
X147180568Y-75547266D01*
X147050047Y-75360861D01*
X146889139Y-75199953D01*
X146827224Y-75156600D01*
X146707173Y-75072540D01*
X146707171Y-75072539D01*
X146702734Y-75069432D01*
X146644724Y-75042381D01*
X146592549Y-74996625D01*
X146573130Y-74930000D01*
X146592549Y-74863375D01*
X146644725Y-74817618D01*
X146702734Y-74790568D01*
X146889139Y-74660047D01*
X147050047Y-74499139D01*
X147180568Y-74312734D01*
X147276739Y-74106496D01*
X147335635Y-73886692D01*
X147355468Y-73660000D01*
X147335635Y-73433308D01*
X147276739Y-73213504D01*
X147180568Y-73007266D01*
X147050047Y-72820861D01*
X146889139Y-72659953D01*
X146827224Y-72616600D01*
X146707173Y-72532540D01*
X146707171Y-72532539D01*
X146702734Y-72529432D01*
X146697831Y-72527145D01*
X146697823Y-72527141D01*
X146644134Y-72502106D01*
X146591958Y-72456349D01*
X146572539Y-72389723D01*
X146591959Y-72323098D01*
X146644135Y-72277341D01*
X146697585Y-72252417D01*
X146706912Y-72247032D01*
X146884381Y-72122767D01*
X146892647Y-72115830D01*
X147045830Y-71962647D01*
X147052767Y-71954381D01*
X147177032Y-71776912D01*
X147182420Y-71767580D01*
X147273977Y-71571234D01*
X147277669Y-71561092D01*
X147325179Y-71383780D01*
X147325547Y-71372551D01*
X147314605Y-71370000D01*
X144785395Y-71370000D01*
X144774452Y-71372551D01*
X144774820Y-71383780D01*
X144822330Y-71561092D01*
X144826022Y-71571234D01*
X144917579Y-71767580D01*
X144922967Y-71776912D01*
X145047232Y-71954381D01*
X145054169Y-71962647D01*
X145207352Y-72115830D01*
X145215618Y-72122767D01*
X145393087Y-72247032D01*
X145402423Y-72252422D01*
X145455864Y-72277342D01*
X145508040Y-72323098D01*
X145527460Y-72389723D01*
X145508041Y-72456348D01*
X145455865Y-72502106D01*
X145397266Y-72529432D01*
X145392833Y-72532535D01*
X145392826Y-72532540D01*
X145215296Y-72656847D01*
X145215291Y-72656850D01*
X145210861Y-72659953D01*
X145207037Y-72663776D01*
X145207031Y-72663782D01*
X145053782Y-72817031D01*
X145053776Y-72817037D01*
X145049953Y-72820861D01*
X145046850Y-72825291D01*
X145046847Y-72825296D01*
X144922540Y-73002826D01*
X144922535Y-73002833D01*
X144919432Y-73007266D01*
X144917144Y-73012172D01*
X144917142Y-73012176D01*
X144825550Y-73208594D01*
X144825547Y-73208599D01*
X144823261Y-73213504D01*
X144821862Y-73218724D01*
X144821858Y-73218736D01*
X144765764Y-73428083D01*
X144765762Y-73428094D01*
X144764365Y-73433308D01*
X144763893Y-73438693D01*
X144763893Y-73438698D01*
X144745004Y-73654605D01*
X144744532Y-73660000D01*
X144764365Y-73886692D01*
X144765762Y-73891907D01*
X144765764Y-73891916D01*
X144821858Y-74101263D01*
X144821861Y-74101271D01*
X144823261Y-74106496D01*
X144919432Y-74312734D01*
X144922539Y-74317171D01*
X144922540Y-74317173D01*
X144923649Y-74318757D01*
X145049953Y-74499139D01*
X145210861Y-74660047D01*
X145397266Y-74790568D01*
X145402172Y-74792855D01*
X145402176Y-74792858D01*
X145455274Y-74817618D01*
X145507450Y-74863375D01*
X145526869Y-74930000D01*
X145507450Y-74996625D01*
X145455274Y-75042382D01*
X145402176Y-75067141D01*
X145402163Y-75067148D01*
X145397266Y-75069432D01*
X145392833Y-75072535D01*
X145392826Y-75072540D01*
X145215296Y-75196847D01*
X145215291Y-75196850D01*
X145210861Y-75199953D01*
X145207037Y-75203776D01*
X145207031Y-75203782D01*
X145053782Y-75357031D01*
X145053776Y-75357037D01*
X145049953Y-75360861D01*
X145046850Y-75365291D01*
X145046847Y-75365296D01*
X144922540Y-75542826D01*
X144922535Y-75542833D01*
X144919432Y-75547266D01*
X144917144Y-75552172D01*
X144917142Y-75552176D01*
X144825550Y-75748594D01*
X144825547Y-75748599D01*
X144823261Y-75753504D01*
X144821862Y-75758724D01*
X144821858Y-75758736D01*
X144765764Y-75968083D01*
X144765762Y-75968094D01*
X144764365Y-75973308D01*
X144763893Y-75978693D01*
X144763893Y-75978698D01*
X144745004Y-76194605D01*
X144744532Y-76200000D01*
X144745004Y-76205395D01*
X144754827Y-76317680D01*
X144764365Y-76426692D01*
X144765762Y-76431907D01*
X144765764Y-76431916D01*
X144821858Y-76641263D01*
X144821861Y-76641271D01*
X144823261Y-76646496D01*
X144919432Y-76852734D01*
X145049953Y-77039139D01*
X145210861Y-77200047D01*
X145397266Y-77330568D01*
X145402172Y-77332855D01*
X145402176Y-77332858D01*
X145455274Y-77357618D01*
X145507450Y-77403375D01*
X145526869Y-77470000D01*
X145507450Y-77536625D01*
X145455274Y-77582382D01*
X145402176Y-77607141D01*
X145402163Y-77607148D01*
X145397266Y-77609432D01*
X145392833Y-77612535D01*
X145392826Y-77612540D01*
X145215296Y-77736847D01*
X145215291Y-77736850D01*
X145210861Y-77739953D01*
X145207037Y-77743776D01*
X145207031Y-77743782D01*
X145053782Y-77897031D01*
X145053776Y-77897037D01*
X145049953Y-77900861D01*
X145046850Y-77905291D01*
X145046847Y-77905296D01*
X144922540Y-78082826D01*
X144922535Y-78082833D01*
X144919432Y-78087266D01*
X144917144Y-78092172D01*
X144917142Y-78092176D01*
X144825550Y-78288594D01*
X144825547Y-78288599D01*
X144823261Y-78293504D01*
X144821862Y-78298724D01*
X144821858Y-78298736D01*
X144765764Y-78508083D01*
X144765762Y-78508094D01*
X144764365Y-78513308D01*
X144744532Y-78740000D01*
X99095468Y-78740000D01*
X99075635Y-78513308D01*
X99016739Y-78293504D01*
X98920568Y-78087266D01*
X98790047Y-77900861D01*
X98629139Y-77739953D01*
X98442734Y-77609432D01*
X98236496Y-77513261D01*
X98231271Y-77511861D01*
X98231263Y-77511858D01*
X98021916Y-77455764D01*
X98021907Y-77455762D01*
X98016692Y-77454365D01*
X98011304Y-77453893D01*
X98011301Y-77453893D01*
X97795395Y-77435004D01*
X97790000Y-77434532D01*
X97784605Y-77435004D01*
X97568698Y-77453893D01*
X97568693Y-77453893D01*
X97563308Y-77454365D01*
X97558094Y-77455762D01*
X97558083Y-77455764D01*
X97348736Y-77511858D01*
X97348724Y-77511862D01*
X97343504Y-77513261D01*
X97338599Y-77515547D01*
X97338594Y-77515550D01*
X97142176Y-77607142D01*
X97142172Y-77607144D01*
X97137266Y-77609432D01*
X97132833Y-77612535D01*
X97132826Y-77612540D01*
X96955296Y-77736847D01*
X96955291Y-77736850D01*
X96950861Y-77739953D01*
X96947037Y-77743776D01*
X96947031Y-77743782D01*
X96793782Y-77897031D01*
X96793776Y-77897037D01*
X96789953Y-77900861D01*
X96786850Y-77905291D01*
X96786847Y-77905296D01*
X96662540Y-78082826D01*
X96662535Y-78082833D01*
X96659432Y-78087266D01*
X96657144Y-78092172D01*
X96657142Y-78092176D01*
X96565550Y-78288594D01*
X96565547Y-78288599D01*
X96563261Y-78293504D01*
X96561862Y-78298724D01*
X96561858Y-78298736D01*
X96505764Y-78508083D01*
X96505762Y-78508094D01*
X96504365Y-78513308D01*
X96484532Y-78740000D01*
X96504365Y-78966692D01*
X96505762Y-78971907D01*
X96505764Y-78971916D01*
X96561858Y-79181263D01*
X96561861Y-79181271D01*
X96563261Y-79186496D01*
X96659432Y-79392734D01*
X96789953Y-79579139D01*
X96950861Y-79740047D01*
X97137266Y-79870568D01*
X97195276Y-79897618D01*
X97247449Y-79943373D01*
X97266869Y-80009997D01*
X97247451Y-80076622D01*
X97195276Y-80122380D01*
X97142178Y-80147141D01*
X97142173Y-80147143D01*
X97137266Y-80149432D01*
X97132833Y-80152535D01*
X97132826Y-80152540D01*
X96955296Y-80276847D01*
X96955291Y-80276850D01*
X96950861Y-80279953D01*
X96947037Y-80283776D01*
X96947031Y-80283782D01*
X96793782Y-80437031D01*
X96793776Y-80437037D01*
X96789953Y-80440861D01*
X96786850Y-80445291D01*
X96786847Y-80445296D01*
X96662540Y-80622826D01*
X96662535Y-80622833D01*
X96659432Y-80627266D01*
X96657144Y-80632172D01*
X96657142Y-80632176D01*
X96565550Y-80828594D01*
X96565547Y-80828599D01*
X96563261Y-80833504D01*
X96561862Y-80838724D01*
X96561858Y-80838736D01*
X96505764Y-81048083D01*
X96505762Y-81048094D01*
X96504365Y-81053308D01*
X96503893Y-81058693D01*
X96503893Y-81058698D01*
X96490936Y-81206805D01*
X96484532Y-81280000D01*
X96485004Y-81285395D01*
X96500652Y-81464260D01*
X96504365Y-81506692D01*
X96505762Y-81511907D01*
X96505764Y-81511916D01*
X96561858Y-81721263D01*
X96561861Y-81721271D01*
X96563261Y-81726496D01*
X96565549Y-81731403D01*
X96565550Y-81731405D01*
X96573101Y-81747598D01*
X96659432Y-81932734D01*
X96662539Y-81937171D01*
X96662540Y-81937173D01*
X96677549Y-81958608D01*
X96789953Y-82119139D01*
X96950861Y-82280047D01*
X97137266Y-82410568D01*
X97142172Y-82412855D01*
X97142176Y-82412858D01*
X97195274Y-82437618D01*
X97247450Y-82483375D01*
X97266869Y-82550000D01*
X97247450Y-82616625D01*
X97195274Y-82662382D01*
X97142176Y-82687141D01*
X97142163Y-82687148D01*
X97137266Y-82689432D01*
X97132833Y-82692535D01*
X97132826Y-82692540D01*
X96955296Y-82816847D01*
X96955291Y-82816850D01*
X96950861Y-82819953D01*
X96947037Y-82823776D01*
X96947031Y-82823782D01*
X96793782Y-82977031D01*
X96793776Y-82977037D01*
X96789953Y-82980861D01*
X96786850Y-82985291D01*
X96786847Y-82985296D01*
X96662540Y-83162826D01*
X96662535Y-83162833D01*
X96659432Y-83167266D01*
X96657144Y-83172172D01*
X96657142Y-83172176D01*
X96565550Y-83368594D01*
X96565547Y-83368599D01*
X96563261Y-83373504D01*
X96561862Y-83378724D01*
X96561858Y-83378736D01*
X96505764Y-83588083D01*
X96505762Y-83588094D01*
X96504365Y-83593308D01*
X96484532Y-83820000D01*
X96504365Y-84046692D01*
X96505762Y-84051907D01*
X96505764Y-84051916D01*
X96561858Y-84261263D01*
X96561861Y-84261271D01*
X96563261Y-84266496D01*
X96565549Y-84271403D01*
X96565550Y-84271405D01*
X96584785Y-84312654D01*
X96659432Y-84472734D01*
X96662539Y-84477171D01*
X96662540Y-84477173D01*
X96699367Y-84529768D01*
X96789953Y-84659139D01*
X96950861Y-84820047D01*
X97137266Y-84950568D01*
X97142172Y-84952855D01*
X97142176Y-84952858D01*
X97195274Y-84977618D01*
X97247450Y-85023375D01*
X97266869Y-85090000D01*
X97247450Y-85156625D01*
X97195274Y-85202382D01*
X97142176Y-85227141D01*
X97142163Y-85227148D01*
X97137266Y-85229432D01*
X97132833Y-85232535D01*
X97132826Y-85232540D01*
X96955296Y-85356847D01*
X96955291Y-85356850D01*
X96950861Y-85359953D01*
X96947037Y-85363776D01*
X96947031Y-85363782D01*
X96793782Y-85517031D01*
X96793776Y-85517037D01*
X96789953Y-85520861D01*
X96786850Y-85525291D01*
X96786847Y-85525296D01*
X96662540Y-85702826D01*
X96662535Y-85702833D01*
X96659432Y-85707266D01*
X96657144Y-85712172D01*
X96657142Y-85712176D01*
X96565550Y-85908594D01*
X96565547Y-85908599D01*
X96563261Y-85913504D01*
X96561862Y-85918724D01*
X96561858Y-85918736D01*
X96505764Y-86128083D01*
X96505762Y-86128094D01*
X96504365Y-86133308D01*
X96484532Y-86360000D01*
X96504365Y-86586692D01*
X96505762Y-86591907D01*
X96505764Y-86591916D01*
X96561858Y-86801263D01*
X96561861Y-86801271D01*
X96563261Y-86806496D01*
X96659432Y-87012734D01*
X96789953Y-87199139D01*
X96950861Y-87360047D01*
X97137266Y-87490568D01*
X97142172Y-87492855D01*
X97142176Y-87492858D01*
X97195274Y-87517618D01*
X97247450Y-87563375D01*
X97266869Y-87630000D01*
X97247450Y-87696625D01*
X97195274Y-87742382D01*
X97142176Y-87767141D01*
X97142163Y-87767148D01*
X97137266Y-87769432D01*
X97132833Y-87772535D01*
X97132826Y-87772540D01*
X96955296Y-87896847D01*
X96955291Y-87896850D01*
X96950861Y-87899953D01*
X96947037Y-87903776D01*
X96947031Y-87903782D01*
X96793782Y-88057031D01*
X96793776Y-88057037D01*
X96789953Y-88060861D01*
X96786850Y-88065291D01*
X96786847Y-88065296D01*
X96662540Y-88242826D01*
X96662535Y-88242833D01*
X96659432Y-88247266D01*
X96657144Y-88252172D01*
X96657142Y-88252176D01*
X96565550Y-88448594D01*
X96565547Y-88448599D01*
X96563261Y-88453504D01*
X96561862Y-88458724D01*
X96561858Y-88458736D01*
X96505764Y-88668083D01*
X96505762Y-88668094D01*
X96504365Y-88673308D01*
X96484532Y-88900000D01*
X96504365Y-89126692D01*
X96505762Y-89131907D01*
X96505764Y-89131916D01*
X96561858Y-89341263D01*
X96561861Y-89341271D01*
X96563261Y-89346496D01*
X96659432Y-89552734D01*
X96789953Y-89739139D01*
X96950861Y-89900047D01*
X97137266Y-90030568D01*
X97142172Y-90032855D01*
X97142176Y-90032858D01*
X97195274Y-90057618D01*
X97247450Y-90103375D01*
X97266869Y-90170000D01*
X97247450Y-90236625D01*
X97195274Y-90282382D01*
X97142176Y-90307141D01*
X97142163Y-90307148D01*
X97137266Y-90309432D01*
X97132833Y-90312535D01*
X97132826Y-90312540D01*
X96955296Y-90436847D01*
X96955291Y-90436850D01*
X96950861Y-90439953D01*
X96947037Y-90443776D01*
X96947031Y-90443782D01*
X96793782Y-90597031D01*
X96793776Y-90597037D01*
X96789953Y-90600861D01*
X96786850Y-90605291D01*
X96786847Y-90605296D01*
X96662540Y-90782826D01*
X96662535Y-90782833D01*
X96659432Y-90787266D01*
X96657144Y-90792172D01*
X96657142Y-90792176D01*
X96565550Y-90988594D01*
X96565547Y-90988599D01*
X96563261Y-90993504D01*
X96561862Y-90998724D01*
X96561858Y-90998736D01*
X96505764Y-91208083D01*
X96505762Y-91208094D01*
X96504365Y-91213308D01*
X96503893Y-91218693D01*
X96503893Y-91218698D01*
X96487635Y-91404532D01*
X96484532Y-91440000D01*
X96485004Y-91445395D01*
X96500558Y-91623184D01*
X96504365Y-91666692D01*
X96505762Y-91671907D01*
X96505764Y-91671916D01*
X96561858Y-91881263D01*
X96561861Y-91881271D01*
X96563261Y-91886496D01*
X96659432Y-92092734D01*
X96789953Y-92279139D01*
X96950861Y-92440047D01*
X97137266Y-92570568D01*
X97142172Y-92572855D01*
X97142176Y-92572858D01*
X97195274Y-92597618D01*
X97247450Y-92643375D01*
X97266869Y-92710000D01*
X97247450Y-92776625D01*
X97195274Y-92822382D01*
X97142176Y-92847141D01*
X97142163Y-92847148D01*
X97137266Y-92849432D01*
X97132833Y-92852535D01*
X97132826Y-92852540D01*
X96955296Y-92976847D01*
X96955291Y-92976850D01*
X96950861Y-92979953D01*
X96947037Y-92983776D01*
X96947031Y-92983782D01*
X96793782Y-93137031D01*
X96793776Y-93137037D01*
X96789953Y-93140861D01*
X96786850Y-93145291D01*
X96786847Y-93145296D01*
X96662540Y-93322826D01*
X96662535Y-93322833D01*
X96659432Y-93327266D01*
X96657144Y-93332172D01*
X96657142Y-93332176D01*
X96565550Y-93528594D01*
X96565547Y-93528599D01*
X96563261Y-93533504D01*
X96561862Y-93538724D01*
X96561858Y-93538736D01*
X96505764Y-93748083D01*
X96505762Y-93748094D01*
X96504365Y-93753308D01*
X96503893Y-93758693D01*
X96503893Y-93758698D01*
X96494424Y-93866931D01*
X96484532Y-93980000D01*
X96504365Y-94206692D01*
X96505762Y-94211907D01*
X96505764Y-94211916D01*
X96561858Y-94421263D01*
X96561861Y-94421271D01*
X96563261Y-94426496D01*
X96659432Y-94632734D01*
X96789953Y-94819139D01*
X96950861Y-94980047D01*
X97137266Y-95110568D01*
X97142172Y-95112855D01*
X97142176Y-95112858D01*
X97195274Y-95137618D01*
X97247450Y-95183375D01*
X97266869Y-95250000D01*
X97247450Y-95316625D01*
X97195274Y-95362382D01*
X97142176Y-95387141D01*
X97142163Y-95387148D01*
X97137266Y-95389432D01*
X97132833Y-95392535D01*
X97132826Y-95392540D01*
X96955296Y-95516847D01*
X96955291Y-95516850D01*
X96950861Y-95519953D01*
X96947037Y-95523776D01*
X96947031Y-95523782D01*
X96793782Y-95677031D01*
X96793776Y-95677037D01*
X96789953Y-95680861D01*
X96786850Y-95685291D01*
X96786847Y-95685296D01*
X96662540Y-95862826D01*
X96662535Y-95862833D01*
X96659432Y-95867266D01*
X96657144Y-95872172D01*
X96657142Y-95872176D01*
X96565550Y-96068594D01*
X96565547Y-96068599D01*
X96563261Y-96073504D01*
X96561862Y-96078724D01*
X96561858Y-96078736D01*
X96505764Y-96288083D01*
X96505762Y-96288094D01*
X96504365Y-96293308D01*
X96484532Y-96520000D01*
X88900500Y-96520000D01*
X88900500Y-74680000D01*
X96484532Y-74680000D01*
X96485004Y-74685395D01*
X96501536Y-74874365D01*
X96504365Y-74906692D01*
X96505762Y-74911907D01*
X96505764Y-74911916D01*
X96561858Y-75121263D01*
X96561861Y-75121271D01*
X96563261Y-75126496D01*
X96659432Y-75332734D01*
X96662539Y-75337171D01*
X96662540Y-75337173D01*
X96682232Y-75365296D01*
X96789953Y-75519139D01*
X96950861Y-75680047D01*
X97137266Y-75810568D01*
X97343504Y-75906739D01*
X97563308Y-75965635D01*
X97790000Y-75985468D01*
X98016692Y-75965635D01*
X98236496Y-75906739D01*
X98442734Y-75810568D01*
X98629139Y-75680047D01*
X98790047Y-75519139D01*
X98920568Y-75332734D01*
X99016739Y-75126496D01*
X99075635Y-74906692D01*
X99095468Y-74680000D01*
X99075635Y-74453308D01*
X99016739Y-74233504D01*
X98920568Y-74027266D01*
X98790047Y-73840861D01*
X98629139Y-73679953D01*
X98442734Y-73549432D01*
X98384724Y-73522381D01*
X98332549Y-73476625D01*
X98313130Y-73410000D01*
X98332549Y-73343375D01*
X98384725Y-73297618D01*
X98442734Y-73270568D01*
X98629139Y-73140047D01*
X98790047Y-72979139D01*
X98920568Y-72792734D01*
X99016739Y-72586496D01*
X99075635Y-72366692D01*
X99095468Y-72140000D01*
X99075635Y-71913308D01*
X99016739Y-71693504D01*
X98920568Y-71487266D01*
X98790047Y-71300861D01*
X98629139Y-71139953D01*
X98523082Y-71065692D01*
X98447173Y-71012540D01*
X98447171Y-71012539D01*
X98442734Y-71009432D01*
X98384724Y-70982381D01*
X98332549Y-70936625D01*
X98313130Y-70870000D01*
X98332549Y-70803375D01*
X98384725Y-70757618D01*
X98388624Y-70755800D01*
X98442734Y-70730568D01*
X98629139Y-70600047D01*
X98790047Y-70439139D01*
X98920568Y-70252734D01*
X99016739Y-70046496D01*
X99075635Y-69826692D01*
X99095468Y-69600000D01*
X99075635Y-69373308D01*
X99016739Y-69153504D01*
X98920568Y-68947266D01*
X98790047Y-68760861D01*
X98629139Y-68599953D01*
X98600643Y-68580000D01*
X144744532Y-68580000D01*
X144745004Y-68585395D01*
X144762677Y-68787404D01*
X144764365Y-68806692D01*
X144765762Y-68811907D01*
X144765764Y-68811916D01*
X144821858Y-69021263D01*
X144821861Y-69021271D01*
X144823261Y-69026496D01*
X144825549Y-69031403D01*
X144825550Y-69031405D01*
X144835691Y-69053152D01*
X144919432Y-69232734D01*
X145049953Y-69419139D01*
X145210861Y-69580047D01*
X145397266Y-69710568D01*
X145402175Y-69712857D01*
X145402180Y-69712860D01*
X145455864Y-69737893D01*
X145508040Y-69783649D01*
X145527460Y-69850274D01*
X145508041Y-69916899D01*
X145455866Y-69962657D01*
X145402416Y-69987581D01*
X145393087Y-69992967D01*
X145215618Y-70117232D01*
X145207352Y-70124169D01*
X145054169Y-70277352D01*
X145047232Y-70285618D01*
X144922967Y-70463087D01*
X144917579Y-70472419D01*
X144826022Y-70668765D01*
X144822330Y-70678907D01*
X144774820Y-70856219D01*
X144774452Y-70867448D01*
X144785395Y-70870000D01*
X147314605Y-70870000D01*
X147325547Y-70867448D01*
X147325179Y-70856219D01*
X147277669Y-70678907D01*
X147273977Y-70668765D01*
X147182420Y-70472419D01*
X147177032Y-70463087D01*
X147052767Y-70285618D01*
X147045830Y-70277352D01*
X146892647Y-70124169D01*
X146884381Y-70117232D01*
X146706912Y-69992967D01*
X146697579Y-69987579D01*
X146644134Y-69962657D01*
X146591958Y-69916899D01*
X146572539Y-69850274D01*
X146591959Y-69783649D01*
X146644131Y-69737894D01*
X146702734Y-69710568D01*
X146889139Y-69580047D01*
X147050047Y-69419139D01*
X147180568Y-69232734D01*
X147276739Y-69026496D01*
X147335635Y-68806692D01*
X147355468Y-68580000D01*
X147335635Y-68353308D01*
X147276739Y-68133504D01*
X147180568Y-67927266D01*
X147050047Y-67740861D01*
X146889139Y-67579953D01*
X146803662Y-67520102D01*
X146707173Y-67452540D01*
X146707171Y-67452539D01*
X146702734Y-67449432D01*
X146644724Y-67422381D01*
X146592549Y-67376625D01*
X146573130Y-67310000D01*
X146592549Y-67243375D01*
X146644725Y-67197618D01*
X146702734Y-67170568D01*
X146889139Y-67040047D01*
X147050047Y-66879139D01*
X147180568Y-66692734D01*
X147276739Y-66486496D01*
X147335635Y-66266692D01*
X147355468Y-66040000D01*
X147351609Y-65995896D01*
X147360994Y-65936640D01*
X147397101Y-65888724D01*
X147451476Y-65863368D01*
X147511391Y-65866508D01*
X147562818Y-65897409D01*
X147928181Y-66262772D01*
X147955061Y-66303000D01*
X147964500Y-66350453D01*
X147964500Y-68512225D01*
X147963978Y-68523280D01*
X147962327Y-68530667D01*
X147962571Y-68538453D01*
X147962571Y-68538461D01*
X147964439Y-68597873D01*
X147964500Y-68601768D01*
X147964500Y-68629350D01*
X147964988Y-68633219D01*
X147964989Y-68633225D01*
X147965004Y-68633343D01*
X147965918Y-68644966D01*
X147967045Y-68680830D01*
X147967046Y-68680837D01*
X147967291Y-68688627D01*
X147969467Y-68696119D01*
X147969468Y-68696121D01*
X147972879Y-68707862D01*
X147976825Y-68726915D01*
X147979336Y-68746792D01*
X147982206Y-68754042D01*
X147982208Y-68754048D01*
X147995414Y-68787404D01*
X147999197Y-68798451D01*
X148011382Y-68840390D01*
X148015353Y-68847105D01*
X148015354Y-68847107D01*
X148021581Y-68857637D01*
X148030136Y-68875099D01*
X148034642Y-68886480D01*
X148034643Y-68886483D01*
X148037514Y-68893732D01*
X148059440Y-68923912D01*
X148063181Y-68929060D01*
X148069593Y-68938822D01*
X148087856Y-68969702D01*
X148087859Y-68969707D01*
X148091830Y-68976420D01*
X148097345Y-68981934D01*
X148097345Y-68981935D01*
X148105990Y-68990580D01*
X148118626Y-69005374D01*
X148125819Y-69015275D01*
X148125823Y-69015279D01*
X148130406Y-69021587D01*
X148136415Y-69026558D01*
X148136416Y-69026559D01*
X148164058Y-69049426D01*
X148172699Y-69057289D01*
X149820586Y-70705177D01*
X149852680Y-70760763D01*
X149852680Y-70824950D01*
X149835765Y-70888079D01*
X149835762Y-70888090D01*
X149834365Y-70893308D01*
X149833893Y-70898693D01*
X149833893Y-70898698D01*
X149822450Y-71029500D01*
X149814532Y-71120000D01*
X149815004Y-71125395D01*
X149828980Y-71285148D01*
X149834365Y-71346692D01*
X149835762Y-71351907D01*
X149835764Y-71351916D01*
X149891858Y-71561263D01*
X149891861Y-71561271D01*
X149893261Y-71566496D01*
X149989432Y-71772734D01*
X149992539Y-71777171D01*
X149992540Y-71777173D01*
X150020372Y-71816922D01*
X150119953Y-71959139D01*
X150280861Y-72120047D01*
X150467266Y-72250568D01*
X150673504Y-72346739D01*
X150678734Y-72348140D01*
X150678736Y-72348141D01*
X150767466Y-72371916D01*
X150893308Y-72405635D01*
X151120000Y-72425468D01*
X151346692Y-72405635D01*
X151566496Y-72346739D01*
X151772734Y-72250568D01*
X151959139Y-72120047D01*
X152114608Y-71964578D01*
X162519500Y-71964578D01*
X162519501Y-71967872D01*
X162519853Y-71971150D01*
X162519854Y-71971161D01*
X162525079Y-72019768D01*
X162525080Y-72019773D01*
X162525909Y-72027483D01*
X162528619Y-72034749D01*
X162528620Y-72034753D01*
X162558860Y-72115830D01*
X162576204Y-72162331D01*
X162662454Y-72277546D01*
X162777669Y-72363796D01*
X162912517Y-72414091D01*
X162972127Y-72420500D01*
X164667872Y-72420499D01*
X164727483Y-72414091D01*
X164862331Y-72363796D01*
X164977546Y-72277546D01*
X165063796Y-72162331D01*
X165114091Y-72027483D01*
X165120500Y-71967873D01*
X165120500Y-71165395D01*
X170145506Y-71165395D01*
X170164386Y-71381206D01*
X170166260Y-71391837D01*
X170222332Y-71601097D01*
X170226020Y-71611231D01*
X170317576Y-71807572D01*
X170322974Y-71816922D01*
X170363184Y-71874348D01*
X170371295Y-71881781D01*
X170380574Y-71875870D01*
X171084903Y-71171542D01*
X171091567Y-71160000D01*
X171084903Y-71148457D01*
X170380574Y-70444128D01*
X170371296Y-70438217D01*
X170363183Y-70445651D01*
X170322971Y-70503081D01*
X170317577Y-70512425D01*
X170226020Y-70708768D01*
X170222332Y-70718902D01*
X170166260Y-70928162D01*
X170164386Y-70938793D01*
X170145506Y-71154605D01*
X170145506Y-71165395D01*
X165120500Y-71165395D01*
X165120499Y-70272128D01*
X165114091Y-70212517D01*
X165065149Y-70081296D01*
X170728217Y-70081296D01*
X170734128Y-70090574D01*
X171438457Y-70794903D01*
X171450000Y-70801567D01*
X171461542Y-70794903D01*
X172165870Y-70090574D01*
X172171781Y-70081295D01*
X172164348Y-70073184D01*
X172106922Y-70032974D01*
X172097572Y-70027576D01*
X171901231Y-69936020D01*
X171891097Y-69932332D01*
X171681837Y-69876260D01*
X171671206Y-69874386D01*
X171455395Y-69855506D01*
X171444605Y-69855506D01*
X171228793Y-69874386D01*
X171218162Y-69876260D01*
X171008902Y-69932332D01*
X170998768Y-69936020D01*
X170802425Y-70027577D01*
X170793081Y-70032971D01*
X170735651Y-70073183D01*
X170728217Y-70081296D01*
X165065149Y-70081296D01*
X165063796Y-70077669D01*
X164977546Y-69962454D01*
X164916692Y-69916899D01*
X164869431Y-69881519D01*
X164869430Y-69881518D01*
X164862331Y-69876204D01*
X164727483Y-69825909D01*
X164719770Y-69825079D01*
X164719767Y-69825079D01*
X164691648Y-69822056D01*
X164635726Y-69801677D01*
X164595743Y-69757588D01*
X164580910Y-69699946D01*
X164594644Y-69642033D01*
X164633782Y-69597191D01*
X164654379Y-69582769D01*
X164662647Y-69575830D01*
X164815830Y-69422647D01*
X164822767Y-69414381D01*
X164947032Y-69236912D01*
X164952420Y-69227580D01*
X165043977Y-69031234D01*
X165047669Y-69021092D01*
X165095179Y-68843780D01*
X165095547Y-68832551D01*
X165084605Y-68830000D01*
X162555395Y-68830000D01*
X162544452Y-68832551D01*
X162544820Y-68843780D01*
X162592330Y-69021092D01*
X162596022Y-69031234D01*
X162687579Y-69227580D01*
X162692967Y-69236912D01*
X162817232Y-69414381D01*
X162824169Y-69422647D01*
X162977352Y-69575830D01*
X162985626Y-69582773D01*
X163006219Y-69597193D01*
X163045356Y-69642035D01*
X163059089Y-69699948D01*
X163044255Y-69757589D01*
X163004271Y-69801678D01*
X162948349Y-69822057D01*
X162920231Y-69825079D01*
X162920225Y-69825080D01*
X162912517Y-69825909D01*
X162905252Y-69828618D01*
X162905246Y-69828620D01*
X162785980Y-69873104D01*
X162785978Y-69873104D01*
X162777669Y-69876204D01*
X162770572Y-69881516D01*
X162770568Y-69881519D01*
X162669550Y-69957141D01*
X162669546Y-69957144D01*
X162662454Y-69962454D01*
X162657144Y-69969546D01*
X162657141Y-69969550D01*
X162581519Y-70070568D01*
X162581516Y-70070572D01*
X162576204Y-70077669D01*
X162573104Y-70085978D01*
X162573104Y-70085980D01*
X162528620Y-70205247D01*
X162528619Y-70205250D01*
X162525909Y-70212517D01*
X162525079Y-70220227D01*
X162525079Y-70220232D01*
X162519855Y-70268819D01*
X162519854Y-70268831D01*
X162519500Y-70272127D01*
X162519500Y-70275448D01*
X162519500Y-70275449D01*
X162519500Y-71964560D01*
X162519500Y-71964578D01*
X152114608Y-71964578D01*
X152120047Y-71959139D01*
X152250568Y-71772734D01*
X152346739Y-71566496D01*
X152405635Y-71346692D01*
X152425468Y-71120000D01*
X152405635Y-70893308D01*
X152346739Y-70673504D01*
X152250568Y-70467266D01*
X152120047Y-70280861D01*
X151959139Y-70119953D01*
X151888609Y-70070568D01*
X151777173Y-69992540D01*
X151777171Y-69992539D01*
X151772734Y-69989432D01*
X151714724Y-69962381D01*
X151662549Y-69916625D01*
X151643130Y-69850000D01*
X151662549Y-69783375D01*
X151714725Y-69737618D01*
X151772734Y-69710568D01*
X151959139Y-69580047D01*
X152120047Y-69419139D01*
X152250568Y-69232734D01*
X152346739Y-69026496D01*
X152405635Y-68806692D01*
X152425468Y-68580000D01*
X152405635Y-68353308D01*
X152346739Y-68133504D01*
X152250568Y-67927266D01*
X152120047Y-67740861D01*
X151959139Y-67579953D01*
X151873662Y-67520102D01*
X151777173Y-67452540D01*
X151777171Y-67452539D01*
X151772734Y-67449432D01*
X151714724Y-67422381D01*
X151662549Y-67376625D01*
X151643130Y-67310000D01*
X151662549Y-67243375D01*
X151714725Y-67197618D01*
X151772734Y-67170568D01*
X151959139Y-67040047D01*
X152120047Y-66879139D01*
X152250568Y-66692734D01*
X152346739Y-66486496D01*
X152405635Y-66266692D01*
X152425468Y-66040000D01*
X152405635Y-65813308D01*
X152389847Y-65754385D01*
X152348141Y-65598736D01*
X152348140Y-65598734D01*
X152346739Y-65593504D01*
X152250568Y-65387266D01*
X152120047Y-65200861D01*
X151959139Y-65039953D01*
X151897224Y-64996600D01*
X151777173Y-64912540D01*
X151777171Y-64912539D01*
X151772734Y-64909432D01*
X151714724Y-64882381D01*
X151662549Y-64836625D01*
X151643130Y-64770000D01*
X151662549Y-64703375D01*
X151714725Y-64657618D01*
X151772734Y-64630568D01*
X151959139Y-64500047D01*
X152120047Y-64339139D01*
X152250568Y-64152734D01*
X152346739Y-63946496D01*
X152405635Y-63726692D01*
X152425468Y-63500000D01*
X152405635Y-63273308D01*
X152389847Y-63214385D01*
X152348141Y-63058736D01*
X152348140Y-63058734D01*
X152346739Y-63053504D01*
X152250568Y-62847266D01*
X152120047Y-62660861D01*
X151959139Y-62499953D01*
X151870492Y-62437882D01*
X151777173Y-62372540D01*
X151777171Y-62372539D01*
X151772734Y-62369432D01*
X151714724Y-62342381D01*
X151662549Y-62296625D01*
X151643130Y-62230000D01*
X151662549Y-62163375D01*
X151714725Y-62117618D01*
X151772734Y-62090568D01*
X151959139Y-61960047D01*
X152120047Y-61799139D01*
X152250568Y-61612734D01*
X152346739Y-61406496D01*
X152405635Y-61186692D01*
X152425468Y-60960000D01*
X152405635Y-60733308D01*
X152389847Y-60674385D01*
X152348141Y-60518736D01*
X152348140Y-60518734D01*
X152346739Y-60513504D01*
X152250568Y-60307266D01*
X152120047Y-60120861D01*
X151959139Y-59959953D01*
X151888609Y-59910568D01*
X151777173Y-59832540D01*
X151777171Y-59832539D01*
X151772734Y-59829432D01*
X151714724Y-59802381D01*
X151662549Y-59756625D01*
X151643130Y-59690000D01*
X151662549Y-59623375D01*
X151714725Y-59577618D01*
X151772734Y-59550568D01*
X151959139Y-59420047D01*
X152120047Y-59259139D01*
X152250568Y-59072734D01*
X152346739Y-58866496D01*
X152405635Y-58646692D01*
X152425468Y-58420000D01*
X152405635Y-58193308D01*
X152389847Y-58134385D01*
X152348141Y-57978736D01*
X152348140Y-57978734D01*
X152346739Y-57973504D01*
X152250568Y-57767266D01*
X152120047Y-57580861D01*
X151959139Y-57419953D01*
X151897224Y-57376600D01*
X151777173Y-57292540D01*
X151777171Y-57292539D01*
X151772734Y-57289432D01*
X151714724Y-57262381D01*
X151662549Y-57216625D01*
X151643130Y-57150000D01*
X151662549Y-57083375D01*
X151714725Y-57037618D01*
X151772734Y-57010568D01*
X151959139Y-56880047D01*
X152120047Y-56719139D01*
X152250568Y-56532734D01*
X152346739Y-56326496D01*
X152405635Y-56106692D01*
X152425468Y-55880000D01*
X152405635Y-55653308D01*
X152389847Y-55594385D01*
X152348141Y-55438736D01*
X152348140Y-55438734D01*
X152346739Y-55433504D01*
X152250568Y-55227266D01*
X152120047Y-55040861D01*
X151959139Y-54879953D01*
X151897224Y-54836600D01*
X151777173Y-54752540D01*
X151777171Y-54752539D01*
X151772734Y-54749432D01*
X151714724Y-54722381D01*
X151662549Y-54676625D01*
X151643130Y-54610000D01*
X151662549Y-54543375D01*
X151714725Y-54497618D01*
X151772734Y-54470568D01*
X151959139Y-54340047D01*
X152120047Y-54179139D01*
X152250568Y-53992734D01*
X152346739Y-53786496D01*
X152405635Y-53566692D01*
X152425468Y-53340000D01*
X152405635Y-53113308D01*
X152366980Y-52969043D01*
X152348141Y-52898736D01*
X152348140Y-52898734D01*
X152346739Y-52893504D01*
X152250568Y-52687266D01*
X152120047Y-52500861D01*
X151959139Y-52339953D01*
X151897224Y-52296600D01*
X151777173Y-52212540D01*
X151777171Y-52212539D01*
X151772734Y-52209432D01*
X151566496Y-52113261D01*
X151561271Y-52111861D01*
X151561263Y-52111858D01*
X151351916Y-52055764D01*
X151351907Y-52055762D01*
X151346692Y-52054365D01*
X151341304Y-52053893D01*
X151341301Y-52053893D01*
X151125395Y-52035004D01*
X151120000Y-52034532D01*
X151114605Y-52035004D01*
X150898698Y-52053893D01*
X150898693Y-52053893D01*
X150893308Y-52054365D01*
X150888094Y-52055762D01*
X150888083Y-52055764D01*
X150678736Y-52111858D01*
X150678724Y-52111862D01*
X150673504Y-52113261D01*
X150668599Y-52115547D01*
X150668594Y-52115550D01*
X150472176Y-52207142D01*
X150472172Y-52207144D01*
X150467266Y-52209432D01*
X150462833Y-52212535D01*
X150462826Y-52212540D01*
X150285296Y-52336847D01*
X150285291Y-52336850D01*
X150280861Y-52339953D01*
X150277037Y-52343776D01*
X150277031Y-52343782D01*
X150123782Y-52497031D01*
X150123776Y-52497037D01*
X150119953Y-52500861D01*
X150116850Y-52505291D01*
X150116847Y-52505296D01*
X149992540Y-52682826D01*
X149992535Y-52682833D01*
X149989432Y-52687266D01*
X149987144Y-52692172D01*
X149987142Y-52692176D01*
X149895550Y-52888594D01*
X149895547Y-52888599D01*
X149893261Y-52893504D01*
X149891862Y-52898724D01*
X149891858Y-52898736D01*
X149835764Y-53108083D01*
X149835762Y-53108094D01*
X149834365Y-53113308D01*
X149833893Y-53118693D01*
X149833893Y-53118698D01*
X149823042Y-53242729D01*
X149814532Y-53340000D01*
X149815004Y-53345395D01*
X149823440Y-53441826D01*
X149834365Y-53566692D01*
X149835762Y-53571907D01*
X149835764Y-53571916D01*
X149891858Y-53781263D01*
X149891861Y-53781271D01*
X149893261Y-53786496D01*
X149989432Y-53992734D01*
X150119953Y-54179139D01*
X150280861Y-54340047D01*
X150467266Y-54470568D01*
X150472172Y-54472855D01*
X150472176Y-54472858D01*
X150525274Y-54497618D01*
X150577450Y-54543375D01*
X150596869Y-54610000D01*
X150577450Y-54676625D01*
X150525274Y-54722382D01*
X150472176Y-54747141D01*
X150472163Y-54747148D01*
X150467266Y-54749432D01*
X150462833Y-54752535D01*
X150462826Y-54752540D01*
X150285296Y-54876847D01*
X150285291Y-54876850D01*
X150280861Y-54879953D01*
X150277037Y-54883776D01*
X150277031Y-54883782D01*
X150123782Y-55037031D01*
X150123776Y-55037037D01*
X150119953Y-55040861D01*
X150116850Y-55045291D01*
X150116847Y-55045296D01*
X149992540Y-55222826D01*
X149992535Y-55222833D01*
X149989432Y-55227266D01*
X149987144Y-55232172D01*
X149987142Y-55232176D01*
X149895550Y-55428594D01*
X149895547Y-55428599D01*
X149893261Y-55433504D01*
X149891862Y-55438724D01*
X149891858Y-55438736D01*
X149835764Y-55648083D01*
X149835762Y-55648094D01*
X149834365Y-55653308D01*
X149833893Y-55658693D01*
X149833893Y-55658698D01*
X149820983Y-55806267D01*
X149814532Y-55880000D01*
X149815004Y-55885395D01*
X149829872Y-56055345D01*
X149834365Y-56106692D01*
X149835762Y-56111907D01*
X149835764Y-56111916D01*
X149891858Y-56321263D01*
X149891861Y-56321271D01*
X149893261Y-56326496D01*
X149989432Y-56532734D01*
X150119953Y-56719139D01*
X150280861Y-56880047D01*
X150467266Y-57010568D01*
X150472172Y-57012855D01*
X150472176Y-57012858D01*
X150525274Y-57037618D01*
X150577450Y-57083375D01*
X150596869Y-57150000D01*
X150577450Y-57216625D01*
X150525274Y-57262382D01*
X150472176Y-57287141D01*
X150472163Y-57287148D01*
X150467266Y-57289432D01*
X150462833Y-57292535D01*
X150462826Y-57292540D01*
X150285296Y-57416847D01*
X150285291Y-57416850D01*
X150280861Y-57419953D01*
X150277037Y-57423776D01*
X150277031Y-57423782D01*
X150123782Y-57577031D01*
X150123776Y-57577037D01*
X150119953Y-57580861D01*
X150116850Y-57585291D01*
X150116847Y-57585296D01*
X149992540Y-57762826D01*
X149992535Y-57762833D01*
X149989432Y-57767266D01*
X149987144Y-57772172D01*
X149987142Y-57772176D01*
X149895550Y-57968594D01*
X149895547Y-57968599D01*
X149893261Y-57973504D01*
X149891862Y-57978724D01*
X149891858Y-57978736D01*
X149835764Y-58188083D01*
X149835762Y-58188094D01*
X149834365Y-58193308D01*
X149833893Y-58198693D01*
X149833893Y-58198698D01*
X149820114Y-58356193D01*
X149814532Y-58420000D01*
X149815004Y-58425395D01*
X149829872Y-58595345D01*
X149834365Y-58646692D01*
X149835762Y-58651907D01*
X149835764Y-58651916D01*
X149891858Y-58861263D01*
X149891861Y-58861271D01*
X149893261Y-58866496D01*
X149989432Y-59072734D01*
X150119953Y-59259139D01*
X150280861Y-59420047D01*
X150467266Y-59550568D01*
X150472172Y-59552855D01*
X150472176Y-59552858D01*
X150525274Y-59577618D01*
X150577450Y-59623375D01*
X150596869Y-59690000D01*
X150577450Y-59756625D01*
X150525274Y-59802382D01*
X150472176Y-59827141D01*
X150472163Y-59827148D01*
X150467266Y-59829432D01*
X150462833Y-59832535D01*
X150462826Y-59832540D01*
X150285296Y-59956847D01*
X150285291Y-59956850D01*
X150280861Y-59959953D01*
X150277037Y-59963776D01*
X150277031Y-59963782D01*
X150123782Y-60117031D01*
X150123776Y-60117037D01*
X150119953Y-60120861D01*
X150116850Y-60125291D01*
X150116847Y-60125296D01*
X149992540Y-60302826D01*
X149992535Y-60302833D01*
X149989432Y-60307266D01*
X149987144Y-60312172D01*
X149987142Y-60312176D01*
X149895550Y-60508594D01*
X149895547Y-60508599D01*
X149893261Y-60513504D01*
X149891862Y-60518724D01*
X149891858Y-60518736D01*
X149835764Y-60728083D01*
X149835762Y-60728094D01*
X149834365Y-60733308D01*
X149833893Y-60738693D01*
X149833893Y-60738698D01*
X149820114Y-60896193D01*
X149814532Y-60960000D01*
X149815004Y-60965395D01*
X149829872Y-61135345D01*
X149834365Y-61186692D01*
X149835762Y-61191907D01*
X149835764Y-61191916D01*
X149891858Y-61401263D01*
X149891861Y-61401271D01*
X149893261Y-61406496D01*
X149989432Y-61612734D01*
X150119953Y-61799139D01*
X150280861Y-61960047D01*
X150467266Y-62090568D01*
X150472172Y-62092855D01*
X150472176Y-62092858D01*
X150525274Y-62117618D01*
X150577450Y-62163375D01*
X150596869Y-62230000D01*
X150577450Y-62296625D01*
X150525274Y-62342382D01*
X150472176Y-62367141D01*
X150472163Y-62367148D01*
X150467266Y-62369432D01*
X150462833Y-62372535D01*
X150462826Y-62372540D01*
X150285296Y-62496847D01*
X150285294Y-62496849D01*
X150280861Y-62499953D01*
X150277037Y-62503776D01*
X150277031Y-62503782D01*
X150123782Y-62657031D01*
X150123776Y-62657037D01*
X150119953Y-62660861D01*
X150116850Y-62665291D01*
X150116847Y-62665296D01*
X149992540Y-62842826D01*
X149992535Y-62842833D01*
X149989432Y-62847266D01*
X149987144Y-62852172D01*
X149987142Y-62852176D01*
X149895550Y-63048594D01*
X149895547Y-63048599D01*
X149893261Y-63053504D01*
X149891862Y-63058724D01*
X149891858Y-63058736D01*
X149835764Y-63268083D01*
X149835762Y-63268094D01*
X149834365Y-63273308D01*
X149833893Y-63278693D01*
X149833893Y-63278698D01*
X149820114Y-63436193D01*
X149814532Y-63500000D01*
X149815004Y-63505395D01*
X149833892Y-63721293D01*
X149834365Y-63726692D01*
X149835762Y-63731907D01*
X149835764Y-63731916D01*
X149891858Y-63941263D01*
X149891861Y-63941271D01*
X149893261Y-63946496D01*
X149989432Y-64152734D01*
X150119953Y-64339139D01*
X150280861Y-64500047D01*
X150467266Y-64630568D01*
X150472172Y-64632855D01*
X150472176Y-64632858D01*
X150525274Y-64657618D01*
X150577450Y-64703375D01*
X150596869Y-64770000D01*
X150577450Y-64836625D01*
X150525274Y-64882382D01*
X150472176Y-64907141D01*
X150472163Y-64907148D01*
X150467266Y-64909432D01*
X150462833Y-64912535D01*
X150462826Y-64912540D01*
X150285296Y-65036847D01*
X150285291Y-65036850D01*
X150280861Y-65039953D01*
X150277037Y-65043776D01*
X150277031Y-65043782D01*
X150123782Y-65197031D01*
X150123776Y-65197037D01*
X150119953Y-65200861D01*
X150116850Y-65205291D01*
X150116847Y-65205296D01*
X149992540Y-65382826D01*
X149992535Y-65382833D01*
X149989432Y-65387266D01*
X149987144Y-65392172D01*
X149987142Y-65392176D01*
X149895550Y-65588594D01*
X149895547Y-65588599D01*
X149893261Y-65593504D01*
X149891862Y-65598724D01*
X149891858Y-65598736D01*
X149835764Y-65808083D01*
X149835762Y-65808094D01*
X149834365Y-65813308D01*
X149833893Y-65818693D01*
X149833893Y-65818698D01*
X149823575Y-65936640D01*
X149814532Y-66040000D01*
X149815004Y-66045395D01*
X149829872Y-66215345D01*
X149834365Y-66266692D01*
X149835762Y-66271907D01*
X149835764Y-66271916D01*
X149891858Y-66481263D01*
X149891861Y-66481271D01*
X149893261Y-66486496D01*
X149989432Y-66692734D01*
X150119953Y-66879139D01*
X150280861Y-67040047D01*
X150467266Y-67170568D01*
X150472172Y-67172855D01*
X150472176Y-67172858D01*
X150525274Y-67197618D01*
X150577450Y-67243375D01*
X150596869Y-67310000D01*
X150577450Y-67376625D01*
X150525274Y-67422382D01*
X150472176Y-67447141D01*
X150472163Y-67447148D01*
X150467266Y-67449432D01*
X150462833Y-67452535D01*
X150462826Y-67452540D01*
X150285296Y-67576847D01*
X150285291Y-67576850D01*
X150280861Y-67579953D01*
X150277037Y-67583776D01*
X150277031Y-67583782D01*
X150123782Y-67737031D01*
X150123776Y-67737037D01*
X150119953Y-67740861D01*
X150116850Y-67745291D01*
X150116847Y-67745296D01*
X149992540Y-67922826D01*
X149992535Y-67922833D01*
X149989432Y-67927266D01*
X149987144Y-67932172D01*
X149987142Y-67932176D01*
X149895550Y-68128594D01*
X149895547Y-68128599D01*
X149893261Y-68133504D01*
X149891862Y-68138724D01*
X149891858Y-68138736D01*
X149835764Y-68348083D01*
X149835762Y-68348094D01*
X149834365Y-68353308D01*
X149833893Y-68358693D01*
X149833893Y-68358698D01*
X149819440Y-68523897D01*
X149814532Y-68580000D01*
X149815004Y-68585395D01*
X149815004Y-68585397D01*
X149818390Y-68624103D01*
X149809004Y-68683361D01*
X149772897Y-68731276D01*
X149718522Y-68756631D01*
X149658608Y-68753491D01*
X149607181Y-68722590D01*
X149251819Y-68367228D01*
X149224939Y-68327000D01*
X149215500Y-68279547D01*
X149215500Y-66117771D01*
X149216020Y-66106718D01*
X149217672Y-66099332D01*
X149215561Y-66032144D01*
X149215500Y-66028250D01*
X149215500Y-66004545D01*
X149215500Y-66000650D01*
X149214998Y-65996681D01*
X149214080Y-65985024D01*
X149212954Y-65949172D01*
X149212709Y-65941372D01*
X149207120Y-65922139D01*
X149203174Y-65903082D01*
X149203086Y-65902382D01*
X149200664Y-65883208D01*
X149184581Y-65842587D01*
X149180799Y-65831540D01*
X149170793Y-65797101D01*
X149168617Y-65789610D01*
X149164644Y-65782892D01*
X149158422Y-65772370D01*
X149149860Y-65754892D01*
X149145360Y-65743527D01*
X149145359Y-65743526D01*
X149142486Y-65736268D01*
X149116812Y-65700931D01*
X149110409Y-65691184D01*
X149088170Y-65653579D01*
X149074005Y-65639414D01*
X149061368Y-65624618D01*
X149054184Y-65614729D01*
X149054178Y-65614723D01*
X149049594Y-65608413D01*
X149037896Y-65598736D01*
X149015946Y-65580577D01*
X149007305Y-65572714D01*
X147349413Y-63914822D01*
X147317319Y-63859234D01*
X147317319Y-63795047D01*
X147334233Y-63731924D01*
X147334232Y-63731924D01*
X147335635Y-63726692D01*
X147355468Y-63500000D01*
X147335635Y-63273308D01*
X147319847Y-63214385D01*
X147278141Y-63058736D01*
X147278140Y-63058734D01*
X147276739Y-63053504D01*
X147180568Y-62847266D01*
X147050047Y-62660861D01*
X146889139Y-62499953D01*
X146864535Y-62482725D01*
X146825398Y-62437883D01*
X146811665Y-62379969D01*
X146826499Y-62322328D01*
X146866485Y-62278239D01*
X146922406Y-62257861D01*
X146957483Y-62254091D01*
X147092331Y-62203796D01*
X147207546Y-62117546D01*
X147293796Y-62002331D01*
X147344091Y-61867483D01*
X147350500Y-61807873D01*
X147350499Y-60112128D01*
X147344091Y-60052517D01*
X147293796Y-59917669D01*
X147207546Y-59802454D01*
X147146326Y-59756625D01*
X147099431Y-59721519D01*
X147099430Y-59721518D01*
X147092331Y-59716204D01*
X147010001Y-59685497D01*
X146964752Y-59668620D01*
X146964750Y-59668619D01*
X146957483Y-59665909D01*
X146949770Y-59665079D01*
X146949767Y-59665079D01*
X146901180Y-59659855D01*
X146901169Y-59659854D01*
X146897873Y-59659500D01*
X146894550Y-59659500D01*
X145205439Y-59659500D01*
X145205420Y-59659500D01*
X145202128Y-59659501D01*
X145198850Y-59659853D01*
X145198838Y-59659854D01*
X145150231Y-59665079D01*
X145150225Y-59665080D01*
X145142517Y-59665909D01*
X145135252Y-59668618D01*
X145135246Y-59668620D01*
X145015980Y-59713104D01*
X145015978Y-59713104D01*
X145007669Y-59716204D01*
X145000572Y-59721516D01*
X145000568Y-59721519D01*
X144899550Y-59797141D01*
X144899546Y-59797144D01*
X144892454Y-59802454D01*
X144887144Y-59809546D01*
X144887141Y-59809550D01*
X144811519Y-59910568D01*
X144811516Y-59910572D01*
X144806204Y-59917669D01*
X144803104Y-59925978D01*
X144803104Y-59925980D01*
X144758620Y-60045247D01*
X144758619Y-60045250D01*
X144755909Y-60052517D01*
X144755079Y-60060227D01*
X144755079Y-60060232D01*
X144749855Y-60108819D01*
X144749854Y-60108831D01*
X144749500Y-60112127D01*
X144749500Y-60115448D01*
X144749500Y-60115449D01*
X144749500Y-61804560D01*
X144749500Y-61804578D01*
X144749501Y-61807872D01*
X144749853Y-61811150D01*
X144749854Y-61811161D01*
X144755079Y-61859768D01*
X144755080Y-61859773D01*
X144755909Y-61867483D01*
X144758619Y-61874749D01*
X144758620Y-61874753D01*
X144787692Y-61952697D01*
X144806204Y-62002331D01*
X144811518Y-62009430D01*
X144811519Y-62009431D01*
X144873972Y-62092858D01*
X144892454Y-62117546D01*
X145007669Y-62203796D01*
X145142517Y-62254091D01*
X145177599Y-62257862D01*
X145233516Y-62278240D01*
X145273500Y-62322328D01*
X145288334Y-62379969D01*
X145274601Y-62437882D01*
X145235464Y-62482725D01*
X145210861Y-62499953D01*
X145207037Y-62503776D01*
X145207031Y-62503782D01*
X145053782Y-62657031D01*
X145053776Y-62657037D01*
X145049953Y-62660861D01*
X145046850Y-62665291D01*
X145046847Y-62665296D01*
X144922540Y-62842826D01*
X144922535Y-62842833D01*
X144919432Y-62847266D01*
X144917144Y-62852172D01*
X144917142Y-62852176D01*
X144825550Y-63048594D01*
X144825547Y-63048599D01*
X144823261Y-63053504D01*
X144821862Y-63058724D01*
X144821858Y-63058736D01*
X144765764Y-63268083D01*
X144765762Y-63268094D01*
X144764365Y-63273308D01*
X144763893Y-63278693D01*
X144763893Y-63278698D01*
X144750114Y-63436193D01*
X144744532Y-63500000D01*
X144745004Y-63505395D01*
X144763892Y-63721293D01*
X144764365Y-63726692D01*
X144765762Y-63731907D01*
X144765764Y-63731916D01*
X144821858Y-63941263D01*
X144821861Y-63941271D01*
X144823261Y-63946496D01*
X144919432Y-64152734D01*
X145049953Y-64339139D01*
X145210861Y-64500047D01*
X145397266Y-64630568D01*
X145402172Y-64632855D01*
X145402176Y-64632858D01*
X145455274Y-64657618D01*
X145507450Y-64703375D01*
X145526869Y-64770000D01*
X145507450Y-64836625D01*
X145455274Y-64882382D01*
X145402176Y-64907141D01*
X145402163Y-64907148D01*
X145397266Y-64909432D01*
X145392833Y-64912535D01*
X145392826Y-64912540D01*
X145215296Y-65036847D01*
X145215291Y-65036850D01*
X145210861Y-65039953D01*
X145207037Y-65043776D01*
X145207031Y-65043782D01*
X145053782Y-65197031D01*
X145053776Y-65197037D01*
X145049953Y-65200861D01*
X145046850Y-65205291D01*
X145046847Y-65205296D01*
X144922540Y-65382826D01*
X144922535Y-65382833D01*
X144919432Y-65387266D01*
X144917144Y-65392172D01*
X144917142Y-65392176D01*
X144825550Y-65588594D01*
X144825547Y-65588599D01*
X144823261Y-65593504D01*
X144821862Y-65598724D01*
X144821858Y-65598736D01*
X144765764Y-65808083D01*
X144765762Y-65808094D01*
X144764365Y-65813308D01*
X144763893Y-65818693D01*
X144763893Y-65818698D01*
X144753575Y-65936640D01*
X144744532Y-66040000D01*
X144745004Y-66045395D01*
X144759872Y-66215345D01*
X144764365Y-66266692D01*
X144765762Y-66271907D01*
X144765764Y-66271916D01*
X144821858Y-66481263D01*
X144821861Y-66481271D01*
X144823261Y-66486496D01*
X144919432Y-66692734D01*
X145049953Y-66879139D01*
X145210861Y-67040047D01*
X145397266Y-67170568D01*
X145402172Y-67172855D01*
X145402176Y-67172858D01*
X145455274Y-67197618D01*
X145507450Y-67243375D01*
X145526869Y-67310000D01*
X145507450Y-67376625D01*
X145455274Y-67422382D01*
X145402176Y-67447141D01*
X145402163Y-67447148D01*
X145397266Y-67449432D01*
X145392833Y-67452535D01*
X145392826Y-67452540D01*
X145215296Y-67576847D01*
X145215291Y-67576850D01*
X145210861Y-67579953D01*
X145207037Y-67583776D01*
X145207031Y-67583782D01*
X145053782Y-67737031D01*
X145053776Y-67737037D01*
X145049953Y-67740861D01*
X145046850Y-67745291D01*
X145046847Y-67745296D01*
X144922540Y-67922826D01*
X144922535Y-67922833D01*
X144919432Y-67927266D01*
X144917144Y-67932172D01*
X144917142Y-67932176D01*
X144825550Y-68128594D01*
X144825547Y-68128599D01*
X144823261Y-68133504D01*
X144821862Y-68138724D01*
X144821858Y-68138736D01*
X144765764Y-68348083D01*
X144765762Y-68348094D01*
X144764365Y-68353308D01*
X144763893Y-68358693D01*
X144763893Y-68358698D01*
X144749440Y-68523897D01*
X144744532Y-68580000D01*
X98600643Y-68580000D01*
X98541319Y-68538461D01*
X98447173Y-68472540D01*
X98447171Y-68472539D01*
X98442734Y-68469432D01*
X98384724Y-68442381D01*
X98332549Y-68396625D01*
X98313130Y-68330000D01*
X98332549Y-68263375D01*
X98384725Y-68217618D01*
X98442734Y-68190568D01*
X98629139Y-68060047D01*
X98790047Y-67899139D01*
X98920568Y-67712734D01*
X99016739Y-67506496D01*
X99075635Y-67286692D01*
X99095468Y-67060000D01*
X99075635Y-66833308D01*
X99016739Y-66613504D01*
X98920568Y-66407266D01*
X98790047Y-66220861D01*
X98629139Y-66059953D01*
X98442734Y-65929432D01*
X98384724Y-65902381D01*
X98332549Y-65856625D01*
X98313130Y-65790000D01*
X98332549Y-65723375D01*
X98384725Y-65677618D01*
X98442734Y-65650568D01*
X98629139Y-65520047D01*
X98790047Y-65359139D01*
X98920568Y-65172734D01*
X99016739Y-64966496D01*
X99075635Y-64746692D01*
X99095468Y-64520000D01*
X99075635Y-64293308D01*
X99016739Y-64073504D01*
X98920568Y-63867266D01*
X98790047Y-63680861D01*
X98629139Y-63519953D01*
X98442734Y-63389432D01*
X98437827Y-63387143D01*
X98437817Y-63387138D01*
X98384724Y-63362380D01*
X98332549Y-63316623D01*
X98313130Y-63249997D01*
X98332550Y-63183372D01*
X98384723Y-63137618D01*
X98442734Y-63110568D01*
X98629139Y-62980047D01*
X98790047Y-62819139D01*
X98920568Y-62632734D01*
X99016739Y-62426496D01*
X99075635Y-62206692D01*
X99095468Y-61980000D01*
X99075635Y-61753308D01*
X99016739Y-61533504D01*
X98920568Y-61327266D01*
X98790047Y-61140861D01*
X98629139Y-60979953D01*
X98442734Y-60849432D01*
X98384724Y-60822381D01*
X98332549Y-60776625D01*
X98313130Y-60710000D01*
X98332549Y-60643375D01*
X98384725Y-60597618D01*
X98442734Y-60570568D01*
X98629139Y-60440047D01*
X98790047Y-60279139D01*
X98920568Y-60092734D01*
X99016739Y-59886496D01*
X99075635Y-59666692D01*
X99095468Y-59440000D01*
X99075635Y-59213308D01*
X99016739Y-58993504D01*
X98920568Y-58787266D01*
X98790047Y-58600861D01*
X98629139Y-58439953D01*
X98442734Y-58309432D01*
X98384724Y-58282381D01*
X98332549Y-58236625D01*
X98313130Y-58170000D01*
X98332549Y-58103375D01*
X98384725Y-58057618D01*
X98442734Y-58030568D01*
X98629139Y-57900047D01*
X98790047Y-57739139D01*
X98920568Y-57552734D01*
X99016739Y-57346496D01*
X99075635Y-57126692D01*
X99095468Y-56900000D01*
X99075635Y-56673308D01*
X99016739Y-56453504D01*
X98920568Y-56247266D01*
X98790047Y-56060861D01*
X98629139Y-55899953D01*
X98442734Y-55769432D01*
X98384724Y-55742381D01*
X98332549Y-55696625D01*
X98313130Y-55630000D01*
X98332549Y-55563375D01*
X98384725Y-55517618D01*
X98442734Y-55490568D01*
X98629139Y-55360047D01*
X98790047Y-55199139D01*
X98920568Y-55012734D01*
X99016739Y-54806496D01*
X99075635Y-54586692D01*
X99095468Y-54360000D01*
X99075635Y-54133308D01*
X99057859Y-54066967D01*
X99018141Y-53918736D01*
X99018140Y-53918734D01*
X99016739Y-53913504D01*
X98920568Y-53707266D01*
X98790047Y-53520861D01*
X98629139Y-53359953D01*
X98469605Y-53248247D01*
X98447173Y-53232540D01*
X98447171Y-53232539D01*
X98442734Y-53229432D01*
X98384724Y-53202381D01*
X98332549Y-53156625D01*
X98313130Y-53090000D01*
X98332549Y-53023375D01*
X98384725Y-52977618D01*
X98442734Y-52950568D01*
X98629139Y-52820047D01*
X98790047Y-52659139D01*
X98920568Y-52472734D01*
X99016739Y-52266496D01*
X99075635Y-52046692D01*
X99095468Y-51820000D01*
X99075635Y-51593308D01*
X99016739Y-51373504D01*
X98920568Y-51167266D01*
X98790047Y-50980861D01*
X98629139Y-50819953D01*
X98442734Y-50689432D01*
X98236496Y-50593261D01*
X98231271Y-50591861D01*
X98231263Y-50591858D01*
X98021916Y-50535764D01*
X98021907Y-50535762D01*
X98016692Y-50534365D01*
X98011304Y-50533893D01*
X98011301Y-50533893D01*
X97795395Y-50515004D01*
X97790000Y-50514532D01*
X97784605Y-50515004D01*
X97568698Y-50533893D01*
X97568693Y-50533893D01*
X97563308Y-50534365D01*
X97558094Y-50535762D01*
X97558083Y-50535764D01*
X97348736Y-50591858D01*
X97348724Y-50591862D01*
X97343504Y-50593261D01*
X97338599Y-50595547D01*
X97338594Y-50595550D01*
X97142176Y-50687142D01*
X97142172Y-50687144D01*
X97137266Y-50689432D01*
X97132833Y-50692535D01*
X97132826Y-50692540D01*
X96955296Y-50816847D01*
X96955291Y-50816850D01*
X96950861Y-50819953D01*
X96947037Y-50823776D01*
X96947031Y-50823782D01*
X96793782Y-50977031D01*
X96793776Y-50977037D01*
X96789953Y-50980861D01*
X96786850Y-50985291D01*
X96786847Y-50985296D01*
X96662540Y-51162826D01*
X96662535Y-51162833D01*
X96659432Y-51167266D01*
X96657144Y-51172172D01*
X96657142Y-51172176D01*
X96565550Y-51368594D01*
X96565547Y-51368599D01*
X96563261Y-51373504D01*
X96561862Y-51378724D01*
X96561858Y-51378736D01*
X96505764Y-51588083D01*
X96505762Y-51588094D01*
X96504365Y-51593308D01*
X96484532Y-51820000D01*
X96504365Y-52046692D01*
X96505762Y-52051907D01*
X96505764Y-52051916D01*
X96561858Y-52261263D01*
X96561861Y-52261271D01*
X96563261Y-52266496D01*
X96659432Y-52472734D01*
X96662539Y-52477171D01*
X96662540Y-52477173D01*
X96746600Y-52597224D01*
X96789953Y-52659139D01*
X96950861Y-52820047D01*
X97137266Y-52950568D01*
X97142172Y-52952855D01*
X97142176Y-52952858D01*
X97195274Y-52977618D01*
X97247450Y-53023375D01*
X97266869Y-53090000D01*
X97247450Y-53156625D01*
X97195274Y-53202382D01*
X97142176Y-53227141D01*
X97142163Y-53227148D01*
X97137266Y-53229432D01*
X97132833Y-53232535D01*
X97132826Y-53232540D01*
X96955296Y-53356847D01*
X96955291Y-53356850D01*
X96950861Y-53359953D01*
X96947037Y-53363776D01*
X96947031Y-53363782D01*
X96793782Y-53517031D01*
X96793776Y-53517037D01*
X96789953Y-53520861D01*
X96786850Y-53525291D01*
X96786847Y-53525296D01*
X96662540Y-53702826D01*
X96662535Y-53702833D01*
X96659432Y-53707266D01*
X96657144Y-53712172D01*
X96657142Y-53712176D01*
X96565550Y-53908594D01*
X96565547Y-53908599D01*
X96563261Y-53913504D01*
X96561862Y-53918724D01*
X96561858Y-53918736D01*
X96505764Y-54128083D01*
X96505762Y-54128094D01*
X96504365Y-54133308D01*
X96503893Y-54138693D01*
X96503893Y-54138698D01*
X96487372Y-54327534D01*
X96484532Y-54360000D01*
X96485004Y-54365395D01*
X96496348Y-54495064D01*
X96504365Y-54586692D01*
X96505762Y-54591907D01*
X96505764Y-54591916D01*
X96561858Y-54801263D01*
X96561861Y-54801271D01*
X96563261Y-54806496D01*
X96659432Y-55012734D01*
X96662539Y-55017171D01*
X96662540Y-55017173D01*
X96682232Y-55045296D01*
X96789953Y-55199139D01*
X96950861Y-55360047D01*
X97137266Y-55490568D01*
X97142172Y-55492855D01*
X97142176Y-55492858D01*
X97195274Y-55517618D01*
X97247450Y-55563375D01*
X97266869Y-55630000D01*
X97247450Y-55696625D01*
X97195274Y-55742382D01*
X97142176Y-55767141D01*
X97142163Y-55767148D01*
X97137266Y-55769432D01*
X97132833Y-55772535D01*
X97132826Y-55772540D01*
X96955296Y-55896847D01*
X96955291Y-55896850D01*
X96950861Y-55899953D01*
X96947037Y-55903776D01*
X96947031Y-55903782D01*
X96793782Y-56057031D01*
X96793776Y-56057037D01*
X96789953Y-56060861D01*
X96786850Y-56065291D01*
X96786847Y-56065296D01*
X96662540Y-56242826D01*
X96662535Y-56242833D01*
X96659432Y-56247266D01*
X96657144Y-56252172D01*
X96657142Y-56252176D01*
X96565550Y-56448594D01*
X96565547Y-56448599D01*
X96563261Y-56453504D01*
X96561862Y-56458724D01*
X96561858Y-56458736D01*
X96505764Y-56668083D01*
X96505762Y-56668094D01*
X96504365Y-56673308D01*
X96503893Y-56678693D01*
X96503893Y-56678698D01*
X96487769Y-56863002D01*
X96484532Y-56900000D01*
X96485004Y-56905395D01*
X96501897Y-57098491D01*
X96504365Y-57126692D01*
X96505762Y-57131907D01*
X96505764Y-57131916D01*
X96561858Y-57341263D01*
X96561861Y-57341271D01*
X96563261Y-57346496D01*
X96659432Y-57552734D01*
X96662539Y-57557171D01*
X96662540Y-57557173D01*
X96682232Y-57585296D01*
X96789953Y-57739139D01*
X96950861Y-57900047D01*
X97137266Y-58030568D01*
X97142172Y-58032855D01*
X97142176Y-58032858D01*
X97195274Y-58057618D01*
X97247450Y-58103375D01*
X97266869Y-58170000D01*
X97247450Y-58236625D01*
X97195274Y-58282382D01*
X97142176Y-58307141D01*
X97142163Y-58307148D01*
X97137266Y-58309432D01*
X97132833Y-58312535D01*
X97132826Y-58312540D01*
X96955296Y-58436847D01*
X96955291Y-58436850D01*
X96950861Y-58439953D01*
X96947037Y-58443776D01*
X96947031Y-58443782D01*
X96793782Y-58597031D01*
X96793776Y-58597037D01*
X96789953Y-58600861D01*
X96786850Y-58605291D01*
X96786847Y-58605296D01*
X96662540Y-58782826D01*
X96662535Y-58782833D01*
X96659432Y-58787266D01*
X96657144Y-58792172D01*
X96657142Y-58792176D01*
X96565550Y-58988594D01*
X96565547Y-58988599D01*
X96563261Y-58993504D01*
X96561862Y-58998724D01*
X96561858Y-58998736D01*
X96505764Y-59208083D01*
X96505762Y-59208094D01*
X96504365Y-59213308D01*
X96484532Y-59440000D01*
X96485004Y-59445395D01*
X96503766Y-59659855D01*
X96504365Y-59666692D01*
X96505762Y-59671907D01*
X96505764Y-59671916D01*
X96561858Y-59881263D01*
X96561861Y-59881271D01*
X96563261Y-59886496D01*
X96659432Y-60092734D01*
X96662539Y-60097171D01*
X96662540Y-60097173D01*
X96682232Y-60125296D01*
X96789953Y-60279139D01*
X96950861Y-60440047D01*
X97137266Y-60570568D01*
X97142172Y-60572855D01*
X97142176Y-60572858D01*
X97195274Y-60597618D01*
X97247450Y-60643375D01*
X97266869Y-60710000D01*
X97247450Y-60776625D01*
X97195274Y-60822382D01*
X97142176Y-60847141D01*
X97142163Y-60847148D01*
X97137266Y-60849432D01*
X97132833Y-60852535D01*
X97132826Y-60852540D01*
X96955296Y-60976847D01*
X96955291Y-60976850D01*
X96950861Y-60979953D01*
X96947037Y-60983776D01*
X96947031Y-60983782D01*
X96793782Y-61137031D01*
X96793776Y-61137037D01*
X96789953Y-61140861D01*
X96786850Y-61145291D01*
X96786847Y-61145296D01*
X96662540Y-61322826D01*
X96662535Y-61322833D01*
X96659432Y-61327266D01*
X96657144Y-61332172D01*
X96657142Y-61332176D01*
X96565550Y-61528594D01*
X96565547Y-61528599D01*
X96563261Y-61533504D01*
X96561862Y-61538724D01*
X96561858Y-61538736D01*
X96505764Y-61748083D01*
X96505762Y-61748094D01*
X96504365Y-61753308D01*
X96503893Y-61758693D01*
X96503893Y-61758698D01*
X96499302Y-61811180D01*
X96484532Y-61980000D01*
X96485004Y-61985395D01*
X96503646Y-62198480D01*
X96504365Y-62206692D01*
X96505762Y-62211907D01*
X96505764Y-62211916D01*
X96561858Y-62421263D01*
X96561861Y-62421271D01*
X96563261Y-62426496D01*
X96659432Y-62632734D01*
X96662539Y-62637171D01*
X96662540Y-62637173D01*
X96682232Y-62665296D01*
X96789953Y-62819139D01*
X96950861Y-62980047D01*
X97137266Y-63110568D01*
X97195276Y-63137618D01*
X97247449Y-63183373D01*
X97266869Y-63249997D01*
X97247451Y-63316622D01*
X97195276Y-63362380D01*
X97142178Y-63387141D01*
X97142173Y-63387143D01*
X97137266Y-63389432D01*
X97132833Y-63392535D01*
X97132826Y-63392540D01*
X96955296Y-63516847D01*
X96955291Y-63516850D01*
X96950861Y-63519953D01*
X96947037Y-63523776D01*
X96947031Y-63523782D01*
X96793782Y-63677031D01*
X96793776Y-63677037D01*
X96789953Y-63680861D01*
X96786850Y-63685291D01*
X96786847Y-63685296D01*
X96662540Y-63862826D01*
X96662535Y-63862833D01*
X96659432Y-63867266D01*
X96657144Y-63872172D01*
X96657142Y-63872176D01*
X96565550Y-64068594D01*
X96565547Y-64068599D01*
X96563261Y-64073504D01*
X96561862Y-64078724D01*
X96561858Y-64078736D01*
X96505764Y-64288083D01*
X96505762Y-64288094D01*
X96504365Y-64293308D01*
X96484532Y-64520000D01*
X96485004Y-64525395D01*
X96500782Y-64705746D01*
X96504365Y-64746692D01*
X96505762Y-64751907D01*
X96505764Y-64751916D01*
X96561858Y-64961263D01*
X96561861Y-64961271D01*
X96563261Y-64966496D01*
X96659432Y-65172734D01*
X96662539Y-65177171D01*
X96662540Y-65177173D01*
X96682232Y-65205296D01*
X96789953Y-65359139D01*
X96950861Y-65520047D01*
X97137266Y-65650568D01*
X97142172Y-65652855D01*
X97142176Y-65652858D01*
X97195274Y-65677618D01*
X97247450Y-65723375D01*
X97266869Y-65790000D01*
X97247450Y-65856625D01*
X97195274Y-65902382D01*
X97142176Y-65927141D01*
X97142163Y-65927148D01*
X97137266Y-65929432D01*
X97132833Y-65932535D01*
X97132826Y-65932540D01*
X96955296Y-66056847D01*
X96955291Y-66056850D01*
X96950861Y-66059953D01*
X96947037Y-66063776D01*
X96947031Y-66063782D01*
X96793782Y-66217031D01*
X96793776Y-66217037D01*
X96789953Y-66220861D01*
X96786850Y-66225291D01*
X96786847Y-66225296D01*
X96662540Y-66402826D01*
X96662535Y-66402833D01*
X96659432Y-66407266D01*
X96657144Y-66412172D01*
X96657142Y-66412176D01*
X96565550Y-66608594D01*
X96565547Y-66608599D01*
X96563261Y-66613504D01*
X96561862Y-66618724D01*
X96561858Y-66618736D01*
X96505764Y-66828083D01*
X96505762Y-66828094D01*
X96504365Y-66833308D01*
X96484532Y-67060000D01*
X96485004Y-67065395D01*
X96503480Y-67276586D01*
X96504365Y-67286692D01*
X96505762Y-67291907D01*
X96505764Y-67291916D01*
X96561858Y-67501263D01*
X96561861Y-67501271D01*
X96563261Y-67506496D01*
X96659432Y-67712734D01*
X96662539Y-67717171D01*
X96662540Y-67717173D01*
X96682232Y-67745296D01*
X96789953Y-67899139D01*
X96950861Y-68060047D01*
X97137266Y-68190568D01*
X97142172Y-68192855D01*
X97142176Y-68192858D01*
X97195274Y-68217618D01*
X97247450Y-68263375D01*
X97266869Y-68330000D01*
X97247450Y-68396625D01*
X97195274Y-68442382D01*
X97142176Y-68467141D01*
X97142163Y-68467148D01*
X97137266Y-68469432D01*
X97132833Y-68472535D01*
X97132826Y-68472540D01*
X96955296Y-68596847D01*
X96955291Y-68596850D01*
X96950861Y-68599953D01*
X96947037Y-68603776D01*
X96947031Y-68603782D01*
X96793782Y-68757031D01*
X96793776Y-68757037D01*
X96789953Y-68760861D01*
X96786850Y-68765291D01*
X96786847Y-68765296D01*
X96662540Y-68942826D01*
X96662535Y-68942833D01*
X96659432Y-68947266D01*
X96657144Y-68952172D01*
X96657142Y-68952176D01*
X96565550Y-69148594D01*
X96565547Y-69148599D01*
X96563261Y-69153504D01*
X96561862Y-69158724D01*
X96561858Y-69158736D01*
X96505764Y-69368083D01*
X96505762Y-69368094D01*
X96504365Y-69373308D01*
X96503893Y-69378693D01*
X96503893Y-69378698D01*
X96486039Y-69582773D01*
X96484532Y-69600000D01*
X96485004Y-69605395D01*
X96503735Y-69819500D01*
X96504365Y-69826692D01*
X96505762Y-69831907D01*
X96505764Y-69831916D01*
X96561858Y-70041263D01*
X96561861Y-70041271D01*
X96563261Y-70046496D01*
X96659432Y-70252734D01*
X96662539Y-70257171D01*
X96662540Y-70257173D01*
X96682232Y-70285296D01*
X96789953Y-70439139D01*
X96950861Y-70600047D01*
X97137266Y-70730568D01*
X97142172Y-70732855D01*
X97142176Y-70732858D01*
X97195274Y-70757618D01*
X97247450Y-70803375D01*
X97266869Y-70870000D01*
X97247450Y-70936625D01*
X97195274Y-70982382D01*
X97142176Y-71007141D01*
X97142163Y-71007148D01*
X97137266Y-71009432D01*
X97132833Y-71012535D01*
X97132826Y-71012540D01*
X96955296Y-71136847D01*
X96955291Y-71136850D01*
X96950861Y-71139953D01*
X96947037Y-71143776D01*
X96947031Y-71143782D01*
X96793782Y-71297031D01*
X96793776Y-71297037D01*
X96789953Y-71300861D01*
X96786850Y-71305291D01*
X96786847Y-71305296D01*
X96662540Y-71482826D01*
X96662535Y-71482833D01*
X96659432Y-71487266D01*
X96657144Y-71492172D01*
X96657142Y-71492176D01*
X96565550Y-71688594D01*
X96565547Y-71688599D01*
X96563261Y-71693504D01*
X96561862Y-71698724D01*
X96561858Y-71698736D01*
X96505764Y-71908083D01*
X96505762Y-71908094D01*
X96504365Y-71913308D01*
X96503893Y-71918693D01*
X96503893Y-71918698D01*
X96495051Y-72019767D01*
X96484532Y-72140000D01*
X96485004Y-72145395D01*
X96503646Y-72358480D01*
X96504365Y-72366692D01*
X96505762Y-72371907D01*
X96505764Y-72371916D01*
X96561858Y-72581263D01*
X96561861Y-72581271D01*
X96563261Y-72586496D01*
X96659432Y-72792734D01*
X96662539Y-72797171D01*
X96662540Y-72797173D01*
X96682232Y-72825296D01*
X96789953Y-72979139D01*
X96950861Y-73140047D01*
X97137266Y-73270568D01*
X97142172Y-73272855D01*
X97142176Y-73272858D01*
X97195274Y-73297618D01*
X97247450Y-73343375D01*
X97266869Y-73410000D01*
X97247450Y-73476625D01*
X97195274Y-73522382D01*
X97142176Y-73547141D01*
X97142163Y-73547148D01*
X97137266Y-73549432D01*
X97132833Y-73552535D01*
X97132826Y-73552540D01*
X96955296Y-73676847D01*
X96955291Y-73676850D01*
X96950861Y-73679953D01*
X96947037Y-73683776D01*
X96947031Y-73683782D01*
X96793782Y-73837031D01*
X96793776Y-73837037D01*
X96789953Y-73840861D01*
X96786850Y-73845291D01*
X96786847Y-73845296D01*
X96662540Y-74022826D01*
X96662535Y-74022833D01*
X96659432Y-74027266D01*
X96657144Y-74032172D01*
X96657142Y-74032176D01*
X96565550Y-74228594D01*
X96565547Y-74228599D01*
X96563261Y-74233504D01*
X96561862Y-74238724D01*
X96561858Y-74238736D01*
X96505764Y-74448083D01*
X96505762Y-74448094D01*
X96504365Y-74453308D01*
X96503893Y-74458693D01*
X96503893Y-74458698D01*
X96491640Y-74598752D01*
X96484532Y-74680000D01*
X88900500Y-74680000D01*
X88900500Y-48327765D01*
X89585788Y-48327765D01*
X89586282Y-48332262D01*
X89586283Y-48332267D01*
X89614917Y-48592506D01*
X89614918Y-48592513D01*
X89615414Y-48597018D01*
X89616559Y-48601398D01*
X89616561Y-48601408D01*
X89658924Y-48763446D01*
X89683928Y-48859088D01*
X89685693Y-48863242D01*
X89685696Y-48863250D01*
X89788099Y-49104223D01*
X89789870Y-49108390D01*
X89792226Y-49112251D01*
X89792229Y-49112256D01*
X89928618Y-49335737D01*
X89930982Y-49339610D01*
X90104255Y-49547820D01*
X90107630Y-49550844D01*
X90107631Y-49550845D01*
X90212330Y-49644656D01*
X90305998Y-49728582D01*
X90531910Y-49878044D01*
X90777176Y-49993020D01*
X91036569Y-50071060D01*
X91304561Y-50110500D01*
X91505369Y-50110500D01*
X91507631Y-50110500D01*
X91710156Y-50095677D01*
X91974553Y-50036780D01*
X92227558Y-49940014D01*
X92463777Y-49807441D01*
X92678177Y-49641888D01*
X92866186Y-49446881D01*
X93023799Y-49226579D01*
X93147656Y-48985675D01*
X93235118Y-48729305D01*
X93284319Y-48462933D01*
X93294212Y-48192235D01*
X93264586Y-47922982D01*
X93196072Y-47660912D01*
X93090130Y-47411610D01*
X92949018Y-47180390D01*
X92775745Y-46972180D01*
X92670759Y-46878112D01*
X92577382Y-46794446D01*
X92577378Y-46794442D01*
X92574002Y-46791418D01*
X92348090Y-46641956D01*
X92343996Y-46640036D01*
X92343991Y-46640034D01*
X92106929Y-46528904D01*
X92106925Y-46528902D01*
X92102824Y-46526980D01*
X92098477Y-46525672D01*
X92098474Y-46525671D01*
X91847772Y-46450246D01*
X91847771Y-46450245D01*
X91843431Y-46448940D01*
X91838957Y-46448281D01*
X91838950Y-46448280D01*
X91579913Y-46410158D01*
X91579907Y-46410157D01*
X91575439Y-46409500D01*
X91372369Y-46409500D01*
X91370120Y-46409664D01*
X91370109Y-46409665D01*
X91174363Y-46423992D01*
X91174359Y-46423992D01*
X91169844Y-46424323D01*
X91165426Y-46425307D01*
X91165420Y-46425308D01*
X90909877Y-46482232D01*
X90909861Y-46482236D01*
X90905447Y-46483220D01*
X90901216Y-46484838D01*
X90901210Y-46484840D01*
X90656673Y-46578367D01*
X90656663Y-46578371D01*
X90652442Y-46579986D01*
X90648494Y-46582201D01*
X90648489Y-46582204D01*
X90420176Y-46710340D01*
X90420171Y-46710343D01*
X90416223Y-46712559D01*
X90412639Y-46715325D01*
X90412635Y-46715329D01*
X90205407Y-46875343D01*
X90205394Y-46875354D01*
X90201823Y-46878112D01*
X90198685Y-46881366D01*
X90198678Y-46881373D01*
X90016958Y-47069857D01*
X90016952Y-47069864D01*
X90013814Y-47073119D01*
X90011189Y-47076787D01*
X90011179Y-47076800D01*
X89858834Y-47289740D01*
X89858830Y-47289745D01*
X89856201Y-47293421D01*
X89854132Y-47297444D01*
X89854129Y-47297450D01*
X89734416Y-47530293D01*
X89734411Y-47530304D01*
X89732344Y-47534325D01*
X89730884Y-47538602D01*
X89730879Y-47538616D01*
X89646348Y-47786395D01*
X89646344Y-47786407D01*
X89644882Y-47790695D01*
X89644057Y-47795159D01*
X89644057Y-47795161D01*
X89596504Y-48052606D01*
X89596502Y-48052619D01*
X89595681Y-48057067D01*
X89595515Y-48061593D01*
X89595515Y-48061599D01*
X89585994Y-48322138D01*
X89585788Y-48327765D01*
X88900500Y-48327765D01*
X88900500Y-45844500D01*
X88917113Y-45782500D01*
X88962500Y-45737113D01*
X89024500Y-45720500D01*
X185295500Y-45720500D01*
X185357500Y-45737113D01*
G37*
G04 #@! TD.AperFunction*
M02*
