G04 #@! TF.GenerationSoftware,KiCad,Pcbnew,(7.0.0)*
G04 #@! TF.CreationDate,2023-03-04T18:09:34-06:00*
G04 #@! TF.ProjectId,417 Schematic,34313720-5363-4686-956d-617469632e6b,rev?*
G04 #@! TF.SameCoordinates,Original*
G04 #@! TF.FileFunction,Soldermask,Top*
G04 #@! TF.FilePolarity,Negative*
%FSLAX46Y46*%
G04 Gerber Fmt 4.6, Leading zero omitted, Abs format (unit mm)*
G04 Created by KiCad (PCBNEW (7.0.0)) date 2023-03-04 18:09:34*
%MOMM*%
%LPD*%
G01*
G04 APERTURE LIST*
%ADD10R,1.600000X1.600000*%
%ADD11O,1.600000X1.600000*%
%ADD12C,3.200000*%
%ADD13C,1.600000*%
%ADD14O,1.400000X1.400000*%
%ADD15C,1.400000*%
%ADD16C,2.400000*%
%ADD17R,2.400000X2.400000*%
%ADD18C,2.000000*%
%ADD19R,2.000000X2.000000*%
G04 APERTURE END LIST*
D10*
X146049999Y-60959999D03*
D11*
X146049999Y-63499999D03*
X146049999Y-66039999D03*
X146049999Y-68579999D03*
X146049999Y-71119999D03*
X146049999Y-73659999D03*
X146049999Y-76199999D03*
X146049999Y-78739999D03*
X146049999Y-83819999D03*
X146049999Y-86359999D03*
X146049999Y-88899999D03*
X146049999Y-91439999D03*
X146049999Y-93979999D03*
X146049999Y-96519999D03*
X97789999Y-96519999D03*
X97789999Y-93979999D03*
X97789999Y-91439999D03*
X97789999Y-88899999D03*
X97789999Y-86359999D03*
X97789999Y-83819999D03*
X97789999Y-81279999D03*
X97789999Y-78739999D03*
X97789999Y-74679999D03*
X97789999Y-72139999D03*
X97789999Y-69599999D03*
X97789999Y-67059999D03*
X97789999Y-64519999D03*
X97789999Y-61979999D03*
X97789999Y-59439999D03*
X97789999Y-56899999D03*
X97789999Y-54359999D03*
X97789999Y-51819999D03*
D12*
X91440000Y-100330000D03*
X182880000Y-100330000D03*
X182880000Y-48260000D03*
X91440000Y-48260000D03*
D11*
X151129999Y-97789999D03*
D13*
X166370000Y-97790000D03*
D11*
X166369999Y-92709999D03*
D13*
X151130000Y-92710000D03*
D14*
X171449999Y-99059999D03*
D15*
X171450000Y-91440000D03*
D10*
X163819999Y-71119999D03*
D11*
X163819999Y-68579999D03*
X163819999Y-66039999D03*
X163819999Y-63499999D03*
X163819999Y-60959999D03*
X163819999Y-58419999D03*
X163819999Y-55879999D03*
X163819999Y-53339999D03*
X151119999Y-53339999D03*
X151119999Y-55879999D03*
X151119999Y-58419999D03*
X151119999Y-60959999D03*
X151119999Y-63499999D03*
X151119999Y-66039999D03*
X151119999Y-68579999D03*
X151119999Y-71119999D03*
D16*
X180340000Y-55230000D03*
X180340000Y-58730000D03*
X180340000Y-62230000D03*
X180340000Y-65730000D03*
X180340000Y-69230000D03*
X180340000Y-72730000D03*
X180340000Y-76230000D03*
X180340000Y-79730000D03*
D17*
X180339999Y-83229999D03*
D18*
X171450000Y-54702300D03*
D19*
X171449999Y-49702299D03*
D13*
X171450000Y-76160000D03*
X171450000Y-71160000D03*
M02*
