G04 #@! TF.GenerationSoftware,KiCad,Pcbnew,(7.0.0)*
G04 #@! TF.CreationDate,2023-03-04T18:09:34-06:00*
G04 #@! TF.ProjectId,417 Schematic,34313720-5363-4686-956d-617469632e6b,rev?*
G04 #@! TF.SameCoordinates,Original*
G04 #@! TF.FileFunction,Copper,L2,Bot*
G04 #@! TF.FilePolarity,Positive*
%FSLAX46Y46*%
G04 Gerber Fmt 4.6, Leading zero omitted, Abs format (unit mm)*
G04 Created by KiCad (PCBNEW (7.0.0)) date 2023-03-04 18:09:34*
%MOMM*%
%LPD*%
G01*
G04 APERTURE LIST*
G04 #@! TA.AperFunction,ComponentPad*
%ADD10R,1.600000X1.600000*%
G04 #@! TD*
G04 #@! TA.AperFunction,ComponentPad*
%ADD11O,1.600000X1.600000*%
G04 #@! TD*
G04 #@! TA.AperFunction,ComponentPad*
%ADD12C,1.600000*%
G04 #@! TD*
G04 #@! TA.AperFunction,ComponentPad*
%ADD13O,1.400000X1.400000*%
G04 #@! TD*
G04 #@! TA.AperFunction,ComponentPad*
%ADD14C,1.400000*%
G04 #@! TD*
G04 #@! TA.AperFunction,ComponentPad*
%ADD15C,2.400000*%
G04 #@! TD*
G04 #@! TA.AperFunction,ComponentPad*
%ADD16R,2.400000X2.400000*%
G04 #@! TD*
G04 #@! TA.AperFunction,ComponentPad*
%ADD17C,2.000000*%
G04 #@! TD*
G04 #@! TA.AperFunction,ComponentPad*
%ADD18R,2.000000X2.000000*%
G04 #@! TD*
G04 #@! TA.AperFunction,Conductor*
%ADD19C,0.250000*%
G04 #@! TD*
G04 #@! TA.AperFunction,Conductor*
%ADD20C,1.750000*%
G04 #@! TD*
G04 APERTURE END LIST*
D10*
X146049999Y-60959999D03*
D11*
X146049999Y-63499999D03*
X146049999Y-66039999D03*
X146049999Y-68579999D03*
X146049999Y-71119999D03*
X146049999Y-73659999D03*
X146049999Y-76199999D03*
X146049999Y-78739999D03*
X146049999Y-83819999D03*
X146049999Y-86359999D03*
X146049999Y-88899999D03*
X146049999Y-91439999D03*
X146049999Y-93979999D03*
X146049999Y-96519999D03*
X97789999Y-96519999D03*
X97789999Y-93979999D03*
X97789999Y-91439999D03*
X97789999Y-88899999D03*
X97789999Y-86359999D03*
X97789999Y-83819999D03*
X97789999Y-81279999D03*
X97789999Y-78739999D03*
X97789999Y-74679999D03*
X97789999Y-72139999D03*
X97789999Y-69599999D03*
X97789999Y-67059999D03*
X97789999Y-64519999D03*
X97789999Y-61979999D03*
X97789999Y-59439999D03*
X97789999Y-56899999D03*
X97789999Y-54359999D03*
X97789999Y-51819999D03*
X151129999Y-97789999D03*
D12*
X166370000Y-97790000D03*
D11*
X166369999Y-92709999D03*
D12*
X151130000Y-92710000D03*
D13*
X171449999Y-99059999D03*
D14*
X171450000Y-91440000D03*
D10*
X163819999Y-71119999D03*
D11*
X163819999Y-68579999D03*
X163819999Y-66039999D03*
X163819999Y-63499999D03*
X163819999Y-60959999D03*
X163819999Y-58419999D03*
X163819999Y-55879999D03*
X163819999Y-53339999D03*
X151119999Y-53339999D03*
X151119999Y-55879999D03*
X151119999Y-58419999D03*
X151119999Y-60959999D03*
X151119999Y-63499999D03*
X151119999Y-66039999D03*
X151119999Y-68579999D03*
X151119999Y-71119999D03*
D15*
X180340000Y-55230000D03*
X180340000Y-58730000D03*
X180340000Y-62230000D03*
X180340000Y-65730000D03*
X180340000Y-69230000D03*
X180340000Y-72730000D03*
X180340000Y-76230000D03*
X180340000Y-79730000D03*
D16*
X180339999Y-83229999D03*
D17*
X171450000Y-54702300D03*
D18*
X171449999Y-49702299D03*
D12*
X171450000Y-76160000D03*
X171450000Y-71160000D03*
D19*
X166370000Y-76210000D02*
X166370000Y-92710000D01*
X151120000Y-60960000D02*
X166370000Y-76210000D01*
X151120000Y-63500000D02*
X151120000Y-66040000D01*
X151353100Y-67165100D02*
X151120000Y-67165100D01*
X152534800Y-68346800D02*
X151353100Y-67165100D01*
X152534800Y-81169900D02*
X152534800Y-68346800D01*
X170424900Y-99060000D02*
X152534800Y-81169900D01*
X171450000Y-99060000D02*
X170424900Y-99060000D01*
X151120000Y-66040000D02*
X151120000Y-67165100D01*
D20*
X165100000Y-55880000D02*
X163820000Y-55880000D01*
X173325000Y-64105000D02*
X165100000Y-55880000D01*
X173325000Y-72715000D02*
X173325000Y-64105000D01*
X180340000Y-79730000D02*
X173325000Y-72715000D01*
D19*
X147454900Y-66040000D02*
X149994900Y-68580000D01*
X146050000Y-66040000D02*
X147454900Y-66040000D01*
X151120000Y-68580000D02*
X149994900Y-68580000D01*
G04 #@! TA.AperFunction,Conductor*
G36*
X185357500Y-45737113D02*
G01*
X185402887Y-45782500D01*
X185419500Y-45844500D01*
X185419500Y-102745500D01*
X185402887Y-102807500D01*
X185357500Y-102852887D01*
X185295500Y-102869500D01*
X89024500Y-102869500D01*
X88962500Y-102852887D01*
X88917113Y-102807500D01*
X88900500Y-102745500D01*
X88900500Y-100397765D01*
X89585788Y-100397765D01*
X89586282Y-100402262D01*
X89586283Y-100402267D01*
X89614917Y-100662506D01*
X89614918Y-100662513D01*
X89615414Y-100667018D01*
X89616559Y-100671398D01*
X89616561Y-100671408D01*
X89648830Y-100794838D01*
X89683928Y-100929088D01*
X89685693Y-100933242D01*
X89685696Y-100933250D01*
X89788099Y-101174223D01*
X89789870Y-101178390D01*
X89792226Y-101182251D01*
X89792229Y-101182256D01*
X89928618Y-101405737D01*
X89930982Y-101409610D01*
X90104255Y-101617820D01*
X90107630Y-101620844D01*
X90107631Y-101620845D01*
X90212330Y-101714656D01*
X90305998Y-101798582D01*
X90531910Y-101948044D01*
X90777176Y-102063020D01*
X91036569Y-102141060D01*
X91304561Y-102180500D01*
X91505369Y-102180500D01*
X91507631Y-102180500D01*
X91710156Y-102165677D01*
X91974553Y-102106780D01*
X92227558Y-102010014D01*
X92463777Y-101877441D01*
X92678177Y-101711888D01*
X92866186Y-101516881D01*
X93023799Y-101296579D01*
X93147656Y-101055675D01*
X93235118Y-100799305D01*
X93284319Y-100532933D01*
X93289259Y-100397765D01*
X181025788Y-100397765D01*
X181026282Y-100402262D01*
X181026283Y-100402267D01*
X181054917Y-100662506D01*
X181054918Y-100662513D01*
X181055414Y-100667018D01*
X181056559Y-100671398D01*
X181056561Y-100671408D01*
X181088830Y-100794838D01*
X181123928Y-100929088D01*
X181125693Y-100933242D01*
X181125696Y-100933250D01*
X181228099Y-101174223D01*
X181229870Y-101178390D01*
X181232226Y-101182251D01*
X181232229Y-101182256D01*
X181368618Y-101405737D01*
X181370982Y-101409610D01*
X181544255Y-101617820D01*
X181547630Y-101620844D01*
X181547631Y-101620845D01*
X181652330Y-101714656D01*
X181745998Y-101798582D01*
X181971910Y-101948044D01*
X182217176Y-102063020D01*
X182476569Y-102141060D01*
X182744561Y-102180500D01*
X182945369Y-102180500D01*
X182947631Y-102180500D01*
X183150156Y-102165677D01*
X183414553Y-102106780D01*
X183667558Y-102010014D01*
X183903777Y-101877441D01*
X184118177Y-101711888D01*
X184306186Y-101516881D01*
X184463799Y-101296579D01*
X184587656Y-101055675D01*
X184675118Y-100799305D01*
X184724319Y-100532933D01*
X184734212Y-100262235D01*
X184704586Y-99992982D01*
X184636072Y-99730912D01*
X184530130Y-99481610D01*
X184389018Y-99250390D01*
X184215745Y-99042180D01*
X184187351Y-99016739D01*
X184017382Y-98864446D01*
X184017378Y-98864442D01*
X184014002Y-98861418D01*
X183788090Y-98711956D01*
X183783996Y-98710036D01*
X183783991Y-98710034D01*
X183546929Y-98598904D01*
X183546925Y-98598902D01*
X183542824Y-98596980D01*
X183538477Y-98595672D01*
X183538474Y-98595671D01*
X183287772Y-98520246D01*
X183287771Y-98520245D01*
X183283431Y-98518940D01*
X183278957Y-98518281D01*
X183278950Y-98518280D01*
X183019913Y-98480158D01*
X183019907Y-98480157D01*
X183015439Y-98479500D01*
X182812369Y-98479500D01*
X182810120Y-98479664D01*
X182810109Y-98479665D01*
X182614363Y-98493992D01*
X182614359Y-98493992D01*
X182609844Y-98494323D01*
X182605426Y-98495307D01*
X182605420Y-98495308D01*
X182349877Y-98552232D01*
X182349861Y-98552236D01*
X182345447Y-98553220D01*
X182341216Y-98554838D01*
X182341210Y-98554840D01*
X182096673Y-98648367D01*
X182096663Y-98648371D01*
X182092442Y-98649986D01*
X182088494Y-98652201D01*
X182088489Y-98652204D01*
X181860176Y-98780340D01*
X181860171Y-98780343D01*
X181856223Y-98782559D01*
X181852639Y-98785325D01*
X181852635Y-98785329D01*
X181645407Y-98945343D01*
X181645394Y-98945354D01*
X181641823Y-98948112D01*
X181638685Y-98951366D01*
X181638678Y-98951373D01*
X181456958Y-99139857D01*
X181456952Y-99139864D01*
X181453814Y-99143119D01*
X181451189Y-99146787D01*
X181451179Y-99146800D01*
X181298834Y-99359740D01*
X181298830Y-99359745D01*
X181296201Y-99363421D01*
X181294132Y-99367444D01*
X181294129Y-99367450D01*
X181174416Y-99600293D01*
X181174411Y-99600304D01*
X181172344Y-99604325D01*
X181170884Y-99608602D01*
X181170879Y-99608616D01*
X181086348Y-99856395D01*
X181086344Y-99856407D01*
X181084882Y-99860695D01*
X181084057Y-99865159D01*
X181084057Y-99865161D01*
X181036504Y-100122606D01*
X181036502Y-100122619D01*
X181035681Y-100127067D01*
X181035515Y-100131593D01*
X181035515Y-100131599D01*
X181030576Y-100266762D01*
X181025788Y-100397765D01*
X93289259Y-100397765D01*
X93294212Y-100262235D01*
X93264586Y-99992982D01*
X93196072Y-99730912D01*
X93090130Y-99481610D01*
X92949018Y-99250390D01*
X92775745Y-99042180D01*
X92747351Y-99016739D01*
X92577382Y-98864446D01*
X92577378Y-98864442D01*
X92574002Y-98861418D01*
X92348090Y-98711956D01*
X92343996Y-98710036D01*
X92343991Y-98710034D01*
X92106929Y-98598904D01*
X92106925Y-98598902D01*
X92102824Y-98596980D01*
X92098477Y-98595672D01*
X92098474Y-98595671D01*
X91847772Y-98520246D01*
X91847771Y-98520245D01*
X91843431Y-98518940D01*
X91838957Y-98518281D01*
X91838950Y-98518280D01*
X91579913Y-98480158D01*
X91579907Y-98480157D01*
X91575439Y-98479500D01*
X91372369Y-98479500D01*
X91370120Y-98479664D01*
X91370109Y-98479665D01*
X91174363Y-98493992D01*
X91174359Y-98493992D01*
X91169844Y-98494323D01*
X91165426Y-98495307D01*
X91165420Y-98495308D01*
X90909877Y-98552232D01*
X90909861Y-98552236D01*
X90905447Y-98553220D01*
X90901216Y-98554838D01*
X90901210Y-98554840D01*
X90656673Y-98648367D01*
X90656663Y-98648371D01*
X90652442Y-98649986D01*
X90648494Y-98652201D01*
X90648489Y-98652204D01*
X90420176Y-98780340D01*
X90420171Y-98780343D01*
X90416223Y-98782559D01*
X90412639Y-98785325D01*
X90412635Y-98785329D01*
X90205407Y-98945343D01*
X90205394Y-98945354D01*
X90201823Y-98948112D01*
X90198685Y-98951366D01*
X90198678Y-98951373D01*
X90016958Y-99139857D01*
X90016952Y-99139864D01*
X90013814Y-99143119D01*
X90011189Y-99146787D01*
X90011179Y-99146800D01*
X89858834Y-99359740D01*
X89858830Y-99359745D01*
X89856201Y-99363421D01*
X89854132Y-99367444D01*
X89854129Y-99367450D01*
X89734416Y-99600293D01*
X89734411Y-99600304D01*
X89732344Y-99604325D01*
X89730884Y-99608602D01*
X89730879Y-99608616D01*
X89646348Y-99856395D01*
X89646344Y-99856407D01*
X89644882Y-99860695D01*
X89644057Y-99865159D01*
X89644057Y-99865161D01*
X89596504Y-100122606D01*
X89596502Y-100122619D01*
X89595681Y-100127067D01*
X89595515Y-100131593D01*
X89595515Y-100131599D01*
X89590576Y-100266762D01*
X89585788Y-100397765D01*
X88900500Y-100397765D01*
X88900500Y-98042551D01*
X149854452Y-98042551D01*
X149854820Y-98053780D01*
X149902330Y-98231092D01*
X149906022Y-98241234D01*
X149997579Y-98437580D01*
X150002967Y-98446912D01*
X150127232Y-98624381D01*
X150134169Y-98632647D01*
X150287352Y-98785830D01*
X150295618Y-98792767D01*
X150473087Y-98917032D01*
X150482419Y-98922420D01*
X150678765Y-99013977D01*
X150688907Y-99017669D01*
X150866219Y-99065179D01*
X150877448Y-99065547D01*
X150880000Y-99054605D01*
X151380000Y-99054605D01*
X151382551Y-99065547D01*
X151393780Y-99065179D01*
X151571092Y-99017669D01*
X151581234Y-99013977D01*
X151777580Y-98922420D01*
X151786912Y-98917032D01*
X151964381Y-98792767D01*
X151972647Y-98785830D01*
X152125830Y-98632647D01*
X152132767Y-98624381D01*
X152257032Y-98446912D01*
X152262420Y-98437580D01*
X152353977Y-98241234D01*
X152357669Y-98231092D01*
X152405179Y-98053780D01*
X152405547Y-98042551D01*
X152394605Y-98040000D01*
X151396326Y-98040000D01*
X151383450Y-98043450D01*
X151380000Y-98056326D01*
X151380000Y-99054605D01*
X150880000Y-99054605D01*
X150880000Y-98056326D01*
X150876549Y-98043450D01*
X150863674Y-98040000D01*
X149865395Y-98040000D01*
X149854452Y-98042551D01*
X88900500Y-98042551D01*
X88900500Y-96520000D01*
X96484532Y-96520000D01*
X96485004Y-96525395D01*
X96497002Y-96662540D01*
X96504365Y-96746692D01*
X96505762Y-96751907D01*
X96505764Y-96751916D01*
X96561858Y-96961263D01*
X96561861Y-96961271D01*
X96563261Y-96966496D01*
X96659432Y-97172734D01*
X96789953Y-97359139D01*
X96950861Y-97520047D01*
X97137266Y-97650568D01*
X97343504Y-97746739D01*
X97348734Y-97748140D01*
X97348736Y-97748141D01*
X97558083Y-97804235D01*
X97563308Y-97805635D01*
X97790000Y-97825468D01*
X98016692Y-97805635D01*
X98236496Y-97746739D01*
X98442734Y-97650568D01*
X98629139Y-97520047D01*
X98790047Y-97359139D01*
X98920568Y-97172734D01*
X99016739Y-96966496D01*
X99075635Y-96746692D01*
X99095468Y-96520000D01*
X144744532Y-96520000D01*
X144745004Y-96525395D01*
X144757002Y-96662540D01*
X144764365Y-96746692D01*
X144765762Y-96751907D01*
X144765764Y-96751916D01*
X144821858Y-96961263D01*
X144821861Y-96961271D01*
X144823261Y-96966496D01*
X144919432Y-97172734D01*
X145049953Y-97359139D01*
X145210861Y-97520047D01*
X145397266Y-97650568D01*
X145603504Y-97746739D01*
X145608734Y-97748140D01*
X145608736Y-97748141D01*
X145818083Y-97804235D01*
X145823308Y-97805635D01*
X146050000Y-97825468D01*
X146276692Y-97805635D01*
X146496496Y-97746739D01*
X146702734Y-97650568D01*
X146864288Y-97537448D01*
X149854452Y-97537448D01*
X149865395Y-97540000D01*
X150863674Y-97540000D01*
X150876549Y-97536549D01*
X150880000Y-97523674D01*
X151380000Y-97523674D01*
X151383450Y-97536549D01*
X151396326Y-97540000D01*
X152394605Y-97540000D01*
X152405547Y-97537448D01*
X152405179Y-97526219D01*
X152357669Y-97348907D01*
X152353977Y-97338765D01*
X152262420Y-97142419D01*
X152257032Y-97133087D01*
X152132767Y-96955618D01*
X152125830Y-96947352D01*
X151972647Y-96794169D01*
X151964381Y-96787232D01*
X151786912Y-96662967D01*
X151777580Y-96657579D01*
X151581234Y-96566022D01*
X151571092Y-96562330D01*
X151393780Y-96514820D01*
X151382551Y-96514452D01*
X151380000Y-96525395D01*
X151380000Y-97523674D01*
X150880000Y-97523674D01*
X150880000Y-96525395D01*
X150877448Y-96514452D01*
X150866219Y-96514820D01*
X150688907Y-96562330D01*
X150678765Y-96566022D01*
X150482419Y-96657579D01*
X150473087Y-96662967D01*
X150295618Y-96787232D01*
X150287352Y-96794169D01*
X150134169Y-96947352D01*
X150127232Y-96955618D01*
X150002967Y-97133087D01*
X149997579Y-97142419D01*
X149906022Y-97338765D01*
X149902330Y-97348907D01*
X149854820Y-97526219D01*
X149854452Y-97537448D01*
X146864288Y-97537448D01*
X146889139Y-97520047D01*
X147050047Y-97359139D01*
X147180568Y-97172734D01*
X147276739Y-96966496D01*
X147335635Y-96746692D01*
X147355468Y-96520000D01*
X147335635Y-96293308D01*
X147276739Y-96073504D01*
X147180568Y-95867266D01*
X147050047Y-95680861D01*
X146889139Y-95519953D01*
X146702734Y-95389432D01*
X146644724Y-95362381D01*
X146592549Y-95316625D01*
X146573130Y-95250000D01*
X146592549Y-95183375D01*
X146644725Y-95137618D01*
X146702734Y-95110568D01*
X146889139Y-94980047D01*
X147050047Y-94819139D01*
X147180568Y-94632734D01*
X147276739Y-94426496D01*
X147335635Y-94206692D01*
X147355468Y-93980000D01*
X147335635Y-93753308D01*
X147276739Y-93533504D01*
X147180568Y-93327266D01*
X147050047Y-93140861D01*
X146889139Y-92979953D01*
X146702734Y-92849432D01*
X146644724Y-92822381D01*
X146592549Y-92776625D01*
X146573130Y-92710000D01*
X149824532Y-92710000D01*
X149825004Y-92715395D01*
X149837002Y-92852540D01*
X149844365Y-92936692D01*
X149845762Y-92941907D01*
X149845764Y-92941916D01*
X149901858Y-93151263D01*
X149901861Y-93151271D01*
X149903261Y-93156496D01*
X149999432Y-93362734D01*
X150129953Y-93549139D01*
X150290861Y-93710047D01*
X150477266Y-93840568D01*
X150683504Y-93936739D01*
X150688734Y-93938140D01*
X150688736Y-93938141D01*
X150898083Y-93994235D01*
X150903308Y-93995635D01*
X151130000Y-94015468D01*
X151356692Y-93995635D01*
X151576496Y-93936739D01*
X151782734Y-93840568D01*
X151969139Y-93710047D01*
X152130047Y-93549139D01*
X152260568Y-93362734D01*
X152356739Y-93156496D01*
X152415635Y-92936692D01*
X152435468Y-92710000D01*
X152415635Y-92483308D01*
X152356739Y-92263504D01*
X152260568Y-92057266D01*
X152130047Y-91870861D01*
X151969139Y-91709953D01*
X151782734Y-91579432D01*
X151576496Y-91483261D01*
X151571271Y-91481861D01*
X151571263Y-91481858D01*
X151361916Y-91425764D01*
X151361907Y-91425762D01*
X151356692Y-91424365D01*
X151351304Y-91423893D01*
X151351301Y-91423893D01*
X151135395Y-91405004D01*
X151130000Y-91404532D01*
X151124605Y-91405004D01*
X150908698Y-91423893D01*
X150908693Y-91423893D01*
X150903308Y-91424365D01*
X150898094Y-91425762D01*
X150898083Y-91425764D01*
X150688736Y-91481858D01*
X150688724Y-91481862D01*
X150683504Y-91483261D01*
X150678599Y-91485547D01*
X150678594Y-91485550D01*
X150482176Y-91577142D01*
X150482172Y-91577144D01*
X150477266Y-91579432D01*
X150472833Y-91582535D01*
X150472826Y-91582540D01*
X150295296Y-91706847D01*
X150295291Y-91706850D01*
X150290861Y-91709953D01*
X150287037Y-91713776D01*
X150287031Y-91713782D01*
X150133782Y-91867031D01*
X150133776Y-91867037D01*
X150129953Y-91870861D01*
X150126850Y-91875291D01*
X150126847Y-91875296D01*
X150002540Y-92052826D01*
X150002535Y-92052833D01*
X149999432Y-92057266D01*
X149997144Y-92062172D01*
X149997142Y-92062176D01*
X149905550Y-92258594D01*
X149905547Y-92258599D01*
X149903261Y-92263504D01*
X149901862Y-92268724D01*
X149901858Y-92268736D01*
X149845764Y-92478083D01*
X149845762Y-92478094D01*
X149844365Y-92483308D01*
X149843893Y-92488693D01*
X149843893Y-92488698D01*
X149830612Y-92640500D01*
X149824532Y-92710000D01*
X146573130Y-92710000D01*
X146592549Y-92643375D01*
X146644725Y-92597618D01*
X146702734Y-92570568D01*
X146889139Y-92440047D01*
X147050047Y-92279139D01*
X147180568Y-92092734D01*
X147276739Y-91886496D01*
X147335635Y-91666692D01*
X147355468Y-91440000D01*
X147335635Y-91213308D01*
X147276739Y-90993504D01*
X147180568Y-90787266D01*
X147050047Y-90600861D01*
X146889139Y-90439953D01*
X146702734Y-90309432D01*
X146644724Y-90282381D01*
X146592549Y-90236625D01*
X146573130Y-90170000D01*
X146592549Y-90103375D01*
X146644725Y-90057618D01*
X146702734Y-90030568D01*
X146889139Y-89900047D01*
X147050047Y-89739139D01*
X147180568Y-89552734D01*
X147276739Y-89346496D01*
X147335635Y-89126692D01*
X147355468Y-88900000D01*
X147335635Y-88673308D01*
X147276739Y-88453504D01*
X147180568Y-88247266D01*
X147050047Y-88060861D01*
X146889139Y-87899953D01*
X146702734Y-87769432D01*
X146644724Y-87742381D01*
X146592549Y-87696625D01*
X146573130Y-87630000D01*
X146592549Y-87563375D01*
X146644725Y-87517618D01*
X146702734Y-87490568D01*
X146889139Y-87360047D01*
X147050047Y-87199139D01*
X147180568Y-87012734D01*
X147276739Y-86806496D01*
X147335635Y-86586692D01*
X147355468Y-86360000D01*
X147335635Y-86133308D01*
X147276739Y-85913504D01*
X147180568Y-85707266D01*
X147050047Y-85520861D01*
X146889139Y-85359953D01*
X146702734Y-85229432D01*
X146644724Y-85202381D01*
X146592549Y-85156625D01*
X146573130Y-85090000D01*
X146592549Y-85023375D01*
X146644725Y-84977618D01*
X146702734Y-84950568D01*
X146889139Y-84820047D01*
X147050047Y-84659139D01*
X147180568Y-84472734D01*
X147276739Y-84266496D01*
X147335635Y-84046692D01*
X147355468Y-83820000D01*
X147335635Y-83593308D01*
X147276739Y-83373504D01*
X147180568Y-83167266D01*
X147050047Y-82980861D01*
X146889139Y-82819953D01*
X146702734Y-82689432D01*
X146496496Y-82593261D01*
X146491271Y-82591861D01*
X146491263Y-82591858D01*
X146281916Y-82535764D01*
X146281907Y-82535762D01*
X146276692Y-82534365D01*
X146271304Y-82533893D01*
X146271301Y-82533893D01*
X146055395Y-82515004D01*
X146050000Y-82514532D01*
X146044605Y-82515004D01*
X145828698Y-82533893D01*
X145828693Y-82533893D01*
X145823308Y-82534365D01*
X145818094Y-82535762D01*
X145818083Y-82535764D01*
X145608736Y-82591858D01*
X145608724Y-82591862D01*
X145603504Y-82593261D01*
X145598599Y-82595547D01*
X145598594Y-82595550D01*
X145402176Y-82687142D01*
X145402172Y-82687144D01*
X145397266Y-82689432D01*
X145392833Y-82692535D01*
X145392826Y-82692540D01*
X145215296Y-82816847D01*
X145215291Y-82816850D01*
X145210861Y-82819953D01*
X145207037Y-82823776D01*
X145207031Y-82823782D01*
X145053782Y-82977031D01*
X145053776Y-82977037D01*
X145049953Y-82980861D01*
X145046850Y-82985291D01*
X145046847Y-82985296D01*
X144922540Y-83162826D01*
X144922535Y-83162833D01*
X144919432Y-83167266D01*
X144917144Y-83172172D01*
X144917142Y-83172176D01*
X144825550Y-83368594D01*
X144825547Y-83368599D01*
X144823261Y-83373504D01*
X144821862Y-83378724D01*
X144821858Y-83378736D01*
X144765764Y-83588083D01*
X144765762Y-83588094D01*
X144764365Y-83593308D01*
X144744532Y-83820000D01*
X144764365Y-84046692D01*
X144765762Y-84051907D01*
X144765764Y-84051916D01*
X144821858Y-84261263D01*
X144821861Y-84261271D01*
X144823261Y-84266496D01*
X144919432Y-84472734D01*
X144922539Y-84477171D01*
X144922540Y-84477173D01*
X144959367Y-84529768D01*
X145049953Y-84659139D01*
X145210861Y-84820047D01*
X145397266Y-84950568D01*
X145402172Y-84952855D01*
X145402176Y-84952858D01*
X145455274Y-84977618D01*
X145507450Y-85023375D01*
X145526869Y-85090000D01*
X145507450Y-85156625D01*
X145455274Y-85202382D01*
X145402176Y-85227141D01*
X145402163Y-85227148D01*
X145397266Y-85229432D01*
X145392833Y-85232535D01*
X145392826Y-85232540D01*
X145215296Y-85356847D01*
X145215291Y-85356850D01*
X145210861Y-85359953D01*
X145207037Y-85363776D01*
X145207031Y-85363782D01*
X145053782Y-85517031D01*
X145053776Y-85517037D01*
X145049953Y-85520861D01*
X145046850Y-85525291D01*
X145046847Y-85525296D01*
X144922540Y-85702826D01*
X144922535Y-85702833D01*
X144919432Y-85707266D01*
X144917144Y-85712172D01*
X144917142Y-85712176D01*
X144825550Y-85908594D01*
X144825547Y-85908599D01*
X144823261Y-85913504D01*
X144821862Y-85918724D01*
X144821858Y-85918736D01*
X144765764Y-86128083D01*
X144765762Y-86128094D01*
X144764365Y-86133308D01*
X144744532Y-86360000D01*
X144764365Y-86586692D01*
X144765762Y-86591907D01*
X144765764Y-86591916D01*
X144821858Y-86801263D01*
X144821861Y-86801271D01*
X144823261Y-86806496D01*
X144919432Y-87012734D01*
X145049953Y-87199139D01*
X145210861Y-87360047D01*
X145397266Y-87490568D01*
X145402172Y-87492855D01*
X145402176Y-87492858D01*
X145455274Y-87517618D01*
X145507450Y-87563375D01*
X145526869Y-87630000D01*
X145507450Y-87696625D01*
X145455274Y-87742382D01*
X145402176Y-87767141D01*
X145402163Y-87767148D01*
X145397266Y-87769432D01*
X145392833Y-87772535D01*
X145392826Y-87772540D01*
X145215296Y-87896847D01*
X145215291Y-87896850D01*
X145210861Y-87899953D01*
X145207037Y-87903776D01*
X145207031Y-87903782D01*
X145053782Y-88057031D01*
X145053776Y-88057037D01*
X145049953Y-88060861D01*
X145046850Y-88065291D01*
X145046847Y-88065296D01*
X144922540Y-88242826D01*
X144922535Y-88242833D01*
X144919432Y-88247266D01*
X144917144Y-88252172D01*
X144917142Y-88252176D01*
X144825550Y-88448594D01*
X144825547Y-88448599D01*
X144823261Y-88453504D01*
X144821862Y-88458724D01*
X144821858Y-88458736D01*
X144765764Y-88668083D01*
X144765762Y-88668094D01*
X144764365Y-88673308D01*
X144744532Y-88900000D01*
X144764365Y-89126692D01*
X144765762Y-89131907D01*
X144765764Y-89131916D01*
X144821858Y-89341263D01*
X144821861Y-89341271D01*
X144823261Y-89346496D01*
X144919432Y-89552734D01*
X145049953Y-89739139D01*
X145210861Y-89900047D01*
X145397266Y-90030568D01*
X145402172Y-90032855D01*
X145402176Y-90032858D01*
X145455274Y-90057618D01*
X145507450Y-90103375D01*
X145526869Y-90170000D01*
X145507450Y-90236625D01*
X145455274Y-90282382D01*
X145402176Y-90307141D01*
X145402163Y-90307148D01*
X145397266Y-90309432D01*
X145392833Y-90312535D01*
X145392826Y-90312540D01*
X145215296Y-90436847D01*
X145215291Y-90436850D01*
X145210861Y-90439953D01*
X145207037Y-90443776D01*
X145207031Y-90443782D01*
X145053782Y-90597031D01*
X145053776Y-90597037D01*
X145049953Y-90600861D01*
X145046850Y-90605291D01*
X145046847Y-90605296D01*
X144922540Y-90782826D01*
X144922535Y-90782833D01*
X144919432Y-90787266D01*
X144917144Y-90792172D01*
X144917142Y-90792176D01*
X144825550Y-90988594D01*
X144825547Y-90988599D01*
X144823261Y-90993504D01*
X144821862Y-90998724D01*
X144821858Y-90998736D01*
X144765764Y-91208083D01*
X144765762Y-91208094D01*
X144764365Y-91213308D01*
X144763893Y-91218693D01*
X144763893Y-91218698D01*
X144747635Y-91404532D01*
X144744532Y-91440000D01*
X144745004Y-91445395D01*
X144763414Y-91655828D01*
X144764365Y-91666692D01*
X144765762Y-91671907D01*
X144765764Y-91671916D01*
X144821858Y-91881263D01*
X144821861Y-91881271D01*
X144823261Y-91886496D01*
X144919432Y-92092734D01*
X145049953Y-92279139D01*
X145210861Y-92440047D01*
X145397266Y-92570568D01*
X145402172Y-92572855D01*
X145402176Y-92572858D01*
X145455274Y-92597618D01*
X145507450Y-92643375D01*
X145526869Y-92710000D01*
X145507450Y-92776625D01*
X145455274Y-92822382D01*
X145402176Y-92847141D01*
X145402163Y-92847148D01*
X145397266Y-92849432D01*
X145392833Y-92852535D01*
X145392826Y-92852540D01*
X145215296Y-92976847D01*
X145215291Y-92976850D01*
X145210861Y-92979953D01*
X145207037Y-92983776D01*
X145207031Y-92983782D01*
X145053782Y-93137031D01*
X145053776Y-93137037D01*
X145049953Y-93140861D01*
X145046850Y-93145291D01*
X145046847Y-93145296D01*
X144922540Y-93322826D01*
X144922535Y-93322833D01*
X144919432Y-93327266D01*
X144917144Y-93332172D01*
X144917142Y-93332176D01*
X144825550Y-93528594D01*
X144825547Y-93528599D01*
X144823261Y-93533504D01*
X144821862Y-93538724D01*
X144821858Y-93538736D01*
X144765764Y-93748083D01*
X144765762Y-93748094D01*
X144764365Y-93753308D01*
X144763893Y-93758693D01*
X144763893Y-93758698D01*
X144756530Y-93842857D01*
X144744532Y-93980000D01*
X144745004Y-93985395D01*
X144753443Y-94081859D01*
X144764365Y-94206692D01*
X144765762Y-94211907D01*
X144765764Y-94211916D01*
X144821858Y-94421263D01*
X144821861Y-94421271D01*
X144823261Y-94426496D01*
X144919432Y-94632734D01*
X145049953Y-94819139D01*
X145210861Y-94980047D01*
X145397266Y-95110568D01*
X145402172Y-95112855D01*
X145402176Y-95112858D01*
X145455274Y-95137618D01*
X145507450Y-95183375D01*
X145526869Y-95250000D01*
X145507450Y-95316625D01*
X145455274Y-95362382D01*
X145402176Y-95387141D01*
X145402163Y-95387148D01*
X145397266Y-95389432D01*
X145392833Y-95392535D01*
X145392826Y-95392540D01*
X145215296Y-95516847D01*
X145215291Y-95516850D01*
X145210861Y-95519953D01*
X145207037Y-95523776D01*
X145207031Y-95523782D01*
X145053782Y-95677031D01*
X145053776Y-95677037D01*
X145049953Y-95680861D01*
X145046850Y-95685291D01*
X145046847Y-95685296D01*
X144922540Y-95862826D01*
X144922535Y-95862833D01*
X144919432Y-95867266D01*
X144917144Y-95872172D01*
X144917142Y-95872176D01*
X144825550Y-96068594D01*
X144825547Y-96068599D01*
X144823261Y-96073504D01*
X144821862Y-96078724D01*
X144821858Y-96078736D01*
X144765764Y-96288083D01*
X144765762Y-96288094D01*
X144764365Y-96293308D01*
X144763893Y-96298693D01*
X144763893Y-96298698D01*
X144757241Y-96374732D01*
X144744532Y-96520000D01*
X99095468Y-96520000D01*
X99075635Y-96293308D01*
X99016739Y-96073504D01*
X98920568Y-95867266D01*
X98790047Y-95680861D01*
X98629139Y-95519953D01*
X98442734Y-95389432D01*
X98384724Y-95362381D01*
X98332549Y-95316625D01*
X98313130Y-95250000D01*
X98332549Y-95183375D01*
X98384725Y-95137618D01*
X98442734Y-95110568D01*
X98629139Y-94980047D01*
X98790047Y-94819139D01*
X98920568Y-94632734D01*
X99016739Y-94426496D01*
X99075635Y-94206692D01*
X99095468Y-93980000D01*
X99075635Y-93753308D01*
X99016739Y-93533504D01*
X98920568Y-93327266D01*
X98790047Y-93140861D01*
X98629139Y-92979953D01*
X98442734Y-92849432D01*
X98384724Y-92822381D01*
X98332549Y-92776625D01*
X98313130Y-92710000D01*
X98332549Y-92643375D01*
X98384725Y-92597618D01*
X98442734Y-92570568D01*
X98629139Y-92440047D01*
X98790047Y-92279139D01*
X98920568Y-92092734D01*
X99016739Y-91886496D01*
X99075635Y-91666692D01*
X99095468Y-91440000D01*
X99075635Y-91213308D01*
X99016739Y-90993504D01*
X98920568Y-90787266D01*
X98790047Y-90600861D01*
X98629139Y-90439953D01*
X98442734Y-90309432D01*
X98384724Y-90282381D01*
X98332549Y-90236625D01*
X98313130Y-90170000D01*
X98332549Y-90103375D01*
X98384725Y-90057618D01*
X98442734Y-90030568D01*
X98629139Y-89900047D01*
X98790047Y-89739139D01*
X98920568Y-89552734D01*
X99016739Y-89346496D01*
X99075635Y-89126692D01*
X99095468Y-88900000D01*
X99075635Y-88673308D01*
X99016739Y-88453504D01*
X98920568Y-88247266D01*
X98790047Y-88060861D01*
X98629139Y-87899953D01*
X98442734Y-87769432D01*
X98384724Y-87742381D01*
X98332549Y-87696625D01*
X98313130Y-87630000D01*
X98332549Y-87563375D01*
X98384725Y-87517618D01*
X98442734Y-87490568D01*
X98629139Y-87360047D01*
X98790047Y-87199139D01*
X98920568Y-87012734D01*
X99016739Y-86806496D01*
X99075635Y-86586692D01*
X99095468Y-86360000D01*
X99075635Y-86133308D01*
X99016739Y-85913504D01*
X98920568Y-85707266D01*
X98790047Y-85520861D01*
X98629139Y-85359953D01*
X98442734Y-85229432D01*
X98384724Y-85202381D01*
X98332549Y-85156625D01*
X98313130Y-85090000D01*
X98332549Y-85023375D01*
X98384725Y-84977618D01*
X98442734Y-84950568D01*
X98629139Y-84820047D01*
X98790047Y-84659139D01*
X98920568Y-84472734D01*
X99016739Y-84266496D01*
X99075635Y-84046692D01*
X99095468Y-83820000D01*
X99075635Y-83593308D01*
X99016739Y-83373504D01*
X98920568Y-83167266D01*
X98790047Y-82980861D01*
X98629139Y-82819953D01*
X98442734Y-82689432D01*
X98384724Y-82662381D01*
X98332549Y-82616625D01*
X98313130Y-82550000D01*
X98332549Y-82483375D01*
X98384725Y-82437618D01*
X98442734Y-82410568D01*
X98629139Y-82280047D01*
X98790047Y-82119139D01*
X98920568Y-81932734D01*
X99016739Y-81726496D01*
X99075635Y-81506692D01*
X99095468Y-81280000D01*
X99075635Y-81053308D01*
X99016739Y-80833504D01*
X98920568Y-80627266D01*
X98790047Y-80440861D01*
X98629139Y-80279953D01*
X98442734Y-80149432D01*
X98437827Y-80147143D01*
X98437817Y-80147138D01*
X98384724Y-80122380D01*
X98332549Y-80076623D01*
X98313130Y-80009997D01*
X98332550Y-79943372D01*
X98384723Y-79897618D01*
X98442734Y-79870568D01*
X98629139Y-79740047D01*
X98790047Y-79579139D01*
X98920568Y-79392734D01*
X99016739Y-79186496D01*
X99075635Y-78966692D01*
X99095468Y-78740000D01*
X144744532Y-78740000D01*
X144764365Y-78966692D01*
X144765762Y-78971907D01*
X144765764Y-78971916D01*
X144821858Y-79181263D01*
X144821861Y-79181271D01*
X144823261Y-79186496D01*
X144919432Y-79392734D01*
X145049953Y-79579139D01*
X145210861Y-79740047D01*
X145397266Y-79870568D01*
X145603504Y-79966739D01*
X145608734Y-79968140D01*
X145608736Y-79968141D01*
X145668509Y-79984157D01*
X145823308Y-80025635D01*
X146050000Y-80045468D01*
X146276692Y-80025635D01*
X146496496Y-79966739D01*
X146702734Y-79870568D01*
X146889139Y-79740047D01*
X147050047Y-79579139D01*
X147180568Y-79392734D01*
X147276739Y-79186496D01*
X147335635Y-78966692D01*
X147355468Y-78740000D01*
X147335635Y-78513308D01*
X147276739Y-78293504D01*
X147180568Y-78087266D01*
X147050047Y-77900861D01*
X146889139Y-77739953D01*
X146702734Y-77609432D01*
X146697831Y-77607145D01*
X146697823Y-77607141D01*
X146644134Y-77582106D01*
X146591958Y-77536349D01*
X146572539Y-77469723D01*
X146591959Y-77403098D01*
X146644135Y-77357341D01*
X146697585Y-77332417D01*
X146706912Y-77327032D01*
X146884381Y-77202767D01*
X146892647Y-77195830D01*
X147045830Y-77042647D01*
X147052767Y-77034381D01*
X147177032Y-76856912D01*
X147182420Y-76847580D01*
X147273977Y-76651234D01*
X147277669Y-76641092D01*
X147325179Y-76463780D01*
X147325547Y-76452551D01*
X147314605Y-76450000D01*
X144785395Y-76450000D01*
X144774452Y-76452551D01*
X144774820Y-76463780D01*
X144822330Y-76641092D01*
X144826022Y-76651234D01*
X144917579Y-76847580D01*
X144922967Y-76856912D01*
X145047232Y-77034381D01*
X145054169Y-77042647D01*
X145207352Y-77195830D01*
X145215618Y-77202767D01*
X145393087Y-77327032D01*
X145402423Y-77332422D01*
X145455864Y-77357342D01*
X145508040Y-77403098D01*
X145527460Y-77469723D01*
X145508041Y-77536348D01*
X145455865Y-77582106D01*
X145397266Y-77609432D01*
X145392833Y-77612535D01*
X145392826Y-77612540D01*
X145215296Y-77736847D01*
X145215291Y-77736850D01*
X145210861Y-77739953D01*
X145207037Y-77743776D01*
X145207031Y-77743782D01*
X145053782Y-77897031D01*
X145053776Y-77897037D01*
X145049953Y-77900861D01*
X145046850Y-77905291D01*
X145046847Y-77905296D01*
X144922540Y-78082826D01*
X144922535Y-78082833D01*
X144919432Y-78087266D01*
X144917144Y-78092172D01*
X144917142Y-78092176D01*
X144825550Y-78288594D01*
X144825547Y-78288599D01*
X144823261Y-78293504D01*
X144821862Y-78298724D01*
X144821858Y-78298736D01*
X144765764Y-78508083D01*
X144765762Y-78508094D01*
X144764365Y-78513308D01*
X144744532Y-78740000D01*
X99095468Y-78740000D01*
X99075635Y-78513308D01*
X99016739Y-78293504D01*
X98920568Y-78087266D01*
X98790047Y-77900861D01*
X98629139Y-77739953D01*
X98442734Y-77609432D01*
X98349253Y-77565841D01*
X98241405Y-77515550D01*
X98241403Y-77515549D01*
X98236496Y-77513261D01*
X98231271Y-77511861D01*
X98231263Y-77511858D01*
X98021916Y-77455764D01*
X98021907Y-77455762D01*
X98016692Y-77454365D01*
X98011304Y-77453893D01*
X98011301Y-77453893D01*
X97795395Y-77435004D01*
X97790000Y-77434532D01*
X97784605Y-77435004D01*
X97568698Y-77453893D01*
X97568693Y-77453893D01*
X97563308Y-77454365D01*
X97558094Y-77455762D01*
X97558083Y-77455764D01*
X97348736Y-77511858D01*
X97348724Y-77511862D01*
X97343504Y-77513261D01*
X97338599Y-77515547D01*
X97338594Y-77515550D01*
X97142176Y-77607142D01*
X97142172Y-77607144D01*
X97137266Y-77609432D01*
X97132833Y-77612535D01*
X97132826Y-77612540D01*
X96955296Y-77736847D01*
X96955291Y-77736850D01*
X96950861Y-77739953D01*
X96947037Y-77743776D01*
X96947031Y-77743782D01*
X96793782Y-77897031D01*
X96793776Y-77897037D01*
X96789953Y-77900861D01*
X96786850Y-77905291D01*
X96786847Y-77905296D01*
X96662540Y-78082826D01*
X96662535Y-78082833D01*
X96659432Y-78087266D01*
X96657144Y-78092172D01*
X96657142Y-78092176D01*
X96565550Y-78288594D01*
X96565547Y-78288599D01*
X96563261Y-78293504D01*
X96561862Y-78298724D01*
X96561858Y-78298736D01*
X96505764Y-78508083D01*
X96505762Y-78508094D01*
X96504365Y-78513308D01*
X96484532Y-78740000D01*
X96504365Y-78966692D01*
X96505762Y-78971907D01*
X96505764Y-78971916D01*
X96561858Y-79181263D01*
X96561861Y-79181271D01*
X96563261Y-79186496D01*
X96659432Y-79392734D01*
X96789953Y-79579139D01*
X96950861Y-79740047D01*
X97137266Y-79870568D01*
X97195276Y-79897618D01*
X97247449Y-79943373D01*
X97266869Y-80009997D01*
X97247451Y-80076622D01*
X97195276Y-80122380D01*
X97142178Y-80147141D01*
X97142173Y-80147143D01*
X97137266Y-80149432D01*
X97132833Y-80152535D01*
X97132826Y-80152540D01*
X96955296Y-80276847D01*
X96955291Y-80276850D01*
X96950861Y-80279953D01*
X96947037Y-80283776D01*
X96947031Y-80283782D01*
X96793782Y-80437031D01*
X96793776Y-80437037D01*
X96789953Y-80440861D01*
X96786850Y-80445291D01*
X96786847Y-80445296D01*
X96662540Y-80622826D01*
X96662535Y-80622833D01*
X96659432Y-80627266D01*
X96657144Y-80632172D01*
X96657142Y-80632176D01*
X96565550Y-80828594D01*
X96565547Y-80828599D01*
X96563261Y-80833504D01*
X96561862Y-80838724D01*
X96561858Y-80838736D01*
X96505764Y-81048083D01*
X96505762Y-81048094D01*
X96504365Y-81053308D01*
X96503893Y-81058693D01*
X96503893Y-81058698D01*
X96491063Y-81205347D01*
X96484532Y-81280000D01*
X96485004Y-81285395D01*
X96502024Y-81479942D01*
X96504365Y-81506692D01*
X96505762Y-81511907D01*
X96505764Y-81511916D01*
X96561858Y-81721263D01*
X96561861Y-81721271D01*
X96563261Y-81726496D01*
X96659432Y-81932734D01*
X96789953Y-82119139D01*
X96950861Y-82280047D01*
X97137266Y-82410568D01*
X97142172Y-82412855D01*
X97142176Y-82412858D01*
X97195274Y-82437618D01*
X97247450Y-82483375D01*
X97266869Y-82550000D01*
X97247450Y-82616625D01*
X97195274Y-82662382D01*
X97142176Y-82687141D01*
X97142163Y-82687148D01*
X97137266Y-82689432D01*
X97132833Y-82692535D01*
X97132826Y-82692540D01*
X96955296Y-82816847D01*
X96955291Y-82816850D01*
X96950861Y-82819953D01*
X96947037Y-82823776D01*
X96947031Y-82823782D01*
X96793782Y-82977031D01*
X96793776Y-82977037D01*
X96789953Y-82980861D01*
X96786850Y-82985291D01*
X96786847Y-82985296D01*
X96662540Y-83162826D01*
X96662535Y-83162833D01*
X96659432Y-83167266D01*
X96657144Y-83172172D01*
X96657142Y-83172176D01*
X96565550Y-83368594D01*
X96565547Y-83368599D01*
X96563261Y-83373504D01*
X96561862Y-83378724D01*
X96561858Y-83378736D01*
X96505764Y-83588083D01*
X96505762Y-83588094D01*
X96504365Y-83593308D01*
X96484532Y-83820000D01*
X96504365Y-84046692D01*
X96505762Y-84051907D01*
X96505764Y-84051916D01*
X96561858Y-84261263D01*
X96561861Y-84261271D01*
X96563261Y-84266496D01*
X96659432Y-84472734D01*
X96662539Y-84477171D01*
X96662540Y-84477173D01*
X96699367Y-84529768D01*
X96789953Y-84659139D01*
X96950861Y-84820047D01*
X97137266Y-84950568D01*
X97142172Y-84952855D01*
X97142176Y-84952858D01*
X97195274Y-84977618D01*
X97247450Y-85023375D01*
X97266869Y-85090000D01*
X97247450Y-85156625D01*
X97195274Y-85202382D01*
X97142176Y-85227141D01*
X97142163Y-85227148D01*
X97137266Y-85229432D01*
X97132833Y-85232535D01*
X97132826Y-85232540D01*
X96955296Y-85356847D01*
X96955291Y-85356850D01*
X96950861Y-85359953D01*
X96947037Y-85363776D01*
X96947031Y-85363782D01*
X96793782Y-85517031D01*
X96793776Y-85517037D01*
X96789953Y-85520861D01*
X96786850Y-85525291D01*
X96786847Y-85525296D01*
X96662540Y-85702826D01*
X96662535Y-85702833D01*
X96659432Y-85707266D01*
X96657144Y-85712172D01*
X96657142Y-85712176D01*
X96565550Y-85908594D01*
X96565547Y-85908599D01*
X96563261Y-85913504D01*
X96561862Y-85918724D01*
X96561858Y-85918736D01*
X96505764Y-86128083D01*
X96505762Y-86128094D01*
X96504365Y-86133308D01*
X96484532Y-86360000D01*
X96504365Y-86586692D01*
X96505762Y-86591907D01*
X96505764Y-86591916D01*
X96561858Y-86801263D01*
X96561861Y-86801271D01*
X96563261Y-86806496D01*
X96659432Y-87012734D01*
X96789953Y-87199139D01*
X96950861Y-87360047D01*
X97137266Y-87490568D01*
X97142172Y-87492855D01*
X97142176Y-87492858D01*
X97195274Y-87517618D01*
X97247450Y-87563375D01*
X97266869Y-87630000D01*
X97247450Y-87696625D01*
X97195274Y-87742382D01*
X97142176Y-87767141D01*
X97142163Y-87767148D01*
X97137266Y-87769432D01*
X97132833Y-87772535D01*
X97132826Y-87772540D01*
X96955296Y-87896847D01*
X96955291Y-87896850D01*
X96950861Y-87899953D01*
X96947037Y-87903776D01*
X96947031Y-87903782D01*
X96793782Y-88057031D01*
X96793776Y-88057037D01*
X96789953Y-88060861D01*
X96786850Y-88065291D01*
X96786847Y-88065296D01*
X96662540Y-88242826D01*
X96662535Y-88242833D01*
X96659432Y-88247266D01*
X96657144Y-88252172D01*
X96657142Y-88252176D01*
X96565550Y-88448594D01*
X96565547Y-88448599D01*
X96563261Y-88453504D01*
X96561862Y-88458724D01*
X96561858Y-88458736D01*
X96505764Y-88668083D01*
X96505762Y-88668094D01*
X96504365Y-88673308D01*
X96484532Y-88900000D01*
X96504365Y-89126692D01*
X96505762Y-89131907D01*
X96505764Y-89131916D01*
X96561858Y-89341263D01*
X96561861Y-89341271D01*
X96563261Y-89346496D01*
X96659432Y-89552734D01*
X96789953Y-89739139D01*
X96950861Y-89900047D01*
X97137266Y-90030568D01*
X97142172Y-90032855D01*
X97142176Y-90032858D01*
X97195274Y-90057618D01*
X97247450Y-90103375D01*
X97266869Y-90170000D01*
X97247450Y-90236625D01*
X97195274Y-90282382D01*
X97142176Y-90307141D01*
X97142163Y-90307148D01*
X97137266Y-90309432D01*
X97132833Y-90312535D01*
X97132826Y-90312540D01*
X96955296Y-90436847D01*
X96955291Y-90436850D01*
X96950861Y-90439953D01*
X96947037Y-90443776D01*
X96947031Y-90443782D01*
X96793782Y-90597031D01*
X96793776Y-90597037D01*
X96789953Y-90600861D01*
X96786850Y-90605291D01*
X96786847Y-90605296D01*
X96662540Y-90782826D01*
X96662535Y-90782833D01*
X96659432Y-90787266D01*
X96657144Y-90792172D01*
X96657142Y-90792176D01*
X96565550Y-90988594D01*
X96565547Y-90988599D01*
X96563261Y-90993504D01*
X96561862Y-90998724D01*
X96561858Y-90998736D01*
X96505764Y-91208083D01*
X96505762Y-91208094D01*
X96504365Y-91213308D01*
X96503893Y-91218693D01*
X96503893Y-91218698D01*
X96487635Y-91404532D01*
X96484532Y-91440000D01*
X96485004Y-91445395D01*
X96503414Y-91655828D01*
X96504365Y-91666692D01*
X96505762Y-91671907D01*
X96505764Y-91671916D01*
X96561858Y-91881263D01*
X96561861Y-91881271D01*
X96563261Y-91886496D01*
X96659432Y-92092734D01*
X96789953Y-92279139D01*
X96950861Y-92440047D01*
X97137266Y-92570568D01*
X97142172Y-92572855D01*
X97142176Y-92572858D01*
X97195274Y-92597618D01*
X97247450Y-92643375D01*
X97266869Y-92710000D01*
X97247450Y-92776625D01*
X97195274Y-92822382D01*
X97142176Y-92847141D01*
X97142163Y-92847148D01*
X97137266Y-92849432D01*
X97132833Y-92852535D01*
X97132826Y-92852540D01*
X96955296Y-92976847D01*
X96955291Y-92976850D01*
X96950861Y-92979953D01*
X96947037Y-92983776D01*
X96947031Y-92983782D01*
X96793782Y-93137031D01*
X96793776Y-93137037D01*
X96789953Y-93140861D01*
X96786850Y-93145291D01*
X96786847Y-93145296D01*
X96662540Y-93322826D01*
X96662535Y-93322833D01*
X96659432Y-93327266D01*
X96657144Y-93332172D01*
X96657142Y-93332176D01*
X96565550Y-93528594D01*
X96565547Y-93528599D01*
X96563261Y-93533504D01*
X96561862Y-93538724D01*
X96561858Y-93538736D01*
X96505764Y-93748083D01*
X96505762Y-93748094D01*
X96504365Y-93753308D01*
X96503893Y-93758693D01*
X96503893Y-93758698D01*
X96496530Y-93842857D01*
X96484532Y-93980000D01*
X96485004Y-93985395D01*
X96493443Y-94081859D01*
X96504365Y-94206692D01*
X96505762Y-94211907D01*
X96505764Y-94211916D01*
X96561858Y-94421263D01*
X96561861Y-94421271D01*
X96563261Y-94426496D01*
X96659432Y-94632734D01*
X96789953Y-94819139D01*
X96950861Y-94980047D01*
X97137266Y-95110568D01*
X97142172Y-95112855D01*
X97142176Y-95112858D01*
X97195274Y-95137618D01*
X97247450Y-95183375D01*
X97266869Y-95250000D01*
X97247450Y-95316625D01*
X97195274Y-95362382D01*
X97142176Y-95387141D01*
X97142163Y-95387148D01*
X97137266Y-95389432D01*
X97132833Y-95392535D01*
X97132826Y-95392540D01*
X96955296Y-95516847D01*
X96955291Y-95516850D01*
X96950861Y-95519953D01*
X96947037Y-95523776D01*
X96947031Y-95523782D01*
X96793782Y-95677031D01*
X96793776Y-95677037D01*
X96789953Y-95680861D01*
X96786850Y-95685291D01*
X96786847Y-95685296D01*
X96662540Y-95862826D01*
X96662535Y-95862833D01*
X96659432Y-95867266D01*
X96657144Y-95872172D01*
X96657142Y-95872176D01*
X96565550Y-96068594D01*
X96565547Y-96068599D01*
X96563261Y-96073504D01*
X96561862Y-96078724D01*
X96561858Y-96078736D01*
X96505764Y-96288083D01*
X96505762Y-96288094D01*
X96504365Y-96293308D01*
X96503893Y-96298693D01*
X96503893Y-96298698D01*
X96497241Y-96374732D01*
X96484532Y-96520000D01*
X88900500Y-96520000D01*
X88900500Y-74680000D01*
X96484532Y-74680000D01*
X96485004Y-74685395D01*
X96503772Y-74899920D01*
X96504365Y-74906692D01*
X96505762Y-74911907D01*
X96505764Y-74911916D01*
X96561858Y-75121263D01*
X96561861Y-75121271D01*
X96563261Y-75126496D01*
X96659432Y-75332734D01*
X96662539Y-75337171D01*
X96662540Y-75337173D01*
X96682457Y-75365618D01*
X96789953Y-75519139D01*
X96950861Y-75680047D01*
X97137266Y-75810568D01*
X97343504Y-75906739D01*
X97348734Y-75908140D01*
X97348736Y-75908141D01*
X97502979Y-75949470D01*
X97563308Y-75965635D01*
X97790000Y-75985468D01*
X98016692Y-75965635D01*
X98084567Y-75947448D01*
X144774452Y-75947448D01*
X144785395Y-75950000D01*
X145783674Y-75950000D01*
X145796549Y-75946549D01*
X145800000Y-75933674D01*
X146300000Y-75933674D01*
X146303450Y-75946549D01*
X146316326Y-75950000D01*
X147314605Y-75950000D01*
X147325547Y-75947448D01*
X147325179Y-75936219D01*
X147277669Y-75758907D01*
X147273977Y-75748765D01*
X147182420Y-75552419D01*
X147177032Y-75543087D01*
X147052767Y-75365618D01*
X147045830Y-75357352D01*
X146892647Y-75204169D01*
X146884381Y-75197232D01*
X146706912Y-75072967D01*
X146697576Y-75067577D01*
X146643544Y-75042382D01*
X146591368Y-74996625D01*
X146571948Y-74930000D01*
X146591368Y-74863375D01*
X146643544Y-74817618D01*
X146697576Y-74792422D01*
X146706912Y-74787032D01*
X146884381Y-74662767D01*
X146892647Y-74655830D01*
X147045830Y-74502647D01*
X147052767Y-74494381D01*
X147177032Y-74316912D01*
X147182420Y-74307580D01*
X147273977Y-74111234D01*
X147277669Y-74101092D01*
X147325179Y-73923780D01*
X147325547Y-73912551D01*
X147314605Y-73910000D01*
X146316326Y-73910000D01*
X146303450Y-73913450D01*
X146300000Y-73926326D01*
X146300000Y-75933674D01*
X145800000Y-75933674D01*
X145800000Y-73926326D01*
X145796549Y-73913450D01*
X145783674Y-73910000D01*
X144785395Y-73910000D01*
X144774452Y-73912551D01*
X144774820Y-73923780D01*
X144822330Y-74101092D01*
X144826022Y-74111234D01*
X144917579Y-74307580D01*
X144922967Y-74316912D01*
X145047232Y-74494381D01*
X145054169Y-74502647D01*
X145207352Y-74655830D01*
X145215618Y-74662767D01*
X145393087Y-74787032D01*
X145402419Y-74792420D01*
X145456456Y-74817618D01*
X145508632Y-74863375D01*
X145528051Y-74930000D01*
X145508632Y-74996625D01*
X145456456Y-75042382D01*
X145402419Y-75067579D01*
X145393087Y-75072967D01*
X145215618Y-75197232D01*
X145207352Y-75204169D01*
X145054169Y-75357352D01*
X145047232Y-75365618D01*
X144922967Y-75543087D01*
X144917579Y-75552419D01*
X144826022Y-75748765D01*
X144822330Y-75758907D01*
X144774820Y-75936219D01*
X144774452Y-75947448D01*
X98084567Y-75947448D01*
X98236496Y-75906739D01*
X98442734Y-75810568D01*
X98629139Y-75680047D01*
X98790047Y-75519139D01*
X98920568Y-75332734D01*
X99016739Y-75126496D01*
X99075635Y-74906692D01*
X99095468Y-74680000D01*
X99075635Y-74453308D01*
X99059756Y-74394046D01*
X99018141Y-74238736D01*
X99018140Y-74238734D01*
X99016739Y-74233504D01*
X98920568Y-74027266D01*
X98790047Y-73840861D01*
X98629139Y-73679953D01*
X98495206Y-73586173D01*
X98447173Y-73552540D01*
X98447171Y-73552539D01*
X98442734Y-73549432D01*
X98384724Y-73522381D01*
X98332549Y-73476625D01*
X98313130Y-73410000D01*
X98332549Y-73343375D01*
X98384725Y-73297618D01*
X98390616Y-73294871D01*
X98442734Y-73270568D01*
X98629139Y-73140047D01*
X98790047Y-72979139D01*
X98920568Y-72792734D01*
X99016739Y-72586496D01*
X99075635Y-72366692D01*
X99095468Y-72140000D01*
X99075635Y-71913308D01*
X99016739Y-71693504D01*
X98920568Y-71487266D01*
X98790047Y-71300861D01*
X98629139Y-71139953D01*
X98600643Y-71120000D01*
X144744532Y-71120000D01*
X144745004Y-71125395D01*
X144756046Y-71251613D01*
X144764365Y-71346692D01*
X144765762Y-71351907D01*
X144765764Y-71351916D01*
X144821858Y-71561263D01*
X144821861Y-71561271D01*
X144823261Y-71566496D01*
X144825549Y-71571403D01*
X144825550Y-71571405D01*
X144880197Y-71688594D01*
X144919432Y-71772734D01*
X145049953Y-71959139D01*
X145210861Y-72120047D01*
X145397266Y-72250568D01*
X145402175Y-72252857D01*
X145402180Y-72252860D01*
X145455864Y-72277893D01*
X145508040Y-72323649D01*
X145527460Y-72390274D01*
X145508041Y-72456899D01*
X145455866Y-72502657D01*
X145402416Y-72527581D01*
X145393087Y-72532967D01*
X145215618Y-72657232D01*
X145207352Y-72664169D01*
X145054169Y-72817352D01*
X145047232Y-72825618D01*
X144922967Y-73003087D01*
X144917579Y-73012419D01*
X144826022Y-73208765D01*
X144822330Y-73218907D01*
X144774820Y-73396219D01*
X144774452Y-73407448D01*
X144785395Y-73410000D01*
X147314605Y-73410000D01*
X147325547Y-73407448D01*
X147325179Y-73396219D01*
X147277669Y-73218907D01*
X147273977Y-73208765D01*
X147182420Y-73012419D01*
X147177032Y-73003087D01*
X147052767Y-72825618D01*
X147045830Y-72817352D01*
X146892647Y-72664169D01*
X146884381Y-72657232D01*
X146706912Y-72532967D01*
X146697579Y-72527579D01*
X146644134Y-72502657D01*
X146591958Y-72456899D01*
X146572539Y-72390274D01*
X146591959Y-72323649D01*
X146644131Y-72277894D01*
X146702734Y-72250568D01*
X146889139Y-72120047D01*
X147050047Y-71959139D01*
X147180568Y-71772734D01*
X147276739Y-71566496D01*
X147335635Y-71346692D01*
X147355468Y-71120000D01*
X147335635Y-70893308D01*
X147276739Y-70673504D01*
X147180568Y-70467266D01*
X147050047Y-70280861D01*
X146889139Y-70119953D01*
X146818955Y-70070810D01*
X146707173Y-69992540D01*
X146707171Y-69992539D01*
X146702734Y-69989432D01*
X146644724Y-69962381D01*
X146592549Y-69916625D01*
X146573130Y-69850000D01*
X146592549Y-69783375D01*
X146644725Y-69737618D01*
X146702734Y-69710568D01*
X146889139Y-69580047D01*
X147050047Y-69419139D01*
X147180568Y-69232734D01*
X147276739Y-69026496D01*
X147335635Y-68806692D01*
X147355468Y-68580000D01*
X147335635Y-68353308D01*
X147320726Y-68297666D01*
X147278141Y-68138736D01*
X147278140Y-68138734D01*
X147276739Y-68133504D01*
X147180568Y-67927266D01*
X147050047Y-67740861D01*
X146889139Y-67579953D01*
X146817084Y-67529500D01*
X146707173Y-67452540D01*
X146707171Y-67452539D01*
X146702734Y-67449432D01*
X146644724Y-67422381D01*
X146592549Y-67376625D01*
X146573130Y-67310000D01*
X146592549Y-67243375D01*
X146644725Y-67197618D01*
X146702734Y-67170568D01*
X146889139Y-67040047D01*
X147050047Y-66879139D01*
X147113302Y-66788799D01*
X147152873Y-66752540D01*
X147204066Y-66736398D01*
X147257284Y-66743404D01*
X147302555Y-66772245D01*
X149497607Y-68967298D01*
X149505059Y-68975487D01*
X149509114Y-68981877D01*
X149556628Y-69026496D01*
X149558123Y-69027900D01*
X149560920Y-69030611D01*
X149580429Y-69050120D01*
X149583609Y-69052587D01*
X149592471Y-69060155D01*
X149605920Y-69072785D01*
X149618632Y-69084723D01*
X149618634Y-69084724D01*
X149624318Y-69090062D01*
X149631151Y-69093818D01*
X149631152Y-69093819D01*
X149641873Y-69099713D01*
X149658134Y-69110394D01*
X149673964Y-69122673D01*
X149714055Y-69140021D01*
X149724535Y-69145155D01*
X149762808Y-69166197D01*
X149782216Y-69171180D01*
X149800619Y-69177481D01*
X149811844Y-69182339D01*
X149811846Y-69182339D01*
X149819004Y-69185437D01*
X149862158Y-69192271D01*
X149873544Y-69194629D01*
X149915881Y-69205500D01*
X149921578Y-69205500D01*
X149968885Y-69221927D01*
X150006409Y-69256980D01*
X150119953Y-69419139D01*
X150280861Y-69580047D01*
X150467266Y-69710568D01*
X150525276Y-69737618D01*
X150577449Y-69783373D01*
X150596869Y-69849997D01*
X150577451Y-69916622D01*
X150525276Y-69962380D01*
X150472178Y-69987141D01*
X150472173Y-69987143D01*
X150467266Y-69989432D01*
X150462833Y-69992535D01*
X150462826Y-69992540D01*
X150285296Y-70116847D01*
X150285291Y-70116850D01*
X150280861Y-70119953D01*
X150277037Y-70123776D01*
X150277031Y-70123782D01*
X150123782Y-70277031D01*
X150123776Y-70277037D01*
X150119953Y-70280861D01*
X150116850Y-70285291D01*
X150116847Y-70285296D01*
X149992540Y-70462826D01*
X149992535Y-70462833D01*
X149989432Y-70467266D01*
X149987144Y-70472172D01*
X149987142Y-70472176D01*
X149895550Y-70668594D01*
X149895547Y-70668599D01*
X149893261Y-70673504D01*
X149891862Y-70678724D01*
X149891858Y-70678736D01*
X149835764Y-70888083D01*
X149835762Y-70888094D01*
X149834365Y-70893308D01*
X149833893Y-70898693D01*
X149833893Y-70898698D01*
X149816391Y-71098752D01*
X149814532Y-71120000D01*
X149815004Y-71125395D01*
X149826046Y-71251613D01*
X149834365Y-71346692D01*
X149835762Y-71351907D01*
X149835764Y-71351916D01*
X149891858Y-71561263D01*
X149891861Y-71561271D01*
X149893261Y-71566496D01*
X149895549Y-71571403D01*
X149895550Y-71571405D01*
X149950197Y-71688594D01*
X149989432Y-71772734D01*
X150119953Y-71959139D01*
X150280861Y-72120047D01*
X150467266Y-72250568D01*
X150673504Y-72346739D01*
X150678734Y-72348140D01*
X150678736Y-72348141D01*
X150767466Y-72371916D01*
X150893308Y-72405635D01*
X151120000Y-72425468D01*
X151346692Y-72405635D01*
X151566496Y-72346739D01*
X151732896Y-72269144D01*
X151793410Y-72257792D01*
X151851925Y-72276946D01*
X151894014Y-72321884D01*
X151909300Y-72381527D01*
X151909300Y-81092125D01*
X151908778Y-81103180D01*
X151907127Y-81110567D01*
X151907371Y-81118353D01*
X151907371Y-81118361D01*
X151909239Y-81177773D01*
X151909300Y-81181668D01*
X151909300Y-81209250D01*
X151909788Y-81213119D01*
X151909789Y-81213125D01*
X151909804Y-81213243D01*
X151910718Y-81224866D01*
X151911845Y-81260730D01*
X151911846Y-81260737D01*
X151912091Y-81268527D01*
X151914267Y-81276019D01*
X151914268Y-81276021D01*
X151917679Y-81287762D01*
X151921625Y-81306815D01*
X151924136Y-81326692D01*
X151927006Y-81333942D01*
X151927008Y-81333948D01*
X151940214Y-81367304D01*
X151943997Y-81378351D01*
X151956182Y-81420290D01*
X151960153Y-81427005D01*
X151960154Y-81427007D01*
X151966381Y-81437537D01*
X151974936Y-81454999D01*
X151979442Y-81466380D01*
X151979443Y-81466383D01*
X151982314Y-81473632D01*
X152002417Y-81501301D01*
X152007981Y-81508960D01*
X152014393Y-81518722D01*
X152032656Y-81549602D01*
X152032659Y-81549607D01*
X152036630Y-81556320D01*
X152042145Y-81561835D01*
X152050790Y-81570480D01*
X152063426Y-81585274D01*
X152070619Y-81595175D01*
X152070623Y-81595179D01*
X152075206Y-81601487D01*
X152081215Y-81606458D01*
X152081216Y-81606459D01*
X152108858Y-81629326D01*
X152117499Y-81637189D01*
X166799454Y-96319145D01*
X166831548Y-96374732D01*
X166831548Y-96438919D01*
X166799455Y-96494507D01*
X166743867Y-96526601D01*
X166679680Y-96526601D01*
X166601917Y-96505765D01*
X166601916Y-96505764D01*
X166596692Y-96504365D01*
X166591304Y-96503893D01*
X166591301Y-96503893D01*
X166375395Y-96485004D01*
X166370000Y-96484532D01*
X166364605Y-96485004D01*
X166148698Y-96503893D01*
X166148693Y-96503893D01*
X166143308Y-96504365D01*
X166138094Y-96505762D01*
X166138083Y-96505764D01*
X165928736Y-96561858D01*
X165928724Y-96561862D01*
X165923504Y-96563261D01*
X165918599Y-96565547D01*
X165918594Y-96565550D01*
X165722176Y-96657142D01*
X165722172Y-96657144D01*
X165717266Y-96659432D01*
X165712833Y-96662535D01*
X165712826Y-96662540D01*
X165535296Y-96786847D01*
X165535291Y-96786850D01*
X165530861Y-96789953D01*
X165527037Y-96793776D01*
X165527031Y-96793782D01*
X165373782Y-96947031D01*
X165373776Y-96947037D01*
X165369953Y-96950861D01*
X165366850Y-96955291D01*
X165366847Y-96955296D01*
X165242540Y-97132826D01*
X165242535Y-97132833D01*
X165239432Y-97137266D01*
X165237144Y-97142172D01*
X165237142Y-97142176D01*
X165145550Y-97338594D01*
X165145547Y-97338599D01*
X165143261Y-97343504D01*
X165141862Y-97348724D01*
X165141858Y-97348736D01*
X165085764Y-97558083D01*
X165085762Y-97558094D01*
X165084365Y-97563308D01*
X165083893Y-97568693D01*
X165083893Y-97568698D01*
X165076530Y-97652857D01*
X165064532Y-97790000D01*
X165065004Y-97795395D01*
X165081484Y-97983771D01*
X165084365Y-98016692D01*
X165085762Y-98021907D01*
X165085764Y-98021916D01*
X165141858Y-98231263D01*
X165141861Y-98231271D01*
X165143261Y-98236496D01*
X165239432Y-98442734D01*
X165242539Y-98447171D01*
X165242540Y-98447173D01*
X165293706Y-98520246D01*
X165369953Y-98629139D01*
X165530861Y-98790047D01*
X165717266Y-98920568D01*
X165923504Y-99016739D01*
X165928734Y-99018140D01*
X165928736Y-99018141D01*
X166084957Y-99060000D01*
X166143308Y-99075635D01*
X166370000Y-99095468D01*
X166596692Y-99075635D01*
X166816496Y-99016739D01*
X167022734Y-98920568D01*
X167209139Y-98790047D01*
X167370047Y-98629139D01*
X167500568Y-98442734D01*
X167596739Y-98236496D01*
X167655635Y-98016692D01*
X167675468Y-97790000D01*
X167655635Y-97563308D01*
X167633398Y-97480318D01*
X167633398Y-97416133D01*
X167665492Y-97360545D01*
X167721079Y-97328451D01*
X167785267Y-97328451D01*
X167840854Y-97360545D01*
X169927607Y-99447298D01*
X169935059Y-99455487D01*
X169939114Y-99461877D01*
X169980411Y-99500658D01*
X169988123Y-99507900D01*
X169990920Y-99510611D01*
X170010429Y-99530120D01*
X170013609Y-99532587D01*
X170022471Y-99540155D01*
X170035920Y-99552785D01*
X170048632Y-99564723D01*
X170048634Y-99564724D01*
X170054318Y-99570062D01*
X170061151Y-99573818D01*
X170061152Y-99573819D01*
X170071873Y-99579713D01*
X170088134Y-99590394D01*
X170103964Y-99602673D01*
X170144054Y-99620021D01*
X170154531Y-99625154D01*
X170192808Y-99646197D01*
X170209857Y-99650574D01*
X170212205Y-99651177D01*
X170230619Y-99657481D01*
X170249004Y-99665438D01*
X170292165Y-99672273D01*
X170303564Y-99674634D01*
X170345881Y-99685500D01*
X170356258Y-99685500D01*
X170359247Y-99686203D01*
X170361423Y-99686478D01*
X170361393Y-99686707D01*
X170411530Y-99698500D01*
X170455212Y-99734773D01*
X170555561Y-99867658D01*
X170555566Y-99867663D01*
X170559019Y-99872236D01*
X170563255Y-99876097D01*
X170563259Y-99876102D01*
X170675603Y-99978517D01*
X170723438Y-100022124D01*
X170912599Y-100139247D01*
X171120060Y-100219618D01*
X171338757Y-100260500D01*
X171555514Y-100260500D01*
X171561243Y-100260500D01*
X171779940Y-100219618D01*
X171987401Y-100139247D01*
X172176562Y-100022124D01*
X172340981Y-99872236D01*
X172475058Y-99694689D01*
X172574229Y-99495528D01*
X172635115Y-99281536D01*
X172655643Y-99060000D01*
X172635115Y-98838464D01*
X172574229Y-98624472D01*
X172475058Y-98425311D01*
X172471605Y-98420738D01*
X172344438Y-98252341D01*
X172344434Y-98252337D01*
X172340981Y-98247764D01*
X172336744Y-98243901D01*
X172336740Y-98243897D01*
X172180796Y-98101736D01*
X172180797Y-98101736D01*
X172176562Y-98097876D01*
X172171692Y-98094861D01*
X172171690Y-98094859D01*
X171992275Y-97983771D01*
X171992276Y-97983771D01*
X171987401Y-97980753D01*
X171779940Y-97900382D01*
X171774302Y-97899328D01*
X171566872Y-97860552D01*
X171566869Y-97860551D01*
X171561243Y-97859500D01*
X171338757Y-97859500D01*
X171333131Y-97860551D01*
X171333127Y-97860552D01*
X171125697Y-97899328D01*
X171125694Y-97899328D01*
X171120060Y-97900382D01*
X171114717Y-97902451D01*
X171114713Y-97902453D01*
X170917941Y-97978683D01*
X170917936Y-97978685D01*
X170912599Y-97980753D01*
X170907727Y-97983769D01*
X170907724Y-97983771D01*
X170728309Y-98094859D01*
X170728301Y-98094864D01*
X170723438Y-98097876D01*
X170719210Y-98101729D01*
X170719209Y-98101731D01*
X170614206Y-98197454D01*
X170559057Y-98226522D01*
X170496734Y-98225082D01*
X170442987Y-98193497D01*
X166461442Y-94211951D01*
X166428062Y-94151108D01*
X166432601Y-94081859D01*
X166473637Y-94025894D01*
X166538315Y-94000742D01*
X166596692Y-93995635D01*
X166816496Y-93936739D01*
X167022734Y-93840568D01*
X167209139Y-93710047D01*
X167370047Y-93549139D01*
X167500568Y-93362734D01*
X167596739Y-93156496D01*
X167655635Y-92936692D01*
X167675468Y-92710000D01*
X167655635Y-92483308D01*
X167596739Y-92263504D01*
X167500568Y-92057266D01*
X167370047Y-91870861D01*
X167209139Y-91709953D01*
X167048377Y-91597387D01*
X167009511Y-91553069D01*
X166995500Y-91495812D01*
X166995500Y-91440000D01*
X170244357Y-91440000D01*
X170264885Y-91661536D01*
X170266454Y-91667050D01*
X170324201Y-91870013D01*
X170324204Y-91870021D01*
X170325771Y-91875528D01*
X170328323Y-91880653D01*
X170328325Y-91880658D01*
X170422387Y-92069559D01*
X170422389Y-92069563D01*
X170424942Y-92074689D01*
X170428391Y-92079256D01*
X170428394Y-92079261D01*
X170555561Y-92247658D01*
X170555566Y-92247663D01*
X170559019Y-92252236D01*
X170563255Y-92256097D01*
X170563259Y-92256102D01*
X170588530Y-92279139D01*
X170723438Y-92402124D01*
X170912599Y-92519247D01*
X171120060Y-92599618D01*
X171338757Y-92640500D01*
X171555514Y-92640500D01*
X171561243Y-92640500D01*
X171779940Y-92599618D01*
X171987401Y-92519247D01*
X172176562Y-92402124D01*
X172340981Y-92252236D01*
X172475058Y-92074689D01*
X172574229Y-91875528D01*
X172635115Y-91661536D01*
X172655643Y-91440000D01*
X172635115Y-91218464D01*
X172574229Y-91004472D01*
X172475058Y-90805311D01*
X172461431Y-90787266D01*
X172344438Y-90632341D01*
X172344434Y-90632337D01*
X172340981Y-90627764D01*
X172336744Y-90623901D01*
X172336740Y-90623897D01*
X172180796Y-90481736D01*
X172180797Y-90481736D01*
X172176562Y-90477876D01*
X172171692Y-90474861D01*
X172171690Y-90474859D01*
X171992275Y-90363771D01*
X171992276Y-90363771D01*
X171987401Y-90360753D01*
X171849015Y-90307142D01*
X171785286Y-90282453D01*
X171785285Y-90282452D01*
X171779940Y-90280382D01*
X171774302Y-90279328D01*
X171566872Y-90240552D01*
X171566869Y-90240551D01*
X171561243Y-90239500D01*
X171338757Y-90239500D01*
X171333131Y-90240551D01*
X171333127Y-90240552D01*
X171125697Y-90279328D01*
X171125694Y-90279328D01*
X171120060Y-90280382D01*
X171114717Y-90282451D01*
X171114713Y-90282453D01*
X170917941Y-90358683D01*
X170917936Y-90358685D01*
X170912599Y-90360753D01*
X170907727Y-90363769D01*
X170907724Y-90363771D01*
X170728309Y-90474859D01*
X170728301Y-90474864D01*
X170723438Y-90477876D01*
X170719207Y-90481732D01*
X170719203Y-90481736D01*
X170563259Y-90623897D01*
X170563249Y-90623907D01*
X170559019Y-90627764D01*
X170555570Y-90632330D01*
X170555561Y-90632341D01*
X170428394Y-90800738D01*
X170428387Y-90800748D01*
X170424942Y-90805311D01*
X170422392Y-90810431D01*
X170422387Y-90810440D01*
X170328325Y-90999341D01*
X170328321Y-90999349D01*
X170325771Y-91004472D01*
X170324205Y-91009975D01*
X170324201Y-91009986D01*
X170266454Y-91212949D01*
X170264885Y-91218464D01*
X170264356Y-91224169D01*
X170264356Y-91224171D01*
X170245806Y-91424365D01*
X170244357Y-91440000D01*
X166995500Y-91440000D01*
X166995500Y-77238703D01*
X170728217Y-77238703D01*
X170735650Y-77246814D01*
X170793077Y-77287025D01*
X170802427Y-77292423D01*
X170998768Y-77383979D01*
X171008902Y-77387667D01*
X171218162Y-77443739D01*
X171228793Y-77445613D01*
X171444605Y-77464494D01*
X171455395Y-77464494D01*
X171671206Y-77445613D01*
X171681837Y-77443739D01*
X171891097Y-77387667D01*
X171901231Y-77383979D01*
X172097575Y-77292422D01*
X172106920Y-77287026D01*
X172164348Y-77246814D01*
X172171780Y-77238703D01*
X172165867Y-77229421D01*
X171461542Y-76525095D01*
X171450000Y-76518431D01*
X171438457Y-76525095D01*
X170734128Y-77229424D01*
X170728217Y-77238703D01*
X166995500Y-77238703D01*
X166995500Y-76287775D01*
X166996021Y-76276719D01*
X166997673Y-76269333D01*
X166995561Y-76202127D01*
X166995500Y-76198232D01*
X166995500Y-76174541D01*
X166995500Y-76170650D01*
X166994998Y-76166677D01*
X166994897Y-76165395D01*
X170145506Y-76165395D01*
X170164386Y-76381206D01*
X170166260Y-76391837D01*
X170222332Y-76601097D01*
X170226020Y-76611231D01*
X170317576Y-76807572D01*
X170322974Y-76816922D01*
X170363184Y-76874348D01*
X170371295Y-76881781D01*
X170380574Y-76875870D01*
X171084903Y-76171542D01*
X171091566Y-76160000D01*
X171808431Y-76160000D01*
X171815095Y-76171542D01*
X172519421Y-76875867D01*
X172528703Y-76881780D01*
X172536814Y-76874348D01*
X172577026Y-76816920D01*
X172582422Y-76807575D01*
X172673979Y-76611231D01*
X172677667Y-76601097D01*
X172733739Y-76391837D01*
X172735613Y-76381206D01*
X172754494Y-76165395D01*
X172754494Y-76154605D01*
X172735613Y-75938793D01*
X172733739Y-75928162D01*
X172677667Y-75718902D01*
X172673979Y-75708768D01*
X172582423Y-75512427D01*
X172577025Y-75503077D01*
X172536814Y-75445650D01*
X172528703Y-75438217D01*
X172519424Y-75444128D01*
X171815095Y-76148457D01*
X171808431Y-76160000D01*
X171091566Y-76160000D01*
X171091567Y-76159999D01*
X171084903Y-76148457D01*
X170380574Y-75444128D01*
X170371296Y-75438217D01*
X170363183Y-75445651D01*
X170322971Y-75503081D01*
X170317577Y-75512425D01*
X170226020Y-75708768D01*
X170222332Y-75718902D01*
X170166260Y-75928162D01*
X170164386Y-75938793D01*
X170145506Y-76154605D01*
X170145506Y-76165395D01*
X166994897Y-76165395D01*
X166994080Y-76155018D01*
X166992954Y-76119173D01*
X166992709Y-76111373D01*
X166987120Y-76092140D01*
X166983174Y-76073083D01*
X166981641Y-76060944D01*
X166980664Y-76053208D01*
X166964582Y-76012591D01*
X166960803Y-76001551D01*
X166950795Y-75967102D01*
X166950793Y-75967099D01*
X166948618Y-75959610D01*
X166938417Y-75942360D01*
X166929863Y-75924901D01*
X166922486Y-75906268D01*
X166896808Y-75870925D01*
X166890401Y-75861171D01*
X166872142Y-75830296D01*
X166872141Y-75830294D01*
X166868170Y-75823580D01*
X166854004Y-75809414D01*
X166841370Y-75794622D01*
X166829594Y-75778413D01*
X166823583Y-75773440D01*
X166823581Y-75773438D01*
X166795941Y-75750573D01*
X166787300Y-75742710D01*
X166125886Y-75081296D01*
X170728217Y-75081296D01*
X170734128Y-75090574D01*
X171438457Y-75794903D01*
X171450000Y-75801567D01*
X171461542Y-75794903D01*
X172165870Y-75090574D01*
X172171781Y-75081295D01*
X172164348Y-75073184D01*
X172106922Y-75032974D01*
X172097572Y-75027576D01*
X171901231Y-74936020D01*
X171891097Y-74932332D01*
X171681837Y-74876260D01*
X171671206Y-74874386D01*
X171455395Y-74855506D01*
X171444605Y-74855506D01*
X171228793Y-74874386D01*
X171218162Y-74876260D01*
X171008902Y-74932332D01*
X170998768Y-74936020D01*
X170802425Y-75027577D01*
X170793081Y-75032971D01*
X170735651Y-75073183D01*
X170728217Y-75081296D01*
X166125886Y-75081296D01*
X163594897Y-72550307D01*
X163562803Y-72494719D01*
X163562803Y-72430531D01*
X163569999Y-72403674D01*
X164070000Y-72403674D01*
X164073450Y-72416549D01*
X164086326Y-72420000D01*
X164664518Y-72420000D01*
X164671114Y-72419646D01*
X164719667Y-72414426D01*
X164734641Y-72410888D01*
X164853777Y-72366452D01*
X164869189Y-72358037D01*
X164970092Y-72282501D01*
X164982501Y-72270092D01*
X165058037Y-72169189D01*
X165066452Y-72153777D01*
X165110888Y-72034641D01*
X165114426Y-72019667D01*
X165119646Y-71971114D01*
X165120000Y-71964518D01*
X165120000Y-71386326D01*
X165116549Y-71373450D01*
X165103674Y-71370000D01*
X164086326Y-71370000D01*
X164073450Y-71373450D01*
X164070000Y-71386326D01*
X164070000Y-72403674D01*
X163569999Y-72403674D01*
X163570000Y-72403672D01*
X163570000Y-71386326D01*
X163566549Y-71373450D01*
X163553674Y-71370000D01*
X162536322Y-71370000D01*
X162509464Y-71377196D01*
X162445278Y-71377195D01*
X162389692Y-71345102D01*
X159539022Y-68494432D01*
X152419413Y-61374822D01*
X152387319Y-61319234D01*
X152387319Y-61255047D01*
X152404233Y-61191924D01*
X152404232Y-61191924D01*
X152405635Y-61186692D01*
X152425468Y-60960000D01*
X152405635Y-60733308D01*
X152346739Y-60513504D01*
X152250568Y-60307266D01*
X152120047Y-60120861D01*
X151959139Y-59959953D01*
X151772734Y-59829432D01*
X151714724Y-59802381D01*
X151662549Y-59756625D01*
X151643130Y-59690000D01*
X151662549Y-59623375D01*
X151714725Y-59577618D01*
X151772734Y-59550568D01*
X151959139Y-59420047D01*
X152120047Y-59259139D01*
X152250568Y-59072734D01*
X152346739Y-58866496D01*
X152405635Y-58646692D01*
X152425468Y-58420000D01*
X152405635Y-58193308D01*
X152381611Y-58103649D01*
X152348141Y-57978736D01*
X152348140Y-57978734D01*
X152346739Y-57973504D01*
X152250568Y-57767266D01*
X152120047Y-57580861D01*
X151959139Y-57419953D01*
X151897224Y-57376600D01*
X151777173Y-57292540D01*
X151777171Y-57292539D01*
X151772734Y-57289432D01*
X151714724Y-57262381D01*
X151662549Y-57216625D01*
X151643130Y-57150000D01*
X151662549Y-57083375D01*
X151714725Y-57037618D01*
X151772734Y-57010568D01*
X151959139Y-56880047D01*
X152120047Y-56719139D01*
X152250568Y-56532734D01*
X152346739Y-56326496D01*
X152405635Y-56106692D01*
X152425468Y-55880000D01*
X152420342Y-55821411D01*
X162440771Y-55821411D01*
X162440994Y-55826665D01*
X162440994Y-55826670D01*
X162447248Y-55973908D01*
X162450708Y-56055345D01*
X162451816Y-56060490D01*
X162451817Y-56060491D01*
X162492070Y-56247266D01*
X162500038Y-56284234D01*
X162502002Y-56289122D01*
X162502004Y-56289128D01*
X162566083Y-56448594D01*
X162587340Y-56501494D01*
X162590098Y-56505973D01*
X162707346Y-56696397D01*
X162707350Y-56696403D01*
X162710104Y-56700875D01*
X162864797Y-56876641D01*
X163046970Y-57023735D01*
X163051564Y-57026301D01*
X163051568Y-57026304D01*
X163152339Y-57082598D01*
X163197186Y-57125403D01*
X163215706Y-57184567D01*
X163203270Y-57245302D01*
X163162988Y-57292427D01*
X162985296Y-57416847D01*
X162985291Y-57416850D01*
X162980861Y-57419953D01*
X162977037Y-57423776D01*
X162977031Y-57423782D01*
X162823782Y-57577031D01*
X162823776Y-57577037D01*
X162819953Y-57580861D01*
X162816850Y-57585291D01*
X162816847Y-57585296D01*
X162692540Y-57762826D01*
X162692535Y-57762833D01*
X162689432Y-57767266D01*
X162687144Y-57772172D01*
X162687142Y-57772176D01*
X162595550Y-57968594D01*
X162595547Y-57968599D01*
X162593261Y-57973504D01*
X162591862Y-57978724D01*
X162591858Y-57978736D01*
X162535764Y-58188083D01*
X162535762Y-58188094D01*
X162534365Y-58193308D01*
X162533893Y-58198693D01*
X162533893Y-58198698D01*
X162524367Y-58307581D01*
X162514532Y-58420000D01*
X162515004Y-58425395D01*
X162516646Y-58444169D01*
X162534365Y-58646692D01*
X162535762Y-58651907D01*
X162535764Y-58651916D01*
X162591858Y-58861263D01*
X162591861Y-58861271D01*
X162593261Y-58866496D01*
X162689432Y-59072734D01*
X162819953Y-59259139D01*
X162980861Y-59420047D01*
X163167266Y-59550568D01*
X163172172Y-59552855D01*
X163172176Y-59552858D01*
X163225274Y-59577618D01*
X163277450Y-59623375D01*
X163296869Y-59690000D01*
X163277450Y-59756625D01*
X163225274Y-59802382D01*
X163172176Y-59827141D01*
X163172163Y-59827148D01*
X163167266Y-59829432D01*
X163162833Y-59832535D01*
X163162826Y-59832540D01*
X162985296Y-59956847D01*
X162985291Y-59956850D01*
X162980861Y-59959953D01*
X162977037Y-59963776D01*
X162977031Y-59963782D01*
X162823782Y-60117031D01*
X162823776Y-60117037D01*
X162819953Y-60120861D01*
X162816850Y-60125291D01*
X162816847Y-60125296D01*
X162692540Y-60302826D01*
X162692535Y-60302833D01*
X162689432Y-60307266D01*
X162687144Y-60312172D01*
X162687142Y-60312176D01*
X162595550Y-60508594D01*
X162595547Y-60508599D01*
X162593261Y-60513504D01*
X162591862Y-60518724D01*
X162591858Y-60518736D01*
X162535764Y-60728083D01*
X162535762Y-60728094D01*
X162534365Y-60733308D01*
X162533893Y-60738693D01*
X162533893Y-60738698D01*
X162520292Y-60894158D01*
X162514532Y-60960000D01*
X162515004Y-60965395D01*
X162533892Y-61181293D01*
X162534365Y-61186692D01*
X162535762Y-61191907D01*
X162535764Y-61191916D01*
X162591858Y-61401263D01*
X162591861Y-61401271D01*
X162593261Y-61406496D01*
X162595549Y-61411403D01*
X162595550Y-61411405D01*
X162650197Y-61528594D01*
X162689432Y-61612734D01*
X162819953Y-61799139D01*
X162980861Y-61960047D01*
X163167266Y-62090568D01*
X163172172Y-62092855D01*
X163172176Y-62092858D01*
X163225274Y-62117618D01*
X163277450Y-62163375D01*
X163296869Y-62230000D01*
X163277450Y-62296625D01*
X163225274Y-62342382D01*
X163172176Y-62367141D01*
X163172163Y-62367148D01*
X163167266Y-62369432D01*
X163162833Y-62372535D01*
X163162826Y-62372540D01*
X162985296Y-62496847D01*
X162985294Y-62496849D01*
X162980861Y-62499953D01*
X162977037Y-62503776D01*
X162977031Y-62503782D01*
X162823782Y-62657031D01*
X162823776Y-62657037D01*
X162819953Y-62660861D01*
X162816850Y-62665291D01*
X162816847Y-62665296D01*
X162692540Y-62842826D01*
X162692535Y-62842833D01*
X162689432Y-62847266D01*
X162687144Y-62852172D01*
X162687142Y-62852176D01*
X162595550Y-63048594D01*
X162595547Y-63048599D01*
X162593261Y-63053504D01*
X162591862Y-63058724D01*
X162591858Y-63058736D01*
X162535764Y-63268083D01*
X162535762Y-63268094D01*
X162534365Y-63273308D01*
X162533893Y-63278693D01*
X162533893Y-63278698D01*
X162515004Y-63494605D01*
X162514532Y-63500000D01*
X162515004Y-63505395D01*
X162527673Y-63650210D01*
X162534365Y-63726692D01*
X162535762Y-63731907D01*
X162535764Y-63731916D01*
X162591858Y-63941263D01*
X162591861Y-63941271D01*
X162593261Y-63946496D01*
X162689432Y-64152734D01*
X162819953Y-64339139D01*
X162980861Y-64500047D01*
X163167266Y-64630568D01*
X163172172Y-64632855D01*
X163172176Y-64632858D01*
X163225274Y-64657618D01*
X163277450Y-64703375D01*
X163296869Y-64770000D01*
X163277450Y-64836625D01*
X163225274Y-64882382D01*
X163172176Y-64907141D01*
X163172163Y-64907148D01*
X163167266Y-64909432D01*
X163162833Y-64912535D01*
X163162826Y-64912540D01*
X162985296Y-65036847D01*
X162985291Y-65036850D01*
X162980861Y-65039953D01*
X162977037Y-65043776D01*
X162977031Y-65043782D01*
X162823782Y-65197031D01*
X162823776Y-65197037D01*
X162819953Y-65200861D01*
X162816850Y-65205291D01*
X162816847Y-65205296D01*
X162692540Y-65382826D01*
X162692535Y-65382833D01*
X162689432Y-65387266D01*
X162687144Y-65392172D01*
X162687142Y-65392176D01*
X162595550Y-65588594D01*
X162595547Y-65588599D01*
X162593261Y-65593504D01*
X162591862Y-65598724D01*
X162591858Y-65598736D01*
X162535764Y-65808083D01*
X162535762Y-65808094D01*
X162534365Y-65813308D01*
X162533893Y-65818693D01*
X162533893Y-65818698D01*
X162519822Y-65979531D01*
X162514532Y-66040000D01*
X162515004Y-66045395D01*
X162531385Y-66232637D01*
X162534365Y-66266692D01*
X162535762Y-66271907D01*
X162535764Y-66271916D01*
X162591858Y-66481263D01*
X162591861Y-66481271D01*
X162593261Y-66486496D01*
X162689432Y-66692734D01*
X162692539Y-66697171D01*
X162692540Y-66697173D01*
X162724911Y-66743404D01*
X162819953Y-66879139D01*
X162980861Y-67040047D01*
X163167266Y-67170568D01*
X163172172Y-67172855D01*
X163172176Y-67172858D01*
X163225274Y-67197618D01*
X163277450Y-67243375D01*
X163296869Y-67310000D01*
X163277450Y-67376625D01*
X163225274Y-67422382D01*
X163172176Y-67447141D01*
X163172163Y-67447148D01*
X163167266Y-67449432D01*
X163162833Y-67452535D01*
X163162826Y-67452540D01*
X162985296Y-67576847D01*
X162985291Y-67576850D01*
X162980861Y-67579953D01*
X162977037Y-67583776D01*
X162977031Y-67583782D01*
X162823782Y-67737031D01*
X162823776Y-67737037D01*
X162819953Y-67740861D01*
X162816850Y-67745291D01*
X162816847Y-67745296D01*
X162692540Y-67922826D01*
X162692535Y-67922833D01*
X162689432Y-67927266D01*
X162687144Y-67932172D01*
X162687142Y-67932176D01*
X162595550Y-68128594D01*
X162595547Y-68128599D01*
X162593261Y-68133504D01*
X162591862Y-68138724D01*
X162591858Y-68138736D01*
X162535764Y-68348083D01*
X162535762Y-68348094D01*
X162534365Y-68353308D01*
X162533893Y-68358693D01*
X162533893Y-68358698D01*
X162522748Y-68486091D01*
X162514532Y-68580000D01*
X162515004Y-68585395D01*
X162527424Y-68727363D01*
X162534365Y-68806692D01*
X162535762Y-68811907D01*
X162535764Y-68811916D01*
X162591858Y-69021263D01*
X162591861Y-69021271D01*
X162593261Y-69026496D01*
X162595549Y-69031403D01*
X162595550Y-69031405D01*
X162646195Y-69140013D01*
X162689432Y-69232734D01*
X162819953Y-69419139D01*
X162980861Y-69580047D01*
X162985296Y-69583152D01*
X162985298Y-69583154D01*
X163006087Y-69597711D01*
X163045224Y-69642553D01*
X163058957Y-69700466D01*
X163044124Y-69758106D01*
X163004140Y-69802195D01*
X162948219Y-69822574D01*
X162920340Y-69825571D01*
X162905358Y-69829111D01*
X162786222Y-69873547D01*
X162770810Y-69881962D01*
X162669907Y-69957498D01*
X162657498Y-69969907D01*
X162581962Y-70070810D01*
X162573547Y-70086222D01*
X162529111Y-70205358D01*
X162525573Y-70220332D01*
X162520353Y-70268885D01*
X162520000Y-70275482D01*
X162520000Y-70853674D01*
X162523450Y-70866549D01*
X162536326Y-70870000D01*
X165103674Y-70870000D01*
X165116549Y-70866549D01*
X165120000Y-70853674D01*
X165120000Y-70275482D01*
X165119646Y-70268885D01*
X165114426Y-70220332D01*
X165110888Y-70205358D01*
X165066452Y-70086222D01*
X165058037Y-70070810D01*
X164982501Y-69969907D01*
X164970092Y-69957498D01*
X164869189Y-69881962D01*
X164853777Y-69873547D01*
X164734641Y-69829111D01*
X164719659Y-69825571D01*
X164691781Y-69822574D01*
X164635859Y-69802195D01*
X164595875Y-69758106D01*
X164581042Y-69700464D01*
X164594776Y-69642551D01*
X164633912Y-69597710D01*
X164659139Y-69580047D01*
X164820047Y-69419139D01*
X164950568Y-69232734D01*
X165046739Y-69026496D01*
X165105635Y-68806692D01*
X165125468Y-68580000D01*
X165105635Y-68353308D01*
X165090726Y-68297666D01*
X165048141Y-68138736D01*
X165048140Y-68138734D01*
X165046739Y-68133504D01*
X164950568Y-67927266D01*
X164820047Y-67740861D01*
X164659139Y-67579953D01*
X164587084Y-67529500D01*
X164477173Y-67452540D01*
X164477171Y-67452539D01*
X164472734Y-67449432D01*
X164414724Y-67422381D01*
X164362549Y-67376625D01*
X164343130Y-67310000D01*
X164362549Y-67243375D01*
X164414725Y-67197618D01*
X164472734Y-67170568D01*
X164659139Y-67040047D01*
X164820047Y-66879139D01*
X164950568Y-66692734D01*
X165046739Y-66486496D01*
X165105635Y-66266692D01*
X165125468Y-66040000D01*
X165105635Y-65813308D01*
X165046739Y-65593504D01*
X164950568Y-65387266D01*
X164820047Y-65200861D01*
X164659139Y-65039953D01*
X164582215Y-64986091D01*
X164477173Y-64912540D01*
X164477171Y-64912539D01*
X164472734Y-64909432D01*
X164414724Y-64882381D01*
X164362549Y-64836625D01*
X164343130Y-64770000D01*
X164362549Y-64703375D01*
X164414725Y-64657618D01*
X164472734Y-64630568D01*
X164659139Y-64500047D01*
X164820047Y-64339139D01*
X164950568Y-64152734D01*
X165046739Y-63946496D01*
X165105635Y-63726692D01*
X165125468Y-63500000D01*
X165105635Y-63273308D01*
X165046739Y-63053504D01*
X164950568Y-62847266D01*
X164820047Y-62660861D01*
X164659139Y-62499953D01*
X164570492Y-62437882D01*
X164477173Y-62372540D01*
X164477171Y-62372539D01*
X164472734Y-62369432D01*
X164414724Y-62342381D01*
X164362549Y-62296625D01*
X164343130Y-62230000D01*
X164362549Y-62163375D01*
X164414725Y-62117618D01*
X164472734Y-62090568D01*
X164659139Y-61960047D01*
X164820047Y-61799139D01*
X164950568Y-61612734D01*
X165046739Y-61406496D01*
X165105635Y-61186692D01*
X165125468Y-60960000D01*
X165105635Y-60733308D01*
X165046739Y-60513504D01*
X164950568Y-60307266D01*
X164820047Y-60120861D01*
X164659139Y-59959953D01*
X164472734Y-59829432D01*
X164414724Y-59802381D01*
X164362549Y-59756625D01*
X164343130Y-59690000D01*
X164362549Y-59623375D01*
X164414725Y-59577618D01*
X164472734Y-59550568D01*
X164659139Y-59420047D01*
X164820047Y-59259139D01*
X164950568Y-59072734D01*
X165046739Y-58866496D01*
X165105635Y-58646692D01*
X165125468Y-58420000D01*
X165105635Y-58193308D01*
X165092753Y-58145235D01*
X165092753Y-58081049D01*
X165124846Y-58025460D01*
X165180434Y-57993366D01*
X165244621Y-57993366D01*
X165300209Y-58025460D01*
X171913181Y-64638432D01*
X171940061Y-64678660D01*
X171949500Y-64726113D01*
X171949500Y-69785864D01*
X171936712Y-69840708D01*
X171900986Y-69884240D01*
X171849691Y-69907481D01*
X171793409Y-69905639D01*
X171676692Y-69874365D01*
X171671304Y-69873893D01*
X171671301Y-69873893D01*
X171455395Y-69855004D01*
X171450000Y-69854532D01*
X171444605Y-69855004D01*
X171228698Y-69873893D01*
X171228693Y-69873893D01*
X171223308Y-69874365D01*
X171218094Y-69875762D01*
X171218083Y-69875764D01*
X171008736Y-69931858D01*
X171008724Y-69931862D01*
X171003504Y-69933261D01*
X170998599Y-69935547D01*
X170998594Y-69935550D01*
X170802176Y-70027142D01*
X170802172Y-70027144D01*
X170797266Y-70029432D01*
X170792833Y-70032535D01*
X170792826Y-70032540D01*
X170615296Y-70156847D01*
X170615291Y-70156850D01*
X170610861Y-70159953D01*
X170607037Y-70163776D01*
X170607031Y-70163782D01*
X170453782Y-70317031D01*
X170453776Y-70317037D01*
X170449953Y-70320861D01*
X170446850Y-70325291D01*
X170446847Y-70325296D01*
X170322540Y-70502826D01*
X170322535Y-70502833D01*
X170319432Y-70507266D01*
X170317144Y-70512172D01*
X170317142Y-70512176D01*
X170225550Y-70708594D01*
X170225547Y-70708599D01*
X170223261Y-70713504D01*
X170221862Y-70718724D01*
X170221858Y-70718736D01*
X170165764Y-70928083D01*
X170165762Y-70928094D01*
X170164365Y-70933308D01*
X170163893Y-70938693D01*
X170163893Y-70938698D01*
X170146558Y-71136847D01*
X170144532Y-71160000D01*
X170145004Y-71165395D01*
X170162904Y-71370000D01*
X170164365Y-71386692D01*
X170165762Y-71391907D01*
X170165764Y-71391916D01*
X170221858Y-71601263D01*
X170221861Y-71601271D01*
X170223261Y-71606496D01*
X170225549Y-71611403D01*
X170225550Y-71611405D01*
X170277458Y-71722721D01*
X170319432Y-71812734D01*
X170449953Y-71999139D01*
X170610861Y-72160047D01*
X170797266Y-72290568D01*
X171003504Y-72386739D01*
X171008734Y-72388140D01*
X171008736Y-72388141D01*
X171068800Y-72404235D01*
X171223308Y-72445635D01*
X171450000Y-72465468D01*
X171676692Y-72445635D01*
X171793409Y-72414360D01*
X171849691Y-72412519D01*
X171900986Y-72435760D01*
X171936712Y-72479292D01*
X171949500Y-72534136D01*
X171949500Y-72667239D01*
X171949248Y-72675130D01*
X171944838Y-72744301D01*
X171945395Y-72749538D01*
X171945396Y-72749540D01*
X171955554Y-72844894D01*
X171955805Y-72847512D01*
X171964384Y-72948301D01*
X171965761Y-72953588D01*
X171969061Y-72971682D01*
X171969082Y-72971883D01*
X171969084Y-72971895D01*
X171969642Y-72977128D01*
X171971075Y-72982190D01*
X171971076Y-72982193D01*
X171997203Y-73074458D01*
X171997893Y-73076997D01*
X172022056Y-73169797D01*
X172022059Y-73169806D01*
X172023383Y-73174890D01*
X172025549Y-73179683D01*
X172025551Y-73179687D01*
X172025638Y-73179879D01*
X172031944Y-73197141D01*
X172032000Y-73197341D01*
X172032005Y-73197355D01*
X172033438Y-73202414D01*
X172035704Y-73207156D01*
X172035707Y-73207164D01*
X172077054Y-73293691D01*
X172078163Y-73296077D01*
X172117657Y-73383449D01*
X172117661Y-73383456D01*
X172119828Y-73388250D01*
X172122772Y-73392606D01*
X172122776Y-73392613D01*
X172122887Y-73392776D01*
X172132032Y-73408745D01*
X172132121Y-73408933D01*
X172132123Y-73408938D01*
X172134389Y-73413678D01*
X172137426Y-73417972D01*
X172192813Y-73496285D01*
X172194300Y-73498436D01*
X172250943Y-73582241D01*
X172254712Y-73586173D01*
X172266439Y-73600385D01*
X172269592Y-73604843D01*
X172273314Y-73608565D01*
X172273315Y-73608566D01*
X172341112Y-73676363D01*
X172342954Y-73678244D01*
X172412956Y-73751283D01*
X172417192Y-73754415D01*
X172417191Y-73754415D01*
X172417349Y-73754532D01*
X172431296Y-73766547D01*
X178629957Y-79965208D01*
X178663167Y-80025296D01*
X178667663Y-80044996D01*
X178710492Y-80232637D01*
X178803607Y-80469888D01*
X178931041Y-80690612D01*
X179089950Y-80889877D01*
X179276783Y-81063232D01*
X179487366Y-81206805D01*
X179491553Y-81208821D01*
X179491556Y-81208823D01*
X179512751Y-81219030D01*
X179667972Y-81293780D01*
X179717658Y-81337188D01*
X179738046Y-81399936D01*
X179723365Y-81464259D01*
X179677771Y-81511948D01*
X179614171Y-81529500D01*
X179095439Y-81529500D01*
X179095420Y-81529500D01*
X179092128Y-81529501D01*
X179088850Y-81529853D01*
X179088838Y-81529854D01*
X179040231Y-81535079D01*
X179040225Y-81535080D01*
X179032517Y-81535909D01*
X179025252Y-81538618D01*
X179025246Y-81538620D01*
X178905980Y-81583104D01*
X178905978Y-81583104D01*
X178897669Y-81586204D01*
X178890572Y-81591516D01*
X178890568Y-81591519D01*
X178789550Y-81667141D01*
X178789546Y-81667144D01*
X178782454Y-81672454D01*
X178777144Y-81679546D01*
X178777141Y-81679550D01*
X178701519Y-81780568D01*
X178701516Y-81780572D01*
X178696204Y-81787669D01*
X178693104Y-81795978D01*
X178693104Y-81795980D01*
X178648620Y-81915247D01*
X178648619Y-81915250D01*
X178645909Y-81922517D01*
X178645079Y-81930227D01*
X178645079Y-81930232D01*
X178639855Y-81978819D01*
X178639854Y-81978831D01*
X178639500Y-81982127D01*
X178639500Y-81985448D01*
X178639500Y-81985449D01*
X178639500Y-84474560D01*
X178639500Y-84474578D01*
X178639501Y-84477872D01*
X178639853Y-84481150D01*
X178639854Y-84481161D01*
X178645079Y-84529768D01*
X178645080Y-84529773D01*
X178645909Y-84537483D01*
X178648619Y-84544749D01*
X178648620Y-84544753D01*
X178682217Y-84634831D01*
X178696204Y-84672331D01*
X178782454Y-84787546D01*
X178897669Y-84873796D01*
X179032517Y-84924091D01*
X179092127Y-84930500D01*
X181587872Y-84930499D01*
X181647483Y-84924091D01*
X181782331Y-84873796D01*
X181897546Y-84787546D01*
X181983796Y-84672331D01*
X182034091Y-84537483D01*
X182040500Y-84477873D01*
X182040499Y-81982128D01*
X182034091Y-81922517D01*
X181983796Y-81787669D01*
X181897546Y-81672454D01*
X181839934Y-81629326D01*
X181789431Y-81591519D01*
X181789430Y-81591518D01*
X181782331Y-81586204D01*
X181647483Y-81535909D01*
X181639770Y-81535079D01*
X181639767Y-81535079D01*
X181591180Y-81529855D01*
X181591169Y-81529854D01*
X181587873Y-81529500D01*
X181584551Y-81529500D01*
X181065830Y-81529500D01*
X181002230Y-81511948D01*
X180956636Y-81464260D01*
X180941955Y-81399937D01*
X180962343Y-81337189D01*
X181012029Y-81293780D01*
X181155130Y-81224866D01*
X181192634Y-81206805D01*
X181403217Y-81063232D01*
X181590050Y-80889877D01*
X181748959Y-80690612D01*
X181876393Y-80469888D01*
X181969508Y-80232637D01*
X182026222Y-79984157D01*
X182045268Y-79730000D01*
X182026222Y-79475843D01*
X181969508Y-79227363D01*
X181876393Y-78990112D01*
X181748959Y-78769388D01*
X181590050Y-78570123D01*
X181403217Y-78396768D01*
X181192634Y-78253195D01*
X181188448Y-78251179D01*
X180967183Y-78144623D01*
X180967177Y-78144620D01*
X180963004Y-78142611D01*
X180819969Y-78098490D01*
X180766893Y-78065692D01*
X180736508Y-78011197D01*
X180736508Y-77948803D01*
X180766893Y-77894308D01*
X180819970Y-77861509D01*
X180963004Y-77817389D01*
X181192634Y-77706805D01*
X181403217Y-77563232D01*
X181590050Y-77389877D01*
X181748959Y-77190612D01*
X181876393Y-76969888D01*
X181969508Y-76732637D01*
X182026222Y-76484157D01*
X182045268Y-76230000D01*
X182026222Y-75975843D01*
X181969508Y-75727363D01*
X181876393Y-75490112D01*
X181748959Y-75269388D01*
X181590050Y-75070123D01*
X181403217Y-74896768D01*
X181192634Y-74753195D01*
X181188448Y-74751179D01*
X180967183Y-74644623D01*
X180967177Y-74644620D01*
X180963004Y-74642611D01*
X180958582Y-74641247D01*
X180958572Y-74641243D01*
X180819123Y-74598229D01*
X180766046Y-74565429D01*
X180735661Y-74510934D01*
X180735662Y-74448541D01*
X180766047Y-74394046D01*
X180819124Y-74361247D01*
X180958387Y-74318290D01*
X180967001Y-74314910D01*
X181188200Y-74208386D01*
X181196219Y-74203756D01*
X181341881Y-74104444D01*
X181349429Y-74096385D01*
X181343512Y-74087065D01*
X180351542Y-73095095D01*
X180340000Y-73088431D01*
X180328457Y-73095095D01*
X179336486Y-74087065D01*
X179330569Y-74096385D01*
X179338116Y-74104444D01*
X179483780Y-74203756D01*
X179491800Y-74208386D01*
X179712999Y-74314910D01*
X179721612Y-74318290D01*
X179860875Y-74361247D01*
X179913952Y-74394046D01*
X179944337Y-74448541D01*
X179944338Y-74510934D01*
X179913953Y-74565429D01*
X179860876Y-74598229D01*
X179721428Y-74641243D01*
X179721417Y-74641247D01*
X179716996Y-74642611D01*
X179712827Y-74644618D01*
X179712816Y-74644623D01*
X179491551Y-74751179D01*
X179491544Y-74751182D01*
X179487366Y-74753195D01*
X179483533Y-74755808D01*
X179483530Y-74755810D01*
X179309611Y-74874386D01*
X179276783Y-74896768D01*
X179273391Y-74899914D01*
X179273385Y-74899920D01*
X179093351Y-75066967D01*
X179089950Y-75070123D01*
X179087060Y-75073745D01*
X179087057Y-75073750D01*
X178933933Y-75265761D01*
X178931041Y-75269388D01*
X178928722Y-75273403D01*
X178928721Y-75273406D01*
X178805928Y-75486091D01*
X178805925Y-75486096D01*
X178803607Y-75490112D01*
X178801913Y-75494426D01*
X178801911Y-75494432D01*
X178712189Y-75723038D01*
X178710492Y-75727363D01*
X178709459Y-75731884D01*
X178709458Y-75731891D01*
X178680904Y-75856993D01*
X178650119Y-75914588D01*
X178594340Y-75948554D01*
X178529041Y-75949470D01*
X178472332Y-75917081D01*
X175289881Y-72734630D01*
X178635580Y-72734630D01*
X178653927Y-72979453D01*
X178655306Y-72988606D01*
X178709936Y-73227957D01*
X178712669Y-73236817D01*
X178802360Y-73465346D01*
X178806379Y-73473692D01*
X178929135Y-73686310D01*
X178934347Y-73693955D01*
X178962537Y-73729305D01*
X178973773Y-73737278D01*
X178985832Y-73730613D01*
X179974904Y-72741542D01*
X179981568Y-72729999D01*
X180698431Y-72729999D01*
X180705095Y-72741542D01*
X181694167Y-73730614D01*
X181706224Y-73737278D01*
X181717461Y-73729306D01*
X181745653Y-73693954D01*
X181750863Y-73686312D01*
X181873620Y-73473692D01*
X181877639Y-73465346D01*
X181967330Y-73236817D01*
X181970063Y-73227957D01*
X182024693Y-72988606D01*
X182026072Y-72979453D01*
X182044420Y-72734630D01*
X182044420Y-72725370D01*
X182026072Y-72480546D01*
X182024693Y-72471393D01*
X181970063Y-72232042D01*
X181967330Y-72223182D01*
X181877639Y-71994653D01*
X181873620Y-71986307D01*
X181750864Y-71773689D01*
X181745652Y-71766044D01*
X181717460Y-71730691D01*
X181706225Y-71722720D01*
X181694167Y-71729384D01*
X180705095Y-72718457D01*
X180698431Y-72729999D01*
X179981568Y-72729999D01*
X179974904Y-72718457D01*
X178985832Y-71729385D01*
X178973773Y-71722721D01*
X178962538Y-71730693D01*
X178934343Y-71766048D01*
X178929137Y-71773685D01*
X178806379Y-71986307D01*
X178802360Y-71994653D01*
X178712669Y-72223182D01*
X178709936Y-72232042D01*
X178655306Y-72471393D01*
X178653927Y-72480546D01*
X178635580Y-72725370D01*
X178635580Y-72734630D01*
X175289881Y-72734630D01*
X174736819Y-72181568D01*
X174709939Y-72141340D01*
X174700500Y-72093887D01*
X174700500Y-69230000D01*
X178634732Y-69230000D01*
X178635079Y-69234630D01*
X178649192Y-69422968D01*
X178653778Y-69484157D01*
X178654808Y-69488670D01*
X178654809Y-69488676D01*
X178705977Y-69712857D01*
X178710492Y-69732637D01*
X178803607Y-69969888D01*
X178931041Y-70190612D01*
X179089950Y-70389877D01*
X179276783Y-70563232D01*
X179487366Y-70706805D01*
X179716996Y-70817389D01*
X179721424Y-70818754D01*
X179721427Y-70818756D01*
X179860876Y-70861770D01*
X179913952Y-70894569D01*
X179944337Y-70949064D01*
X179944338Y-71011458D01*
X179913953Y-71065953D01*
X179860876Y-71098752D01*
X179721609Y-71141710D01*
X179712999Y-71145089D01*
X179491808Y-71251609D01*
X179483775Y-71256247D01*
X179338116Y-71355555D01*
X179330568Y-71363613D01*
X179336484Y-71372931D01*
X180328457Y-72364904D01*
X180340000Y-72371568D01*
X180351542Y-72364904D01*
X181343512Y-71372933D01*
X181349429Y-71363613D01*
X181341881Y-71355554D01*
X181196220Y-71256243D01*
X181188200Y-71251613D01*
X180967001Y-71145089D01*
X180958390Y-71141710D01*
X180819123Y-71098752D01*
X180766046Y-71065953D01*
X180735661Y-71011458D01*
X180735662Y-70949064D01*
X180766047Y-70894569D01*
X180819124Y-70861770D01*
X180963004Y-70817389D01*
X181192634Y-70706805D01*
X181403217Y-70563232D01*
X181590050Y-70389877D01*
X181748959Y-70190612D01*
X181876393Y-69969888D01*
X181969508Y-69732637D01*
X182026222Y-69484157D01*
X182045268Y-69230000D01*
X182026222Y-68975843D01*
X181969508Y-68727363D01*
X181876393Y-68490112D01*
X181748959Y-68269388D01*
X181590050Y-68070123D01*
X181403217Y-67896768D01*
X181192634Y-67753195D01*
X181176232Y-67745296D01*
X180967183Y-67644623D01*
X180967177Y-67644620D01*
X180963004Y-67642611D01*
X180819969Y-67598490D01*
X180766893Y-67565692D01*
X180736508Y-67511197D01*
X180736508Y-67448803D01*
X180766893Y-67394308D01*
X180819970Y-67361509D01*
X180963004Y-67317389D01*
X181192634Y-67206805D01*
X181403217Y-67063232D01*
X181590050Y-66889877D01*
X181748959Y-66690612D01*
X181876393Y-66469888D01*
X181969508Y-66232637D01*
X182026222Y-65984157D01*
X182045268Y-65730000D01*
X182026222Y-65475843D01*
X181969508Y-65227363D01*
X181876393Y-64990112D01*
X181748959Y-64769388D01*
X181590050Y-64570123D01*
X181403217Y-64396768D01*
X181192634Y-64253195D01*
X181188448Y-64251179D01*
X180967183Y-64144623D01*
X180967177Y-64144620D01*
X180963004Y-64142611D01*
X180958578Y-64141245D01*
X180958571Y-64141243D01*
X180819970Y-64098490D01*
X180766893Y-64065690D01*
X180736508Y-64011195D01*
X180736509Y-63948801D01*
X180766894Y-63894307D01*
X180819968Y-63861509D01*
X180963004Y-63817389D01*
X181192634Y-63706805D01*
X181403217Y-63563232D01*
X181590050Y-63389877D01*
X181748959Y-63190612D01*
X181876393Y-62969888D01*
X181969508Y-62732637D01*
X182026222Y-62484157D01*
X182045268Y-62230000D01*
X182026222Y-61975843D01*
X181969508Y-61727363D01*
X181876393Y-61490112D01*
X181748959Y-61269388D01*
X181590050Y-61070123D01*
X181403217Y-60896768D01*
X181192634Y-60753195D01*
X181162531Y-60738698D01*
X180967183Y-60644623D01*
X180967177Y-60644620D01*
X180963004Y-60642611D01*
X180819969Y-60598490D01*
X180766893Y-60565692D01*
X180736508Y-60511197D01*
X180736508Y-60448803D01*
X180766893Y-60394308D01*
X180819970Y-60361509D01*
X180963004Y-60317389D01*
X181192634Y-60206805D01*
X181403217Y-60063232D01*
X181590050Y-59889877D01*
X181748959Y-59690612D01*
X181876393Y-59469888D01*
X181969508Y-59232637D01*
X182026222Y-58984157D01*
X182045268Y-58730000D01*
X182026222Y-58475843D01*
X181969508Y-58227363D01*
X181876393Y-57990112D01*
X181748959Y-57769388D01*
X181590050Y-57570123D01*
X181403217Y-57396768D01*
X181192634Y-57253195D01*
X181050127Y-57184567D01*
X180967183Y-57144623D01*
X180967177Y-57144620D01*
X180963004Y-57142611D01*
X180819969Y-57098490D01*
X180766893Y-57065692D01*
X180736508Y-57011197D01*
X180736508Y-56948803D01*
X180766893Y-56894308D01*
X180819970Y-56861509D01*
X180963004Y-56817389D01*
X181192634Y-56706805D01*
X181403217Y-56563232D01*
X181590050Y-56389877D01*
X181748959Y-56190612D01*
X181876393Y-55969888D01*
X181969508Y-55732637D01*
X182026222Y-55484157D01*
X182045268Y-55230000D01*
X182026222Y-54975843D01*
X181969508Y-54727363D01*
X181876393Y-54490112D01*
X181748959Y-54269388D01*
X181590050Y-54070123D01*
X181403217Y-53896768D01*
X181192634Y-53753195D01*
X181188448Y-53751179D01*
X180967183Y-53644623D01*
X180967177Y-53644620D01*
X180963004Y-53642611D01*
X180958582Y-53641247D01*
X180958572Y-53641243D01*
X180723891Y-53568854D01*
X180723886Y-53568852D01*
X180719458Y-53567487D01*
X180714878Y-53566796D01*
X180714871Y-53566795D01*
X180472018Y-53530190D01*
X180472007Y-53530189D01*
X180467435Y-53529500D01*
X180212565Y-53529500D01*
X180207993Y-53530189D01*
X180207981Y-53530190D01*
X179965128Y-53566795D01*
X179965118Y-53566797D01*
X179960542Y-53567487D01*
X179956116Y-53568851D01*
X179956108Y-53568854D01*
X179721427Y-53641243D01*
X179721412Y-53641248D01*
X179716996Y-53642611D01*
X179712827Y-53644618D01*
X179712816Y-53644623D01*
X179491551Y-53751179D01*
X179491544Y-53751182D01*
X179487366Y-53753195D01*
X179483533Y-53755808D01*
X179483530Y-53755810D01*
X179438522Y-53786496D01*
X179276783Y-53896768D01*
X179273391Y-53899914D01*
X179273385Y-53899920D01*
X179093351Y-54066967D01*
X179089950Y-54070123D01*
X179087060Y-54073745D01*
X179087057Y-54073750D01*
X178971711Y-54218389D01*
X178931041Y-54269388D01*
X178928722Y-54273403D01*
X178928721Y-54273406D01*
X178805928Y-54486091D01*
X178805925Y-54486096D01*
X178803607Y-54490112D01*
X178801913Y-54494426D01*
X178801911Y-54494432D01*
X178712189Y-54723038D01*
X178710492Y-54727363D01*
X178709459Y-54731884D01*
X178709458Y-54731891D01*
X178654809Y-54971323D01*
X178654807Y-54971331D01*
X178653778Y-54975843D01*
X178653431Y-54980462D01*
X178653431Y-54980468D01*
X178637641Y-55191181D01*
X178634732Y-55230000D01*
X178653778Y-55484157D01*
X178654808Y-55488670D01*
X178654809Y-55488676D01*
X178702272Y-55696625D01*
X178710492Y-55732637D01*
X178712188Y-55736960D01*
X178712189Y-55736961D01*
X178747397Y-55826670D01*
X178803607Y-55969888D01*
X178931041Y-56190612D01*
X179089950Y-56389877D01*
X179276783Y-56563232D01*
X179487366Y-56706805D01*
X179716996Y-56817389D01*
X179721424Y-56818754D01*
X179721427Y-56818756D01*
X179860029Y-56861509D01*
X179913106Y-56894308D01*
X179943491Y-56948803D01*
X179943491Y-57011197D01*
X179913106Y-57065692D01*
X179860029Y-57098491D01*
X179721427Y-57141243D01*
X179721412Y-57141248D01*
X179716996Y-57142611D01*
X179712827Y-57144618D01*
X179712816Y-57144623D01*
X179491551Y-57251179D01*
X179491544Y-57251182D01*
X179487366Y-57253195D01*
X179483533Y-57255808D01*
X179483530Y-57255810D01*
X179343318Y-57351405D01*
X179276783Y-57396768D01*
X179273391Y-57399914D01*
X179273385Y-57399920D01*
X179093351Y-57566967D01*
X179089950Y-57570123D01*
X179087060Y-57573745D01*
X179087057Y-57573750D01*
X178952110Y-57742968D01*
X178931041Y-57769388D01*
X178928722Y-57773403D01*
X178928721Y-57773406D01*
X178805928Y-57986091D01*
X178805925Y-57986096D01*
X178803607Y-57990112D01*
X178801913Y-57994426D01*
X178801911Y-57994432D01*
X178721742Y-58198698D01*
X178710492Y-58227363D01*
X178709459Y-58231884D01*
X178709458Y-58231891D01*
X178654809Y-58471323D01*
X178654807Y-58471331D01*
X178653778Y-58475843D01*
X178634732Y-58730000D01*
X178635079Y-58734630D01*
X178645328Y-58871405D01*
X178653778Y-58984157D01*
X178654808Y-58988670D01*
X178654809Y-58988676D01*
X178672874Y-59067823D01*
X178710492Y-59232637D01*
X178803607Y-59469888D01*
X178931041Y-59690612D01*
X179089950Y-59889877D01*
X179276783Y-60063232D01*
X179487366Y-60206805D01*
X179716996Y-60317389D01*
X179721424Y-60318754D01*
X179721427Y-60318756D01*
X179860029Y-60361509D01*
X179913106Y-60394308D01*
X179943491Y-60448803D01*
X179943491Y-60511197D01*
X179913106Y-60565692D01*
X179860029Y-60598491D01*
X179721427Y-60641243D01*
X179721412Y-60641248D01*
X179716996Y-60642611D01*
X179712827Y-60644618D01*
X179712816Y-60644623D01*
X179491551Y-60751179D01*
X179491544Y-60751182D01*
X179487366Y-60753195D01*
X179483533Y-60755808D01*
X179483530Y-60755810D01*
X179280611Y-60894158D01*
X179276783Y-60896768D01*
X179273391Y-60899914D01*
X179273385Y-60899920D01*
X179093351Y-61066967D01*
X179089950Y-61070123D01*
X179087060Y-61073745D01*
X179087057Y-61073750D01*
X178933933Y-61265761D01*
X178931041Y-61269388D01*
X178928722Y-61273403D01*
X178928721Y-61273406D01*
X178805928Y-61486091D01*
X178805925Y-61486096D01*
X178803607Y-61490112D01*
X178801913Y-61494426D01*
X178801911Y-61494432D01*
X178712189Y-61723038D01*
X178710492Y-61727363D01*
X178709459Y-61731884D01*
X178709458Y-61731891D01*
X178654809Y-61971323D01*
X178654807Y-61971331D01*
X178653778Y-61975843D01*
X178634732Y-62230000D01*
X178635079Y-62234630D01*
X178645413Y-62372540D01*
X178653778Y-62484157D01*
X178654808Y-62488670D01*
X178654809Y-62488676D01*
X178695122Y-62665296D01*
X178710492Y-62732637D01*
X178803607Y-62969888D01*
X178931041Y-63190612D01*
X179089950Y-63389877D01*
X179276783Y-63563232D01*
X179487366Y-63706805D01*
X179716996Y-63817389D01*
X179860029Y-63861509D01*
X179913105Y-63894307D01*
X179943490Y-63948802D01*
X179943491Y-64011195D01*
X179913106Y-64065690D01*
X179860030Y-64098490D01*
X179721424Y-64141245D01*
X179716996Y-64142611D01*
X179712827Y-64144618D01*
X179712816Y-64144623D01*
X179491551Y-64251179D01*
X179491544Y-64251182D01*
X179487366Y-64253195D01*
X179483533Y-64255808D01*
X179483530Y-64255810D01*
X179361309Y-64339139D01*
X179276783Y-64396768D01*
X179273391Y-64399914D01*
X179273385Y-64399920D01*
X179093351Y-64566967D01*
X179089950Y-64570123D01*
X179087060Y-64573745D01*
X179087057Y-64573750D01*
X178944974Y-64751916D01*
X178931041Y-64769388D01*
X178928722Y-64773403D01*
X178928721Y-64773406D01*
X178805928Y-64986091D01*
X178805925Y-64986096D01*
X178803607Y-64990112D01*
X178801913Y-64994426D01*
X178801911Y-64994432D01*
X178712189Y-65223038D01*
X178710492Y-65227363D01*
X178709459Y-65231884D01*
X178709458Y-65231891D01*
X178654809Y-65471323D01*
X178654807Y-65471331D01*
X178653778Y-65475843D01*
X178653431Y-65480462D01*
X178653431Y-65480468D01*
X178642017Y-65632780D01*
X178634732Y-65730000D01*
X178653778Y-65984157D01*
X178654808Y-65988670D01*
X178654809Y-65988676D01*
X178667755Y-66045395D01*
X178710492Y-66232637D01*
X178712188Y-66236960D01*
X178712189Y-66236961D01*
X178780956Y-66412176D01*
X178803607Y-66469888D01*
X178931041Y-66690612D01*
X179089950Y-66889877D01*
X179276783Y-67063232D01*
X179487366Y-67206805D01*
X179716996Y-67317389D01*
X179721424Y-67318754D01*
X179721427Y-67318756D01*
X179860029Y-67361509D01*
X179913106Y-67394308D01*
X179943491Y-67448803D01*
X179943491Y-67511197D01*
X179913106Y-67565692D01*
X179860029Y-67598491D01*
X179721427Y-67641243D01*
X179721412Y-67641248D01*
X179716996Y-67642611D01*
X179712827Y-67644618D01*
X179712816Y-67644623D01*
X179491551Y-67751179D01*
X179491544Y-67751182D01*
X179487366Y-67753195D01*
X179276783Y-67896768D01*
X179273391Y-67899914D01*
X179273385Y-67899920D01*
X179104937Y-68056217D01*
X179089950Y-68070123D01*
X179087060Y-68073745D01*
X179087057Y-68073750D01*
X178947959Y-68248173D01*
X178931041Y-68269388D01*
X178928722Y-68273403D01*
X178928721Y-68273406D01*
X178805928Y-68486091D01*
X178805925Y-68486096D01*
X178803607Y-68490112D01*
X178801913Y-68494426D01*
X178801911Y-68494432D01*
X178761716Y-68596847D01*
X178710492Y-68727363D01*
X178709459Y-68731884D01*
X178709458Y-68731891D01*
X178654809Y-68971323D01*
X178654807Y-68971331D01*
X178653778Y-68975843D01*
X178653431Y-68980462D01*
X178653431Y-68980468D01*
X178644937Y-69093819D01*
X178634732Y-69230000D01*
X174700500Y-69230000D01*
X174700500Y-64152766D01*
X174700751Y-64144875D01*
X174700983Y-64141243D01*
X174705162Y-64075699D01*
X174694439Y-63975055D01*
X174694192Y-63972470D01*
X174685616Y-63871699D01*
X174684240Y-63866418D01*
X174680936Y-63848298D01*
X174680916Y-63848110D01*
X174680915Y-63848107D01*
X174680358Y-63842872D01*
X174678922Y-63837802D01*
X174678921Y-63837795D01*
X174652786Y-63745503D01*
X174652095Y-63742961D01*
X174627945Y-63650210D01*
X174627944Y-63650209D01*
X174626617Y-63645110D01*
X174624445Y-63640305D01*
X174624365Y-63640127D01*
X174618051Y-63622841D01*
X174617998Y-63622655D01*
X174616563Y-63617587D01*
X174572922Y-63526258D01*
X174571822Y-63523890D01*
X174532341Y-63436549D01*
X174530172Y-63431750D01*
X174527225Y-63427391D01*
X174527223Y-63427386D01*
X174527115Y-63427226D01*
X174517965Y-63411249D01*
X174515611Y-63406322D01*
X174457176Y-63323699D01*
X174455712Y-63321582D01*
X174407331Y-63250000D01*
X174402004Y-63242119D01*
X174402003Y-63242117D01*
X174399057Y-63237759D01*
X174395413Y-63233957D01*
X174395285Y-63233823D01*
X174383552Y-63219602D01*
X174380408Y-63215157D01*
X174308886Y-63143635D01*
X174307044Y-63141754D01*
X174240689Y-63072520D01*
X174240688Y-63072519D01*
X174237044Y-63068717D01*
X174232646Y-63065464D01*
X174218704Y-63053453D01*
X166106397Y-54941146D01*
X166100994Y-54935388D01*
X166058679Y-54887308D01*
X166058676Y-54887305D01*
X166055203Y-54883359D01*
X165976503Y-54819813D01*
X165974474Y-54818139D01*
X165964333Y-54809589D01*
X165897132Y-54752930D01*
X165892592Y-54750265D01*
X165892587Y-54750262D01*
X165892404Y-54750155D01*
X165877279Y-54739696D01*
X165873030Y-54736265D01*
X165857095Y-54727363D01*
X165812230Y-54702300D01*
X169944357Y-54702300D01*
X169944781Y-54707417D01*
X169964467Y-54945001D01*
X169964468Y-54945009D01*
X169964892Y-54950121D01*
X169966149Y-54955088D01*
X169966151Y-54955095D01*
X170018272Y-55160914D01*
X170025937Y-55191181D01*
X170027997Y-55195877D01*
X170123766Y-55414210D01*
X170123769Y-55414216D01*
X170125827Y-55418907D01*
X170128627Y-55423193D01*
X170128631Y-55423200D01*
X170174141Y-55492858D01*
X170261836Y-55627085D01*
X170265310Y-55630859D01*
X170265311Y-55630860D01*
X170426784Y-55806267D01*
X170426787Y-55806270D01*
X170430256Y-55810038D01*
X170626491Y-55962774D01*
X170845190Y-56081128D01*
X171080386Y-56161871D01*
X171325665Y-56202800D01*
X171569201Y-56202800D01*
X171574335Y-56202800D01*
X171819614Y-56161871D01*
X172054810Y-56081128D01*
X172273509Y-55962774D01*
X172469744Y-55810038D01*
X172638164Y-55627085D01*
X172774173Y-55418907D01*
X172874063Y-55191181D01*
X172935108Y-54950121D01*
X172955643Y-54702300D01*
X172935108Y-54454479D01*
X172874063Y-54213419D01*
X172779209Y-53997173D01*
X172776233Y-53990389D01*
X172776232Y-53990387D01*
X172774173Y-53985693D01*
X172638164Y-53777515D01*
X172569408Y-53702826D01*
X172473215Y-53598332D01*
X172473211Y-53598329D01*
X172469744Y-53594562D01*
X172273509Y-53441826D01*
X172268997Y-53439384D01*
X172059316Y-53325910D01*
X172059310Y-53325907D01*
X172054810Y-53323472D01*
X172049969Y-53321810D01*
X172049962Y-53321807D01*
X171824465Y-53244394D01*
X171824461Y-53244393D01*
X171819614Y-53242729D01*
X171810768Y-53241252D01*
X171579398Y-53202644D01*
X171579387Y-53202643D01*
X171574335Y-53201800D01*
X171325665Y-53201800D01*
X171320613Y-53202643D01*
X171320601Y-53202644D01*
X171085443Y-53241885D01*
X171085441Y-53241885D01*
X171080386Y-53242729D01*
X171075541Y-53244392D01*
X171075534Y-53244394D01*
X170850037Y-53321807D01*
X170850026Y-53321811D01*
X170845190Y-53323472D01*
X170840693Y-53325905D01*
X170840683Y-53325910D01*
X170631002Y-53439384D01*
X170630995Y-53439388D01*
X170626491Y-53441826D01*
X170622448Y-53444972D01*
X170622440Y-53444978D01*
X170434304Y-53591411D01*
X170430256Y-53594562D01*
X170426793Y-53598323D01*
X170426784Y-53598332D01*
X170265311Y-53773739D01*
X170265305Y-53773746D01*
X170261836Y-53777515D01*
X170259031Y-53781806D01*
X170259028Y-53781812D01*
X170128631Y-53981399D01*
X170128624Y-53981411D01*
X170125827Y-53985693D01*
X170123772Y-53990377D01*
X170123766Y-53990389D01*
X170039294Y-54182968D01*
X170025937Y-54213419D01*
X170024679Y-54218384D01*
X170024678Y-54218389D01*
X169966151Y-54449504D01*
X169966149Y-54449513D01*
X169964892Y-54454479D01*
X169964468Y-54459588D01*
X169964467Y-54459598D01*
X169950135Y-54632567D01*
X169944357Y-54702300D01*
X165812230Y-54702300D01*
X165784756Y-54686952D01*
X165782472Y-54685644D01*
X165699733Y-54637091D01*
X165699729Y-54637089D01*
X165695191Y-54634426D01*
X165690268Y-54632568D01*
X165690266Y-54632567D01*
X165690064Y-54632491D01*
X165673391Y-54624739D01*
X165673224Y-54624645D01*
X165673211Y-54624639D01*
X165668619Y-54622074D01*
X165663661Y-54620322D01*
X165663654Y-54620319D01*
X165573238Y-54588373D01*
X165570767Y-54587470D01*
X165481050Y-54553613D01*
X165481047Y-54553612D01*
X165476126Y-54551755D01*
X165470963Y-54550756D01*
X165470958Y-54550755D01*
X165470809Y-54550726D01*
X165470755Y-54550716D01*
X165453001Y-54545891D01*
X165447849Y-54544071D01*
X165442664Y-54543182D01*
X165442657Y-54543180D01*
X165348147Y-54526974D01*
X165345561Y-54526502D01*
X165251414Y-54508295D01*
X165251408Y-54508294D01*
X165246241Y-54507295D01*
X165240982Y-54507183D01*
X165240970Y-54507182D01*
X165240755Y-54507178D01*
X165222472Y-54505426D01*
X165222264Y-54505390D01*
X165222261Y-54505389D01*
X165217072Y-54504500D01*
X165211805Y-54504500D01*
X165115907Y-54504500D01*
X165113275Y-54504472D01*
X165017418Y-54502436D01*
X165017408Y-54502436D01*
X165012150Y-54502325D01*
X165006943Y-54503104D01*
X165006933Y-54503105D01*
X165006748Y-54503133D01*
X164988389Y-54504500D01*
X164794048Y-54504500D01*
X164737753Y-54490985D01*
X164693730Y-54453385D01*
X164671575Y-54399898D01*
X164676117Y-54342182D01*
X164706367Y-54292819D01*
X164733425Y-54265761D01*
X164820047Y-54179139D01*
X164950568Y-53992734D01*
X165046739Y-53786496D01*
X165105635Y-53566692D01*
X165125468Y-53340000D01*
X165105635Y-53113308D01*
X165046739Y-52893504D01*
X164950568Y-52687266D01*
X164820047Y-52500861D01*
X164659139Y-52339953D01*
X164597224Y-52296600D01*
X164477173Y-52212540D01*
X164477171Y-52212539D01*
X164472734Y-52209432D01*
X164266496Y-52113261D01*
X164261271Y-52111861D01*
X164261263Y-52111858D01*
X164051916Y-52055764D01*
X164051907Y-52055762D01*
X164046692Y-52054365D01*
X164041304Y-52053893D01*
X164041301Y-52053893D01*
X163825395Y-52035004D01*
X163820000Y-52034532D01*
X163814605Y-52035004D01*
X163598698Y-52053893D01*
X163598693Y-52053893D01*
X163593308Y-52054365D01*
X163588094Y-52055762D01*
X163588083Y-52055764D01*
X163378736Y-52111858D01*
X163378724Y-52111862D01*
X163373504Y-52113261D01*
X163368599Y-52115547D01*
X163368594Y-52115550D01*
X163172176Y-52207142D01*
X163172172Y-52207144D01*
X163167266Y-52209432D01*
X163162833Y-52212535D01*
X163162826Y-52212540D01*
X162985296Y-52336847D01*
X162985291Y-52336850D01*
X162980861Y-52339953D01*
X162977037Y-52343776D01*
X162977031Y-52343782D01*
X162823782Y-52497031D01*
X162823776Y-52497037D01*
X162819953Y-52500861D01*
X162816850Y-52505291D01*
X162816847Y-52505296D01*
X162692540Y-52682826D01*
X162692535Y-52682833D01*
X162689432Y-52687266D01*
X162687144Y-52692172D01*
X162687142Y-52692176D01*
X162595550Y-52888594D01*
X162595547Y-52888599D01*
X162593261Y-52893504D01*
X162591862Y-52898724D01*
X162591858Y-52898736D01*
X162535764Y-53108083D01*
X162535762Y-53108094D01*
X162534365Y-53113308D01*
X162533893Y-53118693D01*
X162533893Y-53118698D01*
X162523116Y-53241885D01*
X162514532Y-53340000D01*
X162515004Y-53345395D01*
X162523440Y-53441826D01*
X162534365Y-53566692D01*
X162535762Y-53571907D01*
X162535764Y-53571916D01*
X162591858Y-53781263D01*
X162591861Y-53781271D01*
X162593261Y-53786496D01*
X162689432Y-53992734D01*
X162819953Y-54179139D01*
X162980861Y-54340047D01*
X163151599Y-54459598D01*
X163158870Y-54464689D01*
X163199152Y-54511813D01*
X163211588Y-54572548D01*
X163193068Y-54631712D01*
X163148929Y-54673842D01*
X163146750Y-54674828D01*
X163142387Y-54677776D01*
X163142383Y-54677779D01*
X162957126Y-54802991D01*
X162957122Y-54802993D01*
X162952759Y-54805943D01*
X162948959Y-54809584D01*
X162948954Y-54809589D01*
X162787520Y-54964310D01*
X162787513Y-54964317D01*
X162783717Y-54967956D01*
X162780589Y-54972185D01*
X162780584Y-54972191D01*
X162647620Y-55151970D01*
X162647613Y-55151981D01*
X162644487Y-55156208D01*
X162642115Y-55160911D01*
X162642114Y-55160914D01*
X162604947Y-55234630D01*
X162539074Y-55365282D01*
X162537533Y-55370312D01*
X162537532Y-55370316D01*
X162472052Y-55584128D01*
X162472049Y-55584138D01*
X162470511Y-55589163D01*
X162469842Y-55594381D01*
X162469842Y-55594385D01*
X162452139Y-55732637D01*
X162440771Y-55821411D01*
X152420342Y-55821411D01*
X152405635Y-55653308D01*
X152389847Y-55594385D01*
X152348141Y-55438736D01*
X152348140Y-55438734D01*
X152346739Y-55433504D01*
X152250568Y-55227266D01*
X152120047Y-55040861D01*
X151959139Y-54879953D01*
X151870859Y-54818139D01*
X151777173Y-54752540D01*
X151777171Y-54752539D01*
X151772734Y-54749432D01*
X151714724Y-54722381D01*
X151662549Y-54676625D01*
X151643130Y-54610000D01*
X151662549Y-54543375D01*
X151714725Y-54497618D01*
X151772734Y-54470568D01*
X151959139Y-54340047D01*
X152120047Y-54179139D01*
X152250568Y-53992734D01*
X152346739Y-53786496D01*
X152405635Y-53566692D01*
X152425468Y-53340000D01*
X152405635Y-53113308D01*
X152346739Y-52893504D01*
X152250568Y-52687266D01*
X152120047Y-52500861D01*
X151959139Y-52339953D01*
X151897224Y-52296600D01*
X151777173Y-52212540D01*
X151777171Y-52212539D01*
X151772734Y-52209432D01*
X151566496Y-52113261D01*
X151561271Y-52111861D01*
X151561263Y-52111858D01*
X151351916Y-52055764D01*
X151351907Y-52055762D01*
X151346692Y-52054365D01*
X151341304Y-52053893D01*
X151341301Y-52053893D01*
X151125395Y-52035004D01*
X151120000Y-52034532D01*
X151114605Y-52035004D01*
X150898698Y-52053893D01*
X150898693Y-52053893D01*
X150893308Y-52054365D01*
X150888094Y-52055762D01*
X150888083Y-52055764D01*
X150678736Y-52111858D01*
X150678724Y-52111862D01*
X150673504Y-52113261D01*
X150668599Y-52115547D01*
X150668594Y-52115550D01*
X150472176Y-52207142D01*
X150472172Y-52207144D01*
X150467266Y-52209432D01*
X150462833Y-52212535D01*
X150462826Y-52212540D01*
X150285296Y-52336847D01*
X150285291Y-52336850D01*
X150280861Y-52339953D01*
X150277037Y-52343776D01*
X150277031Y-52343782D01*
X150123782Y-52497031D01*
X150123776Y-52497037D01*
X150119953Y-52500861D01*
X150116850Y-52505291D01*
X150116847Y-52505296D01*
X149992540Y-52682826D01*
X149992535Y-52682833D01*
X149989432Y-52687266D01*
X149987144Y-52692172D01*
X149987142Y-52692176D01*
X149895550Y-52888594D01*
X149895547Y-52888599D01*
X149893261Y-52893504D01*
X149891862Y-52898724D01*
X149891858Y-52898736D01*
X149835764Y-53108083D01*
X149835762Y-53108094D01*
X149834365Y-53113308D01*
X149833893Y-53118693D01*
X149833893Y-53118698D01*
X149823116Y-53241885D01*
X149814532Y-53340000D01*
X149815004Y-53345395D01*
X149823440Y-53441826D01*
X149834365Y-53566692D01*
X149835762Y-53571907D01*
X149835764Y-53571916D01*
X149891858Y-53781263D01*
X149891861Y-53781271D01*
X149893261Y-53786496D01*
X149989432Y-53992734D01*
X150119953Y-54179139D01*
X150280861Y-54340047D01*
X150467266Y-54470568D01*
X150472172Y-54472855D01*
X150472176Y-54472858D01*
X150525274Y-54497618D01*
X150577450Y-54543375D01*
X150596869Y-54610000D01*
X150577450Y-54676625D01*
X150525274Y-54722382D01*
X150472176Y-54747141D01*
X150472163Y-54747148D01*
X150467266Y-54749432D01*
X150462833Y-54752535D01*
X150462826Y-54752540D01*
X150285296Y-54876847D01*
X150285291Y-54876850D01*
X150280861Y-54879953D01*
X150277037Y-54883776D01*
X150277031Y-54883782D01*
X150123782Y-55037031D01*
X150123776Y-55037037D01*
X150119953Y-55040861D01*
X150116850Y-55045291D01*
X150116847Y-55045296D01*
X149992540Y-55222826D01*
X149992535Y-55222833D01*
X149989432Y-55227266D01*
X149987144Y-55232172D01*
X149987142Y-55232176D01*
X149895550Y-55428594D01*
X149895547Y-55428599D01*
X149893261Y-55433504D01*
X149891862Y-55438724D01*
X149891858Y-55438736D01*
X149835764Y-55648083D01*
X149835762Y-55648094D01*
X149834365Y-55653308D01*
X149833893Y-55658693D01*
X149833893Y-55658698D01*
X149820983Y-55806267D01*
X149814532Y-55880000D01*
X149815004Y-55885395D01*
X149829872Y-56055345D01*
X149834365Y-56106692D01*
X149835762Y-56111907D01*
X149835764Y-56111916D01*
X149891858Y-56321263D01*
X149891861Y-56321271D01*
X149893261Y-56326496D01*
X149989432Y-56532734D01*
X149992539Y-56537171D01*
X149992540Y-56537173D01*
X150076600Y-56657224D01*
X150119953Y-56719139D01*
X150280861Y-56880047D01*
X150467266Y-57010568D01*
X150472172Y-57012855D01*
X150472176Y-57012858D01*
X150525274Y-57037618D01*
X150577450Y-57083375D01*
X150596869Y-57150000D01*
X150577450Y-57216625D01*
X150525274Y-57262382D01*
X150472176Y-57287141D01*
X150472163Y-57287148D01*
X150467266Y-57289432D01*
X150462833Y-57292535D01*
X150462826Y-57292540D01*
X150285296Y-57416847D01*
X150285291Y-57416850D01*
X150280861Y-57419953D01*
X150277037Y-57423776D01*
X150277031Y-57423782D01*
X150123782Y-57577031D01*
X150123776Y-57577037D01*
X150119953Y-57580861D01*
X150116850Y-57585291D01*
X150116847Y-57585296D01*
X149992540Y-57762826D01*
X149992535Y-57762833D01*
X149989432Y-57767266D01*
X149987144Y-57772172D01*
X149987142Y-57772176D01*
X149895550Y-57968594D01*
X149895547Y-57968599D01*
X149893261Y-57973504D01*
X149891862Y-57978724D01*
X149891858Y-57978736D01*
X149835764Y-58188083D01*
X149835762Y-58188094D01*
X149834365Y-58193308D01*
X149833893Y-58198693D01*
X149833893Y-58198698D01*
X149824367Y-58307581D01*
X149814532Y-58420000D01*
X149815004Y-58425395D01*
X149816646Y-58444169D01*
X149834365Y-58646692D01*
X149835762Y-58651907D01*
X149835764Y-58651916D01*
X149891858Y-58861263D01*
X149891861Y-58861271D01*
X149893261Y-58866496D01*
X149989432Y-59072734D01*
X150119953Y-59259139D01*
X150280861Y-59420047D01*
X150467266Y-59550568D01*
X150472172Y-59552855D01*
X150472176Y-59552858D01*
X150525274Y-59577618D01*
X150577450Y-59623375D01*
X150596869Y-59690000D01*
X150577450Y-59756625D01*
X150525274Y-59802382D01*
X150472176Y-59827141D01*
X150472163Y-59827148D01*
X150467266Y-59829432D01*
X150462833Y-59832535D01*
X150462826Y-59832540D01*
X150285296Y-59956847D01*
X150285291Y-59956850D01*
X150280861Y-59959953D01*
X150277037Y-59963776D01*
X150277031Y-59963782D01*
X150123782Y-60117031D01*
X150123776Y-60117037D01*
X150119953Y-60120861D01*
X150116850Y-60125291D01*
X150116847Y-60125296D01*
X149992540Y-60302826D01*
X149992535Y-60302833D01*
X149989432Y-60307266D01*
X149987144Y-60312172D01*
X149987142Y-60312176D01*
X149895550Y-60508594D01*
X149895547Y-60508599D01*
X149893261Y-60513504D01*
X149891862Y-60518724D01*
X149891858Y-60518736D01*
X149835764Y-60728083D01*
X149835762Y-60728094D01*
X149834365Y-60733308D01*
X149833893Y-60738693D01*
X149833893Y-60738698D01*
X149820292Y-60894158D01*
X149814532Y-60960000D01*
X149815004Y-60965395D01*
X149833892Y-61181293D01*
X149834365Y-61186692D01*
X149835762Y-61191907D01*
X149835764Y-61191916D01*
X149891858Y-61401263D01*
X149891861Y-61401271D01*
X149893261Y-61406496D01*
X149895549Y-61411403D01*
X149895550Y-61411405D01*
X149950197Y-61528594D01*
X149989432Y-61612734D01*
X150119953Y-61799139D01*
X150280861Y-61960047D01*
X150467266Y-62090568D01*
X150472172Y-62092855D01*
X150472176Y-62092858D01*
X150525274Y-62117618D01*
X150577450Y-62163375D01*
X150596869Y-62230000D01*
X150577450Y-62296625D01*
X150525274Y-62342382D01*
X150472176Y-62367141D01*
X150472163Y-62367148D01*
X150467266Y-62369432D01*
X150462833Y-62372535D01*
X150462826Y-62372540D01*
X150285296Y-62496847D01*
X150285294Y-62496849D01*
X150280861Y-62499953D01*
X150277037Y-62503776D01*
X150277031Y-62503782D01*
X150123782Y-62657031D01*
X150123776Y-62657037D01*
X150119953Y-62660861D01*
X150116850Y-62665291D01*
X150116847Y-62665296D01*
X149992540Y-62842826D01*
X149992535Y-62842833D01*
X149989432Y-62847266D01*
X149987144Y-62852172D01*
X149987142Y-62852176D01*
X149895550Y-63048594D01*
X149895547Y-63048599D01*
X149893261Y-63053504D01*
X149891862Y-63058724D01*
X149891858Y-63058736D01*
X149835764Y-63268083D01*
X149835762Y-63268094D01*
X149834365Y-63273308D01*
X149833893Y-63278693D01*
X149833893Y-63278698D01*
X149815004Y-63494605D01*
X149814532Y-63500000D01*
X149815004Y-63505395D01*
X149827673Y-63650210D01*
X149834365Y-63726692D01*
X149835762Y-63731907D01*
X149835764Y-63731916D01*
X149891858Y-63941263D01*
X149891861Y-63941271D01*
X149893261Y-63946496D01*
X149989432Y-64152734D01*
X150119953Y-64339139D01*
X150280861Y-64500047D01*
X150317062Y-64525395D01*
X150441623Y-64612613D01*
X150480489Y-64656931D01*
X150494500Y-64714188D01*
X150494500Y-64825812D01*
X150480489Y-64883069D01*
X150441623Y-64927387D01*
X150285296Y-65036847D01*
X150285291Y-65036850D01*
X150280861Y-65039953D01*
X150277037Y-65043776D01*
X150277031Y-65043782D01*
X150123782Y-65197031D01*
X150123776Y-65197037D01*
X150119953Y-65200861D01*
X150116850Y-65205291D01*
X150116847Y-65205296D01*
X149992540Y-65382826D01*
X149992535Y-65382833D01*
X149989432Y-65387266D01*
X149987144Y-65392172D01*
X149987142Y-65392176D01*
X149895550Y-65588594D01*
X149895547Y-65588599D01*
X149893261Y-65593504D01*
X149891862Y-65598724D01*
X149891858Y-65598736D01*
X149835764Y-65808083D01*
X149835762Y-65808094D01*
X149834365Y-65813308D01*
X149833893Y-65818693D01*
X149833893Y-65818698D01*
X149819822Y-65979531D01*
X149814532Y-66040000D01*
X149815004Y-66045395D01*
X149831385Y-66232637D01*
X149834365Y-66266692D01*
X149835762Y-66271907D01*
X149835764Y-66271916D01*
X149891858Y-66481263D01*
X149891861Y-66481271D01*
X149893261Y-66486496D01*
X149989432Y-66692734D01*
X149992539Y-66697171D01*
X149992540Y-66697173D01*
X150024911Y-66743404D01*
X150119953Y-66879139D01*
X150280861Y-67040047D01*
X150445937Y-67155633D01*
X150482949Y-67196523D01*
X150498568Y-67249420D01*
X150500696Y-67283238D01*
X150503105Y-67290653D01*
X150503107Y-67290663D01*
X150503223Y-67291019D01*
X150508308Y-67313766D01*
X150508356Y-67314147D01*
X150508358Y-67314157D01*
X150509336Y-67321892D01*
X150510340Y-67324428D01*
X150512641Y-67370931D01*
X150495389Y-67417568D01*
X150461202Y-67453677D01*
X150285296Y-67576847D01*
X150285291Y-67576850D01*
X150280861Y-67579953D01*
X150277036Y-67583777D01*
X150277037Y-67583777D01*
X150167833Y-67692981D01*
X150112245Y-67725074D01*
X150048058Y-67725074D01*
X149992471Y-67692980D01*
X147952186Y-65652695D01*
X147944742Y-65644514D01*
X147940686Y-65638123D01*
X147891675Y-65592098D01*
X147888878Y-65589387D01*
X147872127Y-65572636D01*
X147872127Y-65572635D01*
X147869371Y-65569880D01*
X147866190Y-65567412D01*
X147857314Y-65559830D01*
X147831169Y-65535278D01*
X147831167Y-65535276D01*
X147825482Y-65529938D01*
X147818649Y-65526182D01*
X147818643Y-65526177D01*
X147807925Y-65520285D01*
X147791666Y-65509606D01*
X147781995Y-65502104D01*
X147781992Y-65502102D01*
X147775836Y-65497327D01*
X147768679Y-65494229D01*
X147768676Y-65494228D01*
X147735749Y-65479978D01*
X147725263Y-65474841D01*
X147693832Y-65457562D01*
X147693823Y-65457558D01*
X147686992Y-65453803D01*
X147679435Y-65451862D01*
X147679431Y-65451861D01*
X147667588Y-65448820D01*
X147649184Y-65442519D01*
X147637957Y-65437660D01*
X147637950Y-65437658D01*
X147630796Y-65434562D01*
X147623092Y-65433341D01*
X147623090Y-65433341D01*
X147587659Y-65427729D01*
X147576224Y-65425361D01*
X147541471Y-65416438D01*
X147541463Y-65416437D01*
X147533919Y-65414500D01*
X147526123Y-65414500D01*
X147513883Y-65414500D01*
X147494497Y-65412974D01*
X147474704Y-65409840D01*
X147466938Y-65410574D01*
X147466935Y-65410574D01*
X147431224Y-65413950D01*
X147419555Y-65414500D01*
X147264188Y-65414500D01*
X147206931Y-65400489D01*
X147162613Y-65361623D01*
X147071774Y-65231891D01*
X147050047Y-65200861D01*
X146889139Y-65039953D01*
X146812215Y-64986091D01*
X146707173Y-64912540D01*
X146707171Y-64912539D01*
X146702734Y-64909432D01*
X146644724Y-64882381D01*
X146592549Y-64836625D01*
X146573130Y-64770000D01*
X146592549Y-64703375D01*
X146644725Y-64657618D01*
X146702734Y-64630568D01*
X146889139Y-64500047D01*
X147050047Y-64339139D01*
X147180568Y-64152734D01*
X147276739Y-63946496D01*
X147335635Y-63726692D01*
X147355468Y-63500000D01*
X147335635Y-63273308D01*
X147276739Y-63053504D01*
X147180568Y-62847266D01*
X147050047Y-62660861D01*
X146889139Y-62499953D01*
X146864535Y-62482725D01*
X146825398Y-62437883D01*
X146811665Y-62379969D01*
X146826499Y-62322328D01*
X146866485Y-62278239D01*
X146922406Y-62257861D01*
X146957483Y-62254091D01*
X147092331Y-62203796D01*
X147207546Y-62117546D01*
X147293796Y-62002331D01*
X147344091Y-61867483D01*
X147350500Y-61807873D01*
X147350499Y-60112128D01*
X147344091Y-60052517D01*
X147293796Y-59917669D01*
X147207546Y-59802454D01*
X147146326Y-59756625D01*
X147099431Y-59721519D01*
X147099430Y-59721518D01*
X147092331Y-59716204D01*
X146957483Y-59665909D01*
X146949770Y-59665079D01*
X146949767Y-59665079D01*
X146901180Y-59659855D01*
X146901169Y-59659854D01*
X146897873Y-59659500D01*
X146894550Y-59659500D01*
X145205439Y-59659500D01*
X145205420Y-59659500D01*
X145202128Y-59659501D01*
X145198850Y-59659853D01*
X145198838Y-59659854D01*
X145150231Y-59665079D01*
X145150225Y-59665080D01*
X145142517Y-59665909D01*
X145135252Y-59668618D01*
X145135246Y-59668620D01*
X145015980Y-59713104D01*
X145015978Y-59713104D01*
X145007669Y-59716204D01*
X145000572Y-59721516D01*
X145000568Y-59721519D01*
X144899550Y-59797141D01*
X144899546Y-59797144D01*
X144892454Y-59802454D01*
X144887144Y-59809546D01*
X144887141Y-59809550D01*
X144811519Y-59910568D01*
X144811516Y-59910572D01*
X144806204Y-59917669D01*
X144803104Y-59925978D01*
X144803104Y-59925980D01*
X144758620Y-60045247D01*
X144758619Y-60045250D01*
X144755909Y-60052517D01*
X144755079Y-60060227D01*
X144755079Y-60060232D01*
X144749855Y-60108819D01*
X144749854Y-60108831D01*
X144749500Y-60112127D01*
X144749500Y-60115448D01*
X144749500Y-60115449D01*
X144749500Y-61804560D01*
X144749500Y-61804578D01*
X144749501Y-61807872D01*
X144749853Y-61811150D01*
X144749854Y-61811161D01*
X144755079Y-61859768D01*
X144755080Y-61859773D01*
X144755909Y-61867483D01*
X144758619Y-61874749D01*
X144758620Y-61874753D01*
X144789005Y-61956217D01*
X144806204Y-62002331D01*
X144811518Y-62009430D01*
X144811519Y-62009431D01*
X144873972Y-62092858D01*
X144892454Y-62117546D01*
X145007669Y-62203796D01*
X145142517Y-62254091D01*
X145177599Y-62257862D01*
X145233516Y-62278240D01*
X145273500Y-62322328D01*
X145288334Y-62379969D01*
X145274601Y-62437882D01*
X145235464Y-62482725D01*
X145210861Y-62499953D01*
X145207037Y-62503776D01*
X145207031Y-62503782D01*
X145053782Y-62657031D01*
X145053776Y-62657037D01*
X145049953Y-62660861D01*
X145046850Y-62665291D01*
X145046847Y-62665296D01*
X144922540Y-62842826D01*
X144922535Y-62842833D01*
X144919432Y-62847266D01*
X144917144Y-62852172D01*
X144917142Y-62852176D01*
X144825550Y-63048594D01*
X144825547Y-63048599D01*
X144823261Y-63053504D01*
X144821862Y-63058724D01*
X144821858Y-63058736D01*
X144765764Y-63268083D01*
X144765762Y-63268094D01*
X144764365Y-63273308D01*
X144763893Y-63278693D01*
X144763893Y-63278698D01*
X144745004Y-63494605D01*
X144744532Y-63500000D01*
X144745004Y-63505395D01*
X144757673Y-63650210D01*
X144764365Y-63726692D01*
X144765762Y-63731907D01*
X144765764Y-63731916D01*
X144821858Y-63941263D01*
X144821861Y-63941271D01*
X144823261Y-63946496D01*
X144919432Y-64152734D01*
X145049953Y-64339139D01*
X145210861Y-64500047D01*
X145397266Y-64630568D01*
X145402172Y-64632855D01*
X145402176Y-64632858D01*
X145455274Y-64657618D01*
X145507450Y-64703375D01*
X145526869Y-64770000D01*
X145507450Y-64836625D01*
X145455274Y-64882382D01*
X145402176Y-64907141D01*
X145402163Y-64907148D01*
X145397266Y-64909432D01*
X145392833Y-64912535D01*
X145392826Y-64912540D01*
X145215296Y-65036847D01*
X145215291Y-65036850D01*
X145210861Y-65039953D01*
X145207037Y-65043776D01*
X145207031Y-65043782D01*
X145053782Y-65197031D01*
X145053776Y-65197037D01*
X145049953Y-65200861D01*
X145046850Y-65205291D01*
X145046847Y-65205296D01*
X144922540Y-65382826D01*
X144922535Y-65382833D01*
X144919432Y-65387266D01*
X144917144Y-65392172D01*
X144917142Y-65392176D01*
X144825550Y-65588594D01*
X144825547Y-65588599D01*
X144823261Y-65593504D01*
X144821862Y-65598724D01*
X144821858Y-65598736D01*
X144765764Y-65808083D01*
X144765762Y-65808094D01*
X144764365Y-65813308D01*
X144763893Y-65818693D01*
X144763893Y-65818698D01*
X144749822Y-65979531D01*
X144744532Y-66040000D01*
X144745004Y-66045395D01*
X144761385Y-66232637D01*
X144764365Y-66266692D01*
X144765762Y-66271907D01*
X144765764Y-66271916D01*
X144821858Y-66481263D01*
X144821861Y-66481271D01*
X144823261Y-66486496D01*
X144919432Y-66692734D01*
X144922539Y-66697171D01*
X144922540Y-66697173D01*
X144954911Y-66743404D01*
X145049953Y-66879139D01*
X145210861Y-67040047D01*
X145397266Y-67170568D01*
X145402172Y-67172855D01*
X145402176Y-67172858D01*
X145455274Y-67197618D01*
X145507450Y-67243375D01*
X145526869Y-67310000D01*
X145507450Y-67376625D01*
X145455274Y-67422382D01*
X145402176Y-67447141D01*
X145402163Y-67447148D01*
X145397266Y-67449432D01*
X145392833Y-67452535D01*
X145392826Y-67452540D01*
X145215296Y-67576847D01*
X145215291Y-67576850D01*
X145210861Y-67579953D01*
X145207037Y-67583776D01*
X145207031Y-67583782D01*
X145053782Y-67737031D01*
X145053776Y-67737037D01*
X145049953Y-67740861D01*
X145046850Y-67745291D01*
X145046847Y-67745296D01*
X144922540Y-67922826D01*
X144922535Y-67922833D01*
X144919432Y-67927266D01*
X144917144Y-67932172D01*
X144917142Y-67932176D01*
X144825550Y-68128594D01*
X144825547Y-68128599D01*
X144823261Y-68133504D01*
X144821862Y-68138724D01*
X144821858Y-68138736D01*
X144765764Y-68348083D01*
X144765762Y-68348094D01*
X144764365Y-68353308D01*
X144763893Y-68358693D01*
X144763893Y-68358698D01*
X144752748Y-68486091D01*
X144744532Y-68580000D01*
X144745004Y-68585395D01*
X144757424Y-68727363D01*
X144764365Y-68806692D01*
X144765762Y-68811907D01*
X144765764Y-68811916D01*
X144821858Y-69021263D01*
X144821861Y-69021271D01*
X144823261Y-69026496D01*
X144825549Y-69031403D01*
X144825550Y-69031405D01*
X144876195Y-69140013D01*
X144919432Y-69232734D01*
X145049953Y-69419139D01*
X145210861Y-69580047D01*
X145397266Y-69710568D01*
X145455276Y-69737618D01*
X145507449Y-69783373D01*
X145526869Y-69849997D01*
X145507451Y-69916622D01*
X145455276Y-69962380D01*
X145402178Y-69987141D01*
X145402173Y-69987143D01*
X145397266Y-69989432D01*
X145392833Y-69992535D01*
X145392826Y-69992540D01*
X145215296Y-70116847D01*
X145215291Y-70116850D01*
X145210861Y-70119953D01*
X145207037Y-70123776D01*
X145207031Y-70123782D01*
X145053782Y-70277031D01*
X145053776Y-70277037D01*
X145049953Y-70280861D01*
X145046850Y-70285291D01*
X145046847Y-70285296D01*
X144922540Y-70462826D01*
X144922535Y-70462833D01*
X144919432Y-70467266D01*
X144917144Y-70472172D01*
X144917142Y-70472176D01*
X144825550Y-70668594D01*
X144825547Y-70668599D01*
X144823261Y-70673504D01*
X144821862Y-70678724D01*
X144821858Y-70678736D01*
X144765764Y-70888083D01*
X144765762Y-70888094D01*
X144764365Y-70893308D01*
X144763893Y-70898693D01*
X144763893Y-70898698D01*
X144746391Y-71098752D01*
X144744532Y-71120000D01*
X98600643Y-71120000D01*
X98442734Y-71009432D01*
X98384724Y-70982381D01*
X98332549Y-70936625D01*
X98313130Y-70870000D01*
X98332549Y-70803375D01*
X98384725Y-70757618D01*
X98442734Y-70730568D01*
X98629139Y-70600047D01*
X98790047Y-70439139D01*
X98920568Y-70252734D01*
X99016739Y-70046496D01*
X99075635Y-69826692D01*
X99095468Y-69600000D01*
X99075635Y-69373308D01*
X99022125Y-69173606D01*
X99018141Y-69158736D01*
X99018140Y-69158734D01*
X99016739Y-69153504D01*
X98920568Y-68947266D01*
X98790047Y-68760861D01*
X98629139Y-68599953D01*
X98478438Y-68494432D01*
X98447173Y-68472540D01*
X98447171Y-68472539D01*
X98442734Y-68469432D01*
X98384724Y-68442381D01*
X98332549Y-68396625D01*
X98313130Y-68330000D01*
X98332549Y-68263375D01*
X98384725Y-68217618D01*
X98442734Y-68190568D01*
X98629139Y-68060047D01*
X98790047Y-67899139D01*
X98920568Y-67712734D01*
X99016739Y-67506496D01*
X99075635Y-67286692D01*
X99095468Y-67060000D01*
X99075635Y-66833308D01*
X99039158Y-66697173D01*
X99018141Y-66618736D01*
X99018140Y-66618734D01*
X99016739Y-66613504D01*
X98920568Y-66407266D01*
X98790047Y-66220861D01*
X98629139Y-66059953D01*
X98520890Y-65984157D01*
X98447173Y-65932540D01*
X98447171Y-65932539D01*
X98442734Y-65929432D01*
X98384724Y-65902381D01*
X98332549Y-65856625D01*
X98313130Y-65790000D01*
X98332549Y-65723375D01*
X98384725Y-65677618D01*
X98442734Y-65650568D01*
X98629139Y-65520047D01*
X98790047Y-65359139D01*
X98920568Y-65172734D01*
X99016739Y-64966496D01*
X99075635Y-64746692D01*
X99095468Y-64520000D01*
X99075635Y-64293308D01*
X99074235Y-64288083D01*
X99018141Y-64078736D01*
X99018140Y-64078734D01*
X99016739Y-64073504D01*
X98920568Y-63867266D01*
X98790047Y-63680861D01*
X98629139Y-63519953D01*
X98503171Y-63431750D01*
X98447173Y-63392540D01*
X98447171Y-63392539D01*
X98442734Y-63389432D01*
X98437827Y-63387143D01*
X98437817Y-63387138D01*
X98384724Y-63362380D01*
X98332549Y-63316623D01*
X98313130Y-63249997D01*
X98332550Y-63183372D01*
X98384723Y-63137618D01*
X98442734Y-63110568D01*
X98629139Y-62980047D01*
X98790047Y-62819139D01*
X98920568Y-62632734D01*
X99016739Y-62426496D01*
X99075635Y-62206692D01*
X99095468Y-61980000D01*
X99075635Y-61753308D01*
X99016739Y-61533504D01*
X98920568Y-61327266D01*
X98790047Y-61140861D01*
X98629139Y-60979953D01*
X98514839Y-60899920D01*
X98447173Y-60852540D01*
X98447171Y-60852539D01*
X98442734Y-60849432D01*
X98437831Y-60847145D01*
X98437823Y-60847141D01*
X98384134Y-60822106D01*
X98331958Y-60776349D01*
X98312539Y-60709723D01*
X98331959Y-60643098D01*
X98384135Y-60597341D01*
X98437585Y-60572417D01*
X98446912Y-60567032D01*
X98624381Y-60442767D01*
X98632647Y-60435830D01*
X98785830Y-60282647D01*
X98792767Y-60274381D01*
X98917032Y-60096912D01*
X98922420Y-60087580D01*
X99013977Y-59891234D01*
X99017669Y-59881092D01*
X99065179Y-59703780D01*
X99065547Y-59692551D01*
X99054605Y-59690000D01*
X96525395Y-59690000D01*
X96514452Y-59692551D01*
X96514820Y-59703780D01*
X96562330Y-59881092D01*
X96566022Y-59891234D01*
X96657579Y-60087580D01*
X96662967Y-60096912D01*
X96787232Y-60274381D01*
X96794169Y-60282647D01*
X96947352Y-60435830D01*
X96955618Y-60442767D01*
X97133087Y-60567032D01*
X97142423Y-60572422D01*
X97195864Y-60597342D01*
X97248040Y-60643098D01*
X97267460Y-60709723D01*
X97248041Y-60776348D01*
X97195865Y-60822106D01*
X97137266Y-60849432D01*
X97132833Y-60852535D01*
X97132826Y-60852540D01*
X96955296Y-60976847D01*
X96955291Y-60976850D01*
X96950861Y-60979953D01*
X96947037Y-60983776D01*
X96947031Y-60983782D01*
X96793782Y-61137031D01*
X96793776Y-61137037D01*
X96789953Y-61140861D01*
X96786850Y-61145291D01*
X96786847Y-61145296D01*
X96662540Y-61322826D01*
X96662535Y-61322833D01*
X96659432Y-61327266D01*
X96657144Y-61332172D01*
X96657142Y-61332176D01*
X96565550Y-61528594D01*
X96565547Y-61528599D01*
X96563261Y-61533504D01*
X96561862Y-61538724D01*
X96561858Y-61538736D01*
X96505764Y-61748083D01*
X96505762Y-61748094D01*
X96504365Y-61753308D01*
X96503893Y-61758693D01*
X96503893Y-61758698D01*
X96499302Y-61811180D01*
X96484532Y-61980000D01*
X96485004Y-61985395D01*
X96503646Y-62198480D01*
X96504365Y-62206692D01*
X96505762Y-62211907D01*
X96505764Y-62211916D01*
X96561858Y-62421263D01*
X96561861Y-62421271D01*
X96563261Y-62426496D01*
X96659432Y-62632734D01*
X96662539Y-62637171D01*
X96662540Y-62637173D01*
X96682232Y-62665296D01*
X96789953Y-62819139D01*
X96950861Y-62980047D01*
X97137266Y-63110568D01*
X97195276Y-63137618D01*
X97247449Y-63183373D01*
X97266869Y-63249997D01*
X97247451Y-63316622D01*
X97195276Y-63362380D01*
X97142178Y-63387141D01*
X97142173Y-63387143D01*
X97137266Y-63389432D01*
X97132833Y-63392535D01*
X97132826Y-63392540D01*
X96955296Y-63516847D01*
X96955291Y-63516850D01*
X96950861Y-63519953D01*
X96947037Y-63523776D01*
X96947031Y-63523782D01*
X96793782Y-63677031D01*
X96793776Y-63677037D01*
X96789953Y-63680861D01*
X96786850Y-63685291D01*
X96786847Y-63685296D01*
X96662540Y-63862826D01*
X96662535Y-63862833D01*
X96659432Y-63867266D01*
X96657144Y-63872172D01*
X96657142Y-63872176D01*
X96565550Y-64068594D01*
X96565547Y-64068599D01*
X96563261Y-64073504D01*
X96561862Y-64078724D01*
X96561858Y-64078736D01*
X96505764Y-64288083D01*
X96505762Y-64288094D01*
X96504365Y-64293308D01*
X96503893Y-64298693D01*
X96503893Y-64298698D01*
X96486613Y-64496217D01*
X96484532Y-64520000D01*
X96485004Y-64525395D01*
X96502564Y-64726113D01*
X96504365Y-64746692D01*
X96505762Y-64751907D01*
X96505764Y-64751916D01*
X96561858Y-64961263D01*
X96561861Y-64961271D01*
X96563261Y-64966496D01*
X96659432Y-65172734D01*
X96662539Y-65177171D01*
X96662540Y-65177173D01*
X96682232Y-65205296D01*
X96789953Y-65359139D01*
X96950861Y-65520047D01*
X97137266Y-65650568D01*
X97142172Y-65652855D01*
X97142176Y-65652858D01*
X97195274Y-65677618D01*
X97247450Y-65723375D01*
X97266869Y-65790000D01*
X97247450Y-65856625D01*
X97195274Y-65902382D01*
X97142176Y-65927141D01*
X97142163Y-65927148D01*
X97137266Y-65929432D01*
X97132833Y-65932535D01*
X97132826Y-65932540D01*
X96955296Y-66056847D01*
X96955291Y-66056850D01*
X96950861Y-66059953D01*
X96947037Y-66063776D01*
X96947031Y-66063782D01*
X96793782Y-66217031D01*
X96793776Y-66217037D01*
X96789953Y-66220861D01*
X96786850Y-66225291D01*
X96786847Y-66225296D01*
X96662540Y-66402826D01*
X96662535Y-66402833D01*
X96659432Y-66407266D01*
X96657144Y-66412172D01*
X96657142Y-66412176D01*
X96565550Y-66608594D01*
X96565547Y-66608599D01*
X96563261Y-66613504D01*
X96561862Y-66618724D01*
X96561858Y-66618736D01*
X96505764Y-66828083D01*
X96505762Y-66828094D01*
X96504365Y-66833308D01*
X96503893Y-66838693D01*
X96503893Y-66838698D01*
X96495213Y-66937911D01*
X96484532Y-67060000D01*
X96485004Y-67065395D01*
X96503381Y-67275451D01*
X96504365Y-67286692D01*
X96505762Y-67291907D01*
X96505764Y-67291916D01*
X96561858Y-67501263D01*
X96561861Y-67501271D01*
X96563261Y-67506496D01*
X96659432Y-67712734D01*
X96662539Y-67717171D01*
X96662540Y-67717173D01*
X96746600Y-67837224D01*
X96789953Y-67899139D01*
X96950861Y-68060047D01*
X97137266Y-68190568D01*
X97142172Y-68192855D01*
X97142176Y-68192858D01*
X97195274Y-68217618D01*
X97247450Y-68263375D01*
X97266869Y-68330000D01*
X97247450Y-68396625D01*
X97195274Y-68442382D01*
X97142176Y-68467141D01*
X97142163Y-68467148D01*
X97137266Y-68469432D01*
X97132833Y-68472535D01*
X97132826Y-68472540D01*
X96955296Y-68596847D01*
X96955291Y-68596850D01*
X96950861Y-68599953D01*
X96947037Y-68603776D01*
X96947031Y-68603782D01*
X96793782Y-68757031D01*
X96793776Y-68757037D01*
X96789953Y-68760861D01*
X96786850Y-68765291D01*
X96786847Y-68765296D01*
X96662540Y-68942826D01*
X96662535Y-68942833D01*
X96659432Y-68947266D01*
X96657144Y-68952172D01*
X96657142Y-68952176D01*
X96565550Y-69148594D01*
X96565547Y-69148599D01*
X96563261Y-69153504D01*
X96561862Y-69158724D01*
X96561858Y-69158736D01*
X96505764Y-69368083D01*
X96505762Y-69368094D01*
X96504365Y-69373308D01*
X96503893Y-69378693D01*
X96503893Y-69378698D01*
X96486613Y-69576217D01*
X96484532Y-69600000D01*
X96485004Y-69605395D01*
X96502221Y-69802195D01*
X96504365Y-69826692D01*
X96505762Y-69831907D01*
X96505764Y-69831916D01*
X96561858Y-70041263D01*
X96561861Y-70041271D01*
X96563261Y-70046496D01*
X96659432Y-70252734D01*
X96662539Y-70257171D01*
X96662540Y-70257173D01*
X96682232Y-70285296D01*
X96789953Y-70439139D01*
X96950861Y-70600047D01*
X97137266Y-70730568D01*
X97142172Y-70732855D01*
X97142176Y-70732858D01*
X97195274Y-70757618D01*
X97247450Y-70803375D01*
X97266869Y-70870000D01*
X97247450Y-70936625D01*
X97195274Y-70982382D01*
X97142176Y-71007141D01*
X97142163Y-71007148D01*
X97137266Y-71009432D01*
X97132833Y-71012535D01*
X97132826Y-71012540D01*
X96955296Y-71136847D01*
X96955291Y-71136850D01*
X96950861Y-71139953D01*
X96947037Y-71143776D01*
X96947031Y-71143782D01*
X96793782Y-71297031D01*
X96793776Y-71297037D01*
X96789953Y-71300861D01*
X96786850Y-71305291D01*
X96786847Y-71305296D01*
X96662540Y-71482826D01*
X96662535Y-71482833D01*
X96659432Y-71487266D01*
X96657144Y-71492172D01*
X96657142Y-71492176D01*
X96565550Y-71688594D01*
X96565547Y-71688599D01*
X96563261Y-71693504D01*
X96561862Y-71698724D01*
X96561858Y-71698736D01*
X96505764Y-71908083D01*
X96505762Y-71908094D01*
X96504365Y-71913308D01*
X96503893Y-71918693D01*
X96503893Y-71918698D01*
X96495060Y-72019667D01*
X96484532Y-72140000D01*
X96485004Y-72145395D01*
X96503607Y-72358037D01*
X96504365Y-72366692D01*
X96505762Y-72371907D01*
X96505764Y-72371916D01*
X96561858Y-72581263D01*
X96561861Y-72581271D01*
X96563261Y-72586496D01*
X96659432Y-72792734D01*
X96662539Y-72797171D01*
X96662540Y-72797173D01*
X96682457Y-72825618D01*
X96789953Y-72979139D01*
X96950861Y-73140047D01*
X97137266Y-73270568D01*
X97142172Y-73272855D01*
X97142176Y-73272858D01*
X97195274Y-73297618D01*
X97247450Y-73343375D01*
X97266869Y-73410000D01*
X97247450Y-73476625D01*
X97195274Y-73522382D01*
X97142176Y-73547141D01*
X97142163Y-73547148D01*
X97137266Y-73549432D01*
X97132833Y-73552535D01*
X97132826Y-73552540D01*
X96955296Y-73676847D01*
X96955291Y-73676850D01*
X96950861Y-73679953D01*
X96947037Y-73683776D01*
X96947031Y-73683782D01*
X96793782Y-73837031D01*
X96793776Y-73837037D01*
X96789953Y-73840861D01*
X96786850Y-73845291D01*
X96786847Y-73845296D01*
X96662540Y-74022826D01*
X96662535Y-74022833D01*
X96659432Y-74027266D01*
X96657144Y-74032172D01*
X96657142Y-74032176D01*
X96565550Y-74228594D01*
X96565547Y-74228599D01*
X96563261Y-74233504D01*
X96561862Y-74238724D01*
X96561858Y-74238736D01*
X96505764Y-74448083D01*
X96505762Y-74448094D01*
X96504365Y-74453308D01*
X96503893Y-74458693D01*
X96503893Y-74458698D01*
X96491686Y-74598229D01*
X96484532Y-74680000D01*
X88900500Y-74680000D01*
X88900500Y-56900000D01*
X96484532Y-56900000D01*
X96485004Y-56905395D01*
X96501897Y-57098491D01*
X96504365Y-57126692D01*
X96505762Y-57131907D01*
X96505764Y-57131916D01*
X96561858Y-57341263D01*
X96561861Y-57341271D01*
X96563261Y-57346496D01*
X96659432Y-57552734D01*
X96662539Y-57557171D01*
X96662540Y-57557173D01*
X96682232Y-57585296D01*
X96789953Y-57739139D01*
X96950861Y-57900047D01*
X97137266Y-58030568D01*
X97142175Y-58032857D01*
X97142180Y-58032860D01*
X97195864Y-58057893D01*
X97248040Y-58103649D01*
X97267460Y-58170274D01*
X97248041Y-58236899D01*
X97195866Y-58282657D01*
X97142416Y-58307581D01*
X97133087Y-58312967D01*
X96955618Y-58437232D01*
X96947352Y-58444169D01*
X96794169Y-58597352D01*
X96787232Y-58605618D01*
X96662967Y-58783087D01*
X96657579Y-58792419D01*
X96566022Y-58988765D01*
X96562330Y-58998907D01*
X96514820Y-59176219D01*
X96514452Y-59187448D01*
X96525395Y-59190000D01*
X99054605Y-59190000D01*
X99065547Y-59187448D01*
X99065179Y-59176219D01*
X99017669Y-58998907D01*
X99013977Y-58988765D01*
X98922420Y-58792419D01*
X98917032Y-58783087D01*
X98792767Y-58605618D01*
X98785830Y-58597352D01*
X98632647Y-58444169D01*
X98624381Y-58437232D01*
X98446912Y-58312967D01*
X98437579Y-58307579D01*
X98384134Y-58282657D01*
X98331958Y-58236899D01*
X98312539Y-58170274D01*
X98331959Y-58103649D01*
X98384131Y-58057894D01*
X98442734Y-58030568D01*
X98629139Y-57900047D01*
X98790047Y-57739139D01*
X98920568Y-57552734D01*
X99016739Y-57346496D01*
X99075635Y-57126692D01*
X99095468Y-56900000D01*
X99075635Y-56673308D01*
X99074235Y-56668083D01*
X99018141Y-56458736D01*
X99018140Y-56458734D01*
X99016739Y-56453504D01*
X98920568Y-56247266D01*
X98790047Y-56060861D01*
X98629139Y-55899953D01*
X98442734Y-55769432D01*
X98384724Y-55742381D01*
X98332549Y-55696625D01*
X98313130Y-55630000D01*
X98332549Y-55563375D01*
X98384725Y-55517618D01*
X98442734Y-55490568D01*
X98629139Y-55360047D01*
X98790047Y-55199139D01*
X98920568Y-55012734D01*
X99016739Y-54806496D01*
X99075635Y-54586692D01*
X99095468Y-54360000D01*
X99075635Y-54133308D01*
X99016739Y-53913504D01*
X98920568Y-53707266D01*
X98790047Y-53520861D01*
X98629139Y-53359953D01*
X98442734Y-53229432D01*
X98384724Y-53202381D01*
X98332549Y-53156625D01*
X98313130Y-53090000D01*
X98332549Y-53023375D01*
X98384725Y-52977618D01*
X98442734Y-52950568D01*
X98629139Y-52820047D01*
X98790047Y-52659139D01*
X98920568Y-52472734D01*
X99016739Y-52266496D01*
X99075635Y-52046692D01*
X99095468Y-51820000D01*
X99075635Y-51593308D01*
X99016739Y-51373504D01*
X98920568Y-51167266D01*
X98790047Y-50980861D01*
X98629139Y-50819953D01*
X98529482Y-50750173D01*
X98524776Y-50746878D01*
X169949500Y-50746878D01*
X169949501Y-50750172D01*
X169949853Y-50753450D01*
X169949854Y-50753461D01*
X169955079Y-50802068D01*
X169955080Y-50802073D01*
X169955909Y-50809783D01*
X169958619Y-50817049D01*
X169958620Y-50817053D01*
X169959702Y-50819953D01*
X170006204Y-50944631D01*
X170092454Y-51059846D01*
X170207669Y-51146096D01*
X170342517Y-51196391D01*
X170402127Y-51202800D01*
X172497872Y-51202799D01*
X172557483Y-51196391D01*
X172692331Y-51146096D01*
X172807546Y-51059846D01*
X172893796Y-50944631D01*
X172944091Y-50809783D01*
X172950500Y-50750173D01*
X172950499Y-48654428D01*
X172944091Y-48594817D01*
X172893796Y-48459969D01*
X172807546Y-48344754D01*
X172784852Y-48327765D01*
X181025788Y-48327765D01*
X181026282Y-48332262D01*
X181026283Y-48332267D01*
X181054917Y-48592506D01*
X181054918Y-48592513D01*
X181055414Y-48597018D01*
X181056559Y-48601398D01*
X181056561Y-48601408D01*
X181071291Y-48657749D01*
X181123928Y-48859088D01*
X181125693Y-48863242D01*
X181125696Y-48863250D01*
X181228099Y-49104223D01*
X181229870Y-49108390D01*
X181232226Y-49112251D01*
X181232229Y-49112256D01*
X181368618Y-49335737D01*
X181370982Y-49339610D01*
X181544255Y-49547820D01*
X181547630Y-49550844D01*
X181547631Y-49550845D01*
X181652330Y-49644656D01*
X181745998Y-49728582D01*
X181971910Y-49878044D01*
X182217176Y-49993020D01*
X182476569Y-50071060D01*
X182744561Y-50110500D01*
X182945369Y-50110500D01*
X182947631Y-50110500D01*
X183150156Y-50095677D01*
X183414553Y-50036780D01*
X183667558Y-49940014D01*
X183903777Y-49807441D01*
X184118177Y-49641888D01*
X184306186Y-49446881D01*
X184463799Y-49226579D01*
X184587656Y-48985675D01*
X184675118Y-48729305D01*
X184724319Y-48462933D01*
X184734212Y-48192235D01*
X184704586Y-47922982D01*
X184636072Y-47660912D01*
X184530130Y-47411610D01*
X184389018Y-47180390D01*
X184215745Y-46972180D01*
X184110759Y-46878112D01*
X184017382Y-46794446D01*
X184017378Y-46794442D01*
X184014002Y-46791418D01*
X183788090Y-46641956D01*
X183783996Y-46640036D01*
X183783991Y-46640034D01*
X183546929Y-46528904D01*
X183546925Y-46528902D01*
X183542824Y-46526980D01*
X183538477Y-46525672D01*
X183538474Y-46525671D01*
X183287772Y-46450246D01*
X183287771Y-46450245D01*
X183283431Y-46448940D01*
X183278957Y-46448281D01*
X183278950Y-46448280D01*
X183019913Y-46410158D01*
X183019907Y-46410157D01*
X183015439Y-46409500D01*
X182812369Y-46409500D01*
X182810120Y-46409664D01*
X182810109Y-46409665D01*
X182614363Y-46423992D01*
X182614359Y-46423992D01*
X182609844Y-46424323D01*
X182605426Y-46425307D01*
X182605420Y-46425308D01*
X182349877Y-46482232D01*
X182349861Y-46482236D01*
X182345447Y-46483220D01*
X182341216Y-46484838D01*
X182341210Y-46484840D01*
X182096673Y-46578367D01*
X182096663Y-46578371D01*
X182092442Y-46579986D01*
X182088494Y-46582201D01*
X182088489Y-46582204D01*
X181860176Y-46710340D01*
X181860171Y-46710343D01*
X181856223Y-46712559D01*
X181852639Y-46715325D01*
X181852635Y-46715329D01*
X181645407Y-46875343D01*
X181645394Y-46875354D01*
X181641823Y-46878112D01*
X181638685Y-46881366D01*
X181638678Y-46881373D01*
X181456958Y-47069857D01*
X181456952Y-47069864D01*
X181453814Y-47073119D01*
X181451189Y-47076787D01*
X181451179Y-47076800D01*
X181298834Y-47289740D01*
X181298830Y-47289745D01*
X181296201Y-47293421D01*
X181294132Y-47297444D01*
X181294129Y-47297450D01*
X181174416Y-47530293D01*
X181174411Y-47530304D01*
X181172344Y-47534325D01*
X181170884Y-47538602D01*
X181170879Y-47538616D01*
X181086348Y-47786395D01*
X181086344Y-47786407D01*
X181084882Y-47790695D01*
X181084057Y-47795159D01*
X181084057Y-47795161D01*
X181036504Y-48052606D01*
X181036502Y-48052619D01*
X181035681Y-48057067D01*
X181035515Y-48061593D01*
X181035515Y-48061599D01*
X181028433Y-48255404D01*
X181025788Y-48327765D01*
X172784852Y-48327765D01*
X172692331Y-48258504D01*
X172557483Y-48208209D01*
X172549770Y-48207379D01*
X172549767Y-48207379D01*
X172501180Y-48202155D01*
X172501169Y-48202154D01*
X172497873Y-48201800D01*
X172494550Y-48201800D01*
X170405439Y-48201800D01*
X170405420Y-48201800D01*
X170402128Y-48201801D01*
X170398850Y-48202153D01*
X170398838Y-48202154D01*
X170350231Y-48207379D01*
X170350225Y-48207380D01*
X170342517Y-48208209D01*
X170335252Y-48210918D01*
X170335246Y-48210920D01*
X170215980Y-48255404D01*
X170215978Y-48255404D01*
X170207669Y-48258504D01*
X170200572Y-48263816D01*
X170200568Y-48263819D01*
X170099550Y-48339441D01*
X170099546Y-48339444D01*
X170092454Y-48344754D01*
X170087144Y-48351846D01*
X170087141Y-48351850D01*
X170011519Y-48452868D01*
X170011516Y-48452872D01*
X170006204Y-48459969D01*
X170003104Y-48468278D01*
X170003104Y-48468280D01*
X169958620Y-48587547D01*
X169958619Y-48587550D01*
X169955909Y-48594817D01*
X169955079Y-48602527D01*
X169955079Y-48602532D01*
X169949855Y-48651119D01*
X169949854Y-48651131D01*
X169949500Y-48654427D01*
X169949500Y-48657748D01*
X169949500Y-48657749D01*
X169949500Y-50746860D01*
X169949500Y-50746878D01*
X98524776Y-50746878D01*
X98447173Y-50692540D01*
X98447171Y-50692539D01*
X98442734Y-50689432D01*
X98236496Y-50593261D01*
X98231271Y-50591861D01*
X98231263Y-50591858D01*
X98021916Y-50535764D01*
X98021907Y-50535762D01*
X98016692Y-50534365D01*
X98011304Y-50533893D01*
X98011301Y-50533893D01*
X97795395Y-50515004D01*
X97790000Y-50514532D01*
X97784605Y-50515004D01*
X97568698Y-50533893D01*
X97568693Y-50533893D01*
X97563308Y-50534365D01*
X97558094Y-50535762D01*
X97558083Y-50535764D01*
X97348736Y-50591858D01*
X97348724Y-50591862D01*
X97343504Y-50593261D01*
X97338599Y-50595547D01*
X97338594Y-50595550D01*
X97142176Y-50687142D01*
X97142172Y-50687144D01*
X97137266Y-50689432D01*
X97132833Y-50692535D01*
X97132826Y-50692540D01*
X96955296Y-50816847D01*
X96955291Y-50816850D01*
X96950861Y-50819953D01*
X96947037Y-50823776D01*
X96947031Y-50823782D01*
X96793782Y-50977031D01*
X96793776Y-50977037D01*
X96789953Y-50980861D01*
X96786850Y-50985291D01*
X96786847Y-50985296D01*
X96662540Y-51162826D01*
X96662535Y-51162833D01*
X96659432Y-51167266D01*
X96657144Y-51172172D01*
X96657142Y-51172176D01*
X96565550Y-51368594D01*
X96565547Y-51368599D01*
X96563261Y-51373504D01*
X96561862Y-51378724D01*
X96561858Y-51378736D01*
X96505764Y-51588083D01*
X96505762Y-51588094D01*
X96504365Y-51593308D01*
X96484532Y-51820000D01*
X96504365Y-52046692D01*
X96505762Y-52051907D01*
X96505764Y-52051916D01*
X96561858Y-52261263D01*
X96561861Y-52261271D01*
X96563261Y-52266496D01*
X96659432Y-52472734D01*
X96662539Y-52477171D01*
X96662540Y-52477173D01*
X96682232Y-52505296D01*
X96789953Y-52659139D01*
X96950861Y-52820047D01*
X97137266Y-52950568D01*
X97142172Y-52952855D01*
X97142176Y-52952858D01*
X97195274Y-52977618D01*
X97247450Y-53023375D01*
X97266869Y-53090000D01*
X97247450Y-53156625D01*
X97195274Y-53202382D01*
X97142176Y-53227141D01*
X97142163Y-53227148D01*
X97137266Y-53229432D01*
X97132833Y-53232535D01*
X97132826Y-53232540D01*
X96955296Y-53356847D01*
X96955291Y-53356850D01*
X96950861Y-53359953D01*
X96947037Y-53363776D01*
X96947031Y-53363782D01*
X96793782Y-53517031D01*
X96793776Y-53517037D01*
X96789953Y-53520861D01*
X96786850Y-53525291D01*
X96786847Y-53525296D01*
X96662540Y-53702826D01*
X96662535Y-53702833D01*
X96659432Y-53707266D01*
X96657144Y-53712172D01*
X96657142Y-53712176D01*
X96565550Y-53908594D01*
X96565547Y-53908599D01*
X96563261Y-53913504D01*
X96561862Y-53918724D01*
X96561858Y-53918736D01*
X96505764Y-54128083D01*
X96505762Y-54128094D01*
X96504365Y-54133308D01*
X96503893Y-54138693D01*
X96503893Y-54138698D01*
X96486613Y-54336217D01*
X96484532Y-54360000D01*
X96485004Y-54365395D01*
X96503127Y-54572548D01*
X96504365Y-54586692D01*
X96505762Y-54591907D01*
X96505764Y-54591916D01*
X96561858Y-54801263D01*
X96561861Y-54801271D01*
X96563261Y-54806496D01*
X96565549Y-54811403D01*
X96565550Y-54811405D01*
X96623365Y-54935388D01*
X96659432Y-55012734D01*
X96662539Y-55017171D01*
X96662540Y-55017173D01*
X96682232Y-55045296D01*
X96789953Y-55199139D01*
X96950861Y-55360047D01*
X97137266Y-55490568D01*
X97142172Y-55492855D01*
X97142176Y-55492858D01*
X97195274Y-55517618D01*
X97247450Y-55563375D01*
X97266869Y-55630000D01*
X97247450Y-55696625D01*
X97195274Y-55742382D01*
X97142176Y-55767141D01*
X97142163Y-55767148D01*
X97137266Y-55769432D01*
X97132833Y-55772535D01*
X97132826Y-55772540D01*
X96955296Y-55896847D01*
X96955291Y-55896850D01*
X96950861Y-55899953D01*
X96947037Y-55903776D01*
X96947031Y-55903782D01*
X96793782Y-56057031D01*
X96793776Y-56057037D01*
X96789953Y-56060861D01*
X96786850Y-56065291D01*
X96786847Y-56065296D01*
X96662540Y-56242826D01*
X96662535Y-56242833D01*
X96659432Y-56247266D01*
X96657144Y-56252172D01*
X96657142Y-56252176D01*
X96565550Y-56448594D01*
X96565547Y-56448599D01*
X96563261Y-56453504D01*
X96561862Y-56458724D01*
X96561858Y-56458736D01*
X96505764Y-56668083D01*
X96505762Y-56668094D01*
X96504365Y-56673308D01*
X96503893Y-56678693D01*
X96503893Y-56678698D01*
X96486921Y-56872697D01*
X96484532Y-56900000D01*
X88900500Y-56900000D01*
X88900500Y-48327765D01*
X89585788Y-48327765D01*
X89586282Y-48332262D01*
X89586283Y-48332267D01*
X89614917Y-48592506D01*
X89614918Y-48592513D01*
X89615414Y-48597018D01*
X89616559Y-48601398D01*
X89616561Y-48601408D01*
X89631291Y-48657749D01*
X89683928Y-48859088D01*
X89685693Y-48863242D01*
X89685696Y-48863250D01*
X89788099Y-49104223D01*
X89789870Y-49108390D01*
X89792226Y-49112251D01*
X89792229Y-49112256D01*
X89928618Y-49335737D01*
X89930982Y-49339610D01*
X90104255Y-49547820D01*
X90107630Y-49550844D01*
X90107631Y-49550845D01*
X90212330Y-49644656D01*
X90305998Y-49728582D01*
X90531910Y-49878044D01*
X90777176Y-49993020D01*
X91036569Y-50071060D01*
X91304561Y-50110500D01*
X91505369Y-50110500D01*
X91507631Y-50110500D01*
X91710156Y-50095677D01*
X91974553Y-50036780D01*
X92227558Y-49940014D01*
X92463777Y-49807441D01*
X92678177Y-49641888D01*
X92866186Y-49446881D01*
X93023799Y-49226579D01*
X93147656Y-48985675D01*
X93235118Y-48729305D01*
X93284319Y-48462933D01*
X93294212Y-48192235D01*
X93264586Y-47922982D01*
X93196072Y-47660912D01*
X93090130Y-47411610D01*
X92949018Y-47180390D01*
X92775745Y-46972180D01*
X92670759Y-46878112D01*
X92577382Y-46794446D01*
X92577378Y-46794442D01*
X92574002Y-46791418D01*
X92348090Y-46641956D01*
X92343996Y-46640036D01*
X92343991Y-46640034D01*
X92106929Y-46528904D01*
X92106925Y-46528902D01*
X92102824Y-46526980D01*
X92098477Y-46525672D01*
X92098474Y-46525671D01*
X91847772Y-46450246D01*
X91847771Y-46450245D01*
X91843431Y-46448940D01*
X91838957Y-46448281D01*
X91838950Y-46448280D01*
X91579913Y-46410158D01*
X91579907Y-46410157D01*
X91575439Y-46409500D01*
X91372369Y-46409500D01*
X91370120Y-46409664D01*
X91370109Y-46409665D01*
X91174363Y-46423992D01*
X91174359Y-46423992D01*
X91169844Y-46424323D01*
X91165426Y-46425307D01*
X91165420Y-46425308D01*
X90909877Y-46482232D01*
X90909861Y-46482236D01*
X90905447Y-46483220D01*
X90901216Y-46484838D01*
X90901210Y-46484840D01*
X90656673Y-46578367D01*
X90656663Y-46578371D01*
X90652442Y-46579986D01*
X90648494Y-46582201D01*
X90648489Y-46582204D01*
X90420176Y-46710340D01*
X90420171Y-46710343D01*
X90416223Y-46712559D01*
X90412639Y-46715325D01*
X90412635Y-46715329D01*
X90205407Y-46875343D01*
X90205394Y-46875354D01*
X90201823Y-46878112D01*
X90198685Y-46881366D01*
X90198678Y-46881373D01*
X90016958Y-47069857D01*
X90016952Y-47069864D01*
X90013814Y-47073119D01*
X90011189Y-47076787D01*
X90011179Y-47076800D01*
X89858834Y-47289740D01*
X89858830Y-47289745D01*
X89856201Y-47293421D01*
X89854132Y-47297444D01*
X89854129Y-47297450D01*
X89734416Y-47530293D01*
X89734411Y-47530304D01*
X89732344Y-47534325D01*
X89730884Y-47538602D01*
X89730879Y-47538616D01*
X89646348Y-47786395D01*
X89646344Y-47786407D01*
X89644882Y-47790695D01*
X89644057Y-47795159D01*
X89644057Y-47795161D01*
X89596504Y-48052606D01*
X89596502Y-48052619D01*
X89595681Y-48057067D01*
X89595515Y-48061593D01*
X89595515Y-48061599D01*
X89588433Y-48255404D01*
X89585788Y-48327765D01*
X88900500Y-48327765D01*
X88900500Y-45844500D01*
X88917113Y-45782500D01*
X88962500Y-45737113D01*
X89024500Y-45720500D01*
X185295500Y-45720500D01*
X185357500Y-45737113D01*
G37*
G04 #@! TD.AperFunction*
M02*
