M48
; DRILL file {KiCad (7.0.0)} date Sat Mar  4 18:09:39 2023
; FORMAT={-:-/ absolute / metric / decimal}
; #@! TF.CreationDate,2023-03-04T18:09:39-06:00
; #@! TF.GenerationSoftware,Kicad,Pcbnew,(7.0.0)
; #@! TF.FileFunction,Plated,1,2,PTH
FMAT,2
METRIC
; #@! TA.AperFunction,Plated,PTH,ComponentDrill
T1C0.700
; #@! TA.AperFunction,Plated,PTH,ComponentDrill
T2C0.800
; #@! TA.AperFunction,Plated,PTH,ComponentDrill
T3C1.000
; #@! TA.AperFunction,Plated,PTH,ComponentDrill
T4C1.200
%
G90
G05
T1
X171.45Y-91.44
X171.45Y-99.06
T2
X151.12Y-53.34
X151.12Y-55.88
X151.12Y-58.42
X151.12Y-60.96
X151.12Y-63.5
X151.12Y-66.04
X151.12Y-68.58
X151.12Y-71.12
X151.13Y-92.71
X151.13Y-97.79
X163.82Y-53.34
X163.82Y-55.88
X163.82Y-58.42
X163.82Y-60.96
X163.82Y-63.5
X163.82Y-66.04
X163.82Y-68.58
X163.82Y-71.12
X166.37Y-92.71
X166.37Y-97.79
X171.45Y-71.16
X171.45Y-76.16
T3
X97.79Y-51.82
X97.79Y-54.36
X97.79Y-56.9
X97.79Y-59.44
X97.79Y-61.98
X97.79Y-64.52
X97.79Y-67.06
X97.79Y-69.6
X97.79Y-72.14
X97.79Y-74.68
X97.79Y-78.74
X97.79Y-81.28
X97.79Y-83.82
X97.79Y-86.36
X97.79Y-88.9
X97.79Y-91.44
X97.79Y-93.98
X97.79Y-96.52
X146.05Y-60.96
X146.05Y-63.5
X146.05Y-66.04
X146.05Y-68.58
X146.05Y-71.12
X146.05Y-73.66
X146.05Y-76.2
X146.05Y-78.74
X146.05Y-83.82
X146.05Y-86.36
X146.05Y-88.9
X146.05Y-91.44
X146.05Y-93.98
X146.05Y-96.52
X171.45Y-49.702
X171.45Y-54.702
T4
X180.34Y-55.23
X180.34Y-58.73
X180.34Y-62.23
X180.34Y-65.73
X180.34Y-69.23
X180.34Y-72.73
X180.34Y-76.23
X180.34Y-79.73
X180.34Y-83.23
T0
M30
