%TF.GenerationSoftware,KiCad,Pcbnew,(7.0.0)*%
%TF.CreationDate,2023-03-04T18:09:39-06:00*%
%TF.ProjectId,417 Schematic,34313720-5363-4686-956d-617469632e6b,rev?*%
%TF.SameCoordinates,Original*%
%TF.FileFunction,Drillmap*%
%TF.FilePolarity,Positive*%
%FSLAX45Y45*%
G04 Gerber Fmt 4.5, Leading zero omitted, Abs format (unit mm)*
G04 Created by KiCad (PCBNEW (7.0.0)) date 2023-03-04 18:09:39*
%MOMM*%
%LPD*%
G01*
G04 APERTURE LIST*
%ADD10C,0.100000*%
%ADD11C,0.200000*%
%ADD12C,0.320000*%
G04 APERTURE END LIST*
D10*
X8890000Y-10287000D02*
X8890000Y-4572000D01*
X18542000Y-10287000D02*
X8890000Y-10287000D01*
X18542000Y-4572000D02*
X18542000Y-10287000D01*
X8890000Y-4572000D02*
X18542000Y-4572000D01*
D11*
D12*
X8984000Y-4666000D02*
X9304000Y-4986000D01*
X9304000Y-4666000D02*
X8984000Y-4986000D01*
X8984000Y-9873000D02*
X9304000Y-10193000D01*
X9304000Y-9873000D02*
X8984000Y-10193000D01*
X18128000Y-4666000D02*
X18448000Y-4986000D01*
X18448000Y-4666000D02*
X18128000Y-4986000D01*
X18128000Y-9873000D02*
X18448000Y-10193000D01*
X18448000Y-9873000D02*
X18128000Y-10193000D01*
D11*
X9132619Y-10585476D02*
X9132619Y-10385476D01*
X9132619Y-10385476D02*
X9180238Y-10385476D01*
X9180238Y-10385476D02*
X9208810Y-10395000D01*
X9208810Y-10395000D02*
X9227857Y-10414048D01*
X9227857Y-10414048D02*
X9237381Y-10433095D01*
X9237381Y-10433095D02*
X9246905Y-10471190D01*
X9246905Y-10471190D02*
X9246905Y-10499762D01*
X9246905Y-10499762D02*
X9237381Y-10537857D01*
X9237381Y-10537857D02*
X9227857Y-10556905D01*
X9227857Y-10556905D02*
X9208810Y-10575952D01*
X9208810Y-10575952D02*
X9180238Y-10585476D01*
X9180238Y-10585476D02*
X9132619Y-10585476D01*
X9332619Y-10585476D02*
X9332619Y-10452143D01*
X9332619Y-10490238D02*
X9342143Y-10471190D01*
X9342143Y-10471190D02*
X9351667Y-10461667D01*
X9351667Y-10461667D02*
X9370714Y-10452143D01*
X9370714Y-10452143D02*
X9389762Y-10452143D01*
X9456429Y-10585476D02*
X9456429Y-10452143D01*
X9456429Y-10385476D02*
X9446905Y-10395000D01*
X9446905Y-10395000D02*
X9456429Y-10404524D01*
X9456429Y-10404524D02*
X9465952Y-10395000D01*
X9465952Y-10395000D02*
X9456429Y-10385476D01*
X9456429Y-10385476D02*
X9456429Y-10404524D01*
X9580238Y-10585476D02*
X9561190Y-10575952D01*
X9561190Y-10575952D02*
X9551667Y-10556905D01*
X9551667Y-10556905D02*
X9551667Y-10385476D01*
X9685000Y-10585476D02*
X9665952Y-10575952D01*
X9665952Y-10575952D02*
X9656429Y-10556905D01*
X9656429Y-10556905D02*
X9656429Y-10385476D01*
X9881190Y-10585476D02*
X9881190Y-10385476D01*
X9881190Y-10385476D02*
X9947857Y-10528333D01*
X9947857Y-10528333D02*
X10014524Y-10385476D01*
X10014524Y-10385476D02*
X10014524Y-10585476D01*
X10195476Y-10585476D02*
X10195476Y-10480714D01*
X10195476Y-10480714D02*
X10185952Y-10461667D01*
X10185952Y-10461667D02*
X10166905Y-10452143D01*
X10166905Y-10452143D02*
X10128809Y-10452143D01*
X10128809Y-10452143D02*
X10109762Y-10461667D01*
X10195476Y-10575952D02*
X10176429Y-10585476D01*
X10176429Y-10585476D02*
X10128809Y-10585476D01*
X10128809Y-10585476D02*
X10109762Y-10575952D01*
X10109762Y-10575952D02*
X10100238Y-10556905D01*
X10100238Y-10556905D02*
X10100238Y-10537857D01*
X10100238Y-10537857D02*
X10109762Y-10518810D01*
X10109762Y-10518810D02*
X10128809Y-10509286D01*
X10128809Y-10509286D02*
X10176429Y-10509286D01*
X10176429Y-10509286D02*
X10195476Y-10499762D01*
X10290714Y-10452143D02*
X10290714Y-10652143D01*
X10290714Y-10461667D02*
X10309762Y-10452143D01*
X10309762Y-10452143D02*
X10347857Y-10452143D01*
X10347857Y-10452143D02*
X10366905Y-10461667D01*
X10366905Y-10461667D02*
X10376429Y-10471190D01*
X10376429Y-10471190D02*
X10385952Y-10490238D01*
X10385952Y-10490238D02*
X10385952Y-10547381D01*
X10385952Y-10547381D02*
X10376429Y-10566429D01*
X10376429Y-10566429D02*
X10366905Y-10575952D01*
X10366905Y-10575952D02*
X10347857Y-10585476D01*
X10347857Y-10585476D02*
X10309762Y-10585476D01*
X10309762Y-10585476D02*
X10290714Y-10575952D01*
X10471667Y-10566429D02*
X10481190Y-10575952D01*
X10481190Y-10575952D02*
X10471667Y-10585476D01*
X10471667Y-10585476D02*
X10462143Y-10575952D01*
X10462143Y-10575952D02*
X10471667Y-10566429D01*
X10471667Y-10566429D02*
X10471667Y-10585476D01*
X10471667Y-10461667D02*
X10481190Y-10471190D01*
X10481190Y-10471190D02*
X10471667Y-10480714D01*
X10471667Y-10480714D02*
X10462143Y-10471190D01*
X10462143Y-10471190D02*
X10471667Y-10461667D01*
X10471667Y-10461667D02*
X10471667Y-10480714D01*
X8685000Y-10832000D02*
X8885000Y-11032000D01*
X8885000Y-10832000D02*
X8685000Y-11032000D01*
X9113571Y-10805476D02*
X9237381Y-10805476D01*
X9237381Y-10805476D02*
X9170714Y-10881667D01*
X9170714Y-10881667D02*
X9199286Y-10881667D01*
X9199286Y-10881667D02*
X9218333Y-10891190D01*
X9218333Y-10891190D02*
X9227857Y-10900714D01*
X9227857Y-10900714D02*
X9237381Y-10919762D01*
X9237381Y-10919762D02*
X9237381Y-10967381D01*
X9237381Y-10967381D02*
X9227857Y-10986429D01*
X9227857Y-10986429D02*
X9218333Y-10995952D01*
X9218333Y-10995952D02*
X9199286Y-11005476D01*
X9199286Y-11005476D02*
X9142143Y-11005476D01*
X9142143Y-11005476D02*
X9123095Y-10995952D01*
X9123095Y-10995952D02*
X9113571Y-10986429D01*
X9323095Y-10986429D02*
X9332619Y-10995952D01*
X9332619Y-10995952D02*
X9323095Y-11005476D01*
X9323095Y-11005476D02*
X9313571Y-10995952D01*
X9313571Y-10995952D02*
X9323095Y-10986429D01*
X9323095Y-10986429D02*
X9323095Y-11005476D01*
X9408810Y-10824524D02*
X9418333Y-10815000D01*
X9418333Y-10815000D02*
X9437381Y-10805476D01*
X9437381Y-10805476D02*
X9485000Y-10805476D01*
X9485000Y-10805476D02*
X9504048Y-10815000D01*
X9504048Y-10815000D02*
X9513571Y-10824524D01*
X9513571Y-10824524D02*
X9523095Y-10843571D01*
X9523095Y-10843571D02*
X9523095Y-10862619D01*
X9523095Y-10862619D02*
X9513571Y-10891190D01*
X9513571Y-10891190D02*
X9399286Y-11005476D01*
X9399286Y-11005476D02*
X9523095Y-11005476D01*
X9646905Y-10805476D02*
X9665952Y-10805476D01*
X9665952Y-10805476D02*
X9685000Y-10815000D01*
X9685000Y-10815000D02*
X9694524Y-10824524D01*
X9694524Y-10824524D02*
X9704048Y-10843571D01*
X9704048Y-10843571D02*
X9713571Y-10881667D01*
X9713571Y-10881667D02*
X9713571Y-10929286D01*
X9713571Y-10929286D02*
X9704048Y-10967381D01*
X9704048Y-10967381D02*
X9694524Y-10986429D01*
X9694524Y-10986429D02*
X9685000Y-10995952D01*
X9685000Y-10995952D02*
X9665952Y-11005476D01*
X9665952Y-11005476D02*
X9646905Y-11005476D01*
X9646905Y-11005476D02*
X9627857Y-10995952D01*
X9627857Y-10995952D02*
X9618333Y-10986429D01*
X9618333Y-10986429D02*
X9608810Y-10967381D01*
X9608810Y-10967381D02*
X9599286Y-10929286D01*
X9599286Y-10929286D02*
X9599286Y-10881667D01*
X9599286Y-10881667D02*
X9608810Y-10843571D01*
X9608810Y-10843571D02*
X9618333Y-10824524D01*
X9618333Y-10824524D02*
X9627857Y-10815000D01*
X9627857Y-10815000D02*
X9646905Y-10805476D01*
X9837381Y-10805476D02*
X9856429Y-10805476D01*
X9856429Y-10805476D02*
X9875476Y-10815000D01*
X9875476Y-10815000D02*
X9885000Y-10824524D01*
X9885000Y-10824524D02*
X9894524Y-10843571D01*
X9894524Y-10843571D02*
X9904048Y-10881667D01*
X9904048Y-10881667D02*
X9904048Y-10929286D01*
X9904048Y-10929286D02*
X9894524Y-10967381D01*
X9894524Y-10967381D02*
X9885000Y-10986429D01*
X9885000Y-10986429D02*
X9875476Y-10995952D01*
X9875476Y-10995952D02*
X9856429Y-11005476D01*
X9856429Y-11005476D02*
X9837381Y-11005476D01*
X9837381Y-11005476D02*
X9818333Y-10995952D01*
X9818333Y-10995952D02*
X9808810Y-10986429D01*
X9808810Y-10986429D02*
X9799286Y-10967381D01*
X9799286Y-10967381D02*
X9789762Y-10929286D01*
X9789762Y-10929286D02*
X9789762Y-10881667D01*
X9789762Y-10881667D02*
X9799286Y-10843571D01*
X9799286Y-10843571D02*
X9808810Y-10824524D01*
X9808810Y-10824524D02*
X9818333Y-10815000D01*
X9818333Y-10815000D02*
X9837381Y-10805476D01*
X9989762Y-11005476D02*
X9989762Y-10872143D01*
X9989762Y-10891190D02*
X9999286Y-10881667D01*
X9999286Y-10881667D02*
X10018333Y-10872143D01*
X10018333Y-10872143D02*
X10046905Y-10872143D01*
X10046905Y-10872143D02*
X10065952Y-10881667D01*
X10065952Y-10881667D02*
X10075476Y-10900714D01*
X10075476Y-10900714D02*
X10075476Y-11005476D01*
X10075476Y-10900714D02*
X10085000Y-10881667D01*
X10085000Y-10881667D02*
X10104048Y-10872143D01*
X10104048Y-10872143D02*
X10132619Y-10872143D01*
X10132619Y-10872143D02*
X10151667Y-10881667D01*
X10151667Y-10881667D02*
X10161191Y-10900714D01*
X10161191Y-10900714D02*
X10161191Y-11005476D01*
X10256429Y-11005476D02*
X10256429Y-10872143D01*
X10256429Y-10891190D02*
X10265952Y-10881667D01*
X10265952Y-10881667D02*
X10285000Y-10872143D01*
X10285000Y-10872143D02*
X10313572Y-10872143D01*
X10313572Y-10872143D02*
X10332619Y-10881667D01*
X10332619Y-10881667D02*
X10342143Y-10900714D01*
X10342143Y-10900714D02*
X10342143Y-11005476D01*
X10342143Y-10900714D02*
X10351667Y-10881667D01*
X10351667Y-10881667D02*
X10370714Y-10872143D01*
X10370714Y-10872143D02*
X10399286Y-10872143D01*
X10399286Y-10872143D02*
X10418333Y-10881667D01*
X10418333Y-10881667D02*
X10427857Y-10900714D01*
X10427857Y-10900714D02*
X10427857Y-11005476D01*
X10785952Y-10795952D02*
X10614524Y-11053095D01*
X11010714Y-10805476D02*
X11029762Y-10805476D01*
X11029762Y-10805476D02*
X11048810Y-10815000D01*
X11048810Y-10815000D02*
X11058333Y-10824524D01*
X11058333Y-10824524D02*
X11067857Y-10843571D01*
X11067857Y-10843571D02*
X11077381Y-10881667D01*
X11077381Y-10881667D02*
X11077381Y-10929286D01*
X11077381Y-10929286D02*
X11067857Y-10967381D01*
X11067857Y-10967381D02*
X11058333Y-10986429D01*
X11058333Y-10986429D02*
X11048810Y-10995952D01*
X11048810Y-10995952D02*
X11029762Y-11005476D01*
X11029762Y-11005476D02*
X11010714Y-11005476D01*
X11010714Y-11005476D02*
X10991667Y-10995952D01*
X10991667Y-10995952D02*
X10982143Y-10986429D01*
X10982143Y-10986429D02*
X10972619Y-10967381D01*
X10972619Y-10967381D02*
X10963095Y-10929286D01*
X10963095Y-10929286D02*
X10963095Y-10881667D01*
X10963095Y-10881667D02*
X10972619Y-10843571D01*
X10972619Y-10843571D02*
X10982143Y-10824524D01*
X10982143Y-10824524D02*
X10991667Y-10815000D01*
X10991667Y-10815000D02*
X11010714Y-10805476D01*
X11163095Y-10986429D02*
X11172619Y-10995952D01*
X11172619Y-10995952D02*
X11163095Y-11005476D01*
X11163095Y-11005476D02*
X11153572Y-10995952D01*
X11153572Y-10995952D02*
X11163095Y-10986429D01*
X11163095Y-10986429D02*
X11163095Y-11005476D01*
X11363095Y-11005476D02*
X11248810Y-11005476D01*
X11305952Y-11005476D02*
X11305952Y-10805476D01*
X11305952Y-10805476D02*
X11286905Y-10834048D01*
X11286905Y-10834048D02*
X11267857Y-10853095D01*
X11267857Y-10853095D02*
X11248810Y-10862619D01*
X11439286Y-10824524D02*
X11448810Y-10815000D01*
X11448810Y-10815000D02*
X11467857Y-10805476D01*
X11467857Y-10805476D02*
X11515476Y-10805476D01*
X11515476Y-10805476D02*
X11534524Y-10815000D01*
X11534524Y-10815000D02*
X11544048Y-10824524D01*
X11544048Y-10824524D02*
X11553571Y-10843571D01*
X11553571Y-10843571D02*
X11553571Y-10862619D01*
X11553571Y-10862619D02*
X11544048Y-10891190D01*
X11544048Y-10891190D02*
X11429762Y-11005476D01*
X11429762Y-11005476D02*
X11553571Y-11005476D01*
X11725000Y-10805476D02*
X11686905Y-10805476D01*
X11686905Y-10805476D02*
X11667857Y-10815000D01*
X11667857Y-10815000D02*
X11658333Y-10824524D01*
X11658333Y-10824524D02*
X11639286Y-10853095D01*
X11639286Y-10853095D02*
X11629762Y-10891190D01*
X11629762Y-10891190D02*
X11629762Y-10967381D01*
X11629762Y-10967381D02*
X11639286Y-10986429D01*
X11639286Y-10986429D02*
X11648810Y-10995952D01*
X11648810Y-10995952D02*
X11667857Y-11005476D01*
X11667857Y-11005476D02*
X11705952Y-11005476D01*
X11705952Y-11005476D02*
X11725000Y-10995952D01*
X11725000Y-10995952D02*
X11734524Y-10986429D01*
X11734524Y-10986429D02*
X11744048Y-10967381D01*
X11744048Y-10967381D02*
X11744048Y-10919762D01*
X11744048Y-10919762D02*
X11734524Y-10900714D01*
X11734524Y-10900714D02*
X11725000Y-10891190D01*
X11725000Y-10891190D02*
X11705952Y-10881667D01*
X11705952Y-10881667D02*
X11667857Y-10881667D01*
X11667857Y-10881667D02*
X11648810Y-10891190D01*
X11648810Y-10891190D02*
X11639286Y-10900714D01*
X11639286Y-10900714D02*
X11629762Y-10919762D01*
X11867857Y-10805476D02*
X11886905Y-10805476D01*
X11886905Y-10805476D02*
X11905952Y-10815000D01*
X11905952Y-10815000D02*
X11915476Y-10824524D01*
X11915476Y-10824524D02*
X11925000Y-10843571D01*
X11925000Y-10843571D02*
X11934524Y-10881667D01*
X11934524Y-10881667D02*
X11934524Y-10929286D01*
X11934524Y-10929286D02*
X11925000Y-10967381D01*
X11925000Y-10967381D02*
X11915476Y-10986429D01*
X11915476Y-10986429D02*
X11905952Y-10995952D01*
X11905952Y-10995952D02*
X11886905Y-11005476D01*
X11886905Y-11005476D02*
X11867857Y-11005476D01*
X11867857Y-11005476D02*
X11848810Y-10995952D01*
X11848810Y-10995952D02*
X11839286Y-10986429D01*
X11839286Y-10986429D02*
X11829762Y-10967381D01*
X11829762Y-10967381D02*
X11820238Y-10929286D01*
X11820238Y-10929286D02*
X11820238Y-10881667D01*
X11820238Y-10881667D02*
X11829762Y-10843571D01*
X11829762Y-10843571D02*
X11839286Y-10824524D01*
X11839286Y-10824524D02*
X11848810Y-10815000D01*
X11848810Y-10815000D02*
X11867857Y-10805476D01*
X12010714Y-10805476D02*
X12010714Y-10843571D01*
X12086905Y-10805476D02*
X12086905Y-10843571D01*
X12349762Y-11081667D02*
X12340238Y-11072143D01*
X12340238Y-11072143D02*
X12321191Y-11043571D01*
X12321191Y-11043571D02*
X12311667Y-11024524D01*
X12311667Y-11024524D02*
X12302143Y-10995952D01*
X12302143Y-10995952D02*
X12292619Y-10948333D01*
X12292619Y-10948333D02*
X12292619Y-10910238D01*
X12292619Y-10910238D02*
X12302143Y-10862619D01*
X12302143Y-10862619D02*
X12311667Y-10834048D01*
X12311667Y-10834048D02*
X12321191Y-10815000D01*
X12321191Y-10815000D02*
X12340238Y-10786429D01*
X12340238Y-10786429D02*
X12349762Y-10776905D01*
X12511667Y-10872143D02*
X12511667Y-11005476D01*
X12464048Y-10795952D02*
X12416429Y-10938810D01*
X12416429Y-10938810D02*
X12540238Y-10938810D01*
X12736429Y-11005476D02*
X12736429Y-10805476D01*
X12822143Y-11005476D02*
X12822143Y-10900714D01*
X12822143Y-10900714D02*
X12812619Y-10881667D01*
X12812619Y-10881667D02*
X12793572Y-10872143D01*
X12793572Y-10872143D02*
X12765000Y-10872143D01*
X12765000Y-10872143D02*
X12745952Y-10881667D01*
X12745952Y-10881667D02*
X12736429Y-10891190D01*
X12945952Y-11005476D02*
X12926905Y-10995952D01*
X12926905Y-10995952D02*
X12917381Y-10986429D01*
X12917381Y-10986429D02*
X12907857Y-10967381D01*
X12907857Y-10967381D02*
X12907857Y-10910238D01*
X12907857Y-10910238D02*
X12917381Y-10891190D01*
X12917381Y-10891190D02*
X12926905Y-10881667D01*
X12926905Y-10881667D02*
X12945952Y-10872143D01*
X12945952Y-10872143D02*
X12974524Y-10872143D01*
X12974524Y-10872143D02*
X12993572Y-10881667D01*
X12993572Y-10881667D02*
X13003095Y-10891190D01*
X13003095Y-10891190D02*
X13012619Y-10910238D01*
X13012619Y-10910238D02*
X13012619Y-10967381D01*
X13012619Y-10967381D02*
X13003095Y-10986429D01*
X13003095Y-10986429D02*
X12993572Y-10995952D01*
X12993572Y-10995952D02*
X12974524Y-11005476D01*
X12974524Y-11005476D02*
X12945952Y-11005476D01*
X13126905Y-11005476D02*
X13107857Y-10995952D01*
X13107857Y-10995952D02*
X13098333Y-10976905D01*
X13098333Y-10976905D02*
X13098333Y-10805476D01*
X13279286Y-10995952D02*
X13260238Y-11005476D01*
X13260238Y-11005476D02*
X13222143Y-11005476D01*
X13222143Y-11005476D02*
X13203095Y-10995952D01*
X13203095Y-10995952D02*
X13193572Y-10976905D01*
X13193572Y-10976905D02*
X13193572Y-10900714D01*
X13193572Y-10900714D02*
X13203095Y-10881667D01*
X13203095Y-10881667D02*
X13222143Y-10872143D01*
X13222143Y-10872143D02*
X13260238Y-10872143D01*
X13260238Y-10872143D02*
X13279286Y-10881667D01*
X13279286Y-10881667D02*
X13288810Y-10900714D01*
X13288810Y-10900714D02*
X13288810Y-10919762D01*
X13288810Y-10919762D02*
X13193572Y-10938810D01*
X13365000Y-10995952D02*
X13384048Y-11005476D01*
X13384048Y-11005476D02*
X13422143Y-11005476D01*
X13422143Y-11005476D02*
X13441191Y-10995952D01*
X13441191Y-10995952D02*
X13450714Y-10976905D01*
X13450714Y-10976905D02*
X13450714Y-10967381D01*
X13450714Y-10967381D02*
X13441191Y-10948333D01*
X13441191Y-10948333D02*
X13422143Y-10938810D01*
X13422143Y-10938810D02*
X13393572Y-10938810D01*
X13393572Y-10938810D02*
X13374524Y-10929286D01*
X13374524Y-10929286D02*
X13365000Y-10910238D01*
X13365000Y-10910238D02*
X13365000Y-10900714D01*
X13365000Y-10900714D02*
X13374524Y-10881667D01*
X13374524Y-10881667D02*
X13393572Y-10872143D01*
X13393572Y-10872143D02*
X13422143Y-10872143D01*
X13422143Y-10872143D02*
X13441191Y-10881667D01*
X13517381Y-11081667D02*
X13526905Y-11072143D01*
X13526905Y-11072143D02*
X13545953Y-11043571D01*
X13545953Y-11043571D02*
X13555476Y-11024524D01*
X13555476Y-11024524D02*
X13565000Y-10995952D01*
X13565000Y-10995952D02*
X13574524Y-10948333D01*
X13574524Y-10948333D02*
X13574524Y-10910238D01*
X13574524Y-10910238D02*
X13565000Y-10862619D01*
X13565000Y-10862619D02*
X13555476Y-10834048D01*
X13555476Y-10834048D02*
X13545953Y-10815000D01*
X13545953Y-10815000D02*
X13526905Y-10786429D01*
X13526905Y-10786429D02*
X13517381Y-10776905D01*
X13846905Y-11081667D02*
X13837381Y-11072143D01*
X13837381Y-11072143D02*
X13818333Y-11043571D01*
X13818333Y-11043571D02*
X13808810Y-11024524D01*
X13808810Y-11024524D02*
X13799286Y-10995952D01*
X13799286Y-10995952D02*
X13789762Y-10948333D01*
X13789762Y-10948333D02*
X13789762Y-10910238D01*
X13789762Y-10910238D02*
X13799286Y-10862619D01*
X13799286Y-10862619D02*
X13808810Y-10834048D01*
X13808810Y-10834048D02*
X13818333Y-10815000D01*
X13818333Y-10815000D02*
X13837381Y-10786429D01*
X13837381Y-10786429D02*
X13846905Y-10776905D01*
X13923095Y-10872143D02*
X13923095Y-11005476D01*
X13923095Y-10891190D02*
X13932619Y-10881667D01*
X13932619Y-10881667D02*
X13951667Y-10872143D01*
X13951667Y-10872143D02*
X13980238Y-10872143D01*
X13980238Y-10872143D02*
X13999286Y-10881667D01*
X13999286Y-10881667D02*
X14008810Y-10900714D01*
X14008810Y-10900714D02*
X14008810Y-11005476D01*
X14132619Y-11005476D02*
X14113572Y-10995952D01*
X14113572Y-10995952D02*
X14104048Y-10986429D01*
X14104048Y-10986429D02*
X14094524Y-10967381D01*
X14094524Y-10967381D02*
X14094524Y-10910238D01*
X14094524Y-10910238D02*
X14104048Y-10891190D01*
X14104048Y-10891190D02*
X14113572Y-10881667D01*
X14113572Y-10881667D02*
X14132619Y-10872143D01*
X14132619Y-10872143D02*
X14161191Y-10872143D01*
X14161191Y-10872143D02*
X14180238Y-10881667D01*
X14180238Y-10881667D02*
X14189762Y-10891190D01*
X14189762Y-10891190D02*
X14199286Y-10910238D01*
X14199286Y-10910238D02*
X14199286Y-10967381D01*
X14199286Y-10967381D02*
X14189762Y-10986429D01*
X14189762Y-10986429D02*
X14180238Y-10995952D01*
X14180238Y-10995952D02*
X14161191Y-11005476D01*
X14161191Y-11005476D02*
X14132619Y-11005476D01*
X14256429Y-10872143D02*
X14332619Y-10872143D01*
X14285000Y-10805476D02*
X14285000Y-10976905D01*
X14285000Y-10976905D02*
X14294524Y-10995952D01*
X14294524Y-10995952D02*
X14313572Y-11005476D01*
X14313572Y-11005476D02*
X14332619Y-11005476D01*
X14519286Y-10872143D02*
X14519286Y-11072143D01*
X14519286Y-10881667D02*
X14538333Y-10872143D01*
X14538333Y-10872143D02*
X14576429Y-10872143D01*
X14576429Y-10872143D02*
X14595476Y-10881667D01*
X14595476Y-10881667D02*
X14605000Y-10891190D01*
X14605000Y-10891190D02*
X14614524Y-10910238D01*
X14614524Y-10910238D02*
X14614524Y-10967381D01*
X14614524Y-10967381D02*
X14605000Y-10986429D01*
X14605000Y-10986429D02*
X14595476Y-10995952D01*
X14595476Y-10995952D02*
X14576429Y-11005476D01*
X14576429Y-11005476D02*
X14538333Y-11005476D01*
X14538333Y-11005476D02*
X14519286Y-10995952D01*
X14728810Y-11005476D02*
X14709762Y-10995952D01*
X14709762Y-10995952D02*
X14700238Y-10976905D01*
X14700238Y-10976905D02*
X14700238Y-10805476D01*
X14890714Y-11005476D02*
X14890714Y-10900714D01*
X14890714Y-10900714D02*
X14881191Y-10881667D01*
X14881191Y-10881667D02*
X14862143Y-10872143D01*
X14862143Y-10872143D02*
X14824048Y-10872143D01*
X14824048Y-10872143D02*
X14805000Y-10881667D01*
X14890714Y-10995952D02*
X14871667Y-11005476D01*
X14871667Y-11005476D02*
X14824048Y-11005476D01*
X14824048Y-11005476D02*
X14805000Y-10995952D01*
X14805000Y-10995952D02*
X14795476Y-10976905D01*
X14795476Y-10976905D02*
X14795476Y-10957857D01*
X14795476Y-10957857D02*
X14805000Y-10938810D01*
X14805000Y-10938810D02*
X14824048Y-10929286D01*
X14824048Y-10929286D02*
X14871667Y-10929286D01*
X14871667Y-10929286D02*
X14890714Y-10919762D01*
X14957381Y-10872143D02*
X15033572Y-10872143D01*
X14985953Y-10805476D02*
X14985953Y-10976905D01*
X14985953Y-10976905D02*
X14995476Y-10995952D01*
X14995476Y-10995952D02*
X15014524Y-11005476D01*
X15014524Y-11005476D02*
X15033572Y-11005476D01*
X15176429Y-10995952D02*
X15157381Y-11005476D01*
X15157381Y-11005476D02*
X15119286Y-11005476D01*
X15119286Y-11005476D02*
X15100238Y-10995952D01*
X15100238Y-10995952D02*
X15090714Y-10976905D01*
X15090714Y-10976905D02*
X15090714Y-10900714D01*
X15090714Y-10900714D02*
X15100238Y-10881667D01*
X15100238Y-10881667D02*
X15119286Y-10872143D01*
X15119286Y-10872143D02*
X15157381Y-10872143D01*
X15157381Y-10872143D02*
X15176429Y-10881667D01*
X15176429Y-10881667D02*
X15185953Y-10900714D01*
X15185953Y-10900714D02*
X15185953Y-10919762D01*
X15185953Y-10919762D02*
X15090714Y-10938810D01*
X15357381Y-11005476D02*
X15357381Y-10805476D01*
X15357381Y-10995952D02*
X15338334Y-11005476D01*
X15338334Y-11005476D02*
X15300238Y-11005476D01*
X15300238Y-11005476D02*
X15281191Y-10995952D01*
X15281191Y-10995952D02*
X15271667Y-10986429D01*
X15271667Y-10986429D02*
X15262143Y-10967381D01*
X15262143Y-10967381D02*
X15262143Y-10910238D01*
X15262143Y-10910238D02*
X15271667Y-10891190D01*
X15271667Y-10891190D02*
X15281191Y-10881667D01*
X15281191Y-10881667D02*
X15300238Y-10872143D01*
X15300238Y-10872143D02*
X15338334Y-10872143D01*
X15338334Y-10872143D02*
X15357381Y-10881667D01*
X15433572Y-11081667D02*
X15443095Y-11072143D01*
X15443095Y-11072143D02*
X15462143Y-11043571D01*
X15462143Y-11043571D02*
X15471667Y-11024524D01*
X15471667Y-11024524D02*
X15481191Y-10995952D01*
X15481191Y-10995952D02*
X15490714Y-10948333D01*
X15490714Y-10948333D02*
X15490714Y-10910238D01*
X15490714Y-10910238D02*
X15481191Y-10862619D01*
X15481191Y-10862619D02*
X15471667Y-10834048D01*
X15471667Y-10834048D02*
X15462143Y-10815000D01*
X15462143Y-10815000D02*
X15443095Y-10786429D01*
X15443095Y-10786429D02*
X15433572Y-10776905D01*
M02*
