G04 #@! TF.GenerationSoftware,KiCad,Pcbnew,(6.0.11)*
G04 #@! TF.CreationDate,2023-03-02T23:13:04-06:00*
G04 #@! TF.ProjectId,STM,53544d2e-6b69-4636-9164-5f7063625858,rev?*
G04 #@! TF.SameCoordinates,Original*
G04 #@! TF.FileFunction,Copper,L1,Top*
G04 #@! TF.FilePolarity,Positive*
%FSLAX46Y46*%
G04 Gerber Fmt 4.6, Leading zero omitted, Abs format (unit mm)*
G04 Created by KiCad (PCBNEW (6.0.11)) date 2023-03-02 23:13:04*
%MOMM*%
%LPD*%
G01*
G04 APERTURE LIST*
G04 #@! TA.AperFunction,ComponentPad*
%ADD10C,1.530000*%
G04 #@! TD*
G04 #@! TA.AperFunction,ComponentPad*
%ADD11R,1.530000X1.530000*%
G04 #@! TD*
G04 #@! TA.AperFunction,ComponentPad*
%ADD12C,1.605000*%
G04 #@! TD*
G04 #@! TA.AperFunction,ComponentPad*
%ADD13R,1.605000X1.605000*%
G04 #@! TD*
G04 #@! TA.AperFunction,ComponentPad*
%ADD14R,1.700000X1.700000*%
G04 #@! TD*
G04 #@! TA.AperFunction,ComponentPad*
%ADD15C,1.700000*%
G04 #@! TD*
G04 #@! TA.AperFunction,ComponentPad*
%ADD16R,1.600000X1.600000*%
G04 #@! TD*
G04 #@! TA.AperFunction,ComponentPad*
%ADD17O,1.600000X1.600000*%
G04 #@! TD*
G04 #@! TA.AperFunction,ComponentPad*
%ADD18R,2.400000X2.400000*%
G04 #@! TD*
G04 #@! TA.AperFunction,ComponentPad*
%ADD19C,2.400000*%
G04 #@! TD*
G04 #@! TA.AperFunction,ViaPad*
%ADD20C,0.800000*%
G04 #@! TD*
G04 #@! TA.AperFunction,Conductor*
%ADD21C,0.250000*%
G04 #@! TD*
G04 APERTURE END LIST*
D10*
X67310000Y-136540000D03*
X69850000Y-136540000D03*
X67310000Y-134000000D03*
X69850000Y-134000000D03*
X67310000Y-131460000D03*
X69850000Y-131460000D03*
X67310000Y-128920000D03*
X69850000Y-128920000D03*
X67310000Y-126380000D03*
X69850000Y-126380000D03*
X67310000Y-123840000D03*
X69850000Y-123840000D03*
X67310000Y-121300000D03*
X69850000Y-121300000D03*
X67310000Y-118760000D03*
X69850000Y-118760000D03*
X67310000Y-116220000D03*
X69850000Y-116220000D03*
X67310000Y-113680000D03*
X69850000Y-113680000D03*
X67310000Y-111140000D03*
X69850000Y-111140000D03*
X67310000Y-108600000D03*
X69850000Y-108600000D03*
X67310000Y-106060000D03*
X69850000Y-106060000D03*
X67310000Y-103520000D03*
X69850000Y-103520000D03*
X67310000Y-100980000D03*
X69850000Y-100980000D03*
X67310000Y-98440000D03*
X69850000Y-98440000D03*
X67310000Y-95900000D03*
X69850000Y-95900000D03*
X67310000Y-93360000D03*
X69850000Y-93360000D03*
X67310000Y-90820000D03*
D11*
X69850000Y-90820000D03*
D12*
X74930000Y-118760000D03*
X74930000Y-121300000D03*
X74930000Y-123840000D03*
X74930000Y-126380000D03*
X74930000Y-128920000D03*
X74930000Y-131460000D03*
X74930000Y-134000000D03*
D13*
X74930000Y-136540000D03*
D12*
X123190000Y-136540000D03*
X123190000Y-134000000D03*
X123190000Y-131460000D03*
X123190000Y-128920000D03*
X123190000Y-126380000D03*
D13*
X123190000Y-123840000D03*
D10*
X128270000Y-136540000D03*
X130810000Y-136540000D03*
X128270000Y-134000000D03*
X130810000Y-134000000D03*
X128270000Y-131460000D03*
X130810000Y-131460000D03*
X128270000Y-128920000D03*
X130810000Y-128920000D03*
X128270000Y-126380000D03*
X130810000Y-126380000D03*
X128270000Y-123840000D03*
X130810000Y-123840000D03*
X128270000Y-121300000D03*
X130810000Y-121300000D03*
X128270000Y-118760000D03*
X130810000Y-118760000D03*
X128270000Y-116220000D03*
X130810000Y-116220000D03*
X128270000Y-113680000D03*
X130810000Y-113680000D03*
X128270000Y-111140000D03*
X130810000Y-111140000D03*
X128270000Y-108600000D03*
X130810000Y-108600000D03*
X128270000Y-106060000D03*
X130810000Y-106060000D03*
X128270000Y-103520000D03*
X130810000Y-103520000D03*
X128270000Y-100980000D03*
X130810000Y-100980000D03*
X128270000Y-98440000D03*
X130810000Y-98440000D03*
X128270000Y-95900000D03*
X130810000Y-95900000D03*
X128270000Y-93360000D03*
X130810000Y-93360000D03*
X128270000Y-90820000D03*
D11*
X130810000Y-90820000D03*
D12*
X123190000Y-118760000D03*
X123190000Y-116220000D03*
X123190000Y-113680000D03*
X123190000Y-111140000D03*
X123190000Y-108600000D03*
X123190000Y-106060000D03*
X123190000Y-103520000D03*
D13*
X123190000Y-100980000D03*
D12*
X74930000Y-91840000D03*
X74930000Y-94380000D03*
X74930000Y-96920000D03*
X74930000Y-99460000D03*
X74930000Y-102000000D03*
X74930000Y-104540000D03*
X74930000Y-107080000D03*
X74930000Y-109620000D03*
X74930000Y-112160000D03*
D13*
X74930000Y-114700000D03*
D14*
X139155000Y-97790000D03*
D15*
X139155000Y-95250000D03*
X141695000Y-97790000D03*
X141695000Y-95250000D03*
X144235000Y-97790000D03*
X144235000Y-95250000D03*
X146775000Y-97790000D03*
X146775000Y-95250000D03*
D16*
X147320000Y-133360000D03*
D17*
X147320000Y-130820000D03*
X147320000Y-128280000D03*
X147320000Y-125740000D03*
X147320000Y-123200000D03*
X147320000Y-120660000D03*
X147320000Y-118120000D03*
X147320000Y-115580000D03*
X147320000Y-113040000D03*
X147320000Y-110500000D03*
X147320000Y-107960000D03*
X147320000Y-105420000D03*
D18*
X59120000Y-82350000D03*
D19*
X59120000Y-85850000D03*
X59120000Y-89350000D03*
X59120000Y-92850000D03*
X59120000Y-96350000D03*
X59120000Y-99850000D03*
X59120000Y-103350000D03*
X59120000Y-106850000D03*
X59120000Y-110350000D03*
X59120000Y-113850000D03*
X59120000Y-117350000D03*
X59120000Y-120850000D03*
D20*
X77315500Y-100650300D03*
X79205700Y-101252700D03*
X128597800Y-139408500D03*
D21*
X125730000Y-142240000D02*
X75550000Y-142240000D01*
X75550000Y-142240000D02*
X69850000Y-136540000D01*
X128561500Y-139408500D02*
X125730000Y-142240000D01*
X128597800Y-139408500D02*
X128561500Y-139408500D01*
X68722500Y-132872500D02*
X67310000Y-131460000D01*
X88422500Y-132872500D02*
X68722500Y-132872500D01*
X93980000Y-138430000D02*
X88422500Y-132872500D01*
X144500000Y-138430000D02*
X93980000Y-138430000D01*
X151130000Y-131800000D02*
X144500000Y-138430000D01*
X151130000Y-118110000D02*
X151130000Y-131800000D01*
X148600000Y-115580000D02*
X151130000Y-118110000D01*
X147320000Y-115580000D02*
X148600000Y-115580000D01*
X71000000Y-77470000D02*
X59120000Y-89350000D01*
X132080000Y-77470000D02*
X71000000Y-77470000D01*
X149860000Y-95250000D02*
X132080000Y-77470000D01*
X149860000Y-100330000D02*
X149860000Y-95250000D01*
X144780000Y-105410000D02*
X149860000Y-100330000D01*
X144780000Y-119380000D02*
X144780000Y-105410000D01*
X146060000Y-120660000D02*
X144780000Y-119380000D01*
X147320000Y-120660000D02*
X146060000Y-120660000D01*
X99060000Y-78740000D02*
X77315500Y-100484500D01*
X130810000Y-78740000D02*
X99060000Y-78740000D01*
X144235000Y-92165000D02*
X130810000Y-78740000D01*
X77315500Y-100484500D02*
X77315500Y-100650300D01*
X144235000Y-95250000D02*
X144235000Y-92165000D01*
X70242500Y-103127500D02*
X69850000Y-103520000D01*
X75942500Y-103127500D02*
X70242500Y-103127500D01*
X99060000Y-80010000D02*
X75942500Y-103127500D01*
X130810000Y-80010000D02*
X99060000Y-80010000D01*
X143060000Y-92260000D02*
X130810000Y-80010000D01*
X143060000Y-96615000D02*
X143060000Y-92260000D01*
X144235000Y-97790000D02*
X143060000Y-96615000D01*
X130810000Y-81280000D02*
X99178400Y-81280000D01*
X140520000Y-90990000D02*
X130810000Y-81280000D01*
X140520000Y-98276701D02*
X140520000Y-90990000D01*
X141208299Y-98965000D02*
X140520000Y-98276701D01*
X145600000Y-98965000D02*
X141208299Y-98965000D01*
X146775000Y-97790000D02*
X145600000Y-98965000D01*
X99178400Y-81280000D02*
X79205700Y-101252700D01*
X128270000Y-113680000D02*
X130810000Y-113680000D01*
X68580000Y-117490000D02*
X69850000Y-116220000D01*
X62480000Y-117490000D02*
X68580000Y-117490000D01*
X59120000Y-120850000D02*
X62480000Y-117490000D01*
X68580000Y-112410000D02*
X69850000Y-111140000D01*
X64060000Y-112410000D02*
X68580000Y-112410000D01*
X59120000Y-117350000D02*
X64060000Y-112410000D01*
X65640000Y-109870000D02*
X59120000Y-103350000D01*
X71973300Y-109870000D02*
X65640000Y-109870000D01*
X73135600Y-111032300D02*
X71973300Y-109870000D01*
X77710000Y-111032300D02*
X73135600Y-111032300D01*
X99407700Y-132730000D02*
X77710000Y-111032300D01*
X124460000Y-132730000D02*
X99407700Y-132730000D01*
X128270000Y-136540000D02*
X124460000Y-132730000D01*
X110151200Y-108261200D02*
X128270000Y-126380000D01*
X71106200Y-108261200D02*
X110151200Y-108261200D01*
X70015700Y-107170700D02*
X71106200Y-108261200D01*
X66440700Y-107170700D02*
X70015700Y-107170700D01*
X59120000Y-99850000D02*
X66440700Y-107170700D01*
X126366700Y-123840000D02*
X128270000Y-123840000D01*
X108336700Y-105810000D02*
X126366700Y-123840000D01*
X73086800Y-105810000D02*
X108336700Y-105810000D01*
X71907500Y-104630700D02*
X73086800Y-105810000D01*
X66876200Y-104630700D02*
X71907500Y-104630700D01*
X59120000Y-96874500D02*
X66876200Y-104630700D01*
X59120000Y-96350000D02*
X59120000Y-96874500D01*
X147320000Y-125740000D02*
X146307500Y-125740000D01*
X139070000Y-125740000D02*
X130810000Y-134000000D01*
X146307500Y-125740000D02*
X139070000Y-125740000D01*
X141920300Y-135094600D02*
X146194900Y-130820000D01*
X129364600Y-135094600D02*
X141920300Y-135094600D01*
X128270000Y-134000000D02*
X129364600Y-135094600D01*
X147320000Y-130820000D02*
X146194900Y-130820000D01*
G04 #@! TA.AperFunction,Conductor*
G36*
X130563527Y-81933502D02*
G01*
X130584501Y-81950405D01*
X139849595Y-91215499D01*
X139883621Y-91277811D01*
X139886500Y-91304594D01*
X139886500Y-93889955D01*
X139866498Y-93958076D01*
X139812842Y-94004569D01*
X139742568Y-94014673D01*
X139713892Y-94006347D01*
X139713789Y-94006638D01*
X139508087Y-93933795D01*
X139508083Y-93933794D01*
X139503212Y-93932069D01*
X139498119Y-93931162D01*
X139498116Y-93931161D01*
X139288373Y-93893800D01*
X139288367Y-93893799D01*
X139283284Y-93892894D01*
X139209452Y-93891992D01*
X139065081Y-93890228D01*
X139065079Y-93890228D01*
X139059911Y-93890165D01*
X138839091Y-93923955D01*
X138626756Y-93993357D01*
X138596443Y-94009137D01*
X138452975Y-94083822D01*
X138428607Y-94096507D01*
X138424474Y-94099610D01*
X138424471Y-94099612D01*
X138309927Y-94185614D01*
X138249965Y-94230635D01*
X138246393Y-94234373D01*
X138117064Y-94369708D01*
X138095629Y-94392138D01*
X137969743Y-94576680D01*
X137951460Y-94616067D01*
X137913090Y-94698730D01*
X137875688Y-94779305D01*
X137815989Y-94994570D01*
X137792251Y-95216695D01*
X137792548Y-95221848D01*
X137792548Y-95221851D01*
X137798011Y-95316590D01*
X137805110Y-95439715D01*
X137806247Y-95444761D01*
X137806248Y-95444767D01*
X137810306Y-95462773D01*
X137854222Y-95657639D01*
X137938266Y-95864616D01*
X137989019Y-95947438D01*
X138052291Y-96050688D01*
X138054987Y-96055088D01*
X138201250Y-96223938D01*
X138205225Y-96227238D01*
X138205231Y-96227244D01*
X138210425Y-96231556D01*
X138250059Y-96290460D01*
X138251555Y-96361441D01*
X138214439Y-96421962D01*
X138174168Y-96446480D01*
X138066946Y-96486676D01*
X138051351Y-96495214D01*
X137949276Y-96571715D01*
X137936715Y-96584276D01*
X137860214Y-96686351D01*
X137851676Y-96701946D01*
X137806522Y-96822394D01*
X137802895Y-96837649D01*
X137797369Y-96888514D01*
X137797000Y-96895328D01*
X137797000Y-97517885D01*
X137801475Y-97533124D01*
X137802865Y-97534329D01*
X137810548Y-97536000D01*
X139283000Y-97536000D01*
X139351121Y-97556002D01*
X139397614Y-97609658D01*
X139409000Y-97662000D01*
X139409000Y-99129884D01*
X139413475Y-99145123D01*
X139414865Y-99146328D01*
X139422548Y-99147999D01*
X140049669Y-99147999D01*
X140056490Y-99147629D01*
X140107352Y-99142105D01*
X140122604Y-99138479D01*
X140243054Y-99093324D01*
X140258648Y-99084786D01*
X140270425Y-99075960D01*
X140336931Y-99051112D01*
X140406314Y-99066165D01*
X140435084Y-99087689D01*
X140573557Y-99226163D01*
X140704652Y-99357258D01*
X140712186Y-99365537D01*
X140716299Y-99372018D01*
X140737394Y-99391827D01*
X140765950Y-99418643D01*
X140768792Y-99421398D01*
X140788529Y-99441135D01*
X140791726Y-99443615D01*
X140800746Y-99451318D01*
X140832978Y-99481586D01*
X140839924Y-99485405D01*
X140839927Y-99485407D01*
X140850733Y-99491348D01*
X140867252Y-99502199D01*
X140883258Y-99514614D01*
X140890527Y-99517759D01*
X140890531Y-99517762D01*
X140923836Y-99532174D01*
X140934486Y-99537391D01*
X140973239Y-99558695D01*
X140980914Y-99560666D01*
X140980915Y-99560666D01*
X140992861Y-99563733D01*
X141011566Y-99570137D01*
X141030154Y-99578181D01*
X141037977Y-99579420D01*
X141037987Y-99579423D01*
X141073823Y-99585099D01*
X141085443Y-99587505D01*
X141117258Y-99595673D01*
X141128269Y-99598500D01*
X141148523Y-99598500D01*
X141168233Y-99600051D01*
X141188242Y-99603220D01*
X141196134Y-99602474D01*
X141214879Y-99600702D01*
X141232261Y-99599059D01*
X141244118Y-99598500D01*
X145521233Y-99598500D01*
X145532416Y-99599027D01*
X145539909Y-99600702D01*
X145547835Y-99600453D01*
X145547836Y-99600453D01*
X145607986Y-99598562D01*
X145611945Y-99598500D01*
X145639856Y-99598500D01*
X145643791Y-99598003D01*
X145643856Y-99597995D01*
X145655693Y-99597062D01*
X145687951Y-99596048D01*
X145691970Y-99595922D01*
X145699889Y-99595673D01*
X145719343Y-99590021D01*
X145738700Y-99586013D01*
X145750930Y-99584468D01*
X145750931Y-99584468D01*
X145758797Y-99583474D01*
X145766168Y-99580555D01*
X145766170Y-99580555D01*
X145799912Y-99567196D01*
X145811142Y-99563351D01*
X145845983Y-99553229D01*
X145845984Y-99553229D01*
X145853593Y-99551018D01*
X145860412Y-99546985D01*
X145860417Y-99546983D01*
X145871028Y-99540707D01*
X145888776Y-99532012D01*
X145907617Y-99524552D01*
X145943387Y-99498564D01*
X145953307Y-99492048D01*
X145984535Y-99473580D01*
X145984538Y-99473578D01*
X145991362Y-99469542D01*
X146005683Y-99455221D01*
X146020717Y-99442380D01*
X146030694Y-99435131D01*
X146037107Y-99430472D01*
X146065298Y-99396395D01*
X146073288Y-99387616D01*
X146319549Y-99141355D01*
X146381861Y-99107329D01*
X146433762Y-99106979D01*
X146613597Y-99143567D01*
X146618772Y-99143757D01*
X146618774Y-99143757D01*
X146831673Y-99151564D01*
X146831677Y-99151564D01*
X146836837Y-99151753D01*
X146841957Y-99151097D01*
X146841959Y-99151097D01*
X147053288Y-99124025D01*
X147053289Y-99124025D01*
X147058416Y-99123368D01*
X147063366Y-99121883D01*
X147267429Y-99060661D01*
X147267434Y-99060659D01*
X147272384Y-99059174D01*
X147472994Y-98960896D01*
X147654860Y-98831173D01*
X147813096Y-98673489D01*
X147825300Y-98656506D01*
X147940435Y-98496277D01*
X147943453Y-98492077D01*
X148011653Y-98354085D01*
X148040136Y-98296453D01*
X148040137Y-98296451D01*
X148042430Y-98291811D01*
X148107370Y-98078069D01*
X148136529Y-97856590D01*
X148137770Y-97805805D01*
X148138074Y-97793365D01*
X148138074Y-97793361D01*
X148138156Y-97790000D01*
X148119852Y-97567361D01*
X148065431Y-97350702D01*
X147976354Y-97145840D01*
X147855014Y-96958277D01*
X147704670Y-96793051D01*
X147700619Y-96789852D01*
X147700615Y-96789848D01*
X147533414Y-96657800D01*
X147533410Y-96657798D01*
X147529359Y-96654598D01*
X147488053Y-96631796D01*
X147438084Y-96581364D01*
X147423312Y-96511921D01*
X147448428Y-96445516D01*
X147475780Y-96418909D01*
X147528307Y-96381442D01*
X147654860Y-96291173D01*
X147813096Y-96133489D01*
X147825300Y-96116506D01*
X147940435Y-95956277D01*
X147943453Y-95952077D01*
X147964320Y-95909857D01*
X148040136Y-95756453D01*
X148040137Y-95756451D01*
X148042430Y-95751811D01*
X148107370Y-95538069D01*
X148136529Y-95316590D01*
X148136688Y-95310091D01*
X148138074Y-95253365D01*
X148138074Y-95253361D01*
X148138156Y-95250000D01*
X148119852Y-95027361D01*
X148065431Y-94810702D01*
X147976661Y-94606545D01*
X147967841Y-94536101D01*
X147998508Y-94472069D01*
X148058924Y-94434781D01*
X148129909Y-94436077D01*
X148181306Y-94467210D01*
X149189595Y-95475499D01*
X149223621Y-95537811D01*
X149226500Y-95564594D01*
X149226500Y-100015406D01*
X149206498Y-100083527D01*
X149189595Y-100104501D01*
X146787370Y-102506725D01*
X144387747Y-104906348D01*
X144379461Y-104913888D01*
X144372982Y-104918000D01*
X144367557Y-104923777D01*
X144326357Y-104967651D01*
X144323602Y-104970493D01*
X144303865Y-104990230D01*
X144301385Y-104993427D01*
X144293682Y-105002447D01*
X144263414Y-105034679D01*
X144259595Y-105041625D01*
X144259593Y-105041628D01*
X144253652Y-105052434D01*
X144242801Y-105068953D01*
X144230386Y-105084959D01*
X144227241Y-105092228D01*
X144227238Y-105092232D01*
X144212826Y-105125537D01*
X144207609Y-105136187D01*
X144186305Y-105174940D01*
X144184334Y-105182615D01*
X144184334Y-105182616D01*
X144181267Y-105194562D01*
X144174863Y-105213266D01*
X144166819Y-105231855D01*
X144165580Y-105239678D01*
X144165577Y-105239688D01*
X144159901Y-105275524D01*
X144157495Y-105287144D01*
X144154492Y-105298841D01*
X144146500Y-105329970D01*
X144146500Y-105350224D01*
X144144949Y-105369934D01*
X144141780Y-105389943D01*
X144142526Y-105397835D01*
X144145941Y-105433961D01*
X144146500Y-105445819D01*
X144146500Y-119301233D01*
X144145973Y-119312416D01*
X144144298Y-119319909D01*
X144144547Y-119327835D01*
X144144547Y-119327836D01*
X144146438Y-119387986D01*
X144146500Y-119391945D01*
X144146500Y-119419856D01*
X144146997Y-119423790D01*
X144146997Y-119423791D01*
X144147005Y-119423856D01*
X144147938Y-119435693D01*
X144149327Y-119479889D01*
X144154978Y-119499339D01*
X144158987Y-119518700D01*
X144161526Y-119538797D01*
X144164445Y-119546168D01*
X144164445Y-119546170D01*
X144177804Y-119579912D01*
X144181649Y-119591142D01*
X144193982Y-119633593D01*
X144198015Y-119640412D01*
X144198017Y-119640417D01*
X144204293Y-119651028D01*
X144212988Y-119668776D01*
X144220448Y-119687617D01*
X144225110Y-119694033D01*
X144225110Y-119694034D01*
X144246436Y-119723387D01*
X144252952Y-119733307D01*
X144271238Y-119764226D01*
X144275458Y-119771362D01*
X144289779Y-119785683D01*
X144302619Y-119800716D01*
X144314528Y-119817107D01*
X144320634Y-119822158D01*
X144348605Y-119845298D01*
X144357384Y-119853288D01*
X145556343Y-121052247D01*
X145563887Y-121060537D01*
X145568000Y-121067018D01*
X145573777Y-121072443D01*
X145617667Y-121113658D01*
X145620509Y-121116413D01*
X145640230Y-121136134D01*
X145643425Y-121138612D01*
X145652447Y-121146318D01*
X145684679Y-121176586D01*
X145691628Y-121180406D01*
X145702432Y-121186346D01*
X145718956Y-121197199D01*
X145734959Y-121209613D01*
X145775543Y-121227176D01*
X145786173Y-121232383D01*
X145824940Y-121253695D01*
X145832617Y-121255666D01*
X145832622Y-121255668D01*
X145844558Y-121258732D01*
X145863266Y-121265137D01*
X145881855Y-121273181D01*
X145889680Y-121274420D01*
X145889682Y-121274421D01*
X145925519Y-121280097D01*
X145937140Y-121282504D01*
X145972289Y-121291528D01*
X145979970Y-121293500D01*
X146000231Y-121293500D01*
X146019940Y-121295051D01*
X146039943Y-121298219D01*
X146047835Y-121297473D01*
X146053062Y-121296979D01*
X146083954Y-121294059D01*
X146095811Y-121293500D01*
X146100606Y-121293500D01*
X146168727Y-121313502D01*
X146203819Y-121347229D01*
X146268952Y-121440248D01*
X146313802Y-121504300D01*
X146475700Y-121666198D01*
X146480208Y-121669355D01*
X146480211Y-121669357D01*
X146483189Y-121671442D01*
X146663251Y-121797523D01*
X146668233Y-121799846D01*
X146668238Y-121799849D01*
X146702457Y-121815805D01*
X146755742Y-121862722D01*
X146775203Y-121930999D01*
X146754661Y-121998959D01*
X146702457Y-122044195D01*
X146668238Y-122060151D01*
X146668233Y-122060154D01*
X146663251Y-122062477D01*
X146585090Y-122117206D01*
X146480211Y-122190643D01*
X146480208Y-122190645D01*
X146475700Y-122193802D01*
X146313802Y-122355700D01*
X146310645Y-122360208D01*
X146310643Y-122360211D01*
X146266864Y-122422734D01*
X146182477Y-122543251D01*
X146180154Y-122548233D01*
X146180151Y-122548238D01*
X146109242Y-122700304D01*
X146085716Y-122750757D01*
X146084294Y-122756065D01*
X146084293Y-122756067D01*
X146057099Y-122857557D01*
X146026457Y-122971913D01*
X146006502Y-123200000D01*
X146026457Y-123428087D01*
X146027881Y-123433400D01*
X146027881Y-123433402D01*
X146078817Y-123623494D01*
X146085716Y-123649243D01*
X146088039Y-123654224D01*
X146088039Y-123654225D01*
X146180151Y-123851762D01*
X146180154Y-123851767D01*
X146182477Y-123856749D01*
X146313802Y-124044300D01*
X146475700Y-124206198D01*
X146480208Y-124209355D01*
X146480211Y-124209357D01*
X146558389Y-124264098D01*
X146663251Y-124337523D01*
X146668233Y-124339846D01*
X146668238Y-124339849D01*
X146702457Y-124355805D01*
X146755742Y-124402722D01*
X146775203Y-124470999D01*
X146754661Y-124538959D01*
X146702457Y-124584195D01*
X146668238Y-124600151D01*
X146668233Y-124600154D01*
X146663251Y-124602477D01*
X146585090Y-124657206D01*
X146480211Y-124730643D01*
X146480208Y-124730645D01*
X146475700Y-124733802D01*
X146313802Y-124895700D01*
X146310645Y-124900208D01*
X146310643Y-124900211D01*
X146203819Y-125052771D01*
X146148362Y-125097099D01*
X146100606Y-125106500D01*
X139148767Y-125106500D01*
X139137584Y-125105973D01*
X139130091Y-125104298D01*
X139122165Y-125104547D01*
X139122164Y-125104547D01*
X139062014Y-125106438D01*
X139058055Y-125106500D01*
X139030144Y-125106500D01*
X139026210Y-125106997D01*
X139026209Y-125106997D01*
X139026144Y-125107005D01*
X139014307Y-125107938D01*
X138982049Y-125108952D01*
X138978030Y-125109078D01*
X138970111Y-125109327D01*
X138950657Y-125114979D01*
X138931300Y-125118987D01*
X138919070Y-125120532D01*
X138919069Y-125120532D01*
X138911203Y-125121526D01*
X138903832Y-125124445D01*
X138903830Y-125124445D01*
X138870088Y-125137804D01*
X138858858Y-125141649D01*
X138824017Y-125151771D01*
X138824016Y-125151771D01*
X138816407Y-125153982D01*
X138809588Y-125158015D01*
X138809583Y-125158017D01*
X138798972Y-125164293D01*
X138781224Y-125172988D01*
X138762383Y-125180448D01*
X138755967Y-125185110D01*
X138755966Y-125185110D01*
X138726613Y-125206436D01*
X138716693Y-125212952D01*
X138685465Y-125231420D01*
X138685462Y-125231422D01*
X138678638Y-125235458D01*
X138664317Y-125249779D01*
X138649284Y-125262619D01*
X138632893Y-125274528D01*
X138610580Y-125301500D01*
X138604702Y-125308605D01*
X138596712Y-125317384D01*
X132298088Y-131616008D01*
X132235776Y-131650034D01*
X132164961Y-131644969D01*
X132108125Y-131602422D01*
X132083314Y-131535902D01*
X132083472Y-131515932D01*
X132087886Y-131465475D01*
X132088365Y-131460000D01*
X132068944Y-131238014D01*
X132011270Y-131022773D01*
X131965805Y-130925273D01*
X131919423Y-130825805D01*
X131919420Y-130825800D01*
X131917097Y-130820818D01*
X131789284Y-130638283D01*
X131631717Y-130480716D01*
X131596097Y-130455774D01*
X131482264Y-130376067D01*
X131449183Y-130352903D01*
X131444201Y-130350580D01*
X131444196Y-130350577D01*
X131344728Y-130304195D01*
X131291443Y-130257278D01*
X131271982Y-130189001D01*
X131292524Y-130121041D01*
X131344728Y-130075805D01*
X131444196Y-130029423D01*
X131444201Y-130029420D01*
X131449183Y-130027097D01*
X131551890Y-129955180D01*
X131627206Y-129902443D01*
X131627208Y-129902441D01*
X131631717Y-129899284D01*
X131789284Y-129741717D01*
X131830765Y-129682477D01*
X131875240Y-129618959D01*
X131917097Y-129559182D01*
X131919420Y-129554200D01*
X131919423Y-129554195D01*
X132008947Y-129362209D01*
X132008948Y-129362208D01*
X132011270Y-129357227D01*
X132068944Y-129141986D01*
X132088365Y-128920000D01*
X132068944Y-128698014D01*
X132011270Y-128482773D01*
X131965805Y-128385273D01*
X131919423Y-128285805D01*
X131919420Y-128285800D01*
X131917097Y-128280818D01*
X131789284Y-128098283D01*
X131631717Y-127940716D01*
X131596097Y-127915774D01*
X131482264Y-127836067D01*
X131449183Y-127812903D01*
X131444201Y-127810580D01*
X131444196Y-127810577D01*
X131344728Y-127764195D01*
X131291443Y-127717278D01*
X131271982Y-127649001D01*
X131292524Y-127581041D01*
X131344728Y-127535805D01*
X131444196Y-127489423D01*
X131444201Y-127489420D01*
X131449183Y-127487097D01*
X131551890Y-127415180D01*
X131627206Y-127362443D01*
X131627208Y-127362441D01*
X131631717Y-127359284D01*
X131789284Y-127201717D01*
X131830765Y-127142477D01*
X131875240Y-127078959D01*
X131917097Y-127019182D01*
X131919420Y-127014200D01*
X131919423Y-127014195D01*
X132008947Y-126822209D01*
X132008948Y-126822208D01*
X132011270Y-126817227D01*
X132068944Y-126601986D01*
X132088365Y-126380000D01*
X132068944Y-126158014D01*
X132011270Y-125942773D01*
X131965805Y-125845273D01*
X131919423Y-125745805D01*
X131919420Y-125745800D01*
X131917097Y-125740818D01*
X131789284Y-125558283D01*
X131631717Y-125400716D01*
X131596097Y-125375774D01*
X131482264Y-125296067D01*
X131449183Y-125272903D01*
X131444201Y-125270580D01*
X131444196Y-125270577D01*
X131344728Y-125224195D01*
X131291443Y-125177278D01*
X131271982Y-125109001D01*
X131292524Y-125041041D01*
X131344728Y-124995805D01*
X131444196Y-124949423D01*
X131444201Y-124949420D01*
X131449183Y-124947097D01*
X131551890Y-124875180D01*
X131627206Y-124822443D01*
X131627208Y-124822441D01*
X131631717Y-124819284D01*
X131789284Y-124661717D01*
X131830765Y-124602477D01*
X131875240Y-124538959D01*
X131917097Y-124479182D01*
X131919420Y-124474200D01*
X131919423Y-124474195D01*
X132008947Y-124282209D01*
X132008948Y-124282208D01*
X132011270Y-124277227D01*
X132068944Y-124061986D01*
X132088365Y-123840000D01*
X132068944Y-123618014D01*
X132011270Y-123402773D01*
X131919747Y-123206500D01*
X131919423Y-123205805D01*
X131919420Y-123205800D01*
X131917097Y-123200818D01*
X131789284Y-123018283D01*
X131631717Y-122860716D01*
X131596097Y-122835774D01*
X131482264Y-122756067D01*
X131449183Y-122732903D01*
X131444201Y-122730580D01*
X131444196Y-122730577D01*
X131344728Y-122684195D01*
X131291443Y-122637278D01*
X131271982Y-122569001D01*
X131292524Y-122501041D01*
X131344728Y-122455805D01*
X131444196Y-122409423D01*
X131444201Y-122409420D01*
X131449183Y-122407097D01*
X131582274Y-122313905D01*
X131627206Y-122282443D01*
X131627208Y-122282441D01*
X131631717Y-122279284D01*
X131789284Y-122121717D01*
X131830765Y-122062477D01*
X131875240Y-121998959D01*
X131917097Y-121939182D01*
X131919420Y-121934200D01*
X131919423Y-121934195D01*
X132008947Y-121742209D01*
X132008948Y-121742208D01*
X132011270Y-121737227D01*
X132068944Y-121521986D01*
X132088365Y-121300000D01*
X132068944Y-121078014D01*
X132011270Y-120862773D01*
X132007743Y-120855209D01*
X131919423Y-120665805D01*
X131919420Y-120665800D01*
X131917097Y-120660818D01*
X131789284Y-120478283D01*
X131631717Y-120320716D01*
X131617699Y-120310900D01*
X131482264Y-120216067D01*
X131449183Y-120192903D01*
X131444201Y-120190580D01*
X131444196Y-120190577D01*
X131344728Y-120144195D01*
X131291443Y-120097278D01*
X131271982Y-120029001D01*
X131292524Y-119961041D01*
X131344728Y-119915805D01*
X131444196Y-119869423D01*
X131444201Y-119869420D01*
X131449183Y-119867097D01*
X131577892Y-119776973D01*
X131627206Y-119742443D01*
X131627208Y-119742441D01*
X131631717Y-119739284D01*
X131789284Y-119581717D01*
X131814175Y-119546170D01*
X131875240Y-119458959D01*
X131917097Y-119399182D01*
X131919420Y-119394200D01*
X131919423Y-119394195D01*
X132008947Y-119202209D01*
X132008948Y-119202208D01*
X132011270Y-119197227D01*
X132015527Y-119181342D01*
X132051776Y-119046058D01*
X132068944Y-118981986D01*
X132088365Y-118760000D01*
X132068944Y-118538014D01*
X132030480Y-118394465D01*
X132012693Y-118328083D01*
X132012692Y-118328081D01*
X132011270Y-118322773D01*
X131990148Y-118277477D01*
X131919423Y-118125805D01*
X131919420Y-118125800D01*
X131917097Y-118120818D01*
X131839578Y-118010110D01*
X131792443Y-117942794D01*
X131792441Y-117942791D01*
X131789284Y-117938283D01*
X131631717Y-117780716D01*
X131611594Y-117766625D01*
X131512586Y-117697299D01*
X131449183Y-117652903D01*
X131444201Y-117650580D01*
X131444196Y-117650577D01*
X131344728Y-117604195D01*
X131291443Y-117557278D01*
X131271982Y-117489001D01*
X131292524Y-117421041D01*
X131344728Y-117375805D01*
X131444196Y-117329423D01*
X131444201Y-117329420D01*
X131449183Y-117327097D01*
X131631717Y-117199284D01*
X131789284Y-117041717D01*
X131797045Y-117030634D01*
X131848998Y-116956437D01*
X131917097Y-116859182D01*
X131919420Y-116854200D01*
X131919423Y-116854195D01*
X132008947Y-116662209D01*
X132008948Y-116662208D01*
X132011270Y-116657227D01*
X132068944Y-116441986D01*
X132088365Y-116220000D01*
X132068944Y-115998014D01*
X132011270Y-115782773D01*
X132003022Y-115765085D01*
X131919423Y-115585805D01*
X131919420Y-115585800D01*
X131917097Y-115580818D01*
X131806405Y-115422734D01*
X131792443Y-115402794D01*
X131792441Y-115402791D01*
X131789284Y-115398283D01*
X131631717Y-115240716D01*
X131449183Y-115112903D01*
X131444201Y-115110580D01*
X131444196Y-115110577D01*
X131344728Y-115064195D01*
X131291443Y-115017278D01*
X131271982Y-114949001D01*
X131292524Y-114881041D01*
X131344728Y-114835805D01*
X131444196Y-114789423D01*
X131444201Y-114789420D01*
X131449183Y-114787097D01*
X131604310Y-114678475D01*
X131627206Y-114662443D01*
X131627208Y-114662441D01*
X131631717Y-114659284D01*
X131789284Y-114501717D01*
X131830765Y-114442477D01*
X131845528Y-114421392D01*
X131917097Y-114319182D01*
X131919420Y-114314200D01*
X131919423Y-114314195D01*
X132008947Y-114122209D01*
X132008948Y-114122208D01*
X132011270Y-114117227D01*
X132068944Y-113901986D01*
X132088365Y-113680000D01*
X132068944Y-113458014D01*
X132011270Y-113242773D01*
X131978863Y-113173275D01*
X131919423Y-113045805D01*
X131919420Y-113045800D01*
X131917097Y-113040818D01*
X131789284Y-112858283D01*
X131631717Y-112700716D01*
X131625247Y-112696185D01*
X131551890Y-112644820D01*
X131449183Y-112572903D01*
X131444201Y-112570580D01*
X131444196Y-112570577D01*
X131344728Y-112524195D01*
X131291443Y-112477278D01*
X131271982Y-112409001D01*
X131292524Y-112341041D01*
X131344728Y-112295805D01*
X131444196Y-112249423D01*
X131444201Y-112249420D01*
X131449183Y-112247097D01*
X131581388Y-112154525D01*
X131627206Y-112122443D01*
X131627208Y-112122441D01*
X131631717Y-112119284D01*
X131789284Y-111961717D01*
X131797045Y-111950634D01*
X131875240Y-111838959D01*
X131917097Y-111779182D01*
X131919420Y-111774200D01*
X131919423Y-111774195D01*
X132008947Y-111582209D01*
X132008948Y-111582208D01*
X132011270Y-111577227D01*
X132017841Y-111552706D01*
X132049828Y-111433326D01*
X132068944Y-111361986D01*
X132088365Y-111140000D01*
X132068944Y-110918014D01*
X132011270Y-110702773D01*
X131985464Y-110647432D01*
X131919423Y-110505805D01*
X131919420Y-110505800D01*
X131917097Y-110500818D01*
X131813705Y-110353160D01*
X131792443Y-110322794D01*
X131792441Y-110322791D01*
X131789284Y-110318283D01*
X131631717Y-110160716D01*
X131596097Y-110135774D01*
X131533874Y-110092205D01*
X131449183Y-110032903D01*
X131444201Y-110030580D01*
X131444196Y-110030577D01*
X131344728Y-109984195D01*
X131291443Y-109937278D01*
X131271982Y-109869001D01*
X131292524Y-109801041D01*
X131344728Y-109755805D01*
X131444196Y-109709423D01*
X131444201Y-109709420D01*
X131449183Y-109707097D01*
X131573569Y-109620000D01*
X131627206Y-109582443D01*
X131627208Y-109582441D01*
X131631717Y-109579284D01*
X131789284Y-109421717D01*
X131794967Y-109413602D01*
X131872533Y-109302826D01*
X131917097Y-109239182D01*
X131919420Y-109234200D01*
X131919423Y-109234195D01*
X132008947Y-109042209D01*
X132008948Y-109042208D01*
X132011270Y-109037227D01*
X132068944Y-108821986D01*
X132088365Y-108600000D01*
X132068944Y-108378014D01*
X132011270Y-108162773D01*
X131990148Y-108117477D01*
X131919423Y-107965805D01*
X131919420Y-107965800D01*
X131917097Y-107960818D01*
X131845528Y-107858608D01*
X131792443Y-107782794D01*
X131792441Y-107782791D01*
X131789284Y-107778283D01*
X131631717Y-107620716D01*
X131605800Y-107602568D01*
X131519941Y-107542449D01*
X131449183Y-107492903D01*
X131444201Y-107490580D01*
X131444196Y-107490577D01*
X131344728Y-107444195D01*
X131291443Y-107397278D01*
X131271982Y-107329001D01*
X131292524Y-107261041D01*
X131344728Y-107215805D01*
X131444196Y-107169423D01*
X131444201Y-107169420D01*
X131449183Y-107167097D01*
X131581934Y-107074143D01*
X131627206Y-107042443D01*
X131627208Y-107042441D01*
X131631717Y-107039284D01*
X131789284Y-106881717D01*
X131814180Y-106846163D01*
X131875240Y-106758959D01*
X131917097Y-106699182D01*
X131919420Y-106694200D01*
X131919423Y-106694195D01*
X132008947Y-106502209D01*
X132008948Y-106502208D01*
X132011270Y-106497227D01*
X132013810Y-106487750D01*
X132047300Y-106362762D01*
X132068944Y-106281986D01*
X132088365Y-106060000D01*
X132068944Y-105838014D01*
X132011270Y-105622773D01*
X131948513Y-105488189D01*
X131919423Y-105425805D01*
X131919420Y-105425800D01*
X131917097Y-105420818D01*
X131808161Y-105265242D01*
X131792443Y-105242794D01*
X131792441Y-105242791D01*
X131789284Y-105238283D01*
X131631717Y-105080716D01*
X131612752Y-105067436D01*
X131545873Y-105020607D01*
X131449183Y-104952903D01*
X131444201Y-104950580D01*
X131444196Y-104950577D01*
X131344728Y-104904195D01*
X131291443Y-104857278D01*
X131271982Y-104789001D01*
X131292524Y-104721041D01*
X131344728Y-104675805D01*
X131444196Y-104629423D01*
X131444201Y-104629420D01*
X131449183Y-104627097D01*
X131581388Y-104534525D01*
X131627206Y-104502443D01*
X131627208Y-104502441D01*
X131631717Y-104499284D01*
X131789284Y-104341717D01*
X131814180Y-104306163D01*
X131861598Y-104238442D01*
X131917097Y-104159182D01*
X131919420Y-104154200D01*
X131919423Y-104154195D01*
X132008947Y-103962209D01*
X132008948Y-103962208D01*
X132011270Y-103957227D01*
X132014560Y-103944951D01*
X132055916Y-103790606D01*
X132068944Y-103741986D01*
X132088365Y-103520000D01*
X132068944Y-103298014D01*
X132011270Y-103082773D01*
X131933373Y-102915721D01*
X131919423Y-102885805D01*
X131919420Y-102885800D01*
X131917097Y-102880818D01*
X131789284Y-102698283D01*
X131631717Y-102540716D01*
X131596097Y-102515774D01*
X131523814Y-102465161D01*
X131449183Y-102412903D01*
X131444201Y-102410580D01*
X131444196Y-102410577D01*
X131344728Y-102364195D01*
X131291443Y-102317278D01*
X131271982Y-102249001D01*
X131292524Y-102181041D01*
X131344728Y-102135805D01*
X131444196Y-102089423D01*
X131444201Y-102089420D01*
X131449183Y-102087097D01*
X131631717Y-101959284D01*
X131789284Y-101801717D01*
X131800708Y-101785403D01*
X131873572Y-101681342D01*
X131917097Y-101619182D01*
X131919420Y-101614200D01*
X131919423Y-101614195D01*
X132008947Y-101422209D01*
X132008948Y-101422208D01*
X132011270Y-101417227D01*
X132021689Y-101378345D01*
X132055355Y-101252700D01*
X132068944Y-101201986D01*
X132088365Y-100980000D01*
X132068944Y-100758014D01*
X132011270Y-100542773D01*
X132003791Y-100526734D01*
X131919423Y-100345805D01*
X131919420Y-100345800D01*
X131917097Y-100340818D01*
X131815745Y-100196073D01*
X131792443Y-100162794D01*
X131792441Y-100162791D01*
X131789284Y-100158283D01*
X131631717Y-100000716D01*
X131589899Y-99971434D01*
X131521598Y-99923609D01*
X131449183Y-99872903D01*
X131444201Y-99870580D01*
X131444196Y-99870577D01*
X131344728Y-99824195D01*
X131291443Y-99777278D01*
X131271982Y-99709001D01*
X131292524Y-99641041D01*
X131344728Y-99595805D01*
X131444196Y-99549423D01*
X131444201Y-99549420D01*
X131449183Y-99547097D01*
X131581388Y-99454525D01*
X131627206Y-99422443D01*
X131627208Y-99422441D01*
X131631717Y-99419284D01*
X131789284Y-99261717D01*
X131814180Y-99226163D01*
X131868910Y-99148000D01*
X131917097Y-99079182D01*
X131919420Y-99074200D01*
X131919423Y-99074195D01*
X132008947Y-98882209D01*
X132008948Y-98882208D01*
X132011270Y-98877227D01*
X132016132Y-98859084D01*
X132062866Y-98684669D01*
X137797001Y-98684669D01*
X137797371Y-98691490D01*
X137802895Y-98742352D01*
X137806521Y-98757604D01*
X137851676Y-98878054D01*
X137860214Y-98893649D01*
X137936715Y-98995724D01*
X137949276Y-99008285D01*
X138051351Y-99084786D01*
X138066946Y-99093324D01*
X138187394Y-99138478D01*
X138202649Y-99142105D01*
X138253514Y-99147631D01*
X138260328Y-99148000D01*
X138882885Y-99148000D01*
X138898124Y-99143525D01*
X138899329Y-99142135D01*
X138901000Y-99134452D01*
X138901000Y-98062115D01*
X138896525Y-98046876D01*
X138895135Y-98045671D01*
X138887452Y-98044000D01*
X137815116Y-98044000D01*
X137799877Y-98048475D01*
X137798672Y-98049865D01*
X137797001Y-98057548D01*
X137797001Y-98684669D01*
X132062866Y-98684669D01*
X132064884Y-98677137D01*
X132068944Y-98661986D01*
X132088365Y-98440000D01*
X132068944Y-98218014D01*
X132023516Y-98048475D01*
X132012693Y-98008083D01*
X132012692Y-98008081D01*
X132011270Y-98002773D01*
X131990148Y-97957477D01*
X131919423Y-97805805D01*
X131919420Y-97805800D01*
X131917097Y-97800818D01*
X131819895Y-97662000D01*
X131792443Y-97622794D01*
X131792441Y-97622791D01*
X131789284Y-97618283D01*
X131631717Y-97460716D01*
X131590853Y-97432102D01*
X131551890Y-97404820D01*
X131449183Y-97332903D01*
X131444201Y-97330580D01*
X131444196Y-97330577D01*
X131344728Y-97284195D01*
X131291443Y-97237278D01*
X131271982Y-97169001D01*
X131292524Y-97101041D01*
X131344728Y-97055805D01*
X131444196Y-97009423D01*
X131444201Y-97009420D01*
X131449183Y-97007097D01*
X131608804Y-96895328D01*
X131627206Y-96882443D01*
X131627208Y-96882441D01*
X131631717Y-96879284D01*
X131789284Y-96721717D01*
X131813633Y-96686944D01*
X131876844Y-96596669D01*
X131917097Y-96539182D01*
X131919420Y-96534200D01*
X131919423Y-96534195D01*
X132008947Y-96342209D01*
X132008948Y-96342208D01*
X132011270Y-96337227D01*
X132068944Y-96121986D01*
X132088365Y-95900000D01*
X132068944Y-95678014D01*
X132011270Y-95462773D01*
X131978240Y-95391940D01*
X131919423Y-95265805D01*
X131919420Y-95265800D01*
X131917097Y-95260818D01*
X131839578Y-95150110D01*
X131792443Y-95082794D01*
X131792441Y-95082791D01*
X131789284Y-95078283D01*
X131631717Y-94920716D01*
X131449183Y-94792903D01*
X131444201Y-94790580D01*
X131444196Y-94790577D01*
X131344728Y-94744195D01*
X131291443Y-94697278D01*
X131271982Y-94629001D01*
X131292524Y-94561041D01*
X131344728Y-94515805D01*
X131444196Y-94469423D01*
X131444201Y-94469420D01*
X131449183Y-94467097D01*
X131585627Y-94371557D01*
X131627206Y-94342443D01*
X131627208Y-94342441D01*
X131631717Y-94339284D01*
X131789284Y-94181717D01*
X131811837Y-94149509D01*
X131912080Y-94006347D01*
X131917097Y-93999182D01*
X131919420Y-93994200D01*
X131919423Y-93994195D01*
X132008947Y-93802209D01*
X132008948Y-93802208D01*
X132011270Y-93797227D01*
X132068944Y-93581986D01*
X132088365Y-93360000D01*
X132068944Y-93138014D01*
X132011270Y-92922773D01*
X131978809Y-92853160D01*
X131919423Y-92725805D01*
X131919420Y-92725800D01*
X131917097Y-92720818D01*
X131827041Y-92592205D01*
X131792443Y-92542794D01*
X131792441Y-92542791D01*
X131789284Y-92538283D01*
X131631717Y-92380716D01*
X131593048Y-92353639D01*
X131548881Y-92322713D01*
X131504553Y-92267255D01*
X131497244Y-92196636D01*
X131529275Y-92133276D01*
X131590477Y-92097291D01*
X131616342Y-92094094D01*
X131616320Y-92093684D01*
X131619718Y-92093500D01*
X131623134Y-92093500D01*
X131685316Y-92086745D01*
X131821705Y-92035615D01*
X131938261Y-91948261D01*
X132025615Y-91831705D01*
X132076745Y-91695316D01*
X132083500Y-91633134D01*
X132083500Y-90006866D01*
X132076745Y-89944684D01*
X132025615Y-89808295D01*
X131938261Y-89691739D01*
X131821705Y-89604385D01*
X131685316Y-89553255D01*
X131623134Y-89546500D01*
X129996866Y-89546500D01*
X129934684Y-89553255D01*
X129798295Y-89604385D01*
X129681739Y-89691739D01*
X129594385Y-89808295D01*
X129543255Y-89944684D01*
X129536500Y-90006866D01*
X129536500Y-90010282D01*
X129536316Y-90013680D01*
X129535101Y-90013614D01*
X129516498Y-90076969D01*
X129462842Y-90123462D01*
X129392568Y-90133566D01*
X129327988Y-90104072D01*
X129307287Y-90081119D01*
X129252443Y-90002794D01*
X129252441Y-90002791D01*
X129249284Y-89998283D01*
X129091717Y-89840716D01*
X129065500Y-89822358D01*
X129011890Y-89784820D01*
X128909183Y-89712903D01*
X128904201Y-89710580D01*
X128904196Y-89710577D01*
X128712209Y-89621053D01*
X128712208Y-89621053D01*
X128707227Y-89618730D01*
X128701919Y-89617308D01*
X128701917Y-89617307D01*
X128635536Y-89599520D01*
X128491986Y-89561056D01*
X128270000Y-89541635D01*
X128048014Y-89561056D01*
X127904464Y-89599520D01*
X127838083Y-89617307D01*
X127838081Y-89617308D01*
X127832773Y-89618730D01*
X127827792Y-89621052D01*
X127827791Y-89621053D01*
X127635805Y-89710577D01*
X127635800Y-89710580D01*
X127630818Y-89712903D01*
X127528608Y-89784472D01*
X127474501Y-89822358D01*
X127448283Y-89840716D01*
X127290716Y-89998283D01*
X127287559Y-90002791D01*
X127287557Y-90002794D01*
X127284706Y-90006866D01*
X127162903Y-90180818D01*
X127160580Y-90185800D01*
X127160577Y-90185805D01*
X127071797Y-90376195D01*
X127068730Y-90382773D01*
X127011056Y-90598014D01*
X126991635Y-90820000D01*
X127011056Y-91041986D01*
X127068730Y-91257227D01*
X127071052Y-91262208D01*
X127071053Y-91262209D01*
X127160577Y-91454195D01*
X127160580Y-91454200D01*
X127162903Y-91459182D01*
X127204454Y-91518523D01*
X127287085Y-91636531D01*
X127290716Y-91641717D01*
X127448283Y-91799284D01*
X127452792Y-91802441D01*
X127452794Y-91802443D01*
X127498612Y-91834525D01*
X127630817Y-91927097D01*
X127635802Y-91929421D01*
X127635808Y-91929425D01*
X127735272Y-91975805D01*
X127788558Y-92022722D01*
X127808019Y-92090999D01*
X127787478Y-92158959D01*
X127735273Y-92204195D01*
X127635805Y-92250577D01*
X127635800Y-92250580D01*
X127630818Y-92252903D01*
X127448283Y-92380716D01*
X127290716Y-92538283D01*
X127287559Y-92542791D01*
X127287557Y-92542794D01*
X127252959Y-92592205D01*
X127162903Y-92720818D01*
X127160580Y-92725800D01*
X127160577Y-92725805D01*
X127101191Y-92853160D01*
X127068730Y-92922773D01*
X127011056Y-93138014D01*
X126991635Y-93360000D01*
X127011056Y-93581986D01*
X127068730Y-93797227D01*
X127071052Y-93802208D01*
X127071053Y-93802209D01*
X127160577Y-93994195D01*
X127160580Y-93994200D01*
X127162903Y-93999182D01*
X127167920Y-94006347D01*
X127268164Y-94149509D01*
X127290716Y-94181717D01*
X127448283Y-94339284D01*
X127452792Y-94342441D01*
X127452794Y-94342443D01*
X127494373Y-94371557D01*
X127630817Y-94467097D01*
X127635802Y-94469421D01*
X127635808Y-94469425D01*
X127735272Y-94515805D01*
X127788558Y-94562722D01*
X127808019Y-94630999D01*
X127787478Y-94698959D01*
X127735273Y-94744195D01*
X127728895Y-94747169D01*
X127635805Y-94790577D01*
X127635800Y-94790580D01*
X127630818Y-94792903D01*
X127448283Y-94920716D01*
X127290716Y-95078283D01*
X127287559Y-95082791D01*
X127287557Y-95082794D01*
X127240422Y-95150110D01*
X127162903Y-95260818D01*
X127160580Y-95265800D01*
X127160577Y-95265805D01*
X127101760Y-95391940D01*
X127068730Y-95462773D01*
X127011056Y-95678014D01*
X126991635Y-95900000D01*
X127011056Y-96121986D01*
X127068730Y-96337227D01*
X127071052Y-96342208D01*
X127071053Y-96342209D01*
X127160577Y-96534195D01*
X127160580Y-96534200D01*
X127162903Y-96539182D01*
X127203156Y-96596669D01*
X127266368Y-96686944D01*
X127290716Y-96721717D01*
X127448283Y-96879284D01*
X127452792Y-96882441D01*
X127452794Y-96882443D01*
X127471196Y-96895328D01*
X127630817Y-97007097D01*
X127635802Y-97009421D01*
X127635808Y-97009425D01*
X127735272Y-97055805D01*
X127788558Y-97102722D01*
X127808019Y-97170999D01*
X127787478Y-97238959D01*
X127735273Y-97284195D01*
X127635805Y-97330577D01*
X127635800Y-97330580D01*
X127630818Y-97332903D01*
X127448283Y-97460716D01*
X127290716Y-97618283D01*
X127287559Y-97622791D01*
X127287557Y-97622794D01*
X127260105Y-97662000D01*
X127162903Y-97800818D01*
X127160580Y-97805800D01*
X127160577Y-97805805D01*
X127089852Y-97957477D01*
X127068730Y-98002773D01*
X127067308Y-98008081D01*
X127067307Y-98008083D01*
X127056484Y-98048475D01*
X127011056Y-98218014D01*
X126991635Y-98440000D01*
X127011056Y-98661986D01*
X127015116Y-98677137D01*
X127063869Y-98859084D01*
X127068730Y-98877227D01*
X127071052Y-98882208D01*
X127071053Y-98882209D01*
X127160577Y-99074195D01*
X127160580Y-99074200D01*
X127162903Y-99079182D01*
X127211090Y-99148000D01*
X127265821Y-99226163D01*
X127290716Y-99261717D01*
X127448283Y-99419284D01*
X127452792Y-99422441D01*
X127452794Y-99422443D01*
X127498612Y-99454525D01*
X127630817Y-99547097D01*
X127635802Y-99549421D01*
X127635808Y-99549425D01*
X127735272Y-99595805D01*
X127788558Y-99642722D01*
X127808019Y-99710999D01*
X127787478Y-99778959D01*
X127735273Y-99824195D01*
X127635805Y-99870577D01*
X127635800Y-99870580D01*
X127630818Y-99872903D01*
X127448283Y-100000716D01*
X127290716Y-100158283D01*
X127287559Y-100162791D01*
X127287557Y-100162794D01*
X127264255Y-100196073D01*
X127162903Y-100340818D01*
X127160580Y-100345800D01*
X127160577Y-100345805D01*
X127076209Y-100526734D01*
X127068730Y-100542773D01*
X127011056Y-100758014D01*
X126991635Y-100980000D01*
X127011056Y-101201986D01*
X127024645Y-101252700D01*
X127058312Y-101378345D01*
X127068730Y-101417227D01*
X127071052Y-101422208D01*
X127071053Y-101422209D01*
X127160577Y-101614195D01*
X127160580Y-101614200D01*
X127162903Y-101619182D01*
X127206428Y-101681342D01*
X127279293Y-101785403D01*
X127290716Y-101801717D01*
X127448283Y-101959284D01*
X127630817Y-102087097D01*
X127635802Y-102089421D01*
X127635808Y-102089425D01*
X127735272Y-102135805D01*
X127788558Y-102182722D01*
X127808019Y-102250999D01*
X127787478Y-102318959D01*
X127735273Y-102364195D01*
X127635805Y-102410577D01*
X127635800Y-102410580D01*
X127630818Y-102412903D01*
X127577694Y-102450101D01*
X127483904Y-102515774D01*
X127448283Y-102540716D01*
X127290716Y-102698283D01*
X127162903Y-102880818D01*
X127160580Y-102885800D01*
X127160577Y-102885805D01*
X127146627Y-102915721D01*
X127068730Y-103082773D01*
X127011056Y-103298014D01*
X126991635Y-103520000D01*
X127011056Y-103741986D01*
X127024084Y-103790606D01*
X127065441Y-103944951D01*
X127068730Y-103957227D01*
X127071052Y-103962208D01*
X127071053Y-103962209D01*
X127160577Y-104154195D01*
X127160580Y-104154200D01*
X127162903Y-104159182D01*
X127218402Y-104238442D01*
X127265821Y-104306163D01*
X127290716Y-104341717D01*
X127448283Y-104499284D01*
X127452792Y-104502441D01*
X127452794Y-104502443D01*
X127498612Y-104534525D01*
X127630817Y-104627097D01*
X127635802Y-104629421D01*
X127635808Y-104629425D01*
X127735272Y-104675805D01*
X127788558Y-104722722D01*
X127808019Y-104790999D01*
X127787478Y-104858959D01*
X127735273Y-104904195D01*
X127635805Y-104950577D01*
X127635800Y-104950580D01*
X127630818Y-104952903D01*
X127556542Y-105004912D01*
X127467249Y-105067436D01*
X127448283Y-105080716D01*
X127290716Y-105238283D01*
X127287559Y-105242791D01*
X127287557Y-105242794D01*
X127271839Y-105265242D01*
X127162903Y-105420818D01*
X127160580Y-105425800D01*
X127160577Y-105425805D01*
X127131487Y-105488189D01*
X127068730Y-105622773D01*
X127011056Y-105838014D01*
X126991635Y-106060000D01*
X127011056Y-106281986D01*
X127032700Y-106362762D01*
X127066191Y-106487750D01*
X127068730Y-106497227D01*
X127071052Y-106502208D01*
X127071053Y-106502209D01*
X127160577Y-106694195D01*
X127160580Y-106694200D01*
X127162903Y-106699182D01*
X127204760Y-106758959D01*
X127265821Y-106846163D01*
X127290716Y-106881717D01*
X127448283Y-107039284D01*
X127452792Y-107042441D01*
X127452794Y-107042443D01*
X127498066Y-107074143D01*
X127630817Y-107167097D01*
X127635802Y-107169421D01*
X127635808Y-107169425D01*
X127735272Y-107215805D01*
X127788558Y-107262722D01*
X127808019Y-107330999D01*
X127787478Y-107398959D01*
X127735273Y-107444195D01*
X127635805Y-107490577D01*
X127635800Y-107490580D01*
X127630818Y-107492903D01*
X127555371Y-107545732D01*
X127466875Y-107607698D01*
X127448283Y-107620716D01*
X127290716Y-107778283D01*
X127287559Y-107782791D01*
X127287557Y-107782794D01*
X127234472Y-107858608D01*
X127162903Y-107960818D01*
X127160580Y-107965800D01*
X127160577Y-107965805D01*
X127089852Y-108117477D01*
X127068730Y-108162773D01*
X127011056Y-108378014D01*
X126991635Y-108600000D01*
X127011056Y-108821986D01*
X127068730Y-109037227D01*
X127071052Y-109042208D01*
X127071053Y-109042209D01*
X127160577Y-109234195D01*
X127160580Y-109234200D01*
X127162903Y-109239182D01*
X127207467Y-109302826D01*
X127285034Y-109413602D01*
X127290716Y-109421717D01*
X127448283Y-109579284D01*
X127452792Y-109582441D01*
X127452794Y-109582443D01*
X127506431Y-109620000D01*
X127630817Y-109707097D01*
X127635802Y-109709421D01*
X127635808Y-109709425D01*
X127735272Y-109755805D01*
X127788558Y-109802722D01*
X127808019Y-109870999D01*
X127787478Y-109938959D01*
X127735273Y-109984195D01*
X127635805Y-110030577D01*
X127635800Y-110030580D01*
X127630818Y-110032903D01*
X127577694Y-110070101D01*
X127483904Y-110135774D01*
X127448283Y-110160716D01*
X127290716Y-110318283D01*
X127287559Y-110322791D01*
X127287557Y-110322794D01*
X127266295Y-110353160D01*
X127162903Y-110500818D01*
X127160580Y-110505800D01*
X127160577Y-110505805D01*
X127094536Y-110647432D01*
X127068730Y-110702773D01*
X127011056Y-110918014D01*
X126991635Y-111140000D01*
X127011056Y-111361986D01*
X127030172Y-111433326D01*
X127062160Y-111552706D01*
X127068730Y-111577227D01*
X127071052Y-111582208D01*
X127071053Y-111582209D01*
X127160577Y-111774195D01*
X127160580Y-111774200D01*
X127162903Y-111779182D01*
X127204760Y-111838959D01*
X127282956Y-111950634D01*
X127290716Y-111961717D01*
X127448283Y-112119284D01*
X127452792Y-112122441D01*
X127452794Y-112122443D01*
X127498612Y-112154525D01*
X127630817Y-112247097D01*
X127635802Y-112249421D01*
X127635808Y-112249425D01*
X127735272Y-112295805D01*
X127788558Y-112342722D01*
X127808019Y-112410999D01*
X127787478Y-112478959D01*
X127735273Y-112524195D01*
X127635805Y-112570577D01*
X127635800Y-112570580D01*
X127630818Y-112572903D01*
X127577694Y-112610101D01*
X127454754Y-112696185D01*
X127448283Y-112700716D01*
X127290716Y-112858283D01*
X127162903Y-113040818D01*
X127160580Y-113045800D01*
X127160577Y-113045805D01*
X127101137Y-113173275D01*
X127068730Y-113242773D01*
X127011056Y-113458014D01*
X126991635Y-113680000D01*
X127011056Y-113901986D01*
X127068730Y-114117227D01*
X127071052Y-114122208D01*
X127071053Y-114122209D01*
X127160577Y-114314195D01*
X127160580Y-114314200D01*
X127162903Y-114319182D01*
X127234472Y-114421392D01*
X127249236Y-114442477D01*
X127290716Y-114501717D01*
X127448283Y-114659284D01*
X127452792Y-114662441D01*
X127452794Y-114662443D01*
X127475690Y-114678475D01*
X127630817Y-114787097D01*
X127635802Y-114789421D01*
X127635808Y-114789425D01*
X127735272Y-114835805D01*
X127788558Y-114882722D01*
X127808019Y-114950999D01*
X127787478Y-115018959D01*
X127735273Y-115064195D01*
X127635805Y-115110577D01*
X127635800Y-115110580D01*
X127630818Y-115112903D01*
X127448283Y-115240716D01*
X127290716Y-115398283D01*
X127287559Y-115402791D01*
X127287557Y-115402794D01*
X127273595Y-115422734D01*
X127162903Y-115580818D01*
X127160580Y-115585800D01*
X127160577Y-115585805D01*
X127076978Y-115765085D01*
X127068730Y-115782773D01*
X127011056Y-115998014D01*
X126991635Y-116220000D01*
X127011056Y-116441986D01*
X127068730Y-116657227D01*
X127071052Y-116662208D01*
X127071053Y-116662209D01*
X127160577Y-116854195D01*
X127160580Y-116854200D01*
X127162903Y-116859182D01*
X127231002Y-116956437D01*
X127282956Y-117030634D01*
X127290716Y-117041717D01*
X127448283Y-117199284D01*
X127630817Y-117327097D01*
X127635802Y-117329421D01*
X127635808Y-117329425D01*
X127735272Y-117375805D01*
X127788558Y-117422722D01*
X127808019Y-117490999D01*
X127787478Y-117558959D01*
X127735273Y-117604195D01*
X127635805Y-117650577D01*
X127635800Y-117650580D01*
X127630818Y-117652903D01*
X127557397Y-117704313D01*
X127483904Y-117755774D01*
X127448283Y-117780716D01*
X127290716Y-117938283D01*
X127287559Y-117942791D01*
X127287557Y-117942794D01*
X127240422Y-118010110D01*
X127162903Y-118120818D01*
X127160580Y-118125800D01*
X127160577Y-118125805D01*
X127089852Y-118277477D01*
X127068730Y-118322773D01*
X127067308Y-118328081D01*
X127067307Y-118328083D01*
X127049520Y-118394465D01*
X127011056Y-118538014D01*
X126991635Y-118760000D01*
X127011056Y-118981986D01*
X127028224Y-119046058D01*
X127064474Y-119181342D01*
X127068730Y-119197227D01*
X127071052Y-119202208D01*
X127071053Y-119202209D01*
X127160577Y-119394195D01*
X127160580Y-119394200D01*
X127162903Y-119399182D01*
X127204760Y-119458959D01*
X127265826Y-119546170D01*
X127290716Y-119581717D01*
X127448283Y-119739284D01*
X127452792Y-119742441D01*
X127452794Y-119742443D01*
X127502108Y-119776973D01*
X127630817Y-119867097D01*
X127635802Y-119869421D01*
X127635808Y-119869425D01*
X127735272Y-119915805D01*
X127788558Y-119962722D01*
X127808019Y-120030999D01*
X127787478Y-120098959D01*
X127735273Y-120144195D01*
X127635805Y-120190577D01*
X127635800Y-120190580D01*
X127630818Y-120192903D01*
X127605320Y-120210757D01*
X127462302Y-120310900D01*
X127448283Y-120320716D01*
X127290716Y-120478283D01*
X127162903Y-120660818D01*
X127160580Y-120665800D01*
X127160577Y-120665805D01*
X127072257Y-120855209D01*
X127068730Y-120862773D01*
X127011056Y-121078014D01*
X126991635Y-121300000D01*
X127011056Y-121521986D01*
X127068730Y-121737227D01*
X127071052Y-121742208D01*
X127071053Y-121742209D01*
X127160577Y-121934195D01*
X127160580Y-121934200D01*
X127162903Y-121939182D01*
X127204760Y-121998959D01*
X127249236Y-122062477D01*
X127290716Y-122121717D01*
X127448283Y-122279284D01*
X127452792Y-122282441D01*
X127452794Y-122282443D01*
X127497726Y-122313905D01*
X127630817Y-122407097D01*
X127635802Y-122409421D01*
X127635808Y-122409425D01*
X127735272Y-122455805D01*
X127788558Y-122502722D01*
X127808019Y-122570999D01*
X127787478Y-122638959D01*
X127735273Y-122684195D01*
X127635805Y-122730577D01*
X127635800Y-122730580D01*
X127630818Y-122732903D01*
X127605320Y-122750757D01*
X127483904Y-122835774D01*
X127448283Y-122860716D01*
X127290716Y-123018283D01*
X127287559Y-123022791D01*
X127287557Y-123022794D01*
X127196546Y-123152771D01*
X127141089Y-123197099D01*
X127093333Y-123206500D01*
X126681294Y-123206500D01*
X126613173Y-123186498D01*
X126592199Y-123169595D01*
X123616723Y-120194119D01*
X123582697Y-120131807D01*
X123587762Y-120060992D01*
X123630309Y-120004156D01*
X123652564Y-119990831D01*
X123773099Y-119934625D01*
X123843023Y-119902019D01*
X123843026Y-119902017D01*
X123848004Y-119899696D01*
X124035914Y-119768121D01*
X124198121Y-119605914D01*
X124329696Y-119418004D01*
X124340799Y-119394195D01*
X124424320Y-119215083D01*
X124424321Y-119215082D01*
X124426643Y-119210101D01*
X124431516Y-119191917D01*
X124484591Y-118993837D01*
X124484591Y-118993835D01*
X124486015Y-118988522D01*
X124506008Y-118760000D01*
X124486015Y-118531478D01*
X124469618Y-118470282D01*
X124428066Y-118315209D01*
X124428065Y-118315207D01*
X124426643Y-118309899D01*
X124424320Y-118304917D01*
X124332019Y-118106977D01*
X124332017Y-118106974D01*
X124329696Y-118101996D01*
X124198121Y-117914086D01*
X124035914Y-117751879D01*
X123848004Y-117620304D01*
X123843027Y-117617983D01*
X123843018Y-117617978D01*
X123812866Y-117603918D01*
X123759581Y-117557001D01*
X123740121Y-117488723D01*
X123760663Y-117420764D01*
X123812869Y-117375528D01*
X123842773Y-117361584D01*
X123852258Y-117356107D01*
X123904844Y-117319287D01*
X123913219Y-117308809D01*
X123906151Y-117295361D01*
X123202812Y-116592022D01*
X123188868Y-116584408D01*
X123187035Y-116584539D01*
X123180420Y-116588790D01*
X122473127Y-117296083D01*
X122466697Y-117307857D01*
X122475994Y-117319873D01*
X122527742Y-117356107D01*
X122537227Y-117361584D01*
X122567131Y-117375528D01*
X122620417Y-117422445D01*
X122639879Y-117490722D01*
X122619338Y-117558682D01*
X122567134Y-117603918D01*
X122536982Y-117617978D01*
X122536973Y-117617983D01*
X122531996Y-117620304D01*
X122344086Y-117751879D01*
X122181879Y-117914086D01*
X122050304Y-118101996D01*
X122047983Y-118106974D01*
X122047981Y-118106977D01*
X122038934Y-118126379D01*
X121959170Y-118297433D01*
X121912254Y-118350717D01*
X121843977Y-118370178D01*
X121776017Y-118349636D01*
X121755881Y-118333277D01*
X119648079Y-116225475D01*
X121874973Y-116225475D01*
X121894000Y-116442958D01*
X121895902Y-116453745D01*
X121952406Y-116664619D01*
X121956154Y-116674915D01*
X122048415Y-116872772D01*
X122053893Y-116882258D01*
X122090713Y-116934844D01*
X122101191Y-116943219D01*
X122114639Y-116936151D01*
X122817978Y-116232812D01*
X122824356Y-116221132D01*
X123554408Y-116221132D01*
X123554539Y-116222965D01*
X123558790Y-116229580D01*
X124266083Y-116936873D01*
X124277857Y-116943303D01*
X124289873Y-116934006D01*
X124326107Y-116882258D01*
X124331585Y-116872772D01*
X124423846Y-116674915D01*
X124427594Y-116664619D01*
X124484098Y-116453745D01*
X124486000Y-116442958D01*
X124505027Y-116225475D01*
X124505027Y-116214525D01*
X124486000Y-115997042D01*
X124484098Y-115986255D01*
X124427594Y-115775381D01*
X124423846Y-115765085D01*
X124331585Y-115567228D01*
X124326107Y-115557742D01*
X124289287Y-115505156D01*
X124278809Y-115496781D01*
X124265361Y-115503849D01*
X123562022Y-116207188D01*
X123554408Y-116221132D01*
X122824356Y-116221132D01*
X122825592Y-116218868D01*
X122825461Y-116217035D01*
X122821210Y-116210420D01*
X122113917Y-115503127D01*
X122102143Y-115496697D01*
X122090127Y-115505994D01*
X122053893Y-115557742D01*
X122048415Y-115567228D01*
X121956154Y-115765085D01*
X121952406Y-115775381D01*
X121895902Y-115986255D01*
X121894000Y-115997042D01*
X121874973Y-116214525D01*
X121874973Y-116225475D01*
X119648079Y-116225475D01*
X118190462Y-114767857D01*
X122466697Y-114767857D01*
X122475994Y-114779873D01*
X122527742Y-114816107D01*
X122537232Y-114821587D01*
X122567723Y-114835805D01*
X122621009Y-114882722D01*
X122640470Y-114950999D01*
X122619929Y-115018959D01*
X122567723Y-115064195D01*
X122537232Y-115078413D01*
X122527742Y-115083893D01*
X122475156Y-115120713D01*
X122466781Y-115131191D01*
X122473849Y-115144639D01*
X123177188Y-115847978D01*
X123191132Y-115855592D01*
X123192965Y-115855461D01*
X123199580Y-115851210D01*
X123906873Y-115143917D01*
X123913303Y-115132143D01*
X123904006Y-115120127D01*
X123852258Y-115083893D01*
X123842768Y-115078413D01*
X123812277Y-115064195D01*
X123758991Y-115017278D01*
X123739530Y-114949001D01*
X123760071Y-114881041D01*
X123812277Y-114835805D01*
X123842768Y-114821587D01*
X123852258Y-114816107D01*
X123904844Y-114779287D01*
X123913219Y-114768809D01*
X123906151Y-114755361D01*
X123202812Y-114052022D01*
X123188868Y-114044408D01*
X123187035Y-114044539D01*
X123180420Y-114048790D01*
X122473127Y-114756083D01*
X122466697Y-114767857D01*
X118190462Y-114767857D01*
X117108080Y-113685475D01*
X121874973Y-113685475D01*
X121894000Y-113902958D01*
X121895902Y-113913745D01*
X121952406Y-114124619D01*
X121956154Y-114134915D01*
X122048415Y-114332772D01*
X122053893Y-114342258D01*
X122090713Y-114394844D01*
X122101191Y-114403219D01*
X122114639Y-114396151D01*
X122817978Y-113692812D01*
X122824356Y-113681132D01*
X123554408Y-113681132D01*
X123554539Y-113682965D01*
X123558790Y-113689580D01*
X124266083Y-114396873D01*
X124277857Y-114403303D01*
X124289873Y-114394006D01*
X124326107Y-114342258D01*
X124331585Y-114332772D01*
X124423846Y-114134915D01*
X124427594Y-114124619D01*
X124484098Y-113913745D01*
X124486000Y-113902958D01*
X124505027Y-113685475D01*
X124505027Y-113674525D01*
X124486000Y-113457042D01*
X124484098Y-113446255D01*
X124427594Y-113235381D01*
X124423846Y-113225085D01*
X124331585Y-113027228D01*
X124326107Y-113017742D01*
X124289287Y-112965156D01*
X124278809Y-112956781D01*
X124265361Y-112963849D01*
X123562022Y-113667188D01*
X123554408Y-113681132D01*
X122824356Y-113681132D01*
X122825592Y-113678868D01*
X122825461Y-113677035D01*
X122821210Y-113670420D01*
X122113917Y-112963127D01*
X122102143Y-112956697D01*
X122090127Y-112965994D01*
X122053893Y-113017742D01*
X122048415Y-113027228D01*
X121956154Y-113225085D01*
X121952406Y-113235381D01*
X121895902Y-113446255D01*
X121894000Y-113457042D01*
X121874973Y-113674525D01*
X121874973Y-113685475D01*
X117108080Y-113685475D01*
X115367133Y-111944528D01*
X114562605Y-111140000D01*
X121873992Y-111140000D01*
X121893985Y-111368522D01*
X121895409Y-111373835D01*
X121895409Y-111373837D01*
X121948485Y-111571917D01*
X121953357Y-111590101D01*
X121955679Y-111595082D01*
X121955680Y-111595083D01*
X122046820Y-111790532D01*
X122050304Y-111798004D01*
X122181879Y-111985914D01*
X122344086Y-112148121D01*
X122531996Y-112279696D01*
X122536973Y-112282017D01*
X122536982Y-112282022D01*
X122567134Y-112296082D01*
X122620419Y-112342999D01*
X122639879Y-112411277D01*
X122619337Y-112479236D01*
X122567131Y-112524472D01*
X122537227Y-112538416D01*
X122527742Y-112543893D01*
X122475156Y-112580713D01*
X122466781Y-112591191D01*
X122473849Y-112604639D01*
X123177188Y-113307978D01*
X123191132Y-113315592D01*
X123192965Y-113315461D01*
X123199580Y-113311210D01*
X123906873Y-112603917D01*
X123913303Y-112592143D01*
X123904006Y-112580127D01*
X123852258Y-112543893D01*
X123842773Y-112538416D01*
X123812869Y-112524472D01*
X123759583Y-112477555D01*
X123740121Y-112409278D01*
X123760662Y-112341318D01*
X123812866Y-112296082D01*
X123843018Y-112282022D01*
X123843027Y-112282017D01*
X123848004Y-112279696D01*
X124035914Y-112148121D01*
X124198121Y-111985914D01*
X124329696Y-111798004D01*
X124333181Y-111790532D01*
X124424320Y-111595083D01*
X124424321Y-111595082D01*
X124426643Y-111590101D01*
X124431516Y-111571917D01*
X124484591Y-111373837D01*
X124484591Y-111373835D01*
X124486015Y-111368522D01*
X124506008Y-111140000D01*
X124486015Y-110911478D01*
X124458250Y-110807857D01*
X124428066Y-110695209D01*
X124428065Y-110695207D01*
X124426643Y-110689899D01*
X124424320Y-110684917D01*
X124332019Y-110486977D01*
X124332017Y-110486974D01*
X124329696Y-110481996D01*
X124198121Y-110294086D01*
X124035914Y-110131879D01*
X123848004Y-110000304D01*
X123843026Y-109997983D01*
X123843023Y-109997981D01*
X123813458Y-109984195D01*
X123760173Y-109937278D01*
X123740712Y-109869001D01*
X123761254Y-109801041D01*
X123813458Y-109755805D01*
X123843023Y-109742019D01*
X123843026Y-109742017D01*
X123848004Y-109739696D01*
X124035914Y-109608121D01*
X124198121Y-109445914D01*
X124329696Y-109258004D01*
X124333908Y-109248973D01*
X124424320Y-109055083D01*
X124424321Y-109055082D01*
X124426643Y-109050101D01*
X124431516Y-109031917D01*
X124484591Y-108833837D01*
X124484591Y-108833835D01*
X124486015Y-108828522D01*
X124506008Y-108600000D01*
X124486015Y-108371478D01*
X124484591Y-108366163D01*
X124428066Y-108155209D01*
X124428065Y-108155207D01*
X124426643Y-108149899D01*
X124421103Y-108138019D01*
X124332019Y-107946977D01*
X124332017Y-107946974D01*
X124329696Y-107941996D01*
X124198121Y-107754086D01*
X124035914Y-107591879D01*
X123848004Y-107460304D01*
X123843026Y-107457983D01*
X123843023Y-107457981D01*
X123813458Y-107444195D01*
X123760173Y-107397278D01*
X123740712Y-107329001D01*
X123761254Y-107261041D01*
X123813458Y-107215805D01*
X123843023Y-107202019D01*
X123843026Y-107202017D01*
X123848004Y-107199696D01*
X124035914Y-107068121D01*
X124198121Y-106905914D01*
X124329696Y-106718004D01*
X124340799Y-106694195D01*
X124424320Y-106515083D01*
X124424321Y-106515082D01*
X124426643Y-106510101D01*
X124431516Y-106491917D01*
X124484591Y-106293837D01*
X124484591Y-106293835D01*
X124486015Y-106288522D01*
X124506008Y-106060000D01*
X124486015Y-105831478D01*
X124457487Y-105725011D01*
X124428066Y-105615209D01*
X124428065Y-105615207D01*
X124426643Y-105609899D01*
X124421103Y-105598019D01*
X124332019Y-105406977D01*
X124332017Y-105406974D01*
X124329696Y-105401996D01*
X124198121Y-105214086D01*
X124035914Y-105051879D01*
X123848004Y-104920304D01*
X123843026Y-104917983D01*
X123843023Y-104917981D01*
X123813458Y-104904195D01*
X123760173Y-104857278D01*
X123740712Y-104789001D01*
X123761254Y-104721041D01*
X123813458Y-104675805D01*
X123843023Y-104662019D01*
X123843026Y-104662017D01*
X123848004Y-104659696D01*
X124035914Y-104528121D01*
X124198121Y-104365914D01*
X124329696Y-104178004D01*
X124339319Y-104157369D01*
X124424320Y-103975083D01*
X124424321Y-103975082D01*
X124426643Y-103970101D01*
X124431516Y-103951917D01*
X124484591Y-103753837D01*
X124484591Y-103753835D01*
X124486015Y-103748522D01*
X124506008Y-103520000D01*
X124486015Y-103291478D01*
X124432620Y-103092205D01*
X124428066Y-103075209D01*
X124428065Y-103075207D01*
X124426643Y-103069899D01*
X124418525Y-103052490D01*
X124332019Y-102866977D01*
X124332017Y-102866974D01*
X124329696Y-102861996D01*
X124198121Y-102674086D01*
X124035914Y-102511879D01*
X124031403Y-102508720D01*
X124029025Y-102506725D01*
X123989699Y-102447615D01*
X123988573Y-102376627D01*
X124026005Y-102316300D01*
X124087726Y-102288809D01*
X124087278Y-102286925D01*
X124094960Y-102285098D01*
X124102816Y-102284245D01*
X124239205Y-102233115D01*
X124355761Y-102145761D01*
X124443115Y-102029205D01*
X124494245Y-101892816D01*
X124501000Y-101830634D01*
X124501000Y-100129366D01*
X124494245Y-100067184D01*
X124443115Y-99930795D01*
X124355761Y-99814239D01*
X124239205Y-99726885D01*
X124102816Y-99675755D01*
X124040634Y-99669000D01*
X122339366Y-99669000D01*
X122277184Y-99675755D01*
X122140795Y-99726885D01*
X122024239Y-99814239D01*
X121936885Y-99930795D01*
X121885755Y-100067184D01*
X121879000Y-100129366D01*
X121879000Y-101830634D01*
X121885755Y-101892816D01*
X121936885Y-102029205D01*
X122024239Y-102145761D01*
X122140795Y-102233115D01*
X122277184Y-102284245D01*
X122285040Y-102285098D01*
X122292722Y-102286925D01*
X122292330Y-102288573D01*
X122349153Y-102312183D01*
X122389579Y-102370546D01*
X122392035Y-102441500D01*
X122350975Y-102506725D01*
X122348597Y-102508720D01*
X122344086Y-102511879D01*
X122181879Y-102674086D01*
X122050304Y-102861996D01*
X122047983Y-102866974D01*
X122047981Y-102866977D01*
X121961475Y-103052490D01*
X121953357Y-103069899D01*
X121951935Y-103075207D01*
X121951934Y-103075209D01*
X121947380Y-103092205D01*
X121893985Y-103291478D01*
X121873992Y-103520000D01*
X121893985Y-103748522D01*
X121895409Y-103753835D01*
X121895409Y-103753837D01*
X121948485Y-103951917D01*
X121953357Y-103970101D01*
X121955679Y-103975082D01*
X121955680Y-103975083D01*
X122040682Y-104157369D01*
X122050304Y-104178004D01*
X122181879Y-104365914D01*
X122344086Y-104528121D01*
X122531996Y-104659696D01*
X122536974Y-104662017D01*
X122536977Y-104662019D01*
X122566542Y-104675805D01*
X122619827Y-104722722D01*
X122639288Y-104790999D01*
X122618746Y-104858959D01*
X122566542Y-104904195D01*
X122536977Y-104917981D01*
X122536974Y-104917983D01*
X122531996Y-104920304D01*
X122344086Y-105051879D01*
X122181879Y-105214086D01*
X122050304Y-105401996D01*
X122047983Y-105406974D01*
X122047981Y-105406977D01*
X121958897Y-105598019D01*
X121953357Y-105609899D01*
X121951935Y-105615207D01*
X121951934Y-105615209D01*
X121922513Y-105725011D01*
X121893985Y-105831478D01*
X121873992Y-106060000D01*
X121893985Y-106288522D01*
X121895409Y-106293835D01*
X121895409Y-106293837D01*
X121948485Y-106491917D01*
X121953357Y-106510101D01*
X121955679Y-106515082D01*
X121955680Y-106515083D01*
X122039202Y-106694195D01*
X122050304Y-106718004D01*
X122181879Y-106905914D01*
X122344086Y-107068121D01*
X122531996Y-107199696D01*
X122536974Y-107202017D01*
X122536977Y-107202019D01*
X122566542Y-107215805D01*
X122619827Y-107262722D01*
X122639288Y-107330999D01*
X122618746Y-107398959D01*
X122566542Y-107444195D01*
X122536977Y-107457981D01*
X122536974Y-107457983D01*
X122531996Y-107460304D01*
X122344086Y-107591879D01*
X122181879Y-107754086D01*
X122050304Y-107941996D01*
X122047983Y-107946974D01*
X122047981Y-107946977D01*
X121958897Y-108138019D01*
X121953357Y-108149899D01*
X121951935Y-108155207D01*
X121951934Y-108155209D01*
X121895409Y-108366163D01*
X121893985Y-108371478D01*
X121873992Y-108600000D01*
X121893985Y-108828522D01*
X121895409Y-108833835D01*
X121895409Y-108833837D01*
X121948485Y-109031917D01*
X121953357Y-109050101D01*
X121955679Y-109055082D01*
X121955680Y-109055083D01*
X122046093Y-109248973D01*
X122050304Y-109258004D01*
X122181879Y-109445914D01*
X122344086Y-109608121D01*
X122531996Y-109739696D01*
X122536974Y-109742017D01*
X122536977Y-109742019D01*
X122566542Y-109755805D01*
X122619827Y-109802722D01*
X122639288Y-109870999D01*
X122618746Y-109938959D01*
X122566542Y-109984195D01*
X122536977Y-109997981D01*
X122536974Y-109997983D01*
X122531996Y-110000304D01*
X122344086Y-110131879D01*
X122181879Y-110294086D01*
X122050304Y-110481996D01*
X122047983Y-110486974D01*
X122047981Y-110486977D01*
X121955680Y-110684917D01*
X121953357Y-110689899D01*
X121951935Y-110695207D01*
X121951934Y-110695209D01*
X121921750Y-110807857D01*
X121893985Y-110911478D01*
X121873992Y-111140000D01*
X114562605Y-111140000D01*
X108840352Y-105417747D01*
X108832812Y-105409461D01*
X108828700Y-105402982D01*
X108779048Y-105356356D01*
X108776207Y-105353602D01*
X108756470Y-105333865D01*
X108753273Y-105331385D01*
X108744251Y-105323680D01*
X108742770Y-105322289D01*
X108712021Y-105293414D01*
X108705075Y-105289595D01*
X108705072Y-105289593D01*
X108694266Y-105283652D01*
X108677747Y-105272801D01*
X108673606Y-105269589D01*
X108661741Y-105260386D01*
X108654472Y-105257241D01*
X108654468Y-105257238D01*
X108621163Y-105242826D01*
X108610513Y-105237609D01*
X108571760Y-105216305D01*
X108552137Y-105211267D01*
X108533434Y-105204863D01*
X108522120Y-105199967D01*
X108522119Y-105199967D01*
X108514845Y-105196819D01*
X108507022Y-105195580D01*
X108507012Y-105195577D01*
X108471176Y-105189901D01*
X108459556Y-105187495D01*
X108424411Y-105178472D01*
X108424410Y-105178472D01*
X108416730Y-105176500D01*
X108396476Y-105176500D01*
X108376765Y-105174949D01*
X108376709Y-105174940D01*
X108356757Y-105171780D01*
X108348865Y-105172526D01*
X108312739Y-105175941D01*
X108300881Y-105176500D01*
X76277504Y-105176500D01*
X76209383Y-105156498D01*
X76162890Y-105102842D01*
X76152786Y-105032568D01*
X76163310Y-104997249D01*
X76166643Y-104990101D01*
X76169252Y-104980366D01*
X76224591Y-104773837D01*
X76224591Y-104773835D01*
X76226015Y-104768522D01*
X76246008Y-104540000D01*
X76226015Y-104311478D01*
X76217621Y-104280151D01*
X76168066Y-104095209D01*
X76168065Y-104095207D01*
X76166643Y-104089899D01*
X76162534Y-104081086D01*
X76077715Y-103899193D01*
X76067054Y-103829001D01*
X76096034Y-103764189D01*
X76156757Y-103724946D01*
X76188483Y-103715729D01*
X76188484Y-103715729D01*
X76196093Y-103713518D01*
X76202912Y-103709485D01*
X76202917Y-103709483D01*
X76213528Y-103703207D01*
X76231276Y-103694512D01*
X76250117Y-103687052D01*
X76285887Y-103661064D01*
X76295807Y-103654548D01*
X76327035Y-103636080D01*
X76327038Y-103636078D01*
X76333862Y-103632042D01*
X76348183Y-103617721D01*
X76363217Y-103604880D01*
X76373194Y-103597631D01*
X76379607Y-103592972D01*
X76407798Y-103558895D01*
X76415788Y-103550116D01*
X78244255Y-101721649D01*
X78306567Y-101687623D01*
X78377382Y-101692688D01*
X78434218Y-101735235D01*
X78442469Y-101747744D01*
X78466660Y-101789644D01*
X78471078Y-101794551D01*
X78471079Y-101794552D01*
X78506626Y-101834031D01*
X78594447Y-101931566D01*
X78672382Y-101988189D01*
X78738726Y-102036391D01*
X78748948Y-102043818D01*
X78754976Y-102046502D01*
X78754978Y-102046503D01*
X78851379Y-102089423D01*
X78923412Y-102121494D01*
X78990740Y-102135805D01*
X79103756Y-102159828D01*
X79103761Y-102159828D01*
X79110213Y-102161200D01*
X79301187Y-102161200D01*
X79307639Y-102159828D01*
X79307644Y-102159828D01*
X79420660Y-102135805D01*
X79487988Y-102121494D01*
X79560021Y-102089423D01*
X79656422Y-102046503D01*
X79656424Y-102046502D01*
X79662452Y-102043818D01*
X79672675Y-102036391D01*
X79739018Y-101988189D01*
X79816953Y-101931566D01*
X79904774Y-101834031D01*
X79940321Y-101794552D01*
X79940322Y-101794551D01*
X79944740Y-101789644D01*
X80040227Y-101624256D01*
X80099242Y-101442628D01*
X80116607Y-101277406D01*
X80143620Y-101211750D01*
X80152822Y-101201482D01*
X94414571Y-86939733D01*
X121177822Y-86939733D01*
X121177975Y-86944121D01*
X121177975Y-86944127D01*
X121185359Y-87155558D01*
X121187625Y-87220458D01*
X121188387Y-87224781D01*
X121188388Y-87224788D01*
X121212164Y-87359624D01*
X121236402Y-87497087D01*
X121323203Y-87764235D01*
X121325131Y-87768188D01*
X121325133Y-87768193D01*
X121364821Y-87849565D01*
X121446340Y-88016702D01*
X121448795Y-88020341D01*
X121448798Y-88020347D01*
X121521890Y-88128710D01*
X121603415Y-88249576D01*
X121791371Y-88458322D01*
X122006550Y-88638879D01*
X122244764Y-88787731D01*
X122501375Y-88901982D01*
X122771390Y-88979407D01*
X122775740Y-88980018D01*
X122775743Y-88980019D01*
X122878690Y-88994487D01*
X123049552Y-89018500D01*
X123260146Y-89018500D01*
X123262332Y-89018347D01*
X123262336Y-89018347D01*
X123465827Y-89004118D01*
X123465832Y-89004117D01*
X123470212Y-89003811D01*
X123744970Y-88945409D01*
X123749099Y-88943906D01*
X123749103Y-88943905D01*
X124004781Y-88850846D01*
X124004785Y-88850844D01*
X124008926Y-88849337D01*
X124256942Y-88717464D01*
X124260503Y-88714877D01*
X124480629Y-88554947D01*
X124480632Y-88554944D01*
X124484192Y-88552358D01*
X124686252Y-88357231D01*
X124859188Y-88135882D01*
X124861384Y-88132078D01*
X124861389Y-88132071D01*
X124997435Y-87896431D01*
X124999636Y-87892619D01*
X125104862Y-87632176D01*
X125105928Y-87627901D01*
X125171753Y-87363893D01*
X125171754Y-87363888D01*
X125172817Y-87359624D01*
X125178545Y-87305131D01*
X125201719Y-87084636D01*
X125201719Y-87084633D01*
X125202178Y-87080267D01*
X125201890Y-87072006D01*
X125192529Y-86803939D01*
X125192528Y-86803933D01*
X125192375Y-86799542D01*
X125187264Y-86770551D01*
X125152348Y-86572536D01*
X125143598Y-86522913D01*
X125056797Y-86255765D01*
X125025490Y-86191575D01*
X124960729Y-86058798D01*
X124933660Y-86003298D01*
X124931205Y-85999659D01*
X124931202Y-85999653D01*
X124832391Y-85853160D01*
X124776585Y-85770424D01*
X124588629Y-85561678D01*
X124373450Y-85381121D01*
X124135236Y-85232269D01*
X123878625Y-85118018D01*
X123718775Y-85072182D01*
X123612837Y-85041805D01*
X123612836Y-85041805D01*
X123608610Y-85040593D01*
X123604260Y-85039982D01*
X123604257Y-85039981D01*
X123501310Y-85025513D01*
X123330448Y-85001500D01*
X123119854Y-85001500D01*
X123117668Y-85001653D01*
X123117664Y-85001653D01*
X122914173Y-85015882D01*
X122914168Y-85015883D01*
X122909788Y-85016189D01*
X122635030Y-85074591D01*
X122630901Y-85076094D01*
X122630897Y-85076095D01*
X122375219Y-85169154D01*
X122375215Y-85169156D01*
X122371074Y-85170663D01*
X122123058Y-85302536D01*
X122119499Y-85305122D01*
X122119497Y-85305123D01*
X122014895Y-85381121D01*
X121895808Y-85467642D01*
X121693748Y-85662769D01*
X121520812Y-85884118D01*
X121518616Y-85887922D01*
X121518611Y-85887929D01*
X121404794Y-86085067D01*
X121380364Y-86127381D01*
X121275138Y-86387824D01*
X121274073Y-86392097D01*
X121274072Y-86392099D01*
X121209491Y-86651121D01*
X121207183Y-86660376D01*
X121206724Y-86664744D01*
X121206723Y-86664749D01*
X121193011Y-86795212D01*
X121177822Y-86939733D01*
X94414571Y-86939733D01*
X99403899Y-81950405D01*
X99466211Y-81916379D01*
X99492994Y-81913500D01*
X130495406Y-81913500D01*
X130563527Y-81933502D01*
G37*
G04 #@! TD.AperFunction*
M02*
