G04 #@! TF.GenerationSoftware,KiCad,Pcbnew,(6.0.11)*
G04 #@! TF.CreationDate,2023-03-02T23:13:04-06:00*
G04 #@! TF.ProjectId,STM,53544d2e-6b69-4636-9164-5f7063625858,rev?*
G04 #@! TF.SameCoordinates,Original*
G04 #@! TF.FileFunction,Legend,Top*
G04 #@! TF.FilePolarity,Positive*
%FSLAX46Y46*%
G04 Gerber Fmt 4.6, Leading zero omitted, Abs format (unit mm)*
G04 Created by KiCad (PCBNEW (6.0.11)) date 2023-03-02 23:13:04*
%MOMM*%
%LPD*%
G01*
G04 APERTURE LIST*
%ADD10C,0.150000*%
%ADD11C,0.200000*%
%ADD12C,0.127000*%
%ADD13C,0.120000*%
%ADD14C,1.530000*%
%ADD15R,1.530000X1.530000*%
%ADD16C,1.605000*%
%ADD17R,1.605000X1.605000*%
%ADD18C,3.000000*%
%ADD19C,3.200000*%
%ADD20R,1.700000X1.700000*%
%ADD21C,1.700000*%
%ADD22R,1.600000X1.600000*%
%ADD23O,1.600000X1.600000*%
%ADD24R,2.400000X2.400000*%
%ADD25C,2.400000*%
G04 APERTURE END LIST*
D10*
X121952380Y-58824761D02*
X122095238Y-58872380D01*
X122333333Y-58872380D01*
X122428571Y-58824761D01*
X122476190Y-58777142D01*
X122523809Y-58681904D01*
X122523809Y-58586666D01*
X122476190Y-58491428D01*
X122428571Y-58443809D01*
X122333333Y-58396190D01*
X122142857Y-58348571D01*
X122047619Y-58300952D01*
X122000000Y-58253333D01*
X121952380Y-58158095D01*
X121952380Y-58062857D01*
X122000000Y-57967619D01*
X122047619Y-57920000D01*
X122142857Y-57872380D01*
X122380952Y-57872380D01*
X122523809Y-57920000D01*
X122809523Y-57872380D02*
X123380952Y-57872380D01*
X123095238Y-58872380D02*
X123095238Y-57872380D01*
X123714285Y-58872380D02*
X123714285Y-57872380D01*
X124047619Y-58586666D01*
X124380952Y-57872380D01*
X124380952Y-58872380D01*
X124761904Y-57872380D02*
X125380952Y-57872380D01*
X125047619Y-58253333D01*
X125190476Y-58253333D01*
X125285714Y-58300952D01*
X125333333Y-58348571D01*
X125380952Y-58443809D01*
X125380952Y-58681904D01*
X125333333Y-58777142D01*
X125285714Y-58824761D01*
X125190476Y-58872380D01*
X124904761Y-58872380D01*
X124809523Y-58824761D01*
X124761904Y-58777142D01*
X125761904Y-57967619D02*
X125809523Y-57920000D01*
X125904761Y-57872380D01*
X126142857Y-57872380D01*
X126238095Y-57920000D01*
X126285714Y-57967619D01*
X126333333Y-58062857D01*
X126333333Y-58158095D01*
X126285714Y-58300952D01*
X125714285Y-58872380D01*
X126333333Y-58872380D01*
X127095238Y-58348571D02*
X126761904Y-58348571D01*
X126761904Y-58872380D02*
X126761904Y-57872380D01*
X127238095Y-57872380D01*
X128142857Y-58872380D02*
X127571428Y-58872380D01*
X127857142Y-58872380D02*
X127857142Y-57872380D01*
X127761904Y-58015238D01*
X127666666Y-58110476D01*
X127571428Y-58158095D01*
X128761904Y-57872380D02*
X128857142Y-57872380D01*
X128952380Y-57920000D01*
X129000000Y-57967619D01*
X129047619Y-58062857D01*
X129095238Y-58253333D01*
X129095238Y-58491428D01*
X129047619Y-58681904D01*
X129000000Y-58777142D01*
X128952380Y-58824761D01*
X128857142Y-58872380D01*
X128761904Y-58872380D01*
X128666666Y-58824761D01*
X128619047Y-58777142D01*
X128571428Y-58681904D01*
X128523809Y-58491428D01*
X128523809Y-58253333D01*
X128571428Y-58062857D01*
X128619047Y-57967619D01*
X128666666Y-57920000D01*
X128761904Y-57872380D01*
X129428571Y-57872380D02*
X130047619Y-57872380D01*
X129714285Y-58253333D01*
X129857142Y-58253333D01*
X129952380Y-58300952D01*
X130000000Y-58348571D01*
X130047619Y-58443809D01*
X130047619Y-58681904D01*
X130000000Y-58777142D01*
X129952380Y-58824761D01*
X129857142Y-58872380D01*
X129571428Y-58872380D01*
X129476190Y-58824761D01*
X129428571Y-58777142D01*
X131047619Y-58872380D02*
X130714285Y-58396190D01*
X130476190Y-58872380D02*
X130476190Y-57872380D01*
X130857142Y-57872380D01*
X130952380Y-57920000D01*
X131000000Y-57967619D01*
X131047619Y-58062857D01*
X131047619Y-58205714D01*
X131000000Y-58300952D01*
X130952380Y-58348571D01*
X130857142Y-58396190D01*
X130476190Y-58396190D01*
X131809523Y-58348571D02*
X131952380Y-58396190D01*
X132000000Y-58443809D01*
X132047619Y-58539047D01*
X132047619Y-58681904D01*
X132000000Y-58777142D01*
X131952380Y-58824761D01*
X131857142Y-58872380D01*
X131476190Y-58872380D01*
X131476190Y-57872380D01*
X131809523Y-57872380D01*
X131904761Y-57920000D01*
X131952380Y-57967619D01*
X132000000Y-58062857D01*
X132000000Y-58158095D01*
X131952380Y-58253333D01*
X131904761Y-58300952D01*
X131809523Y-58348571D01*
X131476190Y-58348571D01*
X145137619Y-68365714D02*
X145137619Y-69032380D01*
X145137619Y-68460952D02*
X145185238Y-68413333D01*
X145280476Y-68365714D01*
X145423333Y-68365714D01*
X145518571Y-68413333D01*
X145566190Y-68508571D01*
X145566190Y-69032380D01*
X146613809Y-69032380D02*
X146280476Y-68556190D01*
X146042380Y-69032380D02*
X146042380Y-68032380D01*
X146423333Y-68032380D01*
X146518571Y-68080000D01*
X146566190Y-68127619D01*
X146613809Y-68222857D01*
X146613809Y-68365714D01*
X146566190Y-68460952D01*
X146518571Y-68508571D01*
X146423333Y-68556190D01*
X146042380Y-68556190D01*
X147375714Y-68508571D02*
X147042380Y-68508571D01*
X147042380Y-69032380D02*
X147042380Y-68032380D01*
X147518571Y-68032380D01*
X147851904Y-68127619D02*
X147899523Y-68080000D01*
X147994761Y-68032380D01*
X148232857Y-68032380D01*
X148328095Y-68080000D01*
X148375714Y-68127619D01*
X148423333Y-68222857D01*
X148423333Y-68318095D01*
X148375714Y-68460952D01*
X147804285Y-69032380D01*
X148423333Y-69032380D01*
X149280476Y-68365714D02*
X149280476Y-69032380D01*
X149042380Y-67984761D02*
X148804285Y-68699047D01*
X149423333Y-68699047D01*
X150280476Y-69032380D02*
X149804285Y-69032380D01*
X149804285Y-68032380D01*
X150804285Y-68032380D02*
X150899523Y-68032380D01*
X150994761Y-68080000D01*
X151042380Y-68127619D01*
X151090000Y-68222857D01*
X151137619Y-68413333D01*
X151137619Y-68651428D01*
X151090000Y-68841904D01*
X151042380Y-68937142D01*
X150994761Y-68984761D01*
X150899523Y-69032380D01*
X150804285Y-69032380D01*
X150709047Y-68984761D01*
X150661428Y-68937142D01*
X150613809Y-68841904D01*
X150566190Y-68651428D01*
X150566190Y-68413333D01*
X150613809Y-68222857D01*
X150661428Y-68127619D01*
X150709047Y-68080000D01*
X150804285Y-68032380D01*
X152090000Y-69032380D02*
X151518571Y-69032380D01*
X151804285Y-69032380D02*
X151804285Y-68032380D01*
X151709047Y-68175238D01*
X151613809Y-68270476D01*
X151518571Y-68318095D01*
X64798095Y-57872380D02*
X64798095Y-58681904D01*
X64845714Y-58777142D01*
X64893333Y-58824761D01*
X64988571Y-58872380D01*
X65179047Y-58872380D01*
X65274285Y-58824761D01*
X65321904Y-58777142D01*
X65369523Y-58681904D01*
X65369523Y-57872380D01*
X66369523Y-58872380D02*
X65798095Y-58872380D01*
X66083809Y-58872380D02*
X66083809Y-57872380D01*
X65988571Y-58015238D01*
X65893333Y-58110476D01*
X65798095Y-58158095D01*
X137668095Y-68032380D02*
X137668095Y-68841904D01*
X137715714Y-68937142D01*
X137763333Y-68984761D01*
X137858571Y-69032380D01*
X138049047Y-69032380D01*
X138144285Y-68984761D01*
X138191904Y-68937142D01*
X138239523Y-68841904D01*
X138239523Y-68032380D01*
X138668095Y-68127619D02*
X138715714Y-68080000D01*
X138810952Y-68032380D01*
X139049047Y-68032380D01*
X139144285Y-68080000D01*
X139191904Y-68127619D01*
X139239523Y-68222857D01*
X139239523Y-68318095D01*
X139191904Y-68460952D01*
X138620476Y-69032380D01*
X139239523Y-69032380D01*
X146629523Y-103322380D02*
X146296190Y-102846190D01*
X146058095Y-103322380D02*
X146058095Y-102322380D01*
X146439047Y-102322380D01*
X146534285Y-102370000D01*
X146581904Y-102417619D01*
X146629523Y-102512857D01*
X146629523Y-102655714D01*
X146581904Y-102750952D01*
X146534285Y-102798571D01*
X146439047Y-102846190D01*
X146058095Y-102846190D01*
X147058095Y-103322380D02*
X147058095Y-102322380D01*
X147629523Y-103322380D01*
X147629523Y-102322380D01*
X148629523Y-103322380D02*
X148058095Y-103322380D01*
X148343809Y-103322380D02*
X148343809Y-102322380D01*
X148248571Y-102465238D01*
X148153333Y-102560476D01*
X148058095Y-102608095D01*
X54626666Y-78192380D02*
X54626666Y-78906666D01*
X54579047Y-79049523D01*
X54483809Y-79144761D01*
X54340952Y-79192380D01*
X54245714Y-79192380D01*
X55626666Y-79192380D02*
X55055238Y-79192380D01*
X55340952Y-79192380D02*
X55340952Y-78192380D01*
X55245714Y-78335238D01*
X55150476Y-78430476D01*
X55055238Y-78478095D01*
D11*
X71700000Y-90820000D02*
G75*
G03*
X71700000Y-90820000I-100000J0D01*
G01*
X73280000Y-114700000D02*
G75*
G03*
X73280000Y-114700000I-100000J0D01*
G01*
X125040000Y-123840000D02*
G75*
G03*
X125040000Y-123840000I-100000J0D01*
G01*
X132660000Y-90820000D02*
G75*
G03*
X132660000Y-90820000I-100000J0D01*
G01*
X73280000Y-136540000D02*
G75*
G03*
X73280000Y-136540000I-100000J0D01*
G01*
X125040000Y-100980000D02*
G75*
G03*
X125040000Y-100980000I-100000J0D01*
G01*
D12*
X132560000Y-139580000D02*
G75*
G03*
X134060000Y-138080000I-1J1500001D01*
G01*
X134060000Y-60580000D02*
G75*
G03*
X132560000Y-59080000I-1500001J-1D01*
G01*
X65560000Y-59080000D02*
G75*
G03*
X64060000Y-60580000I0J-1500000D01*
G01*
X64060000Y-138080000D02*
G75*
G03*
X65560000Y-139580000I1500000J0D01*
G01*
X71080000Y-89550000D02*
X71080000Y-137810000D01*
X64060000Y-60580000D02*
X64060000Y-138080000D01*
X86060000Y-139580000D02*
X88060000Y-141580000D01*
X65560000Y-139580000D02*
X86060000Y-139580000D01*
X73680000Y-116220000D02*
X73680000Y-90320000D01*
X121940000Y-99460000D02*
X124440000Y-99460000D01*
X127040000Y-89550000D02*
X132040000Y-89550000D01*
X121060000Y-141580000D02*
X123060000Y-139580000D01*
X76180000Y-90320000D02*
X76180000Y-116220000D01*
X123060000Y-139580000D02*
X132560000Y-139580000D01*
X88060000Y-141580000D02*
X121060000Y-141580000D01*
X124440000Y-99460000D02*
X124440000Y-120280000D01*
X134060000Y-138080000D02*
X134060000Y-60580000D01*
X76180000Y-117240000D02*
X76180000Y-138060000D01*
X124440000Y-138060000D02*
X121940000Y-138060000D01*
X66080000Y-137810000D02*
X66080000Y-89550000D01*
X124440000Y-122320000D02*
X124440000Y-138060000D01*
X73680000Y-117240000D02*
X76180000Y-117240000D01*
X76180000Y-138060000D02*
X73680000Y-138060000D01*
X71080000Y-137810000D02*
X66080000Y-137810000D01*
X121940000Y-120280000D02*
X121940000Y-99460000D01*
X132040000Y-89550000D02*
X132040000Y-137810000D01*
X73680000Y-138060000D02*
X73680000Y-117240000D01*
X66080000Y-89550000D02*
X71080000Y-89550000D01*
X73680000Y-90320000D02*
X76180000Y-90320000D01*
X127040000Y-137810000D02*
X127040000Y-89550000D01*
X124440000Y-120280000D02*
X121940000Y-120280000D01*
X76180000Y-116220000D02*
X73680000Y-116220000D01*
X132040000Y-137810000D02*
X127040000Y-137810000D01*
X132560000Y-59080000D02*
X65560000Y-59080000D01*
X121940000Y-122320000D02*
X124440000Y-122320000D01*
X121940000Y-138060000D02*
X121940000Y-122320000D01*
D13*
X137055000Y-99390000D02*
X137055000Y-99390000D01*
X148299000Y-93726000D02*
X148299000Y-99060000D01*
X138139000Y-96520000D02*
X140425000Y-96520000D01*
X148299000Y-99060000D02*
X148299000Y-99060000D01*
X137631000Y-99060000D02*
X137631000Y-93726000D01*
X152505000Y-99390000D02*
X137055000Y-99390000D01*
X140425000Y-96520000D02*
X140425000Y-98806000D01*
X148299000Y-99060000D02*
X137631000Y-99060000D01*
X137055000Y-99390000D02*
X137055000Y-70190000D01*
X137631000Y-99060000D02*
X137631000Y-99060000D01*
X140425000Y-98806000D02*
X140425000Y-98806000D01*
X152505000Y-70190000D02*
X152505000Y-99390000D01*
X137055000Y-70190000D02*
X152505000Y-70190000D01*
X137631000Y-93726000D02*
X148299000Y-93726000D01*
X145920000Y-132090000D02*
X148720000Y-132090000D01*
X148720000Y-134800000D02*
X148720000Y-103980000D01*
X145920000Y-134800000D02*
X148720000Y-134800000D01*
X148720000Y-103980000D02*
X145920000Y-103980000D01*
X145920000Y-103980000D02*
X145920000Y-134800000D01*
X60189000Y-97625000D02*
X60061000Y-97496000D01*
X60395000Y-111420000D02*
X60301000Y-111326000D01*
X60395000Y-104420000D02*
X60301000Y-104326000D01*
X57939000Y-95375000D02*
X57846000Y-95281000D01*
X60395000Y-90420000D02*
X60301000Y-90326000D01*
X58179000Y-98705000D02*
X58051000Y-98576000D01*
X60189000Y-108125000D02*
X60061000Y-107996000D01*
X57939000Y-109375000D02*
X57846000Y-109281000D01*
X60189000Y-94125000D02*
X60061000Y-93996000D01*
X56120000Y-80540000D02*
X56120000Y-122660000D01*
X58179000Y-109205000D02*
X58051000Y-109076000D01*
X54320000Y-80300000D02*
X54320000Y-80700000D01*
X60189000Y-118625000D02*
X60061000Y-118496000D01*
X57939000Y-91875000D02*
X57846000Y-91781000D01*
X62280000Y-80540000D02*
X62280000Y-122660000D01*
X58179000Y-95205000D02*
X58051000Y-95076000D01*
X58179000Y-102205000D02*
X58051000Y-102076000D01*
X57939000Y-84875000D02*
X57846000Y-84781000D01*
X60395000Y-86920000D02*
X60301000Y-86826000D01*
X60189000Y-87125000D02*
X60061000Y-86996000D01*
X54560000Y-80540000D02*
X54560000Y-122660000D01*
X58179000Y-84705000D02*
X58051000Y-84576000D01*
X60395000Y-100920000D02*
X60301000Y-100826000D01*
X58179000Y-88205000D02*
X58051000Y-88076000D01*
X57939000Y-112875000D02*
X57846000Y-112781000D01*
X58179000Y-116205000D02*
X58051000Y-116076000D01*
X60395000Y-118420000D02*
X60301000Y-118326000D01*
X55020000Y-80540000D02*
X55020000Y-122660000D01*
X60189000Y-115125000D02*
X60061000Y-114996000D01*
X58179000Y-91705000D02*
X58051000Y-91576000D01*
X58179000Y-112705000D02*
X58051000Y-112576000D01*
X57939000Y-105875000D02*
X57846000Y-105781000D01*
X57939000Y-119875000D02*
X57846000Y-119781000D01*
X60189000Y-104625000D02*
X60061000Y-104496000D01*
X62280000Y-80540000D02*
X54560000Y-80540000D01*
X60189000Y-111625000D02*
X60061000Y-111496000D01*
X60395000Y-114920000D02*
X60301000Y-114826000D01*
X60395000Y-93920000D02*
X60301000Y-93826000D01*
X58179000Y-119705000D02*
X58051000Y-119576000D01*
X60395000Y-121920000D02*
X60301000Y-121826000D01*
X60395000Y-97420000D02*
X60301000Y-97326000D01*
X60395000Y-107920000D02*
X60301000Y-107826000D01*
X57939000Y-98875000D02*
X57846000Y-98781000D01*
X57939000Y-88375000D02*
X57846000Y-88281000D01*
X60189000Y-122125000D02*
X60061000Y-121996000D01*
X62280000Y-122660000D02*
X54560000Y-122660000D01*
X57939000Y-102375000D02*
X57846000Y-102281000D01*
X57939000Y-116375000D02*
X57846000Y-116281000D01*
X60189000Y-101125000D02*
X60061000Y-100996000D01*
X60189000Y-90625000D02*
X60061000Y-90496000D01*
X54960000Y-80300000D02*
X54320000Y-80300000D01*
X58179000Y-105705000D02*
X58051000Y-105576000D01*
X58229000Y-83775000D02*
G75*
G03*
X60010193Y-83775504I891000J1425003D01*
G01*
X59986000Y-80909999D02*
G75*
G03*
X58230106Y-80924642I-866000J-1439999D01*
G01*
X57440000Y-82350000D02*
G75*
G03*
X57695279Y-83240264I1679990J-3D01*
G01*
X57680000Y-81484000D02*
G75*
G03*
X57439901Y-82378674I1440014J-866003D01*
G01*
X60560001Y-83216000D02*
G75*
G03*
X60545358Y-81460106I-1439999J866000D01*
G01*
X60800000Y-92850000D02*
G75*
G03*
X60800000Y-92850000I-1680000J0D01*
G01*
X60800000Y-117350000D02*
G75*
G03*
X60800000Y-117350000I-1680000J0D01*
G01*
X60800000Y-120850000D02*
G75*
G03*
X60800000Y-120850000I-1680000J0D01*
G01*
X60800000Y-99850000D02*
G75*
G03*
X60800000Y-99850000I-1680000J0D01*
G01*
X60800000Y-89350000D02*
G75*
G03*
X60800000Y-89350000I-1680000J0D01*
G01*
X60800000Y-85850000D02*
G75*
G03*
X60800000Y-85850000I-1680000J0D01*
G01*
X60800000Y-96350000D02*
G75*
G03*
X60800000Y-96350000I-1680000J0D01*
G01*
X60800000Y-113850000D02*
G75*
G03*
X60800000Y-113850000I-1680000J0D01*
G01*
X60800000Y-106850000D02*
G75*
G03*
X60800000Y-106850000I-1680000J0D01*
G01*
X60800000Y-103350000D02*
G75*
G03*
X60800000Y-103350000I-1680000J0D01*
G01*
X60800000Y-110350000D02*
G75*
G03*
X60800000Y-110350000I-1680000J0D01*
G01*
%LPC*%
D14*
X67310000Y-136540000D03*
X69850000Y-136540000D03*
X67310000Y-134000000D03*
X69850000Y-134000000D03*
X67310000Y-131460000D03*
X69850000Y-131460000D03*
X67310000Y-128920000D03*
X69850000Y-128920000D03*
X67310000Y-126380000D03*
X69850000Y-126380000D03*
X67310000Y-123840000D03*
X69850000Y-123840000D03*
X67310000Y-121300000D03*
X69850000Y-121300000D03*
X67310000Y-118760000D03*
X69850000Y-118760000D03*
X67310000Y-116220000D03*
X69850000Y-116220000D03*
X67310000Y-113680000D03*
X69850000Y-113680000D03*
X67310000Y-111140000D03*
X69850000Y-111140000D03*
X67310000Y-108600000D03*
X69850000Y-108600000D03*
X67310000Y-106060000D03*
X69850000Y-106060000D03*
X67310000Y-103520000D03*
X69850000Y-103520000D03*
X67310000Y-100980000D03*
X69850000Y-100980000D03*
X67310000Y-98440000D03*
X69850000Y-98440000D03*
X67310000Y-95900000D03*
X69850000Y-95900000D03*
X67310000Y-93360000D03*
X69850000Y-93360000D03*
X67310000Y-90820000D03*
D15*
X69850000Y-90820000D03*
D16*
X74930000Y-118760000D03*
X74930000Y-121300000D03*
X74930000Y-123840000D03*
X74930000Y-126380000D03*
X74930000Y-128920000D03*
X74930000Y-131460000D03*
X74930000Y-134000000D03*
D17*
X74930000Y-136540000D03*
D16*
X123190000Y-136540000D03*
X123190000Y-134000000D03*
X123190000Y-131460000D03*
X123190000Y-128920000D03*
X123190000Y-126380000D03*
D17*
X123190000Y-123840000D03*
D14*
X128270000Y-136540000D03*
X130810000Y-136540000D03*
X128270000Y-134000000D03*
X130810000Y-134000000D03*
X128270000Y-131460000D03*
X130810000Y-131460000D03*
X128270000Y-128920000D03*
X130810000Y-128920000D03*
X128270000Y-126380000D03*
X130810000Y-126380000D03*
X128270000Y-123840000D03*
X130810000Y-123840000D03*
X128270000Y-121300000D03*
X130810000Y-121300000D03*
X128270000Y-118760000D03*
X130810000Y-118760000D03*
X128270000Y-116220000D03*
X130810000Y-116220000D03*
X128270000Y-113680000D03*
X130810000Y-113680000D03*
X128270000Y-111140000D03*
X130810000Y-111140000D03*
X128270000Y-108600000D03*
X130810000Y-108600000D03*
X128270000Y-106060000D03*
X130810000Y-106060000D03*
X128270000Y-103520000D03*
X130810000Y-103520000D03*
X128270000Y-100980000D03*
X130810000Y-100980000D03*
X128270000Y-98440000D03*
X130810000Y-98440000D03*
X128270000Y-95900000D03*
X130810000Y-95900000D03*
X128270000Y-93360000D03*
X130810000Y-93360000D03*
X128270000Y-90820000D03*
D15*
X130810000Y-90820000D03*
D16*
X123190000Y-118760000D03*
X123190000Y-116220000D03*
X123190000Y-113680000D03*
X123190000Y-111140000D03*
X123190000Y-108600000D03*
X123190000Y-106060000D03*
X123190000Y-103520000D03*
D17*
X123190000Y-100980000D03*
D16*
X74930000Y-91840000D03*
X74930000Y-94380000D03*
X74930000Y-96920000D03*
X74930000Y-99460000D03*
X74930000Y-102000000D03*
X74930000Y-104540000D03*
X74930000Y-107080000D03*
X74930000Y-109620000D03*
X74930000Y-112160000D03*
D17*
X74930000Y-114700000D03*
D18*
X90170000Y-139080000D03*
X123190000Y-87010000D03*
X74930000Y-88280000D03*
D19*
X58420000Y-139700000D03*
X152400000Y-60960000D03*
D20*
X139155000Y-97790000D03*
D21*
X139155000Y-95250000D03*
X141695000Y-97790000D03*
X141695000Y-95250000D03*
X144235000Y-97790000D03*
X144235000Y-95250000D03*
X146775000Y-97790000D03*
X146775000Y-95250000D03*
D22*
X147320000Y-133360000D03*
D23*
X147320000Y-130820000D03*
X147320000Y-128280000D03*
X147320000Y-125740000D03*
X147320000Y-123200000D03*
X147320000Y-120660000D03*
X147320000Y-118120000D03*
X147320000Y-115580000D03*
X147320000Y-113040000D03*
X147320000Y-110500000D03*
X147320000Y-107960000D03*
X147320000Y-105420000D03*
D24*
X59120000Y-82350000D03*
D25*
X59120000Y-85850000D03*
X59120000Y-89350000D03*
X59120000Y-92850000D03*
X59120000Y-96350000D03*
X59120000Y-99850000D03*
X59120000Y-103350000D03*
X59120000Y-106850000D03*
X59120000Y-110350000D03*
X59120000Y-113850000D03*
X59120000Y-117350000D03*
X59120000Y-120850000D03*
D19*
X59080000Y-60960000D03*
X152400000Y-139700000D03*
M02*
