M48
; DRILL file {KiCad (6.0.11)} date Sat Mar  4 13:30:11 2023
; FORMAT={-:-/ absolute / metric / decimal}
; #@! TF.CreationDate,2023-03-04T13:30:11-06:00
; #@! TF.GenerationSoftware,Kicad,Pcbnew,(6.0.11)
; #@! TF.FileFunction,Plated,1,2,PTH
FMAT,2
METRIC
; #@! TA.AperFunction,Plated,PTH,ViaDrill
T1C0.400
; #@! TA.AperFunction,Plated,PTH,ComponentDrill
T2C0.800
; #@! TA.AperFunction,Plated,PTH,ComponentDrill
T3C1.000
; #@! TA.AperFunction,Plated,PTH,ComponentDrill
T4C1.020
; #@! TA.AperFunction,Plated,PTH,ComponentDrill
T5C1.070
; #@! TA.AperFunction,Plated,PTH,ComponentDrill
T6C1.300
%
G90
G05
T1
X81.28Y-100.33
X88.348Y-96.717
X135.89Y-128.27
T2
X150.12Y-105.425
X150.12Y-107.965
X150.12Y-110.505
X150.12Y-113.045
X150.12Y-115.585
X150.12Y-118.125
X150.12Y-120.665
X150.12Y-123.205
X150.12Y-125.745
X150.12Y-128.285
X150.12Y-130.825
X150.12Y-133.365
T3
X141.695Y-95.25
X141.695Y-97.79
X144.235Y-95.25
X144.235Y-97.79
X146.775Y-95.25
X146.775Y-97.79
X149.315Y-95.25
X149.315Y-97.79
T4
X69.85Y-90.82
X69.85Y-93.36
X69.85Y-95.9
X69.85Y-98.44
X69.85Y-100.98
X69.85Y-103.52
X69.85Y-106.06
X69.85Y-108.6
X69.85Y-111.14
X69.85Y-113.68
X69.85Y-116.22
X69.85Y-118.76
X69.85Y-121.3
X69.85Y-123.84
X69.85Y-126.38
X69.85Y-128.92
X69.85Y-131.46
X69.85Y-134.0
X69.85Y-136.54
X72.39Y-90.82
X72.39Y-93.36
X72.39Y-95.9
X72.39Y-98.44
X72.39Y-100.98
X72.39Y-103.52
X72.39Y-106.06
X72.39Y-108.6
X72.39Y-111.14
X72.39Y-113.68
X72.39Y-116.22
X72.39Y-118.76
X72.39Y-121.3
X72.39Y-123.84
X72.39Y-126.38
X72.39Y-128.92
X72.39Y-131.46
X72.39Y-134.0
X72.39Y-136.54
X130.81Y-90.82
X130.81Y-93.36
X130.81Y-95.9
X130.81Y-98.44
X130.81Y-100.98
X130.81Y-103.52
X130.81Y-106.06
X130.81Y-108.6
X130.81Y-111.14
X130.81Y-113.68
X130.81Y-116.22
X130.81Y-118.76
X130.81Y-121.3
X130.81Y-123.84
X130.81Y-126.38
X130.81Y-128.92
X130.81Y-131.46
X130.81Y-134.0
X130.81Y-136.54
X133.35Y-90.82
X133.35Y-93.36
X133.35Y-95.9
X133.35Y-98.44
X133.35Y-100.98
X133.35Y-103.52
X133.35Y-106.06
X133.35Y-108.6
X133.35Y-111.14
X133.35Y-113.68
X133.35Y-116.22
X133.35Y-118.76
X133.35Y-121.3
X133.35Y-123.84
X133.35Y-126.38
X133.35Y-128.92
X133.35Y-131.46
X133.35Y-134.0
X133.35Y-136.54
T5
X77.47Y-91.84
X77.47Y-94.38
X77.47Y-96.92
X77.47Y-99.46
X77.47Y-102.0
X77.47Y-104.54
X77.47Y-107.08
X77.47Y-109.62
X77.47Y-112.16
X77.47Y-114.7
X77.47Y-118.76
X77.47Y-121.3
X77.47Y-123.84
X77.47Y-126.38
X77.47Y-128.92
X77.47Y-131.46
X77.47Y-134.0
X77.47Y-136.54
X125.73Y-100.98
X125.73Y-103.52
X125.73Y-106.06
X125.73Y-108.6
X125.73Y-111.14
X125.73Y-113.68
X125.73Y-116.22
X125.73Y-118.76
X125.73Y-123.84
X125.73Y-126.38
X125.73Y-128.92
X125.73Y-131.46
X125.73Y-134.0
X125.73Y-136.54
T6
X59.69Y-69.85
X59.69Y-74.85
X59.69Y-79.85
X59.69Y-84.85
X59.69Y-89.85
X59.69Y-94.85
X59.69Y-99.85
X59.69Y-104.85
X59.69Y-109.85
X59.69Y-114.85
X59.69Y-119.85
X59.69Y-124.85
X59.69Y-129.85
T0
M30
