%TF.GenerationSoftware,KiCad,Pcbnew,(6.0.11)*%
%TF.CreationDate,2023-03-02T23:13:13-06:00*%
%TF.ProjectId,STM,53544d2e-6b69-4636-9164-5f7063625858,rev?*%
%TF.SameCoordinates,Original*%
%TF.FileFunction,Drillmap*%
%TF.FilePolarity,Positive*%
%FSLAX45Y45*%
G04 Gerber Fmt 4.5, Leading zero omitted, Abs format (unit mm)*
G04 Created by KiCad (PCBNEW (6.0.11)) date 2023-03-02 23:13:13*
%MOMM*%
%LPD*%
G01*
G04 APERTURE LIST*
%ADD10C,0.100000*%
%ADD11C,0.200000*%
%ADD12C,0.040000*%
%ADD13C,0.080000*%
%ADD14C,0.102000*%
%ADD15C,0.107000*%
%ADD16C,0.120000*%
G04 APERTURE END LIST*
D10*
X15748000Y-14478000D02*
X15748000Y-5588000D01*
X15748000Y-5588000D02*
X5334000Y-5588000D01*
X5334000Y-14478000D02*
X15748000Y-14478000D01*
X5334000Y-5588000D02*
X5334000Y-14478000D01*
D11*
D12*
X7711550Y-10045030D02*
X7751550Y-10085030D01*
X7751550Y-10045030D02*
X7711550Y-10085030D01*
X7900570Y-10105270D02*
X7940570Y-10145270D01*
X7940570Y-10105270D02*
X7900570Y-10145270D01*
X12839780Y-13920850D02*
X12879780Y-13960850D01*
X12879780Y-13920850D02*
X12839780Y-13960850D01*
D13*
X14772000Y-10542000D02*
G75*
G03*
X14772000Y-10542000I-40000J0D01*
G01*
X14772000Y-10796000D02*
G75*
G03*
X14772000Y-10796000I-40000J0D01*
G01*
X14772000Y-11050000D02*
G75*
G03*
X14772000Y-11050000I-40000J0D01*
G01*
X14772000Y-11304000D02*
G75*
G03*
X14772000Y-11304000I-40000J0D01*
G01*
X14772000Y-11558000D02*
G75*
G03*
X14772000Y-11558000I-40000J0D01*
G01*
X14772000Y-11812000D02*
G75*
G03*
X14772000Y-11812000I-40000J0D01*
G01*
X14772000Y-12066000D02*
G75*
G03*
X14772000Y-12066000I-40000J0D01*
G01*
X14772000Y-12320000D02*
G75*
G03*
X14772000Y-12320000I-40000J0D01*
G01*
X14772000Y-12574000D02*
G75*
G03*
X14772000Y-12574000I-40000J0D01*
G01*
X14772000Y-12828000D02*
G75*
G03*
X14772000Y-12828000I-40000J0D01*
G01*
X14772000Y-13082000D02*
G75*
G03*
X14772000Y-13082000I-40000J0D01*
G01*
X14772000Y-13336000D02*
G75*
G03*
X14772000Y-13336000I-40000J0D01*
G01*
D10*
X13915500Y-9475000D02*
X13915500Y-9575000D01*
X13865500Y-9525000D02*
X13965500Y-9525000D01*
X13915500Y-9729000D02*
X13915500Y-9829000D01*
X13865500Y-9779000D02*
X13965500Y-9779000D01*
X14169500Y-9475000D02*
X14169500Y-9575000D01*
X14119500Y-9525000D02*
X14219500Y-9525000D01*
X14169500Y-9729000D02*
X14169500Y-9829000D01*
X14119500Y-9779000D02*
X14219500Y-9779000D01*
X14423500Y-9475000D02*
X14423500Y-9575000D01*
X14373500Y-9525000D02*
X14473500Y-9525000D01*
X14423500Y-9729000D02*
X14423500Y-9829000D01*
X14373500Y-9779000D02*
X14473500Y-9779000D01*
X14677500Y-9475000D02*
X14677500Y-9575000D01*
X14627500Y-9525000D02*
X14727500Y-9525000D01*
X14677500Y-9729000D02*
X14677500Y-9829000D01*
X14627500Y-9779000D02*
X14727500Y-9779000D01*
D14*
X6767063Y-9118063D02*
X6767063Y-9045937D01*
X6694937Y-9045937D01*
X6694937Y-9118063D01*
X6767063Y-9118063D01*
X6767063Y-9372063D02*
X6767063Y-9299937D01*
X6694937Y-9299937D01*
X6694937Y-9372063D01*
X6767063Y-9372063D01*
X6767063Y-9626063D02*
X6767063Y-9553937D01*
X6694937Y-9553937D01*
X6694937Y-9626063D01*
X6767063Y-9626063D01*
X6767063Y-9880063D02*
X6767063Y-9807937D01*
X6694937Y-9807937D01*
X6694937Y-9880063D01*
X6767063Y-9880063D01*
X6767063Y-10134063D02*
X6767063Y-10061937D01*
X6694937Y-10061937D01*
X6694937Y-10134063D01*
X6767063Y-10134063D01*
X6767063Y-10388063D02*
X6767063Y-10315937D01*
X6694937Y-10315937D01*
X6694937Y-10388063D01*
X6767063Y-10388063D01*
X6767063Y-10642063D02*
X6767063Y-10569937D01*
X6694937Y-10569937D01*
X6694937Y-10642063D01*
X6767063Y-10642063D01*
X6767063Y-10896063D02*
X6767063Y-10823937D01*
X6694937Y-10823937D01*
X6694937Y-10896063D01*
X6767063Y-10896063D01*
X6767063Y-11150063D02*
X6767063Y-11077937D01*
X6694937Y-11077937D01*
X6694937Y-11150063D01*
X6767063Y-11150063D01*
X6767063Y-11404063D02*
X6767063Y-11331937D01*
X6694937Y-11331937D01*
X6694937Y-11404063D01*
X6767063Y-11404063D01*
X6767063Y-11658063D02*
X6767063Y-11585937D01*
X6694937Y-11585937D01*
X6694937Y-11658063D01*
X6767063Y-11658063D01*
X6767063Y-11912063D02*
X6767063Y-11839937D01*
X6694937Y-11839937D01*
X6694937Y-11912063D01*
X6767063Y-11912063D01*
X6767063Y-12166063D02*
X6767063Y-12093937D01*
X6694937Y-12093937D01*
X6694937Y-12166063D01*
X6767063Y-12166063D01*
X6767063Y-12420063D02*
X6767063Y-12347937D01*
X6694937Y-12347937D01*
X6694937Y-12420063D01*
X6767063Y-12420063D01*
X6767063Y-12674063D02*
X6767063Y-12601937D01*
X6694937Y-12601937D01*
X6694937Y-12674063D01*
X6767063Y-12674063D01*
X6767063Y-12928063D02*
X6767063Y-12855937D01*
X6694937Y-12855937D01*
X6694937Y-12928063D01*
X6767063Y-12928063D01*
X6767063Y-13182063D02*
X6767063Y-13109937D01*
X6694937Y-13109937D01*
X6694937Y-13182063D01*
X6767063Y-13182063D01*
X6767063Y-13436063D02*
X6767063Y-13363937D01*
X6694937Y-13363937D01*
X6694937Y-13436063D01*
X6767063Y-13436063D01*
X6767063Y-13690063D02*
X6767063Y-13617937D01*
X6694937Y-13617937D01*
X6694937Y-13690063D01*
X6767063Y-13690063D01*
X7021063Y-9118063D02*
X7021063Y-9045937D01*
X6948937Y-9045937D01*
X6948937Y-9118063D01*
X7021063Y-9118063D01*
X7021063Y-9372063D02*
X7021063Y-9299937D01*
X6948937Y-9299937D01*
X6948937Y-9372063D01*
X7021063Y-9372063D01*
X7021063Y-9626063D02*
X7021063Y-9553937D01*
X6948937Y-9553937D01*
X6948937Y-9626063D01*
X7021063Y-9626063D01*
X7021063Y-9880063D02*
X7021063Y-9807937D01*
X6948937Y-9807937D01*
X6948937Y-9880063D01*
X7021063Y-9880063D01*
X7021063Y-10134063D02*
X7021063Y-10061937D01*
X6948937Y-10061937D01*
X6948937Y-10134063D01*
X7021063Y-10134063D01*
X7021063Y-10388063D02*
X7021063Y-10315937D01*
X6948937Y-10315937D01*
X6948937Y-10388063D01*
X7021063Y-10388063D01*
X7021063Y-10642063D02*
X7021063Y-10569937D01*
X6948937Y-10569937D01*
X6948937Y-10642063D01*
X7021063Y-10642063D01*
X7021063Y-10896063D02*
X7021063Y-10823937D01*
X6948937Y-10823937D01*
X6948937Y-10896063D01*
X7021063Y-10896063D01*
X7021063Y-11150063D02*
X7021063Y-11077937D01*
X6948937Y-11077937D01*
X6948937Y-11150063D01*
X7021063Y-11150063D01*
X7021063Y-11404063D02*
X7021063Y-11331937D01*
X6948937Y-11331937D01*
X6948937Y-11404063D01*
X7021063Y-11404063D01*
X7021063Y-11658063D02*
X7021063Y-11585937D01*
X6948937Y-11585937D01*
X6948937Y-11658063D01*
X7021063Y-11658063D01*
X7021063Y-11912063D02*
X7021063Y-11839937D01*
X6948937Y-11839937D01*
X6948937Y-11912063D01*
X7021063Y-11912063D01*
X7021063Y-12166063D02*
X7021063Y-12093937D01*
X6948937Y-12093937D01*
X6948937Y-12166063D01*
X7021063Y-12166063D01*
X7021063Y-12420063D02*
X7021063Y-12347937D01*
X6948937Y-12347937D01*
X6948937Y-12420063D01*
X7021063Y-12420063D01*
X7021063Y-12674063D02*
X7021063Y-12601937D01*
X6948937Y-12601937D01*
X6948937Y-12674063D01*
X7021063Y-12674063D01*
X7021063Y-12928063D02*
X7021063Y-12855937D01*
X6948937Y-12855937D01*
X6948937Y-12928063D01*
X7021063Y-12928063D01*
X7021063Y-13182063D02*
X7021063Y-13109937D01*
X6948937Y-13109937D01*
X6948937Y-13182063D01*
X7021063Y-13182063D01*
X7021063Y-13436063D02*
X7021063Y-13363937D01*
X6948937Y-13363937D01*
X6948937Y-13436063D01*
X7021063Y-13436063D01*
X7021063Y-13690063D02*
X7021063Y-13617937D01*
X6948937Y-13617937D01*
X6948937Y-13690063D01*
X7021063Y-13690063D01*
X12863063Y-9118063D02*
X12863063Y-9045937D01*
X12790937Y-9045937D01*
X12790937Y-9118063D01*
X12863063Y-9118063D01*
X12863063Y-9372063D02*
X12863063Y-9299937D01*
X12790937Y-9299937D01*
X12790937Y-9372063D01*
X12863063Y-9372063D01*
X12863063Y-9626063D02*
X12863063Y-9553937D01*
X12790937Y-9553937D01*
X12790937Y-9626063D01*
X12863063Y-9626063D01*
X12863063Y-9880063D02*
X12863063Y-9807937D01*
X12790937Y-9807937D01*
X12790937Y-9880063D01*
X12863063Y-9880063D01*
X12863063Y-10134063D02*
X12863063Y-10061937D01*
X12790937Y-10061937D01*
X12790937Y-10134063D01*
X12863063Y-10134063D01*
X12863063Y-10388063D02*
X12863063Y-10315937D01*
X12790937Y-10315937D01*
X12790937Y-10388063D01*
X12863063Y-10388063D01*
X12863063Y-10642063D02*
X12863063Y-10569937D01*
X12790937Y-10569937D01*
X12790937Y-10642063D01*
X12863063Y-10642063D01*
X12863063Y-10896063D02*
X12863063Y-10823937D01*
X12790937Y-10823937D01*
X12790937Y-10896063D01*
X12863063Y-10896063D01*
X12863063Y-11150063D02*
X12863063Y-11077937D01*
X12790937Y-11077937D01*
X12790937Y-11150063D01*
X12863063Y-11150063D01*
X12863063Y-11404063D02*
X12863063Y-11331937D01*
X12790937Y-11331937D01*
X12790937Y-11404063D01*
X12863063Y-11404063D01*
X12863063Y-11658063D02*
X12863063Y-11585937D01*
X12790937Y-11585937D01*
X12790937Y-11658063D01*
X12863063Y-11658063D01*
X12863063Y-11912063D02*
X12863063Y-11839937D01*
X12790937Y-11839937D01*
X12790937Y-11912063D01*
X12863063Y-11912063D01*
X12863063Y-12166063D02*
X12863063Y-12093937D01*
X12790937Y-12093937D01*
X12790937Y-12166063D01*
X12863063Y-12166063D01*
X12863063Y-12420063D02*
X12863063Y-12347937D01*
X12790937Y-12347937D01*
X12790937Y-12420063D01*
X12863063Y-12420063D01*
X12863063Y-12674063D02*
X12863063Y-12601937D01*
X12790937Y-12601937D01*
X12790937Y-12674063D01*
X12863063Y-12674063D01*
X12863063Y-12928063D02*
X12863063Y-12855937D01*
X12790937Y-12855937D01*
X12790937Y-12928063D01*
X12863063Y-12928063D01*
X12863063Y-13182063D02*
X12863063Y-13109937D01*
X12790937Y-13109937D01*
X12790937Y-13182063D01*
X12863063Y-13182063D01*
X12863063Y-13436063D02*
X12863063Y-13363937D01*
X12790937Y-13363937D01*
X12790937Y-13436063D01*
X12863063Y-13436063D01*
X12863063Y-13690063D02*
X12863063Y-13617937D01*
X12790937Y-13617937D01*
X12790937Y-13690063D01*
X12863063Y-13690063D01*
X13117063Y-9118063D02*
X13117063Y-9045937D01*
X13044937Y-9045937D01*
X13044937Y-9118063D01*
X13117063Y-9118063D01*
X13117063Y-9372063D02*
X13117063Y-9299937D01*
X13044937Y-9299937D01*
X13044937Y-9372063D01*
X13117063Y-9372063D01*
X13117063Y-9626063D02*
X13117063Y-9553937D01*
X13044937Y-9553937D01*
X13044937Y-9626063D01*
X13117063Y-9626063D01*
X13117063Y-9880063D02*
X13117063Y-9807937D01*
X13044937Y-9807937D01*
X13044937Y-9880063D01*
X13117063Y-9880063D01*
X13117063Y-10134063D02*
X13117063Y-10061937D01*
X13044937Y-10061937D01*
X13044937Y-10134063D01*
X13117063Y-10134063D01*
X13117063Y-10388063D02*
X13117063Y-10315937D01*
X13044937Y-10315937D01*
X13044937Y-10388063D01*
X13117063Y-10388063D01*
X13117063Y-10642063D02*
X13117063Y-10569937D01*
X13044937Y-10569937D01*
X13044937Y-10642063D01*
X13117063Y-10642063D01*
X13117063Y-10896063D02*
X13117063Y-10823937D01*
X13044937Y-10823937D01*
X13044937Y-10896063D01*
X13117063Y-10896063D01*
X13117063Y-11150063D02*
X13117063Y-11077937D01*
X13044937Y-11077937D01*
X13044937Y-11150063D01*
X13117063Y-11150063D01*
X13117063Y-11404063D02*
X13117063Y-11331937D01*
X13044937Y-11331937D01*
X13044937Y-11404063D01*
X13117063Y-11404063D01*
X13117063Y-11658063D02*
X13117063Y-11585937D01*
X13044937Y-11585937D01*
X13044937Y-11658063D01*
X13117063Y-11658063D01*
X13117063Y-11912063D02*
X13117063Y-11839937D01*
X13044937Y-11839937D01*
X13044937Y-11912063D01*
X13117063Y-11912063D01*
X13117063Y-12166063D02*
X13117063Y-12093937D01*
X13044937Y-12093937D01*
X13044937Y-12166063D01*
X13117063Y-12166063D01*
X13117063Y-12420063D02*
X13117063Y-12347937D01*
X13044937Y-12347937D01*
X13044937Y-12420063D01*
X13117063Y-12420063D01*
X13117063Y-12674063D02*
X13117063Y-12601937D01*
X13044937Y-12601937D01*
X13044937Y-12674063D01*
X13117063Y-12674063D01*
X13117063Y-12928063D02*
X13117063Y-12855937D01*
X13044937Y-12855937D01*
X13044937Y-12928063D01*
X13117063Y-12928063D01*
X13117063Y-13182063D02*
X13117063Y-13109937D01*
X13044937Y-13109937D01*
X13044937Y-13182063D01*
X13117063Y-13182063D01*
X13117063Y-13436063D02*
X13117063Y-13363937D01*
X13044937Y-13363937D01*
X13044937Y-13436063D01*
X13117063Y-13436063D01*
X13117063Y-13690063D02*
X13117063Y-13617937D01*
X13044937Y-13617937D01*
X13044937Y-13690063D01*
X13117063Y-13690063D01*
D15*
X7493000Y-9237500D02*
X7546500Y-9184000D01*
X7493000Y-9130500D01*
X7439500Y-9184000D01*
X7493000Y-9237500D01*
X7493000Y-9491500D02*
X7546500Y-9438000D01*
X7493000Y-9384500D01*
X7439500Y-9438000D01*
X7493000Y-9491500D01*
X7493000Y-9745500D02*
X7546500Y-9692000D01*
X7493000Y-9638500D01*
X7439500Y-9692000D01*
X7493000Y-9745500D01*
X7493000Y-9999500D02*
X7546500Y-9946000D01*
X7493000Y-9892500D01*
X7439500Y-9946000D01*
X7493000Y-9999500D01*
X7493000Y-10253500D02*
X7546500Y-10200000D01*
X7493000Y-10146500D01*
X7439500Y-10200000D01*
X7493000Y-10253500D01*
X7493000Y-10507500D02*
X7546500Y-10454000D01*
X7493000Y-10400500D01*
X7439500Y-10454000D01*
X7493000Y-10507500D01*
X7493000Y-10761500D02*
X7546500Y-10708000D01*
X7493000Y-10654500D01*
X7439500Y-10708000D01*
X7493000Y-10761500D01*
X7493000Y-11015500D02*
X7546500Y-10962000D01*
X7493000Y-10908500D01*
X7439500Y-10962000D01*
X7493000Y-11015500D01*
X7493000Y-11269500D02*
X7546500Y-11216000D01*
X7493000Y-11162500D01*
X7439500Y-11216000D01*
X7493000Y-11269500D01*
X7493000Y-11523500D02*
X7546500Y-11470000D01*
X7493000Y-11416500D01*
X7439500Y-11470000D01*
X7493000Y-11523500D01*
X7493000Y-11929500D02*
X7546500Y-11876000D01*
X7493000Y-11822500D01*
X7439500Y-11876000D01*
X7493000Y-11929500D01*
X7493000Y-12183500D02*
X7546500Y-12130000D01*
X7493000Y-12076500D01*
X7439500Y-12130000D01*
X7493000Y-12183500D01*
X7493000Y-12437500D02*
X7546500Y-12384000D01*
X7493000Y-12330500D01*
X7439500Y-12384000D01*
X7493000Y-12437500D01*
X7493000Y-12691500D02*
X7546500Y-12638000D01*
X7493000Y-12584500D01*
X7439500Y-12638000D01*
X7493000Y-12691500D01*
X7493000Y-12945500D02*
X7546500Y-12892000D01*
X7493000Y-12838500D01*
X7439500Y-12892000D01*
X7493000Y-12945500D01*
X7493000Y-13199500D02*
X7546500Y-13146000D01*
X7493000Y-13092500D01*
X7439500Y-13146000D01*
X7493000Y-13199500D01*
X7493000Y-13453500D02*
X7546500Y-13400000D01*
X7493000Y-13346500D01*
X7439500Y-13400000D01*
X7493000Y-13453500D01*
X7493000Y-13707500D02*
X7546500Y-13654000D01*
X7493000Y-13600500D01*
X7439500Y-13654000D01*
X7493000Y-13707500D01*
X12319000Y-10151500D02*
X12372500Y-10098000D01*
X12319000Y-10044500D01*
X12265500Y-10098000D01*
X12319000Y-10151500D01*
X12319000Y-10405500D02*
X12372500Y-10352000D01*
X12319000Y-10298500D01*
X12265500Y-10352000D01*
X12319000Y-10405500D01*
X12319000Y-10659500D02*
X12372500Y-10606000D01*
X12319000Y-10552500D01*
X12265500Y-10606000D01*
X12319000Y-10659500D01*
X12319000Y-10913500D02*
X12372500Y-10860000D01*
X12319000Y-10806500D01*
X12265500Y-10860000D01*
X12319000Y-10913500D01*
X12319000Y-11167500D02*
X12372500Y-11114000D01*
X12319000Y-11060500D01*
X12265500Y-11114000D01*
X12319000Y-11167500D01*
X12319000Y-11421500D02*
X12372500Y-11368000D01*
X12319000Y-11314500D01*
X12265500Y-11368000D01*
X12319000Y-11421500D01*
X12319000Y-11675500D02*
X12372500Y-11622000D01*
X12319000Y-11568500D01*
X12265500Y-11622000D01*
X12319000Y-11675500D01*
X12319000Y-11929500D02*
X12372500Y-11876000D01*
X12319000Y-11822500D01*
X12265500Y-11876000D01*
X12319000Y-11929500D01*
X12319000Y-12437500D02*
X12372500Y-12384000D01*
X12319000Y-12330500D01*
X12265500Y-12384000D01*
X12319000Y-12437500D01*
X12319000Y-12691500D02*
X12372500Y-12638000D01*
X12319000Y-12584500D01*
X12265500Y-12638000D01*
X12319000Y-12691500D01*
X12319000Y-12945500D02*
X12372500Y-12892000D01*
X12319000Y-12838500D01*
X12265500Y-12892000D01*
X12319000Y-12945500D01*
X12319000Y-13199500D02*
X12372500Y-13146000D01*
X12319000Y-13092500D01*
X12265500Y-13146000D01*
X12319000Y-13199500D01*
X12319000Y-13453500D02*
X12372500Y-13400000D01*
X12319000Y-13346500D01*
X12265500Y-13400000D01*
X12319000Y-13453500D01*
X12319000Y-13707500D02*
X12372500Y-13654000D01*
X12319000Y-13600500D01*
X12265500Y-13654000D01*
X12319000Y-13707500D01*
D16*
X5852000Y-8175000D02*
X5972000Y-8295000D01*
X5972000Y-8175000D02*
X5852000Y-8295000D01*
X5972000Y-8235000D02*
G75*
G03*
X5972000Y-8235000I-60000J0D01*
G01*
X5852000Y-8525000D02*
X5972000Y-8645000D01*
X5972000Y-8525000D02*
X5852000Y-8645000D01*
X5972000Y-8585000D02*
G75*
G03*
X5972000Y-8585000I-60000J0D01*
G01*
X5852000Y-8875000D02*
X5972000Y-8995000D01*
X5972000Y-8875000D02*
X5852000Y-8995000D01*
X5972000Y-8935000D02*
G75*
G03*
X5972000Y-8935000I-60000J0D01*
G01*
X5852000Y-9225000D02*
X5972000Y-9345000D01*
X5972000Y-9225000D02*
X5852000Y-9345000D01*
X5972000Y-9285000D02*
G75*
G03*
X5972000Y-9285000I-60000J0D01*
G01*
X5852000Y-9575000D02*
X5972000Y-9695000D01*
X5972000Y-9575000D02*
X5852000Y-9695000D01*
X5972000Y-9635000D02*
G75*
G03*
X5972000Y-9635000I-60000J0D01*
G01*
X5852000Y-9925000D02*
X5972000Y-10045000D01*
X5972000Y-9925000D02*
X5852000Y-10045000D01*
X5972000Y-9985000D02*
G75*
G03*
X5972000Y-9985000I-60000J0D01*
G01*
X5852000Y-10275000D02*
X5972000Y-10395000D01*
X5972000Y-10275000D02*
X5852000Y-10395000D01*
X5972000Y-10335000D02*
G75*
G03*
X5972000Y-10335000I-60000J0D01*
G01*
X5852000Y-10625000D02*
X5972000Y-10745000D01*
X5972000Y-10625000D02*
X5852000Y-10745000D01*
X5972000Y-10685000D02*
G75*
G03*
X5972000Y-10685000I-60000J0D01*
G01*
X5852000Y-10975000D02*
X5972000Y-11095000D01*
X5972000Y-10975000D02*
X5852000Y-11095000D01*
X5972000Y-11035000D02*
G75*
G03*
X5972000Y-11035000I-60000J0D01*
G01*
X5852000Y-11325000D02*
X5972000Y-11445000D01*
X5972000Y-11325000D02*
X5852000Y-11445000D01*
X5972000Y-11385000D02*
G75*
G03*
X5972000Y-11385000I-60000J0D01*
G01*
X5852000Y-11675000D02*
X5972000Y-11795000D01*
X5972000Y-11675000D02*
X5852000Y-11795000D01*
X5972000Y-11735000D02*
G75*
G03*
X5972000Y-11735000I-60000J0D01*
G01*
X5852000Y-12025000D02*
X5972000Y-12145000D01*
X5972000Y-12025000D02*
X5852000Y-12145000D01*
X5972000Y-12085000D02*
G75*
G03*
X5972000Y-12085000I-60000J0D01*
G01*
D11*
X5586619Y-14793476D02*
X5586619Y-14593476D01*
X5634238Y-14593476D01*
X5662809Y-14603000D01*
X5681857Y-14622048D01*
X5691381Y-14641095D01*
X5700905Y-14679190D01*
X5700905Y-14707762D01*
X5691381Y-14745857D01*
X5681857Y-14764905D01*
X5662809Y-14783952D01*
X5634238Y-14793476D01*
X5586619Y-14793476D01*
X5786619Y-14793476D02*
X5786619Y-14660143D01*
X5786619Y-14698238D02*
X5796143Y-14679190D01*
X5805667Y-14669667D01*
X5824714Y-14660143D01*
X5843762Y-14660143D01*
X5910428Y-14793476D02*
X5910428Y-14660143D01*
X5910428Y-14593476D02*
X5900905Y-14603000D01*
X5910428Y-14612524D01*
X5919952Y-14603000D01*
X5910428Y-14593476D01*
X5910428Y-14612524D01*
X6034238Y-14793476D02*
X6015190Y-14783952D01*
X6005667Y-14764905D01*
X6005667Y-14593476D01*
X6139000Y-14793476D02*
X6119952Y-14783952D01*
X6110428Y-14764905D01*
X6110428Y-14593476D01*
X6367571Y-14793476D02*
X6367571Y-14593476D01*
X6434238Y-14736333D01*
X6500905Y-14593476D01*
X6500905Y-14793476D01*
X6681857Y-14793476D02*
X6681857Y-14688714D01*
X6672333Y-14669667D01*
X6653286Y-14660143D01*
X6615190Y-14660143D01*
X6596143Y-14669667D01*
X6681857Y-14783952D02*
X6662809Y-14793476D01*
X6615190Y-14793476D01*
X6596143Y-14783952D01*
X6586619Y-14764905D01*
X6586619Y-14745857D01*
X6596143Y-14726809D01*
X6615190Y-14717286D01*
X6662809Y-14717286D01*
X6681857Y-14707762D01*
X6777095Y-14660143D02*
X6777095Y-14860143D01*
X6777095Y-14669667D02*
X6796143Y-14660143D01*
X6834238Y-14660143D01*
X6853286Y-14669667D01*
X6862809Y-14679190D01*
X6872333Y-14698238D01*
X6872333Y-14755381D01*
X6862809Y-14774428D01*
X6853286Y-14783952D01*
X6834238Y-14793476D01*
X6796143Y-14793476D01*
X6777095Y-14783952D01*
X6958048Y-14774428D02*
X6967571Y-14783952D01*
X6958048Y-14793476D01*
X6948524Y-14783952D01*
X6958048Y-14774428D01*
X6958048Y-14793476D01*
X6958048Y-14669667D02*
X6967571Y-14679190D01*
X6958048Y-14688714D01*
X6948524Y-14679190D01*
X6958048Y-14669667D01*
X6958048Y-14688714D01*
D12*
X5289000Y-15103000D02*
X5329000Y-15143000D01*
X5329000Y-15103000D02*
X5289000Y-15143000D01*
D11*
X5624714Y-15013476D02*
X5643762Y-15013476D01*
X5662809Y-15023000D01*
X5672333Y-15032524D01*
X5681857Y-15051571D01*
X5691381Y-15089667D01*
X5691381Y-15137286D01*
X5681857Y-15175381D01*
X5672333Y-15194428D01*
X5662809Y-15203952D01*
X5643762Y-15213476D01*
X5624714Y-15213476D01*
X5605667Y-15203952D01*
X5596143Y-15194428D01*
X5586619Y-15175381D01*
X5577095Y-15137286D01*
X5577095Y-15089667D01*
X5586619Y-15051571D01*
X5596143Y-15032524D01*
X5605667Y-15023000D01*
X5624714Y-15013476D01*
X5777095Y-15194428D02*
X5786619Y-15203952D01*
X5777095Y-15213476D01*
X5767571Y-15203952D01*
X5777095Y-15194428D01*
X5777095Y-15213476D01*
X5958048Y-15080143D02*
X5958048Y-15213476D01*
X5910428Y-15003952D02*
X5862809Y-15146809D01*
X5986619Y-15146809D01*
X6100905Y-15013476D02*
X6119952Y-15013476D01*
X6139000Y-15023000D01*
X6148524Y-15032524D01*
X6158048Y-15051571D01*
X6167571Y-15089667D01*
X6167571Y-15137286D01*
X6158048Y-15175381D01*
X6148524Y-15194428D01*
X6139000Y-15203952D01*
X6119952Y-15213476D01*
X6100905Y-15213476D01*
X6081857Y-15203952D01*
X6072333Y-15194428D01*
X6062809Y-15175381D01*
X6053286Y-15137286D01*
X6053286Y-15089667D01*
X6062809Y-15051571D01*
X6072333Y-15032524D01*
X6081857Y-15023000D01*
X6100905Y-15013476D01*
X6291381Y-15013476D02*
X6310428Y-15013476D01*
X6329476Y-15023000D01*
X6339000Y-15032524D01*
X6348524Y-15051571D01*
X6358048Y-15089667D01*
X6358048Y-15137286D01*
X6348524Y-15175381D01*
X6339000Y-15194428D01*
X6329476Y-15203952D01*
X6310428Y-15213476D01*
X6291381Y-15213476D01*
X6272333Y-15203952D01*
X6262809Y-15194428D01*
X6253286Y-15175381D01*
X6243762Y-15137286D01*
X6243762Y-15089667D01*
X6253286Y-15051571D01*
X6262809Y-15032524D01*
X6272333Y-15023000D01*
X6291381Y-15013476D01*
X6443762Y-15213476D02*
X6443762Y-15080143D01*
X6443762Y-15099190D02*
X6453286Y-15089667D01*
X6472333Y-15080143D01*
X6500905Y-15080143D01*
X6519952Y-15089667D01*
X6529476Y-15108714D01*
X6529476Y-15213476D01*
X6529476Y-15108714D02*
X6539000Y-15089667D01*
X6558048Y-15080143D01*
X6586619Y-15080143D01*
X6605667Y-15089667D01*
X6615190Y-15108714D01*
X6615190Y-15213476D01*
X6710428Y-15213476D02*
X6710428Y-15080143D01*
X6710428Y-15099190D02*
X6719952Y-15089667D01*
X6739000Y-15080143D01*
X6767571Y-15080143D01*
X6786619Y-15089667D01*
X6796143Y-15108714D01*
X6796143Y-15213476D01*
X6796143Y-15108714D02*
X6805667Y-15089667D01*
X6824714Y-15080143D01*
X6853286Y-15080143D01*
X6872333Y-15089667D01*
X6881857Y-15108714D01*
X6881857Y-15213476D01*
X7272333Y-15003952D02*
X7100905Y-15261095D01*
X7529476Y-15013476D02*
X7548524Y-15013476D01*
X7567571Y-15023000D01*
X7577095Y-15032524D01*
X7586619Y-15051571D01*
X7596143Y-15089667D01*
X7596143Y-15137286D01*
X7586619Y-15175381D01*
X7577095Y-15194428D01*
X7567571Y-15203952D01*
X7548524Y-15213476D01*
X7529476Y-15213476D01*
X7510428Y-15203952D01*
X7500905Y-15194428D01*
X7491381Y-15175381D01*
X7481857Y-15137286D01*
X7481857Y-15089667D01*
X7491381Y-15051571D01*
X7500905Y-15032524D01*
X7510428Y-15023000D01*
X7529476Y-15013476D01*
X7681857Y-15194428D02*
X7691381Y-15203952D01*
X7681857Y-15213476D01*
X7672333Y-15203952D01*
X7681857Y-15194428D01*
X7681857Y-15213476D01*
X7815190Y-15013476D02*
X7834238Y-15013476D01*
X7853286Y-15023000D01*
X7862809Y-15032524D01*
X7872333Y-15051571D01*
X7881857Y-15089667D01*
X7881857Y-15137286D01*
X7872333Y-15175381D01*
X7862809Y-15194428D01*
X7853286Y-15203952D01*
X7834238Y-15213476D01*
X7815190Y-15213476D01*
X7796143Y-15203952D01*
X7786619Y-15194428D01*
X7777095Y-15175381D01*
X7767571Y-15137286D01*
X7767571Y-15089667D01*
X7777095Y-15051571D01*
X7786619Y-15032524D01*
X7796143Y-15023000D01*
X7815190Y-15013476D01*
X8072333Y-15213476D02*
X7958048Y-15213476D01*
X8015190Y-15213476D02*
X8015190Y-15013476D01*
X7996143Y-15042048D01*
X7977095Y-15061095D01*
X7958048Y-15070619D01*
X8253286Y-15013476D02*
X8158048Y-15013476D01*
X8148524Y-15108714D01*
X8158048Y-15099190D01*
X8177095Y-15089667D01*
X8224714Y-15089667D01*
X8243762Y-15099190D01*
X8253286Y-15108714D01*
X8262809Y-15127762D01*
X8262809Y-15175381D01*
X8253286Y-15194428D01*
X8243762Y-15203952D01*
X8224714Y-15213476D01*
X8177095Y-15213476D01*
X8158048Y-15203952D01*
X8148524Y-15194428D01*
X8329476Y-15013476D02*
X8462810Y-15013476D01*
X8377095Y-15213476D01*
X8529476Y-15013476D02*
X8529476Y-15051571D01*
X8605667Y-15013476D02*
X8605667Y-15051571D01*
X8900905Y-15289667D02*
X8891381Y-15280143D01*
X8872333Y-15251571D01*
X8862810Y-15232524D01*
X8853286Y-15203952D01*
X8843762Y-15156333D01*
X8843762Y-15118238D01*
X8853286Y-15070619D01*
X8862810Y-15042048D01*
X8872333Y-15023000D01*
X8891381Y-14994428D01*
X8900905Y-14984905D01*
X8958048Y-15013476D02*
X9081857Y-15013476D01*
X9015190Y-15089667D01*
X9043762Y-15089667D01*
X9062810Y-15099190D01*
X9072333Y-15108714D01*
X9081857Y-15127762D01*
X9081857Y-15175381D01*
X9072333Y-15194428D01*
X9062810Y-15203952D01*
X9043762Y-15213476D01*
X8986619Y-15213476D01*
X8967571Y-15203952D01*
X8958048Y-15194428D01*
X9319952Y-15213476D02*
X9319952Y-15013476D01*
X9405667Y-15213476D02*
X9405667Y-15108714D01*
X9396143Y-15089667D01*
X9377095Y-15080143D01*
X9348524Y-15080143D01*
X9329476Y-15089667D01*
X9319952Y-15099190D01*
X9529476Y-15213476D02*
X9510429Y-15203952D01*
X9500905Y-15194428D01*
X9491381Y-15175381D01*
X9491381Y-15118238D01*
X9500905Y-15099190D01*
X9510429Y-15089667D01*
X9529476Y-15080143D01*
X9558048Y-15080143D01*
X9577095Y-15089667D01*
X9586619Y-15099190D01*
X9596143Y-15118238D01*
X9596143Y-15175381D01*
X9586619Y-15194428D01*
X9577095Y-15203952D01*
X9558048Y-15213476D01*
X9529476Y-15213476D01*
X9710429Y-15213476D02*
X9691381Y-15203952D01*
X9681857Y-15184905D01*
X9681857Y-15013476D01*
X9862810Y-15203952D02*
X9843762Y-15213476D01*
X9805667Y-15213476D01*
X9786619Y-15203952D01*
X9777095Y-15184905D01*
X9777095Y-15108714D01*
X9786619Y-15089667D01*
X9805667Y-15080143D01*
X9843762Y-15080143D01*
X9862810Y-15089667D01*
X9872333Y-15108714D01*
X9872333Y-15127762D01*
X9777095Y-15146809D01*
X9948524Y-15203952D02*
X9967571Y-15213476D01*
X10005667Y-15213476D01*
X10024714Y-15203952D01*
X10034238Y-15184905D01*
X10034238Y-15175381D01*
X10024714Y-15156333D01*
X10005667Y-15146809D01*
X9977095Y-15146809D01*
X9958048Y-15137286D01*
X9948524Y-15118238D01*
X9948524Y-15108714D01*
X9958048Y-15089667D01*
X9977095Y-15080143D01*
X10005667Y-15080143D01*
X10024714Y-15089667D01*
X10100905Y-15289667D02*
X10110429Y-15280143D01*
X10129476Y-15251571D01*
X10139000Y-15232524D01*
X10148524Y-15203952D01*
X10158048Y-15156333D01*
X10158048Y-15118238D01*
X10148524Y-15070619D01*
X10139000Y-15042048D01*
X10129476Y-15023000D01*
X10110429Y-14994428D01*
X10100905Y-14984905D01*
D13*
X5329000Y-15387000D02*
G75*
G03*
X5329000Y-15387000I-40000J0D01*
G01*
D11*
X5624714Y-15277476D02*
X5643762Y-15277476D01*
X5662809Y-15287000D01*
X5672333Y-15296524D01*
X5681857Y-15315571D01*
X5691381Y-15353667D01*
X5691381Y-15401286D01*
X5681857Y-15439381D01*
X5672333Y-15458428D01*
X5662809Y-15467952D01*
X5643762Y-15477476D01*
X5624714Y-15477476D01*
X5605667Y-15467952D01*
X5596143Y-15458428D01*
X5586619Y-15439381D01*
X5577095Y-15401286D01*
X5577095Y-15353667D01*
X5586619Y-15315571D01*
X5596143Y-15296524D01*
X5605667Y-15287000D01*
X5624714Y-15277476D01*
X5777095Y-15458428D02*
X5786619Y-15467952D01*
X5777095Y-15477476D01*
X5767571Y-15467952D01*
X5777095Y-15458428D01*
X5777095Y-15477476D01*
X5900905Y-15363190D02*
X5881857Y-15353667D01*
X5872333Y-15344143D01*
X5862809Y-15325095D01*
X5862809Y-15315571D01*
X5872333Y-15296524D01*
X5881857Y-15287000D01*
X5900905Y-15277476D01*
X5939000Y-15277476D01*
X5958048Y-15287000D01*
X5967571Y-15296524D01*
X5977095Y-15315571D01*
X5977095Y-15325095D01*
X5967571Y-15344143D01*
X5958048Y-15353667D01*
X5939000Y-15363190D01*
X5900905Y-15363190D01*
X5881857Y-15372714D01*
X5872333Y-15382238D01*
X5862809Y-15401286D01*
X5862809Y-15439381D01*
X5872333Y-15458428D01*
X5881857Y-15467952D01*
X5900905Y-15477476D01*
X5939000Y-15477476D01*
X5958048Y-15467952D01*
X5967571Y-15458428D01*
X5977095Y-15439381D01*
X5977095Y-15401286D01*
X5967571Y-15382238D01*
X5958048Y-15372714D01*
X5939000Y-15363190D01*
X6100905Y-15277476D02*
X6119952Y-15277476D01*
X6139000Y-15287000D01*
X6148524Y-15296524D01*
X6158048Y-15315571D01*
X6167571Y-15353667D01*
X6167571Y-15401286D01*
X6158048Y-15439381D01*
X6148524Y-15458428D01*
X6139000Y-15467952D01*
X6119952Y-15477476D01*
X6100905Y-15477476D01*
X6081857Y-15467952D01*
X6072333Y-15458428D01*
X6062809Y-15439381D01*
X6053286Y-15401286D01*
X6053286Y-15353667D01*
X6062809Y-15315571D01*
X6072333Y-15296524D01*
X6081857Y-15287000D01*
X6100905Y-15277476D01*
X6291381Y-15277476D02*
X6310428Y-15277476D01*
X6329476Y-15287000D01*
X6339000Y-15296524D01*
X6348524Y-15315571D01*
X6358048Y-15353667D01*
X6358048Y-15401286D01*
X6348524Y-15439381D01*
X6339000Y-15458428D01*
X6329476Y-15467952D01*
X6310428Y-15477476D01*
X6291381Y-15477476D01*
X6272333Y-15467952D01*
X6262809Y-15458428D01*
X6253286Y-15439381D01*
X6243762Y-15401286D01*
X6243762Y-15353667D01*
X6253286Y-15315571D01*
X6262809Y-15296524D01*
X6272333Y-15287000D01*
X6291381Y-15277476D01*
X6443762Y-15477476D02*
X6443762Y-15344143D01*
X6443762Y-15363190D02*
X6453286Y-15353667D01*
X6472333Y-15344143D01*
X6500905Y-15344143D01*
X6519952Y-15353667D01*
X6529476Y-15372714D01*
X6529476Y-15477476D01*
X6529476Y-15372714D02*
X6539000Y-15353667D01*
X6558048Y-15344143D01*
X6586619Y-15344143D01*
X6605667Y-15353667D01*
X6615190Y-15372714D01*
X6615190Y-15477476D01*
X6710428Y-15477476D02*
X6710428Y-15344143D01*
X6710428Y-15363190D02*
X6719952Y-15353667D01*
X6739000Y-15344143D01*
X6767571Y-15344143D01*
X6786619Y-15353667D01*
X6796143Y-15372714D01*
X6796143Y-15477476D01*
X6796143Y-15372714D02*
X6805667Y-15353667D01*
X6824714Y-15344143D01*
X6853286Y-15344143D01*
X6872333Y-15353667D01*
X6881857Y-15372714D01*
X6881857Y-15477476D01*
X7272333Y-15267952D02*
X7100905Y-15525095D01*
X7529476Y-15277476D02*
X7548524Y-15277476D01*
X7567571Y-15287000D01*
X7577095Y-15296524D01*
X7586619Y-15315571D01*
X7596143Y-15353667D01*
X7596143Y-15401286D01*
X7586619Y-15439381D01*
X7577095Y-15458428D01*
X7567571Y-15467952D01*
X7548524Y-15477476D01*
X7529476Y-15477476D01*
X7510428Y-15467952D01*
X7500905Y-15458428D01*
X7491381Y-15439381D01*
X7481857Y-15401286D01*
X7481857Y-15353667D01*
X7491381Y-15315571D01*
X7500905Y-15296524D01*
X7510428Y-15287000D01*
X7529476Y-15277476D01*
X7681857Y-15458428D02*
X7691381Y-15467952D01*
X7681857Y-15477476D01*
X7672333Y-15467952D01*
X7681857Y-15458428D01*
X7681857Y-15477476D01*
X7815190Y-15277476D02*
X7834238Y-15277476D01*
X7853286Y-15287000D01*
X7862809Y-15296524D01*
X7872333Y-15315571D01*
X7881857Y-15353667D01*
X7881857Y-15401286D01*
X7872333Y-15439381D01*
X7862809Y-15458428D01*
X7853286Y-15467952D01*
X7834238Y-15477476D01*
X7815190Y-15477476D01*
X7796143Y-15467952D01*
X7786619Y-15458428D01*
X7777095Y-15439381D01*
X7767571Y-15401286D01*
X7767571Y-15353667D01*
X7777095Y-15315571D01*
X7786619Y-15296524D01*
X7796143Y-15287000D01*
X7815190Y-15277476D01*
X7948524Y-15277476D02*
X8072333Y-15277476D01*
X8005667Y-15353667D01*
X8034238Y-15353667D01*
X8053286Y-15363190D01*
X8062809Y-15372714D01*
X8072333Y-15391762D01*
X8072333Y-15439381D01*
X8062809Y-15458428D01*
X8053286Y-15467952D01*
X8034238Y-15477476D01*
X7977095Y-15477476D01*
X7958048Y-15467952D01*
X7948524Y-15458428D01*
X8262809Y-15477476D02*
X8148524Y-15477476D01*
X8205667Y-15477476D02*
X8205667Y-15277476D01*
X8186619Y-15306048D01*
X8167571Y-15325095D01*
X8148524Y-15334619D01*
X8443762Y-15277476D02*
X8348524Y-15277476D01*
X8339000Y-15372714D01*
X8348524Y-15363190D01*
X8367571Y-15353667D01*
X8415190Y-15353667D01*
X8434238Y-15363190D01*
X8443762Y-15372714D01*
X8453286Y-15391762D01*
X8453286Y-15439381D01*
X8443762Y-15458428D01*
X8434238Y-15467952D01*
X8415190Y-15477476D01*
X8367571Y-15477476D01*
X8348524Y-15467952D01*
X8339000Y-15458428D01*
X8529476Y-15277476D02*
X8529476Y-15315571D01*
X8605667Y-15277476D02*
X8605667Y-15315571D01*
X8900905Y-15553667D02*
X8891381Y-15544143D01*
X8872333Y-15515571D01*
X8862810Y-15496524D01*
X8853286Y-15467952D01*
X8843762Y-15420333D01*
X8843762Y-15382238D01*
X8853286Y-15334619D01*
X8862810Y-15306048D01*
X8872333Y-15287000D01*
X8891381Y-15258428D01*
X8900905Y-15248905D01*
X9081857Y-15477476D02*
X8967571Y-15477476D01*
X9024714Y-15477476D02*
X9024714Y-15277476D01*
X9005667Y-15306048D01*
X8986619Y-15325095D01*
X8967571Y-15334619D01*
X9158048Y-15296524D02*
X9167571Y-15287000D01*
X9186619Y-15277476D01*
X9234238Y-15277476D01*
X9253286Y-15287000D01*
X9262810Y-15296524D01*
X9272333Y-15315571D01*
X9272333Y-15334619D01*
X9262810Y-15363190D01*
X9148524Y-15477476D01*
X9272333Y-15477476D01*
X9510429Y-15477476D02*
X9510429Y-15277476D01*
X9596143Y-15477476D02*
X9596143Y-15372714D01*
X9586619Y-15353667D01*
X9567571Y-15344143D01*
X9539000Y-15344143D01*
X9519952Y-15353667D01*
X9510429Y-15363190D01*
X9719952Y-15477476D02*
X9700905Y-15467952D01*
X9691381Y-15458428D01*
X9681857Y-15439381D01*
X9681857Y-15382238D01*
X9691381Y-15363190D01*
X9700905Y-15353667D01*
X9719952Y-15344143D01*
X9748524Y-15344143D01*
X9767571Y-15353667D01*
X9777095Y-15363190D01*
X9786619Y-15382238D01*
X9786619Y-15439381D01*
X9777095Y-15458428D01*
X9767571Y-15467952D01*
X9748524Y-15477476D01*
X9719952Y-15477476D01*
X9900905Y-15477476D02*
X9881857Y-15467952D01*
X9872333Y-15448905D01*
X9872333Y-15277476D01*
X10053286Y-15467952D02*
X10034238Y-15477476D01*
X9996143Y-15477476D01*
X9977095Y-15467952D01*
X9967571Y-15448905D01*
X9967571Y-15372714D01*
X9977095Y-15353667D01*
X9996143Y-15344143D01*
X10034238Y-15344143D01*
X10053286Y-15353667D01*
X10062810Y-15372714D01*
X10062810Y-15391762D01*
X9967571Y-15410809D01*
X10139000Y-15467952D02*
X10158048Y-15477476D01*
X10196143Y-15477476D01*
X10215190Y-15467952D01*
X10224714Y-15448905D01*
X10224714Y-15439381D01*
X10215190Y-15420333D01*
X10196143Y-15410809D01*
X10167571Y-15410809D01*
X10148524Y-15401286D01*
X10139000Y-15382238D01*
X10139000Y-15372714D01*
X10148524Y-15353667D01*
X10167571Y-15344143D01*
X10196143Y-15344143D01*
X10215190Y-15353667D01*
X10291381Y-15553667D02*
X10300905Y-15544143D01*
X10319952Y-15515571D01*
X10329476Y-15496524D01*
X10339000Y-15467952D01*
X10348524Y-15420333D01*
X10348524Y-15382238D01*
X10339000Y-15334619D01*
X10329476Y-15306048D01*
X10319952Y-15287000D01*
X10300905Y-15258428D01*
X10291381Y-15248905D01*
D10*
X5279000Y-15601000D02*
X5279000Y-15701000D01*
X5229000Y-15651000D02*
X5329000Y-15651000D01*
D11*
X5691381Y-15741476D02*
X5577095Y-15741476D01*
X5634238Y-15741476D02*
X5634238Y-15541476D01*
X5615190Y-15570048D01*
X5596143Y-15589095D01*
X5577095Y-15598619D01*
X5777095Y-15722428D02*
X5786619Y-15731952D01*
X5777095Y-15741476D01*
X5767571Y-15731952D01*
X5777095Y-15722428D01*
X5777095Y-15741476D01*
X5910428Y-15541476D02*
X5929476Y-15541476D01*
X5948524Y-15551000D01*
X5958048Y-15560524D01*
X5967571Y-15579571D01*
X5977095Y-15617667D01*
X5977095Y-15665286D01*
X5967571Y-15703381D01*
X5958048Y-15722428D01*
X5948524Y-15731952D01*
X5929476Y-15741476D01*
X5910428Y-15741476D01*
X5891381Y-15731952D01*
X5881857Y-15722428D01*
X5872333Y-15703381D01*
X5862809Y-15665286D01*
X5862809Y-15617667D01*
X5872333Y-15579571D01*
X5881857Y-15560524D01*
X5891381Y-15551000D01*
X5910428Y-15541476D01*
X6100905Y-15541476D02*
X6119952Y-15541476D01*
X6139000Y-15551000D01*
X6148524Y-15560524D01*
X6158048Y-15579571D01*
X6167571Y-15617667D01*
X6167571Y-15665286D01*
X6158048Y-15703381D01*
X6148524Y-15722428D01*
X6139000Y-15731952D01*
X6119952Y-15741476D01*
X6100905Y-15741476D01*
X6081857Y-15731952D01*
X6072333Y-15722428D01*
X6062809Y-15703381D01*
X6053286Y-15665286D01*
X6053286Y-15617667D01*
X6062809Y-15579571D01*
X6072333Y-15560524D01*
X6081857Y-15551000D01*
X6100905Y-15541476D01*
X6291381Y-15541476D02*
X6310428Y-15541476D01*
X6329476Y-15551000D01*
X6339000Y-15560524D01*
X6348524Y-15579571D01*
X6358048Y-15617667D01*
X6358048Y-15665286D01*
X6348524Y-15703381D01*
X6339000Y-15722428D01*
X6329476Y-15731952D01*
X6310428Y-15741476D01*
X6291381Y-15741476D01*
X6272333Y-15731952D01*
X6262809Y-15722428D01*
X6253286Y-15703381D01*
X6243762Y-15665286D01*
X6243762Y-15617667D01*
X6253286Y-15579571D01*
X6262809Y-15560524D01*
X6272333Y-15551000D01*
X6291381Y-15541476D01*
X6443762Y-15741476D02*
X6443762Y-15608143D01*
X6443762Y-15627190D02*
X6453286Y-15617667D01*
X6472333Y-15608143D01*
X6500905Y-15608143D01*
X6519952Y-15617667D01*
X6529476Y-15636714D01*
X6529476Y-15741476D01*
X6529476Y-15636714D02*
X6539000Y-15617667D01*
X6558048Y-15608143D01*
X6586619Y-15608143D01*
X6605667Y-15617667D01*
X6615190Y-15636714D01*
X6615190Y-15741476D01*
X6710428Y-15741476D02*
X6710428Y-15608143D01*
X6710428Y-15627190D02*
X6719952Y-15617667D01*
X6739000Y-15608143D01*
X6767571Y-15608143D01*
X6786619Y-15617667D01*
X6796143Y-15636714D01*
X6796143Y-15741476D01*
X6796143Y-15636714D02*
X6805667Y-15617667D01*
X6824714Y-15608143D01*
X6853286Y-15608143D01*
X6872333Y-15617667D01*
X6881857Y-15636714D01*
X6881857Y-15741476D01*
X7272333Y-15531952D02*
X7100905Y-15789095D01*
X7529476Y-15541476D02*
X7548524Y-15541476D01*
X7567571Y-15551000D01*
X7577095Y-15560524D01*
X7586619Y-15579571D01*
X7596143Y-15617667D01*
X7596143Y-15665286D01*
X7586619Y-15703381D01*
X7577095Y-15722428D01*
X7567571Y-15731952D01*
X7548524Y-15741476D01*
X7529476Y-15741476D01*
X7510428Y-15731952D01*
X7500905Y-15722428D01*
X7491381Y-15703381D01*
X7481857Y-15665286D01*
X7481857Y-15617667D01*
X7491381Y-15579571D01*
X7500905Y-15560524D01*
X7510428Y-15551000D01*
X7529476Y-15541476D01*
X7681857Y-15722428D02*
X7691381Y-15731952D01*
X7681857Y-15741476D01*
X7672333Y-15731952D01*
X7681857Y-15722428D01*
X7681857Y-15741476D01*
X7815190Y-15541476D02*
X7834238Y-15541476D01*
X7853286Y-15551000D01*
X7862809Y-15560524D01*
X7872333Y-15579571D01*
X7881857Y-15617667D01*
X7881857Y-15665286D01*
X7872333Y-15703381D01*
X7862809Y-15722428D01*
X7853286Y-15731952D01*
X7834238Y-15741476D01*
X7815190Y-15741476D01*
X7796143Y-15731952D01*
X7786619Y-15722428D01*
X7777095Y-15703381D01*
X7767571Y-15665286D01*
X7767571Y-15617667D01*
X7777095Y-15579571D01*
X7786619Y-15560524D01*
X7796143Y-15551000D01*
X7815190Y-15541476D01*
X7948524Y-15541476D02*
X8072333Y-15541476D01*
X8005667Y-15617667D01*
X8034238Y-15617667D01*
X8053286Y-15627190D01*
X8062809Y-15636714D01*
X8072333Y-15655762D01*
X8072333Y-15703381D01*
X8062809Y-15722428D01*
X8053286Y-15731952D01*
X8034238Y-15741476D01*
X7977095Y-15741476D01*
X7958048Y-15731952D01*
X7948524Y-15722428D01*
X8167571Y-15741476D02*
X8205667Y-15741476D01*
X8224714Y-15731952D01*
X8234238Y-15722428D01*
X8253286Y-15693857D01*
X8262809Y-15655762D01*
X8262809Y-15579571D01*
X8253286Y-15560524D01*
X8243762Y-15551000D01*
X8224714Y-15541476D01*
X8186619Y-15541476D01*
X8167571Y-15551000D01*
X8158048Y-15560524D01*
X8148524Y-15579571D01*
X8148524Y-15627190D01*
X8158048Y-15646238D01*
X8167571Y-15655762D01*
X8186619Y-15665286D01*
X8224714Y-15665286D01*
X8243762Y-15655762D01*
X8253286Y-15646238D01*
X8262809Y-15627190D01*
X8434238Y-15608143D02*
X8434238Y-15741476D01*
X8386619Y-15531952D02*
X8339000Y-15674809D01*
X8462810Y-15674809D01*
X8529476Y-15541476D02*
X8529476Y-15579571D01*
X8605667Y-15541476D02*
X8605667Y-15579571D01*
X8900905Y-15817667D02*
X8891381Y-15808143D01*
X8872333Y-15779571D01*
X8862810Y-15760524D01*
X8853286Y-15731952D01*
X8843762Y-15684333D01*
X8843762Y-15646238D01*
X8853286Y-15598619D01*
X8862810Y-15570048D01*
X8872333Y-15551000D01*
X8891381Y-15522428D01*
X8900905Y-15512905D01*
X9005667Y-15627190D02*
X8986619Y-15617667D01*
X8977095Y-15608143D01*
X8967571Y-15589095D01*
X8967571Y-15579571D01*
X8977095Y-15560524D01*
X8986619Y-15551000D01*
X9005667Y-15541476D01*
X9043762Y-15541476D01*
X9062810Y-15551000D01*
X9072333Y-15560524D01*
X9081857Y-15579571D01*
X9081857Y-15589095D01*
X9072333Y-15608143D01*
X9062810Y-15617667D01*
X9043762Y-15627190D01*
X9005667Y-15627190D01*
X8986619Y-15636714D01*
X8977095Y-15646238D01*
X8967571Y-15665286D01*
X8967571Y-15703381D01*
X8977095Y-15722428D01*
X8986619Y-15731952D01*
X9005667Y-15741476D01*
X9043762Y-15741476D01*
X9062810Y-15731952D01*
X9072333Y-15722428D01*
X9081857Y-15703381D01*
X9081857Y-15665286D01*
X9072333Y-15646238D01*
X9062810Y-15636714D01*
X9043762Y-15627190D01*
X9319952Y-15741476D02*
X9319952Y-15541476D01*
X9405667Y-15741476D02*
X9405667Y-15636714D01*
X9396143Y-15617667D01*
X9377095Y-15608143D01*
X9348524Y-15608143D01*
X9329476Y-15617667D01*
X9319952Y-15627190D01*
X9529476Y-15741476D02*
X9510429Y-15731952D01*
X9500905Y-15722428D01*
X9491381Y-15703381D01*
X9491381Y-15646238D01*
X9500905Y-15627190D01*
X9510429Y-15617667D01*
X9529476Y-15608143D01*
X9558048Y-15608143D01*
X9577095Y-15617667D01*
X9586619Y-15627190D01*
X9596143Y-15646238D01*
X9596143Y-15703381D01*
X9586619Y-15722428D01*
X9577095Y-15731952D01*
X9558048Y-15741476D01*
X9529476Y-15741476D01*
X9710429Y-15741476D02*
X9691381Y-15731952D01*
X9681857Y-15712905D01*
X9681857Y-15541476D01*
X9862810Y-15731952D02*
X9843762Y-15741476D01*
X9805667Y-15741476D01*
X9786619Y-15731952D01*
X9777095Y-15712905D01*
X9777095Y-15636714D01*
X9786619Y-15617667D01*
X9805667Y-15608143D01*
X9843762Y-15608143D01*
X9862810Y-15617667D01*
X9872333Y-15636714D01*
X9872333Y-15655762D01*
X9777095Y-15674809D01*
X9948524Y-15731952D02*
X9967571Y-15741476D01*
X10005667Y-15741476D01*
X10024714Y-15731952D01*
X10034238Y-15712905D01*
X10034238Y-15703381D01*
X10024714Y-15684333D01*
X10005667Y-15674809D01*
X9977095Y-15674809D01*
X9958048Y-15665286D01*
X9948524Y-15646238D01*
X9948524Y-15636714D01*
X9958048Y-15617667D01*
X9977095Y-15608143D01*
X10005667Y-15608143D01*
X10024714Y-15617667D01*
X10100905Y-15817667D02*
X10110429Y-15808143D01*
X10129476Y-15779571D01*
X10139000Y-15760524D01*
X10148524Y-15731952D01*
X10158048Y-15684333D01*
X10158048Y-15646238D01*
X10148524Y-15598619D01*
X10139000Y-15570048D01*
X10129476Y-15551000D01*
X10110429Y-15522428D01*
X10100905Y-15512905D01*
D14*
X5314063Y-15951063D02*
X5314063Y-15878937D01*
X5241937Y-15878937D01*
X5241937Y-15951063D01*
X5314063Y-15951063D01*
D11*
X5691381Y-16005476D02*
X5577095Y-16005476D01*
X5634238Y-16005476D02*
X5634238Y-15805476D01*
X5615190Y-15834048D01*
X5596143Y-15853095D01*
X5577095Y-15862619D01*
X5777095Y-15986428D02*
X5786619Y-15995952D01*
X5777095Y-16005476D01*
X5767571Y-15995952D01*
X5777095Y-15986428D01*
X5777095Y-16005476D01*
X5910428Y-15805476D02*
X5929476Y-15805476D01*
X5948524Y-15815000D01*
X5958048Y-15824524D01*
X5967571Y-15843571D01*
X5977095Y-15881667D01*
X5977095Y-15929286D01*
X5967571Y-15967381D01*
X5958048Y-15986428D01*
X5948524Y-15995952D01*
X5929476Y-16005476D01*
X5910428Y-16005476D01*
X5891381Y-15995952D01*
X5881857Y-15986428D01*
X5872333Y-15967381D01*
X5862809Y-15929286D01*
X5862809Y-15881667D01*
X5872333Y-15843571D01*
X5881857Y-15824524D01*
X5891381Y-15815000D01*
X5910428Y-15805476D01*
X6053286Y-15824524D02*
X6062809Y-15815000D01*
X6081857Y-15805476D01*
X6129476Y-15805476D01*
X6148524Y-15815000D01*
X6158048Y-15824524D01*
X6167571Y-15843571D01*
X6167571Y-15862619D01*
X6158048Y-15891190D01*
X6043762Y-16005476D01*
X6167571Y-16005476D01*
X6291381Y-15805476D02*
X6310428Y-15805476D01*
X6329476Y-15815000D01*
X6339000Y-15824524D01*
X6348524Y-15843571D01*
X6358048Y-15881667D01*
X6358048Y-15929286D01*
X6348524Y-15967381D01*
X6339000Y-15986428D01*
X6329476Y-15995952D01*
X6310428Y-16005476D01*
X6291381Y-16005476D01*
X6272333Y-15995952D01*
X6262809Y-15986428D01*
X6253286Y-15967381D01*
X6243762Y-15929286D01*
X6243762Y-15881667D01*
X6253286Y-15843571D01*
X6262809Y-15824524D01*
X6272333Y-15815000D01*
X6291381Y-15805476D01*
X6443762Y-16005476D02*
X6443762Y-15872143D01*
X6443762Y-15891190D02*
X6453286Y-15881667D01*
X6472333Y-15872143D01*
X6500905Y-15872143D01*
X6519952Y-15881667D01*
X6529476Y-15900714D01*
X6529476Y-16005476D01*
X6529476Y-15900714D02*
X6539000Y-15881667D01*
X6558048Y-15872143D01*
X6586619Y-15872143D01*
X6605667Y-15881667D01*
X6615190Y-15900714D01*
X6615190Y-16005476D01*
X6710428Y-16005476D02*
X6710428Y-15872143D01*
X6710428Y-15891190D02*
X6719952Y-15881667D01*
X6739000Y-15872143D01*
X6767571Y-15872143D01*
X6786619Y-15881667D01*
X6796143Y-15900714D01*
X6796143Y-16005476D01*
X6796143Y-15900714D02*
X6805667Y-15881667D01*
X6824714Y-15872143D01*
X6853286Y-15872143D01*
X6872333Y-15881667D01*
X6881857Y-15900714D01*
X6881857Y-16005476D01*
X7272333Y-15795952D02*
X7100905Y-16053095D01*
X7529476Y-15805476D02*
X7548524Y-15805476D01*
X7567571Y-15815000D01*
X7577095Y-15824524D01*
X7586619Y-15843571D01*
X7596143Y-15881667D01*
X7596143Y-15929286D01*
X7586619Y-15967381D01*
X7577095Y-15986428D01*
X7567571Y-15995952D01*
X7548524Y-16005476D01*
X7529476Y-16005476D01*
X7510428Y-15995952D01*
X7500905Y-15986428D01*
X7491381Y-15967381D01*
X7481857Y-15929286D01*
X7481857Y-15881667D01*
X7491381Y-15843571D01*
X7500905Y-15824524D01*
X7510428Y-15815000D01*
X7529476Y-15805476D01*
X7681857Y-15986428D02*
X7691381Y-15995952D01*
X7681857Y-16005476D01*
X7672333Y-15995952D01*
X7681857Y-15986428D01*
X7681857Y-16005476D01*
X7815190Y-15805476D02*
X7834238Y-15805476D01*
X7853286Y-15815000D01*
X7862809Y-15824524D01*
X7872333Y-15843571D01*
X7881857Y-15881667D01*
X7881857Y-15929286D01*
X7872333Y-15967381D01*
X7862809Y-15986428D01*
X7853286Y-15995952D01*
X7834238Y-16005476D01*
X7815190Y-16005476D01*
X7796143Y-15995952D01*
X7786619Y-15986428D01*
X7777095Y-15967381D01*
X7767571Y-15929286D01*
X7767571Y-15881667D01*
X7777095Y-15843571D01*
X7786619Y-15824524D01*
X7796143Y-15815000D01*
X7815190Y-15805476D01*
X8053286Y-15872143D02*
X8053286Y-16005476D01*
X8005667Y-15795952D02*
X7958048Y-15938809D01*
X8081857Y-15938809D01*
X8196143Y-15805476D02*
X8215190Y-15805476D01*
X8234238Y-15815000D01*
X8243762Y-15824524D01*
X8253286Y-15843571D01*
X8262809Y-15881667D01*
X8262809Y-15929286D01*
X8253286Y-15967381D01*
X8243762Y-15986428D01*
X8234238Y-15995952D01*
X8215190Y-16005476D01*
X8196143Y-16005476D01*
X8177095Y-15995952D01*
X8167571Y-15986428D01*
X8158048Y-15967381D01*
X8148524Y-15929286D01*
X8148524Y-15881667D01*
X8158048Y-15843571D01*
X8167571Y-15824524D01*
X8177095Y-15815000D01*
X8196143Y-15805476D01*
X8339000Y-15824524D02*
X8348524Y-15815000D01*
X8367571Y-15805476D01*
X8415190Y-15805476D01*
X8434238Y-15815000D01*
X8443762Y-15824524D01*
X8453286Y-15843571D01*
X8453286Y-15862619D01*
X8443762Y-15891190D01*
X8329476Y-16005476D01*
X8453286Y-16005476D01*
X8529476Y-15805476D02*
X8529476Y-15843571D01*
X8605667Y-15805476D02*
X8605667Y-15843571D01*
X8900905Y-16081667D02*
X8891381Y-16072143D01*
X8872333Y-16043571D01*
X8862810Y-16024524D01*
X8853286Y-15995952D01*
X8843762Y-15948333D01*
X8843762Y-15910238D01*
X8853286Y-15862619D01*
X8862810Y-15834048D01*
X8872333Y-15815000D01*
X8891381Y-15786428D01*
X8900905Y-15776905D01*
X8958048Y-15805476D02*
X9091381Y-15805476D01*
X9005667Y-16005476D01*
X9253286Y-15805476D02*
X9215190Y-15805476D01*
X9196143Y-15815000D01*
X9186619Y-15824524D01*
X9167571Y-15853095D01*
X9158048Y-15891190D01*
X9158048Y-15967381D01*
X9167571Y-15986428D01*
X9177095Y-15995952D01*
X9196143Y-16005476D01*
X9234238Y-16005476D01*
X9253286Y-15995952D01*
X9262810Y-15986428D01*
X9272333Y-15967381D01*
X9272333Y-15919762D01*
X9262810Y-15900714D01*
X9253286Y-15891190D01*
X9234238Y-15881667D01*
X9196143Y-15881667D01*
X9177095Y-15891190D01*
X9167571Y-15900714D01*
X9158048Y-15919762D01*
X9510429Y-16005476D02*
X9510429Y-15805476D01*
X9596143Y-16005476D02*
X9596143Y-15900714D01*
X9586619Y-15881667D01*
X9567571Y-15872143D01*
X9539000Y-15872143D01*
X9519952Y-15881667D01*
X9510429Y-15891190D01*
X9719952Y-16005476D02*
X9700905Y-15995952D01*
X9691381Y-15986428D01*
X9681857Y-15967381D01*
X9681857Y-15910238D01*
X9691381Y-15891190D01*
X9700905Y-15881667D01*
X9719952Y-15872143D01*
X9748524Y-15872143D01*
X9767571Y-15881667D01*
X9777095Y-15891190D01*
X9786619Y-15910238D01*
X9786619Y-15967381D01*
X9777095Y-15986428D01*
X9767571Y-15995952D01*
X9748524Y-16005476D01*
X9719952Y-16005476D01*
X9900905Y-16005476D02*
X9881857Y-15995952D01*
X9872333Y-15976905D01*
X9872333Y-15805476D01*
X10053286Y-15995952D02*
X10034238Y-16005476D01*
X9996143Y-16005476D01*
X9977095Y-15995952D01*
X9967571Y-15976905D01*
X9967571Y-15900714D01*
X9977095Y-15881667D01*
X9996143Y-15872143D01*
X10034238Y-15872143D01*
X10053286Y-15881667D01*
X10062810Y-15900714D01*
X10062810Y-15919762D01*
X9967571Y-15938809D01*
X10139000Y-15995952D02*
X10158048Y-16005476D01*
X10196143Y-16005476D01*
X10215190Y-15995952D01*
X10224714Y-15976905D01*
X10224714Y-15967381D01*
X10215190Y-15948333D01*
X10196143Y-15938809D01*
X10167571Y-15938809D01*
X10148524Y-15929286D01*
X10139000Y-15910238D01*
X10139000Y-15900714D01*
X10148524Y-15881667D01*
X10167571Y-15872143D01*
X10196143Y-15872143D01*
X10215190Y-15881667D01*
X10291381Y-16081667D02*
X10300905Y-16072143D01*
X10319952Y-16043571D01*
X10329476Y-16024524D01*
X10339000Y-15995952D01*
X10348524Y-15948333D01*
X10348524Y-15910238D01*
X10339000Y-15862619D01*
X10329476Y-15834048D01*
X10319952Y-15815000D01*
X10300905Y-15786428D01*
X10291381Y-15776905D01*
D15*
X5275500Y-16232500D02*
X5329000Y-16179000D01*
X5275500Y-16125500D01*
X5222000Y-16179000D01*
X5275500Y-16232500D01*
D11*
X5691381Y-16269476D02*
X5577095Y-16269476D01*
X5634238Y-16269476D02*
X5634238Y-16069476D01*
X5615190Y-16098048D01*
X5596143Y-16117095D01*
X5577095Y-16126619D01*
X5777095Y-16250428D02*
X5786619Y-16259952D01*
X5777095Y-16269476D01*
X5767571Y-16259952D01*
X5777095Y-16250428D01*
X5777095Y-16269476D01*
X5910428Y-16069476D02*
X5929476Y-16069476D01*
X5948524Y-16079000D01*
X5958048Y-16088524D01*
X5967571Y-16107571D01*
X5977095Y-16145667D01*
X5977095Y-16193286D01*
X5967571Y-16231381D01*
X5958048Y-16250428D01*
X5948524Y-16259952D01*
X5929476Y-16269476D01*
X5910428Y-16269476D01*
X5891381Y-16259952D01*
X5881857Y-16250428D01*
X5872333Y-16231381D01*
X5862809Y-16193286D01*
X5862809Y-16145667D01*
X5872333Y-16107571D01*
X5881857Y-16088524D01*
X5891381Y-16079000D01*
X5910428Y-16069476D01*
X6043762Y-16069476D02*
X6177095Y-16069476D01*
X6091381Y-16269476D01*
X6291381Y-16069476D02*
X6310428Y-16069476D01*
X6329476Y-16079000D01*
X6339000Y-16088524D01*
X6348524Y-16107571D01*
X6358048Y-16145667D01*
X6358048Y-16193286D01*
X6348524Y-16231381D01*
X6339000Y-16250428D01*
X6329476Y-16259952D01*
X6310428Y-16269476D01*
X6291381Y-16269476D01*
X6272333Y-16259952D01*
X6262809Y-16250428D01*
X6253286Y-16231381D01*
X6243762Y-16193286D01*
X6243762Y-16145667D01*
X6253286Y-16107571D01*
X6262809Y-16088524D01*
X6272333Y-16079000D01*
X6291381Y-16069476D01*
X6443762Y-16269476D02*
X6443762Y-16136143D01*
X6443762Y-16155190D02*
X6453286Y-16145667D01*
X6472333Y-16136143D01*
X6500905Y-16136143D01*
X6519952Y-16145667D01*
X6529476Y-16164714D01*
X6529476Y-16269476D01*
X6529476Y-16164714D02*
X6539000Y-16145667D01*
X6558048Y-16136143D01*
X6586619Y-16136143D01*
X6605667Y-16145667D01*
X6615190Y-16164714D01*
X6615190Y-16269476D01*
X6710428Y-16269476D02*
X6710428Y-16136143D01*
X6710428Y-16155190D02*
X6719952Y-16145667D01*
X6739000Y-16136143D01*
X6767571Y-16136143D01*
X6786619Y-16145667D01*
X6796143Y-16164714D01*
X6796143Y-16269476D01*
X6796143Y-16164714D02*
X6805667Y-16145667D01*
X6824714Y-16136143D01*
X6853286Y-16136143D01*
X6872333Y-16145667D01*
X6881857Y-16164714D01*
X6881857Y-16269476D01*
X7272333Y-16059952D02*
X7100905Y-16317095D01*
X7529476Y-16069476D02*
X7548524Y-16069476D01*
X7567571Y-16079000D01*
X7577095Y-16088524D01*
X7586619Y-16107571D01*
X7596143Y-16145667D01*
X7596143Y-16193286D01*
X7586619Y-16231381D01*
X7577095Y-16250428D01*
X7567571Y-16259952D01*
X7548524Y-16269476D01*
X7529476Y-16269476D01*
X7510428Y-16259952D01*
X7500905Y-16250428D01*
X7491381Y-16231381D01*
X7481857Y-16193286D01*
X7481857Y-16145667D01*
X7491381Y-16107571D01*
X7500905Y-16088524D01*
X7510428Y-16079000D01*
X7529476Y-16069476D01*
X7681857Y-16250428D02*
X7691381Y-16259952D01*
X7681857Y-16269476D01*
X7672333Y-16259952D01*
X7681857Y-16250428D01*
X7681857Y-16269476D01*
X7815190Y-16069476D02*
X7834238Y-16069476D01*
X7853286Y-16079000D01*
X7862809Y-16088524D01*
X7872333Y-16107571D01*
X7881857Y-16145667D01*
X7881857Y-16193286D01*
X7872333Y-16231381D01*
X7862809Y-16250428D01*
X7853286Y-16259952D01*
X7834238Y-16269476D01*
X7815190Y-16269476D01*
X7796143Y-16259952D01*
X7786619Y-16250428D01*
X7777095Y-16231381D01*
X7767571Y-16193286D01*
X7767571Y-16145667D01*
X7777095Y-16107571D01*
X7786619Y-16088524D01*
X7796143Y-16079000D01*
X7815190Y-16069476D01*
X8053286Y-16136143D02*
X8053286Y-16269476D01*
X8005667Y-16059952D02*
X7958048Y-16202809D01*
X8081857Y-16202809D01*
X8148524Y-16088524D02*
X8158048Y-16079000D01*
X8177095Y-16069476D01*
X8224714Y-16069476D01*
X8243762Y-16079000D01*
X8253286Y-16088524D01*
X8262809Y-16107571D01*
X8262809Y-16126619D01*
X8253286Y-16155190D01*
X8139000Y-16269476D01*
X8262809Y-16269476D01*
X8453286Y-16269476D02*
X8339000Y-16269476D01*
X8396143Y-16269476D02*
X8396143Y-16069476D01*
X8377095Y-16098048D01*
X8358048Y-16117095D01*
X8339000Y-16126619D01*
X8529476Y-16069476D02*
X8529476Y-16107571D01*
X8605667Y-16069476D02*
X8605667Y-16107571D01*
X8900905Y-16345667D02*
X8891381Y-16336143D01*
X8872333Y-16307571D01*
X8862810Y-16288524D01*
X8853286Y-16259952D01*
X8843762Y-16212333D01*
X8843762Y-16174238D01*
X8853286Y-16126619D01*
X8862810Y-16098048D01*
X8872333Y-16079000D01*
X8891381Y-16050428D01*
X8900905Y-16040905D01*
X8958048Y-16069476D02*
X9081857Y-16069476D01*
X9015190Y-16145667D01*
X9043762Y-16145667D01*
X9062810Y-16155190D01*
X9072333Y-16164714D01*
X9081857Y-16183762D01*
X9081857Y-16231381D01*
X9072333Y-16250428D01*
X9062810Y-16259952D01*
X9043762Y-16269476D01*
X8986619Y-16269476D01*
X8967571Y-16259952D01*
X8958048Y-16250428D01*
X9158048Y-16088524D02*
X9167571Y-16079000D01*
X9186619Y-16069476D01*
X9234238Y-16069476D01*
X9253286Y-16079000D01*
X9262810Y-16088524D01*
X9272333Y-16107571D01*
X9272333Y-16126619D01*
X9262810Y-16155190D01*
X9148524Y-16269476D01*
X9272333Y-16269476D01*
X9510429Y-16269476D02*
X9510429Y-16069476D01*
X9596143Y-16269476D02*
X9596143Y-16164714D01*
X9586619Y-16145667D01*
X9567571Y-16136143D01*
X9539000Y-16136143D01*
X9519952Y-16145667D01*
X9510429Y-16155190D01*
X9719952Y-16269476D02*
X9700905Y-16259952D01*
X9691381Y-16250428D01*
X9681857Y-16231381D01*
X9681857Y-16174238D01*
X9691381Y-16155190D01*
X9700905Y-16145667D01*
X9719952Y-16136143D01*
X9748524Y-16136143D01*
X9767571Y-16145667D01*
X9777095Y-16155190D01*
X9786619Y-16174238D01*
X9786619Y-16231381D01*
X9777095Y-16250428D01*
X9767571Y-16259952D01*
X9748524Y-16269476D01*
X9719952Y-16269476D01*
X9900905Y-16269476D02*
X9881857Y-16259952D01*
X9872333Y-16240905D01*
X9872333Y-16069476D01*
X10053286Y-16259952D02*
X10034238Y-16269476D01*
X9996143Y-16269476D01*
X9977095Y-16259952D01*
X9967571Y-16240905D01*
X9967571Y-16164714D01*
X9977095Y-16145667D01*
X9996143Y-16136143D01*
X10034238Y-16136143D01*
X10053286Y-16145667D01*
X10062810Y-16164714D01*
X10062810Y-16183762D01*
X9967571Y-16202809D01*
X10139000Y-16259952D02*
X10158048Y-16269476D01*
X10196143Y-16269476D01*
X10215190Y-16259952D01*
X10224714Y-16240905D01*
X10224714Y-16231381D01*
X10215190Y-16212333D01*
X10196143Y-16202809D01*
X10167571Y-16202809D01*
X10148524Y-16193286D01*
X10139000Y-16174238D01*
X10139000Y-16164714D01*
X10148524Y-16145667D01*
X10167571Y-16136143D01*
X10196143Y-16136143D01*
X10215190Y-16145667D01*
X10291381Y-16345667D02*
X10300905Y-16336143D01*
X10319952Y-16307571D01*
X10329476Y-16288524D01*
X10339000Y-16259952D01*
X10348524Y-16212333D01*
X10348524Y-16174238D01*
X10339000Y-16126619D01*
X10329476Y-16098048D01*
X10319952Y-16079000D01*
X10300905Y-16050428D01*
X10291381Y-16040905D01*
D16*
X5209000Y-16383000D02*
X5329000Y-16503000D01*
X5329000Y-16383000D02*
X5209000Y-16503000D01*
X5329000Y-16443000D02*
G75*
G03*
X5329000Y-16443000I-60000J0D01*
G01*
D11*
X5691381Y-16533476D02*
X5577095Y-16533476D01*
X5634238Y-16533476D02*
X5634238Y-16333476D01*
X5615190Y-16362048D01*
X5596143Y-16381095D01*
X5577095Y-16390619D01*
X5777095Y-16514428D02*
X5786619Y-16523952D01*
X5777095Y-16533476D01*
X5767571Y-16523952D01*
X5777095Y-16514428D01*
X5777095Y-16533476D01*
X5862809Y-16352524D02*
X5872333Y-16343000D01*
X5891381Y-16333476D01*
X5939000Y-16333476D01*
X5958048Y-16343000D01*
X5967571Y-16352524D01*
X5977095Y-16371571D01*
X5977095Y-16390619D01*
X5967571Y-16419190D01*
X5853286Y-16533476D01*
X5977095Y-16533476D01*
X6100905Y-16333476D02*
X6119952Y-16333476D01*
X6139000Y-16343000D01*
X6148524Y-16352524D01*
X6158048Y-16371571D01*
X6167571Y-16409667D01*
X6167571Y-16457286D01*
X6158048Y-16495381D01*
X6148524Y-16514428D01*
X6139000Y-16523952D01*
X6119952Y-16533476D01*
X6100905Y-16533476D01*
X6081857Y-16523952D01*
X6072333Y-16514428D01*
X6062809Y-16495381D01*
X6053286Y-16457286D01*
X6053286Y-16409667D01*
X6062809Y-16371571D01*
X6072333Y-16352524D01*
X6081857Y-16343000D01*
X6100905Y-16333476D01*
X6291381Y-16333476D02*
X6310428Y-16333476D01*
X6329476Y-16343000D01*
X6339000Y-16352524D01*
X6348524Y-16371571D01*
X6358048Y-16409667D01*
X6358048Y-16457286D01*
X6348524Y-16495381D01*
X6339000Y-16514428D01*
X6329476Y-16523952D01*
X6310428Y-16533476D01*
X6291381Y-16533476D01*
X6272333Y-16523952D01*
X6262809Y-16514428D01*
X6253286Y-16495381D01*
X6243762Y-16457286D01*
X6243762Y-16409667D01*
X6253286Y-16371571D01*
X6262809Y-16352524D01*
X6272333Y-16343000D01*
X6291381Y-16333476D01*
X6443762Y-16533476D02*
X6443762Y-16400143D01*
X6443762Y-16419190D02*
X6453286Y-16409667D01*
X6472333Y-16400143D01*
X6500905Y-16400143D01*
X6519952Y-16409667D01*
X6529476Y-16428714D01*
X6529476Y-16533476D01*
X6529476Y-16428714D02*
X6539000Y-16409667D01*
X6558048Y-16400143D01*
X6586619Y-16400143D01*
X6605667Y-16409667D01*
X6615190Y-16428714D01*
X6615190Y-16533476D01*
X6710428Y-16533476D02*
X6710428Y-16400143D01*
X6710428Y-16419190D02*
X6719952Y-16409667D01*
X6739000Y-16400143D01*
X6767571Y-16400143D01*
X6786619Y-16409667D01*
X6796143Y-16428714D01*
X6796143Y-16533476D01*
X6796143Y-16428714D02*
X6805667Y-16409667D01*
X6824714Y-16400143D01*
X6853286Y-16400143D01*
X6872333Y-16409667D01*
X6881857Y-16428714D01*
X6881857Y-16533476D01*
X7272333Y-16323952D02*
X7100905Y-16581095D01*
X7529476Y-16333476D02*
X7548524Y-16333476D01*
X7567571Y-16343000D01*
X7577095Y-16352524D01*
X7586619Y-16371571D01*
X7596143Y-16409667D01*
X7596143Y-16457286D01*
X7586619Y-16495381D01*
X7577095Y-16514428D01*
X7567571Y-16523952D01*
X7548524Y-16533476D01*
X7529476Y-16533476D01*
X7510428Y-16523952D01*
X7500905Y-16514428D01*
X7491381Y-16495381D01*
X7481857Y-16457286D01*
X7481857Y-16409667D01*
X7491381Y-16371571D01*
X7500905Y-16352524D01*
X7510428Y-16343000D01*
X7529476Y-16333476D01*
X7681857Y-16514428D02*
X7691381Y-16523952D01*
X7681857Y-16533476D01*
X7672333Y-16523952D01*
X7681857Y-16514428D01*
X7681857Y-16533476D01*
X7815190Y-16333476D02*
X7834238Y-16333476D01*
X7853286Y-16343000D01*
X7862809Y-16352524D01*
X7872333Y-16371571D01*
X7881857Y-16409667D01*
X7881857Y-16457286D01*
X7872333Y-16495381D01*
X7862809Y-16514428D01*
X7853286Y-16523952D01*
X7834238Y-16533476D01*
X7815190Y-16533476D01*
X7796143Y-16523952D01*
X7786619Y-16514428D01*
X7777095Y-16495381D01*
X7767571Y-16457286D01*
X7767571Y-16409667D01*
X7777095Y-16371571D01*
X7786619Y-16352524D01*
X7796143Y-16343000D01*
X7815190Y-16333476D01*
X8053286Y-16400143D02*
X8053286Y-16533476D01*
X8005667Y-16323952D02*
X7958048Y-16466809D01*
X8081857Y-16466809D01*
X8139000Y-16333476D02*
X8272333Y-16333476D01*
X8186619Y-16533476D01*
X8339000Y-16352524D02*
X8348524Y-16343000D01*
X8367571Y-16333476D01*
X8415190Y-16333476D01*
X8434238Y-16343000D01*
X8443762Y-16352524D01*
X8453286Y-16371571D01*
X8453286Y-16390619D01*
X8443762Y-16419190D01*
X8329476Y-16533476D01*
X8453286Y-16533476D01*
X8529476Y-16333476D02*
X8529476Y-16371571D01*
X8605667Y-16333476D02*
X8605667Y-16371571D01*
X8900905Y-16609667D02*
X8891381Y-16600143D01*
X8872333Y-16571571D01*
X8862810Y-16552524D01*
X8853286Y-16523952D01*
X8843762Y-16476333D01*
X8843762Y-16438238D01*
X8853286Y-16390619D01*
X8862810Y-16362048D01*
X8872333Y-16343000D01*
X8891381Y-16314428D01*
X8900905Y-16304905D01*
X9081857Y-16533476D02*
X8967571Y-16533476D01*
X9024714Y-16533476D02*
X9024714Y-16333476D01*
X9005667Y-16362048D01*
X8986619Y-16381095D01*
X8967571Y-16390619D01*
X9158048Y-16352524D02*
X9167571Y-16343000D01*
X9186619Y-16333476D01*
X9234238Y-16333476D01*
X9253286Y-16343000D01*
X9262810Y-16352524D01*
X9272333Y-16371571D01*
X9272333Y-16390619D01*
X9262810Y-16419190D01*
X9148524Y-16533476D01*
X9272333Y-16533476D01*
X9510429Y-16533476D02*
X9510429Y-16333476D01*
X9596143Y-16533476D02*
X9596143Y-16428714D01*
X9586619Y-16409667D01*
X9567571Y-16400143D01*
X9539000Y-16400143D01*
X9519952Y-16409667D01*
X9510429Y-16419190D01*
X9719952Y-16533476D02*
X9700905Y-16523952D01*
X9691381Y-16514428D01*
X9681857Y-16495381D01*
X9681857Y-16438238D01*
X9691381Y-16419190D01*
X9700905Y-16409667D01*
X9719952Y-16400143D01*
X9748524Y-16400143D01*
X9767571Y-16409667D01*
X9777095Y-16419190D01*
X9786619Y-16438238D01*
X9786619Y-16495381D01*
X9777095Y-16514428D01*
X9767571Y-16523952D01*
X9748524Y-16533476D01*
X9719952Y-16533476D01*
X9900905Y-16533476D02*
X9881857Y-16523952D01*
X9872333Y-16504905D01*
X9872333Y-16333476D01*
X10053286Y-16523952D02*
X10034238Y-16533476D01*
X9996143Y-16533476D01*
X9977095Y-16523952D01*
X9967571Y-16504905D01*
X9967571Y-16428714D01*
X9977095Y-16409667D01*
X9996143Y-16400143D01*
X10034238Y-16400143D01*
X10053286Y-16409667D01*
X10062810Y-16428714D01*
X10062810Y-16447762D01*
X9967571Y-16466809D01*
X10139000Y-16523952D02*
X10158048Y-16533476D01*
X10196143Y-16533476D01*
X10215190Y-16523952D01*
X10224714Y-16504905D01*
X10224714Y-16495381D01*
X10215190Y-16476333D01*
X10196143Y-16466809D01*
X10167571Y-16466809D01*
X10148524Y-16457286D01*
X10139000Y-16438238D01*
X10139000Y-16428714D01*
X10148524Y-16409667D01*
X10167571Y-16400143D01*
X10196143Y-16400143D01*
X10215190Y-16409667D01*
X10291381Y-16609667D02*
X10300905Y-16600143D01*
X10319952Y-16571571D01*
X10329476Y-16552524D01*
X10339000Y-16523952D01*
X10348524Y-16476333D01*
X10348524Y-16438238D01*
X10339000Y-16390619D01*
X10329476Y-16362048D01*
X10319952Y-16343000D01*
X10300905Y-16314428D01*
X10291381Y-16304905D01*
M02*
