G04 #@! TF.GenerationSoftware,KiCad,Pcbnew,(6.0.11)*
G04 #@! TF.CreationDate,2023-03-04T13:29:58-06:00*
G04 #@! TF.ProjectId,STM,53544d2e-6b69-4636-9164-5f7063625858,rev?*
G04 #@! TF.SameCoordinates,Original*
G04 #@! TF.FileFunction,Legend,Bot*
G04 #@! TF.FilePolarity,Positive*
%FSLAX46Y46*%
G04 Gerber Fmt 4.6, Leading zero omitted, Abs format (unit mm)*
G04 Created by KiCad (PCBNEW (6.0.11)) date 2023-03-04 13:29:58*
%MOMM*%
%LPD*%
G01*
G04 APERTURE LIST*
%ADD10R,1.530000X1.530000*%
%ADD11C,1.530000*%
%ADD12R,1.605000X1.605000*%
%ADD13C,1.605000*%
%ADD14C,3.000000*%
%ADD15R,2.600000X2.600000*%
%ADD16C,2.600000*%
%ADD17C,3.200000*%
%ADD18R,1.700000X1.700000*%
%ADD19C,1.700000*%
%ADD20R,1.600000X1.600000*%
%ADD21O,1.600000X1.600000*%
G04 APERTURE END LIST*
%LPC*%
D10*
X133350000Y-90820000D03*
D11*
X133350000Y-136540000D03*
X130810000Y-90820000D03*
X133350000Y-93360000D03*
X130810000Y-93360000D03*
X133350000Y-95900000D03*
X130810000Y-95900000D03*
X133350000Y-98440000D03*
X130810000Y-98440000D03*
X133350000Y-100980000D03*
X130810000Y-100980000D03*
X133350000Y-103520000D03*
X130810000Y-103520000D03*
X133350000Y-106060000D03*
X130810000Y-106060000D03*
X133350000Y-108600000D03*
X130810000Y-108600000D03*
X133350000Y-111140000D03*
X130810000Y-111140000D03*
X133350000Y-113680000D03*
X130810000Y-113680000D03*
X133350000Y-116220000D03*
X130810000Y-116220000D03*
X133350000Y-118760000D03*
X130810000Y-118760000D03*
X133350000Y-121300000D03*
X130810000Y-121300000D03*
X133350000Y-123840000D03*
X130810000Y-123840000D03*
X133350000Y-126380000D03*
X130810000Y-126380000D03*
X133350000Y-128920000D03*
X130810000Y-128920000D03*
X133350000Y-131460000D03*
X130810000Y-131460000D03*
X133350000Y-134000000D03*
X130810000Y-134000000D03*
X130810000Y-136540000D03*
D10*
X72390000Y-90820000D03*
D11*
X72390000Y-136540000D03*
X69850000Y-90820000D03*
X72390000Y-93360000D03*
X69850000Y-93360000D03*
X72390000Y-95900000D03*
X69850000Y-95900000D03*
X72390000Y-98440000D03*
X69850000Y-98440000D03*
X72390000Y-100980000D03*
X69850000Y-100980000D03*
X72390000Y-103520000D03*
X69850000Y-103520000D03*
X72390000Y-106060000D03*
X69850000Y-106060000D03*
X72390000Y-108600000D03*
X69850000Y-108600000D03*
X72390000Y-111140000D03*
X69850000Y-111140000D03*
X72390000Y-113680000D03*
X69850000Y-113680000D03*
X72390000Y-116220000D03*
X69850000Y-116220000D03*
X72390000Y-118760000D03*
X69850000Y-118760000D03*
X72390000Y-121300000D03*
X69850000Y-121300000D03*
X72390000Y-123840000D03*
X69850000Y-123840000D03*
X72390000Y-126380000D03*
X69850000Y-126380000D03*
X72390000Y-128920000D03*
X69850000Y-128920000D03*
X72390000Y-131460000D03*
X69850000Y-131460000D03*
X72390000Y-134000000D03*
X69850000Y-134000000D03*
X69850000Y-136540000D03*
D12*
X125730000Y-100980000D03*
D13*
X125730000Y-103520000D03*
X125730000Y-106060000D03*
X125730000Y-108600000D03*
X125730000Y-111140000D03*
X125730000Y-113680000D03*
X125730000Y-116220000D03*
X125730000Y-118760000D03*
D12*
X77470000Y-136540000D03*
D13*
X77470000Y-134000000D03*
X77470000Y-131460000D03*
X77470000Y-128920000D03*
X77470000Y-126380000D03*
X77470000Y-123840000D03*
X77470000Y-121300000D03*
X77470000Y-118760000D03*
D12*
X125730000Y-123840000D03*
D13*
X125730000Y-126380000D03*
X125730000Y-128920000D03*
X125730000Y-131460000D03*
X125730000Y-134000000D03*
X125730000Y-136540000D03*
D12*
X77470000Y-114700000D03*
D13*
X77470000Y-112160000D03*
X77470000Y-109620000D03*
X77470000Y-107080000D03*
X77470000Y-104540000D03*
X77470000Y-102000000D03*
X77470000Y-99460000D03*
X77470000Y-96920000D03*
X77470000Y-94380000D03*
X77470000Y-91840000D03*
D14*
X92710000Y-139080000D03*
X77470000Y-88280000D03*
X125730000Y-87010000D03*
D15*
X59690000Y-69850000D03*
D16*
X59690000Y-74850000D03*
X59690000Y-79850000D03*
X59690000Y-84850000D03*
X59690000Y-89850000D03*
X59690000Y-94850000D03*
X59690000Y-99850000D03*
X59690000Y-104850000D03*
X59690000Y-109850000D03*
X59690000Y-114850000D03*
X59690000Y-119850000D03*
X59690000Y-124850000D03*
X59690000Y-129850000D03*
D17*
X58420000Y-139700000D03*
X152400000Y-60960000D03*
D18*
X141695000Y-97790000D03*
D19*
X141695000Y-95250000D03*
X144235000Y-97790000D03*
X144235000Y-95250000D03*
X146775000Y-97790000D03*
X146775000Y-95250000D03*
X149315000Y-97790000D03*
X149315000Y-95250000D03*
D20*
X150120000Y-133365000D03*
D21*
X150120000Y-130825000D03*
X150120000Y-128285000D03*
X150120000Y-125745000D03*
X150120000Y-123205000D03*
X150120000Y-120665000D03*
X150120000Y-118125000D03*
X150120000Y-115585000D03*
X150120000Y-113045000D03*
X150120000Y-110505000D03*
X150120000Y-107965000D03*
X150120000Y-105425000D03*
D17*
X59080000Y-60960000D03*
X152400000Y-139700000D03*
M02*
