G04 #@! TF.GenerationSoftware,KiCad,Pcbnew,(6.0.11)*
G04 #@! TF.CreationDate,2023-03-02T23:13:04-06:00*
G04 #@! TF.ProjectId,STM,53544d2e-6b69-4636-9164-5f7063625858,rev?*
G04 #@! TF.SameCoordinates,Original*
G04 #@! TF.FileFunction,Legend,Bot*
G04 #@! TF.FilePolarity,Positive*
%FSLAX46Y46*%
G04 Gerber Fmt 4.6, Leading zero omitted, Abs format (unit mm)*
G04 Created by KiCad (PCBNEW (6.0.11)) date 2023-03-02 23:13:04*
%MOMM*%
%LPD*%
G01*
G04 APERTURE LIST*
%ADD10C,1.530000*%
%ADD11R,1.530000X1.530000*%
%ADD12C,1.605000*%
%ADD13R,1.605000X1.605000*%
%ADD14C,3.000000*%
%ADD15C,3.200000*%
%ADD16R,1.700000X1.700000*%
%ADD17C,1.700000*%
%ADD18R,1.600000X1.600000*%
%ADD19O,1.600000X1.600000*%
%ADD20R,2.400000X2.400000*%
%ADD21C,2.400000*%
G04 APERTURE END LIST*
%LPC*%
D10*
X67310000Y-136540000D03*
X69850000Y-136540000D03*
X67310000Y-134000000D03*
X69850000Y-134000000D03*
X67310000Y-131460000D03*
X69850000Y-131460000D03*
X67310000Y-128920000D03*
X69850000Y-128920000D03*
X67310000Y-126380000D03*
X69850000Y-126380000D03*
X67310000Y-123840000D03*
X69850000Y-123840000D03*
X67310000Y-121300000D03*
X69850000Y-121300000D03*
X67310000Y-118760000D03*
X69850000Y-118760000D03*
X67310000Y-116220000D03*
X69850000Y-116220000D03*
X67310000Y-113680000D03*
X69850000Y-113680000D03*
X67310000Y-111140000D03*
X69850000Y-111140000D03*
X67310000Y-108600000D03*
X69850000Y-108600000D03*
X67310000Y-106060000D03*
X69850000Y-106060000D03*
X67310000Y-103520000D03*
X69850000Y-103520000D03*
X67310000Y-100980000D03*
X69850000Y-100980000D03*
X67310000Y-98440000D03*
X69850000Y-98440000D03*
X67310000Y-95900000D03*
X69850000Y-95900000D03*
X67310000Y-93360000D03*
X69850000Y-93360000D03*
X67310000Y-90820000D03*
D11*
X69850000Y-90820000D03*
D12*
X74930000Y-118760000D03*
X74930000Y-121300000D03*
X74930000Y-123840000D03*
X74930000Y-126380000D03*
X74930000Y-128920000D03*
X74930000Y-131460000D03*
X74930000Y-134000000D03*
D13*
X74930000Y-136540000D03*
D12*
X123190000Y-136540000D03*
X123190000Y-134000000D03*
X123190000Y-131460000D03*
X123190000Y-128920000D03*
X123190000Y-126380000D03*
D13*
X123190000Y-123840000D03*
D10*
X128270000Y-136540000D03*
X130810000Y-136540000D03*
X128270000Y-134000000D03*
X130810000Y-134000000D03*
X128270000Y-131460000D03*
X130810000Y-131460000D03*
X128270000Y-128920000D03*
X130810000Y-128920000D03*
X128270000Y-126380000D03*
X130810000Y-126380000D03*
X128270000Y-123840000D03*
X130810000Y-123840000D03*
X128270000Y-121300000D03*
X130810000Y-121300000D03*
X128270000Y-118760000D03*
X130810000Y-118760000D03*
X128270000Y-116220000D03*
X130810000Y-116220000D03*
X128270000Y-113680000D03*
X130810000Y-113680000D03*
X128270000Y-111140000D03*
X130810000Y-111140000D03*
X128270000Y-108600000D03*
X130810000Y-108600000D03*
X128270000Y-106060000D03*
X130810000Y-106060000D03*
X128270000Y-103520000D03*
X130810000Y-103520000D03*
X128270000Y-100980000D03*
X130810000Y-100980000D03*
X128270000Y-98440000D03*
X130810000Y-98440000D03*
X128270000Y-95900000D03*
X130810000Y-95900000D03*
X128270000Y-93360000D03*
X130810000Y-93360000D03*
X128270000Y-90820000D03*
D11*
X130810000Y-90820000D03*
D12*
X123190000Y-118760000D03*
X123190000Y-116220000D03*
X123190000Y-113680000D03*
X123190000Y-111140000D03*
X123190000Y-108600000D03*
X123190000Y-106060000D03*
X123190000Y-103520000D03*
D13*
X123190000Y-100980000D03*
D12*
X74930000Y-91840000D03*
X74930000Y-94380000D03*
X74930000Y-96920000D03*
X74930000Y-99460000D03*
X74930000Y-102000000D03*
X74930000Y-104540000D03*
X74930000Y-107080000D03*
X74930000Y-109620000D03*
X74930000Y-112160000D03*
D13*
X74930000Y-114700000D03*
D14*
X90170000Y-139080000D03*
X123190000Y-87010000D03*
X74930000Y-88280000D03*
D15*
X58420000Y-139700000D03*
X152400000Y-60960000D03*
D16*
X139155000Y-97790000D03*
D17*
X139155000Y-95250000D03*
X141695000Y-97790000D03*
X141695000Y-95250000D03*
X144235000Y-97790000D03*
X144235000Y-95250000D03*
X146775000Y-97790000D03*
X146775000Y-95250000D03*
D18*
X147320000Y-133360000D03*
D19*
X147320000Y-130820000D03*
X147320000Y-128280000D03*
X147320000Y-125740000D03*
X147320000Y-123200000D03*
X147320000Y-120660000D03*
X147320000Y-118120000D03*
X147320000Y-115580000D03*
X147320000Y-113040000D03*
X147320000Y-110500000D03*
X147320000Y-107960000D03*
X147320000Y-105420000D03*
D20*
X59120000Y-82350000D03*
D21*
X59120000Y-85850000D03*
X59120000Y-89350000D03*
X59120000Y-92850000D03*
X59120000Y-96350000D03*
X59120000Y-99850000D03*
X59120000Y-103350000D03*
X59120000Y-106850000D03*
X59120000Y-110350000D03*
X59120000Y-113850000D03*
X59120000Y-117350000D03*
X59120000Y-120850000D03*
D15*
X59080000Y-60960000D03*
X152400000Y-139700000D03*
M02*
