G04 #@! TF.GenerationSoftware,KiCad,Pcbnew,(6.0.11)*
G04 #@! TF.CreationDate,2023-03-02T23:13:04-06:00*
G04 #@! TF.ProjectId,STM,53544d2e-6b69-4636-9164-5f7063625858,rev?*
G04 #@! TF.SameCoordinates,Original*
G04 #@! TF.FileFunction,Copper,L2,Bot*
G04 #@! TF.FilePolarity,Positive*
%FSLAX46Y46*%
G04 Gerber Fmt 4.6, Leading zero omitted, Abs format (unit mm)*
G04 Created by KiCad (PCBNEW (6.0.11)) date 2023-03-02 23:13:04*
%MOMM*%
%LPD*%
G01*
G04 APERTURE LIST*
G04 #@! TA.AperFunction,ComponentPad*
%ADD10C,1.530000*%
G04 #@! TD*
G04 #@! TA.AperFunction,ComponentPad*
%ADD11R,1.530000X1.530000*%
G04 #@! TD*
G04 #@! TA.AperFunction,ComponentPad*
%ADD12C,1.605000*%
G04 #@! TD*
G04 #@! TA.AperFunction,ComponentPad*
%ADD13R,1.605000X1.605000*%
G04 #@! TD*
G04 #@! TA.AperFunction,ComponentPad*
%ADD14R,1.700000X1.700000*%
G04 #@! TD*
G04 #@! TA.AperFunction,ComponentPad*
%ADD15C,1.700000*%
G04 #@! TD*
G04 #@! TA.AperFunction,ComponentPad*
%ADD16R,1.600000X1.600000*%
G04 #@! TD*
G04 #@! TA.AperFunction,ComponentPad*
%ADD17O,1.600000X1.600000*%
G04 #@! TD*
G04 #@! TA.AperFunction,ComponentPad*
%ADD18R,2.400000X2.400000*%
G04 #@! TD*
G04 #@! TA.AperFunction,ComponentPad*
%ADD19C,2.400000*%
G04 #@! TD*
G04 #@! TA.AperFunction,ViaPad*
%ADD20C,0.800000*%
G04 #@! TD*
G04 #@! TA.AperFunction,Conductor*
%ADD21C,0.250000*%
G04 #@! TD*
G04 APERTURE END LIST*
D10*
X67310000Y-136540000D03*
X69850000Y-136540000D03*
X67310000Y-134000000D03*
X69850000Y-134000000D03*
X67310000Y-131460000D03*
X69850000Y-131460000D03*
X67310000Y-128920000D03*
X69850000Y-128920000D03*
X67310000Y-126380000D03*
X69850000Y-126380000D03*
X67310000Y-123840000D03*
X69850000Y-123840000D03*
X67310000Y-121300000D03*
X69850000Y-121300000D03*
X67310000Y-118760000D03*
X69850000Y-118760000D03*
X67310000Y-116220000D03*
X69850000Y-116220000D03*
X67310000Y-113680000D03*
X69850000Y-113680000D03*
X67310000Y-111140000D03*
X69850000Y-111140000D03*
X67310000Y-108600000D03*
X69850000Y-108600000D03*
X67310000Y-106060000D03*
X69850000Y-106060000D03*
X67310000Y-103520000D03*
X69850000Y-103520000D03*
X67310000Y-100980000D03*
X69850000Y-100980000D03*
X67310000Y-98440000D03*
X69850000Y-98440000D03*
X67310000Y-95900000D03*
X69850000Y-95900000D03*
X67310000Y-93360000D03*
X69850000Y-93360000D03*
X67310000Y-90820000D03*
D11*
X69850000Y-90820000D03*
D12*
X74930000Y-118760000D03*
X74930000Y-121300000D03*
X74930000Y-123840000D03*
X74930000Y-126380000D03*
X74930000Y-128920000D03*
X74930000Y-131460000D03*
X74930000Y-134000000D03*
D13*
X74930000Y-136540000D03*
D12*
X123190000Y-136540000D03*
X123190000Y-134000000D03*
X123190000Y-131460000D03*
X123190000Y-128920000D03*
X123190000Y-126380000D03*
D13*
X123190000Y-123840000D03*
D10*
X128270000Y-136540000D03*
X130810000Y-136540000D03*
X128270000Y-134000000D03*
X130810000Y-134000000D03*
X128270000Y-131460000D03*
X130810000Y-131460000D03*
X128270000Y-128920000D03*
X130810000Y-128920000D03*
X128270000Y-126380000D03*
X130810000Y-126380000D03*
X128270000Y-123840000D03*
X130810000Y-123840000D03*
X128270000Y-121300000D03*
X130810000Y-121300000D03*
X128270000Y-118760000D03*
X130810000Y-118760000D03*
X128270000Y-116220000D03*
X130810000Y-116220000D03*
X128270000Y-113680000D03*
X130810000Y-113680000D03*
X128270000Y-111140000D03*
X130810000Y-111140000D03*
X128270000Y-108600000D03*
X130810000Y-108600000D03*
X128270000Y-106060000D03*
X130810000Y-106060000D03*
X128270000Y-103520000D03*
X130810000Y-103520000D03*
X128270000Y-100980000D03*
X130810000Y-100980000D03*
X128270000Y-98440000D03*
X130810000Y-98440000D03*
X128270000Y-95900000D03*
X130810000Y-95900000D03*
X128270000Y-93360000D03*
X130810000Y-93360000D03*
X128270000Y-90820000D03*
D11*
X130810000Y-90820000D03*
D12*
X123190000Y-118760000D03*
X123190000Y-116220000D03*
X123190000Y-113680000D03*
X123190000Y-111140000D03*
X123190000Y-108600000D03*
X123190000Y-106060000D03*
X123190000Y-103520000D03*
D13*
X123190000Y-100980000D03*
D12*
X74930000Y-91840000D03*
X74930000Y-94380000D03*
X74930000Y-96920000D03*
X74930000Y-99460000D03*
X74930000Y-102000000D03*
X74930000Y-104540000D03*
X74930000Y-107080000D03*
X74930000Y-109620000D03*
X74930000Y-112160000D03*
D13*
X74930000Y-114700000D03*
D14*
X139155000Y-97790000D03*
D15*
X139155000Y-95250000D03*
X141695000Y-97790000D03*
X141695000Y-95250000D03*
X144235000Y-97790000D03*
X144235000Y-95250000D03*
X146775000Y-97790000D03*
X146775000Y-95250000D03*
D16*
X147320000Y-133360000D03*
D17*
X147320000Y-130820000D03*
X147320000Y-128280000D03*
X147320000Y-125740000D03*
X147320000Y-123200000D03*
X147320000Y-120660000D03*
X147320000Y-118120000D03*
X147320000Y-115580000D03*
X147320000Y-113040000D03*
X147320000Y-110500000D03*
X147320000Y-107960000D03*
X147320000Y-105420000D03*
D18*
X59120000Y-82350000D03*
D19*
X59120000Y-85850000D03*
X59120000Y-89350000D03*
X59120000Y-92850000D03*
X59120000Y-96350000D03*
X59120000Y-99850000D03*
X59120000Y-103350000D03*
X59120000Y-106850000D03*
X59120000Y-110350000D03*
X59120000Y-113850000D03*
X59120000Y-117350000D03*
X59120000Y-120850000D03*
D20*
X77315500Y-100650300D03*
X79205700Y-101252700D03*
X128597800Y-139408500D03*
D21*
X77315500Y-101214400D02*
X77315500Y-100650300D01*
X75117600Y-103412300D02*
X77315500Y-101214400D01*
X74448900Y-103412300D02*
X75117600Y-103412300D01*
X69850000Y-108011200D02*
X74448900Y-103412300D01*
X69850000Y-108600000D02*
X69850000Y-108011200D01*
X77878100Y-99925100D02*
X79205700Y-101252700D01*
X76815500Y-99925100D02*
X77878100Y-99925100D01*
X76010600Y-100730000D02*
X76815500Y-99925100D01*
X74551400Y-100730000D02*
X76010600Y-100730000D01*
X69850000Y-105431400D02*
X74551400Y-100730000D01*
X69850000Y-106060000D02*
X69850000Y-105431400D01*
X68580000Y-102250000D02*
X69850000Y-100980000D01*
X68580000Y-112410000D02*
X68580000Y-102250000D01*
X67310000Y-113680000D02*
X68580000Y-112410000D01*
X141695000Y-124668500D02*
X141695000Y-97790000D01*
X131093500Y-135270000D02*
X141695000Y-124668500D01*
X130510600Y-135270000D02*
X131093500Y-135270000D01*
X129540000Y-136240600D02*
X130510600Y-135270000D01*
X129540000Y-138466300D02*
X129540000Y-136240600D01*
X128597800Y-139408500D02*
X129540000Y-138466300D01*
X140330200Y-96614800D02*
X141695000Y-95250000D01*
X140330200Y-115879800D02*
X140330200Y-96614800D01*
X131100000Y-125110000D02*
X140330200Y-115879800D01*
X130477500Y-125110000D02*
X131100000Y-125110000D01*
X129719800Y-125867700D02*
X130477500Y-125110000D01*
X129719800Y-127470200D02*
X129719800Y-125867700D01*
X128270000Y-128920000D02*
X129719800Y-127470200D01*
X128270000Y-116220000D02*
X128270000Y-113680000D01*
X129381200Y-99551200D02*
X128270000Y-98440000D01*
X129381200Y-112568800D02*
X129381200Y-99551200D01*
X128270000Y-113680000D02*
X129381200Y-112568800D01*
X68580000Y-125110000D02*
X69850000Y-126380000D01*
X68580000Y-123507500D02*
X68580000Y-125110000D01*
X67822300Y-122749800D02*
X68580000Y-123507500D01*
X67213800Y-122749800D02*
X67822300Y-122749800D01*
X59120000Y-114656000D02*
X67213800Y-122749800D01*
X59120000Y-113850000D02*
X59120000Y-114656000D01*
X70966300Y-122723700D02*
X69850000Y-123840000D01*
X70966300Y-120851500D02*
X70966300Y-122723700D01*
X69965700Y-119850900D02*
X70966300Y-120851500D01*
X69380900Y-119850900D02*
X69965700Y-119850900D01*
X68580000Y-119050000D02*
X69380900Y-119850900D01*
X68580000Y-118427500D02*
X68580000Y-119050000D01*
X67822300Y-117669800D02*
X68580000Y-118427500D01*
X66439800Y-117669800D02*
X67822300Y-117669800D01*
X59120000Y-110350000D02*
X66439800Y-117669800D01*
X68580000Y-94630000D02*
X69850000Y-93360000D01*
X68580000Y-96232500D02*
X68580000Y-94630000D01*
X67822300Y-96990200D02*
X68580000Y-96232500D01*
X67166500Y-96990200D02*
X67822300Y-96990200D01*
X65710200Y-98446500D02*
X67166500Y-96990200D01*
X65710200Y-100259800D02*
X65710200Y-98446500D01*
X59120000Y-106850000D02*
X65710200Y-100259800D01*
X65860200Y-130010200D02*
X67310000Y-131460000D01*
X65860200Y-125408300D02*
X65860200Y-130010200D01*
X59551900Y-119100000D02*
X65860200Y-125408300D01*
X58690100Y-119100000D02*
X59551900Y-119100000D01*
X57566900Y-117976800D02*
X58690100Y-119100000D01*
X57566900Y-94403100D02*
X57566900Y-117976800D01*
X59120000Y-92850000D02*
X57566900Y-94403100D01*
X147320000Y-120660000D02*
X146194900Y-120660000D01*
X146194900Y-121155100D02*
X146194900Y-120660000D01*
X130810000Y-136540000D02*
X146194900Y-121155100D01*
X129698800Y-135111200D02*
X130810000Y-134000000D01*
X126002700Y-135111200D02*
X129698800Y-135111200D01*
X123621500Y-132730000D02*
X126002700Y-135111200D01*
X121166100Y-132730000D02*
X123621500Y-132730000D01*
X84086100Y-95650000D02*
X121166100Y-132730000D01*
X73684900Y-95650000D02*
X84086100Y-95650000D01*
X69965600Y-91930700D02*
X73684900Y-95650000D01*
X65200700Y-91930700D02*
X69965600Y-91930700D01*
X59120000Y-85850000D02*
X65200700Y-91930700D01*
X124460000Y-130190000D02*
X128270000Y-134000000D01*
X122655000Y-130190000D02*
X124460000Y-130190000D01*
X74815000Y-82350000D02*
X122655000Y-130190000D01*
X59120000Y-82350000D02*
X74815000Y-82350000D01*
G04 #@! TA.AperFunction,Conductor*
G36*
X156913621Y-56408502D02*
G01*
X156960114Y-56462158D01*
X156971500Y-56514500D01*
X156971500Y-144145500D01*
X156951498Y-144213621D01*
X156897842Y-144260114D01*
X156845500Y-144271500D01*
X53974500Y-144271500D01*
X53906379Y-144251498D01*
X53859886Y-144197842D01*
X53848500Y-144145500D01*
X53848500Y-139832703D01*
X56310743Y-139832703D01*
X56348268Y-140117734D01*
X56424129Y-140395036D01*
X56425813Y-140398984D01*
X56521091Y-140622358D01*
X56536923Y-140659476D01*
X56548693Y-140679142D01*
X56656645Y-140859516D01*
X56684561Y-140906161D01*
X56864313Y-141130528D01*
X57072851Y-141328423D01*
X57306317Y-141496186D01*
X57310112Y-141498195D01*
X57310113Y-141498196D01*
X57331869Y-141509715D01*
X57560392Y-141630712D01*
X57830373Y-141729511D01*
X58111264Y-141790755D01*
X58139841Y-141793004D01*
X58334282Y-141808307D01*
X58334291Y-141808307D01*
X58336739Y-141808500D01*
X58492271Y-141808500D01*
X58494407Y-141808354D01*
X58494418Y-141808354D01*
X58702548Y-141794165D01*
X58702554Y-141794164D01*
X58706825Y-141793873D01*
X58711020Y-141793004D01*
X58711022Y-141793004D01*
X58847583Y-141764724D01*
X58988342Y-141735574D01*
X59259343Y-141639607D01*
X59514812Y-141507750D01*
X59518313Y-141505289D01*
X59518317Y-141505287D01*
X59632418Y-141425095D01*
X59750023Y-141342441D01*
X59960622Y-141146740D01*
X60142713Y-140924268D01*
X60292927Y-140679142D01*
X60317854Y-140622358D01*
X60406757Y-140419830D01*
X60408483Y-140415898D01*
X60487244Y-140139406D01*
X60527751Y-139854784D01*
X60527845Y-139836951D01*
X60529235Y-139571583D01*
X60529235Y-139571576D01*
X60529257Y-139567297D01*
X60491732Y-139282266D01*
X60417176Y-139009733D01*
X88157822Y-139009733D01*
X88157975Y-139014121D01*
X88157975Y-139014127D01*
X88167339Y-139282266D01*
X88167625Y-139290458D01*
X88168387Y-139294781D01*
X88168388Y-139294788D01*
X88192916Y-139433893D01*
X88216402Y-139567087D01*
X88303203Y-139834235D01*
X88426340Y-140086702D01*
X88428795Y-140090341D01*
X88428798Y-140090347D01*
X88499885Y-140195737D01*
X88583415Y-140319576D01*
X88771371Y-140528322D01*
X88986550Y-140708879D01*
X89224764Y-140857731D01*
X89481375Y-140971982D01*
X89751390Y-141049407D01*
X89755740Y-141050018D01*
X89755743Y-141050019D01*
X89858690Y-141064487D01*
X90029552Y-141088500D01*
X90240146Y-141088500D01*
X90242332Y-141088347D01*
X90242336Y-141088347D01*
X90445827Y-141074118D01*
X90445832Y-141074117D01*
X90450212Y-141073811D01*
X90724970Y-141015409D01*
X90729099Y-141013906D01*
X90729103Y-141013905D01*
X90984781Y-140920846D01*
X90984785Y-140920844D01*
X90988926Y-140919337D01*
X91236942Y-140787464D01*
X91341896Y-140711211D01*
X91460629Y-140624947D01*
X91460632Y-140624944D01*
X91464192Y-140622358D01*
X91666252Y-140427231D01*
X91839188Y-140205882D01*
X91841384Y-140202078D01*
X91841389Y-140202071D01*
X91977435Y-139966431D01*
X91979636Y-139962619D01*
X92084862Y-139702176D01*
X92109164Y-139604706D01*
X92151753Y-139433893D01*
X92151754Y-139433888D01*
X92152817Y-139429624D01*
X92154348Y-139415065D01*
X92181719Y-139154636D01*
X92181719Y-139154633D01*
X92182178Y-139150267D01*
X92182025Y-139145873D01*
X92172529Y-138873939D01*
X92172528Y-138873933D01*
X92172375Y-138869542D01*
X92166227Y-138834672D01*
X92128597Y-138621263D01*
X92123598Y-138592913D01*
X92036797Y-138325765D01*
X91913660Y-138073298D01*
X91911205Y-138069659D01*
X91911202Y-138069653D01*
X91791542Y-137892250D01*
X91756585Y-137840424D01*
X91753047Y-137836494D01*
X91571566Y-137634940D01*
X91568629Y-137631678D01*
X91541895Y-137609245D01*
X91356820Y-137453949D01*
X91353450Y-137451121D01*
X91115236Y-137302269D01*
X90881054Y-137198004D01*
X90862639Y-137189805D01*
X90862637Y-137189804D01*
X90858625Y-137188018D01*
X90588610Y-137110593D01*
X90584260Y-137109982D01*
X90584257Y-137109981D01*
X90481310Y-137095513D01*
X90310448Y-137071500D01*
X90099854Y-137071500D01*
X90097668Y-137071653D01*
X90097664Y-137071653D01*
X89894173Y-137085882D01*
X89894168Y-137085883D01*
X89889788Y-137086189D01*
X89615030Y-137144591D01*
X89610901Y-137146094D01*
X89610897Y-137146095D01*
X89355219Y-137239154D01*
X89355215Y-137239156D01*
X89351074Y-137240663D01*
X89103058Y-137372536D01*
X89099499Y-137375122D01*
X89099497Y-137375123D01*
X88896728Y-137522443D01*
X88875808Y-137537642D01*
X88673748Y-137732769D01*
X88500812Y-137954118D01*
X88498616Y-137957922D01*
X88498611Y-137957929D01*
X88386735Y-138151705D01*
X88360364Y-138197381D01*
X88255138Y-138457824D01*
X88254073Y-138462097D01*
X88254072Y-138462099D01*
X88194418Y-138701360D01*
X88187183Y-138730376D01*
X88186724Y-138734744D01*
X88186723Y-138734749D01*
X88160929Y-138980170D01*
X88157822Y-139009733D01*
X60417176Y-139009733D01*
X60415871Y-139004964D01*
X60327423Y-138797601D01*
X60304763Y-138744476D01*
X60304761Y-138744472D01*
X60303077Y-138740524D01*
X60182069Y-138538334D01*
X60157643Y-138497521D01*
X60157640Y-138497517D01*
X60155439Y-138493839D01*
X59975687Y-138269472D01*
X59767149Y-138071577D01*
X59533683Y-137903814D01*
X59511843Y-137892250D01*
X59443393Y-137856008D01*
X59279608Y-137769288D01*
X59086392Y-137698581D01*
X59013658Y-137671964D01*
X59013656Y-137671963D01*
X59009627Y-137670489D01*
X58728736Y-137609245D01*
X58697685Y-137606801D01*
X58505718Y-137591693D01*
X58505709Y-137591693D01*
X58503261Y-137591500D01*
X58347729Y-137591500D01*
X58345593Y-137591646D01*
X58345582Y-137591646D01*
X58137452Y-137605835D01*
X58137446Y-137605836D01*
X58133175Y-137606127D01*
X58128980Y-137606996D01*
X58128978Y-137606996D01*
X58023420Y-137628856D01*
X57851658Y-137664426D01*
X57580657Y-137760393D01*
X57325188Y-137892250D01*
X57321687Y-137894711D01*
X57321683Y-137894713D01*
X57311594Y-137901804D01*
X57089977Y-138057559D01*
X56879378Y-138253260D01*
X56697287Y-138475732D01*
X56547073Y-138720858D01*
X56545347Y-138724791D01*
X56545346Y-138724792D01*
X56445381Y-138952519D01*
X56431517Y-138984102D01*
X56430342Y-138988229D01*
X56430341Y-138988230D01*
X56414674Y-139043229D01*
X56352756Y-139260594D01*
X56312249Y-139545216D01*
X56312227Y-139549505D01*
X56312226Y-139549512D01*
X56310765Y-139828417D01*
X56310743Y-139832703D01*
X53848500Y-139832703D01*
X53848500Y-94383043D01*
X56928680Y-94383043D01*
X56929426Y-94390935D01*
X56932841Y-94427061D01*
X56933400Y-94438919D01*
X56933400Y-117898033D01*
X56932873Y-117909216D01*
X56931198Y-117916709D01*
X56931447Y-117924635D01*
X56931447Y-117924636D01*
X56933338Y-117984786D01*
X56933400Y-117988745D01*
X56933400Y-118016656D01*
X56933897Y-118020590D01*
X56933897Y-118020591D01*
X56933905Y-118020656D01*
X56934838Y-118032493D01*
X56936227Y-118076689D01*
X56941878Y-118096139D01*
X56945887Y-118115500D01*
X56948426Y-118135597D01*
X56951345Y-118142968D01*
X56951345Y-118142970D01*
X56964704Y-118176712D01*
X56968549Y-118187942D01*
X56980882Y-118230393D01*
X56984915Y-118237212D01*
X56984917Y-118237217D01*
X56991193Y-118247828D01*
X56999888Y-118265576D01*
X57007348Y-118284417D01*
X57012010Y-118290833D01*
X57012010Y-118290834D01*
X57033336Y-118320187D01*
X57039852Y-118330107D01*
X57062358Y-118368162D01*
X57076679Y-118382483D01*
X57089519Y-118397516D01*
X57101428Y-118413907D01*
X57107534Y-118418958D01*
X57135505Y-118442098D01*
X57144284Y-118450088D01*
X58039749Y-119345553D01*
X58073775Y-119407865D01*
X58068710Y-119478680D01*
X58034555Y-119528651D01*
X57942232Y-119611053D01*
X57887562Y-119659848D01*
X57725183Y-119855087D01*
X57593447Y-120072182D01*
X57591638Y-120076496D01*
X57591637Y-120076498D01*
X57504340Y-120284679D01*
X57495246Y-120306365D01*
X57494095Y-120310897D01*
X57494094Y-120310900D01*
X57490506Y-120325027D01*
X57432738Y-120552490D01*
X57407296Y-120805151D01*
X57407520Y-120809817D01*
X57407520Y-120809822D01*
X57411280Y-120888087D01*
X57419480Y-121058798D01*
X57469021Y-121307857D01*
X57470600Y-121312255D01*
X57470602Y-121312262D01*
X57545901Y-121521986D01*
X57554831Y-121546858D01*
X57557048Y-121550984D01*
X57661184Y-121744791D01*
X57675025Y-121770551D01*
X57677820Y-121774294D01*
X57677822Y-121774297D01*
X57824171Y-121970282D01*
X57824176Y-121970288D01*
X57826963Y-121974020D01*
X57830272Y-121977300D01*
X57830277Y-121977306D01*
X58003990Y-122149509D01*
X58007307Y-122152797D01*
X58011069Y-122155555D01*
X58011072Y-122155558D01*
X58208323Y-122300188D01*
X58212094Y-122302953D01*
X58216229Y-122305129D01*
X58216233Y-122305131D01*
X58230458Y-122312615D01*
X58436827Y-122421191D01*
X58535947Y-122455805D01*
X58670297Y-122502722D01*
X58676568Y-122504912D01*
X58926050Y-122552278D01*
X59046532Y-122557011D01*
X59175125Y-122562064D01*
X59175130Y-122562064D01*
X59179793Y-122562247D01*
X59278774Y-122551407D01*
X59427569Y-122535112D01*
X59427575Y-122535111D01*
X59432222Y-122534602D01*
X59541680Y-122505784D01*
X59673273Y-122471138D01*
X59677793Y-122469948D01*
X59831432Y-122403940D01*
X59906807Y-122371557D01*
X59906810Y-122371555D01*
X59911110Y-122369708D01*
X59915090Y-122367245D01*
X59915094Y-122367243D01*
X60123064Y-122238547D01*
X60123066Y-122238545D01*
X60127047Y-122236082D01*
X60228957Y-122149809D01*
X60317289Y-122075031D01*
X60317291Y-122075029D01*
X60320862Y-122072006D01*
X60488295Y-121881084D01*
X60499929Y-121862998D01*
X60623141Y-121671442D01*
X60625669Y-121667512D01*
X60729967Y-121435980D01*
X60731238Y-121431473D01*
X60731966Y-121429473D01*
X60774058Y-121372300D01*
X60840378Y-121346960D01*
X60909871Y-121361497D01*
X60939464Y-121383468D01*
X65189795Y-125633799D01*
X65223821Y-125696111D01*
X65226700Y-125722894D01*
X65226700Y-129931433D01*
X65226173Y-129942616D01*
X65224498Y-129950109D01*
X65224747Y-129958035D01*
X65224747Y-129958036D01*
X65226638Y-130018186D01*
X65226700Y-130022145D01*
X65226700Y-130050056D01*
X65227197Y-130053990D01*
X65227197Y-130053991D01*
X65227205Y-130054056D01*
X65228138Y-130065893D01*
X65229527Y-130110089D01*
X65235178Y-130129539D01*
X65239187Y-130148900D01*
X65240431Y-130158743D01*
X65241726Y-130168997D01*
X65244645Y-130176368D01*
X65244645Y-130176370D01*
X65258004Y-130210112D01*
X65261849Y-130221342D01*
X65264615Y-130230864D01*
X65274182Y-130263793D01*
X65278215Y-130270612D01*
X65278217Y-130270617D01*
X65284493Y-130281228D01*
X65293188Y-130298976D01*
X65300648Y-130317817D01*
X65305310Y-130324233D01*
X65305310Y-130324234D01*
X65326636Y-130353587D01*
X65333152Y-130363507D01*
X65355658Y-130401562D01*
X65369979Y-130415883D01*
X65382819Y-130430916D01*
X65394728Y-130447307D01*
X65400832Y-130452357D01*
X65400837Y-130452362D01*
X65428798Y-130475493D01*
X65437579Y-130483483D01*
X66029425Y-131075330D01*
X66063450Y-131137642D01*
X66062036Y-131197036D01*
X66051056Y-131238014D01*
X66031635Y-131460000D01*
X66051056Y-131681986D01*
X66088654Y-131822301D01*
X66093382Y-131839946D01*
X66108730Y-131897227D01*
X66111052Y-131902208D01*
X66111053Y-131902209D01*
X66200577Y-132094195D01*
X66200580Y-132094200D01*
X66202903Y-132099182D01*
X66330716Y-132281717D01*
X66488283Y-132439284D01*
X66492792Y-132442441D01*
X66492794Y-132442443D01*
X66568110Y-132495180D01*
X66670817Y-132567097D01*
X66675802Y-132569421D01*
X66675808Y-132569425D01*
X66775272Y-132615805D01*
X66828558Y-132662722D01*
X66848019Y-132730999D01*
X66827478Y-132798959D01*
X66775273Y-132844195D01*
X66675805Y-132890577D01*
X66675800Y-132890580D01*
X66670818Y-132892903D01*
X66568608Y-132964472D01*
X66523904Y-132995774D01*
X66488283Y-133020716D01*
X66330716Y-133178283D01*
X66327559Y-133182791D01*
X66327557Y-133182794D01*
X66282889Y-133246586D01*
X66202903Y-133360818D01*
X66200580Y-133365800D01*
X66200577Y-133365805D01*
X66117056Y-133544917D01*
X66108730Y-133562773D01*
X66051056Y-133778014D01*
X66031635Y-134000000D01*
X66051056Y-134221986D01*
X66077075Y-134319088D01*
X66098234Y-134398054D01*
X66108730Y-134437227D01*
X66111052Y-134442208D01*
X66111053Y-134442209D01*
X66200577Y-134634195D01*
X66200580Y-134634200D01*
X66202903Y-134639182D01*
X66330716Y-134821717D01*
X66488283Y-134979284D01*
X66492792Y-134982441D01*
X66492794Y-134982443D01*
X66568110Y-135035180D01*
X66670817Y-135107097D01*
X66675802Y-135109421D01*
X66675808Y-135109425D01*
X66775272Y-135155805D01*
X66828558Y-135202722D01*
X66848019Y-135270999D01*
X66827478Y-135338959D01*
X66775273Y-135384195D01*
X66675805Y-135430577D01*
X66675800Y-135430580D01*
X66670818Y-135432903D01*
X66598403Y-135483609D01*
X66523904Y-135535774D01*
X66488283Y-135560716D01*
X66330716Y-135718283D01*
X66327559Y-135722791D01*
X66327557Y-135722794D01*
X66308914Y-135749419D01*
X66202903Y-135900818D01*
X66200580Y-135905800D01*
X66200577Y-135905805D01*
X66192116Y-135923950D01*
X66108730Y-136102773D01*
X66051056Y-136318014D01*
X66031635Y-136540000D01*
X66051056Y-136761986D01*
X66108730Y-136977227D01*
X66111052Y-136982208D01*
X66111053Y-136982209D01*
X66200577Y-137174195D01*
X66200580Y-137174200D01*
X66202903Y-137179182D01*
X66330716Y-137361717D01*
X66488283Y-137519284D01*
X66492792Y-137522441D01*
X66492794Y-137522443D01*
X66568110Y-137575180D01*
X66670817Y-137647097D01*
X66675799Y-137649420D01*
X66675804Y-137649423D01*
X66854542Y-137732769D01*
X66872773Y-137741270D01*
X66878081Y-137742692D01*
X66878083Y-137742693D01*
X66906294Y-137750252D01*
X67088014Y-137798944D01*
X67310000Y-137818365D01*
X67531986Y-137798944D01*
X67713706Y-137750252D01*
X67741917Y-137742693D01*
X67741919Y-137742692D01*
X67747227Y-137741270D01*
X67765458Y-137732769D01*
X67944196Y-137649423D01*
X67944201Y-137649420D01*
X67949183Y-137647097D01*
X68051890Y-137575180D01*
X68127206Y-137522443D01*
X68127208Y-137522441D01*
X68131717Y-137519284D01*
X68289284Y-137361717D01*
X68417097Y-137179182D01*
X68419420Y-137174200D01*
X68419423Y-137174195D01*
X68465805Y-137074727D01*
X68512722Y-137021442D01*
X68580999Y-137001981D01*
X68648959Y-137022523D01*
X68694195Y-137074727D01*
X68740577Y-137174195D01*
X68740580Y-137174200D01*
X68742903Y-137179182D01*
X68870716Y-137361717D01*
X69028283Y-137519284D01*
X69032792Y-137522441D01*
X69032794Y-137522443D01*
X69108110Y-137575180D01*
X69210817Y-137647097D01*
X69215799Y-137649420D01*
X69215804Y-137649423D01*
X69394542Y-137732769D01*
X69412773Y-137741270D01*
X69418081Y-137742692D01*
X69418083Y-137742693D01*
X69446294Y-137750252D01*
X69628014Y-137798944D01*
X69850000Y-137818365D01*
X70071986Y-137798944D01*
X70253706Y-137750252D01*
X70281917Y-137742693D01*
X70281919Y-137742692D01*
X70287227Y-137741270D01*
X70305458Y-137732769D01*
X70484196Y-137649423D01*
X70484201Y-137649420D01*
X70489183Y-137647097D01*
X70591890Y-137575180D01*
X70667206Y-137522443D01*
X70667208Y-137522441D01*
X70671717Y-137519284D01*
X70829284Y-137361717D01*
X70957097Y-137179182D01*
X70959420Y-137174200D01*
X70959423Y-137174195D01*
X71048947Y-136982209D01*
X71048948Y-136982208D01*
X71051270Y-136977227D01*
X71108944Y-136761986D01*
X71128365Y-136540000D01*
X71108944Y-136318014D01*
X71051270Y-136102773D01*
X70967884Y-135923950D01*
X70959423Y-135905805D01*
X70959420Y-135905800D01*
X70957097Y-135900818D01*
X70851086Y-135749419D01*
X70832443Y-135722794D01*
X70832441Y-135722791D01*
X70829284Y-135718283D01*
X70671717Y-135560716D01*
X70636097Y-135535774D01*
X70561598Y-135483609D01*
X70489183Y-135432903D01*
X70484201Y-135430580D01*
X70484196Y-135430577D01*
X70384728Y-135384195D01*
X70331443Y-135337278D01*
X70311982Y-135269001D01*
X70332524Y-135201041D01*
X70384728Y-135155805D01*
X70484196Y-135109423D01*
X70484201Y-135109420D01*
X70489183Y-135107097D01*
X70591890Y-135035180D01*
X70667206Y-134982443D01*
X70667208Y-134982441D01*
X70671717Y-134979284D01*
X70829284Y-134821717D01*
X70957097Y-134639182D01*
X70959420Y-134634200D01*
X70959423Y-134634195D01*
X71048947Y-134442209D01*
X71048948Y-134442208D01*
X71051270Y-134437227D01*
X71061767Y-134398054D01*
X71082925Y-134319088D01*
X71108944Y-134221986D01*
X71128365Y-134000000D01*
X73613992Y-134000000D01*
X73633985Y-134228522D01*
X73635409Y-134233835D01*
X73635409Y-134233837D01*
X73689331Y-134435074D01*
X73693357Y-134450101D01*
X73695679Y-134455082D01*
X73695680Y-134455083D01*
X73786518Y-134649884D01*
X73790304Y-134658004D01*
X73921879Y-134845914D01*
X74084086Y-135008121D01*
X74088597Y-135011280D01*
X74090975Y-135013275D01*
X74130301Y-135072385D01*
X74131427Y-135143373D01*
X74093995Y-135203700D01*
X74032274Y-135231191D01*
X74032722Y-135233075D01*
X74025040Y-135234902D01*
X74017184Y-135235755D01*
X73880795Y-135286885D01*
X73764239Y-135374239D01*
X73676885Y-135490795D01*
X73625755Y-135627184D01*
X73619000Y-135689366D01*
X73619000Y-137390634D01*
X73625755Y-137452816D01*
X73676885Y-137589205D01*
X73764239Y-137705761D01*
X73880795Y-137793115D01*
X74017184Y-137844245D01*
X74079366Y-137851000D01*
X75780634Y-137851000D01*
X75842816Y-137844245D01*
X75979205Y-137793115D01*
X76095761Y-137705761D01*
X76183115Y-137589205D01*
X76234245Y-137452816D01*
X76241000Y-137390634D01*
X76241000Y-135689366D01*
X76234245Y-135627184D01*
X76183115Y-135490795D01*
X76095761Y-135374239D01*
X75979205Y-135286885D01*
X75842816Y-135235755D01*
X75834960Y-135234902D01*
X75827278Y-135233075D01*
X75827670Y-135231427D01*
X75770847Y-135207817D01*
X75730421Y-135149454D01*
X75727965Y-135078500D01*
X75769025Y-135013275D01*
X75771403Y-135011280D01*
X75775914Y-135008121D01*
X75938121Y-134845914D01*
X76069696Y-134658004D01*
X76073483Y-134649884D01*
X76164320Y-134455083D01*
X76164321Y-134455082D01*
X76166643Y-134450101D01*
X76170670Y-134435074D01*
X76224591Y-134233837D01*
X76224591Y-134233835D01*
X76226015Y-134228522D01*
X76246008Y-134000000D01*
X76226015Y-133771478D01*
X76224591Y-133766163D01*
X76168066Y-133555209D01*
X76168065Y-133555207D01*
X76166643Y-133549899D01*
X76161103Y-133538019D01*
X76072019Y-133346977D01*
X76072017Y-133346974D01*
X76069696Y-133341996D01*
X75938121Y-133154086D01*
X75775914Y-132991879D01*
X75588004Y-132860304D01*
X75583026Y-132857983D01*
X75583023Y-132857981D01*
X75553458Y-132844195D01*
X75500173Y-132797278D01*
X75480712Y-132729001D01*
X75501254Y-132661041D01*
X75553458Y-132615805D01*
X75583023Y-132602019D01*
X75583026Y-132602017D01*
X75588004Y-132599696D01*
X75775914Y-132468121D01*
X75938121Y-132305914D01*
X76069696Y-132118004D01*
X76074979Y-132106676D01*
X76164320Y-131915083D01*
X76164322Y-131915078D01*
X76166643Y-131910101D01*
X76171516Y-131891917D01*
X76224591Y-131693837D01*
X76224591Y-131693835D01*
X76226015Y-131688522D01*
X76246008Y-131460000D01*
X76226015Y-131231478D01*
X76178300Y-131053402D01*
X76168066Y-131015209D01*
X76168065Y-131015207D01*
X76166643Y-131009899D01*
X76161103Y-130998019D01*
X76072019Y-130806977D01*
X76072017Y-130806974D01*
X76069696Y-130801996D01*
X75938121Y-130614086D01*
X75775914Y-130451879D01*
X75588004Y-130320304D01*
X75583026Y-130317983D01*
X75583023Y-130317981D01*
X75553458Y-130304195D01*
X75500173Y-130257278D01*
X75480712Y-130189001D01*
X75501254Y-130121041D01*
X75553458Y-130075805D01*
X75583023Y-130062019D01*
X75583026Y-130062017D01*
X75588004Y-130059696D01*
X75775914Y-129928121D01*
X75938121Y-129765914D01*
X76069696Y-129578004D01*
X76073908Y-129568973D01*
X76164320Y-129375083D01*
X76164322Y-129375078D01*
X76166643Y-129370101D01*
X76171516Y-129351917D01*
X76224591Y-129153837D01*
X76224591Y-129153835D01*
X76226015Y-129148522D01*
X76246008Y-128920000D01*
X76226015Y-128691478D01*
X76187174Y-128546522D01*
X76168066Y-128475209D01*
X76168065Y-128475207D01*
X76166643Y-128469899D01*
X76153912Y-128442597D01*
X76072019Y-128266977D01*
X76072017Y-128266974D01*
X76069696Y-128261996D01*
X75938121Y-128074086D01*
X75775914Y-127911879D01*
X75588004Y-127780304D01*
X75583026Y-127777983D01*
X75583023Y-127777981D01*
X75553458Y-127764195D01*
X75500173Y-127717278D01*
X75480712Y-127649001D01*
X75501254Y-127581041D01*
X75553458Y-127535805D01*
X75583023Y-127522019D01*
X75583026Y-127522017D01*
X75588004Y-127519696D01*
X75775914Y-127388121D01*
X75938121Y-127225914D01*
X76069696Y-127038004D01*
X76080799Y-127014195D01*
X76164320Y-126835083D01*
X76164321Y-126835082D01*
X76166643Y-126830101D01*
X76171516Y-126811917D01*
X76224591Y-126613837D01*
X76224591Y-126613835D01*
X76226015Y-126608522D01*
X76246008Y-126380000D01*
X76226015Y-126151478D01*
X76178300Y-125973402D01*
X76168066Y-125935209D01*
X76168065Y-125935207D01*
X76166643Y-125929899D01*
X76164320Y-125924917D01*
X76072019Y-125726977D01*
X76072017Y-125726974D01*
X76069696Y-125721996D01*
X75938121Y-125534086D01*
X75775914Y-125371879D01*
X75588004Y-125240304D01*
X75583026Y-125237983D01*
X75583023Y-125237981D01*
X75553458Y-125224195D01*
X75500173Y-125177278D01*
X75480712Y-125109001D01*
X75501254Y-125041041D01*
X75553458Y-124995805D01*
X75583023Y-124982019D01*
X75583026Y-124982017D01*
X75588004Y-124979696D01*
X75775914Y-124848121D01*
X75938121Y-124685914D01*
X76069696Y-124498004D01*
X76080799Y-124474195D01*
X76164320Y-124295083D01*
X76164321Y-124295082D01*
X76166643Y-124290101D01*
X76171516Y-124271917D01*
X76224591Y-124073837D01*
X76224591Y-124073835D01*
X76226015Y-124068522D01*
X76246008Y-123840000D01*
X76226015Y-123611478D01*
X76224591Y-123606163D01*
X76168066Y-123395209D01*
X76168065Y-123395207D01*
X76166643Y-123389899D01*
X76161103Y-123378019D01*
X76072019Y-123186977D01*
X76072017Y-123186974D01*
X76069696Y-123181996D01*
X75938121Y-122994086D01*
X75775914Y-122831879D01*
X75588004Y-122700304D01*
X75583026Y-122697983D01*
X75583023Y-122697981D01*
X75553458Y-122684195D01*
X75500173Y-122637278D01*
X75480712Y-122569001D01*
X75501254Y-122501041D01*
X75553458Y-122455805D01*
X75583023Y-122442019D01*
X75583026Y-122442017D01*
X75588004Y-122439696D01*
X75775914Y-122308121D01*
X75938121Y-122145914D01*
X76069696Y-121958004D01*
X76080799Y-121934195D01*
X76164320Y-121755083D01*
X76164321Y-121755082D01*
X76166643Y-121750101D01*
X76171516Y-121731917D01*
X76224591Y-121533837D01*
X76224591Y-121533835D01*
X76226015Y-121528522D01*
X76246008Y-121300000D01*
X76226015Y-121071478D01*
X76223847Y-121063386D01*
X76168066Y-120855209D01*
X76168065Y-120855207D01*
X76166643Y-120849899D01*
X76162746Y-120841542D01*
X76072019Y-120646977D01*
X76072017Y-120646974D01*
X76069696Y-120641996D01*
X75938121Y-120454086D01*
X75775914Y-120291879D01*
X75588004Y-120160304D01*
X75583026Y-120157983D01*
X75583023Y-120157981D01*
X75553458Y-120144195D01*
X75500173Y-120097278D01*
X75480712Y-120029001D01*
X75501254Y-119961041D01*
X75553458Y-119915805D01*
X75583023Y-119902019D01*
X75583026Y-119902017D01*
X75588004Y-119899696D01*
X75775914Y-119768121D01*
X75938121Y-119605914D01*
X76069696Y-119418004D01*
X76080799Y-119394195D01*
X76164320Y-119215083D01*
X76164321Y-119215082D01*
X76166643Y-119210101D01*
X76171516Y-119191917D01*
X76224591Y-118993837D01*
X76224591Y-118993835D01*
X76226015Y-118988522D01*
X76246008Y-118760000D01*
X76226015Y-118531478D01*
X76185717Y-118381084D01*
X76168066Y-118315209D01*
X76168065Y-118315207D01*
X76166643Y-118309899D01*
X76154761Y-118284417D01*
X76072019Y-118106977D01*
X76072017Y-118106974D01*
X76069696Y-118101996D01*
X75938121Y-117914086D01*
X75775914Y-117751879D01*
X75588004Y-117620304D01*
X75583026Y-117617983D01*
X75583023Y-117617981D01*
X75385083Y-117525680D01*
X75385082Y-117525679D01*
X75380101Y-117523357D01*
X75374793Y-117521935D01*
X75374791Y-117521934D01*
X75163837Y-117465409D01*
X75163835Y-117465409D01*
X75158522Y-117463985D01*
X74930000Y-117443992D01*
X74701478Y-117463985D01*
X74696165Y-117465409D01*
X74696163Y-117465409D01*
X74485209Y-117521934D01*
X74485207Y-117521935D01*
X74479899Y-117523357D01*
X74474918Y-117525679D01*
X74474917Y-117525680D01*
X74276977Y-117617981D01*
X74276974Y-117617983D01*
X74271996Y-117620304D01*
X74084086Y-117751879D01*
X73921879Y-117914086D01*
X73790304Y-118101996D01*
X73787983Y-118106974D01*
X73787981Y-118106977D01*
X73705239Y-118284417D01*
X73693357Y-118309899D01*
X73691935Y-118315207D01*
X73691934Y-118315209D01*
X73674283Y-118381084D01*
X73633985Y-118531478D01*
X73613992Y-118760000D01*
X73633985Y-118988522D01*
X73635409Y-118993835D01*
X73635409Y-118993837D01*
X73688485Y-119191917D01*
X73693357Y-119210101D01*
X73695679Y-119215082D01*
X73695680Y-119215083D01*
X73779202Y-119394195D01*
X73790304Y-119418004D01*
X73921879Y-119605914D01*
X74084086Y-119768121D01*
X74271996Y-119899696D01*
X74276974Y-119902017D01*
X74276977Y-119902019D01*
X74306542Y-119915805D01*
X74359827Y-119962722D01*
X74379288Y-120030999D01*
X74358746Y-120098959D01*
X74306542Y-120144195D01*
X74276977Y-120157981D01*
X74276974Y-120157983D01*
X74271996Y-120160304D01*
X74084086Y-120291879D01*
X73921879Y-120454086D01*
X73790304Y-120641996D01*
X73787983Y-120646974D01*
X73787981Y-120646977D01*
X73697254Y-120841542D01*
X73693357Y-120849899D01*
X73691935Y-120855207D01*
X73691934Y-120855209D01*
X73636153Y-121063386D01*
X73633985Y-121071478D01*
X73613992Y-121300000D01*
X73633985Y-121528522D01*
X73635409Y-121533835D01*
X73635409Y-121533837D01*
X73688485Y-121731917D01*
X73693357Y-121750101D01*
X73695679Y-121755082D01*
X73695680Y-121755083D01*
X73779202Y-121934195D01*
X73790304Y-121958004D01*
X73921879Y-122145914D01*
X74084086Y-122308121D01*
X74271996Y-122439696D01*
X74276974Y-122442017D01*
X74276977Y-122442019D01*
X74306542Y-122455805D01*
X74359827Y-122502722D01*
X74379288Y-122570999D01*
X74358746Y-122638959D01*
X74306542Y-122684195D01*
X74276977Y-122697981D01*
X74276974Y-122697983D01*
X74271996Y-122700304D01*
X74084086Y-122831879D01*
X73921879Y-122994086D01*
X73790304Y-123181996D01*
X73787983Y-123186974D01*
X73787981Y-123186977D01*
X73698897Y-123378019D01*
X73693357Y-123389899D01*
X73691935Y-123395207D01*
X73691934Y-123395209D01*
X73635409Y-123606163D01*
X73633985Y-123611478D01*
X73613992Y-123840000D01*
X73633985Y-124068522D01*
X73635409Y-124073835D01*
X73635409Y-124073837D01*
X73688485Y-124271917D01*
X73693357Y-124290101D01*
X73695679Y-124295082D01*
X73695680Y-124295083D01*
X73779202Y-124474195D01*
X73790304Y-124498004D01*
X73921879Y-124685914D01*
X74084086Y-124848121D01*
X74271996Y-124979696D01*
X74276974Y-124982017D01*
X74276977Y-124982019D01*
X74306542Y-124995805D01*
X74359827Y-125042722D01*
X74379288Y-125110999D01*
X74358746Y-125178959D01*
X74306542Y-125224195D01*
X74276977Y-125237981D01*
X74276974Y-125237983D01*
X74271996Y-125240304D01*
X74084086Y-125371879D01*
X73921879Y-125534086D01*
X73790304Y-125721996D01*
X73787983Y-125726974D01*
X73787981Y-125726977D01*
X73695680Y-125924917D01*
X73693357Y-125929899D01*
X73691935Y-125935207D01*
X73691934Y-125935209D01*
X73681700Y-125973402D01*
X73633985Y-126151478D01*
X73613992Y-126380000D01*
X73633985Y-126608522D01*
X73635409Y-126613835D01*
X73635409Y-126613837D01*
X73688485Y-126811917D01*
X73693357Y-126830101D01*
X73695679Y-126835082D01*
X73695680Y-126835083D01*
X73779202Y-127014195D01*
X73790304Y-127038004D01*
X73921879Y-127225914D01*
X74084086Y-127388121D01*
X74271996Y-127519696D01*
X74276974Y-127522017D01*
X74276977Y-127522019D01*
X74306542Y-127535805D01*
X74359827Y-127582722D01*
X74379288Y-127650999D01*
X74358746Y-127718959D01*
X74306542Y-127764195D01*
X74276977Y-127777981D01*
X74276974Y-127777983D01*
X74271996Y-127780304D01*
X74084086Y-127911879D01*
X73921879Y-128074086D01*
X73790304Y-128261996D01*
X73787983Y-128266974D01*
X73787981Y-128266977D01*
X73706088Y-128442597D01*
X73693357Y-128469899D01*
X73691935Y-128475207D01*
X73691934Y-128475209D01*
X73672826Y-128546522D01*
X73633985Y-128691478D01*
X73613992Y-128920000D01*
X73633985Y-129148522D01*
X73635409Y-129153835D01*
X73635409Y-129153837D01*
X73688485Y-129351917D01*
X73693357Y-129370101D01*
X73695678Y-129375078D01*
X73695680Y-129375083D01*
X73786093Y-129568973D01*
X73790304Y-129578004D01*
X73921879Y-129765914D01*
X74084086Y-129928121D01*
X74271996Y-130059696D01*
X74276974Y-130062017D01*
X74276977Y-130062019D01*
X74306542Y-130075805D01*
X74359827Y-130122722D01*
X74379288Y-130190999D01*
X74358746Y-130258959D01*
X74306542Y-130304195D01*
X74276977Y-130317981D01*
X74276974Y-130317983D01*
X74271996Y-130320304D01*
X74084086Y-130451879D01*
X73921879Y-130614086D01*
X73790304Y-130801996D01*
X73787983Y-130806974D01*
X73787981Y-130806977D01*
X73698897Y-130998019D01*
X73693357Y-131009899D01*
X73691935Y-131015207D01*
X73691934Y-131015209D01*
X73681700Y-131053402D01*
X73633985Y-131231478D01*
X73613992Y-131460000D01*
X73633985Y-131688522D01*
X73635409Y-131693835D01*
X73635409Y-131693837D01*
X73688485Y-131891917D01*
X73693357Y-131910101D01*
X73695678Y-131915078D01*
X73695680Y-131915083D01*
X73785022Y-132106676D01*
X73790304Y-132118004D01*
X73921879Y-132305914D01*
X74084086Y-132468121D01*
X74271996Y-132599696D01*
X74276974Y-132602017D01*
X74276977Y-132602019D01*
X74306542Y-132615805D01*
X74359827Y-132662722D01*
X74379288Y-132730999D01*
X74358746Y-132798959D01*
X74306542Y-132844195D01*
X74276977Y-132857981D01*
X74276974Y-132857983D01*
X74271996Y-132860304D01*
X74084086Y-132991879D01*
X73921879Y-133154086D01*
X73790304Y-133341996D01*
X73787983Y-133346974D01*
X73787981Y-133346977D01*
X73698897Y-133538019D01*
X73693357Y-133549899D01*
X73691935Y-133555207D01*
X73691934Y-133555209D01*
X73635409Y-133766163D01*
X73633985Y-133771478D01*
X73613992Y-134000000D01*
X71128365Y-134000000D01*
X71108944Y-133778014D01*
X71051270Y-133562773D01*
X71042944Y-133544917D01*
X70959423Y-133365805D01*
X70959420Y-133365800D01*
X70957097Y-133360818D01*
X70877111Y-133246586D01*
X70832443Y-133182794D01*
X70832441Y-133182791D01*
X70829284Y-133178283D01*
X70671717Y-133020716D01*
X70636097Y-132995774D01*
X70591890Y-132964820D01*
X70489183Y-132892903D01*
X70484201Y-132890580D01*
X70484196Y-132890577D01*
X70384728Y-132844195D01*
X70331443Y-132797278D01*
X70311982Y-132729001D01*
X70332524Y-132661041D01*
X70384728Y-132615805D01*
X70484196Y-132569423D01*
X70484201Y-132569420D01*
X70489183Y-132567097D01*
X70591890Y-132495180D01*
X70667206Y-132442443D01*
X70667208Y-132442441D01*
X70671717Y-132439284D01*
X70829284Y-132281717D01*
X70957097Y-132099182D01*
X70959420Y-132094200D01*
X70959423Y-132094195D01*
X71048947Y-131902209D01*
X71048948Y-131902208D01*
X71051270Y-131897227D01*
X71066619Y-131839946D01*
X71071346Y-131822301D01*
X71108944Y-131681986D01*
X71128365Y-131460000D01*
X71108944Y-131238014D01*
X71051270Y-131022773D01*
X71005805Y-130925273D01*
X70959423Y-130825805D01*
X70959420Y-130825800D01*
X70957097Y-130820818D01*
X70829284Y-130638283D01*
X70671717Y-130480716D01*
X70636097Y-130455774D01*
X70566688Y-130407173D01*
X70489183Y-130352903D01*
X70484201Y-130350580D01*
X70484196Y-130350577D01*
X70384728Y-130304195D01*
X70331443Y-130257278D01*
X70311982Y-130189001D01*
X70332524Y-130121041D01*
X70384728Y-130075805D01*
X70484196Y-130029423D01*
X70484201Y-130029420D01*
X70489183Y-130027097D01*
X70625804Y-129931433D01*
X70667206Y-129902443D01*
X70667208Y-129902441D01*
X70671717Y-129899284D01*
X70829284Y-129741717D01*
X70834967Y-129733602D01*
X70912533Y-129622826D01*
X70957097Y-129559182D01*
X70959420Y-129554200D01*
X70959423Y-129554195D01*
X71048947Y-129362209D01*
X71048948Y-129362208D01*
X71051270Y-129357227D01*
X71108944Y-129141986D01*
X71128365Y-128920000D01*
X71108944Y-128698014D01*
X71051270Y-128482773D01*
X71047743Y-128475209D01*
X70959423Y-128285805D01*
X70959420Y-128285800D01*
X70957097Y-128280818D01*
X70829284Y-128098283D01*
X70671717Y-127940716D01*
X70666301Y-127936923D01*
X70591890Y-127884820D01*
X70489183Y-127812903D01*
X70484201Y-127810580D01*
X70484196Y-127810577D01*
X70384728Y-127764195D01*
X70331443Y-127717278D01*
X70311982Y-127649001D01*
X70332524Y-127581041D01*
X70384728Y-127535805D01*
X70484196Y-127489423D01*
X70484201Y-127489420D01*
X70489183Y-127487097D01*
X70591890Y-127415180D01*
X70667206Y-127362443D01*
X70667208Y-127362441D01*
X70671717Y-127359284D01*
X70829284Y-127201717D01*
X70883373Y-127124471D01*
X70916224Y-127077554D01*
X70957097Y-127019182D01*
X70959420Y-127014200D01*
X70959423Y-127014195D01*
X71048947Y-126822209D01*
X71048948Y-126822208D01*
X71051270Y-126817227D01*
X71108944Y-126601986D01*
X71128365Y-126380000D01*
X71108944Y-126158014D01*
X71051270Y-125942773D01*
X71042944Y-125924917D01*
X70959423Y-125745805D01*
X70959420Y-125745800D01*
X70957097Y-125740818D01*
X70829284Y-125558283D01*
X70671717Y-125400716D01*
X70666301Y-125396923D01*
X70591890Y-125344820D01*
X70489183Y-125272903D01*
X70484201Y-125270580D01*
X70484196Y-125270577D01*
X70384728Y-125224195D01*
X70331443Y-125177278D01*
X70311982Y-125109001D01*
X70332524Y-125041041D01*
X70384728Y-124995805D01*
X70484196Y-124949423D01*
X70484201Y-124949420D01*
X70489183Y-124947097D01*
X70623646Y-124852944D01*
X70667206Y-124822443D01*
X70667208Y-124822441D01*
X70671717Y-124819284D01*
X70829284Y-124661717D01*
X70870765Y-124602477D01*
X70916611Y-124537002D01*
X70957097Y-124479182D01*
X70959420Y-124474200D01*
X70959423Y-124474195D01*
X71048947Y-124282209D01*
X71048948Y-124282208D01*
X71051270Y-124277227D01*
X71108944Y-124061986D01*
X71128365Y-123840000D01*
X71108944Y-123618014D01*
X71107521Y-123612704D01*
X71107520Y-123612697D01*
X71097964Y-123577033D01*
X71099654Y-123506056D01*
X71130576Y-123455328D01*
X71358547Y-123227357D01*
X71366837Y-123219813D01*
X71373318Y-123215700D01*
X71419959Y-123166032D01*
X71422713Y-123163191D01*
X71442435Y-123143469D01*
X71444912Y-123140276D01*
X71452617Y-123131255D01*
X71477459Y-123104800D01*
X71482886Y-123099021D01*
X71486707Y-123092071D01*
X71492646Y-123081268D01*
X71503502Y-123064741D01*
X71511057Y-123055002D01*
X71511058Y-123055000D01*
X71515914Y-123048740D01*
X71533474Y-123008160D01*
X71538691Y-122997512D01*
X71556175Y-122965709D01*
X71556176Y-122965707D01*
X71559995Y-122958760D01*
X71565033Y-122939137D01*
X71571437Y-122920434D01*
X71576333Y-122909120D01*
X71576333Y-122909119D01*
X71579481Y-122901845D01*
X71580720Y-122894022D01*
X71580723Y-122894012D01*
X71586399Y-122858176D01*
X71588805Y-122846556D01*
X71597828Y-122811411D01*
X71597828Y-122811410D01*
X71599800Y-122803730D01*
X71599800Y-122783476D01*
X71601351Y-122763765D01*
X71603280Y-122751586D01*
X71604520Y-122743757D01*
X71600359Y-122699738D01*
X71599800Y-122687881D01*
X71599800Y-120930267D01*
X71600327Y-120919084D01*
X71602002Y-120911591D01*
X71599862Y-120843514D01*
X71599800Y-120839555D01*
X71599800Y-120811644D01*
X71599295Y-120807644D01*
X71598362Y-120795801D01*
X71597222Y-120759529D01*
X71596973Y-120751610D01*
X71591322Y-120732158D01*
X71587314Y-120712806D01*
X71585767Y-120700563D01*
X71584774Y-120692703D01*
X71573994Y-120665475D01*
X71568500Y-120651597D01*
X71564655Y-120640370D01*
X71564021Y-120638187D01*
X71552318Y-120597907D01*
X71546582Y-120588207D01*
X71542007Y-120580472D01*
X71533312Y-120562724D01*
X71525852Y-120543883D01*
X71499864Y-120508113D01*
X71493348Y-120498193D01*
X71474880Y-120466965D01*
X71474878Y-120466962D01*
X71470842Y-120460138D01*
X71456521Y-120445817D01*
X71443680Y-120430783D01*
X71436431Y-120420806D01*
X71431772Y-120414393D01*
X71425668Y-120409343D01*
X71425663Y-120409338D01*
X71397702Y-120386207D01*
X71388922Y-120378217D01*
X70799948Y-119789243D01*
X70765922Y-119726931D01*
X70770987Y-119656116D01*
X70799948Y-119611053D01*
X70829284Y-119581717D01*
X70866442Y-119528651D01*
X70916611Y-119457002D01*
X70957097Y-119399182D01*
X70959420Y-119394200D01*
X70959423Y-119394195D01*
X71048947Y-119202209D01*
X71048948Y-119202208D01*
X71051270Y-119197227D01*
X71108944Y-118981986D01*
X71128365Y-118760000D01*
X71108944Y-118538014D01*
X71067269Y-118382483D01*
X71052693Y-118328083D01*
X71052692Y-118328081D01*
X71051270Y-118322773D01*
X71036377Y-118290834D01*
X70959423Y-118125805D01*
X70959420Y-118125800D01*
X70957097Y-118120818D01*
X70829284Y-117938283D01*
X70671717Y-117780716D01*
X70636097Y-117755774D01*
X70591890Y-117724820D01*
X70489183Y-117652903D01*
X70484201Y-117650580D01*
X70484196Y-117650577D01*
X70384728Y-117604195D01*
X70331443Y-117557278D01*
X70311982Y-117489001D01*
X70332524Y-117421041D01*
X70384728Y-117375805D01*
X70484196Y-117329423D01*
X70484201Y-117329420D01*
X70489183Y-117327097D01*
X70624116Y-117232615D01*
X70667206Y-117202443D01*
X70667208Y-117202441D01*
X70671717Y-117199284D01*
X70829284Y-117041717D01*
X70883373Y-116964471D01*
X70916224Y-116917554D01*
X70957097Y-116859182D01*
X70959420Y-116854200D01*
X70959423Y-116854195D01*
X71048947Y-116662209D01*
X71048948Y-116662208D01*
X71051270Y-116657227D01*
X71108944Y-116441986D01*
X71128365Y-116220000D01*
X71108944Y-115998014D01*
X71051270Y-115782773D01*
X71033753Y-115745208D01*
X70959423Y-115585805D01*
X70959420Y-115585800D01*
X70957097Y-115580818D01*
X70885528Y-115478608D01*
X70832443Y-115402794D01*
X70832441Y-115402791D01*
X70829284Y-115398283D01*
X70671717Y-115240716D01*
X70636097Y-115215774D01*
X70591890Y-115184820D01*
X70489183Y-115112903D01*
X70484201Y-115110580D01*
X70484196Y-115110577D01*
X70384728Y-115064195D01*
X70331443Y-115017278D01*
X70311982Y-114949001D01*
X70332524Y-114881041D01*
X70384728Y-114835805D01*
X70484196Y-114789423D01*
X70484201Y-114789420D01*
X70489183Y-114787097D01*
X70591890Y-114715180D01*
X70667206Y-114662443D01*
X70667208Y-114662441D01*
X70671717Y-114659284D01*
X70829284Y-114501717D01*
X70870765Y-114442477D01*
X70915240Y-114378959D01*
X70957097Y-114319182D01*
X70959420Y-114314200D01*
X70959423Y-114314195D01*
X71048947Y-114122209D01*
X71048948Y-114122208D01*
X71051270Y-114117227D01*
X71108944Y-113901986D01*
X71128365Y-113680000D01*
X71108944Y-113458014D01*
X71051270Y-113242773D01*
X71046426Y-113232385D01*
X70959423Y-113045805D01*
X70959420Y-113045800D01*
X70957097Y-113040818D01*
X70829284Y-112858283D01*
X70671717Y-112700716D01*
X70636097Y-112675774D01*
X70554527Y-112618658D01*
X70489183Y-112572903D01*
X70484201Y-112570580D01*
X70484196Y-112570577D01*
X70384728Y-112524195D01*
X70331443Y-112477278D01*
X70311982Y-112409001D01*
X70332524Y-112341041D01*
X70384728Y-112295805D01*
X70484196Y-112249423D01*
X70484201Y-112249420D01*
X70489183Y-112247097D01*
X70621388Y-112154525D01*
X70667206Y-112122443D01*
X70667208Y-112122441D01*
X70671717Y-112119284D01*
X70829284Y-111961717D01*
X70834904Y-111953692D01*
X70915240Y-111838959D01*
X70957097Y-111779182D01*
X70959420Y-111774200D01*
X70959423Y-111774195D01*
X71048947Y-111582209D01*
X71048948Y-111582208D01*
X71051270Y-111577227D01*
X71108944Y-111361986D01*
X71128365Y-111140000D01*
X71108944Y-110918014D01*
X71051270Y-110702773D01*
X71042944Y-110684917D01*
X70959423Y-110505805D01*
X70959420Y-110505800D01*
X70957097Y-110500818D01*
X70829284Y-110318283D01*
X70671717Y-110160716D01*
X70636097Y-110135774D01*
X70573874Y-110092205D01*
X70489183Y-110032903D01*
X70484201Y-110030580D01*
X70484196Y-110030577D01*
X70384728Y-109984195D01*
X70331443Y-109937278D01*
X70311982Y-109869001D01*
X70332524Y-109801041D01*
X70384728Y-109755805D01*
X70484196Y-109709423D01*
X70484201Y-109709420D01*
X70489183Y-109707097D01*
X70613569Y-109620000D01*
X70667206Y-109582443D01*
X70667208Y-109582441D01*
X70671717Y-109579284D01*
X70829284Y-109421717D01*
X70847294Y-109395997D01*
X70885528Y-109341392D01*
X70957097Y-109239182D01*
X70959420Y-109234200D01*
X70959423Y-109234195D01*
X71048947Y-109042209D01*
X71048948Y-109042208D01*
X71051270Y-109037227D01*
X71108944Y-108821986D01*
X71128365Y-108600000D01*
X71108944Y-108378014D01*
X71051270Y-108162773D01*
X71043022Y-108145085D01*
X70959423Y-107965805D01*
X70959420Y-107965800D01*
X70957097Y-107960818D01*
X70953941Y-107956310D01*
X70953937Y-107956304D01*
X70951514Y-107952844D01*
X70928823Y-107885571D01*
X70946106Y-107816710D01*
X70965629Y-107791475D01*
X73589917Y-105167188D01*
X73652229Y-105133162D01*
X73723045Y-105138227D01*
X73779880Y-105180774D01*
X73788031Y-105193129D01*
X73790304Y-105198004D01*
X73793459Y-105202510D01*
X73793462Y-105202515D01*
X73834739Y-105261464D01*
X73921879Y-105385914D01*
X74084086Y-105548121D01*
X74271996Y-105679696D01*
X74276974Y-105682017D01*
X74276977Y-105682019D01*
X74306542Y-105695805D01*
X74359827Y-105742722D01*
X74379288Y-105810999D01*
X74358746Y-105878959D01*
X74306542Y-105924195D01*
X74276977Y-105937981D01*
X74276974Y-105937983D01*
X74271996Y-105940304D01*
X74084086Y-106071879D01*
X73921879Y-106234086D01*
X73790304Y-106421996D01*
X73787983Y-106426974D01*
X73787981Y-106426977D01*
X73696704Y-106622722D01*
X73693357Y-106629899D01*
X73691935Y-106635207D01*
X73691934Y-106635209D01*
X73673585Y-106703690D01*
X73633985Y-106851478D01*
X73613992Y-107080000D01*
X73633985Y-107308522D01*
X73635409Y-107313835D01*
X73635409Y-107313837D01*
X73689597Y-107516067D01*
X73693357Y-107530101D01*
X73695679Y-107535082D01*
X73695680Y-107535083D01*
X73787464Y-107731913D01*
X73790304Y-107738004D01*
X73921879Y-107925914D01*
X74084086Y-108088121D01*
X74271996Y-108219696D01*
X74276974Y-108222017D01*
X74276977Y-108222019D01*
X74306542Y-108235805D01*
X74359827Y-108282722D01*
X74379288Y-108350999D01*
X74358746Y-108418959D01*
X74306542Y-108464195D01*
X74276977Y-108477981D01*
X74276974Y-108477983D01*
X74271996Y-108480304D01*
X74084086Y-108611879D01*
X73921879Y-108774086D01*
X73790304Y-108961996D01*
X73787983Y-108966974D01*
X73787981Y-108966977D01*
X73696704Y-109162722D01*
X73693357Y-109169899D01*
X73691935Y-109175207D01*
X73691934Y-109175209D01*
X73654519Y-109314844D01*
X73633985Y-109391478D01*
X73613992Y-109620000D01*
X73633985Y-109848522D01*
X73635409Y-109853835D01*
X73635409Y-109853837D01*
X73689597Y-110056067D01*
X73693357Y-110070101D01*
X73695679Y-110075082D01*
X73695680Y-110075083D01*
X73787464Y-110271913D01*
X73790304Y-110278004D01*
X73921879Y-110465914D01*
X74084086Y-110628121D01*
X74271996Y-110759696D01*
X74276974Y-110762017D01*
X74276977Y-110762019D01*
X74306542Y-110775805D01*
X74359827Y-110822722D01*
X74379288Y-110890999D01*
X74358746Y-110958959D01*
X74306542Y-111004195D01*
X74276977Y-111017981D01*
X74276974Y-111017983D01*
X74271996Y-111020304D01*
X74084086Y-111151879D01*
X73921879Y-111314086D01*
X73790304Y-111501996D01*
X73787983Y-111506974D01*
X73787981Y-111506977D01*
X73696704Y-111702722D01*
X73693357Y-111709899D01*
X73691935Y-111715207D01*
X73691934Y-111715209D01*
X73669749Y-111798004D01*
X73633985Y-111931478D01*
X73613992Y-112160000D01*
X73633985Y-112388522D01*
X73635409Y-112393835D01*
X73635409Y-112393837D01*
X73689597Y-112596067D01*
X73693357Y-112610101D01*
X73695679Y-112615082D01*
X73695680Y-112615083D01*
X73787464Y-112811913D01*
X73790304Y-112818004D01*
X73921879Y-113005914D01*
X74084086Y-113168121D01*
X74088597Y-113171280D01*
X74090975Y-113173275D01*
X74130301Y-113232385D01*
X74131427Y-113303373D01*
X74093995Y-113363700D01*
X74032274Y-113391191D01*
X74032722Y-113393075D01*
X74025040Y-113394902D01*
X74017184Y-113395755D01*
X73880795Y-113446885D01*
X73764239Y-113534239D01*
X73676885Y-113650795D01*
X73625755Y-113787184D01*
X73619000Y-113849366D01*
X73619000Y-115550634D01*
X73625755Y-115612816D01*
X73676885Y-115749205D01*
X73764239Y-115865761D01*
X73880795Y-115953115D01*
X74017184Y-116004245D01*
X74079366Y-116011000D01*
X75780634Y-116011000D01*
X75842816Y-116004245D01*
X75979205Y-115953115D01*
X76095761Y-115865761D01*
X76183115Y-115749205D01*
X76234245Y-115612816D01*
X76241000Y-115550634D01*
X76241000Y-113849366D01*
X76234245Y-113787184D01*
X76183115Y-113650795D01*
X76095761Y-113534239D01*
X75979205Y-113446885D01*
X75842816Y-113395755D01*
X75834960Y-113394902D01*
X75827278Y-113393075D01*
X75827670Y-113391427D01*
X75770847Y-113367817D01*
X75730421Y-113309454D01*
X75727965Y-113238500D01*
X75769025Y-113173275D01*
X75771403Y-113171280D01*
X75775914Y-113168121D01*
X75938121Y-113005914D01*
X76069696Y-112818004D01*
X76072537Y-112811913D01*
X76164320Y-112615083D01*
X76164321Y-112615082D01*
X76166643Y-112610101D01*
X76170404Y-112596067D01*
X76224591Y-112393837D01*
X76224591Y-112393835D01*
X76226015Y-112388522D01*
X76246008Y-112160000D01*
X76226015Y-111931478D01*
X76190251Y-111798004D01*
X76168066Y-111715209D01*
X76168065Y-111715207D01*
X76166643Y-111709899D01*
X76163296Y-111702722D01*
X76072019Y-111506977D01*
X76072017Y-111506974D01*
X76069696Y-111501996D01*
X75938121Y-111314086D01*
X75775914Y-111151879D01*
X75588004Y-111020304D01*
X75583026Y-111017983D01*
X75583023Y-111017981D01*
X75553458Y-111004195D01*
X75500173Y-110957278D01*
X75480712Y-110889001D01*
X75501254Y-110821041D01*
X75553458Y-110775805D01*
X75583023Y-110762019D01*
X75583026Y-110762017D01*
X75588004Y-110759696D01*
X75775914Y-110628121D01*
X75938121Y-110465914D01*
X76069696Y-110278004D01*
X76072537Y-110271913D01*
X76164320Y-110075083D01*
X76164321Y-110075082D01*
X76166643Y-110070101D01*
X76170404Y-110056067D01*
X76224591Y-109853837D01*
X76224591Y-109853835D01*
X76226015Y-109848522D01*
X76246008Y-109620000D01*
X76226015Y-109391478D01*
X76205481Y-109314844D01*
X76168066Y-109175209D01*
X76168065Y-109175207D01*
X76166643Y-109169899D01*
X76163296Y-109162722D01*
X76072019Y-108966977D01*
X76072017Y-108966974D01*
X76069696Y-108961996D01*
X75938121Y-108774086D01*
X75775914Y-108611879D01*
X75588004Y-108480304D01*
X75583026Y-108477983D01*
X75583023Y-108477981D01*
X75553458Y-108464195D01*
X75500173Y-108417278D01*
X75480712Y-108349001D01*
X75501254Y-108281041D01*
X75553458Y-108235805D01*
X75583023Y-108222019D01*
X75583026Y-108222017D01*
X75588004Y-108219696D01*
X75775914Y-108088121D01*
X75938121Y-107925914D01*
X76069696Y-107738004D01*
X76072537Y-107731913D01*
X76164320Y-107535083D01*
X76164321Y-107535082D01*
X76166643Y-107530101D01*
X76170404Y-107516067D01*
X76224591Y-107313837D01*
X76224591Y-107313835D01*
X76226015Y-107308522D01*
X76246008Y-107080000D01*
X76226015Y-106851478D01*
X76186415Y-106703690D01*
X76168066Y-106635209D01*
X76168065Y-106635207D01*
X76166643Y-106629899D01*
X76163296Y-106622722D01*
X76072019Y-106426977D01*
X76072017Y-106426974D01*
X76069696Y-106421996D01*
X75938121Y-106234086D01*
X75775914Y-106071879D01*
X75588004Y-105940304D01*
X75583026Y-105937983D01*
X75583023Y-105937981D01*
X75553458Y-105924195D01*
X75500173Y-105877278D01*
X75480712Y-105809001D01*
X75501254Y-105741041D01*
X75553458Y-105695805D01*
X75583023Y-105682019D01*
X75583026Y-105682017D01*
X75588004Y-105679696D01*
X75775914Y-105548121D01*
X75938121Y-105385914D01*
X76069696Y-105198004D01*
X76072537Y-105191913D01*
X76164320Y-104995083D01*
X76164321Y-104995082D01*
X76166643Y-104990101D01*
X76169535Y-104979310D01*
X76224591Y-104773837D01*
X76224591Y-104773835D01*
X76226015Y-104768522D01*
X76246008Y-104540000D01*
X76226015Y-104311478D01*
X76203135Y-104226087D01*
X76168066Y-104095209D01*
X76168065Y-104095207D01*
X76166643Y-104089899D01*
X76148604Y-104051215D01*
X76072019Y-103886977D01*
X76072017Y-103886974D01*
X76069696Y-103881996D01*
X75938121Y-103694086D01*
X75924015Y-103679980D01*
X75889989Y-103617668D01*
X75895054Y-103546853D01*
X75924015Y-103501790D01*
X77707753Y-101718052D01*
X77716039Y-101710512D01*
X77722518Y-101706400D01*
X77769144Y-101656748D01*
X77771898Y-101653907D01*
X77791635Y-101634170D01*
X77794115Y-101630973D01*
X77801820Y-101621951D01*
X77804420Y-101619182D01*
X77832086Y-101589721D01*
X77835905Y-101582775D01*
X77835907Y-101582772D01*
X77841848Y-101571966D01*
X77852699Y-101555447D01*
X77855157Y-101552278D01*
X77865114Y-101539441D01*
X77868259Y-101532172D01*
X77868262Y-101532168D01*
X77882674Y-101498863D01*
X77887891Y-101488213D01*
X77909195Y-101449460D01*
X77914233Y-101429837D01*
X77920637Y-101411134D01*
X77925533Y-101399820D01*
X77925533Y-101399819D01*
X77928681Y-101392545D01*
X77929920Y-101384722D01*
X77929923Y-101384712D01*
X77935437Y-101349899D01*
X77966247Y-101285303D01*
X78054540Y-101187244D01*
X78056496Y-101189006D01*
X78103411Y-101152821D01*
X78174146Y-101146738D01*
X78238232Y-101181136D01*
X78258578Y-101201482D01*
X78292604Y-101263794D01*
X78294792Y-101277403D01*
X78312158Y-101442628D01*
X78371173Y-101624256D01*
X78466660Y-101789644D01*
X78471078Y-101794551D01*
X78471079Y-101794552D01*
X78506626Y-101834031D01*
X78594447Y-101931566D01*
X78658058Y-101977782D01*
X78738726Y-102036391D01*
X78748948Y-102043818D01*
X78754976Y-102046502D01*
X78754978Y-102046503D01*
X78851379Y-102089423D01*
X78923412Y-102121494D01*
X78990740Y-102135805D01*
X79103756Y-102159828D01*
X79103761Y-102159828D01*
X79110213Y-102161200D01*
X79301187Y-102161200D01*
X79307639Y-102159828D01*
X79307644Y-102159828D01*
X79420660Y-102135805D01*
X79487988Y-102121494D01*
X79560021Y-102089423D01*
X79656422Y-102046503D01*
X79656424Y-102046502D01*
X79662452Y-102043818D01*
X79672675Y-102036391D01*
X79753342Y-101977782D01*
X79816953Y-101931566D01*
X79904774Y-101834031D01*
X79940321Y-101794552D01*
X79940322Y-101794551D01*
X79944740Y-101789644D01*
X80040227Y-101624256D01*
X80099242Y-101442628D01*
X80111079Y-101330010D01*
X80118514Y-101259265D01*
X80119204Y-101252700D01*
X80111682Y-101181136D01*
X80099932Y-101069335D01*
X80099932Y-101069333D01*
X80099242Y-101062772D01*
X80040227Y-100881144D01*
X79944740Y-100715756D01*
X79816953Y-100573834D01*
X79662452Y-100461582D01*
X79656424Y-100458898D01*
X79656422Y-100458897D01*
X79494019Y-100386591D01*
X79494018Y-100386591D01*
X79487988Y-100383906D01*
X79394587Y-100364053D01*
X79307644Y-100345572D01*
X79307639Y-100345572D01*
X79301187Y-100344200D01*
X79245295Y-100344200D01*
X79177174Y-100324198D01*
X79156199Y-100307295D01*
X78779700Y-99930795D01*
X78381747Y-99532842D01*
X78374213Y-99524563D01*
X78370100Y-99518082D01*
X78320448Y-99471456D01*
X78317607Y-99468702D01*
X78297870Y-99448965D01*
X78294673Y-99446485D01*
X78285651Y-99438780D01*
X78268254Y-99422443D01*
X78253421Y-99408514D01*
X78246475Y-99404695D01*
X78246472Y-99404693D01*
X78235666Y-99398752D01*
X78219147Y-99387901D01*
X78218683Y-99387541D01*
X78203141Y-99375486D01*
X78195872Y-99372341D01*
X78195868Y-99372338D01*
X78162563Y-99357926D01*
X78151913Y-99352709D01*
X78113160Y-99331405D01*
X78093537Y-99326367D01*
X78074834Y-99319963D01*
X78063520Y-99315067D01*
X78063519Y-99315067D01*
X78056245Y-99311919D01*
X78048422Y-99310680D01*
X78048412Y-99310677D01*
X78012576Y-99305001D01*
X78000956Y-99302595D01*
X77965811Y-99293572D01*
X77965810Y-99293572D01*
X77958130Y-99291600D01*
X77937876Y-99291600D01*
X77918165Y-99290049D01*
X77915634Y-99289648D01*
X77898157Y-99286880D01*
X77890265Y-99287626D01*
X77854139Y-99291041D01*
X77842281Y-99291600D01*
X76894263Y-99291600D01*
X76883079Y-99291073D01*
X76875591Y-99289399D01*
X76867668Y-99289648D01*
X76807533Y-99291538D01*
X76803575Y-99291600D01*
X76775644Y-99291600D01*
X76771729Y-99292095D01*
X76771725Y-99292095D01*
X76771667Y-99292103D01*
X76771638Y-99292106D01*
X76759796Y-99293039D01*
X76715610Y-99294427D01*
X76698244Y-99299472D01*
X76696158Y-99300078D01*
X76676806Y-99304086D01*
X76664568Y-99305632D01*
X76664566Y-99305633D01*
X76656703Y-99306626D01*
X76615586Y-99322906D01*
X76604385Y-99326741D01*
X76561906Y-99339082D01*
X76555087Y-99343115D01*
X76555082Y-99343117D01*
X76544471Y-99349393D01*
X76526721Y-99358090D01*
X76507883Y-99365548D01*
X76501467Y-99370209D01*
X76501466Y-99370210D01*
X76472125Y-99391528D01*
X76462201Y-99398047D01*
X76424136Y-99420558D01*
X76422411Y-99417641D01*
X76370718Y-99437936D01*
X76301096Y-99424034D01*
X76250041Y-99374699D01*
X76234058Y-99323410D01*
X76226495Y-99236959D01*
X76226494Y-99236954D01*
X76226015Y-99231478D01*
X76202200Y-99142598D01*
X76168066Y-99015209D01*
X76168065Y-99015207D01*
X76166643Y-99009899D01*
X76158919Y-98993334D01*
X76072019Y-98806977D01*
X76072017Y-98806974D01*
X76069696Y-98801996D01*
X75938121Y-98614086D01*
X75775914Y-98451879D01*
X75588004Y-98320304D01*
X75583026Y-98317983D01*
X75583023Y-98317981D01*
X75553458Y-98304195D01*
X75500173Y-98257278D01*
X75480712Y-98189001D01*
X75501254Y-98121041D01*
X75553458Y-98075805D01*
X75583023Y-98062019D01*
X75583026Y-98062017D01*
X75588004Y-98059696D01*
X75775914Y-97928121D01*
X75938121Y-97765914D01*
X76069696Y-97578004D01*
X76072253Y-97572522D01*
X76164320Y-97375083D01*
X76164321Y-97375082D01*
X76166643Y-97370101D01*
X76170497Y-97355720D01*
X76224591Y-97153837D01*
X76224591Y-97153835D01*
X76226015Y-97148522D01*
X76246008Y-96920000D01*
X76226015Y-96691478D01*
X76224591Y-96686163D01*
X76168066Y-96475209D01*
X76168065Y-96475207D01*
X76166643Y-96469899D01*
X76163311Y-96462753D01*
X76163152Y-96461708D01*
X76162437Y-96459744D01*
X76162832Y-96459600D01*
X76152647Y-96392564D01*
X76181625Y-96327750D01*
X76241043Y-96288891D01*
X76277504Y-96283500D01*
X83771506Y-96283500D01*
X83839627Y-96303502D01*
X83860601Y-96320405D01*
X120662448Y-133122253D01*
X120669988Y-133130539D01*
X120674100Y-133137018D01*
X120679877Y-133142443D01*
X120723751Y-133183643D01*
X120726593Y-133186398D01*
X120746330Y-133206135D01*
X120749527Y-133208615D01*
X120758547Y-133216318D01*
X120790779Y-133246586D01*
X120797725Y-133250405D01*
X120797728Y-133250407D01*
X120808534Y-133256348D01*
X120825053Y-133267199D01*
X120841059Y-133279614D01*
X120848328Y-133282759D01*
X120848332Y-133282762D01*
X120881637Y-133297174D01*
X120892287Y-133302391D01*
X120931040Y-133323695D01*
X120938715Y-133325666D01*
X120938716Y-133325666D01*
X120950662Y-133328733D01*
X120969367Y-133335137D01*
X120987955Y-133343181D01*
X120995778Y-133344420D01*
X120995788Y-133344423D01*
X121031624Y-133350099D01*
X121043244Y-133352505D01*
X121075624Y-133360818D01*
X121086070Y-133363500D01*
X121106324Y-133363500D01*
X121126034Y-133365051D01*
X121146043Y-133368220D01*
X121153935Y-133367474D01*
X121190061Y-133364059D01*
X121201919Y-133363500D01*
X121842496Y-133363500D01*
X121910617Y-133383502D01*
X121957110Y-133437158D01*
X121967214Y-133507432D01*
X121956690Y-133542751D01*
X121953357Y-133549899D01*
X121951935Y-133555207D01*
X121951934Y-133555209D01*
X121895409Y-133766163D01*
X121893985Y-133771478D01*
X121873992Y-134000000D01*
X121893985Y-134228522D01*
X121895409Y-134233835D01*
X121895409Y-134233837D01*
X121949331Y-134435074D01*
X121953357Y-134450101D01*
X121955679Y-134455082D01*
X121955680Y-134455083D01*
X122046518Y-134649884D01*
X122050304Y-134658004D01*
X122181879Y-134845914D01*
X122344086Y-135008121D01*
X122531996Y-135139696D01*
X122536974Y-135142017D01*
X122536977Y-135142019D01*
X122566542Y-135155805D01*
X122619827Y-135202722D01*
X122639288Y-135270999D01*
X122618746Y-135338959D01*
X122566542Y-135384195D01*
X122536977Y-135397981D01*
X122536974Y-135397983D01*
X122531996Y-135400304D01*
X122344086Y-135531879D01*
X122181879Y-135694086D01*
X122050304Y-135881996D01*
X122047983Y-135886974D01*
X122047981Y-135886977D01*
X121958897Y-136078019D01*
X121953357Y-136089899D01*
X121951935Y-136095207D01*
X121951934Y-136095209D01*
X121895409Y-136306163D01*
X121893985Y-136311478D01*
X121873992Y-136540000D01*
X121893985Y-136768522D01*
X121895409Y-136773835D01*
X121895409Y-136773837D01*
X121948485Y-136971917D01*
X121953357Y-136990101D01*
X121955679Y-136995082D01*
X121955680Y-136995083D01*
X122046481Y-137189805D01*
X122050304Y-137198004D01*
X122181879Y-137385914D01*
X122344086Y-137548121D01*
X122531996Y-137679696D01*
X122536974Y-137682017D01*
X122536977Y-137682019D01*
X122734917Y-137774320D01*
X122739899Y-137776643D01*
X122745207Y-137778065D01*
X122745209Y-137778066D01*
X122956163Y-137834591D01*
X122956165Y-137834591D01*
X122961478Y-137836015D01*
X123190000Y-137856008D01*
X123418522Y-137836015D01*
X123423835Y-137834591D01*
X123423837Y-137834591D01*
X123634791Y-137778066D01*
X123634793Y-137778065D01*
X123640101Y-137776643D01*
X123645083Y-137774320D01*
X123843023Y-137682019D01*
X123843026Y-137682017D01*
X123848004Y-137679696D01*
X124035914Y-137548121D01*
X124198121Y-137385914D01*
X124329696Y-137198004D01*
X124333520Y-137189805D01*
X124424320Y-136995083D01*
X124424321Y-136995082D01*
X124426643Y-136990101D01*
X124431516Y-136971917D01*
X124484591Y-136773837D01*
X124484591Y-136773835D01*
X124486015Y-136768522D01*
X124506008Y-136540000D01*
X124486015Y-136311478D01*
X124484591Y-136306163D01*
X124428066Y-136095209D01*
X124428065Y-136095207D01*
X124426643Y-136089899D01*
X124421103Y-136078019D01*
X124332019Y-135886977D01*
X124332017Y-135886974D01*
X124329696Y-135881996D01*
X124198121Y-135694086D01*
X124035914Y-135531879D01*
X123848004Y-135400304D01*
X123843026Y-135397983D01*
X123843023Y-135397981D01*
X123813458Y-135384195D01*
X123760173Y-135337278D01*
X123740712Y-135269001D01*
X123761254Y-135201041D01*
X123813458Y-135155805D01*
X123843023Y-135142019D01*
X123843026Y-135142017D01*
X123848004Y-135139696D01*
X124035914Y-135008121D01*
X124198121Y-134845914D01*
X124329696Y-134658004D01*
X124333483Y-134649884D01*
X124356654Y-134600193D01*
X124403572Y-134546908D01*
X124471849Y-134527447D01*
X124539809Y-134547989D01*
X124559944Y-134564348D01*
X125499043Y-135503447D01*
X125506587Y-135511737D01*
X125510700Y-135518218D01*
X125516477Y-135523643D01*
X125560367Y-135564858D01*
X125563209Y-135567613D01*
X125582930Y-135587334D01*
X125586120Y-135589808D01*
X125595144Y-135597515D01*
X125627379Y-135627786D01*
X125634328Y-135631606D01*
X125645132Y-135637546D01*
X125661656Y-135648399D01*
X125677659Y-135660813D01*
X125718243Y-135678376D01*
X125728873Y-135683583D01*
X125767640Y-135704895D01*
X125775317Y-135706866D01*
X125775322Y-135706868D01*
X125787258Y-135709932D01*
X125805966Y-135716337D01*
X125824555Y-135724381D01*
X125832380Y-135725620D01*
X125832382Y-135725621D01*
X125868219Y-135731297D01*
X125879840Y-135733704D01*
X125914989Y-135742728D01*
X125922670Y-135744700D01*
X125942931Y-135744700D01*
X125962640Y-135746251D01*
X125982643Y-135749419D01*
X125990535Y-135748673D01*
X125995762Y-135748179D01*
X126026654Y-135745259D01*
X126038511Y-135744700D01*
X127037921Y-135744700D01*
X127106042Y-135764702D01*
X127152535Y-135818358D01*
X127162639Y-135888632D01*
X127152116Y-135923950D01*
X127068730Y-136102773D01*
X127011056Y-136318014D01*
X126991635Y-136540000D01*
X127011056Y-136761986D01*
X127068730Y-136977227D01*
X127071052Y-136982208D01*
X127071053Y-136982209D01*
X127160577Y-137174195D01*
X127160580Y-137174200D01*
X127162903Y-137179182D01*
X127290716Y-137361717D01*
X127448283Y-137519284D01*
X127452792Y-137522441D01*
X127452794Y-137522443D01*
X127528110Y-137575180D01*
X127630817Y-137647097D01*
X127635799Y-137649420D01*
X127635804Y-137649423D01*
X127814542Y-137732769D01*
X127832773Y-137741270D01*
X127838081Y-137742692D01*
X127838083Y-137742693D01*
X127866294Y-137750252D01*
X128048014Y-137798944D01*
X128270000Y-137818365D01*
X128491986Y-137798944D01*
X128673706Y-137750252D01*
X128701917Y-137742693D01*
X128701919Y-137742692D01*
X128707227Y-137741270D01*
X128727251Y-137731933D01*
X128797441Y-137721272D01*
X128862254Y-137750252D01*
X128901111Y-137809671D01*
X128906500Y-137846128D01*
X128906500Y-138151705D01*
X128886498Y-138219826D01*
X128869595Y-138240801D01*
X128647299Y-138463096D01*
X128584987Y-138497121D01*
X128558204Y-138500000D01*
X128502313Y-138500000D01*
X128495861Y-138501372D01*
X128495856Y-138501372D01*
X128426296Y-138516158D01*
X128315512Y-138539706D01*
X128309482Y-138542391D01*
X128309481Y-138542391D01*
X128147078Y-138614697D01*
X128147076Y-138614698D01*
X128141048Y-138617382D01*
X127986547Y-138729634D01*
X127982126Y-138734544D01*
X127982125Y-138734545D01*
X127885714Y-138841621D01*
X127858760Y-138871556D01*
X127763273Y-139036944D01*
X127704258Y-139218572D01*
X127703568Y-139225133D01*
X127703568Y-139225135D01*
X127696247Y-139294788D01*
X127684296Y-139408500D01*
X127684986Y-139415065D01*
X127701437Y-139571583D01*
X127704258Y-139598428D01*
X127763273Y-139780056D01*
X127858760Y-139945444D01*
X127986547Y-140087366D01*
X128141048Y-140199618D01*
X128147076Y-140202302D01*
X128147078Y-140202303D01*
X128309481Y-140274609D01*
X128315512Y-140277294D01*
X128408912Y-140297147D01*
X128495856Y-140315628D01*
X128495861Y-140315628D01*
X128502313Y-140317000D01*
X128693287Y-140317000D01*
X128699739Y-140315628D01*
X128699744Y-140315628D01*
X128786688Y-140297147D01*
X128880088Y-140277294D01*
X128886119Y-140274609D01*
X129048522Y-140202303D01*
X129048524Y-140202302D01*
X129054552Y-140199618D01*
X129209053Y-140087366D01*
X129336840Y-139945444D01*
X129401931Y-139832703D01*
X150290743Y-139832703D01*
X150328268Y-140117734D01*
X150404129Y-140395036D01*
X150405813Y-140398984D01*
X150501091Y-140622358D01*
X150516923Y-140659476D01*
X150528693Y-140679142D01*
X150636645Y-140859516D01*
X150664561Y-140906161D01*
X150844313Y-141130528D01*
X151052851Y-141328423D01*
X151286317Y-141496186D01*
X151290112Y-141498195D01*
X151290113Y-141498196D01*
X151311869Y-141509715D01*
X151540392Y-141630712D01*
X151810373Y-141729511D01*
X152091264Y-141790755D01*
X152119841Y-141793004D01*
X152314282Y-141808307D01*
X152314291Y-141808307D01*
X152316739Y-141808500D01*
X152472271Y-141808500D01*
X152474407Y-141808354D01*
X152474418Y-141808354D01*
X152682548Y-141794165D01*
X152682554Y-141794164D01*
X152686825Y-141793873D01*
X152691020Y-141793004D01*
X152691022Y-141793004D01*
X152827583Y-141764724D01*
X152968342Y-141735574D01*
X153239343Y-141639607D01*
X153494812Y-141507750D01*
X153498313Y-141505289D01*
X153498317Y-141505287D01*
X153612417Y-141425096D01*
X153730023Y-141342441D01*
X153940622Y-141146740D01*
X154122713Y-140924268D01*
X154272927Y-140679142D01*
X154297854Y-140622358D01*
X154386757Y-140419830D01*
X154388483Y-140415898D01*
X154467244Y-140139406D01*
X154507751Y-139854784D01*
X154507845Y-139836951D01*
X154509235Y-139571583D01*
X154509235Y-139571576D01*
X154509257Y-139567297D01*
X154471732Y-139282266D01*
X154395871Y-139004964D01*
X154307423Y-138797601D01*
X154284763Y-138744476D01*
X154284761Y-138744472D01*
X154283077Y-138740524D01*
X154162069Y-138538334D01*
X154137643Y-138497521D01*
X154137640Y-138497517D01*
X154135439Y-138493839D01*
X153955687Y-138269472D01*
X153747149Y-138071577D01*
X153513683Y-137903814D01*
X153491843Y-137892250D01*
X153423393Y-137856008D01*
X153259608Y-137769288D01*
X153066392Y-137698581D01*
X152993658Y-137671964D01*
X152993656Y-137671963D01*
X152989627Y-137670489D01*
X152708736Y-137609245D01*
X152677685Y-137606801D01*
X152485718Y-137591693D01*
X152485709Y-137591693D01*
X152483261Y-137591500D01*
X152327729Y-137591500D01*
X152325593Y-137591646D01*
X152325582Y-137591646D01*
X152117452Y-137605835D01*
X152117446Y-137605836D01*
X152113175Y-137606127D01*
X152108980Y-137606996D01*
X152108978Y-137606996D01*
X152003420Y-137628856D01*
X151831658Y-137664426D01*
X151560657Y-137760393D01*
X151305188Y-137892250D01*
X151301687Y-137894711D01*
X151301683Y-137894713D01*
X151291594Y-137901804D01*
X151069977Y-138057559D01*
X150859378Y-138253260D01*
X150677287Y-138475732D01*
X150527073Y-138720858D01*
X150525347Y-138724791D01*
X150525346Y-138724792D01*
X150425381Y-138952519D01*
X150411517Y-138984102D01*
X150410342Y-138988229D01*
X150410341Y-138988230D01*
X150394674Y-139043229D01*
X150332756Y-139260594D01*
X150292249Y-139545216D01*
X150292227Y-139549505D01*
X150292226Y-139549512D01*
X150290765Y-139828417D01*
X150290743Y-139832703D01*
X129401931Y-139832703D01*
X129432327Y-139780056D01*
X129491342Y-139598428D01*
X129494164Y-139571583D01*
X129508707Y-139433208D01*
X129535720Y-139367551D01*
X129544922Y-139357282D01*
X129932258Y-138969947D01*
X129940537Y-138962413D01*
X129947018Y-138958300D01*
X129993644Y-138908648D01*
X129996398Y-138905807D01*
X130016135Y-138886070D01*
X130018615Y-138882873D01*
X130026320Y-138873851D01*
X130028475Y-138871556D01*
X130056586Y-138841621D01*
X130060405Y-138834675D01*
X130060407Y-138834672D01*
X130066348Y-138823866D01*
X130077199Y-138807347D01*
X130084758Y-138797601D01*
X130089614Y-138791341D01*
X130092759Y-138784072D01*
X130092762Y-138784068D01*
X130107174Y-138750763D01*
X130112391Y-138740113D01*
X130133695Y-138701360D01*
X130138733Y-138681737D01*
X130145137Y-138663034D01*
X130150033Y-138651720D01*
X130150033Y-138651719D01*
X130153181Y-138644445D01*
X130154420Y-138636622D01*
X130154423Y-138636612D01*
X130160099Y-138600776D01*
X130162505Y-138589156D01*
X130171528Y-138554011D01*
X130171528Y-138554010D01*
X130173500Y-138546330D01*
X130173500Y-138526076D01*
X130175051Y-138506365D01*
X130176980Y-138494186D01*
X130178220Y-138486357D01*
X130174059Y-138442338D01*
X130173500Y-138430481D01*
X130173500Y-137846128D01*
X130193502Y-137778007D01*
X130247158Y-137731514D01*
X130317432Y-137721410D01*
X130352749Y-137731933D01*
X130372773Y-137741270D01*
X130378081Y-137742692D01*
X130378083Y-137742693D01*
X130406294Y-137750252D01*
X130588014Y-137798944D01*
X130810000Y-137818365D01*
X131031986Y-137798944D01*
X131213706Y-137750252D01*
X131241917Y-137742693D01*
X131241919Y-137742692D01*
X131247227Y-137741270D01*
X131265458Y-137732769D01*
X131444196Y-137649423D01*
X131444201Y-137649420D01*
X131449183Y-137647097D01*
X131551890Y-137575180D01*
X131627206Y-137522443D01*
X131627208Y-137522441D01*
X131631717Y-137519284D01*
X131789284Y-137361717D01*
X131917097Y-137179182D01*
X131919420Y-137174200D01*
X131919423Y-137174195D01*
X132008947Y-136982209D01*
X132008948Y-136982208D01*
X132011270Y-136977227D01*
X132068944Y-136761986D01*
X132088365Y-136540000D01*
X132068944Y-136318014D01*
X132067521Y-136312704D01*
X132067520Y-136312697D01*
X132057964Y-136277033D01*
X132059654Y-136206056D01*
X132090576Y-136155328D01*
X134041235Y-134204669D01*
X146012001Y-134204669D01*
X146012371Y-134211490D01*
X146017895Y-134262352D01*
X146021521Y-134277604D01*
X146066676Y-134398054D01*
X146075214Y-134413649D01*
X146151715Y-134515724D01*
X146164276Y-134528285D01*
X146266351Y-134604786D01*
X146281946Y-134613324D01*
X146402394Y-134658478D01*
X146417649Y-134662105D01*
X146468514Y-134667631D01*
X146475328Y-134668000D01*
X147047885Y-134668000D01*
X147063124Y-134663525D01*
X147064329Y-134662135D01*
X147066000Y-134654452D01*
X147066000Y-134649884D01*
X147574000Y-134649884D01*
X147578475Y-134665123D01*
X147579865Y-134666328D01*
X147587548Y-134667999D01*
X148164669Y-134667999D01*
X148171490Y-134667629D01*
X148222352Y-134662105D01*
X148237604Y-134658479D01*
X148358054Y-134613324D01*
X148373649Y-134604786D01*
X148475724Y-134528285D01*
X148488285Y-134515724D01*
X148564786Y-134413649D01*
X148573324Y-134398054D01*
X148618478Y-134277606D01*
X148622105Y-134262351D01*
X148627631Y-134211486D01*
X148628000Y-134204672D01*
X148628000Y-133632115D01*
X148623525Y-133616876D01*
X148622135Y-133615671D01*
X148614452Y-133614000D01*
X147592115Y-133614000D01*
X147576876Y-133618475D01*
X147575671Y-133619865D01*
X147574000Y-133627548D01*
X147574000Y-134649884D01*
X147066000Y-134649884D01*
X147066000Y-133632115D01*
X147061525Y-133616876D01*
X147060135Y-133615671D01*
X147052452Y-133614000D01*
X146030116Y-133614000D01*
X146014877Y-133618475D01*
X146013672Y-133619865D01*
X146012001Y-133627548D01*
X146012001Y-134204669D01*
X134041235Y-134204669D01*
X137425904Y-130820000D01*
X146006502Y-130820000D01*
X146026457Y-131048087D01*
X146027881Y-131053400D01*
X146027881Y-131053402D01*
X146078817Y-131243494D01*
X146085716Y-131269243D01*
X146088039Y-131274224D01*
X146088039Y-131274225D01*
X146180151Y-131471762D01*
X146180154Y-131471767D01*
X146182477Y-131476749D01*
X146313802Y-131664300D01*
X146475700Y-131826198D01*
X146480211Y-131829357D01*
X146484424Y-131832892D01*
X146483612Y-131833860D01*
X146524090Y-131884494D01*
X146531404Y-131955113D01*
X146499376Y-132018476D01*
X146438177Y-132054464D01*
X146421099Y-132057520D01*
X146417648Y-132057895D01*
X146402396Y-132061521D01*
X146281946Y-132106676D01*
X146266351Y-132115214D01*
X146164276Y-132191715D01*
X146151715Y-132204276D01*
X146075214Y-132306351D01*
X146066676Y-132321946D01*
X146021522Y-132442394D01*
X146017895Y-132457649D01*
X146012369Y-132508514D01*
X146012000Y-132515328D01*
X146012000Y-133087885D01*
X146016475Y-133103124D01*
X146017865Y-133104329D01*
X146025548Y-133106000D01*
X148609884Y-133106000D01*
X148625123Y-133101525D01*
X148626328Y-133100135D01*
X148627999Y-133092452D01*
X148627999Y-132515331D01*
X148627629Y-132508510D01*
X148622105Y-132457648D01*
X148618479Y-132442396D01*
X148573324Y-132321946D01*
X148564786Y-132306351D01*
X148488285Y-132204276D01*
X148475724Y-132191715D01*
X148373649Y-132115214D01*
X148358054Y-132106676D01*
X148237606Y-132061522D01*
X148222357Y-132057896D01*
X148218904Y-132057521D01*
X148216394Y-132056478D01*
X148214669Y-132056068D01*
X148214735Y-132055789D01*
X148153341Y-132030281D01*
X148112912Y-131971920D01*
X148110454Y-131900966D01*
X148146747Y-131839946D01*
X148158240Y-131830656D01*
X148159786Y-131829359D01*
X148164300Y-131826198D01*
X148326198Y-131664300D01*
X148457523Y-131476749D01*
X148459846Y-131471767D01*
X148459849Y-131471762D01*
X148551961Y-131274225D01*
X148551961Y-131274224D01*
X148554284Y-131269243D01*
X148561184Y-131243494D01*
X148612119Y-131053402D01*
X148612119Y-131053400D01*
X148613543Y-131048087D01*
X148633498Y-130820000D01*
X148613543Y-130591913D01*
X148582348Y-130475493D01*
X148555707Y-130376067D01*
X148555706Y-130376065D01*
X148554284Y-130370757D01*
X148530758Y-130320304D01*
X148459849Y-130168238D01*
X148459846Y-130168233D01*
X148457523Y-130163251D01*
X148326198Y-129975700D01*
X148164300Y-129813802D01*
X148159792Y-129810645D01*
X148159789Y-129810643D01*
X148025580Y-129716669D01*
X147976749Y-129682477D01*
X147971767Y-129680154D01*
X147971762Y-129680151D01*
X147936951Y-129663919D01*
X147883666Y-129617002D01*
X147864205Y-129548725D01*
X147884747Y-129480765D01*
X147936951Y-129435529D01*
X147971511Y-129419414D01*
X147981007Y-129413931D01*
X148159467Y-129288972D01*
X148167875Y-129281916D01*
X148321916Y-129127875D01*
X148328972Y-129119467D01*
X148453931Y-128941007D01*
X148459414Y-128931511D01*
X148551490Y-128734053D01*
X148555236Y-128723761D01*
X148601394Y-128551497D01*
X148601058Y-128537401D01*
X148593116Y-128534000D01*
X146052033Y-128534000D01*
X146038502Y-128537973D01*
X146037273Y-128546522D01*
X146084764Y-128723761D01*
X146088510Y-128734053D01*
X146180586Y-128931511D01*
X146186069Y-128941007D01*
X146311028Y-129119467D01*
X146318084Y-129127875D01*
X146472125Y-129281916D01*
X146480533Y-129288972D01*
X146658993Y-129413931D01*
X146668489Y-129419414D01*
X146703049Y-129435529D01*
X146756334Y-129482446D01*
X146775795Y-129550723D01*
X146755253Y-129618683D01*
X146703049Y-129663919D01*
X146668238Y-129680151D01*
X146668233Y-129680154D01*
X146663251Y-129682477D01*
X146614420Y-129716669D01*
X146480211Y-129810643D01*
X146480208Y-129810645D01*
X146475700Y-129813802D01*
X146313802Y-129975700D01*
X146182477Y-130163251D01*
X146180154Y-130168233D01*
X146180151Y-130168238D01*
X146109242Y-130320304D01*
X146085716Y-130370757D01*
X146084294Y-130376065D01*
X146084293Y-130376067D01*
X146057652Y-130475493D01*
X146026457Y-130591913D01*
X146006502Y-130820000D01*
X137425904Y-130820000D01*
X142505904Y-125740000D01*
X146006502Y-125740000D01*
X146026457Y-125968087D01*
X146027881Y-125973400D01*
X146027881Y-125973402D01*
X146078817Y-126163494D01*
X146085716Y-126189243D01*
X146088039Y-126194224D01*
X146088039Y-126194225D01*
X146180151Y-126391762D01*
X146180154Y-126391767D01*
X146182477Y-126396749D01*
X146313802Y-126584300D01*
X146475700Y-126746198D01*
X146480208Y-126749355D01*
X146480211Y-126749357D01*
X146558389Y-126804098D01*
X146663251Y-126877523D01*
X146668233Y-126879846D01*
X146668238Y-126879849D01*
X146703049Y-126896081D01*
X146756334Y-126942998D01*
X146775795Y-127011275D01*
X146755253Y-127079235D01*
X146703049Y-127124471D01*
X146668489Y-127140586D01*
X146658993Y-127146069D01*
X146480533Y-127271028D01*
X146472125Y-127278084D01*
X146318084Y-127432125D01*
X146311028Y-127440533D01*
X146186069Y-127618993D01*
X146180586Y-127628489D01*
X146088510Y-127825947D01*
X146084764Y-127836239D01*
X146038606Y-128008503D01*
X146038942Y-128022599D01*
X146046884Y-128026000D01*
X148587967Y-128026000D01*
X148601498Y-128022027D01*
X148602727Y-128013478D01*
X148555236Y-127836239D01*
X148551490Y-127825947D01*
X148459414Y-127628489D01*
X148453931Y-127618993D01*
X148328972Y-127440533D01*
X148321916Y-127432125D01*
X148167875Y-127278084D01*
X148159467Y-127271028D01*
X147981007Y-127146069D01*
X147971511Y-127140586D01*
X147936951Y-127124471D01*
X147883666Y-127077554D01*
X147864205Y-127009277D01*
X147884747Y-126941317D01*
X147936951Y-126896081D01*
X147971762Y-126879849D01*
X147971767Y-126879846D01*
X147976749Y-126877523D01*
X148081611Y-126804098D01*
X148159789Y-126749357D01*
X148159792Y-126749355D01*
X148164300Y-126746198D01*
X148326198Y-126584300D01*
X148457523Y-126396749D01*
X148459846Y-126391767D01*
X148459849Y-126391762D01*
X148551961Y-126194225D01*
X148551961Y-126194224D01*
X148554284Y-126189243D01*
X148561184Y-126163494D01*
X148612119Y-125973402D01*
X148612119Y-125973400D01*
X148613543Y-125968087D01*
X148633498Y-125740000D01*
X148613543Y-125511913D01*
X148595290Y-125443791D01*
X148555707Y-125296067D01*
X148555706Y-125296065D01*
X148554284Y-125290757D01*
X148550039Y-125281653D01*
X148459849Y-125088238D01*
X148459846Y-125088233D01*
X148457523Y-125083251D01*
X148326198Y-124895700D01*
X148164300Y-124733802D01*
X148159792Y-124730645D01*
X148159789Y-124730643D01*
X148054910Y-124657206D01*
X147976749Y-124602477D01*
X147971767Y-124600154D01*
X147971762Y-124600151D01*
X147936951Y-124583919D01*
X147883666Y-124537002D01*
X147864205Y-124468725D01*
X147884747Y-124400765D01*
X147936951Y-124355529D01*
X147971511Y-124339414D01*
X147981007Y-124333931D01*
X148159467Y-124208972D01*
X148167875Y-124201916D01*
X148321916Y-124047875D01*
X148328972Y-124039467D01*
X148453931Y-123861007D01*
X148459414Y-123851511D01*
X148551490Y-123654053D01*
X148555236Y-123643761D01*
X148601394Y-123471497D01*
X148601058Y-123457401D01*
X148593116Y-123454000D01*
X146052033Y-123454000D01*
X146038502Y-123457973D01*
X146037273Y-123466522D01*
X146084764Y-123643761D01*
X146088510Y-123654053D01*
X146180586Y-123851511D01*
X146186069Y-123861007D01*
X146311028Y-124039467D01*
X146318084Y-124047875D01*
X146472125Y-124201916D01*
X146480533Y-124208972D01*
X146658993Y-124333931D01*
X146668489Y-124339414D01*
X146703049Y-124355529D01*
X146756334Y-124402446D01*
X146775795Y-124470723D01*
X146755253Y-124538683D01*
X146703049Y-124583919D01*
X146668238Y-124600151D01*
X146668233Y-124600154D01*
X146663251Y-124602477D01*
X146585090Y-124657206D01*
X146480211Y-124730643D01*
X146480208Y-124730645D01*
X146475700Y-124733802D01*
X146313802Y-124895700D01*
X146182477Y-125083251D01*
X146180154Y-125088233D01*
X146180151Y-125088238D01*
X146089961Y-125281653D01*
X146085716Y-125290757D01*
X146084294Y-125296065D01*
X146084293Y-125296067D01*
X146044710Y-125443791D01*
X146026457Y-125511913D01*
X146006502Y-125740000D01*
X142505904Y-125740000D01*
X146462113Y-121783791D01*
X146524425Y-121749765D01*
X146595240Y-121754830D01*
X146623473Y-121769670D01*
X146663251Y-121797523D01*
X146668229Y-121799844D01*
X146668232Y-121799846D01*
X146703049Y-121816081D01*
X146756334Y-121862998D01*
X146775795Y-121931275D01*
X146755253Y-121999235D01*
X146703049Y-122044471D01*
X146668489Y-122060586D01*
X146658993Y-122066069D01*
X146480533Y-122191028D01*
X146472125Y-122198084D01*
X146318084Y-122352125D01*
X146311028Y-122360533D01*
X146186069Y-122538993D01*
X146180586Y-122548489D01*
X146088510Y-122745947D01*
X146084764Y-122756239D01*
X146038606Y-122928503D01*
X146038942Y-122942599D01*
X146046884Y-122946000D01*
X148587967Y-122946000D01*
X148601498Y-122942027D01*
X148602727Y-122933478D01*
X148555236Y-122756239D01*
X148551490Y-122745947D01*
X148459414Y-122548489D01*
X148453931Y-122538993D01*
X148328972Y-122360533D01*
X148321916Y-122352125D01*
X148167875Y-122198084D01*
X148159467Y-122191028D01*
X147981007Y-122066069D01*
X147971511Y-122060586D01*
X147936951Y-122044471D01*
X147883666Y-121997554D01*
X147864205Y-121929277D01*
X147884747Y-121861317D01*
X147936951Y-121816081D01*
X147971762Y-121799849D01*
X147971767Y-121799846D01*
X147976749Y-121797523D01*
X148156811Y-121671442D01*
X148159789Y-121669357D01*
X148159792Y-121669355D01*
X148164300Y-121666198D01*
X148326198Y-121504300D01*
X148457523Y-121316749D01*
X148459846Y-121311767D01*
X148459849Y-121311762D01*
X148551961Y-121114225D01*
X148551961Y-121114224D01*
X148554284Y-121109243D01*
X148561184Y-121083494D01*
X148612119Y-120893402D01*
X148612119Y-120893400D01*
X148613543Y-120888087D01*
X148633498Y-120660000D01*
X148613543Y-120431913D01*
X148609814Y-120417997D01*
X148555707Y-120216067D01*
X148555706Y-120216065D01*
X148554284Y-120210757D01*
X148551961Y-120205775D01*
X148459849Y-120008238D01*
X148459846Y-120008233D01*
X148457523Y-120003251D01*
X148326198Y-119815700D01*
X148164300Y-119653802D01*
X148159792Y-119650645D01*
X148159789Y-119650643D01*
X147985566Y-119528651D01*
X147976749Y-119522477D01*
X147971767Y-119520154D01*
X147971762Y-119520151D01*
X147936951Y-119503919D01*
X147883666Y-119457002D01*
X147864205Y-119388725D01*
X147884747Y-119320765D01*
X147936951Y-119275529D01*
X147971511Y-119259414D01*
X147981007Y-119253931D01*
X148159467Y-119128972D01*
X148167875Y-119121916D01*
X148321916Y-118967875D01*
X148328972Y-118959467D01*
X148453931Y-118781007D01*
X148459414Y-118771511D01*
X148551490Y-118574053D01*
X148555236Y-118563761D01*
X148601394Y-118391497D01*
X148601058Y-118377401D01*
X148593116Y-118374000D01*
X146052033Y-118374000D01*
X146038502Y-118377973D01*
X146037273Y-118386522D01*
X146084764Y-118563761D01*
X146088510Y-118574053D01*
X146180586Y-118771511D01*
X146186069Y-118781007D01*
X146311028Y-118959467D01*
X146318084Y-118967875D01*
X146472125Y-119121916D01*
X146480533Y-119128972D01*
X146658993Y-119253931D01*
X146668489Y-119259414D01*
X146703049Y-119275529D01*
X146756334Y-119322446D01*
X146775795Y-119390723D01*
X146755253Y-119458683D01*
X146703049Y-119503919D01*
X146668238Y-119520151D01*
X146668233Y-119520154D01*
X146663251Y-119522477D01*
X146654434Y-119528651D01*
X146480211Y-119650643D01*
X146480208Y-119650645D01*
X146475700Y-119653802D01*
X146313802Y-119815700D01*
X146310645Y-119820208D01*
X146310643Y-119820211D01*
X146221720Y-119947206D01*
X146211873Y-119961270D01*
X146200574Y-119977406D01*
X146145117Y-120021734D01*
X146105273Y-120030886D01*
X146083164Y-120032277D01*
X146083163Y-120032277D01*
X146075250Y-120032775D01*
X146067709Y-120035225D01*
X146067413Y-120035321D01*
X146044269Y-120040494D01*
X146043965Y-120040532D01*
X146043960Y-120040533D01*
X146036103Y-120041526D01*
X146028738Y-120044442D01*
X146028734Y-120044443D01*
X145983889Y-120062199D01*
X145976470Y-120064871D01*
X145923025Y-120082236D01*
X145916329Y-120086486D01*
X145916328Y-120086486D01*
X145916069Y-120086650D01*
X145894942Y-120097415D01*
X145894654Y-120097529D01*
X145894649Y-120097532D01*
X145887283Y-120100448D01*
X145880875Y-120105104D01*
X145880869Y-120105107D01*
X145841848Y-120133458D01*
X145835311Y-120137901D01*
X145787882Y-120168000D01*
X145782456Y-120173778D01*
X145782455Y-120173779D01*
X145782241Y-120174007D01*
X145764454Y-120189688D01*
X145764209Y-120189866D01*
X145764207Y-120189868D01*
X145757793Y-120194528D01*
X145752739Y-120200637D01*
X145752738Y-120200638D01*
X145721997Y-120237796D01*
X145716766Y-120243730D01*
X145683742Y-120278898D01*
X145683740Y-120278901D01*
X145678314Y-120284679D01*
X145674356Y-120291879D01*
X145674345Y-120291899D01*
X145661019Y-120311506D01*
X145660820Y-120311746D01*
X145660816Y-120311753D01*
X145655767Y-120317856D01*
X145648570Y-120333151D01*
X145631853Y-120368676D01*
X145628271Y-120375708D01*
X145601205Y-120424940D01*
X145599235Y-120432615D01*
X145599232Y-120432621D01*
X145599156Y-120432919D01*
X145591124Y-120455228D01*
X145590994Y-120455503D01*
X145590991Y-120455511D01*
X145587617Y-120462682D01*
X145578951Y-120508113D01*
X145577095Y-120517843D01*
X145575371Y-120525558D01*
X145570666Y-120543883D01*
X145563463Y-120571937D01*
X145561400Y-120579970D01*
X145561400Y-120588207D01*
X145559168Y-120611816D01*
X145557625Y-120619906D01*
X145560199Y-120660818D01*
X145561151Y-120675951D01*
X145561400Y-120683862D01*
X145561400Y-120840505D01*
X145541398Y-120908626D01*
X145524495Y-120929600D01*
X142543595Y-123910500D01*
X142481283Y-123944526D01*
X142410468Y-123939461D01*
X142353632Y-123896914D01*
X142328821Y-123830394D01*
X142328500Y-123821405D01*
X142328500Y-115580000D01*
X146006502Y-115580000D01*
X146026457Y-115808087D01*
X146027881Y-115813400D01*
X146027881Y-115813402D01*
X146078817Y-116003494D01*
X146085716Y-116029243D01*
X146088039Y-116034224D01*
X146088039Y-116034225D01*
X146180151Y-116231762D01*
X146180154Y-116231767D01*
X146182477Y-116236749D01*
X146313802Y-116424300D01*
X146475700Y-116586198D01*
X146480208Y-116589355D01*
X146480211Y-116589357D01*
X146558389Y-116644098D01*
X146663251Y-116717523D01*
X146668233Y-116719846D01*
X146668238Y-116719849D01*
X146703049Y-116736081D01*
X146756334Y-116782998D01*
X146775795Y-116851275D01*
X146755253Y-116919235D01*
X146703049Y-116964471D01*
X146668489Y-116980586D01*
X146658993Y-116986069D01*
X146480533Y-117111028D01*
X146472125Y-117118084D01*
X146318084Y-117272125D01*
X146311028Y-117280533D01*
X146186069Y-117458993D01*
X146180586Y-117468489D01*
X146088510Y-117665947D01*
X146084764Y-117676239D01*
X146038606Y-117848503D01*
X146038942Y-117862599D01*
X146046884Y-117866000D01*
X148587967Y-117866000D01*
X148601498Y-117862027D01*
X148602727Y-117853478D01*
X148555236Y-117676239D01*
X148551490Y-117665947D01*
X148459414Y-117468489D01*
X148453931Y-117458993D01*
X148328972Y-117280533D01*
X148321916Y-117272125D01*
X148167875Y-117118084D01*
X148159467Y-117111028D01*
X147981007Y-116986069D01*
X147971511Y-116980586D01*
X147936951Y-116964471D01*
X147883666Y-116917554D01*
X147864205Y-116849277D01*
X147884747Y-116781317D01*
X147936951Y-116736081D01*
X147971762Y-116719849D01*
X147971767Y-116719846D01*
X147976749Y-116717523D01*
X148081611Y-116644098D01*
X148159789Y-116589357D01*
X148159792Y-116589355D01*
X148164300Y-116586198D01*
X148326198Y-116424300D01*
X148457523Y-116236749D01*
X148459846Y-116231767D01*
X148459849Y-116231762D01*
X148551961Y-116034225D01*
X148551961Y-116034224D01*
X148554284Y-116029243D01*
X148561184Y-116003494D01*
X148612119Y-115813402D01*
X148612119Y-115813400D01*
X148613543Y-115808087D01*
X148633498Y-115580000D01*
X148613543Y-115351913D01*
X148582901Y-115237557D01*
X148555707Y-115136067D01*
X148555706Y-115136065D01*
X148554284Y-115130757D01*
X148544723Y-115110253D01*
X148459849Y-114928238D01*
X148459846Y-114928233D01*
X148457523Y-114923251D01*
X148326198Y-114735700D01*
X148164300Y-114573802D01*
X148159792Y-114570645D01*
X148159789Y-114570643D01*
X148054910Y-114497206D01*
X147976749Y-114442477D01*
X147971767Y-114440154D01*
X147971762Y-114440151D01*
X147937543Y-114424195D01*
X147884258Y-114377278D01*
X147864797Y-114309001D01*
X147885339Y-114241041D01*
X147937543Y-114195805D01*
X147971762Y-114179849D01*
X147971767Y-114179846D01*
X147976749Y-114177523D01*
X148081611Y-114104098D01*
X148159789Y-114049357D01*
X148159792Y-114049355D01*
X148164300Y-114046198D01*
X148326198Y-113884300D01*
X148457523Y-113696749D01*
X148459846Y-113691767D01*
X148459849Y-113691762D01*
X148551961Y-113494225D01*
X148551961Y-113494224D01*
X148554284Y-113489243D01*
X148561184Y-113463494D01*
X148612119Y-113273402D01*
X148612119Y-113273400D01*
X148613543Y-113268087D01*
X148633498Y-113040000D01*
X148613543Y-112811913D01*
X148580752Y-112689537D01*
X148555707Y-112596067D01*
X148555706Y-112596065D01*
X148554284Y-112590757D01*
X148529968Y-112538611D01*
X148459849Y-112388238D01*
X148459846Y-112388233D01*
X148457523Y-112383251D01*
X148351364Y-112231641D01*
X148329357Y-112200211D01*
X148329355Y-112200208D01*
X148326198Y-112195700D01*
X148164300Y-112033802D01*
X148159792Y-112030645D01*
X148159789Y-112030643D01*
X148026547Y-111937346D01*
X147976749Y-111902477D01*
X147971767Y-111900154D01*
X147971762Y-111900151D01*
X147937543Y-111884195D01*
X147884258Y-111837278D01*
X147864797Y-111769001D01*
X147885339Y-111701041D01*
X147937543Y-111655805D01*
X147971762Y-111639849D01*
X147971767Y-111639846D01*
X147976749Y-111637523D01*
X148081611Y-111564098D01*
X148159789Y-111509357D01*
X148159792Y-111509355D01*
X148164300Y-111506198D01*
X148326198Y-111344300D01*
X148350082Y-111310191D01*
X148454366Y-111161257D01*
X148457523Y-111156749D01*
X148459846Y-111151767D01*
X148459849Y-111151762D01*
X148551961Y-110954225D01*
X148551961Y-110954224D01*
X148554284Y-110949243D01*
X148561184Y-110923494D01*
X148612119Y-110733402D01*
X148612119Y-110733400D01*
X148613543Y-110728087D01*
X148633498Y-110500000D01*
X148613543Y-110271913D01*
X148582901Y-110157557D01*
X148555707Y-110056067D01*
X148555706Y-110056065D01*
X148554284Y-110050757D01*
X148502152Y-109938959D01*
X148459849Y-109848238D01*
X148459846Y-109848233D01*
X148457523Y-109843251D01*
X148359976Y-109703940D01*
X148329357Y-109660211D01*
X148329355Y-109660208D01*
X148326198Y-109655700D01*
X148164300Y-109493802D01*
X148159792Y-109490645D01*
X148159789Y-109490643D01*
X148054910Y-109417206D01*
X147976749Y-109362477D01*
X147971767Y-109360154D01*
X147971762Y-109360151D01*
X147937543Y-109344195D01*
X147884258Y-109297278D01*
X147864797Y-109229001D01*
X147885339Y-109161041D01*
X147937543Y-109115805D01*
X147971762Y-109099849D01*
X147971767Y-109099846D01*
X147976749Y-109097523D01*
X148093370Y-109015864D01*
X148159789Y-108969357D01*
X148159792Y-108969355D01*
X148164300Y-108966198D01*
X148326198Y-108804300D01*
X148335351Y-108791229D01*
X148454366Y-108621257D01*
X148457523Y-108616749D01*
X148459846Y-108611767D01*
X148459849Y-108611762D01*
X148551961Y-108414225D01*
X148551961Y-108414224D01*
X148554284Y-108409243D01*
X148558380Y-108393959D01*
X148612119Y-108193402D01*
X148612119Y-108193400D01*
X148613543Y-108188087D01*
X148633498Y-107960000D01*
X148613543Y-107731913D01*
X148582901Y-107617557D01*
X148555707Y-107516067D01*
X148555706Y-107516065D01*
X148554284Y-107510757D01*
X148551961Y-107505775D01*
X148459849Y-107308238D01*
X148459846Y-107308233D01*
X148457523Y-107303251D01*
X148326198Y-107115700D01*
X148164300Y-106953802D01*
X148159792Y-106950645D01*
X148159789Y-106950643D01*
X148054910Y-106877206D01*
X147976749Y-106822477D01*
X147971767Y-106820154D01*
X147971762Y-106820151D01*
X147937543Y-106804195D01*
X147884258Y-106757278D01*
X147864797Y-106689001D01*
X147885339Y-106621041D01*
X147937543Y-106575805D01*
X147971762Y-106559849D01*
X147971767Y-106559846D01*
X147976749Y-106557523D01*
X148081611Y-106484098D01*
X148159789Y-106429357D01*
X148159792Y-106429355D01*
X148164300Y-106426198D01*
X148326198Y-106264300D01*
X148350082Y-106230191D01*
X148454366Y-106081257D01*
X148457523Y-106076749D01*
X148459846Y-106071767D01*
X148459849Y-106071762D01*
X148551961Y-105874225D01*
X148551961Y-105874224D01*
X148554284Y-105869243D01*
X148561184Y-105843494D01*
X148612119Y-105653402D01*
X148612119Y-105653400D01*
X148613543Y-105648087D01*
X148633498Y-105420000D01*
X148613543Y-105191913D01*
X148611435Y-105184047D01*
X148555707Y-104976067D01*
X148555706Y-104976065D01*
X148554284Y-104970757D01*
X148538704Y-104937346D01*
X148459849Y-104768238D01*
X148459846Y-104768233D01*
X148457523Y-104763251D01*
X148326198Y-104575700D01*
X148164300Y-104413802D01*
X148159792Y-104410645D01*
X148159789Y-104410643D01*
X148054910Y-104337206D01*
X147976749Y-104282477D01*
X147971767Y-104280154D01*
X147971762Y-104280151D01*
X147774225Y-104188039D01*
X147774224Y-104188039D01*
X147769243Y-104185716D01*
X147763935Y-104184294D01*
X147763933Y-104184293D01*
X147553402Y-104127881D01*
X147553400Y-104127881D01*
X147548087Y-104126457D01*
X147320000Y-104106502D01*
X147091913Y-104126457D01*
X147086600Y-104127881D01*
X147086598Y-104127881D01*
X146876067Y-104184293D01*
X146876065Y-104184294D01*
X146870757Y-104185716D01*
X146865776Y-104188039D01*
X146865775Y-104188039D01*
X146668238Y-104280151D01*
X146668233Y-104280154D01*
X146663251Y-104282477D01*
X146585090Y-104337206D01*
X146480211Y-104410643D01*
X146480208Y-104410645D01*
X146475700Y-104413802D01*
X146313802Y-104575700D01*
X146182477Y-104763251D01*
X146180154Y-104768233D01*
X146180151Y-104768238D01*
X146101296Y-104937346D01*
X146085716Y-104970757D01*
X146084294Y-104976065D01*
X146084293Y-104976067D01*
X146028565Y-105184047D01*
X146026457Y-105191913D01*
X146006502Y-105420000D01*
X146026457Y-105648087D01*
X146027881Y-105653400D01*
X146027881Y-105653402D01*
X146078817Y-105843494D01*
X146085716Y-105869243D01*
X146088039Y-105874224D01*
X146088039Y-105874225D01*
X146180151Y-106071762D01*
X146180154Y-106071767D01*
X146182477Y-106076749D01*
X146185634Y-106081257D01*
X146289919Y-106230191D01*
X146313802Y-106264300D01*
X146475700Y-106426198D01*
X146480208Y-106429355D01*
X146480211Y-106429357D01*
X146558389Y-106484098D01*
X146663251Y-106557523D01*
X146668233Y-106559846D01*
X146668238Y-106559849D01*
X146702457Y-106575805D01*
X146755742Y-106622722D01*
X146775203Y-106690999D01*
X146754661Y-106758959D01*
X146702457Y-106804195D01*
X146668238Y-106820151D01*
X146668233Y-106820154D01*
X146663251Y-106822477D01*
X146585090Y-106877206D01*
X146480211Y-106950643D01*
X146480208Y-106950645D01*
X146475700Y-106953802D01*
X146313802Y-107115700D01*
X146182477Y-107303251D01*
X146180154Y-107308233D01*
X146180151Y-107308238D01*
X146088039Y-107505775D01*
X146085716Y-107510757D01*
X146084294Y-107516065D01*
X146084293Y-107516067D01*
X146057099Y-107617557D01*
X146026457Y-107731913D01*
X146006502Y-107960000D01*
X146026457Y-108188087D01*
X146027881Y-108193400D01*
X146027881Y-108193402D01*
X146081621Y-108393959D01*
X146085716Y-108409243D01*
X146088039Y-108414224D01*
X146088039Y-108414225D01*
X146180151Y-108611762D01*
X146180154Y-108611767D01*
X146182477Y-108616749D01*
X146185634Y-108621257D01*
X146304650Y-108791229D01*
X146313802Y-108804300D01*
X146475700Y-108966198D01*
X146480208Y-108969355D01*
X146480211Y-108969357D01*
X146546630Y-109015864D01*
X146663251Y-109097523D01*
X146668233Y-109099846D01*
X146668238Y-109099849D01*
X146702457Y-109115805D01*
X146755742Y-109162722D01*
X146775203Y-109230999D01*
X146754661Y-109298959D01*
X146702457Y-109344195D01*
X146668238Y-109360151D01*
X146668233Y-109360154D01*
X146663251Y-109362477D01*
X146585090Y-109417206D01*
X146480211Y-109490643D01*
X146480208Y-109490645D01*
X146475700Y-109493802D01*
X146313802Y-109655700D01*
X146310645Y-109660208D01*
X146310643Y-109660211D01*
X146280024Y-109703940D01*
X146182477Y-109843251D01*
X146180154Y-109848233D01*
X146180151Y-109848238D01*
X146137848Y-109938959D01*
X146085716Y-110050757D01*
X146084294Y-110056065D01*
X146084293Y-110056067D01*
X146057099Y-110157557D01*
X146026457Y-110271913D01*
X146006502Y-110500000D01*
X146026457Y-110728087D01*
X146027881Y-110733400D01*
X146027881Y-110733402D01*
X146078817Y-110923494D01*
X146085716Y-110949243D01*
X146088039Y-110954224D01*
X146088039Y-110954225D01*
X146180151Y-111151762D01*
X146180154Y-111151767D01*
X146182477Y-111156749D01*
X146185634Y-111161257D01*
X146289919Y-111310191D01*
X146313802Y-111344300D01*
X146475700Y-111506198D01*
X146480208Y-111509355D01*
X146480211Y-111509357D01*
X146558389Y-111564098D01*
X146663251Y-111637523D01*
X146668233Y-111639846D01*
X146668238Y-111639849D01*
X146702457Y-111655805D01*
X146755742Y-111702722D01*
X146775203Y-111770999D01*
X146754661Y-111838959D01*
X146702457Y-111884195D01*
X146668238Y-111900151D01*
X146668233Y-111900154D01*
X146663251Y-111902477D01*
X146613453Y-111937346D01*
X146480211Y-112030643D01*
X146480208Y-112030645D01*
X146475700Y-112033802D01*
X146313802Y-112195700D01*
X146310645Y-112200208D01*
X146310643Y-112200211D01*
X146288636Y-112231641D01*
X146182477Y-112383251D01*
X146180154Y-112388233D01*
X146180151Y-112388238D01*
X146110032Y-112538611D01*
X146085716Y-112590757D01*
X146084294Y-112596065D01*
X146084293Y-112596067D01*
X146059248Y-112689537D01*
X146026457Y-112811913D01*
X146006502Y-113040000D01*
X146026457Y-113268087D01*
X146027881Y-113273400D01*
X146027881Y-113273402D01*
X146078817Y-113463494D01*
X146085716Y-113489243D01*
X146088039Y-113494224D01*
X146088039Y-113494225D01*
X146180151Y-113691762D01*
X146180154Y-113691767D01*
X146182477Y-113696749D01*
X146313802Y-113884300D01*
X146475700Y-114046198D01*
X146480208Y-114049355D01*
X146480211Y-114049357D01*
X146558389Y-114104098D01*
X146663251Y-114177523D01*
X146668233Y-114179846D01*
X146668238Y-114179849D01*
X146702457Y-114195805D01*
X146755742Y-114242722D01*
X146775203Y-114310999D01*
X146754661Y-114378959D01*
X146702457Y-114424195D01*
X146668238Y-114440151D01*
X146668233Y-114440154D01*
X146663251Y-114442477D01*
X146585090Y-114497206D01*
X146480211Y-114570643D01*
X146480208Y-114570645D01*
X146475700Y-114573802D01*
X146313802Y-114735700D01*
X146182477Y-114923251D01*
X146180154Y-114928233D01*
X146180151Y-114928238D01*
X146095277Y-115110253D01*
X146085716Y-115130757D01*
X146084294Y-115136065D01*
X146084293Y-115136067D01*
X146057099Y-115237557D01*
X146026457Y-115351913D01*
X146006502Y-115580000D01*
X142328500Y-115580000D01*
X142328500Y-99070427D01*
X142348502Y-99002306D01*
X142389618Y-98962550D01*
X142392994Y-98960896D01*
X142574860Y-98831173D01*
X142733096Y-98673489D01*
X142745300Y-98656506D01*
X142863453Y-98492077D01*
X142864776Y-98493028D01*
X142911645Y-98449857D01*
X142981580Y-98437625D01*
X143047026Y-98465144D01*
X143074875Y-98496994D01*
X143134987Y-98595088D01*
X143281250Y-98763938D01*
X143453126Y-98906632D01*
X143646000Y-99019338D01*
X143854692Y-99099030D01*
X143859760Y-99100061D01*
X143859763Y-99100062D01*
X143920451Y-99112409D01*
X144073597Y-99143567D01*
X144078772Y-99143757D01*
X144078774Y-99143757D01*
X144291673Y-99151564D01*
X144291677Y-99151564D01*
X144296837Y-99151753D01*
X144301957Y-99151097D01*
X144301959Y-99151097D01*
X144513288Y-99124025D01*
X144513289Y-99124025D01*
X144518416Y-99123368D01*
X144554944Y-99112409D01*
X144727429Y-99060661D01*
X144727434Y-99060659D01*
X144732384Y-99059174D01*
X144932994Y-98960896D01*
X145114860Y-98831173D01*
X145273096Y-98673489D01*
X145285300Y-98656506D01*
X145403453Y-98492077D01*
X145404776Y-98493028D01*
X145451645Y-98449857D01*
X145521580Y-98437625D01*
X145587026Y-98465144D01*
X145614875Y-98496994D01*
X145674987Y-98595088D01*
X145821250Y-98763938D01*
X145993126Y-98906632D01*
X146186000Y-99019338D01*
X146394692Y-99099030D01*
X146399760Y-99100061D01*
X146399763Y-99100062D01*
X146460451Y-99112409D01*
X146613597Y-99143567D01*
X146618772Y-99143757D01*
X146618774Y-99143757D01*
X146831673Y-99151564D01*
X146831677Y-99151564D01*
X146836837Y-99151753D01*
X146841957Y-99151097D01*
X146841959Y-99151097D01*
X147053288Y-99124025D01*
X147053289Y-99124025D01*
X147058416Y-99123368D01*
X147094944Y-99112409D01*
X147267429Y-99060661D01*
X147267434Y-99060659D01*
X147272384Y-99059174D01*
X147472994Y-98960896D01*
X147654860Y-98831173D01*
X147813096Y-98673489D01*
X147825300Y-98656506D01*
X147940435Y-98496277D01*
X147943453Y-98492077D01*
X147951214Y-98476375D01*
X148040136Y-98296453D01*
X148040137Y-98296451D01*
X148042430Y-98291811D01*
X148080202Y-98167489D01*
X148105865Y-98083023D01*
X148105865Y-98083021D01*
X148107370Y-98078069D01*
X148136529Y-97856590D01*
X148138156Y-97790000D01*
X148119852Y-97567361D01*
X148065431Y-97350702D01*
X147976354Y-97145840D01*
X147855014Y-96958277D01*
X147704670Y-96793051D01*
X147700619Y-96789852D01*
X147700615Y-96789848D01*
X147533414Y-96657800D01*
X147533410Y-96657798D01*
X147529359Y-96654598D01*
X147488053Y-96631796D01*
X147438084Y-96581364D01*
X147423312Y-96511921D01*
X147448428Y-96445516D01*
X147475780Y-96418909D01*
X147545377Y-96369266D01*
X147654860Y-96291173D01*
X147673594Y-96272505D01*
X147743422Y-96202920D01*
X147813096Y-96133489D01*
X147816601Y-96128612D01*
X147940435Y-95956277D01*
X147943453Y-95952077D01*
X147964320Y-95909857D01*
X148040136Y-95756453D01*
X148040137Y-95756451D01*
X148042430Y-95751811D01*
X148107370Y-95538069D01*
X148136529Y-95316590D01*
X148138156Y-95250000D01*
X148119852Y-95027361D01*
X148065431Y-94810702D01*
X147976354Y-94605840D01*
X147894498Y-94479310D01*
X147857822Y-94422617D01*
X147857820Y-94422614D01*
X147855014Y-94418277D01*
X147704670Y-94253051D01*
X147700619Y-94249852D01*
X147700615Y-94249848D01*
X147533414Y-94117800D01*
X147533410Y-94117798D01*
X147529359Y-94114598D01*
X147333789Y-94006638D01*
X147328920Y-94004914D01*
X147328916Y-94004912D01*
X147128087Y-93933795D01*
X147128083Y-93933794D01*
X147123212Y-93932069D01*
X147118119Y-93931162D01*
X147118116Y-93931161D01*
X146908373Y-93893800D01*
X146908367Y-93893799D01*
X146903284Y-93892894D01*
X146829452Y-93891992D01*
X146685081Y-93890228D01*
X146685079Y-93890228D01*
X146679911Y-93890165D01*
X146459091Y-93923955D01*
X146246756Y-93993357D01*
X146203872Y-94015681D01*
X146096071Y-94071799D01*
X146048607Y-94096507D01*
X146044474Y-94099610D01*
X146044471Y-94099612D01*
X145914408Y-94197266D01*
X145869965Y-94230635D01*
X145804346Y-94299301D01*
X145737064Y-94369708D01*
X145715629Y-94392138D01*
X145608201Y-94549621D01*
X145553293Y-94594621D01*
X145482768Y-94602792D01*
X145419021Y-94571538D01*
X145398324Y-94547054D01*
X145317822Y-94422617D01*
X145317820Y-94422614D01*
X145315014Y-94418277D01*
X145164670Y-94253051D01*
X145160619Y-94249852D01*
X145160615Y-94249848D01*
X144993414Y-94117800D01*
X144993410Y-94117798D01*
X144989359Y-94114598D01*
X144793789Y-94006638D01*
X144788920Y-94004914D01*
X144788916Y-94004912D01*
X144588087Y-93933795D01*
X144588083Y-93933794D01*
X144583212Y-93932069D01*
X144578119Y-93931162D01*
X144578116Y-93931161D01*
X144368373Y-93893800D01*
X144368367Y-93893799D01*
X144363284Y-93892894D01*
X144289452Y-93891992D01*
X144145081Y-93890228D01*
X144145079Y-93890228D01*
X144139911Y-93890165D01*
X143919091Y-93923955D01*
X143706756Y-93993357D01*
X143663872Y-94015681D01*
X143556071Y-94071799D01*
X143508607Y-94096507D01*
X143504474Y-94099610D01*
X143504471Y-94099612D01*
X143374408Y-94197266D01*
X143329965Y-94230635D01*
X143264346Y-94299301D01*
X143197064Y-94369708D01*
X143175629Y-94392138D01*
X143068201Y-94549621D01*
X143013293Y-94594621D01*
X142942768Y-94602792D01*
X142879021Y-94571538D01*
X142858324Y-94547054D01*
X142777822Y-94422617D01*
X142777820Y-94422614D01*
X142775014Y-94418277D01*
X142624670Y-94253051D01*
X142620619Y-94249852D01*
X142620615Y-94249848D01*
X142453414Y-94117800D01*
X142453410Y-94117798D01*
X142449359Y-94114598D01*
X142253789Y-94006638D01*
X142248920Y-94004914D01*
X142248916Y-94004912D01*
X142048087Y-93933795D01*
X142048083Y-93933794D01*
X142043212Y-93932069D01*
X142038119Y-93931162D01*
X142038116Y-93931161D01*
X141828373Y-93893800D01*
X141828367Y-93893799D01*
X141823284Y-93892894D01*
X141749452Y-93891992D01*
X141605081Y-93890228D01*
X141605079Y-93890228D01*
X141599911Y-93890165D01*
X141379091Y-93923955D01*
X141166756Y-93993357D01*
X141123872Y-94015681D01*
X141016071Y-94071799D01*
X140968607Y-94096507D01*
X140964474Y-94099610D01*
X140964471Y-94099612D01*
X140834408Y-94197266D01*
X140789965Y-94230635D01*
X140724346Y-94299301D01*
X140657064Y-94369708D01*
X140635629Y-94392138D01*
X140632720Y-94396403D01*
X140632714Y-94396411D01*
X140592673Y-94455109D01*
X140528204Y-94549618D01*
X140527898Y-94550066D01*
X140472987Y-94595069D01*
X140402462Y-94603240D01*
X140338715Y-94571986D01*
X140318017Y-94547501D01*
X140288062Y-94501197D01*
X140277377Y-94491995D01*
X140267812Y-94496398D01*
X138401737Y-96362473D01*
X138399874Y-96365885D01*
X138349672Y-96416087D01*
X138289286Y-96431500D01*
X138256866Y-96431500D01*
X138194684Y-96438255D01*
X138058295Y-96489385D01*
X137941739Y-96576739D01*
X137854385Y-96693295D01*
X137803255Y-96829684D01*
X137796500Y-96891866D01*
X137796500Y-98688134D01*
X137803255Y-98750316D01*
X137854385Y-98886705D01*
X137941739Y-99003261D01*
X138058295Y-99090615D01*
X138194684Y-99141745D01*
X138256866Y-99148500D01*
X139570700Y-99148500D01*
X139638821Y-99168502D01*
X139685314Y-99222158D01*
X139696700Y-99274500D01*
X139696700Y-115565206D01*
X139676698Y-115633327D01*
X139659795Y-115654301D01*
X132104071Y-123210024D01*
X132041759Y-123244050D01*
X131970944Y-123238985D01*
X131911763Y-123193200D01*
X131792443Y-123022794D01*
X131792441Y-123022791D01*
X131789284Y-123018283D01*
X131631717Y-122860716D01*
X131596097Y-122835774D01*
X131521408Y-122783476D01*
X131449183Y-122732903D01*
X131444201Y-122730580D01*
X131444196Y-122730577D01*
X131344728Y-122684195D01*
X131291443Y-122637278D01*
X131271982Y-122569001D01*
X131292524Y-122501041D01*
X131344728Y-122455805D01*
X131444196Y-122409423D01*
X131444201Y-122409420D01*
X131449183Y-122407097D01*
X131584116Y-122312615D01*
X131627206Y-122282443D01*
X131627208Y-122282441D01*
X131631717Y-122279284D01*
X131789284Y-122121717D01*
X131843373Y-122044471D01*
X131892703Y-121974020D01*
X131917097Y-121939182D01*
X131919420Y-121934200D01*
X131919423Y-121934195D01*
X132008947Y-121742209D01*
X132008948Y-121742208D01*
X132011270Y-121737227D01*
X132068944Y-121521986D01*
X132088365Y-121300000D01*
X132068944Y-121078014D01*
X132011270Y-120862773D01*
X132002944Y-120844917D01*
X131919423Y-120665805D01*
X131919420Y-120665800D01*
X131917097Y-120660818D01*
X131819711Y-120521737D01*
X131792443Y-120482794D01*
X131792441Y-120482791D01*
X131789284Y-120478283D01*
X131631717Y-120320716D01*
X131617699Y-120310900D01*
X131482264Y-120216067D01*
X131449183Y-120192903D01*
X131444201Y-120190580D01*
X131444196Y-120190577D01*
X131344728Y-120144195D01*
X131291443Y-120097278D01*
X131271982Y-120029001D01*
X131292524Y-119961041D01*
X131344728Y-119915805D01*
X131444196Y-119869423D01*
X131444201Y-119869420D01*
X131449183Y-119867097D01*
X131560369Y-119789243D01*
X131627206Y-119742443D01*
X131627210Y-119742440D01*
X131631717Y-119739284D01*
X131789284Y-119581717D01*
X131826442Y-119528651D01*
X131876611Y-119457002D01*
X131917097Y-119399182D01*
X131919420Y-119394200D01*
X131919423Y-119394195D01*
X132008947Y-119202209D01*
X132008948Y-119202208D01*
X132011270Y-119197227D01*
X132068944Y-118981986D01*
X132088365Y-118760000D01*
X132068944Y-118538014D01*
X132027269Y-118382483D01*
X132012693Y-118328083D01*
X132012692Y-118328081D01*
X132011270Y-118322773D01*
X131996377Y-118290834D01*
X131919423Y-118125805D01*
X131919420Y-118125800D01*
X131917097Y-118120818D01*
X131789284Y-117938283D01*
X131631717Y-117780716D01*
X131596097Y-117755774D01*
X131551890Y-117724820D01*
X131449183Y-117652903D01*
X131444201Y-117650580D01*
X131444196Y-117650577D01*
X131344728Y-117604195D01*
X131291443Y-117557278D01*
X131271982Y-117489001D01*
X131292524Y-117421041D01*
X131344728Y-117375805D01*
X131444196Y-117329423D01*
X131444201Y-117329420D01*
X131449183Y-117327097D01*
X131584116Y-117232615D01*
X131627206Y-117202443D01*
X131627208Y-117202441D01*
X131631717Y-117199284D01*
X131789284Y-117041717D01*
X131843373Y-116964471D01*
X131876224Y-116917554D01*
X131917097Y-116859182D01*
X131919420Y-116854200D01*
X131919423Y-116854195D01*
X132008947Y-116662209D01*
X132008948Y-116662208D01*
X132011270Y-116657227D01*
X132068944Y-116441986D01*
X132088365Y-116220000D01*
X132068944Y-115998014D01*
X132011270Y-115782773D01*
X131993753Y-115745208D01*
X131919423Y-115585805D01*
X131919420Y-115585800D01*
X131917097Y-115580818D01*
X131845528Y-115478608D01*
X131792443Y-115402794D01*
X131792441Y-115402791D01*
X131789284Y-115398283D01*
X131631717Y-115240716D01*
X131596097Y-115215774D01*
X131551890Y-115184820D01*
X131449183Y-115112903D01*
X131444201Y-115110580D01*
X131444196Y-115110577D01*
X131344728Y-115064195D01*
X131291443Y-115017278D01*
X131271982Y-114949001D01*
X131292524Y-114881041D01*
X131344728Y-114835805D01*
X131444196Y-114789423D01*
X131444201Y-114789420D01*
X131449183Y-114787097D01*
X131551890Y-114715180D01*
X131627206Y-114662443D01*
X131627208Y-114662441D01*
X131631717Y-114659284D01*
X131789284Y-114501717D01*
X131830765Y-114442477D01*
X131875240Y-114378959D01*
X131917097Y-114319182D01*
X131919420Y-114314200D01*
X131919423Y-114314195D01*
X132008947Y-114122209D01*
X132008948Y-114122208D01*
X132011270Y-114117227D01*
X132068944Y-113901986D01*
X132088365Y-113680000D01*
X132068944Y-113458014D01*
X132011270Y-113242773D01*
X132006426Y-113232385D01*
X131919423Y-113045805D01*
X131919420Y-113045800D01*
X131917097Y-113040818D01*
X131789284Y-112858283D01*
X131631717Y-112700716D01*
X131596097Y-112675774D01*
X131514527Y-112618658D01*
X131449183Y-112572903D01*
X131444201Y-112570580D01*
X131444196Y-112570577D01*
X131344728Y-112524195D01*
X131291443Y-112477278D01*
X131271982Y-112409001D01*
X131292524Y-112341041D01*
X131344728Y-112295805D01*
X131444196Y-112249423D01*
X131444201Y-112249420D01*
X131449183Y-112247097D01*
X131581388Y-112154525D01*
X131627206Y-112122443D01*
X131627208Y-112122441D01*
X131631717Y-112119284D01*
X131789284Y-111961717D01*
X131794904Y-111953692D01*
X131875240Y-111838959D01*
X131917097Y-111779182D01*
X131919420Y-111774200D01*
X131919423Y-111774195D01*
X132008947Y-111582209D01*
X132008948Y-111582208D01*
X132011270Y-111577227D01*
X132068944Y-111361986D01*
X132088365Y-111140000D01*
X132068944Y-110918014D01*
X132011270Y-110702773D01*
X132002944Y-110684917D01*
X131919423Y-110505805D01*
X131919420Y-110505800D01*
X131917097Y-110500818D01*
X131789284Y-110318283D01*
X131631717Y-110160716D01*
X131596097Y-110135774D01*
X131533874Y-110092205D01*
X131449183Y-110032903D01*
X131444201Y-110030580D01*
X131444196Y-110030577D01*
X131344728Y-109984195D01*
X131291443Y-109937278D01*
X131271982Y-109869001D01*
X131292524Y-109801041D01*
X131344728Y-109755805D01*
X131444196Y-109709423D01*
X131444201Y-109709420D01*
X131449183Y-109707097D01*
X131573569Y-109620000D01*
X131627206Y-109582443D01*
X131627208Y-109582441D01*
X131631717Y-109579284D01*
X131789284Y-109421717D01*
X131807294Y-109395997D01*
X131845528Y-109341392D01*
X131917097Y-109239182D01*
X131919420Y-109234200D01*
X131919423Y-109234195D01*
X132008947Y-109042209D01*
X132008948Y-109042208D01*
X132011270Y-109037227D01*
X132068944Y-108821986D01*
X132088365Y-108600000D01*
X132068944Y-108378014D01*
X132011270Y-108162773D01*
X132003022Y-108145085D01*
X131919423Y-107965805D01*
X131919420Y-107965800D01*
X131917097Y-107960818D01*
X131789284Y-107778283D01*
X131631717Y-107620716D01*
X131449183Y-107492903D01*
X131444201Y-107490580D01*
X131444196Y-107490577D01*
X131344728Y-107444195D01*
X131291443Y-107397278D01*
X131271982Y-107329001D01*
X131292524Y-107261041D01*
X131344728Y-107215805D01*
X131444196Y-107169423D01*
X131444201Y-107169420D01*
X131449183Y-107167097D01*
X131581388Y-107074525D01*
X131627206Y-107042443D01*
X131627208Y-107042441D01*
X131631717Y-107039284D01*
X131789284Y-106881717D01*
X131814180Y-106846163D01*
X131875240Y-106758959D01*
X131917097Y-106699182D01*
X131919420Y-106694200D01*
X131919423Y-106694195D01*
X132008947Y-106502209D01*
X132008948Y-106502208D01*
X132011270Y-106497227D01*
X132068944Y-106281986D01*
X132088365Y-106060000D01*
X132068944Y-105838014D01*
X132011270Y-105622773D01*
X132002944Y-105604917D01*
X131919423Y-105425805D01*
X131919420Y-105425800D01*
X131917097Y-105420818D01*
X131789284Y-105238283D01*
X131631717Y-105080716D01*
X131604526Y-105061676D01*
X131523459Y-105004912D01*
X131449183Y-104952903D01*
X131444201Y-104950580D01*
X131444196Y-104950577D01*
X131344728Y-104904195D01*
X131291443Y-104857278D01*
X131271982Y-104789001D01*
X131292524Y-104721041D01*
X131344728Y-104675805D01*
X131444196Y-104629423D01*
X131444201Y-104629420D01*
X131449183Y-104627097D01*
X131581388Y-104534525D01*
X131627206Y-104502443D01*
X131627208Y-104502441D01*
X131631717Y-104499284D01*
X131789284Y-104341717D01*
X131814180Y-104306163D01*
X131873796Y-104221022D01*
X131917097Y-104159182D01*
X131919420Y-104154200D01*
X131919423Y-104154195D01*
X132008947Y-103962209D01*
X132008948Y-103962208D01*
X132011270Y-103957227D01*
X132068944Y-103741986D01*
X132088365Y-103520000D01*
X132068944Y-103298014D01*
X132011270Y-103082773D01*
X132008947Y-103077791D01*
X131919423Y-102885805D01*
X131919420Y-102885800D01*
X131917097Y-102880818D01*
X131789284Y-102698283D01*
X131631717Y-102540716D01*
X131596097Y-102515774D01*
X131490023Y-102441500D01*
X131449183Y-102412903D01*
X131444201Y-102410580D01*
X131444196Y-102410577D01*
X131344728Y-102364195D01*
X131291443Y-102317278D01*
X131271982Y-102249001D01*
X131292524Y-102181041D01*
X131344728Y-102135805D01*
X131444196Y-102089423D01*
X131444201Y-102089420D01*
X131449183Y-102087097D01*
X131551890Y-102015180D01*
X131627206Y-101962443D01*
X131627208Y-101962441D01*
X131631717Y-101959284D01*
X131789284Y-101801717D01*
X131801742Y-101783926D01*
X131860071Y-101700623D01*
X131917097Y-101619182D01*
X131919420Y-101614200D01*
X131919423Y-101614195D01*
X132008947Y-101422209D01*
X132008948Y-101422208D01*
X132011270Y-101417227D01*
X132019983Y-101384712D01*
X132044187Y-101294379D01*
X132068944Y-101201986D01*
X132088365Y-100980000D01*
X132068944Y-100758014D01*
X132011270Y-100542773D01*
X131959369Y-100431470D01*
X131919423Y-100345805D01*
X131919420Y-100345800D01*
X131917097Y-100340818D01*
X131815745Y-100196073D01*
X131792443Y-100162794D01*
X131792441Y-100162791D01*
X131789284Y-100158283D01*
X131631717Y-100000716D01*
X131626975Y-99997395D01*
X131511811Y-99916756D01*
X131449183Y-99872903D01*
X131444201Y-99870580D01*
X131444196Y-99870577D01*
X131344728Y-99824195D01*
X131291443Y-99777278D01*
X131271982Y-99709001D01*
X131292524Y-99641041D01*
X131344728Y-99595805D01*
X131444196Y-99549423D01*
X131444201Y-99549420D01*
X131449183Y-99547097D01*
X131573569Y-99460000D01*
X131627206Y-99422443D01*
X131627208Y-99422441D01*
X131631717Y-99419284D01*
X131789284Y-99261717D01*
X131814180Y-99226163D01*
X131896671Y-99108353D01*
X131917097Y-99079182D01*
X131919420Y-99074200D01*
X131919423Y-99074195D01*
X132008947Y-98882209D01*
X132008948Y-98882208D01*
X132011270Y-98877227D01*
X132068944Y-98661986D01*
X132088365Y-98440000D01*
X132068944Y-98218014D01*
X132020963Y-98038949D01*
X132012693Y-98008083D01*
X132012692Y-98008081D01*
X132011270Y-98002773D01*
X131999727Y-97978019D01*
X131919423Y-97805805D01*
X131919420Y-97805800D01*
X131917097Y-97800818D01*
X131789284Y-97618283D01*
X131631717Y-97460716D01*
X131624514Y-97455672D01*
X131512382Y-97377156D01*
X131449183Y-97332903D01*
X131444201Y-97330580D01*
X131444196Y-97330577D01*
X131344728Y-97284195D01*
X131291443Y-97237278D01*
X131271982Y-97169001D01*
X131292524Y-97101041D01*
X131344728Y-97055805D01*
X131444196Y-97009423D01*
X131444201Y-97009420D01*
X131449183Y-97007097D01*
X131581388Y-96914525D01*
X131627206Y-96882443D01*
X131627208Y-96882441D01*
X131631717Y-96879284D01*
X131789284Y-96721717D01*
X131809186Y-96693295D01*
X131876844Y-96596669D01*
X131917097Y-96539182D01*
X131919420Y-96534200D01*
X131919423Y-96534195D01*
X132008947Y-96342209D01*
X132008948Y-96342208D01*
X132011270Y-96337227D01*
X132013810Y-96327750D01*
X132036332Y-96243695D01*
X132068944Y-96121986D01*
X132088365Y-95900000D01*
X132068944Y-95678014D01*
X132011270Y-95462773D01*
X131999727Y-95438019D01*
X131919423Y-95265805D01*
X131919420Y-95265800D01*
X131917097Y-95260818D01*
X131889820Y-95221863D01*
X137793050Y-95221863D01*
X137805309Y-95434477D01*
X137806745Y-95444697D01*
X137853565Y-95652446D01*
X137856645Y-95662275D01*
X137936770Y-95859603D01*
X137941413Y-95868794D01*
X138021460Y-95999420D01*
X138031916Y-96008880D01*
X138040694Y-96005096D01*
X138782978Y-95262812D01*
X138790592Y-95248868D01*
X138790461Y-95247035D01*
X138786210Y-95240420D01*
X138044849Y-94499059D01*
X138033313Y-94492759D01*
X138021031Y-94502382D01*
X137973089Y-94572662D01*
X137968004Y-94581613D01*
X137878338Y-94774783D01*
X137874775Y-94784470D01*
X137817864Y-94989681D01*
X137815933Y-94999800D01*
X137793302Y-95211574D01*
X137793050Y-95221863D01*
X131889820Y-95221863D01*
X131804761Y-95100386D01*
X131792443Y-95082794D01*
X131792441Y-95082791D01*
X131789284Y-95078283D01*
X131631717Y-94920716D01*
X131616214Y-94909860D01*
X131512509Y-94837245D01*
X131449183Y-94792903D01*
X131444201Y-94790580D01*
X131444196Y-94790577D01*
X131344728Y-94744195D01*
X131291443Y-94697278D01*
X131271982Y-94629001D01*
X131292524Y-94561041D01*
X131344728Y-94515805D01*
X131444196Y-94469423D01*
X131444201Y-94469420D01*
X131449183Y-94467097D01*
X131556234Y-94392138D01*
X131627206Y-94342443D01*
X131627208Y-94342441D01*
X131631717Y-94339284D01*
X131789284Y-94181717D01*
X131814180Y-94146163D01*
X131827999Y-94126427D01*
X138396223Y-94126427D01*
X138402968Y-94138758D01*
X139142188Y-94877978D01*
X139156132Y-94885592D01*
X139157965Y-94885461D01*
X139164580Y-94881210D01*
X139908389Y-94137401D01*
X139915410Y-94124544D01*
X139908611Y-94115213D01*
X139904554Y-94112518D01*
X139718117Y-94009599D01*
X139708705Y-94005369D01*
X139507959Y-93934280D01*
X139497989Y-93931646D01*
X139288327Y-93894301D01*
X139278073Y-93893331D01*
X139065116Y-93890728D01*
X139054832Y-93891448D01*
X138844321Y-93923661D01*
X138834293Y-93926050D01*
X138631868Y-93992212D01*
X138622359Y-93996209D01*
X138433466Y-94094540D01*
X138424734Y-94100039D01*
X138404677Y-94115099D01*
X138396223Y-94126427D01*
X131827999Y-94126427D01*
X131897073Y-94027779D01*
X131917097Y-93999182D01*
X131919420Y-93994200D01*
X131919423Y-93994195D01*
X132008947Y-93802209D01*
X132008948Y-93802208D01*
X132011270Y-93797227D01*
X132068944Y-93581986D01*
X132088365Y-93360000D01*
X132068944Y-93138014D01*
X132011270Y-92922773D01*
X131978809Y-92853160D01*
X131919423Y-92725805D01*
X131919420Y-92725800D01*
X131917097Y-92720818D01*
X131810736Y-92568919D01*
X131792443Y-92542794D01*
X131792441Y-92542791D01*
X131789284Y-92538283D01*
X131631717Y-92380716D01*
X131593048Y-92353639D01*
X131548881Y-92322713D01*
X131504553Y-92267255D01*
X131497244Y-92196636D01*
X131529275Y-92133276D01*
X131590477Y-92097291D01*
X131616342Y-92094094D01*
X131616320Y-92093684D01*
X131619718Y-92093500D01*
X131623134Y-92093500D01*
X131685316Y-92086745D01*
X131821705Y-92035615D01*
X131938261Y-91948261D01*
X132025615Y-91831705D01*
X132076745Y-91695316D01*
X132083500Y-91633134D01*
X132083500Y-90006866D01*
X132076745Y-89944684D01*
X132025615Y-89808295D01*
X131938261Y-89691739D01*
X131821705Y-89604385D01*
X131685316Y-89553255D01*
X131623134Y-89546500D01*
X129996866Y-89546500D01*
X129934684Y-89553255D01*
X129798295Y-89604385D01*
X129681739Y-89691739D01*
X129594385Y-89808295D01*
X129543255Y-89944684D01*
X129536500Y-90006866D01*
X129536500Y-90010282D01*
X129536316Y-90013680D01*
X129535101Y-90013614D01*
X129516498Y-90076969D01*
X129462842Y-90123462D01*
X129392568Y-90133566D01*
X129327988Y-90104072D01*
X129307287Y-90081119D01*
X129252443Y-90002794D01*
X129252441Y-90002791D01*
X129249284Y-89998283D01*
X129091717Y-89840716D01*
X129065500Y-89822358D01*
X129011890Y-89784820D01*
X128909183Y-89712903D01*
X128904201Y-89710580D01*
X128904196Y-89710577D01*
X128712209Y-89621053D01*
X128712208Y-89621053D01*
X128707227Y-89618730D01*
X128701919Y-89617308D01*
X128701917Y-89617307D01*
X128635536Y-89599520D01*
X128491986Y-89561056D01*
X128270000Y-89541635D01*
X128048014Y-89561056D01*
X127904464Y-89599520D01*
X127838083Y-89617307D01*
X127838081Y-89617308D01*
X127832773Y-89618730D01*
X127827792Y-89621052D01*
X127827791Y-89621053D01*
X127635805Y-89710577D01*
X127635800Y-89710580D01*
X127630818Y-89712903D01*
X127528608Y-89784472D01*
X127474501Y-89822358D01*
X127448283Y-89840716D01*
X127290716Y-89998283D01*
X127287559Y-90002791D01*
X127287557Y-90002794D01*
X127284706Y-90006866D01*
X127162903Y-90180818D01*
X127160580Y-90185800D01*
X127160577Y-90185805D01*
X127071797Y-90376195D01*
X127068730Y-90382773D01*
X127011056Y-90598014D01*
X126991635Y-90820000D01*
X127011056Y-91041986D01*
X127068730Y-91257227D01*
X127071052Y-91262208D01*
X127071053Y-91262209D01*
X127160577Y-91454195D01*
X127160580Y-91454200D01*
X127162903Y-91459182D01*
X127204454Y-91518523D01*
X127287085Y-91636531D01*
X127290716Y-91641717D01*
X127448283Y-91799284D01*
X127452792Y-91802441D01*
X127452794Y-91802443D01*
X127498612Y-91834525D01*
X127630817Y-91927097D01*
X127635802Y-91929421D01*
X127635808Y-91929425D01*
X127735272Y-91975805D01*
X127788558Y-92022722D01*
X127808019Y-92090999D01*
X127787478Y-92158959D01*
X127735273Y-92204195D01*
X127635805Y-92250577D01*
X127635800Y-92250580D01*
X127630818Y-92252903D01*
X127560629Y-92302050D01*
X127501943Y-92343143D01*
X127448283Y-92380716D01*
X127290716Y-92538283D01*
X127287559Y-92542791D01*
X127287557Y-92542794D01*
X127269264Y-92568919D01*
X127162903Y-92720818D01*
X127160580Y-92725800D01*
X127160577Y-92725805D01*
X127101191Y-92853160D01*
X127068730Y-92922773D01*
X127011056Y-93138014D01*
X126991635Y-93360000D01*
X127011056Y-93581986D01*
X127068730Y-93797227D01*
X127071052Y-93802208D01*
X127071053Y-93802209D01*
X127160577Y-93994195D01*
X127160580Y-93994200D01*
X127162903Y-93999182D01*
X127182927Y-94027779D01*
X127265821Y-94146163D01*
X127290716Y-94181717D01*
X127448283Y-94339284D01*
X127452792Y-94342441D01*
X127452794Y-94342443D01*
X127523766Y-94392138D01*
X127630817Y-94467097D01*
X127635802Y-94469421D01*
X127635808Y-94469425D01*
X127735272Y-94515805D01*
X127788558Y-94562722D01*
X127808019Y-94630999D01*
X127787478Y-94698959D01*
X127735273Y-94744195D01*
X127728895Y-94747169D01*
X127635805Y-94790577D01*
X127635800Y-94790580D01*
X127630818Y-94792903D01*
X127547102Y-94851522D01*
X127463787Y-94909860D01*
X127448283Y-94920716D01*
X127290716Y-95078283D01*
X127287559Y-95082791D01*
X127287557Y-95082794D01*
X127275239Y-95100386D01*
X127162903Y-95260818D01*
X127160580Y-95265800D01*
X127160577Y-95265805D01*
X127080273Y-95438019D01*
X127068730Y-95462773D01*
X127011056Y-95678014D01*
X126991635Y-95900000D01*
X127011056Y-96121986D01*
X127043668Y-96243695D01*
X127066191Y-96327750D01*
X127068730Y-96337227D01*
X127071052Y-96342208D01*
X127071053Y-96342209D01*
X127160577Y-96534195D01*
X127160580Y-96534200D01*
X127162903Y-96539182D01*
X127203156Y-96596669D01*
X127270815Y-96693295D01*
X127290716Y-96721717D01*
X127448283Y-96879284D01*
X127452792Y-96882441D01*
X127452794Y-96882443D01*
X127498612Y-96914525D01*
X127630817Y-97007097D01*
X127635802Y-97009421D01*
X127635808Y-97009425D01*
X127735272Y-97055805D01*
X127788558Y-97102722D01*
X127808019Y-97170999D01*
X127787478Y-97238959D01*
X127735273Y-97284195D01*
X127635805Y-97330577D01*
X127635800Y-97330580D01*
X127630818Y-97332903D01*
X127562009Y-97381084D01*
X127455487Y-97455672D01*
X127448283Y-97460716D01*
X127290716Y-97618283D01*
X127162903Y-97800818D01*
X127160580Y-97805800D01*
X127160577Y-97805805D01*
X127080273Y-97978019D01*
X127068730Y-98002773D01*
X127067308Y-98008081D01*
X127067307Y-98008083D01*
X127059037Y-98038949D01*
X127011056Y-98218014D01*
X126991635Y-98440000D01*
X127011056Y-98661986D01*
X127068730Y-98877227D01*
X127071052Y-98882208D01*
X127071053Y-98882209D01*
X127160577Y-99074195D01*
X127160580Y-99074200D01*
X127162903Y-99079182D01*
X127183329Y-99108353D01*
X127265821Y-99226163D01*
X127290716Y-99261717D01*
X127448283Y-99419284D01*
X127452792Y-99422441D01*
X127452794Y-99422443D01*
X127506431Y-99460000D01*
X127630817Y-99547097D01*
X127635802Y-99549421D01*
X127635808Y-99549425D01*
X127735272Y-99595805D01*
X127788558Y-99642722D01*
X127808019Y-99710999D01*
X127787478Y-99778959D01*
X127735273Y-99824195D01*
X127635805Y-99870577D01*
X127635800Y-99870580D01*
X127630818Y-99872903D01*
X127577694Y-99910101D01*
X127453026Y-99997395D01*
X127448283Y-100000716D01*
X127290716Y-100158283D01*
X127287559Y-100162791D01*
X127287557Y-100162794D01*
X127264255Y-100196073D01*
X127162903Y-100340818D01*
X127160580Y-100345800D01*
X127160577Y-100345805D01*
X127120631Y-100431470D01*
X127068730Y-100542773D01*
X127011056Y-100758014D01*
X126991635Y-100980000D01*
X127011056Y-101201986D01*
X127035813Y-101294379D01*
X127060018Y-101384712D01*
X127068730Y-101417227D01*
X127071052Y-101422208D01*
X127071053Y-101422209D01*
X127160577Y-101614195D01*
X127160580Y-101614200D01*
X127162903Y-101619182D01*
X127219929Y-101700623D01*
X127278259Y-101783926D01*
X127290716Y-101801717D01*
X127448283Y-101959284D01*
X127452792Y-101962441D01*
X127452794Y-101962443D01*
X127528110Y-102015180D01*
X127630817Y-102087097D01*
X127635802Y-102089421D01*
X127635808Y-102089425D01*
X127735272Y-102135805D01*
X127788558Y-102182722D01*
X127808019Y-102250999D01*
X127787478Y-102318959D01*
X127735273Y-102364195D01*
X127635805Y-102410577D01*
X127635800Y-102410580D01*
X127630818Y-102412903D01*
X127544730Y-102473183D01*
X127483904Y-102515774D01*
X127448283Y-102540716D01*
X127290716Y-102698283D01*
X127162903Y-102880818D01*
X127160580Y-102885800D01*
X127160577Y-102885805D01*
X127071053Y-103077791D01*
X127068730Y-103082773D01*
X127011056Y-103298014D01*
X126991635Y-103520000D01*
X127011056Y-103741986D01*
X127068730Y-103957227D01*
X127071052Y-103962208D01*
X127071053Y-103962209D01*
X127160577Y-104154195D01*
X127160580Y-104154200D01*
X127162903Y-104159182D01*
X127206204Y-104221022D01*
X127265821Y-104306163D01*
X127290716Y-104341717D01*
X127448283Y-104499284D01*
X127452792Y-104502441D01*
X127452794Y-104502443D01*
X127498612Y-104534525D01*
X127630817Y-104627097D01*
X127635802Y-104629421D01*
X127635808Y-104629425D01*
X127735272Y-104675805D01*
X127788558Y-104722722D01*
X127808019Y-104790999D01*
X127787478Y-104858959D01*
X127735273Y-104904195D01*
X127721886Y-104910437D01*
X127635805Y-104950577D01*
X127635800Y-104950580D01*
X127630818Y-104952903D01*
X127570579Y-104995083D01*
X127475475Y-105061676D01*
X127448283Y-105080716D01*
X127290716Y-105238283D01*
X127162903Y-105420818D01*
X127160580Y-105425800D01*
X127160577Y-105425805D01*
X127077056Y-105604917D01*
X127068730Y-105622773D01*
X127011056Y-105838014D01*
X126991635Y-106060000D01*
X127011056Y-106281986D01*
X127068730Y-106497227D01*
X127071052Y-106502208D01*
X127071053Y-106502209D01*
X127160577Y-106694195D01*
X127160580Y-106694200D01*
X127162903Y-106699182D01*
X127204760Y-106758959D01*
X127265821Y-106846163D01*
X127290716Y-106881717D01*
X127448283Y-107039284D01*
X127452792Y-107042441D01*
X127452794Y-107042443D01*
X127498612Y-107074525D01*
X127630817Y-107167097D01*
X127635802Y-107169421D01*
X127635808Y-107169425D01*
X127735272Y-107215805D01*
X127788558Y-107262722D01*
X127808019Y-107330999D01*
X127787478Y-107398959D01*
X127735273Y-107444195D01*
X127635805Y-107490577D01*
X127635800Y-107490580D01*
X127630818Y-107492903D01*
X127448283Y-107620716D01*
X127290716Y-107778283D01*
X127162903Y-107960818D01*
X127160580Y-107965800D01*
X127160577Y-107965805D01*
X127076978Y-108145085D01*
X127068730Y-108162773D01*
X127011056Y-108378014D01*
X126991635Y-108600000D01*
X127011056Y-108821986D01*
X127068730Y-109037227D01*
X127071052Y-109042208D01*
X127071053Y-109042209D01*
X127160577Y-109234195D01*
X127160580Y-109234200D01*
X127162903Y-109239182D01*
X127234472Y-109341392D01*
X127272707Y-109395997D01*
X127290716Y-109421717D01*
X127448283Y-109579284D01*
X127452792Y-109582441D01*
X127452794Y-109582443D01*
X127506431Y-109620000D01*
X127630817Y-109707097D01*
X127635802Y-109709421D01*
X127635808Y-109709425D01*
X127735272Y-109755805D01*
X127788558Y-109802722D01*
X127808019Y-109870999D01*
X127787478Y-109938959D01*
X127735273Y-109984195D01*
X127635805Y-110030577D01*
X127635800Y-110030580D01*
X127630818Y-110032903D01*
X127577694Y-110070101D01*
X127483904Y-110135774D01*
X127448283Y-110160716D01*
X127290716Y-110318283D01*
X127162903Y-110500818D01*
X127160580Y-110505800D01*
X127160577Y-110505805D01*
X127077056Y-110684917D01*
X127068730Y-110702773D01*
X127011056Y-110918014D01*
X126991635Y-111140000D01*
X127011056Y-111361986D01*
X127068730Y-111577227D01*
X127071052Y-111582208D01*
X127071053Y-111582209D01*
X127160577Y-111774195D01*
X127160580Y-111774200D01*
X127162903Y-111779182D01*
X127204760Y-111838959D01*
X127285097Y-111953692D01*
X127290716Y-111961717D01*
X127448283Y-112119284D01*
X127452792Y-112122441D01*
X127452794Y-112122443D01*
X127498612Y-112154525D01*
X127630817Y-112247097D01*
X127635802Y-112249421D01*
X127635808Y-112249425D01*
X127735272Y-112295805D01*
X127788558Y-112342722D01*
X127808019Y-112410999D01*
X127787478Y-112478959D01*
X127735273Y-112524195D01*
X127635805Y-112570577D01*
X127635800Y-112570580D01*
X127630818Y-112572903D01*
X127528608Y-112644472D01*
X127483904Y-112675774D01*
X127448283Y-112700716D01*
X127290716Y-112858283D01*
X127162903Y-113040818D01*
X127160580Y-113045800D01*
X127160577Y-113045805D01*
X127073574Y-113232385D01*
X127068730Y-113242773D01*
X127011056Y-113458014D01*
X126991635Y-113680000D01*
X127011056Y-113901986D01*
X127068730Y-114117227D01*
X127071052Y-114122208D01*
X127071053Y-114122209D01*
X127160577Y-114314195D01*
X127160580Y-114314200D01*
X127162903Y-114319182D01*
X127204760Y-114378959D01*
X127249236Y-114442477D01*
X127290716Y-114501717D01*
X127448283Y-114659284D01*
X127452792Y-114662441D01*
X127452794Y-114662443D01*
X127505741Y-114699517D01*
X127582772Y-114753455D01*
X127627099Y-114808911D01*
X127636500Y-114856667D01*
X127636500Y-115043333D01*
X127616498Y-115111454D01*
X127582771Y-115146546D01*
X127483904Y-115215774D01*
X127448283Y-115240716D01*
X127290716Y-115398283D01*
X127287559Y-115402791D01*
X127287557Y-115402794D01*
X127234472Y-115478608D01*
X127162903Y-115580818D01*
X127160580Y-115585800D01*
X127160577Y-115585805D01*
X127086247Y-115745208D01*
X127068730Y-115782773D01*
X127011056Y-115998014D01*
X126991635Y-116220000D01*
X127011056Y-116441986D01*
X127068730Y-116657227D01*
X127071052Y-116662208D01*
X127071053Y-116662209D01*
X127160577Y-116854195D01*
X127160580Y-116854200D01*
X127162903Y-116859182D01*
X127203776Y-116917554D01*
X127236628Y-116964471D01*
X127290716Y-117041717D01*
X127448283Y-117199284D01*
X127452792Y-117202441D01*
X127452794Y-117202443D01*
X127495884Y-117232615D01*
X127630817Y-117327097D01*
X127635802Y-117329421D01*
X127635808Y-117329425D01*
X127735272Y-117375805D01*
X127788558Y-117422722D01*
X127808019Y-117490999D01*
X127787478Y-117558959D01*
X127735273Y-117604195D01*
X127635805Y-117650577D01*
X127635800Y-117650580D01*
X127630818Y-117652903D01*
X127597491Y-117676239D01*
X127483904Y-117755774D01*
X127448283Y-117780716D01*
X127290716Y-117938283D01*
X127162903Y-118120818D01*
X127160580Y-118125800D01*
X127160577Y-118125805D01*
X127083623Y-118290834D01*
X127068730Y-118322773D01*
X127067308Y-118328081D01*
X127067307Y-118328083D01*
X127052731Y-118382483D01*
X127011056Y-118538014D01*
X126991635Y-118760000D01*
X127011056Y-118981986D01*
X127068730Y-119197227D01*
X127071052Y-119202208D01*
X127071053Y-119202209D01*
X127160577Y-119394195D01*
X127160580Y-119394200D01*
X127162903Y-119399182D01*
X127203389Y-119457002D01*
X127253559Y-119528651D01*
X127290716Y-119581717D01*
X127448283Y-119739284D01*
X127452790Y-119742440D01*
X127452794Y-119742443D01*
X127519631Y-119789243D01*
X127630817Y-119867097D01*
X127635802Y-119869421D01*
X127635808Y-119869425D01*
X127735272Y-119915805D01*
X127788558Y-119962722D01*
X127808019Y-120030999D01*
X127787478Y-120098959D01*
X127735273Y-120144195D01*
X127635805Y-120190577D01*
X127635800Y-120190580D01*
X127630818Y-120192903D01*
X127546525Y-120251926D01*
X127462302Y-120310900D01*
X127448283Y-120320716D01*
X127290716Y-120478283D01*
X127287559Y-120482791D01*
X127287557Y-120482794D01*
X127260289Y-120521737D01*
X127162903Y-120660818D01*
X127160580Y-120665800D01*
X127160577Y-120665805D01*
X127077056Y-120844917D01*
X127068730Y-120862773D01*
X127011056Y-121078014D01*
X126991635Y-121300000D01*
X127011056Y-121521986D01*
X127068730Y-121737227D01*
X127071052Y-121742208D01*
X127071053Y-121742209D01*
X127160577Y-121934195D01*
X127160580Y-121934200D01*
X127162903Y-121939182D01*
X127187297Y-121974020D01*
X127236628Y-122044471D01*
X127290716Y-122121717D01*
X127448283Y-122279284D01*
X127452792Y-122282441D01*
X127452794Y-122282443D01*
X127495884Y-122312615D01*
X127630817Y-122407097D01*
X127635802Y-122409421D01*
X127635808Y-122409425D01*
X127735272Y-122455805D01*
X127788558Y-122502722D01*
X127808019Y-122570999D01*
X127787478Y-122638959D01*
X127735273Y-122684195D01*
X127635805Y-122730577D01*
X127635800Y-122730580D01*
X127630818Y-122732903D01*
X127597491Y-122756239D01*
X127460287Y-122852311D01*
X127448283Y-122860716D01*
X127290716Y-123018283D01*
X127287559Y-123022791D01*
X127287557Y-123022794D01*
X127252697Y-123072579D01*
X127162903Y-123200818D01*
X127160580Y-123205800D01*
X127160577Y-123205805D01*
X127114195Y-123305273D01*
X127068730Y-123402773D01*
X127011056Y-123618014D01*
X126991635Y-123840000D01*
X127011056Y-124061986D01*
X127068730Y-124277227D01*
X127071052Y-124282208D01*
X127071053Y-124282209D01*
X127160577Y-124474195D01*
X127160580Y-124474200D01*
X127162903Y-124479182D01*
X127203389Y-124537002D01*
X127249236Y-124602477D01*
X127290716Y-124661717D01*
X127448283Y-124819284D01*
X127452792Y-124822441D01*
X127452794Y-124822443D01*
X127496354Y-124852944D01*
X127630817Y-124947097D01*
X127635802Y-124949421D01*
X127635808Y-124949425D01*
X127735272Y-124995805D01*
X127788558Y-125042722D01*
X127808019Y-125110999D01*
X127787478Y-125178959D01*
X127735273Y-125224195D01*
X127635805Y-125270577D01*
X127635800Y-125270580D01*
X127630818Y-125272903D01*
X127580109Y-125308410D01*
X127453700Y-125396923D01*
X127448283Y-125400716D01*
X127290716Y-125558283D01*
X127162903Y-125740818D01*
X127160580Y-125745800D01*
X127160577Y-125745805D01*
X127077056Y-125924917D01*
X127068730Y-125942773D01*
X127011056Y-126158014D01*
X126991635Y-126380000D01*
X127011056Y-126601986D01*
X127068730Y-126817227D01*
X127071052Y-126822208D01*
X127071053Y-126822209D01*
X127160577Y-127014195D01*
X127160580Y-127014200D01*
X127162903Y-127019182D01*
X127203776Y-127077554D01*
X127236628Y-127124471D01*
X127290716Y-127201717D01*
X127448283Y-127359284D01*
X127452792Y-127362441D01*
X127452794Y-127362443D01*
X127528110Y-127415180D01*
X127630817Y-127487097D01*
X127635802Y-127489421D01*
X127635808Y-127489425D01*
X127735272Y-127535805D01*
X127788558Y-127582722D01*
X127808019Y-127650999D01*
X127787478Y-127718959D01*
X127735273Y-127764195D01*
X127635805Y-127810577D01*
X127635800Y-127810580D01*
X127630818Y-127812903D01*
X127597491Y-127836239D01*
X127453700Y-127936923D01*
X127448283Y-127940716D01*
X127290716Y-128098283D01*
X127162903Y-128280818D01*
X127160580Y-128285800D01*
X127160577Y-128285805D01*
X127072257Y-128475209D01*
X127068730Y-128482773D01*
X127011056Y-128698014D01*
X126991635Y-128920000D01*
X127011056Y-129141986D01*
X127068730Y-129357227D01*
X127071052Y-129362208D01*
X127071053Y-129362209D01*
X127160577Y-129554195D01*
X127160580Y-129554200D01*
X127162903Y-129559182D01*
X127207467Y-129622826D01*
X127285034Y-129733602D01*
X127290716Y-129741717D01*
X127448283Y-129899284D01*
X127452792Y-129902441D01*
X127452794Y-129902443D01*
X127494196Y-129931433D01*
X127630817Y-130027097D01*
X127635802Y-130029421D01*
X127635808Y-130029425D01*
X127735272Y-130075805D01*
X127788558Y-130122722D01*
X127808019Y-130190999D01*
X127787478Y-130258959D01*
X127735273Y-130304195D01*
X127635805Y-130350577D01*
X127635800Y-130350580D01*
X127630818Y-130352903D01*
X127605320Y-130370757D01*
X127483904Y-130455774D01*
X127448283Y-130480716D01*
X127290716Y-130638283D01*
X127162903Y-130820818D01*
X127160580Y-130825800D01*
X127160577Y-130825805D01*
X127114195Y-130925273D01*
X127068730Y-131022773D01*
X127011056Y-131238014D01*
X126991635Y-131460000D01*
X126992114Y-131465475D01*
X126996528Y-131515931D01*
X126982538Y-131585536D01*
X126933139Y-131636528D01*
X126864013Y-131652718D01*
X126797107Y-131628965D01*
X126781912Y-131616007D01*
X124963652Y-129797747D01*
X124956112Y-129789461D01*
X124952000Y-129782982D01*
X124902348Y-129736356D01*
X124899507Y-129733602D01*
X124879770Y-129713865D01*
X124876573Y-129711385D01*
X124867551Y-129703680D01*
X124841100Y-129678841D01*
X124835321Y-129673414D01*
X124828375Y-129669595D01*
X124828372Y-129669593D01*
X124817566Y-129663652D01*
X124801047Y-129652801D01*
X124800583Y-129652441D01*
X124785041Y-129640386D01*
X124777772Y-129637241D01*
X124777768Y-129637238D01*
X124744463Y-129622826D01*
X124733813Y-129617609D01*
X124695060Y-129596305D01*
X124675437Y-129591267D01*
X124656734Y-129584863D01*
X124645420Y-129579967D01*
X124645419Y-129579967D01*
X124638145Y-129576819D01*
X124630322Y-129575580D01*
X124630312Y-129575577D01*
X124594476Y-129569901D01*
X124582856Y-129567495D01*
X124547711Y-129558472D01*
X124547710Y-129558472D01*
X124540030Y-129556500D01*
X124532101Y-129556500D01*
X124524240Y-129555507D01*
X124524593Y-129552709D01*
X124469383Y-129536498D01*
X124422890Y-129482842D01*
X124412786Y-129412568D01*
X124423310Y-129377249D01*
X124426643Y-129370101D01*
X124431516Y-129351917D01*
X124484591Y-129153837D01*
X124484591Y-129153835D01*
X124486015Y-129148522D01*
X124506008Y-128920000D01*
X124486015Y-128691478D01*
X124447174Y-128546522D01*
X124428066Y-128475209D01*
X124428065Y-128475207D01*
X124426643Y-128469899D01*
X124413912Y-128442597D01*
X124332019Y-128266977D01*
X124332017Y-128266974D01*
X124329696Y-128261996D01*
X124198121Y-128074086D01*
X124035914Y-127911879D01*
X123848004Y-127780304D01*
X123843026Y-127777983D01*
X123843023Y-127777981D01*
X123813458Y-127764195D01*
X123760173Y-127717278D01*
X123740712Y-127649001D01*
X123761254Y-127581041D01*
X123813458Y-127535805D01*
X123843023Y-127522019D01*
X123843026Y-127522017D01*
X123848004Y-127519696D01*
X124035914Y-127388121D01*
X124198121Y-127225914D01*
X124329696Y-127038004D01*
X124340799Y-127014195D01*
X124424320Y-126835083D01*
X124424321Y-126835082D01*
X124426643Y-126830101D01*
X124431516Y-126811917D01*
X124484591Y-126613837D01*
X124484591Y-126613835D01*
X124486015Y-126608522D01*
X124506008Y-126380000D01*
X124486015Y-126151478D01*
X124438300Y-125973402D01*
X124428066Y-125935209D01*
X124428065Y-125935207D01*
X124426643Y-125929899D01*
X124424320Y-125924917D01*
X124332019Y-125726977D01*
X124332017Y-125726974D01*
X124329696Y-125721996D01*
X124198121Y-125534086D01*
X124035914Y-125371879D01*
X124031403Y-125368720D01*
X124029025Y-125366725D01*
X123989699Y-125307615D01*
X123988573Y-125236627D01*
X124026005Y-125176300D01*
X124087726Y-125148809D01*
X124087278Y-125146925D01*
X124094960Y-125145098D01*
X124102816Y-125144245D01*
X124239205Y-125093115D01*
X124355761Y-125005761D01*
X124443115Y-124889205D01*
X124494245Y-124752816D01*
X124501000Y-124690634D01*
X124501000Y-122989366D01*
X124494245Y-122927184D01*
X124443115Y-122790795D01*
X124355761Y-122674239D01*
X124239205Y-122586885D01*
X124102816Y-122535755D01*
X124040634Y-122529000D01*
X122339366Y-122529000D01*
X122277184Y-122535755D01*
X122140795Y-122586885D01*
X122024239Y-122674239D01*
X121936885Y-122790795D01*
X121885755Y-122927184D01*
X121879000Y-122989366D01*
X121879000Y-124690634D01*
X121885755Y-124752816D01*
X121936885Y-124889205D01*
X122024239Y-125005761D01*
X122140795Y-125093115D01*
X122277184Y-125144245D01*
X122285040Y-125145098D01*
X122292722Y-125146925D01*
X122292330Y-125148573D01*
X122349153Y-125172183D01*
X122389579Y-125230546D01*
X122392035Y-125301500D01*
X122350975Y-125366725D01*
X122348597Y-125368720D01*
X122344086Y-125371879D01*
X122181879Y-125534086D01*
X122050304Y-125721996D01*
X122047983Y-125726974D01*
X122047981Y-125726977D01*
X121955680Y-125924917D01*
X121953357Y-125929899D01*
X121951935Y-125935207D01*
X121951934Y-125935209D01*
X121941700Y-125973402D01*
X121893985Y-126151478D01*
X121873992Y-126380000D01*
X121893985Y-126608522D01*
X121895409Y-126613835D01*
X121895409Y-126613837D01*
X121948485Y-126811917D01*
X121953357Y-126830101D01*
X121955679Y-126835082D01*
X121955680Y-126835083D01*
X122039202Y-127014195D01*
X122050304Y-127038004D01*
X122181879Y-127225914D01*
X122344086Y-127388121D01*
X122531996Y-127519696D01*
X122536974Y-127522017D01*
X122536977Y-127522019D01*
X122566542Y-127535805D01*
X122619827Y-127582722D01*
X122639288Y-127650999D01*
X122618746Y-127718959D01*
X122566542Y-127764195D01*
X122536977Y-127777981D01*
X122536974Y-127777983D01*
X122531996Y-127780304D01*
X122344086Y-127911879D01*
X122181879Y-128074086D01*
X122050304Y-128261996D01*
X122047983Y-128266974D01*
X122047981Y-128266977D01*
X122029200Y-128307253D01*
X121990431Y-128390395D01*
X121943515Y-128443678D01*
X121875238Y-128463139D01*
X121807278Y-128442597D01*
X121787142Y-128426238D01*
X112120904Y-118760000D01*
X121873992Y-118760000D01*
X121893985Y-118988522D01*
X121895409Y-118993835D01*
X121895409Y-118993837D01*
X121948485Y-119191917D01*
X121953357Y-119210101D01*
X121955679Y-119215082D01*
X121955680Y-119215083D01*
X122039202Y-119394195D01*
X122050304Y-119418004D01*
X122181879Y-119605914D01*
X122344086Y-119768121D01*
X122531996Y-119899696D01*
X122536974Y-119902017D01*
X122536977Y-119902019D01*
X122667155Y-119962722D01*
X122739899Y-119996643D01*
X122745207Y-119998065D01*
X122745209Y-119998066D01*
X122956163Y-120054591D01*
X122956165Y-120054591D01*
X122961478Y-120056015D01*
X123190000Y-120076008D01*
X123418522Y-120056015D01*
X123423835Y-120054591D01*
X123423837Y-120054591D01*
X123634791Y-119998066D01*
X123634793Y-119998065D01*
X123640101Y-119996643D01*
X123712845Y-119962722D01*
X123843023Y-119902019D01*
X123843026Y-119902017D01*
X123848004Y-119899696D01*
X124035914Y-119768121D01*
X124198121Y-119605914D01*
X124329696Y-119418004D01*
X124340799Y-119394195D01*
X124424320Y-119215083D01*
X124424321Y-119215082D01*
X124426643Y-119210101D01*
X124431516Y-119191917D01*
X124484591Y-118993837D01*
X124484591Y-118993835D01*
X124486015Y-118988522D01*
X124506008Y-118760000D01*
X124486015Y-118531478D01*
X124445717Y-118381084D01*
X124428066Y-118315209D01*
X124428065Y-118315207D01*
X124426643Y-118309899D01*
X124414761Y-118284417D01*
X124332019Y-118106977D01*
X124332017Y-118106974D01*
X124329696Y-118101996D01*
X124198121Y-117914086D01*
X124035914Y-117751879D01*
X123848004Y-117620304D01*
X123843026Y-117617983D01*
X123843023Y-117617981D01*
X123813458Y-117604195D01*
X123760173Y-117557278D01*
X123740712Y-117489001D01*
X123761254Y-117421041D01*
X123813458Y-117375805D01*
X123843023Y-117362019D01*
X123843026Y-117362017D01*
X123848004Y-117359696D01*
X124035914Y-117228121D01*
X124198121Y-117065914D01*
X124329696Y-116878004D01*
X124340799Y-116854195D01*
X124424320Y-116675083D01*
X124424321Y-116675082D01*
X124426643Y-116670101D01*
X124431516Y-116651917D01*
X124484591Y-116453837D01*
X124484591Y-116453835D01*
X124486015Y-116448522D01*
X124506008Y-116220000D01*
X124486015Y-115991478D01*
X124475736Y-115953115D01*
X124428066Y-115775209D01*
X124428065Y-115775207D01*
X124426643Y-115769899D01*
X124416044Y-115747169D01*
X124332019Y-115566977D01*
X124332017Y-115566974D01*
X124329696Y-115561996D01*
X124198121Y-115374086D01*
X124035914Y-115211879D01*
X123848004Y-115080304D01*
X123843026Y-115077983D01*
X123843023Y-115077981D01*
X123813458Y-115064195D01*
X123760173Y-115017278D01*
X123740712Y-114949001D01*
X123761254Y-114881041D01*
X123813458Y-114835805D01*
X123843023Y-114822019D01*
X123843026Y-114822017D01*
X123848004Y-114819696D01*
X124035914Y-114688121D01*
X124198121Y-114525914D01*
X124329696Y-114338004D01*
X124340799Y-114314195D01*
X124424320Y-114135083D01*
X124424321Y-114135082D01*
X124426643Y-114130101D01*
X124431516Y-114111917D01*
X124484591Y-113913837D01*
X124484591Y-113913835D01*
X124486015Y-113908522D01*
X124506008Y-113680000D01*
X124486015Y-113451478D01*
X124470366Y-113393075D01*
X124428066Y-113235209D01*
X124428065Y-113235207D01*
X124426643Y-113229899D01*
X124400239Y-113173275D01*
X124332019Y-113026977D01*
X124332017Y-113026974D01*
X124329696Y-113021996D01*
X124198121Y-112834086D01*
X124035914Y-112671879D01*
X123848004Y-112540304D01*
X123843026Y-112537983D01*
X123843023Y-112537981D01*
X123813458Y-112524195D01*
X123760173Y-112477278D01*
X123740712Y-112409001D01*
X123761254Y-112341041D01*
X123813458Y-112295805D01*
X123843023Y-112282019D01*
X123843026Y-112282017D01*
X123848004Y-112279696D01*
X124035914Y-112148121D01*
X124198121Y-111985914D01*
X124329696Y-111798004D01*
X124340799Y-111774195D01*
X124424320Y-111595083D01*
X124424321Y-111595082D01*
X124426643Y-111590101D01*
X124431516Y-111571917D01*
X124484591Y-111373837D01*
X124484591Y-111373835D01*
X124486015Y-111368522D01*
X124506008Y-111140000D01*
X124486015Y-110911478D01*
X124462233Y-110822722D01*
X124428066Y-110695209D01*
X124428065Y-110695207D01*
X124426643Y-110689899D01*
X124424320Y-110684917D01*
X124332019Y-110486977D01*
X124332017Y-110486974D01*
X124329696Y-110481996D01*
X124198121Y-110294086D01*
X124035914Y-110131879D01*
X123848004Y-110000304D01*
X123843027Y-109997983D01*
X123843018Y-109997978D01*
X123812866Y-109983918D01*
X123759581Y-109937001D01*
X123740121Y-109868723D01*
X123760663Y-109800764D01*
X123812869Y-109755528D01*
X123842773Y-109741584D01*
X123852258Y-109736107D01*
X123904844Y-109699287D01*
X123913219Y-109688809D01*
X123906151Y-109675361D01*
X123202812Y-108972022D01*
X123188868Y-108964408D01*
X123187035Y-108964539D01*
X123180420Y-108968790D01*
X122473127Y-109676083D01*
X122466697Y-109687857D01*
X122475994Y-109699873D01*
X122527742Y-109736107D01*
X122537227Y-109741584D01*
X122567131Y-109755528D01*
X122620417Y-109802445D01*
X122639879Y-109870722D01*
X122619338Y-109938682D01*
X122567134Y-109983918D01*
X122536982Y-109997978D01*
X122536973Y-109997983D01*
X122531996Y-110000304D01*
X122344086Y-110131879D01*
X122181879Y-110294086D01*
X122050304Y-110481996D01*
X122047983Y-110486974D01*
X122047981Y-110486977D01*
X121955680Y-110684917D01*
X121953357Y-110689899D01*
X121951935Y-110695207D01*
X121951934Y-110695209D01*
X121917767Y-110822722D01*
X121893985Y-110911478D01*
X121873992Y-111140000D01*
X121893985Y-111368522D01*
X121895409Y-111373835D01*
X121895409Y-111373837D01*
X121948485Y-111571917D01*
X121953357Y-111590101D01*
X121955679Y-111595082D01*
X121955680Y-111595083D01*
X122039202Y-111774195D01*
X122050304Y-111798004D01*
X122181879Y-111985914D01*
X122344086Y-112148121D01*
X122531996Y-112279696D01*
X122536974Y-112282017D01*
X122536977Y-112282019D01*
X122566542Y-112295805D01*
X122619827Y-112342722D01*
X122639288Y-112410999D01*
X122618746Y-112478959D01*
X122566542Y-112524195D01*
X122536977Y-112537981D01*
X122536974Y-112537983D01*
X122531996Y-112540304D01*
X122344086Y-112671879D01*
X122181879Y-112834086D01*
X122050304Y-113021996D01*
X122047983Y-113026974D01*
X122047981Y-113026977D01*
X121979761Y-113173275D01*
X121953357Y-113229899D01*
X121951935Y-113235207D01*
X121951934Y-113235209D01*
X121909634Y-113393075D01*
X121893985Y-113451478D01*
X121873992Y-113680000D01*
X121893985Y-113908522D01*
X121895409Y-113913835D01*
X121895409Y-113913837D01*
X121948485Y-114111917D01*
X121953357Y-114130101D01*
X121955679Y-114135082D01*
X121955680Y-114135083D01*
X122039202Y-114314195D01*
X122050304Y-114338004D01*
X122181879Y-114525914D01*
X122344086Y-114688121D01*
X122531996Y-114819696D01*
X122536974Y-114822017D01*
X122536977Y-114822019D01*
X122566542Y-114835805D01*
X122619827Y-114882722D01*
X122639288Y-114950999D01*
X122618746Y-115018959D01*
X122566542Y-115064195D01*
X122536977Y-115077981D01*
X122536974Y-115077983D01*
X122531996Y-115080304D01*
X122344086Y-115211879D01*
X122181879Y-115374086D01*
X122050304Y-115561996D01*
X122047983Y-115566974D01*
X122047981Y-115566977D01*
X121963956Y-115747169D01*
X121953357Y-115769899D01*
X121951935Y-115775207D01*
X121951934Y-115775209D01*
X121904264Y-115953115D01*
X121893985Y-115991478D01*
X121873992Y-116220000D01*
X121893985Y-116448522D01*
X121895409Y-116453835D01*
X121895409Y-116453837D01*
X121948485Y-116651917D01*
X121953357Y-116670101D01*
X121955679Y-116675082D01*
X121955680Y-116675083D01*
X122039202Y-116854195D01*
X122050304Y-116878004D01*
X122181879Y-117065914D01*
X122344086Y-117228121D01*
X122531996Y-117359696D01*
X122536974Y-117362017D01*
X122536977Y-117362019D01*
X122566542Y-117375805D01*
X122619827Y-117422722D01*
X122639288Y-117490999D01*
X122618746Y-117558959D01*
X122566542Y-117604195D01*
X122536977Y-117617981D01*
X122536974Y-117617983D01*
X122531996Y-117620304D01*
X122344086Y-117751879D01*
X122181879Y-117914086D01*
X122050304Y-118101996D01*
X122047983Y-118106974D01*
X122047981Y-118106977D01*
X121965239Y-118284417D01*
X121953357Y-118309899D01*
X121951935Y-118315207D01*
X121951934Y-118315209D01*
X121934283Y-118381084D01*
X121893985Y-118531478D01*
X121873992Y-118760000D01*
X112120904Y-118760000D01*
X101966380Y-108605475D01*
X121874973Y-108605475D01*
X121894000Y-108822958D01*
X121895902Y-108833745D01*
X121952406Y-109044619D01*
X121956154Y-109054915D01*
X122048415Y-109252772D01*
X122053893Y-109262258D01*
X122090713Y-109314844D01*
X122101191Y-109323219D01*
X122114639Y-109316151D01*
X122817978Y-108612812D01*
X122824356Y-108601132D01*
X123554408Y-108601132D01*
X123554539Y-108602965D01*
X123558790Y-108609580D01*
X124266083Y-109316873D01*
X124277857Y-109323303D01*
X124289873Y-109314006D01*
X124326107Y-109262258D01*
X124331585Y-109252772D01*
X124423846Y-109054915D01*
X124427594Y-109044619D01*
X124484098Y-108833745D01*
X124486000Y-108822958D01*
X124505027Y-108605475D01*
X124505027Y-108594525D01*
X124486000Y-108377042D01*
X124484098Y-108366255D01*
X124427594Y-108155381D01*
X124423846Y-108145085D01*
X124331585Y-107947228D01*
X124326107Y-107937742D01*
X124289287Y-107885156D01*
X124278809Y-107876781D01*
X124265361Y-107883849D01*
X123562022Y-108587188D01*
X123554408Y-108601132D01*
X122824356Y-108601132D01*
X122825592Y-108598868D01*
X122825461Y-108597035D01*
X122821210Y-108590420D01*
X122113917Y-107883127D01*
X122102143Y-107876697D01*
X122090127Y-107885994D01*
X122053893Y-107937742D01*
X122048415Y-107947228D01*
X121956154Y-108145085D01*
X121952406Y-108155381D01*
X121895902Y-108366255D01*
X121894000Y-108377042D01*
X121874973Y-108594525D01*
X121874973Y-108605475D01*
X101966380Y-108605475D01*
X99420905Y-106060000D01*
X121873992Y-106060000D01*
X121893985Y-106288522D01*
X121895409Y-106293835D01*
X121895409Y-106293837D01*
X121948485Y-106491917D01*
X121953357Y-106510101D01*
X121955679Y-106515082D01*
X121955680Y-106515083D01*
X122039202Y-106694195D01*
X122050304Y-106718004D01*
X122181879Y-106905914D01*
X122344086Y-107068121D01*
X122531996Y-107199696D01*
X122536973Y-107202017D01*
X122536982Y-107202022D01*
X122567134Y-107216082D01*
X122620419Y-107262999D01*
X122639879Y-107331277D01*
X122619337Y-107399236D01*
X122567131Y-107444472D01*
X122537227Y-107458416D01*
X122527742Y-107463893D01*
X122475156Y-107500713D01*
X122466781Y-107511191D01*
X122473849Y-107524639D01*
X123177188Y-108227978D01*
X123191132Y-108235592D01*
X123192965Y-108235461D01*
X123199580Y-108231210D01*
X123906873Y-107523917D01*
X123913303Y-107512143D01*
X123904006Y-107500127D01*
X123852258Y-107463893D01*
X123842773Y-107458416D01*
X123812869Y-107444472D01*
X123759583Y-107397555D01*
X123740121Y-107329278D01*
X123760662Y-107261318D01*
X123812866Y-107216082D01*
X123843018Y-107202022D01*
X123843027Y-107202017D01*
X123848004Y-107199696D01*
X124035914Y-107068121D01*
X124198121Y-106905914D01*
X124329696Y-106718004D01*
X124340799Y-106694195D01*
X124424320Y-106515083D01*
X124424321Y-106515082D01*
X124426643Y-106510101D01*
X124431516Y-106491917D01*
X124484591Y-106293837D01*
X124484591Y-106293835D01*
X124486015Y-106288522D01*
X124506008Y-106060000D01*
X124486015Y-105831478D01*
X124462233Y-105742722D01*
X124428066Y-105615209D01*
X124428065Y-105615207D01*
X124426643Y-105609899D01*
X124424320Y-105604917D01*
X124332019Y-105406977D01*
X124332017Y-105406974D01*
X124329696Y-105401996D01*
X124198121Y-105214086D01*
X124035914Y-105051879D01*
X123848004Y-104920304D01*
X123843026Y-104917983D01*
X123843023Y-104917981D01*
X123813458Y-104904195D01*
X123760173Y-104857278D01*
X123740712Y-104789001D01*
X123761254Y-104721041D01*
X123813458Y-104675805D01*
X123843023Y-104662019D01*
X123843026Y-104662017D01*
X123848004Y-104659696D01*
X124035914Y-104528121D01*
X124198121Y-104365914D01*
X124329696Y-104178004D01*
X124340799Y-104154195D01*
X124424320Y-103975083D01*
X124424321Y-103975082D01*
X124426643Y-103970101D01*
X124431516Y-103951917D01*
X124484591Y-103753837D01*
X124484591Y-103753835D01*
X124486015Y-103748522D01*
X124506008Y-103520000D01*
X124486015Y-103291478D01*
X124442117Y-103127648D01*
X124428066Y-103075209D01*
X124428065Y-103075207D01*
X124426643Y-103069899D01*
X124388778Y-102988697D01*
X124332019Y-102866977D01*
X124332017Y-102866974D01*
X124329696Y-102861996D01*
X124198121Y-102674086D01*
X124035914Y-102511879D01*
X124031403Y-102508720D01*
X124029025Y-102506725D01*
X123989699Y-102447615D01*
X123988573Y-102376627D01*
X124026005Y-102316300D01*
X124087726Y-102288809D01*
X124087278Y-102286925D01*
X124094960Y-102285098D01*
X124102816Y-102284245D01*
X124239205Y-102233115D01*
X124355761Y-102145761D01*
X124443115Y-102029205D01*
X124494245Y-101892816D01*
X124501000Y-101830634D01*
X124501000Y-100129366D01*
X124494245Y-100067184D01*
X124443115Y-99930795D01*
X124355761Y-99814239D01*
X124239205Y-99726885D01*
X124102816Y-99675755D01*
X124040634Y-99669000D01*
X122339366Y-99669000D01*
X122277184Y-99675755D01*
X122140795Y-99726885D01*
X122024239Y-99814239D01*
X121936885Y-99930795D01*
X121885755Y-100067184D01*
X121879000Y-100129366D01*
X121879000Y-101830634D01*
X121885755Y-101892816D01*
X121936885Y-102029205D01*
X122024239Y-102145761D01*
X122140795Y-102233115D01*
X122277184Y-102284245D01*
X122285040Y-102285098D01*
X122292722Y-102286925D01*
X122292330Y-102288573D01*
X122349153Y-102312183D01*
X122389579Y-102370546D01*
X122392035Y-102441500D01*
X122350975Y-102506725D01*
X122348597Y-102508720D01*
X122344086Y-102511879D01*
X122181879Y-102674086D01*
X122050304Y-102861996D01*
X122047983Y-102866974D01*
X122047981Y-102866977D01*
X121991222Y-102988697D01*
X121953357Y-103069899D01*
X121951935Y-103075207D01*
X121951934Y-103075209D01*
X121937883Y-103127648D01*
X121893985Y-103291478D01*
X121873992Y-103520000D01*
X121893985Y-103748522D01*
X121895409Y-103753835D01*
X121895409Y-103753837D01*
X121948485Y-103951917D01*
X121953357Y-103970101D01*
X121955679Y-103975082D01*
X121955680Y-103975083D01*
X122039202Y-104154195D01*
X122050304Y-104178004D01*
X122181879Y-104365914D01*
X122344086Y-104528121D01*
X122531996Y-104659696D01*
X122536974Y-104662017D01*
X122536977Y-104662019D01*
X122566542Y-104675805D01*
X122619827Y-104722722D01*
X122639288Y-104790999D01*
X122618746Y-104858959D01*
X122566542Y-104904195D01*
X122536977Y-104917981D01*
X122536974Y-104917983D01*
X122531996Y-104920304D01*
X122344086Y-105051879D01*
X122181879Y-105214086D01*
X122050304Y-105401996D01*
X122047983Y-105406974D01*
X122047981Y-105406977D01*
X121955680Y-105604917D01*
X121953357Y-105609899D01*
X121951935Y-105615207D01*
X121951934Y-105615209D01*
X121917767Y-105742722D01*
X121893985Y-105831478D01*
X121873992Y-106060000D01*
X99420905Y-106060000D01*
X98614387Y-105253482D01*
X80300638Y-86939733D01*
X121177822Y-86939733D01*
X121177975Y-86944121D01*
X121177975Y-86944127D01*
X121185359Y-87155558D01*
X121187625Y-87220458D01*
X121188387Y-87224781D01*
X121188388Y-87224788D01*
X121212164Y-87359624D01*
X121236402Y-87497087D01*
X121323203Y-87764235D01*
X121325131Y-87768188D01*
X121325133Y-87768193D01*
X121340762Y-87800237D01*
X121446340Y-88016702D01*
X121448795Y-88020341D01*
X121448798Y-88020347D01*
X121521890Y-88128710D01*
X121603415Y-88249576D01*
X121791371Y-88458322D01*
X122006550Y-88638879D01*
X122244764Y-88787731D01*
X122501375Y-88901982D01*
X122771390Y-88979407D01*
X122775740Y-88980018D01*
X122775743Y-88980019D01*
X122878690Y-88994487D01*
X123049552Y-89018500D01*
X123260146Y-89018500D01*
X123262332Y-89018347D01*
X123262336Y-89018347D01*
X123465827Y-89004118D01*
X123465832Y-89004117D01*
X123470212Y-89003811D01*
X123744970Y-88945409D01*
X123749099Y-88943906D01*
X123749103Y-88943905D01*
X124004781Y-88850846D01*
X124004785Y-88850844D01*
X124008926Y-88849337D01*
X124256942Y-88717464D01*
X124260503Y-88714877D01*
X124480629Y-88554947D01*
X124480632Y-88554944D01*
X124484192Y-88552358D01*
X124525676Y-88512298D01*
X124584947Y-88455060D01*
X124686252Y-88357231D01*
X124859188Y-88135882D01*
X124861384Y-88132078D01*
X124861389Y-88132071D01*
X124997435Y-87896431D01*
X124999636Y-87892619D01*
X125104862Y-87632176D01*
X125105928Y-87627901D01*
X125171753Y-87363893D01*
X125171754Y-87363888D01*
X125172817Y-87359624D01*
X125178545Y-87305131D01*
X125201719Y-87084636D01*
X125201719Y-87084633D01*
X125202178Y-87080267D01*
X125202025Y-87075873D01*
X125192529Y-86803939D01*
X125192528Y-86803933D01*
X125192375Y-86799542D01*
X125187264Y-86770551D01*
X125152348Y-86572536D01*
X125143598Y-86522913D01*
X125056797Y-86255765D01*
X125025490Y-86191575D01*
X124960729Y-86058798D01*
X124933660Y-86003298D01*
X124931205Y-85999659D01*
X124931202Y-85999653D01*
X124832391Y-85853160D01*
X124776585Y-85770424D01*
X124588629Y-85561678D01*
X124373450Y-85381121D01*
X124135236Y-85232269D01*
X123878625Y-85118018D01*
X123718775Y-85072182D01*
X123612837Y-85041805D01*
X123612836Y-85041805D01*
X123608610Y-85040593D01*
X123604260Y-85039982D01*
X123604257Y-85039981D01*
X123501310Y-85025513D01*
X123330448Y-85001500D01*
X123119854Y-85001500D01*
X123117668Y-85001653D01*
X123117664Y-85001653D01*
X122914173Y-85015882D01*
X122914168Y-85015883D01*
X122909788Y-85016189D01*
X122635030Y-85074591D01*
X122630901Y-85076094D01*
X122630897Y-85076095D01*
X122375219Y-85169154D01*
X122375215Y-85169156D01*
X122371074Y-85170663D01*
X122123058Y-85302536D01*
X122119499Y-85305122D01*
X122119497Y-85305123D01*
X122014895Y-85381121D01*
X121895808Y-85467642D01*
X121693748Y-85662769D01*
X121520812Y-85884118D01*
X121518616Y-85887922D01*
X121518611Y-85887929D01*
X121404794Y-86085067D01*
X121380364Y-86127381D01*
X121275138Y-86387824D01*
X121274073Y-86392097D01*
X121274072Y-86392099D01*
X121209491Y-86651121D01*
X121207183Y-86660376D01*
X121206724Y-86664744D01*
X121206723Y-86664749D01*
X121193011Y-86795212D01*
X121177822Y-86939733D01*
X80300638Y-86939733D01*
X75318652Y-81957747D01*
X75311112Y-81949461D01*
X75307000Y-81942982D01*
X75257348Y-81896356D01*
X75254507Y-81893602D01*
X75234770Y-81873865D01*
X75231573Y-81871385D01*
X75222551Y-81863680D01*
X75196100Y-81838841D01*
X75190321Y-81833414D01*
X75183375Y-81829595D01*
X75183372Y-81829593D01*
X75172566Y-81823652D01*
X75156047Y-81812801D01*
X75155583Y-81812441D01*
X75140041Y-81800386D01*
X75132772Y-81797241D01*
X75132768Y-81797238D01*
X75099463Y-81782826D01*
X75088813Y-81777609D01*
X75050060Y-81756305D01*
X75030437Y-81751267D01*
X75011734Y-81744863D01*
X75000420Y-81739967D01*
X75000419Y-81739967D01*
X74993145Y-81736819D01*
X74985322Y-81735580D01*
X74985312Y-81735577D01*
X74949476Y-81729901D01*
X74937856Y-81727495D01*
X74902711Y-81718472D01*
X74902710Y-81718472D01*
X74895030Y-81716500D01*
X74874776Y-81716500D01*
X74855065Y-81714949D01*
X74842886Y-81713020D01*
X74835057Y-81711780D01*
X74827165Y-81712526D01*
X74791039Y-81715941D01*
X74779181Y-81716500D01*
X60954500Y-81716500D01*
X60886379Y-81696498D01*
X60839886Y-81642842D01*
X60828500Y-81590500D01*
X60828500Y-81101866D01*
X60821745Y-81039684D01*
X60770615Y-80903295D01*
X60683261Y-80786739D01*
X60566705Y-80699385D01*
X60430316Y-80648255D01*
X60368134Y-80641500D01*
X57871866Y-80641500D01*
X57809684Y-80648255D01*
X57673295Y-80699385D01*
X57556739Y-80786739D01*
X57469385Y-80903295D01*
X57418255Y-81039684D01*
X57411500Y-81101866D01*
X57411500Y-83598134D01*
X57418255Y-83660316D01*
X57469385Y-83796705D01*
X57556739Y-83913261D01*
X57673295Y-84000615D01*
X57809684Y-84051745D01*
X57871866Y-84058500D01*
X58350719Y-84058500D01*
X58418840Y-84078502D01*
X58465333Y-84132158D01*
X58475437Y-84202432D01*
X58445943Y-84267012D01*
X58403471Y-84298926D01*
X58289380Y-84351522D01*
X58285471Y-84354085D01*
X58080928Y-84488189D01*
X58080923Y-84488193D01*
X58077015Y-84490755D01*
X57887562Y-84659848D01*
X57725183Y-84855087D01*
X57593447Y-85072182D01*
X57591638Y-85076496D01*
X57591637Y-85076498D01*
X57527066Y-85230484D01*
X57495246Y-85306365D01*
X57494095Y-85310897D01*
X57494094Y-85310900D01*
X57476260Y-85381121D01*
X57432738Y-85552490D01*
X57407296Y-85805151D01*
X57419480Y-86058798D01*
X57420393Y-86063386D01*
X57464893Y-86287102D01*
X57469021Y-86307857D01*
X57470600Y-86312255D01*
X57470602Y-86312262D01*
X57538181Y-86500484D01*
X57554831Y-86546858D01*
X57557048Y-86550984D01*
X57658986Y-86740700D01*
X57675025Y-86770551D01*
X57677820Y-86774294D01*
X57677822Y-86774297D01*
X57824171Y-86970282D01*
X57824176Y-86970288D01*
X57826963Y-86974020D01*
X57830272Y-86977300D01*
X57830277Y-86977306D01*
X58003990Y-87149509D01*
X58007307Y-87152797D01*
X58011069Y-87155555D01*
X58011072Y-87155558D01*
X58208323Y-87300188D01*
X58212094Y-87302953D01*
X58216229Y-87305129D01*
X58216233Y-87305131D01*
X58311496Y-87355251D01*
X58436827Y-87421191D01*
X58608781Y-87481240D01*
X58666497Y-87522581D01*
X58692701Y-87588565D01*
X58679072Y-87658241D01*
X58629936Y-87709487D01*
X58602497Y-87721160D01*
X58519993Y-87745208D01*
X58289380Y-87851522D01*
X58285471Y-87854085D01*
X58080928Y-87988189D01*
X58080923Y-87988193D01*
X58077015Y-87990755D01*
X57983815Y-88073939D01*
X57914414Y-88135882D01*
X57887562Y-88159848D01*
X57725183Y-88355087D01*
X57593447Y-88572182D01*
X57591638Y-88576496D01*
X57591637Y-88576498D01*
X57503060Y-88787731D01*
X57495246Y-88806365D01*
X57432738Y-89052490D01*
X57407296Y-89305151D01*
X57419480Y-89558798D01*
X57432403Y-89623764D01*
X57467679Y-89801109D01*
X57469021Y-89807857D01*
X57470600Y-89812255D01*
X57470602Y-89812262D01*
X57533506Y-89987464D01*
X57554831Y-90046858D01*
X57557048Y-90050984D01*
X57629490Y-90185805D01*
X57675025Y-90270551D01*
X57677820Y-90274294D01*
X57677822Y-90274297D01*
X57824171Y-90470282D01*
X57824176Y-90470288D01*
X57826963Y-90474020D01*
X57830272Y-90477300D01*
X57830277Y-90477306D01*
X57957572Y-90603494D01*
X58007307Y-90652797D01*
X58011069Y-90655555D01*
X58011072Y-90655558D01*
X58050382Y-90684381D01*
X58212094Y-90802953D01*
X58216229Y-90805129D01*
X58216233Y-90805131D01*
X58267073Y-90831879D01*
X58436827Y-90921191D01*
X58608781Y-90981240D01*
X58666497Y-91022581D01*
X58692701Y-91088565D01*
X58679072Y-91158241D01*
X58629936Y-91209487D01*
X58602497Y-91221160D01*
X58519993Y-91245208D01*
X58289380Y-91351522D01*
X58285471Y-91354085D01*
X58080928Y-91488189D01*
X58080923Y-91488193D01*
X58077015Y-91490755D01*
X58022653Y-91539275D01*
X57913687Y-91636531D01*
X57887562Y-91659848D01*
X57725183Y-91855087D01*
X57593447Y-92072182D01*
X57591638Y-92076496D01*
X57591637Y-92076498D01*
X57504293Y-92284791D01*
X57495246Y-92306365D01*
X57494095Y-92310897D01*
X57494094Y-92310900D01*
X57470442Y-92404032D01*
X57432738Y-92552490D01*
X57407296Y-92805151D01*
X57407520Y-92809817D01*
X57407520Y-92809822D01*
X57409173Y-92844226D01*
X57419480Y-93058798D01*
X57434180Y-93132701D01*
X57452380Y-93224195D01*
X57469021Y-93307857D01*
X57470600Y-93312255D01*
X57470602Y-93312262D01*
X57520547Y-93451369D01*
X57524741Y-93522241D01*
X57491054Y-93583041D01*
X57174647Y-93899448D01*
X57166361Y-93906988D01*
X57159882Y-93911100D01*
X57154457Y-93916877D01*
X57113257Y-93960751D01*
X57110502Y-93963593D01*
X57090765Y-93983330D01*
X57088285Y-93986527D01*
X57080582Y-93995547D01*
X57050314Y-94027779D01*
X57046495Y-94034725D01*
X57046493Y-94034728D01*
X57040552Y-94045534D01*
X57029701Y-94062053D01*
X57017286Y-94078059D01*
X57014141Y-94085328D01*
X57014138Y-94085332D01*
X56999726Y-94118637D01*
X56994509Y-94129287D01*
X56973205Y-94168040D01*
X56971234Y-94175715D01*
X56971234Y-94175716D01*
X56968167Y-94187662D01*
X56961763Y-94206366D01*
X56953719Y-94224955D01*
X56952480Y-94232778D01*
X56952477Y-94232788D01*
X56946801Y-94268624D01*
X56944395Y-94280244D01*
X56933400Y-94323070D01*
X56933400Y-94343324D01*
X56931849Y-94363034D01*
X56928680Y-94383043D01*
X53848500Y-94383043D01*
X53848500Y-61092703D01*
X56970743Y-61092703D01*
X57008268Y-61377734D01*
X57084129Y-61655036D01*
X57196923Y-61919476D01*
X57344561Y-62166161D01*
X57524313Y-62390528D01*
X57732851Y-62588423D01*
X57966317Y-62756186D01*
X57970112Y-62758195D01*
X57970113Y-62758196D01*
X57991869Y-62769715D01*
X58220392Y-62890712D01*
X58490373Y-62989511D01*
X58771264Y-63050755D01*
X58799841Y-63053004D01*
X58994282Y-63068307D01*
X58994291Y-63068307D01*
X58996739Y-63068500D01*
X59152271Y-63068500D01*
X59154407Y-63068354D01*
X59154418Y-63068354D01*
X59362548Y-63054165D01*
X59362554Y-63054164D01*
X59366825Y-63053873D01*
X59371020Y-63053004D01*
X59371022Y-63053004D01*
X59507584Y-63024723D01*
X59648342Y-62995574D01*
X59919343Y-62899607D01*
X60174812Y-62767750D01*
X60178313Y-62765289D01*
X60178317Y-62765287D01*
X60292418Y-62685095D01*
X60410023Y-62602441D01*
X60620622Y-62406740D01*
X60802713Y-62184268D01*
X60952927Y-61939142D01*
X61068483Y-61675898D01*
X61147244Y-61399406D01*
X61187751Y-61114784D01*
X61187845Y-61096951D01*
X61187867Y-61092703D01*
X150290743Y-61092703D01*
X150328268Y-61377734D01*
X150404129Y-61655036D01*
X150516923Y-61919476D01*
X150664561Y-62166161D01*
X150844313Y-62390528D01*
X151052851Y-62588423D01*
X151286317Y-62756186D01*
X151290112Y-62758195D01*
X151290113Y-62758196D01*
X151311869Y-62769715D01*
X151540392Y-62890712D01*
X151810373Y-62989511D01*
X152091264Y-63050755D01*
X152119841Y-63053004D01*
X152314282Y-63068307D01*
X152314291Y-63068307D01*
X152316739Y-63068500D01*
X152472271Y-63068500D01*
X152474407Y-63068354D01*
X152474418Y-63068354D01*
X152682548Y-63054165D01*
X152682554Y-63054164D01*
X152686825Y-63053873D01*
X152691020Y-63053004D01*
X152691022Y-63053004D01*
X152827584Y-63024723D01*
X152968342Y-62995574D01*
X153239343Y-62899607D01*
X153494812Y-62767750D01*
X153498313Y-62765289D01*
X153498317Y-62765287D01*
X153612418Y-62685095D01*
X153730023Y-62602441D01*
X153940622Y-62406740D01*
X154122713Y-62184268D01*
X154272927Y-61939142D01*
X154388483Y-61675898D01*
X154467244Y-61399406D01*
X154507751Y-61114784D01*
X154507845Y-61096951D01*
X154509235Y-60831583D01*
X154509235Y-60831576D01*
X154509257Y-60827297D01*
X154471732Y-60542266D01*
X154395871Y-60264964D01*
X154283077Y-60000524D01*
X154135439Y-59753839D01*
X153955687Y-59529472D01*
X153747149Y-59331577D01*
X153513683Y-59163814D01*
X153491843Y-59152250D01*
X153468654Y-59139972D01*
X153259608Y-59029288D01*
X152989627Y-58930489D01*
X152708736Y-58869245D01*
X152677685Y-58866801D01*
X152485718Y-58851693D01*
X152485709Y-58851693D01*
X152483261Y-58851500D01*
X152327729Y-58851500D01*
X152325593Y-58851646D01*
X152325582Y-58851646D01*
X152117452Y-58865835D01*
X152117446Y-58865836D01*
X152113175Y-58866127D01*
X152108980Y-58866996D01*
X152108978Y-58866996D01*
X151972416Y-58895277D01*
X151831658Y-58924426D01*
X151560657Y-59020393D01*
X151305188Y-59152250D01*
X151301687Y-59154711D01*
X151301683Y-59154713D01*
X151291594Y-59161804D01*
X151069977Y-59317559D01*
X150859378Y-59513260D01*
X150677287Y-59735732D01*
X150527073Y-59980858D01*
X150411517Y-60244102D01*
X150332756Y-60520594D01*
X150292249Y-60805216D01*
X150292227Y-60809505D01*
X150292226Y-60809512D01*
X150290765Y-61088417D01*
X150290743Y-61092703D01*
X61187867Y-61092703D01*
X61189235Y-60831583D01*
X61189235Y-60831576D01*
X61189257Y-60827297D01*
X61151732Y-60542266D01*
X61075871Y-60264964D01*
X60963077Y-60000524D01*
X60815439Y-59753839D01*
X60635687Y-59529472D01*
X60427149Y-59331577D01*
X60193683Y-59163814D01*
X60171843Y-59152250D01*
X60148654Y-59139972D01*
X59939608Y-59029288D01*
X59669627Y-58930489D01*
X59388736Y-58869245D01*
X59357685Y-58866801D01*
X59165718Y-58851693D01*
X59165709Y-58851693D01*
X59163261Y-58851500D01*
X59007729Y-58851500D01*
X59005593Y-58851646D01*
X59005582Y-58851646D01*
X58797452Y-58865835D01*
X58797446Y-58865836D01*
X58793175Y-58866127D01*
X58788980Y-58866996D01*
X58788978Y-58866996D01*
X58652416Y-58895277D01*
X58511658Y-58924426D01*
X58240657Y-59020393D01*
X57985188Y-59152250D01*
X57981687Y-59154711D01*
X57981683Y-59154713D01*
X57971594Y-59161804D01*
X57749977Y-59317559D01*
X57539378Y-59513260D01*
X57357287Y-59735732D01*
X57207073Y-59980858D01*
X57091517Y-60244102D01*
X57012756Y-60520594D01*
X56972249Y-60805216D01*
X56972227Y-60809505D01*
X56972226Y-60809512D01*
X56970765Y-61088417D01*
X56970743Y-61092703D01*
X53848500Y-61092703D01*
X53848500Y-56514500D01*
X53868502Y-56446379D01*
X53922158Y-56399886D01*
X53974500Y-56388500D01*
X156845500Y-56388500D01*
X156913621Y-56408502D01*
G37*
G04 #@! TD.AperFunction*
M02*
