M48
INCH,TZ
T1C0.0157
T2C0.0315
T3C0.0394
T4C0.0402
T5C0.0421
T6C0.0472
%
G90
G05
T1
X24500Y-47000
X25000Y-38000
T2
X58000Y-41504
X58000Y-42504
X58000Y-43504
X58000Y-44504
X58000Y-45504
X58000Y-46504
X58000Y-47504
X58000Y-48504
X58000Y-49504
X58000Y-50504
X58000Y-51504
X58000Y-52504
T3
X54785Y-37500
X54785Y-38500
X55785Y-37500
X55785Y-38500
X56785Y-37500
X56785Y-38500
X57785Y-37500
X57785Y-38500
T4
X26500Y-35756
X26500Y-36756
X26500Y-37756
X26500Y-38756
X26500Y-39756
X26500Y-40756
X26500Y-41756
X26500Y-42756
X26500Y-43756
X26500Y-44756
X26500Y-45756
X26500Y-46756
X26500Y-47756
X26500Y-48756
X26500Y-49756
X26500Y-50756
X26500Y-51756
X26500Y-52756
X26500Y-53756
X27500Y-35756
X27500Y-36756
X27500Y-37756
X27500Y-38756
X27500Y-39756
X27500Y-40756
X27500Y-41756
X27500Y-42756
X27500Y-43756
X27500Y-44756
X27500Y-45756
X27500Y-46756
X27500Y-47756
X27500Y-48756
X27500Y-49756
X27500Y-50756
X27500Y-51756
X27500Y-52756
X27500Y-53756
X50500Y-35756
X50500Y-36756
X50500Y-37756
X50500Y-38756
X50500Y-39756
X50500Y-40756
X50500Y-41756
X50500Y-42756
X50500Y-43756
X50500Y-44756
X50500Y-45756
X50500Y-46756
X50500Y-47756
X50500Y-48756
X50500Y-49756
X50500Y-50756
X50500Y-51756
X50500Y-52756
X50500Y-53756
X51500Y-35756
X51500Y-36756
X51500Y-37756
X51500Y-38756
X51500Y-39756
X51500Y-40756
X51500Y-41756
X51500Y-42756
X51500Y-43756
X51500Y-44756
X51500Y-45756
X51500Y-46756
X51500Y-47756
X51500Y-48756
X51500Y-49756
X51500Y-50756
X51500Y-51756
X51500Y-52756
X51500Y-53756
T5
X29500Y-39756
X29500Y-40756
X29500Y-41756
X29500Y-42756
X29500Y-43756
X29500Y-44756
X29500Y-45756
X29500Y-46756
X29500Y-48756
X29500Y-49756
X29500Y-50756
X29500Y-51756
X29500Y-52756
X29500Y-53756
X48500Y-36157
X48500Y-37157
X48500Y-38157
X48500Y-39157
X48500Y-40157
X48500Y-41157
X48500Y-42157
X48500Y-43157
X48500Y-44157
X48500Y-45157
X48500Y-46756
X48500Y-47756
X48500Y-48756
X48500Y-49756
X48500Y-50756
X48500Y-51756
X48500Y-52756
X48500Y-53756
T6
X23276Y-32421
X23276Y-33799
X23276Y-35177
X23276Y-36555
X23276Y-37933
X23276Y-39311
X23276Y-40689
X23276Y-42067
X23276Y-43445
X23276Y-44823
X23276Y-46201
X23276Y-47579
T0
M30
