%TF.GenerationSoftware,KiCad,Pcbnew,(6.0.11)*%
%TF.CreationDate,2023-03-02T21:40:19-06:00*%
%TF.ProjectId,STM,53544d2e-6b69-4636-9164-5f7063625858,rev?*%
%TF.SameCoordinates,Original*%
%TF.FileFunction,Drillmap*%
%TF.FilePolarity,Positive*%
%FSLAX45Y45*%
G04 Gerber Fmt 4.5, Leading zero omitted, Abs format (unit mm)*
G04 Created by KiCad (PCBNEW (6.0.11)) date 2023-03-02 21:40:19*
%MOMM*%
%LPD*%
G01*
G04 APERTURE LIST*
%ADD10C,0.100000*%
%ADD11C,0.200000*%
%ADD12C,0.300000*%
%ADD13C,0.320000*%
G04 APERTURE END LIST*
D10*
X5334000Y-14478000D02*
X15748000Y-14478000D01*
X5334000Y-5588000D02*
X5334000Y-14478000D01*
X15748000Y-5588000D02*
X5334000Y-5588000D01*
X15748000Y-14478000D02*
X15748000Y-5588000D01*
D11*
D12*
X7343000Y-8551000D02*
X7643000Y-8851000D01*
X7643000Y-8551000D02*
X7343000Y-8851000D01*
X10645000Y-13758000D02*
X10945000Y-14058000D01*
X10945000Y-13758000D02*
X10645000Y-14058000D01*
X12169000Y-8678000D02*
X12469000Y-8978000D01*
X12469000Y-8678000D02*
X12169000Y-8978000D01*
D13*
X6002000Y-13970000D02*
G75*
G03*
X6002000Y-13970000I-160000J0D01*
G01*
X6068000Y-6096000D02*
G75*
G03*
X6068000Y-6096000I-160000J0D01*
G01*
X15400000Y-6096000D02*
G75*
G03*
X15400000Y-6096000I-160000J0D01*
G01*
X15400000Y-13970000D02*
G75*
G03*
X15400000Y-13970000I-160000J0D01*
G01*
D11*
X5586619Y-14793476D02*
X5586619Y-14593476D01*
X5634238Y-14593476D01*
X5662809Y-14603000D01*
X5681857Y-14622048D01*
X5691381Y-14641095D01*
X5700905Y-14679190D01*
X5700905Y-14707762D01*
X5691381Y-14745857D01*
X5681857Y-14764905D01*
X5662809Y-14783952D01*
X5634238Y-14793476D01*
X5586619Y-14793476D01*
X5786619Y-14793476D02*
X5786619Y-14660143D01*
X5786619Y-14698238D02*
X5796143Y-14679190D01*
X5805667Y-14669667D01*
X5824714Y-14660143D01*
X5843762Y-14660143D01*
X5910428Y-14793476D02*
X5910428Y-14660143D01*
X5910428Y-14593476D02*
X5900905Y-14603000D01*
X5910428Y-14612524D01*
X5919952Y-14603000D01*
X5910428Y-14593476D01*
X5910428Y-14612524D01*
X6034238Y-14793476D02*
X6015190Y-14783952D01*
X6005667Y-14764905D01*
X6005667Y-14593476D01*
X6139000Y-14793476D02*
X6119952Y-14783952D01*
X6110428Y-14764905D01*
X6110428Y-14593476D01*
X6367571Y-14793476D02*
X6367571Y-14593476D01*
X6434238Y-14736333D01*
X6500905Y-14593476D01*
X6500905Y-14793476D01*
X6681857Y-14793476D02*
X6681857Y-14688714D01*
X6672333Y-14669667D01*
X6653286Y-14660143D01*
X6615190Y-14660143D01*
X6596143Y-14669667D01*
X6681857Y-14783952D02*
X6662809Y-14793476D01*
X6615190Y-14793476D01*
X6596143Y-14783952D01*
X6586619Y-14764905D01*
X6586619Y-14745857D01*
X6596143Y-14726809D01*
X6615190Y-14717286D01*
X6662809Y-14717286D01*
X6681857Y-14707762D01*
X6777095Y-14660143D02*
X6777095Y-14860143D01*
X6777095Y-14669667D02*
X6796143Y-14660143D01*
X6834238Y-14660143D01*
X6853286Y-14669667D01*
X6862809Y-14679190D01*
X6872333Y-14698238D01*
X6872333Y-14755381D01*
X6862809Y-14774428D01*
X6853286Y-14783952D01*
X6834238Y-14793476D01*
X6796143Y-14793476D01*
X6777095Y-14783952D01*
X6958048Y-14774428D02*
X6967571Y-14783952D01*
X6958048Y-14793476D01*
X6948524Y-14783952D01*
X6958048Y-14774428D01*
X6958048Y-14793476D01*
X6958048Y-14669667D02*
X6967571Y-14679190D01*
X6958048Y-14688714D01*
X6948524Y-14679190D01*
X6958048Y-14669667D01*
X6958048Y-14688714D01*
X5129000Y-15023000D02*
X5329000Y-15223000D01*
X5329000Y-15023000D02*
X5129000Y-15223000D01*
X5567571Y-15013476D02*
X5691381Y-15013476D01*
X5624714Y-15089667D01*
X5653286Y-15089667D01*
X5672333Y-15099190D01*
X5681857Y-15108714D01*
X5691381Y-15127762D01*
X5691381Y-15175381D01*
X5681857Y-15194428D01*
X5672333Y-15203952D01*
X5653286Y-15213476D01*
X5596143Y-15213476D01*
X5577095Y-15203952D01*
X5567571Y-15194428D01*
X5777095Y-15194428D02*
X5786619Y-15203952D01*
X5777095Y-15213476D01*
X5767571Y-15203952D01*
X5777095Y-15194428D01*
X5777095Y-15213476D01*
X5910428Y-15013476D02*
X5929476Y-15013476D01*
X5948524Y-15023000D01*
X5958048Y-15032524D01*
X5967571Y-15051571D01*
X5977095Y-15089667D01*
X5977095Y-15137286D01*
X5967571Y-15175381D01*
X5958048Y-15194428D01*
X5948524Y-15203952D01*
X5929476Y-15213476D01*
X5910428Y-15213476D01*
X5891381Y-15203952D01*
X5881857Y-15194428D01*
X5872333Y-15175381D01*
X5862809Y-15137286D01*
X5862809Y-15089667D01*
X5872333Y-15051571D01*
X5881857Y-15032524D01*
X5891381Y-15023000D01*
X5910428Y-15013476D01*
X6100905Y-15013476D02*
X6119952Y-15013476D01*
X6139000Y-15023000D01*
X6148524Y-15032524D01*
X6158048Y-15051571D01*
X6167571Y-15089667D01*
X6167571Y-15137286D01*
X6158048Y-15175381D01*
X6148524Y-15194428D01*
X6139000Y-15203952D01*
X6119952Y-15213476D01*
X6100905Y-15213476D01*
X6081857Y-15203952D01*
X6072333Y-15194428D01*
X6062809Y-15175381D01*
X6053286Y-15137286D01*
X6053286Y-15089667D01*
X6062809Y-15051571D01*
X6072333Y-15032524D01*
X6081857Y-15023000D01*
X6100905Y-15013476D01*
X6291381Y-15013476D02*
X6310428Y-15013476D01*
X6329476Y-15023000D01*
X6339000Y-15032524D01*
X6348524Y-15051571D01*
X6358048Y-15089667D01*
X6358048Y-15137286D01*
X6348524Y-15175381D01*
X6339000Y-15194428D01*
X6329476Y-15203952D01*
X6310428Y-15213476D01*
X6291381Y-15213476D01*
X6272333Y-15203952D01*
X6262809Y-15194428D01*
X6253286Y-15175381D01*
X6243762Y-15137286D01*
X6243762Y-15089667D01*
X6253286Y-15051571D01*
X6262809Y-15032524D01*
X6272333Y-15023000D01*
X6291381Y-15013476D01*
X6443762Y-15213476D02*
X6443762Y-15080143D01*
X6443762Y-15099190D02*
X6453286Y-15089667D01*
X6472333Y-15080143D01*
X6500905Y-15080143D01*
X6519952Y-15089667D01*
X6529476Y-15108714D01*
X6529476Y-15213476D01*
X6529476Y-15108714D02*
X6539000Y-15089667D01*
X6558048Y-15080143D01*
X6586619Y-15080143D01*
X6605667Y-15089667D01*
X6615190Y-15108714D01*
X6615190Y-15213476D01*
X6710428Y-15213476D02*
X6710428Y-15080143D01*
X6710428Y-15099190D02*
X6719952Y-15089667D01*
X6739000Y-15080143D01*
X6767571Y-15080143D01*
X6786619Y-15089667D01*
X6796143Y-15108714D01*
X6796143Y-15213476D01*
X6796143Y-15108714D02*
X6805667Y-15089667D01*
X6824714Y-15080143D01*
X6853286Y-15080143D01*
X6872333Y-15089667D01*
X6881857Y-15108714D01*
X6881857Y-15213476D01*
X7272333Y-15003952D02*
X7100905Y-15261095D01*
X7529476Y-15013476D02*
X7548524Y-15013476D01*
X7567571Y-15023000D01*
X7577095Y-15032524D01*
X7586619Y-15051571D01*
X7596143Y-15089667D01*
X7596143Y-15137286D01*
X7586619Y-15175381D01*
X7577095Y-15194428D01*
X7567571Y-15203952D01*
X7548524Y-15213476D01*
X7529476Y-15213476D01*
X7510428Y-15203952D01*
X7500905Y-15194428D01*
X7491381Y-15175381D01*
X7481857Y-15137286D01*
X7481857Y-15089667D01*
X7491381Y-15051571D01*
X7500905Y-15032524D01*
X7510428Y-15023000D01*
X7529476Y-15013476D01*
X7681857Y-15194428D02*
X7691381Y-15203952D01*
X7681857Y-15213476D01*
X7672333Y-15203952D01*
X7681857Y-15194428D01*
X7681857Y-15213476D01*
X7881857Y-15213476D02*
X7767571Y-15213476D01*
X7824714Y-15213476D02*
X7824714Y-15013476D01*
X7805667Y-15042048D01*
X7786619Y-15061095D01*
X7767571Y-15070619D01*
X8072333Y-15213476D02*
X7958048Y-15213476D01*
X8015190Y-15213476D02*
X8015190Y-15013476D01*
X7996143Y-15042048D01*
X7977095Y-15061095D01*
X7958048Y-15070619D01*
X8186619Y-15099190D02*
X8167571Y-15089667D01*
X8158048Y-15080143D01*
X8148524Y-15061095D01*
X8148524Y-15051571D01*
X8158048Y-15032524D01*
X8167571Y-15023000D01*
X8186619Y-15013476D01*
X8224714Y-15013476D01*
X8243762Y-15023000D01*
X8253286Y-15032524D01*
X8262809Y-15051571D01*
X8262809Y-15061095D01*
X8253286Y-15080143D01*
X8243762Y-15089667D01*
X8224714Y-15099190D01*
X8186619Y-15099190D01*
X8167571Y-15108714D01*
X8158048Y-15118238D01*
X8148524Y-15137286D01*
X8148524Y-15175381D01*
X8158048Y-15194428D01*
X8167571Y-15203952D01*
X8186619Y-15213476D01*
X8224714Y-15213476D01*
X8243762Y-15203952D01*
X8253286Y-15194428D01*
X8262809Y-15175381D01*
X8262809Y-15137286D01*
X8253286Y-15118238D01*
X8243762Y-15108714D01*
X8224714Y-15099190D01*
X8453286Y-15213476D02*
X8339000Y-15213476D01*
X8396143Y-15213476D02*
X8396143Y-15013476D01*
X8377095Y-15042048D01*
X8358048Y-15061095D01*
X8339000Y-15070619D01*
X8529476Y-15013476D02*
X8529476Y-15051571D01*
X8605667Y-15013476D02*
X8605667Y-15051571D01*
X8900905Y-15289667D02*
X8891381Y-15280143D01*
X8872333Y-15251571D01*
X8862810Y-15232524D01*
X8853286Y-15203952D01*
X8843762Y-15156333D01*
X8843762Y-15118238D01*
X8853286Y-15070619D01*
X8862810Y-15042048D01*
X8872333Y-15023000D01*
X8891381Y-14994428D01*
X8900905Y-14984905D01*
X8958048Y-15013476D02*
X9081857Y-15013476D01*
X9015190Y-15089667D01*
X9043762Y-15089667D01*
X9062810Y-15099190D01*
X9072333Y-15108714D01*
X9081857Y-15127762D01*
X9081857Y-15175381D01*
X9072333Y-15194428D01*
X9062810Y-15203952D01*
X9043762Y-15213476D01*
X8986619Y-15213476D01*
X8967571Y-15203952D01*
X8958048Y-15194428D01*
X9319952Y-15213476D02*
X9319952Y-15013476D01*
X9405667Y-15213476D02*
X9405667Y-15108714D01*
X9396143Y-15089667D01*
X9377095Y-15080143D01*
X9348524Y-15080143D01*
X9329476Y-15089667D01*
X9319952Y-15099190D01*
X9529476Y-15213476D02*
X9510429Y-15203952D01*
X9500905Y-15194428D01*
X9491381Y-15175381D01*
X9491381Y-15118238D01*
X9500905Y-15099190D01*
X9510429Y-15089667D01*
X9529476Y-15080143D01*
X9558048Y-15080143D01*
X9577095Y-15089667D01*
X9586619Y-15099190D01*
X9596143Y-15118238D01*
X9596143Y-15175381D01*
X9586619Y-15194428D01*
X9577095Y-15203952D01*
X9558048Y-15213476D01*
X9529476Y-15213476D01*
X9710429Y-15213476D02*
X9691381Y-15203952D01*
X9681857Y-15184905D01*
X9681857Y-15013476D01*
X9862810Y-15203952D02*
X9843762Y-15213476D01*
X9805667Y-15213476D01*
X9786619Y-15203952D01*
X9777095Y-15184905D01*
X9777095Y-15108714D01*
X9786619Y-15089667D01*
X9805667Y-15080143D01*
X9843762Y-15080143D01*
X9862810Y-15089667D01*
X9872333Y-15108714D01*
X9872333Y-15127762D01*
X9777095Y-15146809D01*
X9948524Y-15203952D02*
X9967571Y-15213476D01*
X10005667Y-15213476D01*
X10024714Y-15203952D01*
X10034238Y-15184905D01*
X10034238Y-15175381D01*
X10024714Y-15156333D01*
X10005667Y-15146809D01*
X9977095Y-15146809D01*
X9958048Y-15137286D01*
X9948524Y-15118238D01*
X9948524Y-15108714D01*
X9958048Y-15089667D01*
X9977095Y-15080143D01*
X10005667Y-15080143D01*
X10024714Y-15089667D01*
X10100905Y-15289667D02*
X10110429Y-15280143D01*
X10129476Y-15251571D01*
X10139000Y-15232524D01*
X10148524Y-15203952D01*
X10158048Y-15156333D01*
X10158048Y-15118238D01*
X10148524Y-15070619D01*
X10139000Y-15042048D01*
X10129476Y-15023000D01*
X10110429Y-14994428D01*
X10100905Y-14984905D01*
X10462810Y-15289667D02*
X10453286Y-15280143D01*
X10434238Y-15251571D01*
X10424714Y-15232524D01*
X10415190Y-15203952D01*
X10405667Y-15156333D01*
X10405667Y-15118238D01*
X10415190Y-15070619D01*
X10424714Y-15042048D01*
X10434238Y-15023000D01*
X10453286Y-14994428D01*
X10462810Y-14984905D01*
X10539000Y-15080143D02*
X10539000Y-15213476D01*
X10539000Y-15099190D02*
X10548524Y-15089667D01*
X10567571Y-15080143D01*
X10596143Y-15080143D01*
X10615190Y-15089667D01*
X10624714Y-15108714D01*
X10624714Y-15213476D01*
X10748524Y-15213476D02*
X10729476Y-15203952D01*
X10719952Y-15194428D01*
X10710429Y-15175381D01*
X10710429Y-15118238D01*
X10719952Y-15099190D01*
X10729476Y-15089667D01*
X10748524Y-15080143D01*
X10777095Y-15080143D01*
X10796143Y-15089667D01*
X10805667Y-15099190D01*
X10815190Y-15118238D01*
X10815190Y-15175381D01*
X10805667Y-15194428D01*
X10796143Y-15203952D01*
X10777095Y-15213476D01*
X10748524Y-15213476D01*
X10872333Y-15080143D02*
X10948524Y-15080143D01*
X10900905Y-15013476D02*
X10900905Y-15184905D01*
X10910429Y-15203952D01*
X10929476Y-15213476D01*
X10948524Y-15213476D01*
X11167571Y-15080143D02*
X11167571Y-15280143D01*
X11167571Y-15089667D02*
X11186619Y-15080143D01*
X11224714Y-15080143D01*
X11243762Y-15089667D01*
X11253286Y-15099190D01*
X11262809Y-15118238D01*
X11262809Y-15175381D01*
X11253286Y-15194428D01*
X11243762Y-15203952D01*
X11224714Y-15213476D01*
X11186619Y-15213476D01*
X11167571Y-15203952D01*
X11377095Y-15213476D02*
X11358048Y-15203952D01*
X11348524Y-15184905D01*
X11348524Y-15013476D01*
X11539000Y-15213476D02*
X11539000Y-15108714D01*
X11529476Y-15089667D01*
X11510428Y-15080143D01*
X11472333Y-15080143D01*
X11453286Y-15089667D01*
X11539000Y-15203952D02*
X11519952Y-15213476D01*
X11472333Y-15213476D01*
X11453286Y-15203952D01*
X11443762Y-15184905D01*
X11443762Y-15165857D01*
X11453286Y-15146809D01*
X11472333Y-15137286D01*
X11519952Y-15137286D01*
X11539000Y-15127762D01*
X11605667Y-15080143D02*
X11681857Y-15080143D01*
X11634238Y-15013476D02*
X11634238Y-15184905D01*
X11643762Y-15203952D01*
X11662809Y-15213476D01*
X11681857Y-15213476D01*
X11824714Y-15203952D02*
X11805667Y-15213476D01*
X11767571Y-15213476D01*
X11748524Y-15203952D01*
X11739000Y-15184905D01*
X11739000Y-15108714D01*
X11748524Y-15089667D01*
X11767571Y-15080143D01*
X11805667Y-15080143D01*
X11824714Y-15089667D01*
X11834238Y-15108714D01*
X11834238Y-15127762D01*
X11739000Y-15146809D01*
X12005667Y-15213476D02*
X12005667Y-15013476D01*
X12005667Y-15203952D02*
X11986619Y-15213476D01*
X11948524Y-15213476D01*
X11929476Y-15203952D01*
X11919952Y-15194428D01*
X11910428Y-15175381D01*
X11910428Y-15118238D01*
X11919952Y-15099190D01*
X11929476Y-15089667D01*
X11948524Y-15080143D01*
X11986619Y-15080143D01*
X12005667Y-15089667D01*
X12081857Y-15289667D02*
X12091381Y-15280143D01*
X12110428Y-15251571D01*
X12119952Y-15232524D01*
X12129476Y-15203952D01*
X12139000Y-15156333D01*
X12139000Y-15118238D01*
X12129476Y-15070619D01*
X12119952Y-15042048D01*
X12110428Y-15023000D01*
X12091381Y-14994428D01*
X12081857Y-14984905D01*
X5329000Y-15443000D02*
G75*
G03*
X5329000Y-15443000I-100000J0D01*
G01*
X5567571Y-15333476D02*
X5691381Y-15333476D01*
X5624714Y-15409667D01*
X5653286Y-15409667D01*
X5672333Y-15419190D01*
X5681857Y-15428714D01*
X5691381Y-15447762D01*
X5691381Y-15495381D01*
X5681857Y-15514428D01*
X5672333Y-15523952D01*
X5653286Y-15533476D01*
X5596143Y-15533476D01*
X5577095Y-15523952D01*
X5567571Y-15514428D01*
X5777095Y-15514428D02*
X5786619Y-15523952D01*
X5777095Y-15533476D01*
X5767571Y-15523952D01*
X5777095Y-15514428D01*
X5777095Y-15533476D01*
X5862809Y-15352524D02*
X5872333Y-15343000D01*
X5891381Y-15333476D01*
X5939000Y-15333476D01*
X5958048Y-15343000D01*
X5967571Y-15352524D01*
X5977095Y-15371571D01*
X5977095Y-15390619D01*
X5967571Y-15419190D01*
X5853286Y-15533476D01*
X5977095Y-15533476D01*
X6100905Y-15333476D02*
X6119952Y-15333476D01*
X6139000Y-15343000D01*
X6148524Y-15352524D01*
X6158048Y-15371571D01*
X6167571Y-15409667D01*
X6167571Y-15457286D01*
X6158048Y-15495381D01*
X6148524Y-15514428D01*
X6139000Y-15523952D01*
X6119952Y-15533476D01*
X6100905Y-15533476D01*
X6081857Y-15523952D01*
X6072333Y-15514428D01*
X6062809Y-15495381D01*
X6053286Y-15457286D01*
X6053286Y-15409667D01*
X6062809Y-15371571D01*
X6072333Y-15352524D01*
X6081857Y-15343000D01*
X6100905Y-15333476D01*
X6291381Y-15333476D02*
X6310428Y-15333476D01*
X6329476Y-15343000D01*
X6339000Y-15352524D01*
X6348524Y-15371571D01*
X6358048Y-15409667D01*
X6358048Y-15457286D01*
X6348524Y-15495381D01*
X6339000Y-15514428D01*
X6329476Y-15523952D01*
X6310428Y-15533476D01*
X6291381Y-15533476D01*
X6272333Y-15523952D01*
X6262809Y-15514428D01*
X6253286Y-15495381D01*
X6243762Y-15457286D01*
X6243762Y-15409667D01*
X6253286Y-15371571D01*
X6262809Y-15352524D01*
X6272333Y-15343000D01*
X6291381Y-15333476D01*
X6443762Y-15533476D02*
X6443762Y-15400143D01*
X6443762Y-15419190D02*
X6453286Y-15409667D01*
X6472333Y-15400143D01*
X6500905Y-15400143D01*
X6519952Y-15409667D01*
X6529476Y-15428714D01*
X6529476Y-15533476D01*
X6529476Y-15428714D02*
X6539000Y-15409667D01*
X6558048Y-15400143D01*
X6586619Y-15400143D01*
X6605667Y-15409667D01*
X6615190Y-15428714D01*
X6615190Y-15533476D01*
X6710428Y-15533476D02*
X6710428Y-15400143D01*
X6710428Y-15419190D02*
X6719952Y-15409667D01*
X6739000Y-15400143D01*
X6767571Y-15400143D01*
X6786619Y-15409667D01*
X6796143Y-15428714D01*
X6796143Y-15533476D01*
X6796143Y-15428714D02*
X6805667Y-15409667D01*
X6824714Y-15400143D01*
X6853286Y-15400143D01*
X6872333Y-15409667D01*
X6881857Y-15428714D01*
X6881857Y-15533476D01*
X7272333Y-15323952D02*
X7100905Y-15581095D01*
X7529476Y-15333476D02*
X7548524Y-15333476D01*
X7567571Y-15343000D01*
X7577095Y-15352524D01*
X7586619Y-15371571D01*
X7596143Y-15409667D01*
X7596143Y-15457286D01*
X7586619Y-15495381D01*
X7577095Y-15514428D01*
X7567571Y-15523952D01*
X7548524Y-15533476D01*
X7529476Y-15533476D01*
X7510428Y-15523952D01*
X7500905Y-15514428D01*
X7491381Y-15495381D01*
X7481857Y-15457286D01*
X7481857Y-15409667D01*
X7491381Y-15371571D01*
X7500905Y-15352524D01*
X7510428Y-15343000D01*
X7529476Y-15333476D01*
X7681857Y-15514428D02*
X7691381Y-15523952D01*
X7681857Y-15533476D01*
X7672333Y-15523952D01*
X7681857Y-15514428D01*
X7681857Y-15533476D01*
X7881857Y-15533476D02*
X7767571Y-15533476D01*
X7824714Y-15533476D02*
X7824714Y-15333476D01*
X7805667Y-15362048D01*
X7786619Y-15381095D01*
X7767571Y-15390619D01*
X7958048Y-15352524D02*
X7967571Y-15343000D01*
X7986619Y-15333476D01*
X8034238Y-15333476D01*
X8053286Y-15343000D01*
X8062809Y-15352524D01*
X8072333Y-15371571D01*
X8072333Y-15390619D01*
X8062809Y-15419190D01*
X7948524Y-15533476D01*
X8072333Y-15533476D01*
X8243762Y-15333476D02*
X8205667Y-15333476D01*
X8186619Y-15343000D01*
X8177095Y-15352524D01*
X8158048Y-15381095D01*
X8148524Y-15419190D01*
X8148524Y-15495381D01*
X8158048Y-15514428D01*
X8167571Y-15523952D01*
X8186619Y-15533476D01*
X8224714Y-15533476D01*
X8243762Y-15523952D01*
X8253286Y-15514428D01*
X8262809Y-15495381D01*
X8262809Y-15447762D01*
X8253286Y-15428714D01*
X8243762Y-15419190D01*
X8224714Y-15409667D01*
X8186619Y-15409667D01*
X8167571Y-15419190D01*
X8158048Y-15428714D01*
X8148524Y-15447762D01*
X8386619Y-15333476D02*
X8405667Y-15333476D01*
X8424714Y-15343000D01*
X8434238Y-15352524D01*
X8443762Y-15371571D01*
X8453286Y-15409667D01*
X8453286Y-15457286D01*
X8443762Y-15495381D01*
X8434238Y-15514428D01*
X8424714Y-15523952D01*
X8405667Y-15533476D01*
X8386619Y-15533476D01*
X8367571Y-15523952D01*
X8358048Y-15514428D01*
X8348524Y-15495381D01*
X8339000Y-15457286D01*
X8339000Y-15409667D01*
X8348524Y-15371571D01*
X8358048Y-15352524D01*
X8367571Y-15343000D01*
X8386619Y-15333476D01*
X8529476Y-15333476D02*
X8529476Y-15371571D01*
X8605667Y-15333476D02*
X8605667Y-15371571D01*
X8900905Y-15609667D02*
X8891381Y-15600143D01*
X8872333Y-15571571D01*
X8862810Y-15552524D01*
X8853286Y-15523952D01*
X8843762Y-15476333D01*
X8843762Y-15438238D01*
X8853286Y-15390619D01*
X8862810Y-15362048D01*
X8872333Y-15343000D01*
X8891381Y-15314428D01*
X8900905Y-15304905D01*
X9062810Y-15400143D02*
X9062810Y-15533476D01*
X9015190Y-15323952D02*
X8967571Y-15466809D01*
X9091381Y-15466809D01*
X9319952Y-15533476D02*
X9319952Y-15333476D01*
X9405667Y-15533476D02*
X9405667Y-15428714D01*
X9396143Y-15409667D01*
X9377095Y-15400143D01*
X9348524Y-15400143D01*
X9329476Y-15409667D01*
X9319952Y-15419190D01*
X9529476Y-15533476D02*
X9510429Y-15523952D01*
X9500905Y-15514428D01*
X9491381Y-15495381D01*
X9491381Y-15438238D01*
X9500905Y-15419190D01*
X9510429Y-15409667D01*
X9529476Y-15400143D01*
X9558048Y-15400143D01*
X9577095Y-15409667D01*
X9586619Y-15419190D01*
X9596143Y-15438238D01*
X9596143Y-15495381D01*
X9586619Y-15514428D01*
X9577095Y-15523952D01*
X9558048Y-15533476D01*
X9529476Y-15533476D01*
X9710429Y-15533476D02*
X9691381Y-15523952D01*
X9681857Y-15504905D01*
X9681857Y-15333476D01*
X9862810Y-15523952D02*
X9843762Y-15533476D01*
X9805667Y-15533476D01*
X9786619Y-15523952D01*
X9777095Y-15504905D01*
X9777095Y-15428714D01*
X9786619Y-15409667D01*
X9805667Y-15400143D01*
X9843762Y-15400143D01*
X9862810Y-15409667D01*
X9872333Y-15428714D01*
X9872333Y-15447762D01*
X9777095Y-15466809D01*
X9948524Y-15523952D02*
X9967571Y-15533476D01*
X10005667Y-15533476D01*
X10024714Y-15523952D01*
X10034238Y-15504905D01*
X10034238Y-15495381D01*
X10024714Y-15476333D01*
X10005667Y-15466809D01*
X9977095Y-15466809D01*
X9958048Y-15457286D01*
X9948524Y-15438238D01*
X9948524Y-15428714D01*
X9958048Y-15409667D01*
X9977095Y-15400143D01*
X10005667Y-15400143D01*
X10024714Y-15409667D01*
X10100905Y-15609667D02*
X10110429Y-15600143D01*
X10129476Y-15571571D01*
X10139000Y-15552524D01*
X10148524Y-15523952D01*
X10158048Y-15476333D01*
X10158048Y-15438238D01*
X10148524Y-15390619D01*
X10139000Y-15362048D01*
X10129476Y-15343000D01*
X10110429Y-15314428D01*
X10100905Y-15304905D01*
X10462810Y-15609667D02*
X10453286Y-15600143D01*
X10434238Y-15571571D01*
X10424714Y-15552524D01*
X10415190Y-15523952D01*
X10405667Y-15476333D01*
X10405667Y-15438238D01*
X10415190Y-15390619D01*
X10424714Y-15362048D01*
X10434238Y-15343000D01*
X10453286Y-15314428D01*
X10462810Y-15304905D01*
X10539000Y-15400143D02*
X10539000Y-15533476D01*
X10539000Y-15419190D02*
X10548524Y-15409667D01*
X10567571Y-15400143D01*
X10596143Y-15400143D01*
X10615190Y-15409667D01*
X10624714Y-15428714D01*
X10624714Y-15533476D01*
X10748524Y-15533476D02*
X10729476Y-15523952D01*
X10719952Y-15514428D01*
X10710429Y-15495381D01*
X10710429Y-15438238D01*
X10719952Y-15419190D01*
X10729476Y-15409667D01*
X10748524Y-15400143D01*
X10777095Y-15400143D01*
X10796143Y-15409667D01*
X10805667Y-15419190D01*
X10815190Y-15438238D01*
X10815190Y-15495381D01*
X10805667Y-15514428D01*
X10796143Y-15523952D01*
X10777095Y-15533476D01*
X10748524Y-15533476D01*
X10872333Y-15400143D02*
X10948524Y-15400143D01*
X10900905Y-15333476D02*
X10900905Y-15504905D01*
X10910429Y-15523952D01*
X10929476Y-15533476D01*
X10948524Y-15533476D01*
X11167571Y-15400143D02*
X11167571Y-15600143D01*
X11167571Y-15409667D02*
X11186619Y-15400143D01*
X11224714Y-15400143D01*
X11243762Y-15409667D01*
X11253286Y-15419190D01*
X11262809Y-15438238D01*
X11262809Y-15495381D01*
X11253286Y-15514428D01*
X11243762Y-15523952D01*
X11224714Y-15533476D01*
X11186619Y-15533476D01*
X11167571Y-15523952D01*
X11377095Y-15533476D02*
X11358048Y-15523952D01*
X11348524Y-15504905D01*
X11348524Y-15333476D01*
X11539000Y-15533476D02*
X11539000Y-15428714D01*
X11529476Y-15409667D01*
X11510428Y-15400143D01*
X11472333Y-15400143D01*
X11453286Y-15409667D01*
X11539000Y-15523952D02*
X11519952Y-15533476D01*
X11472333Y-15533476D01*
X11453286Y-15523952D01*
X11443762Y-15504905D01*
X11443762Y-15485857D01*
X11453286Y-15466809D01*
X11472333Y-15457286D01*
X11519952Y-15457286D01*
X11539000Y-15447762D01*
X11605667Y-15400143D02*
X11681857Y-15400143D01*
X11634238Y-15333476D02*
X11634238Y-15504905D01*
X11643762Y-15523952D01*
X11662809Y-15533476D01*
X11681857Y-15533476D01*
X11824714Y-15523952D02*
X11805667Y-15533476D01*
X11767571Y-15533476D01*
X11748524Y-15523952D01*
X11739000Y-15504905D01*
X11739000Y-15428714D01*
X11748524Y-15409667D01*
X11767571Y-15400143D01*
X11805667Y-15400143D01*
X11824714Y-15409667D01*
X11834238Y-15428714D01*
X11834238Y-15447762D01*
X11739000Y-15466809D01*
X12005667Y-15533476D02*
X12005667Y-15333476D01*
X12005667Y-15523952D02*
X11986619Y-15533476D01*
X11948524Y-15533476D01*
X11929476Y-15523952D01*
X11919952Y-15514428D01*
X11910428Y-15495381D01*
X11910428Y-15438238D01*
X11919952Y-15419190D01*
X11929476Y-15409667D01*
X11948524Y-15400143D01*
X11986619Y-15400143D01*
X12005667Y-15409667D01*
X12081857Y-15609667D02*
X12091381Y-15600143D01*
X12110428Y-15571571D01*
X12119952Y-15552524D01*
X12129476Y-15523952D01*
X12139000Y-15476333D01*
X12139000Y-15438238D01*
X12129476Y-15390619D01*
X12119952Y-15362048D01*
X12110428Y-15343000D01*
X12091381Y-15314428D01*
X12081857Y-15304905D01*
M02*
