M48
; DRILL file {KiCad (6.0.11)} date Thu Mar  2 21:40:06 2023
; FORMAT={-:-/ absolute / metric / decimal}
; #@! TF.CreationDate,2023-03-02T21:40:06-06:00
; #@! TF.GenerationSoftware,Kicad,Pcbnew,(6.0.11)
; #@! TF.FileFunction,Plated,1,2,PTH
FMAT,2
METRIC
; #@! TA.AperFunction,Plated,PTH,ViaDrill
T1C0.400
; #@! TA.AperFunction,Plated,PTH,ComponentDrill
T2C0.800
; #@! TA.AperFunction,Plated,PTH,ComponentDrill
T3C1.000
; #@! TA.AperFunction,Plated,PTH,ComponentDrill
T4C1.020
; #@! TA.AperFunction,Plated,PTH,ComponentDrill
T5C1.070
; #@! TA.AperFunction,Plated,PTH,ComponentDrill
T6C1.200
%
G90
G05
T1
X62.23Y-119.38
X63.5Y-96.52
T2
X147.32Y-105.42
X147.32Y-107.96
X147.32Y-110.5
X147.32Y-113.04
X147.32Y-115.58
X147.32Y-118.12
X147.32Y-120.66
X147.32Y-123.2
X147.32Y-125.74
X147.32Y-128.28
X147.32Y-130.82
X147.32Y-133.36
T3
X139.155Y-95.25
X139.155Y-97.79
X141.695Y-95.25
X141.695Y-97.79
X144.235Y-95.25
X144.235Y-97.79
X146.775Y-95.25
X146.775Y-97.79
T4
X67.31Y-90.82
X67.31Y-93.36
X67.31Y-95.9
X67.31Y-98.44
X67.31Y-100.98
X67.31Y-103.52
X67.31Y-106.06
X67.31Y-108.6
X67.31Y-111.14
X67.31Y-113.68
X67.31Y-116.22
X67.31Y-118.76
X67.31Y-121.3
X67.31Y-123.84
X67.31Y-126.38
X67.31Y-128.92
X67.31Y-131.46
X67.31Y-134.0
X67.31Y-136.54
X69.85Y-90.82
X69.85Y-93.36
X69.85Y-95.9
X69.85Y-98.44
X69.85Y-100.98
X69.85Y-103.52
X69.85Y-106.06
X69.85Y-108.6
X69.85Y-111.14
X69.85Y-113.68
X69.85Y-116.22
X69.85Y-118.76
X69.85Y-121.3
X69.85Y-123.84
X69.85Y-126.38
X69.85Y-128.92
X69.85Y-131.46
X69.85Y-134.0
X69.85Y-136.54
X128.27Y-90.82
X128.27Y-93.36
X128.27Y-95.9
X128.27Y-98.44
X128.27Y-100.98
X128.27Y-103.52
X128.27Y-106.06
X128.27Y-108.6
X128.27Y-111.14
X128.27Y-113.68
X128.27Y-116.22
X128.27Y-118.76
X128.27Y-121.3
X128.27Y-123.84
X128.27Y-126.38
X128.27Y-128.92
X128.27Y-131.46
X128.27Y-134.0
X128.27Y-136.54
X130.81Y-90.82
X130.81Y-93.36
X130.81Y-95.9
X130.81Y-98.44
X130.81Y-100.98
X130.81Y-103.52
X130.81Y-106.06
X130.81Y-108.6
X130.81Y-111.14
X130.81Y-113.68
X130.81Y-116.22
X130.81Y-118.76
X130.81Y-121.3
X130.81Y-123.84
X130.81Y-126.38
X130.81Y-128.92
X130.81Y-131.46
X130.81Y-134.0
X130.81Y-136.54
T5
X74.93Y-100.98
X74.93Y-103.52
X74.93Y-106.06
X74.93Y-108.6
X74.93Y-111.14
X74.93Y-113.68
X74.93Y-116.22
X74.93Y-118.76
X74.93Y-123.84
X74.93Y-126.38
X74.93Y-128.92
X74.93Y-131.46
X74.93Y-134.0
X74.93Y-136.54
X123.19Y-91.84
X123.19Y-94.38
X123.19Y-96.92
X123.19Y-99.46
X123.19Y-102.0
X123.19Y-104.54
X123.19Y-107.08
X123.19Y-109.62
X123.19Y-112.16
X123.19Y-114.7
X123.19Y-118.76
X123.19Y-121.3
X123.19Y-123.84
X123.19Y-126.38
X123.19Y-128.92
X123.19Y-131.46
X123.19Y-134.0
X123.19Y-136.54
T6
X59.12Y-82.35
X59.12Y-85.85
X59.12Y-89.35
X59.12Y-92.85
X59.12Y-96.35
X59.12Y-99.85
X59.12Y-103.35
X59.12Y-106.85
X59.12Y-110.35
X59.12Y-113.85
X59.12Y-117.35
X59.12Y-120.85
T0
M30
